G04 Layer_Color=65535*
%FSLAX25Y25*%
%MOIN*%
G70*
G01*
G75*
%ADD31C,0.00984*%
%ADD32C,0.00787*%
%ADD55C,0.01000*%
%ADD56C,0.00394*%
%ADD57C,0.00591*%
%ADD58C,0.00606*%
G36*
X44961Y85531D02*
X44080D01*
Y83169D01*
X43616D01*
Y85531D01*
X42735D01*
Y85912D01*
X44961D01*
Y85531D01*
D02*
G37*
G36*
X49590Y85970D02*
X49627D01*
X49705Y85961D01*
X49795Y85953D01*
X49889Y85937D01*
X49984Y85916D01*
X50070Y85888D01*
X50074D01*
X50078Y85883D01*
X50090Y85879D01*
X50107Y85871D01*
X50143Y85855D01*
X50193Y85830D01*
X50246Y85802D01*
X50299Y85765D01*
X50348Y85724D01*
X50393Y85678D01*
X50398Y85674D01*
X50410Y85658D01*
X50430Y85629D01*
X50451Y85592D01*
X50476Y85547D01*
X50500Y85494D01*
X50525Y85432D01*
X50541Y85363D01*
Y85359D01*
X50545Y85338D01*
X50549Y85309D01*
X50553Y85264D01*
X50558Y85207D01*
X50562Y85133D01*
Y85088D01*
X50566Y85043D01*
Y84994D01*
Y84936D01*
Y84317D01*
Y84309D01*
Y84289D01*
Y84256D01*
Y84215D01*
Y84162D01*
Y84104D01*
X50570Y84039D01*
Y83973D01*
X50574Y83833D01*
Y83764D01*
X50578Y83698D01*
X50582Y83637D01*
X50586Y83583D01*
X50590Y83534D01*
X50594Y83497D01*
Y83489D01*
X50599Y83469D01*
X50607Y83436D01*
X50619Y83391D01*
X50635Y83341D01*
X50656Y83288D01*
X50681Y83227D01*
X50709Y83169D01*
X50225D01*
X50221Y83178D01*
X50213Y83194D01*
X50201Y83227D01*
X50188Y83268D01*
X50172Y83317D01*
X50156Y83374D01*
X50143Y83440D01*
X50135Y83514D01*
X50131Y83510D01*
X50123Y83505D01*
X50111Y83493D01*
X50090Y83477D01*
X50065Y83460D01*
X50041Y83436D01*
X49975Y83391D01*
X49897Y83337D01*
X49815Y83284D01*
X49725Y83239D01*
X49635Y83198D01*
X49631D01*
X49623Y83194D01*
X49610Y83190D01*
X49594Y83186D01*
X49573Y83178D01*
X49545Y83169D01*
X49483Y83153D01*
X49405Y83136D01*
X49319Y83120D01*
X49225Y83112D01*
X49123Y83108D01*
X49077D01*
X49049Y83112D01*
X49012Y83116D01*
X48967Y83120D01*
X48917Y83124D01*
X48868Y83136D01*
X48753Y83161D01*
X48639Y83198D01*
X48585Y83223D01*
X48528Y83255D01*
X48479Y83288D01*
X48430Y83325D01*
X48425Y83329D01*
X48417Y83337D01*
X48409Y83350D01*
X48393Y83366D01*
X48372Y83387D01*
X48352Y83415D01*
X48331Y83444D01*
X48311Y83481D01*
X48266Y83559D01*
X48225Y83657D01*
X48208Y83710D01*
X48200Y83768D01*
X48192Y83829D01*
X48188Y83891D01*
Y83895D01*
Y83899D01*
Y83924D01*
X48192Y83965D01*
X48200Y84014D01*
X48208Y84071D01*
X48225Y84133D01*
X48249Y84194D01*
X48278Y84260D01*
X48282Y84268D01*
X48294Y84289D01*
X48315Y84317D01*
X48344Y84358D01*
X48376Y84399D01*
X48417Y84444D01*
X48462Y84485D01*
X48516Y84526D01*
X48524Y84531D01*
X48544Y84543D01*
X48573Y84563D01*
X48614Y84584D01*
X48663Y84608D01*
X48721Y84633D01*
X48786Y84658D01*
X48852Y84678D01*
X48860D01*
X48877Y84686D01*
X48909Y84690D01*
X48954Y84703D01*
X49012Y84711D01*
X49086Y84723D01*
X49168Y84736D01*
X49266Y84748D01*
X49274D01*
X49291Y84752D01*
X49319Y84756D01*
X49356Y84760D01*
X49405Y84768D01*
X49459Y84777D01*
X49516Y84785D01*
X49582Y84793D01*
X49717Y84817D01*
X49852Y84846D01*
X49918Y84863D01*
X49984Y84879D01*
X50041Y84895D01*
X50094Y84912D01*
Y84916D01*
Y84928D01*
Y84945D01*
X50098Y84961D01*
Y85002D01*
Y85018D01*
Y85031D01*
Y85035D01*
Y85043D01*
Y85059D01*
Y85076D01*
X50090Y85125D01*
X50082Y85186D01*
X50065Y85252D01*
X50041Y85318D01*
X50008Y85379D01*
X49963Y85428D01*
X49955Y85437D01*
X49947Y85445D01*
X49930Y85453D01*
X49910Y85465D01*
X49889Y85478D01*
X49832Y85510D01*
X49758Y85539D01*
X49668Y85564D01*
X49561Y85580D01*
X49438Y85588D01*
X49385D01*
X49356Y85584D01*
X49327D01*
X49254Y85576D01*
X49176Y85560D01*
X49098Y85539D01*
X49020Y85510D01*
X48954Y85474D01*
X48946Y85469D01*
X48930Y85453D01*
X48901Y85420D01*
X48868Y85379D01*
X48831Y85326D01*
X48790Y85252D01*
X48758Y85170D01*
X48741Y85121D01*
X48725Y85068D01*
X48270Y85129D01*
Y85133D01*
X48274Y85141D01*
X48278Y85158D01*
X48282Y85178D01*
X48290Y85203D01*
X48298Y85232D01*
X48319Y85297D01*
X48348Y85371D01*
X48380Y85449D01*
X48421Y85527D01*
X48471Y85597D01*
Y85601D01*
X48479Y85605D01*
X48499Y85625D01*
X48532Y85658D01*
X48577Y85699D01*
X48635Y85744D01*
X48704Y85789D01*
X48786Y85834D01*
X48881Y85875D01*
X48885D01*
X48893Y85879D01*
X48909Y85883D01*
X48930Y85892D01*
X48954Y85900D01*
X48983Y85908D01*
X49020Y85916D01*
X49061Y85925D01*
X49102Y85933D01*
X49151Y85941D01*
X49258Y85957D01*
X49377Y85970D01*
X49504Y85974D01*
X49561D01*
X49590Y85970D01*
D02*
G37*
G36*
X40685Y84838D02*
X41328D01*
X41365Y84834D01*
X41414Y84830D01*
X41472Y84826D01*
X41533Y84817D01*
X41599Y84809D01*
X41743Y84785D01*
X41890Y84744D01*
X41964Y84719D01*
X42034Y84686D01*
X42099Y84654D01*
X42161Y84613D01*
X42165Y84608D01*
X42173Y84604D01*
X42189Y84588D01*
X42210Y84571D01*
X42235Y84551D01*
X42259Y84522D01*
X42288Y84490D01*
X42316Y84453D01*
X42345Y84412D01*
X42374Y84367D01*
X42399Y84313D01*
X42423Y84260D01*
X42444Y84202D01*
X42460Y84137D01*
X42468Y84071D01*
X42472Y83997D01*
Y83993D01*
Y83981D01*
Y83965D01*
X42468Y83940D01*
X42464Y83911D01*
X42460Y83874D01*
X42452Y83838D01*
X42439Y83797D01*
X42407Y83702D01*
X42386Y83653D01*
X42362Y83604D01*
X42333Y83555D01*
X42296Y83505D01*
X42255Y83456D01*
X42210Y83411D01*
X42206Y83407D01*
X42198Y83399D01*
X42181Y83391D01*
X42161Y83374D01*
X42132Y83354D01*
X42099Y83333D01*
X42058Y83313D01*
X42009Y83292D01*
X41956Y83268D01*
X41894Y83247D01*
X41824Y83227D01*
X41751Y83206D01*
X41669Y83190D01*
X41583Y83182D01*
X41484Y83173D01*
X41382Y83169D01*
X40221D01*
Y85912D01*
X40685D01*
Y84838D01*
D02*
G37*
G36*
X66814Y85970D02*
X66855D01*
X66904Y85961D01*
X66957Y85953D01*
X67019Y85941D01*
X67089Y85929D01*
X67158Y85908D01*
X67236Y85883D01*
X67310Y85851D01*
X67388Y85818D01*
X67466Y85773D01*
X67540Y85724D01*
X67614Y85666D01*
X67683Y85601D01*
X67687Y85597D01*
X67700Y85584D01*
X67716Y85564D01*
X67741Y85531D01*
X67765Y85494D01*
X67798Y85449D01*
X67831Y85396D01*
X67864Y85334D01*
X67896Y85264D01*
X67929Y85186D01*
X67962Y85105D01*
X67987Y85014D01*
X68011Y84916D01*
X68028Y84809D01*
X68040Y84694D01*
X68044Y84576D01*
Y84571D01*
Y84551D01*
Y84526D01*
X68040Y84490D01*
Y84444D01*
X68036Y84391D01*
X68032Y84334D01*
X68024Y84272D01*
X68007Y84141D01*
X67978Y84002D01*
X67937Y83866D01*
X67913Y83805D01*
X67884Y83743D01*
Y83739D01*
X67876Y83731D01*
X67868Y83715D01*
X67855Y83694D01*
X67839Y83670D01*
X67818Y83637D01*
X67765Y83571D01*
X67700Y83493D01*
X67622Y83415D01*
X67527Y83341D01*
X67421Y83272D01*
X67417D01*
X67409Y83264D01*
X67392Y83255D01*
X67368Y83247D01*
X67339Y83235D01*
X67306Y83218D01*
X67269Y83206D01*
X67224Y83190D01*
X67179Y83173D01*
X67126Y83161D01*
X67015Y83132D01*
X66892Y83116D01*
X66761Y83108D01*
X66736D01*
X66707Y83112D01*
X66666D01*
X66617Y83120D01*
X66560Y83128D01*
X66498Y83141D01*
X66429Y83153D01*
X66355Y83173D01*
X66281Y83198D01*
X66203Y83227D01*
X66125Y83264D01*
X66047Y83305D01*
X65974Y83354D01*
X65900Y83411D01*
X65830Y83477D01*
X65826Y83481D01*
X65814Y83493D01*
X65797Y83514D01*
X65777Y83547D01*
X65748Y83583D01*
X65719Y83628D01*
X65687Y83686D01*
X65654Y83747D01*
X65621Y83821D01*
X65588Y83899D01*
X65559Y83985D01*
X65531Y84079D01*
X65510Y84182D01*
X65494Y84293D01*
X65482Y84412D01*
X65477Y84539D01*
Y84543D01*
Y84547D01*
Y84571D01*
X65482Y84613D01*
X65486Y84662D01*
X65490Y84727D01*
X65498Y84801D01*
X65514Y84879D01*
X65531Y84965D01*
X65551Y85055D01*
X65580Y85150D01*
X65617Y85244D01*
X65654Y85338D01*
X65703Y85428D01*
X65760Y85514D01*
X65826Y85592D01*
X65900Y85666D01*
X65904Y85670D01*
X65916Y85678D01*
X65937Y85695D01*
X65961Y85715D01*
X65998Y85736D01*
X66039Y85765D01*
X66084Y85793D01*
X66142Y85822D01*
X66199Y85851D01*
X66265Y85875D01*
X66334Y85904D01*
X66412Y85925D01*
X66494Y85945D01*
X66576Y85961D01*
X66666Y85970D01*
X66761Y85974D01*
X66785D01*
X66814Y85970D01*
D02*
G37*
G36*
X39529Y83169D02*
X39065D01*
Y85531D01*
X37835D01*
Y84162D01*
Y84157D01*
Y84141D01*
Y84116D01*
Y84084D01*
Y84047D01*
Y84002D01*
X37831Y83952D01*
Y83903D01*
X37827Y83797D01*
X37823Y83694D01*
X37819Y83645D01*
X37815Y83600D01*
X37806Y83563D01*
X37802Y83530D01*
Y83522D01*
X37794Y83505D01*
X37786Y83477D01*
X37770Y83440D01*
X37745Y83399D01*
X37716Y83354D01*
X37679Y83309D01*
X37630Y83264D01*
X37622Y83259D01*
X37606Y83247D01*
X37573Y83227D01*
X37532Y83210D01*
X37474Y83190D01*
X37405Y83169D01*
X37327Y83157D01*
X37233Y83153D01*
X37171D01*
X37126Y83157D01*
X37069D01*
X37007Y83161D01*
X36937Y83165D01*
X36859Y83173D01*
Y83559D01*
X37110D01*
X37138Y83563D01*
X37208Y83571D01*
X37241Y83579D01*
X37265Y83587D01*
X37269D01*
X37273Y83592D01*
X37298Y83612D01*
X37327Y83641D01*
X37347Y83682D01*
Y83686D01*
X37351Y83698D01*
X37356Y83723D01*
Y83739D01*
X37360Y83760D01*
X37364Y83784D01*
Y83813D01*
X37368Y83846D01*
Y83887D01*
Y83932D01*
X37372Y83981D01*
Y84039D01*
Y84100D01*
Y85912D01*
X39529D01*
Y83169D01*
D02*
G37*
G36*
X110851Y37692D02*
Y37688D01*
Y37675D01*
Y37659D01*
Y37636D01*
X110848Y37606D01*
Y37570D01*
X110845Y37534D01*
X110838Y37491D01*
X110828Y37406D01*
X110812Y37311D01*
X110789Y37222D01*
X110756Y37137D01*
Y37134D01*
X110753Y37127D01*
X110746Y37117D01*
X110740Y37101D01*
X110717Y37065D01*
X110687Y37016D01*
X110648Y36963D01*
X110599Y36911D01*
X110540Y36858D01*
X110474Y36809D01*
X110471D01*
X110464Y36803D01*
X110454Y36799D01*
X110441Y36790D01*
X110425Y36780D01*
X110402Y36770D01*
X110353Y36747D01*
X110294Y36727D01*
X110225Y36707D01*
X110153Y36694D01*
X110074Y36688D01*
X110041D01*
X110005Y36694D01*
X109956Y36701D01*
X109900Y36714D01*
X109838Y36734D01*
X109775Y36760D01*
X109710Y36796D01*
X109707D01*
X109703Y36799D01*
X109693Y36806D01*
X109680Y36816D01*
X109651Y36839D01*
X109611Y36875D01*
X109569Y36917D01*
X109523Y36973D01*
X109477Y37036D01*
X109434Y37111D01*
Y37108D01*
X109431Y37098D01*
X109424Y37085D01*
X109418Y37065D01*
X109408Y37042D01*
X109398Y37016D01*
X109369Y36957D01*
X109333Y36888D01*
X109283Y36819D01*
X109228Y36750D01*
X109159Y36691D01*
X109155Y36688D01*
X109149Y36685D01*
X109139Y36678D01*
X109126Y36668D01*
X109106Y36655D01*
X109083Y36642D01*
X109057Y36629D01*
X109028Y36616D01*
X108962Y36589D01*
X108883Y36563D01*
X108795Y36547D01*
X108749Y36540D01*
X108663D01*
X108644Y36544D01*
X108624D01*
X108572Y36550D01*
X108509Y36563D01*
X108444Y36580D01*
X108372Y36603D01*
X108303Y36632D01*
X108299D01*
X108296Y36635D01*
X108286Y36642D01*
X108273Y36648D01*
X108240Y36668D01*
X108201Y36694D01*
X108155Y36724D01*
X108109Y36763D01*
X108063Y36806D01*
X108021Y36855D01*
X108017Y36862D01*
X108004Y36878D01*
X107988Y36908D01*
X107965Y36947D01*
X107942Y36993D01*
X107916Y37049D01*
X107893Y37114D01*
X107873Y37186D01*
Y37190D01*
X107870Y37196D01*
Y37206D01*
X107867Y37222D01*
X107863Y37242D01*
X107857Y37265D01*
X107853Y37291D01*
X107850Y37321D01*
X107843Y37354D01*
X107840Y37393D01*
X107830Y37475D01*
X107827Y37570D01*
X107824Y37675D01*
Y38826D01*
X110851D01*
Y37692D01*
D02*
G37*
G36*
X59696Y83169D02*
X59233D01*
Y85248D01*
X57942Y83169D01*
X57446D01*
Y85912D01*
X57909D01*
Y83817D01*
X59200Y85912D01*
X59696D01*
Y83169D01*
D02*
G37*
G36*
X52530Y84305D02*
X51099D01*
Y84772D01*
X52530D01*
Y84305D01*
D02*
G37*
G36*
X56699Y83169D02*
X56216D01*
Y86339D01*
X55108Y83169D01*
X54658D01*
X53567Y86392D01*
Y83169D01*
X53083D01*
Y86954D01*
X53833D01*
X54731Y84272D01*
Y84268D01*
X54735Y84256D01*
X54744Y84235D01*
X54752Y84211D01*
X54760Y84182D01*
X54772Y84145D01*
X54801Y84063D01*
X54830Y83973D01*
X54858Y83879D01*
X54887Y83793D01*
X54899Y83751D01*
X54912Y83715D01*
Y83719D01*
X54916Y83723D01*
X54920Y83735D01*
X54924Y83751D01*
X54932Y83776D01*
X54940Y83801D01*
X54949Y83833D01*
X54961Y83866D01*
X54973Y83907D01*
X54990Y83952D01*
X55006Y84002D01*
X55022Y84059D01*
X55043Y84116D01*
X55063Y84182D01*
X55088Y84248D01*
X55113Y84321D01*
X56023Y86954D01*
X56699D01*
Y83169D01*
D02*
G37*
G36*
X110851Y35583D02*
X109037D01*
X109005Y35579D01*
X108969D01*
X108926Y35576D01*
X108883Y35573D01*
X108788Y35566D01*
X108693Y35553D01*
X108601Y35533D01*
X108559Y35524D01*
X108522Y35510D01*
X108519D01*
X108516Y35507D01*
X108506Y35504D01*
X108493Y35497D01*
X108457Y35478D01*
X108417Y35451D01*
X108368Y35418D01*
X108322Y35376D01*
X108276Y35323D01*
X108234Y35261D01*
Y35258D01*
X108231Y35251D01*
X108224Y35241D01*
X108217Y35228D01*
X108211Y35212D01*
X108204Y35189D01*
X108194Y35166D01*
X108185Y35140D01*
X108168Y35074D01*
X108152Y34999D01*
X108139Y34913D01*
X108135Y34822D01*
Y34815D01*
Y34802D01*
Y34779D01*
X108139Y34749D01*
X108142Y34713D01*
X108145Y34671D01*
X108152Y34625D01*
X108162Y34576D01*
X108185Y34474D01*
X108201Y34421D01*
X108221Y34369D01*
X108244Y34320D01*
X108270Y34274D01*
X108299Y34231D01*
X108335Y34192D01*
X108339Y34189D01*
X108345Y34182D01*
X108359Y34175D01*
X108375Y34162D01*
X108398Y34149D01*
X108427Y34133D01*
X108463Y34113D01*
X108506Y34097D01*
X108555Y34080D01*
X108611Y34061D01*
X108673Y34044D01*
X108742Y34031D01*
X108821Y34018D01*
X108906Y34008D01*
X109001Y34005D01*
X109103Y34001D01*
X110851D01*
Y33601D01*
X109028D01*
X108988Y33605D01*
X108946Y33608D01*
X108896Y33611D01*
X108841Y33615D01*
X108726Y33628D01*
X108605Y33644D01*
X108486Y33670D01*
X108431Y33687D01*
X108378Y33706D01*
X108375D01*
X108365Y33710D01*
X108352Y33716D01*
X108332Y33726D01*
X108309Y33739D01*
X108283Y33752D01*
X108224Y33792D01*
X108188Y33815D01*
X108155Y33841D01*
X108116Y33874D01*
X108080Y33906D01*
X108044Y33946D01*
X108008Y33985D01*
X107975Y34031D01*
X107942Y34080D01*
X107939Y34084D01*
X107935Y34093D01*
X107925Y34106D01*
X107916Y34130D01*
X107903Y34156D01*
X107889Y34189D01*
X107873Y34225D01*
X107860Y34271D01*
X107843Y34316D01*
X107827Y34369D01*
X107814Y34428D01*
X107801Y34490D01*
X107791Y34559D01*
X107781Y34631D01*
X107778Y34707D01*
X107775Y34785D01*
Y34789D01*
Y34805D01*
Y34828D01*
X107778Y34858D01*
Y34894D01*
X107781Y34933D01*
X107788Y34982D01*
X107794Y35032D01*
X107811Y35143D01*
X107837Y35261D01*
X107873Y35376D01*
X107893Y35432D01*
X107919Y35484D01*
X107922Y35487D01*
X107925Y35497D01*
X107935Y35510D01*
X107945Y35527D01*
X107962Y35550D01*
X107981Y35576D01*
X108001Y35602D01*
X108027Y35632D01*
X108086Y35697D01*
X108158Y35760D01*
X108244Y35819D01*
X108293Y35845D01*
X108342Y35868D01*
X108345D01*
X108355Y35871D01*
X108372Y35878D01*
X108395Y35884D01*
X108421Y35894D01*
X108457Y35904D01*
X108496Y35914D01*
X108542Y35924D01*
X108595Y35937D01*
X108650Y35947D01*
X108713Y35956D01*
X108782Y35963D01*
X108854Y35973D01*
X108932Y35976D01*
X109014Y35983D01*
X110851D01*
Y35583D01*
D02*
G37*
G36*
Y32519D02*
X109608D01*
Y30948D01*
X110851D01*
Y30548D01*
X107824D01*
Y30948D01*
X109251D01*
Y32519D01*
X107824D01*
Y32919D01*
X110851D01*
Y32519D01*
D02*
G37*
G36*
X107906Y48414D02*
X107945Y48411D01*
X107988Y48401D01*
X108034Y48391D01*
X108080Y48375D01*
X108083D01*
X108089Y48371D01*
X108099Y48368D01*
X108116Y48361D01*
X108132Y48351D01*
X108155Y48342D01*
X108208Y48315D01*
X108270Y48283D01*
X108339Y48240D01*
X108411Y48191D01*
X108483Y48132D01*
X108486Y48129D01*
X108493Y48125D01*
X108503Y48115D01*
X108519Y48099D01*
X108536Y48083D01*
X108559Y48060D01*
X108585Y48037D01*
X108614Y48007D01*
X108647Y47974D01*
X108680Y47938D01*
X108719Y47899D01*
X108759Y47853D01*
X108801Y47807D01*
X108844Y47755D01*
X108890Y47702D01*
X108939Y47643D01*
X108942Y47637D01*
X108959Y47620D01*
X108978Y47597D01*
X109008Y47564D01*
X109041Y47525D01*
X109080Y47479D01*
X109123Y47427D01*
X109172Y47374D01*
X109274Y47263D01*
X109382Y47154D01*
X109434Y47102D01*
X109487Y47053D01*
X109536Y47010D01*
X109582Y46974D01*
X109585Y46971D01*
X109592Y46967D01*
X109605Y46957D01*
X109621Y46948D01*
X109644Y46931D01*
X109667Y46918D01*
X109726Y46885D01*
X109795Y46853D01*
X109871Y46823D01*
X109949Y46803D01*
X109989Y46800D01*
X110028Y46797D01*
X110051D01*
X110064Y46800D01*
X110084D01*
X110107Y46807D01*
X110156Y46817D01*
X110215Y46836D01*
X110277Y46866D01*
X110310Y46882D01*
X110340Y46905D01*
X110369Y46928D01*
X110399Y46957D01*
X110402Y46961D01*
X110405Y46964D01*
X110412Y46974D01*
X110422Y46987D01*
X110435Y47003D01*
X110448Y47023D01*
X110477Y47069D01*
X110504Y47131D01*
X110530Y47200D01*
X110546Y47282D01*
X110553Y47328D01*
Y47374D01*
Y47377D01*
Y47387D01*
Y47400D01*
X110549Y47420D01*
Y47443D01*
X110543Y47469D01*
X110533Y47528D01*
X110513Y47597D01*
X110484Y47669D01*
X110464Y47705D01*
X110445Y47741D01*
X110418Y47774D01*
X110389Y47807D01*
X110386Y47810D01*
X110382Y47814D01*
X110372Y47820D01*
X110359Y47833D01*
X110343Y47843D01*
X110323Y47856D01*
X110300Y47873D01*
X110274Y47886D01*
X110245Y47902D01*
X110212Y47915D01*
X110133Y47941D01*
X110048Y47961D01*
X109999Y47965D01*
X109946Y47968D01*
X109985Y48348D01*
X109992D01*
X110005Y48345D01*
X110025Y48342D01*
X110054Y48338D01*
X110090Y48332D01*
X110133Y48322D01*
X110179Y48312D01*
X110228Y48296D01*
X110277Y48279D01*
X110333Y48260D01*
X110386Y48233D01*
X110438Y48207D01*
X110494Y48174D01*
X110543Y48138D01*
X110592Y48099D01*
X110635Y48053D01*
X110638Y48050D01*
X110645Y48040D01*
X110654Y48027D01*
X110671Y48007D01*
X110687Y47981D01*
X110707Y47948D01*
X110727Y47912D01*
X110750Y47869D01*
X110769Y47824D01*
X110789Y47771D01*
X110809Y47715D01*
X110825Y47653D01*
X110841Y47587D01*
X110851Y47518D01*
X110858Y47443D01*
X110861Y47364D01*
Y47358D01*
Y47345D01*
Y47322D01*
X110858Y47292D01*
X110855Y47256D01*
X110848Y47213D01*
X110841Y47164D01*
X110832Y47115D01*
X110819Y47059D01*
X110802Y47003D01*
X110782Y46944D01*
X110759Y46889D01*
X110730Y46830D01*
X110697Y46774D01*
X110661Y46721D01*
X110618Y46672D01*
X110615Y46669D01*
X110609Y46662D01*
X110592Y46649D01*
X110576Y46633D01*
X110553Y46613D01*
X110523Y46590D01*
X110491Y46567D01*
X110451Y46544D01*
X110412Y46521D01*
X110366Y46498D01*
X110317Y46475D01*
X110264Y46456D01*
X110205Y46439D01*
X110146Y46426D01*
X110084Y46420D01*
X110018Y46416D01*
X109989D01*
X109953Y46420D01*
X109907Y46426D01*
X109851Y46436D01*
X109792Y46449D01*
X109726Y46466D01*
X109661Y46492D01*
X109657D01*
X109654Y46495D01*
X109644Y46498D01*
X109631Y46505D01*
X109595Y46525D01*
X109549Y46551D01*
X109493Y46587D01*
X109431Y46630D01*
X109365Y46679D01*
X109293Y46741D01*
X109290Y46744D01*
X109283Y46748D01*
X109274Y46761D01*
X109257Y46774D01*
X109238Y46793D01*
X109215Y46817D01*
X109185Y46843D01*
X109155Y46876D01*
X109119Y46915D01*
X109080Y46957D01*
X109034Y47003D01*
X108988Y47056D01*
X108936Y47112D01*
X108883Y47174D01*
X108824Y47243D01*
X108762Y47315D01*
X108759Y47318D01*
X108749Y47328D01*
X108736Y47348D01*
X108716Y47368D01*
X108693Y47397D01*
X108667Y47427D01*
X108608Y47495D01*
X108545Y47568D01*
X108480Y47637D01*
X108450Y47669D01*
X108424Y47699D01*
X108398Y47725D01*
X108378Y47745D01*
X108375Y47748D01*
X108362Y47761D01*
X108342Y47778D01*
X108316Y47800D01*
X108286Y47827D01*
X108254Y47853D01*
X108181Y47905D01*
Y46413D01*
X107824D01*
Y48417D01*
X107873D01*
X107906Y48414D01*
D02*
G37*
G36*
X109106Y48673D02*
X108732D01*
Y49818D01*
X109106D01*
Y48673D01*
D02*
G37*
G36*
X108647Y45623D02*
X108644D01*
X108634Y45619D01*
X108621Y45616D01*
X108601Y45613D01*
X108578Y45609D01*
X108549Y45600D01*
X108486Y45583D01*
X108417Y45557D01*
X108345Y45521D01*
X108280Y45478D01*
X108250Y45452D01*
X108221Y45426D01*
Y45423D01*
X108214Y45419D01*
X108208Y45409D01*
X108198Y45396D01*
X108175Y45364D01*
X108152Y45318D01*
X108126Y45262D01*
X108103Y45196D01*
X108086Y45124D01*
X108083Y45085D01*
X108080Y45042D01*
Y45039D01*
Y45029D01*
Y45016D01*
X108083Y44996D01*
X108086Y44973D01*
X108089Y44947D01*
X108106Y44885D01*
X108129Y44812D01*
X108145Y44776D01*
X108165Y44737D01*
X108188Y44698D01*
X108214Y44662D01*
X108244Y44625D01*
X108280Y44589D01*
X108283Y44586D01*
X108290Y44583D01*
X108299Y44573D01*
X108316Y44560D01*
X108339Y44547D01*
X108362Y44530D01*
X108391Y44514D01*
X108424Y44494D01*
X108460Y44478D01*
X108500Y44462D01*
X108545Y44445D01*
X108591Y44432D01*
X108644Y44419D01*
X108700Y44409D01*
X108755Y44406D01*
X108818Y44402D01*
X108847D01*
X108870Y44406D01*
X108896Y44409D01*
X108929Y44412D01*
X108962Y44419D01*
X109001Y44425D01*
X109080Y44445D01*
X109165Y44478D01*
X109205Y44497D01*
X109244Y44524D01*
X109283Y44550D01*
X109319Y44583D01*
X109323Y44586D01*
X109326Y44589D01*
X109336Y44603D01*
X109349Y44616D01*
X109362Y44632D01*
X109379Y44655D01*
X109395Y44678D01*
X109415Y44708D01*
X109431Y44740D01*
X109447Y44773D01*
X109477Y44855D01*
X109490Y44898D01*
X109500Y44947D01*
X109503Y44996D01*
X109506Y45049D01*
Y45052D01*
Y45055D01*
Y45065D01*
Y45078D01*
X109503Y45114D01*
X109497Y45157D01*
X109487Y45209D01*
X109470Y45265D01*
X109451Y45321D01*
X109421Y45377D01*
X109418Y45383D01*
X109408Y45399D01*
X109388Y45426D01*
X109365Y45459D01*
X109333Y45491D01*
X109297Y45531D01*
X109254Y45567D01*
X109208Y45600D01*
X109257Y45947D01*
X110812Y45655D01*
Y44150D01*
X110458D01*
Y45360D01*
X109644Y45521D01*
X109648Y45518D01*
X109654Y45508D01*
X109661Y45495D01*
X109674Y45475D01*
X109687Y45449D01*
X109703Y45419D01*
X109723Y45386D01*
X109739Y45347D01*
X109756Y45308D01*
X109775Y45262D01*
X109805Y45167D01*
X109818Y45114D01*
X109828Y45062D01*
X109831Y45006D01*
X109835Y44950D01*
Y44947D01*
Y44934D01*
X109831Y44911D01*
Y44885D01*
X109825Y44852D01*
X109821Y44812D01*
X109811Y44767D01*
X109802Y44721D01*
X109785Y44668D01*
X109769Y44616D01*
X109746Y44560D01*
X109720Y44504D01*
X109687Y44448D01*
X109651Y44393D01*
X109608Y44337D01*
X109559Y44284D01*
X109556Y44281D01*
X109546Y44271D01*
X109529Y44258D01*
X109510Y44242D01*
X109484Y44219D01*
X109447Y44196D01*
X109411Y44173D01*
X109369Y44147D01*
X109319Y44120D01*
X109264Y44097D01*
X109208Y44071D01*
X109142Y44051D01*
X109077Y44035D01*
X109005Y44022D01*
X108929Y44012D01*
X108851Y44009D01*
X108811D01*
X108782Y44012D01*
X108746Y44015D01*
X108706Y44022D01*
X108660Y44028D01*
X108608Y44038D01*
X108555Y44051D01*
X108496Y44068D01*
X108437Y44087D01*
X108378Y44111D01*
X108319Y44137D01*
X108257Y44170D01*
X108198Y44206D01*
X108142Y44248D01*
X108139Y44251D01*
X108126Y44261D01*
X108109Y44278D01*
X108086Y44301D01*
X108057Y44330D01*
X108027Y44366D01*
X107991Y44409D01*
X107958Y44458D01*
X107925Y44511D01*
X107889Y44570D01*
X107860Y44635D01*
X107834Y44708D01*
X107807Y44783D01*
X107791Y44865D01*
X107778Y44950D01*
X107775Y45042D01*
Y45045D01*
Y45062D01*
Y45081D01*
X107778Y45111D01*
X107781Y45147D01*
X107788Y45186D01*
X107794Y45232D01*
X107804Y45281D01*
X107814Y45334D01*
X107830Y45390D01*
X107850Y45445D01*
X107873Y45501D01*
X107899Y45557D01*
X107929Y45613D01*
X107965Y45665D01*
X108004Y45718D01*
X108008Y45721D01*
X108014Y45728D01*
X108027Y45741D01*
X108047Y45757D01*
X108070Y45780D01*
X108096Y45803D01*
X108129Y45826D01*
X108168Y45852D01*
X108208Y45878D01*
X108254Y45905D01*
X108306Y45928D01*
X108359Y45951D01*
X108417Y45974D01*
X108480Y45990D01*
X108549Y46003D01*
X108618Y46013D01*
X108647Y45623D01*
D02*
G37*
G36*
X110103Y41024D02*
X110107Y41014D01*
X110117Y40998D01*
X110126Y40975D01*
X110140Y40949D01*
X110159Y40916D01*
X110179Y40880D01*
X110199Y40844D01*
X110251Y40758D01*
X110313Y40666D01*
X110379Y40571D01*
X110454Y40483D01*
X110458Y40479D01*
X110464Y40473D01*
X110474Y40460D01*
X110491Y40444D01*
X110510Y40427D01*
X110530Y40404D01*
X110586Y40355D01*
X110645Y40299D01*
X110714Y40243D01*
X110786Y40194D01*
X110861Y40152D01*
Y39912D01*
X107824D01*
Y40283D01*
X110189D01*
X110182Y40289D01*
X110166Y40306D01*
X110143Y40335D01*
X110110Y40378D01*
X110071Y40427D01*
X110028Y40489D01*
X109982Y40558D01*
X109933Y40637D01*
Y40640D01*
X109926Y40647D01*
X109920Y40657D01*
X109913Y40673D01*
X109900Y40693D01*
X109890Y40716D01*
X109861Y40768D01*
X109831Y40827D01*
X109798Y40893D01*
X109769Y40962D01*
X109743Y41027D01*
X110100D01*
X110103Y41024D01*
D02*
G37*
G36*
X108673Y43290D02*
X108670D01*
X108660Y43287D01*
X108644Y43284D01*
X108621Y43277D01*
X108595Y43271D01*
X108565Y43264D01*
X108496Y43241D01*
X108421Y43212D01*
X108345Y43176D01*
X108276Y43130D01*
X108247Y43104D01*
X108217Y43077D01*
Y43074D01*
X108211Y43071D01*
X108204Y43061D01*
X108194Y43051D01*
X108175Y43018D01*
X108149Y42972D01*
X108122Y42917D01*
X108103Y42854D01*
X108086Y42779D01*
X108080Y42700D01*
Y42697D01*
Y42687D01*
Y42674D01*
X108083Y42654D01*
X108086Y42634D01*
X108089Y42605D01*
X108103Y42546D01*
X108122Y42474D01*
X108155Y42398D01*
X108178Y42362D01*
X108201Y42326D01*
X108227Y42290D01*
X108260Y42254D01*
X108263Y42251D01*
X108270Y42247D01*
X108280Y42238D01*
X108293Y42224D01*
X108309Y42211D01*
X108332Y42198D01*
X108355Y42182D01*
X108385Y42162D01*
X108450Y42129D01*
X108526Y42103D01*
X108614Y42080D01*
X108660Y42077D01*
X108709Y42074D01*
X108736D01*
X108752Y42077D01*
X108775Y42080D01*
X108798Y42083D01*
X108857Y42093D01*
X108926Y42116D01*
X108995Y42146D01*
X109031Y42165D01*
X109064Y42188D01*
X109097Y42215D01*
X109129Y42244D01*
X109133Y42247D01*
X109136Y42251D01*
X109146Y42261D01*
X109155Y42274D01*
X109169Y42290D01*
X109182Y42310D01*
X109215Y42359D01*
X109244Y42421D01*
X109270Y42494D01*
X109290Y42575D01*
X109293Y42621D01*
X109297Y42667D01*
Y42671D01*
Y42687D01*
X109293Y42710D01*
Y42739D01*
X109287Y42779D01*
X109280Y42821D01*
X109270Y42874D01*
X109257Y42930D01*
X109582Y42890D01*
Y42887D01*
Y42884D01*
X109579Y42867D01*
X109575Y42848D01*
Y42828D01*
Y42825D01*
Y42818D01*
Y42805D01*
X109579Y42789D01*
Y42766D01*
X109582Y42743D01*
X109592Y42687D01*
X109605Y42621D01*
X109628Y42549D01*
X109657Y42474D01*
X109700Y42402D01*
Y42398D01*
X109707Y42392D01*
X109713Y42385D01*
X109723Y42372D01*
X109753Y42339D01*
X109795Y42303D01*
X109848Y42270D01*
X109913Y42238D01*
X109949Y42224D01*
X109992Y42218D01*
X110035Y42211D01*
X110081Y42208D01*
X110100D01*
X110117Y42211D01*
X110153Y42215D01*
X110202Y42224D01*
X110254Y42241D01*
X110310Y42267D01*
X110369Y42303D01*
X110395Y42323D01*
X110422Y42349D01*
X110428Y42356D01*
X110441Y42375D01*
X110464Y42405D01*
X110491Y42444D01*
X110513Y42497D01*
X110536Y42559D01*
X110549Y42628D01*
X110556Y42707D01*
Y42710D01*
Y42717D01*
Y42726D01*
X110553Y42743D01*
Y42762D01*
X110549Y42782D01*
X110540Y42835D01*
X110523Y42890D01*
X110497Y42953D01*
X110464Y43012D01*
X110418Y43071D01*
X110412Y43077D01*
X110392Y43094D01*
X110363Y43120D01*
X110317Y43146D01*
X110261Y43179D01*
X110189Y43209D01*
X110107Y43235D01*
X110012Y43254D01*
X110077Y43625D01*
X110081D01*
X110094Y43622D01*
X110113Y43619D01*
X110140Y43612D01*
X110169Y43602D01*
X110205Y43592D01*
X110245Y43579D01*
X110287Y43563D01*
X110382Y43520D01*
X110428Y43497D01*
X110477Y43468D01*
X110523Y43435D01*
X110569Y43399D01*
X110615Y43359D01*
X110654Y43317D01*
X110658Y43314D01*
X110664Y43307D01*
X110674Y43290D01*
X110687Y43274D01*
X110704Y43248D01*
X110720Y43222D01*
X110740Y43189D01*
X110759Y43150D01*
X110776Y43110D01*
X110795Y43064D01*
X110812Y43015D01*
X110828Y42963D01*
X110841Y42903D01*
X110851Y42844D01*
X110858Y42782D01*
X110861Y42717D01*
Y42713D01*
Y42707D01*
Y42693D01*
Y42674D01*
X110858Y42651D01*
X110855Y42628D01*
X110848Y42566D01*
X110835Y42497D01*
X110815Y42418D01*
X110789Y42339D01*
X110753Y42261D01*
Y42257D01*
X110750Y42251D01*
X110743Y42241D01*
X110733Y42224D01*
X110710Y42188D01*
X110677Y42143D01*
X110635Y42090D01*
X110586Y42037D01*
X110530Y41985D01*
X110464Y41939D01*
X110461D01*
X110458Y41936D01*
X110445Y41929D01*
X110431Y41923D01*
X110415Y41913D01*
X110395Y41903D01*
X110346Y41883D01*
X110287Y41864D01*
X110222Y41844D01*
X110149Y41831D01*
X110074Y41828D01*
X110041D01*
X110002Y41834D01*
X109956Y41841D01*
X109900Y41854D01*
X109841Y41873D01*
X109779Y41900D01*
X109716Y41936D01*
X109713D01*
X109710Y41939D01*
X109690Y41956D01*
X109661Y41978D01*
X109625Y42015D01*
X109582Y42057D01*
X109539Y42113D01*
X109500Y42175D01*
X109461Y42247D01*
Y42244D01*
X109457Y42234D01*
X109454Y42221D01*
X109447Y42202D01*
X109441Y42182D01*
X109431Y42156D01*
X109405Y42093D01*
X109369Y42028D01*
X109326Y41959D01*
X109270Y41890D01*
X109201Y41831D01*
X109198Y41828D01*
X109192Y41824D01*
X109182Y41818D01*
X109165Y41808D01*
X109149Y41795D01*
X109126Y41782D01*
X109100Y41769D01*
X109067Y41756D01*
X109034Y41742D01*
X108998Y41729D01*
X108916Y41703D01*
X108821Y41687D01*
X108768Y41680D01*
X108700D01*
X108677Y41683D01*
X108650D01*
X108614Y41690D01*
X108575Y41696D01*
X108532Y41703D01*
X108483Y41716D01*
X108431Y41732D01*
X108378Y41752D01*
X108322Y41775D01*
X108267Y41805D01*
X108208Y41837D01*
X108152Y41877D01*
X108096Y41919D01*
X108044Y41972D01*
X108040Y41975D01*
X108030Y41985D01*
X108017Y42001D01*
X108001Y42024D01*
X107981Y42051D01*
X107958Y42087D01*
X107932Y42126D01*
X107909Y42172D01*
X107883Y42221D01*
X107857Y42277D01*
X107834Y42336D01*
X107814Y42402D01*
X107798Y42470D01*
X107784Y42543D01*
X107775Y42618D01*
X107771Y42700D01*
Y42703D01*
Y42717D01*
X107775Y42739D01*
Y42766D01*
X107778Y42802D01*
X107784Y42841D01*
X107791Y42884D01*
X107801Y42933D01*
X107814Y42985D01*
X107830Y43038D01*
X107847Y43094D01*
X107870Y43150D01*
X107899Y43205D01*
X107929Y43258D01*
X107965Y43314D01*
X108008Y43363D01*
X108011Y43366D01*
X108017Y43372D01*
X108030Y43386D01*
X108050Y43405D01*
X108073Y43425D01*
X108103Y43448D01*
X108135Y43471D01*
X108175Y43497D01*
X108214Y43523D01*
X108263Y43550D01*
X108313Y43576D01*
X108368Y43599D01*
X108427Y43619D01*
X108490Y43638D01*
X108555Y43651D01*
X108624Y43661D01*
X108673Y43290D01*
D02*
G37*
G36*
X110851Y50037D02*
X110494D01*
Y51035D01*
X107824D01*
Y51435D01*
X110494D01*
Y52432D01*
X110851D01*
Y50037D01*
D02*
G37*
G36*
X109438Y65001D02*
X109480Y64998D01*
X109529Y64994D01*
X109582Y64988D01*
X109641Y64981D01*
X109703Y64971D01*
X109769Y64961D01*
X109910Y64929D01*
X109979Y64906D01*
X110048Y64883D01*
X110120Y64856D01*
X110185Y64824D01*
X110189Y64820D01*
X110202Y64814D01*
X110218Y64804D01*
X110245Y64791D01*
X110274Y64771D01*
X110307Y64748D01*
X110343Y64722D01*
X110386Y64692D01*
X110425Y64656D01*
X110471Y64620D01*
X110513Y64578D01*
X110559Y64532D01*
X110602Y64483D01*
X110645Y64430D01*
X110684Y64371D01*
X110720Y64312D01*
X110723Y64309D01*
X110727Y64296D01*
X110737Y64279D01*
X110750Y64253D01*
X110763Y64223D01*
X110779Y64184D01*
X110795Y64141D01*
X110812Y64095D01*
X110828Y64043D01*
X110845Y63984D01*
X110861Y63925D01*
X110874Y63859D01*
X110897Y63725D01*
X110900Y63653D01*
X110904Y63577D01*
Y63571D01*
Y63558D01*
Y63535D01*
X110900Y63502D01*
X110897Y63463D01*
X110891Y63417D01*
X110884Y63367D01*
X110874Y63312D01*
X110861Y63253D01*
X110848Y63190D01*
X110828Y63128D01*
X110805Y63062D01*
X110779Y62997D01*
X110746Y62934D01*
X110714Y62872D01*
X110671Y62813D01*
X110668Y62810D01*
X110661Y62800D01*
X110648Y62783D01*
X110628Y62764D01*
X110605Y62738D01*
X110576Y62708D01*
X110543Y62679D01*
X110504Y62643D01*
X110461Y62606D01*
X110412Y62570D01*
X110359Y62534D01*
X110300Y62501D01*
X110238Y62465D01*
X110169Y62436D01*
X110097Y62406D01*
X110021Y62380D01*
X109930Y62774D01*
X109933D01*
X109943Y62780D01*
X109962Y62783D01*
X109985Y62793D01*
X110012Y62803D01*
X110041Y62820D01*
X110113Y62852D01*
X110192Y62895D01*
X110274Y62951D01*
X110349Y63010D01*
X110382Y63046D01*
X110412Y63082D01*
X110415Y63085D01*
X110418Y63092D01*
X110425Y63102D01*
X110435Y63118D01*
X110448Y63138D01*
X110461Y63161D01*
X110474Y63187D01*
X110487Y63220D01*
X110500Y63256D01*
X110513Y63292D01*
X110540Y63377D01*
X110556Y63476D01*
X110563Y63528D01*
Y63584D01*
Y63587D01*
Y63600D01*
Y63617D01*
X110559Y63643D01*
X110556Y63672D01*
X110553Y63709D01*
X110549Y63748D01*
X110543Y63787D01*
X110520Y63882D01*
X110491Y63981D01*
X110471Y64030D01*
X110448Y64079D01*
X110422Y64125D01*
X110392Y64171D01*
X110389Y64174D01*
X110386Y64181D01*
X110376Y64194D01*
X110363Y64210D01*
X110346Y64227D01*
X110323Y64250D01*
X110300Y64273D01*
X110274Y64299D01*
X110241Y64325D01*
X110208Y64355D01*
X110133Y64407D01*
X110044Y64456D01*
X109943Y64499D01*
X109939D01*
X109930Y64502D01*
X109913Y64509D01*
X109894Y64512D01*
X109867Y64519D01*
X109838Y64529D01*
X109802Y64535D01*
X109766Y64545D01*
X109723Y64555D01*
X109677Y64561D01*
X109579Y64578D01*
X109474Y64587D01*
X109362Y64591D01*
X109326D01*
X109297Y64587D01*
X109264D01*
X109224Y64584D01*
X109182Y64581D01*
X109133Y64578D01*
X109080Y64571D01*
X109028Y64565D01*
X108913Y64545D01*
X108798Y64515D01*
X108686Y64479D01*
X108683D01*
X108673Y64473D01*
X108660Y64466D01*
X108641Y64460D01*
X108614Y64447D01*
X108588Y64430D01*
X108526Y64394D01*
X108454Y64345D01*
X108385Y64286D01*
X108316Y64214D01*
X108286Y64174D01*
X108257Y64132D01*
Y64128D01*
X108250Y64122D01*
X108244Y64109D01*
X108234Y64089D01*
X108224Y64066D01*
X108211Y64040D01*
X108201Y64010D01*
X108188Y63977D01*
X108162Y63902D01*
X108139Y63814D01*
X108122Y63718D01*
X108119Y63669D01*
X108116Y63617D01*
Y63613D01*
Y63600D01*
Y63584D01*
X108119Y63561D01*
X108122Y63531D01*
X108126Y63499D01*
X108132Y63459D01*
X108139Y63420D01*
X108162Y63328D01*
X108178Y63282D01*
X108198Y63233D01*
X108221Y63184D01*
X108247Y63138D01*
X108276Y63092D01*
X108309Y63046D01*
X108313Y63043D01*
X108319Y63036D01*
X108329Y63023D01*
X108345Y63007D01*
X108365Y62990D01*
X108391Y62967D01*
X108421Y62944D01*
X108454Y62918D01*
X108493Y62892D01*
X108536Y62866D01*
X108581Y62839D01*
X108634Y62813D01*
X108690Y62790D01*
X108752Y62767D01*
X108818Y62744D01*
X108887Y62728D01*
X108785Y62328D01*
X108778D01*
X108762Y62334D01*
X108739Y62341D01*
X108703Y62354D01*
X108663Y62367D01*
X108614Y62387D01*
X108562Y62406D01*
X108506Y62433D01*
X108444Y62462D01*
X108385Y62495D01*
X108319Y62531D01*
X108257Y62574D01*
X108198Y62620D01*
X108139Y62669D01*
X108083Y62725D01*
X108030Y62783D01*
X108027Y62787D01*
X108021Y62800D01*
X108008Y62816D01*
X107991Y62843D01*
X107971Y62872D01*
X107949Y62911D01*
X107925Y62954D01*
X107903Y63007D01*
X107880Y63062D01*
X107857Y63121D01*
X107834Y63187D01*
X107814Y63259D01*
X107798Y63335D01*
X107784Y63413D01*
X107778Y63495D01*
X107775Y63584D01*
Y63590D01*
Y63607D01*
Y63630D01*
X107778Y63666D01*
X107781Y63705D01*
X107784Y63754D01*
X107791Y63807D01*
X107801Y63866D01*
X107811Y63928D01*
X107824Y63994D01*
X107840Y64060D01*
X107857Y64125D01*
X107880Y64194D01*
X107906Y64259D01*
X107935Y64322D01*
X107971Y64381D01*
X107975Y64384D01*
X107981Y64394D01*
X107991Y64410D01*
X108008Y64430D01*
X108030Y64456D01*
X108053Y64486D01*
X108083Y64519D01*
X108119Y64555D01*
X108158Y64591D01*
X108201Y64630D01*
X108247Y64666D01*
X108299Y64706D01*
X108355Y64745D01*
X108414Y64781D01*
X108480Y64814D01*
X108549Y64847D01*
X108552Y64850D01*
X108565Y64853D01*
X108588Y64860D01*
X108614Y64870D01*
X108650Y64883D01*
X108690Y64896D01*
X108739Y64909D01*
X108791Y64925D01*
X108851Y64938D01*
X108913Y64955D01*
X108978Y64968D01*
X109051Y64978D01*
X109201Y64998D01*
X109280Y65001D01*
X109359Y65004D01*
X109405D01*
X109438Y65001D01*
D02*
G37*
G36*
X110851Y66857D02*
X108181D01*
Y65365D01*
X107824D01*
Y67257D01*
X110851D01*
Y66857D01*
D02*
G37*
G36*
Y60796D02*
Y60793D01*
Y60779D01*
Y60763D01*
Y60737D01*
Y60707D01*
X110848Y60675D01*
Y60635D01*
X110845Y60596D01*
X110841Y60507D01*
X110832Y60419D01*
X110822Y60330D01*
X110812Y60291D01*
X110805Y60255D01*
Y60251D01*
X110802Y60242D01*
X110799Y60228D01*
X110792Y60212D01*
X110786Y60189D01*
X110779Y60163D01*
X110756Y60101D01*
X110727Y60032D01*
X110691Y59960D01*
X110645Y59884D01*
X110589Y59812D01*
X110586Y59809D01*
X110579Y59802D01*
X110569Y59789D01*
X110553Y59772D01*
X110533Y59753D01*
X110507Y59730D01*
X110481Y59704D01*
X110448Y59677D01*
X110412Y59648D01*
X110372Y59618D01*
X110330Y59589D01*
X110284Y59559D01*
X110182Y59504D01*
X110071Y59454D01*
X110067D01*
X110057Y59448D01*
X110038Y59444D01*
X110015Y59435D01*
X109985Y59425D01*
X109949Y59415D01*
X109910Y59405D01*
X109864Y59392D01*
X109811Y59382D01*
X109756Y59372D01*
X109697Y59363D01*
X109634Y59353D01*
X109569Y59343D01*
X109500Y59339D01*
X109352Y59333D01*
X109293D01*
X109264Y59336D01*
X109228D01*
X109188Y59339D01*
X109146Y59343D01*
X109051Y59353D01*
X108949Y59369D01*
X108844Y59389D01*
X108739Y59415D01*
X108736D01*
X108726Y59418D01*
X108713Y59425D01*
X108696Y59428D01*
X108673Y59438D01*
X108647Y59448D01*
X108585Y59471D01*
X108516Y59500D01*
X108440Y59536D01*
X108368Y59576D01*
X108299Y59622D01*
X108296D01*
X108293Y59628D01*
X108283Y59635D01*
X108270Y59645D01*
X108240Y59667D01*
X108201Y59704D01*
X108155Y59743D01*
X108109Y59789D01*
X108067Y59841D01*
X108024Y59897D01*
Y59900D01*
X108021Y59904D01*
X108008Y59923D01*
X107991Y59956D01*
X107968Y59999D01*
X107945Y60051D01*
X107919Y60114D01*
X107896Y60186D01*
X107873Y60261D01*
Y60264D01*
X107870Y60271D01*
Y60281D01*
X107867Y60297D01*
X107863Y60317D01*
X107857Y60343D01*
X107853Y60369D01*
X107850Y60399D01*
X107840Y60471D01*
X107830Y60553D01*
X107827Y60645D01*
X107824Y60743D01*
Y61836D01*
X110851D01*
Y60796D01*
D02*
G37*
G36*
Y54856D02*
X109936Y54259D01*
X109933Y54255D01*
X109926Y54252D01*
X109910Y54242D01*
X109894Y54229D01*
X109871Y54216D01*
X109841Y54200D01*
X109811Y54180D01*
X109775Y54157D01*
X109700Y54111D01*
X109615Y54059D01*
X109523Y54003D01*
X109428Y53951D01*
X109431Y53947D01*
X109438Y53944D01*
X109451Y53937D01*
X109470Y53924D01*
X109490Y53911D01*
X109516Y53898D01*
X109549Y53878D01*
X109582Y53859D01*
X109618Y53836D01*
X109661Y53809D01*
X109749Y53754D01*
X109851Y53688D01*
X109959Y53619D01*
X110851Y53032D01*
Y52566D01*
X109103Y53773D01*
X107824D01*
Y54173D01*
X109103D01*
X110851Y55341D01*
Y54856D01*
D02*
G37*
G36*
Y55545D02*
X110494D01*
Y57185D01*
X109556D01*
Y55764D01*
X109198D01*
Y57185D01*
X107824D01*
Y57585D01*
X110851D01*
Y55545D01*
D02*
G37*
G36*
X110103Y25283D02*
X110107Y25273D01*
X110117Y25257D01*
X110126Y25234D01*
X110140Y25208D01*
X110159Y25175D01*
X110179Y25139D01*
X110199Y25103D01*
X110251Y25018D01*
X110313Y24926D01*
X110379Y24831D01*
X110454Y24742D01*
X110458Y24739D01*
X110464Y24732D01*
X110474Y24719D01*
X110491Y24703D01*
X110510Y24686D01*
X110530Y24663D01*
X110586Y24614D01*
X110645Y24558D01*
X110714Y24503D01*
X110786Y24453D01*
X110861Y24411D01*
Y24171D01*
X107824D01*
Y24542D01*
X110189D01*
X110182Y24549D01*
X110166Y24565D01*
X110143Y24595D01*
X110110Y24637D01*
X110071Y24686D01*
X110028Y24749D01*
X109982Y24817D01*
X109933Y24896D01*
Y24900D01*
X109926Y24906D01*
X109920Y24916D01*
X109913Y24932D01*
X109900Y24952D01*
X109890Y24975D01*
X109861Y25027D01*
X109831Y25087D01*
X109798Y25152D01*
X109769Y25221D01*
X109743Y25287D01*
X110100D01*
X110103Y25283D01*
D02*
G37*
G36*
X48599Y77120D02*
Y77116D01*
X48590Y77100D01*
X48582Y77079D01*
X48570Y77047D01*
X48558Y77010D01*
X48541Y76969D01*
X48521Y76924D01*
X48504Y76874D01*
X48459Y76772D01*
X48418Y76669D01*
X48394Y76620D01*
X48373Y76575D01*
X48357Y76534D01*
X48336Y76501D01*
Y76497D01*
X48332Y76493D01*
X48324Y76481D01*
X48316Y76464D01*
X48287Y76423D01*
X48254Y76374D01*
X48213Y76317D01*
X48164Y76263D01*
X48111Y76210D01*
X48053Y76165D01*
X48045Y76161D01*
X48025Y76149D01*
X47992Y76128D01*
X47947Y76112D01*
X47889Y76091D01*
X47824Y76071D01*
X47754Y76058D01*
X47672Y76054D01*
X47647D01*
X47619Y76058D01*
X47586Y76063D01*
X47541Y76066D01*
X47488Y76079D01*
X47434Y76091D01*
X47373Y76112D01*
X47319Y76546D01*
X47328D01*
X47344Y76538D01*
X47373Y76534D01*
X47410Y76526D01*
X47451Y76518D01*
X47496Y76509D01*
X47541Y76505D01*
X47582Y76501D01*
X47606D01*
X47635Y76505D01*
X47672Y76509D01*
X47709Y76513D01*
X47750Y76526D01*
X47791Y76538D01*
X47828Y76554D01*
X47832Y76559D01*
X47844Y76563D01*
X47861Y76575D01*
X47881Y76591D01*
X47906Y76612D01*
X47934Y76636D01*
X47984Y76698D01*
X47988Y76702D01*
X47992Y76714D01*
X48004Y76735D01*
X48016Y76768D01*
X48037Y76813D01*
X48061Y76874D01*
X48074Y76911D01*
X48090Y76952D01*
X48107Y76997D01*
X48123Y77047D01*
X48127Y77055D01*
X48135Y77075D01*
X48148Y77112D01*
X48168Y77161D01*
X47131Y79908D01*
X47623D01*
X48193Y78317D01*
Y78313D01*
X48197Y78305D01*
X48205Y78289D01*
X48213Y78264D01*
X48221Y78236D01*
X48234Y78203D01*
X48246Y78166D01*
X48262Y78125D01*
X48291Y78030D01*
X48328Y77920D01*
X48361Y77805D01*
X48394Y77682D01*
Y77686D01*
X48398Y77698D01*
X48402Y77715D01*
X48410Y77735D01*
X48414Y77764D01*
X48426Y77801D01*
X48435Y77838D01*
X48447Y77879D01*
X48476Y77973D01*
X48508Y78080D01*
X48545Y78190D01*
X48586Y78305D01*
X49177Y79908D01*
X49640D01*
X48599Y77120D01*
D02*
G37*
G36*
X40624Y77165D02*
X40140D01*
Y80335D01*
X39033Y77165D01*
X38582D01*
X37492Y80388D01*
Y77165D01*
X37008D01*
Y80950D01*
X37758D01*
X38656Y78268D01*
Y78264D01*
X38660Y78252D01*
X38668Y78231D01*
X38677Y78207D01*
X38685Y78178D01*
X38697Y78141D01*
X38726Y78059D01*
X38754Y77969D01*
X38783Y77875D01*
X38812Y77789D01*
X38824Y77748D01*
X38837Y77711D01*
Y77715D01*
X38841Y77719D01*
X38845Y77731D01*
X38849Y77748D01*
X38857Y77772D01*
X38865Y77797D01*
X38873Y77829D01*
X38886Y77862D01*
X38898Y77903D01*
X38914Y77948D01*
X38931Y77998D01*
X38947Y78055D01*
X38968Y78113D01*
X38988Y78178D01*
X39013Y78244D01*
X39037Y78317D01*
X39948Y80950D01*
X40624D01*
Y77165D01*
D02*
G37*
G36*
X69771D02*
X69271D01*
Y80503D01*
X67303D01*
Y77165D01*
X66803D01*
Y80950D01*
X69771D01*
Y77165D01*
D02*
G37*
G36*
X110851Y28534D02*
Y28530D01*
Y28517D01*
Y28494D01*
Y28468D01*
X110848Y28432D01*
Y28396D01*
X110845Y28353D01*
X110841Y28304D01*
X110832Y28206D01*
X110815Y28104D01*
X110795Y28006D01*
X110782Y27963D01*
X110769Y27920D01*
Y27917D01*
X110766Y27911D01*
X110759Y27901D01*
X110753Y27884D01*
X110733Y27845D01*
X110704Y27799D01*
X110664Y27743D01*
X110612Y27687D01*
X110553Y27632D01*
X110481Y27583D01*
X110477D01*
X110471Y27576D01*
X110461Y27569D01*
X110445Y27563D01*
X110425Y27553D01*
X110402Y27543D01*
X110376Y27530D01*
X110346Y27517D01*
X110277Y27494D01*
X110202Y27474D01*
X110117Y27461D01*
X110025Y27455D01*
X109992D01*
X109972Y27458D01*
X109943Y27461D01*
X109910Y27465D01*
X109874Y27471D01*
X109835Y27481D01*
X109749Y27507D01*
X109703Y27523D01*
X109657Y27543D01*
X109611Y27566D01*
X109565Y27596D01*
X109523Y27628D01*
X109480Y27665D01*
X109477Y27668D01*
X109470Y27674D01*
X109461Y27687D01*
X109444Y27704D01*
X109428Y27727D01*
X109408Y27753D01*
X109385Y27786D01*
X109362Y27825D01*
X109339Y27868D01*
X109316Y27914D01*
X109293Y27966D01*
X109270Y28025D01*
X109251Y28088D01*
X109231Y28157D01*
X109215Y28232D01*
X109201Y28311D01*
Y28308D01*
X109198Y28304D01*
X109188Y28284D01*
X109172Y28255D01*
X109152Y28219D01*
X109129Y28179D01*
X109106Y28140D01*
X109077Y28101D01*
X109051Y28068D01*
X109047Y28065D01*
X109044Y28062D01*
X109034Y28052D01*
X109021Y28038D01*
X109005Y28022D01*
X108985Y28002D01*
X108939Y27960D01*
X108880Y27911D01*
X108811Y27855D01*
X108732Y27796D01*
X108647Y27737D01*
X107824Y27212D01*
Y27714D01*
X108454Y28114D01*
X108457Y28117D01*
X108467Y28120D01*
X108480Y28130D01*
X108500Y28144D01*
X108522Y28157D01*
X108549Y28176D01*
X108608Y28216D01*
X108677Y28262D01*
X108746Y28308D01*
X108811Y28357D01*
X108870Y28403D01*
X108873D01*
X108877Y28409D01*
X108893Y28422D01*
X108919Y28442D01*
X108949Y28471D01*
X108982Y28501D01*
X109014Y28537D01*
X109047Y28573D01*
X109070Y28606D01*
X109073Y28609D01*
X109080Y28622D01*
X109090Y28639D01*
X109103Y28662D01*
X109116Y28691D01*
X109129Y28721D01*
X109142Y28754D01*
X109152Y28790D01*
Y28793D01*
X109155Y28803D01*
X109159Y28819D01*
X109162Y28842D01*
Y28875D01*
X109165Y28914D01*
X109169Y28960D01*
Y29013D01*
Y29475D01*
X107824D01*
Y29875D01*
X110851D01*
Y28534D01*
D02*
G37*
G36*
X109106Y25877D02*
X108732D01*
Y27022D01*
X109106D01*
Y25877D01*
D02*
G37*
G36*
X62953Y81011D02*
X63002Y81007D01*
X63059Y80999D01*
X63121Y80991D01*
X63191Y80978D01*
X63264Y80962D01*
X63342Y80946D01*
X63420Y80921D01*
X63502Y80892D01*
X63584Y80860D01*
X63662Y80818D01*
X63740Y80777D01*
X63814Y80724D01*
X63818Y80720D01*
X63830Y80712D01*
X63851Y80695D01*
X63875Y80671D01*
X63908Y80642D01*
X63945Y80605D01*
X63982Y80564D01*
X64027Y80515D01*
X64072Y80462D01*
X64117Y80400D01*
X64162Y80335D01*
X64203Y80261D01*
X64248Y80183D01*
X64285Y80097D01*
X64322Y80007D01*
X64355Y79912D01*
X63863Y79798D01*
Y79802D01*
X63855Y79814D01*
X63851Y79839D01*
X63838Y79867D01*
X63826Y79900D01*
X63806Y79937D01*
X63765Y80027D01*
X63711Y80125D01*
X63642Y80228D01*
X63568Y80322D01*
X63523Y80363D01*
X63477Y80400D01*
X63473Y80404D01*
X63465Y80409D01*
X63453Y80417D01*
X63432Y80429D01*
X63408Y80445D01*
X63379Y80462D01*
X63346Y80478D01*
X63305Y80495D01*
X63260Y80511D01*
X63215Y80527D01*
X63108Y80560D01*
X62985Y80581D01*
X62920Y80589D01*
X62809D01*
X62776Y80585D01*
X62739Y80581D01*
X62694Y80576D01*
X62645Y80572D01*
X62596Y80564D01*
X62477Y80536D01*
X62354Y80499D01*
X62293Y80474D01*
X62231Y80445D01*
X62174Y80413D01*
X62116Y80376D01*
X62112Y80372D01*
X62104Y80367D01*
X62088Y80355D01*
X62067Y80339D01*
X62047Y80318D01*
X62018Y80290D01*
X61989Y80261D01*
X61956Y80228D01*
X61924Y80187D01*
X61887Y80146D01*
X61821Y80052D01*
X61760Y79941D01*
X61706Y79814D01*
Y79810D01*
X61702Y79798D01*
X61694Y79777D01*
X61690Y79752D01*
X61682Y79720D01*
X61669Y79683D01*
X61661Y79638D01*
X61649Y79593D01*
X61637Y79539D01*
X61628Y79482D01*
X61608Y79359D01*
X61596Y79228D01*
X61592Y79088D01*
Y79084D01*
Y79068D01*
Y79043D01*
X61596Y79006D01*
Y78965D01*
X61600Y78916D01*
X61604Y78863D01*
X61608Y78801D01*
X61616Y78736D01*
X61624Y78670D01*
X61649Y78527D01*
X61686Y78383D01*
X61731Y78244D01*
Y78240D01*
X61739Y78227D01*
X61747Y78211D01*
X61756Y78186D01*
X61772Y78153D01*
X61792Y78121D01*
X61838Y78043D01*
X61899Y77952D01*
X61973Y77866D01*
X62063Y77780D01*
X62112Y77743D01*
X62165Y77707D01*
X62170D01*
X62178Y77698D01*
X62194Y77690D01*
X62219Y77678D01*
X62248Y77666D01*
X62280Y77649D01*
X62317Y77637D01*
X62358Y77621D01*
X62453Y77588D01*
X62563Y77559D01*
X62682Y77539D01*
X62744Y77534D01*
X62809Y77530D01*
X62850D01*
X62879Y77534D01*
X62916Y77539D01*
X62957Y77543D01*
X63006Y77551D01*
X63055Y77559D01*
X63170Y77588D01*
X63227Y77608D01*
X63289Y77633D01*
X63350Y77662D01*
X63408Y77694D01*
X63465Y77731D01*
X63523Y77772D01*
X63527Y77776D01*
X63535Y77785D01*
X63551Y77797D01*
X63572Y77817D01*
X63592Y77842D01*
X63621Y77875D01*
X63650Y77912D01*
X63683Y77952D01*
X63715Y78002D01*
X63748Y78055D01*
X63781Y78113D01*
X63814Y78178D01*
X63842Y78248D01*
X63871Y78326D01*
X63900Y78408D01*
X63920Y78494D01*
X64420Y78367D01*
Y78359D01*
X64412Y78338D01*
X64404Y78309D01*
X64388Y78264D01*
X64371Y78215D01*
X64347Y78153D01*
X64322Y78088D01*
X64289Y78018D01*
X64252Y77940D01*
X64211Y77866D01*
X64166Y77785D01*
X64113Y77707D01*
X64056Y77633D01*
X63994Y77559D01*
X63924Y77489D01*
X63851Y77424D01*
X63846Y77420D01*
X63830Y77411D01*
X63810Y77395D01*
X63777Y77375D01*
X63740Y77350D01*
X63691Y77321D01*
X63637Y77292D01*
X63572Y77264D01*
X63502Y77235D01*
X63428Y77206D01*
X63346Y77178D01*
X63256Y77153D01*
X63162Y77133D01*
X63063Y77116D01*
X62961Y77108D01*
X62850Y77104D01*
X62793D01*
X62748Y77108D01*
X62699Y77112D01*
X62637Y77116D01*
X62571Y77124D01*
X62498Y77137D01*
X62420Y77149D01*
X62338Y77165D01*
X62256Y77186D01*
X62174Y77206D01*
X62088Y77235D01*
X62006Y77268D01*
X61928Y77305D01*
X61854Y77350D01*
X61850Y77354D01*
X61838Y77362D01*
X61817Y77375D01*
X61792Y77395D01*
X61760Y77424D01*
X61723Y77452D01*
X61682Y77489D01*
X61637Y77534D01*
X61592Y77584D01*
X61542Y77637D01*
X61497Y77694D01*
X61448Y77760D01*
X61399Y77829D01*
X61354Y77903D01*
X61313Y77985D01*
X61272Y78071D01*
X61268Y78075D01*
X61264Y78092D01*
X61255Y78121D01*
X61243Y78153D01*
X61227Y78199D01*
X61210Y78248D01*
X61194Y78309D01*
X61173Y78375D01*
X61157Y78449D01*
X61136Y78527D01*
X61120Y78609D01*
X61108Y78699D01*
X61083Y78887D01*
X61079Y78986D01*
X61075Y79084D01*
Y79092D01*
Y79109D01*
Y79141D01*
X61079Y79183D01*
X61083Y79236D01*
X61087Y79297D01*
X61095Y79363D01*
X61104Y79437D01*
X61116Y79515D01*
X61128Y79597D01*
X61169Y79773D01*
X61198Y79859D01*
X61227Y79945D01*
X61259Y80035D01*
X61300Y80117D01*
X61304Y80121D01*
X61313Y80138D01*
X61325Y80158D01*
X61341Y80191D01*
X61366Y80228D01*
X61395Y80269D01*
X61427Y80314D01*
X61464Y80367D01*
X61510Y80417D01*
X61555Y80474D01*
X61608Y80527D01*
X61665Y80585D01*
X61727Y80638D01*
X61792Y80691D01*
X61866Y80740D01*
X61940Y80786D01*
X61944Y80790D01*
X61961Y80794D01*
X61981Y80806D01*
X62014Y80823D01*
X62051Y80839D01*
X62100Y80860D01*
X62153Y80880D01*
X62211Y80901D01*
X62276Y80921D01*
X62350Y80941D01*
X62424Y80962D01*
X62506Y80978D01*
X62674Y81007D01*
X62764Y81011D01*
X62858Y81015D01*
X62912D01*
X62953Y81011D01*
D02*
G37*
G36*
X72418Y64386D02*
X73447D01*
Y63951D01*
X72418D01*
Y62914D01*
X71979D01*
Y63951D01*
X70950D01*
Y64386D01*
X71979D01*
Y65415D01*
X72418D01*
Y64386D01*
D02*
G37*
G36*
X64620Y63439D02*
X63189D01*
Y63906D01*
X64620D01*
Y63439D01*
D02*
G37*
G36*
X57122Y78301D02*
X55692D01*
Y78768D01*
X57122D01*
Y78301D01*
D02*
G37*
G36*
X66224D02*
X64794D01*
Y78768D01*
X66224D01*
Y78301D01*
D02*
G37*
G36*
X107906Y23266D02*
X107945Y23263D01*
X107988Y23253D01*
X108034Y23243D01*
X108080Y23227D01*
X108083D01*
X108089Y23223D01*
X108099Y23220D01*
X108116Y23214D01*
X108132Y23204D01*
X108155Y23194D01*
X108208Y23168D01*
X108270Y23135D01*
X108339Y23092D01*
X108411Y23043D01*
X108483Y22984D01*
X108486Y22981D01*
X108493Y22977D01*
X108503Y22968D01*
X108519Y22951D01*
X108536Y22935D01*
X108559Y22912D01*
X108585Y22889D01*
X108614Y22859D01*
X108647Y22827D01*
X108680Y22791D01*
X108719Y22751D01*
X108759Y22705D01*
X108801Y22659D01*
X108844Y22607D01*
X108890Y22554D01*
X108939Y22495D01*
X108942Y22489D01*
X108959Y22472D01*
X108978Y22449D01*
X109008Y22417D01*
X109041Y22377D01*
X109080Y22331D01*
X109123Y22279D01*
X109172Y22226D01*
X109274Y22115D01*
X109382Y22007D01*
X109434Y21954D01*
X109487Y21905D01*
X109536Y21862D01*
X109582Y21826D01*
X109585Y21823D01*
X109592Y21820D01*
X109605Y21810D01*
X109621Y21800D01*
X109644Y21783D01*
X109667Y21770D01*
X109726Y21738D01*
X109795Y21705D01*
X109871Y21675D01*
X109949Y21656D01*
X109989Y21652D01*
X110028Y21649D01*
X110051D01*
X110064Y21652D01*
X110084D01*
X110107Y21659D01*
X110156Y21669D01*
X110215Y21688D01*
X110277Y21718D01*
X110310Y21734D01*
X110340Y21757D01*
X110369Y21780D01*
X110399Y21810D01*
X110402Y21813D01*
X110405Y21816D01*
X110412Y21826D01*
X110422Y21839D01*
X110435Y21856D01*
X110448Y21875D01*
X110477Y21921D01*
X110504Y21984D01*
X110530Y22052D01*
X110546Y22135D01*
X110553Y22180D01*
Y22226D01*
Y22230D01*
Y22239D01*
Y22253D01*
X110549Y22272D01*
Y22295D01*
X110543Y22321D01*
X110533Y22380D01*
X110513Y22449D01*
X110484Y22522D01*
X110464Y22558D01*
X110445Y22594D01*
X110418Y22626D01*
X110389Y22659D01*
X110386Y22663D01*
X110382Y22666D01*
X110372Y22672D01*
X110359Y22685D01*
X110343Y22695D01*
X110323Y22708D01*
X110300Y22725D01*
X110274Y22738D01*
X110245Y22754D01*
X110212Y22768D01*
X110133Y22794D01*
X110048Y22814D01*
X109999Y22817D01*
X109946Y22820D01*
X109985Y23201D01*
X109992D01*
X110005Y23197D01*
X110025Y23194D01*
X110054Y23191D01*
X110090Y23184D01*
X110133Y23174D01*
X110179Y23164D01*
X110228Y23148D01*
X110277Y23132D01*
X110333Y23112D01*
X110386Y23086D01*
X110438Y23059D01*
X110494Y23027D01*
X110543Y22991D01*
X110592Y22951D01*
X110635Y22905D01*
X110638Y22902D01*
X110645Y22892D01*
X110654Y22879D01*
X110671Y22859D01*
X110687Y22833D01*
X110707Y22800D01*
X110727Y22764D01*
X110750Y22722D01*
X110769Y22676D01*
X110789Y22623D01*
X110809Y22567D01*
X110825Y22505D01*
X110841Y22440D01*
X110851Y22371D01*
X110858Y22295D01*
X110861Y22217D01*
Y22210D01*
Y22197D01*
Y22174D01*
X110858Y22144D01*
X110855Y22108D01*
X110848Y22066D01*
X110841Y22016D01*
X110832Y21967D01*
X110819Y21911D01*
X110802Y21856D01*
X110782Y21797D01*
X110759Y21741D01*
X110730Y21682D01*
X110697Y21626D01*
X110661Y21574D01*
X110618Y21524D01*
X110615Y21521D01*
X110609Y21515D01*
X110592Y21501D01*
X110576Y21485D01*
X110553Y21465D01*
X110523Y21442D01*
X110491Y21419D01*
X110451Y21396D01*
X110412Y21373D01*
X110366Y21351D01*
X110317Y21328D01*
X110264Y21308D01*
X110205Y21292D01*
X110146Y21278D01*
X110084Y21272D01*
X110018Y21269D01*
X109989D01*
X109953Y21272D01*
X109907Y21278D01*
X109851Y21288D01*
X109792Y21301D01*
X109726Y21318D01*
X109661Y21344D01*
X109657D01*
X109654Y21347D01*
X109644Y21351D01*
X109631Y21357D01*
X109595Y21377D01*
X109549Y21403D01*
X109493Y21439D01*
X109431Y21482D01*
X109365Y21531D01*
X109293Y21593D01*
X109290Y21597D01*
X109283Y21600D01*
X109274Y21613D01*
X109257Y21626D01*
X109238Y21646D01*
X109215Y21669D01*
X109185Y21695D01*
X109155Y21728D01*
X109119Y21767D01*
X109080Y21810D01*
X109034Y21856D01*
X108988Y21908D01*
X108936Y21964D01*
X108883Y22026D01*
X108824Y22095D01*
X108762Y22167D01*
X108759Y22171D01*
X108749Y22180D01*
X108736Y22200D01*
X108716Y22220D01*
X108693Y22249D01*
X108667Y22279D01*
X108608Y22348D01*
X108545Y22420D01*
X108480Y22489D01*
X108450Y22522D01*
X108424Y22551D01*
X108398Y22577D01*
X108378Y22597D01*
X108375Y22600D01*
X108362Y22613D01*
X108342Y22630D01*
X108316Y22653D01*
X108286Y22679D01*
X108254Y22705D01*
X108181Y22758D01*
Y21265D01*
X107824D01*
Y23269D01*
X107873D01*
X107906Y23266D01*
D02*
G37*
G36*
X46675Y85970D02*
X46708D01*
X46744Y85966D01*
X46781Y85957D01*
X46826Y85949D01*
X46925Y85929D01*
X47027Y85896D01*
X47134Y85851D01*
X47187Y85822D01*
X47236Y85789D01*
X47241D01*
X47249Y85781D01*
X47261Y85769D01*
X47282Y85756D01*
X47331Y85715D01*
X47388Y85658D01*
X47454Y85584D01*
X47523Y85498D01*
X47585Y85396D01*
X47642Y85281D01*
Y85277D01*
X47646Y85264D01*
X47655Y85248D01*
X47663Y85223D01*
X47675Y85195D01*
X47688Y85158D01*
X47700Y85113D01*
X47712Y85068D01*
X47724Y85014D01*
X47737Y84961D01*
X47761Y84838D01*
X47778Y84703D01*
X47782Y84559D01*
Y84555D01*
Y84539D01*
Y84518D01*
X47778Y84490D01*
Y84453D01*
X47774Y84408D01*
X47769Y84358D01*
X47761Y84305D01*
X47745Y84190D01*
X47716Y84063D01*
X47679Y83932D01*
X47630Y83801D01*
Y83797D01*
X47622Y83784D01*
X47614Y83768D01*
X47601Y83747D01*
X47585Y83719D01*
X47569Y83686D01*
X47519Y83612D01*
X47458Y83526D01*
X47380Y83440D01*
X47294Y83358D01*
X47191Y83284D01*
X47187D01*
X47179Y83276D01*
X47163Y83268D01*
X47142Y83255D01*
X47113Y83243D01*
X47085Y83227D01*
X47048Y83214D01*
X47007Y83198D01*
X46917Y83165D01*
X46814Y83136D01*
X46703Y83116D01*
X46646Y83112D01*
X46585Y83108D01*
X46544D01*
X46503Y83112D01*
X46445Y83120D01*
X46380Y83132D01*
X46310Y83149D01*
X46236Y83169D01*
X46166Y83202D01*
X46158Y83206D01*
X46138Y83218D01*
X46101Y83243D01*
X46060Y83272D01*
X46011Y83305D01*
X45961Y83350D01*
X45912Y83399D01*
X45867Y83452D01*
Y82120D01*
X45404D01*
Y85912D01*
X45826D01*
Y85555D01*
X45834Y85560D01*
X45851Y85584D01*
X45884Y85625D01*
X45924Y85670D01*
X45974Y85720D01*
X46031Y85773D01*
X46093Y85822D01*
X46162Y85867D01*
X46166D01*
X46170Y85871D01*
X46195Y85883D01*
X46236Y85900D01*
X46289Y85920D01*
X46355Y85941D01*
X46433Y85957D01*
X46523Y85970D01*
X46617Y85974D01*
X46650D01*
X46675Y85970D01*
D02*
G37*
G36*
X63981D02*
X64014D01*
X64051Y85966D01*
X64087Y85957D01*
X64133Y85949D01*
X64231Y85929D01*
X64333Y85896D01*
X64440Y85851D01*
X64493Y85822D01*
X64543Y85789D01*
X64547D01*
X64555Y85781D01*
X64567Y85769D01*
X64588Y85756D01*
X64637Y85715D01*
X64694Y85658D01*
X64760Y85584D01*
X64830Y85498D01*
X64891Y85396D01*
X64948Y85281D01*
Y85277D01*
X64953Y85264D01*
X64961Y85248D01*
X64969Y85223D01*
X64981Y85195D01*
X64994Y85158D01*
X65006Y85113D01*
X65018Y85068D01*
X65030Y85014D01*
X65043Y84961D01*
X65067Y84838D01*
X65084Y84703D01*
X65088Y84559D01*
Y84555D01*
Y84539D01*
Y84518D01*
X65084Y84490D01*
Y84453D01*
X65080Y84408D01*
X65076Y84358D01*
X65067Y84305D01*
X65051Y84190D01*
X65022Y84063D01*
X64985Y83932D01*
X64936Y83801D01*
Y83797D01*
X64928Y83784D01*
X64920Y83768D01*
X64907Y83747D01*
X64891Y83719D01*
X64875Y83686D01*
X64825Y83612D01*
X64764Y83526D01*
X64686Y83440D01*
X64600Y83358D01*
X64498Y83284D01*
X64493D01*
X64485Y83276D01*
X64469Y83268D01*
X64448Y83255D01*
X64420Y83243D01*
X64391Y83227D01*
X64354Y83214D01*
X64313Y83198D01*
X64223Y83165D01*
X64120Y83136D01*
X64010Y83116D01*
X63952Y83112D01*
X63891Y83108D01*
X63850D01*
X63809Y83112D01*
X63751Y83120D01*
X63686Y83132D01*
X63616Y83149D01*
X63542Y83169D01*
X63472Y83202D01*
X63464Y83206D01*
X63444Y83218D01*
X63407Y83243D01*
X63366Y83272D01*
X63317Y83305D01*
X63267Y83350D01*
X63218Y83399D01*
X63173Y83452D01*
Y82120D01*
X62710D01*
Y85912D01*
X63132D01*
Y85555D01*
X63140Y85560D01*
X63157Y85584D01*
X63190Y85625D01*
X63231Y85670D01*
X63280Y85720D01*
X63337Y85773D01*
X63399Y85822D01*
X63468Y85867D01*
X63472D01*
X63477Y85871D01*
X63501Y85883D01*
X63542Y85900D01*
X63595Y85920D01*
X63661Y85941D01*
X63739Y85957D01*
X63829Y85970D01*
X63924Y85974D01*
X63956D01*
X63981Y85970D01*
D02*
G37*
G36*
X46586Y77547D02*
X46881D01*
Y76390D01*
X46499D01*
Y77165D01*
X44343D01*
Y76390D01*
X43962D01*
Y77547D01*
X44208D01*
X44212Y77555D01*
X44220Y77563D01*
X44228Y77579D01*
X44240Y77596D01*
X44253Y77621D01*
X44269Y77645D01*
X44285Y77678D01*
X44302Y77711D01*
X44322Y77752D01*
X44343Y77797D01*
X44363Y77846D01*
X44384Y77899D01*
X44404Y77961D01*
X44429Y78022D01*
X44449Y78092D01*
X44474Y78166D01*
X44495Y78244D01*
X44519Y78326D01*
X44540Y78416D01*
X44560Y78510D01*
X44581Y78609D01*
X44597Y78715D01*
X44613Y78822D01*
X44630Y78941D01*
X44642Y79060D01*
X44654Y79187D01*
X44667Y79318D01*
X44671Y79457D01*
X44679Y79601D01*
Y79752D01*
Y79908D01*
X46586D01*
Y77547D01*
D02*
G37*
G36*
X35359Y84006D02*
X35355Y84002D01*
X35346Y83981D01*
X35334Y83952D01*
X35314Y83916D01*
X35293Y83874D01*
X35269Y83821D01*
X35236Y83768D01*
X35207Y83710D01*
X35137Y83587D01*
X35064Y83469D01*
X35027Y83415D01*
X34994Y83366D01*
X34957Y83321D01*
X34924Y83284D01*
X34916Y83276D01*
X34891Y83259D01*
X34855Y83231D01*
X34801Y83202D01*
X34732Y83169D01*
X34650Y83141D01*
X34551Y83124D01*
X34436Y83116D01*
X34403D01*
X34363Y83120D01*
X34305Y83128D01*
X34235Y83136D01*
X34157Y83153D01*
X34063Y83173D01*
X33965Y83202D01*
Y83628D01*
X33969D01*
X33973Y83624D01*
X33985Y83620D01*
X34002Y83612D01*
X34039Y83592D01*
X34092Y83575D01*
X34157Y83555D01*
X34227Y83534D01*
X34305Y83522D01*
X34387Y83518D01*
X34420D01*
X34453Y83526D01*
X34498Y83534D01*
X34547Y83547D01*
X34600Y83567D01*
X34654Y83596D01*
X34703Y83633D01*
X34711Y83637D01*
X34727Y83657D01*
X34740Y83674D01*
X34756Y83694D01*
X34773Y83715D01*
X34789Y83743D01*
X34813Y83776D01*
X34834Y83817D01*
X34859Y83858D01*
X34883Y83911D01*
X34912Y83965D01*
X34941Y84026D01*
X34969Y84096D01*
X34998Y84170D01*
X33465Y86954D01*
X33969D01*
X35203Y84629D01*
X36285Y86954D01*
X36781D01*
X35359Y84006D01*
D02*
G37*
G36*
X62300Y85527D02*
X62169Y85531D01*
X62140D01*
X62107Y85527D01*
X62070Y85523D01*
X62029Y85519D01*
X61992Y85506D01*
X61960Y85494D01*
X61935Y85474D01*
X61931Y85469D01*
X61923Y85461D01*
X61910Y85441D01*
X61894Y85412D01*
X61869Y85367D01*
X61857Y85338D01*
X61841Y85309D01*
X61824Y85273D01*
X61808Y85232D01*
X61787Y85186D01*
X61767Y85137D01*
Y85133D01*
X61763Y85125D01*
X61755Y85113D01*
X61751Y85092D01*
X61730Y85047D01*
X61701Y84990D01*
X61673Y84928D01*
X61640Y84867D01*
X61603Y84809D01*
X61570Y84764D01*
X61566Y84760D01*
X61554Y84748D01*
X61533Y84727D01*
X61505Y84703D01*
X61468Y84674D01*
X61422Y84641D01*
X61365Y84608D01*
X61304Y84576D01*
X61308D01*
X61316Y84571D01*
X61332Y84563D01*
X61357Y84555D01*
X61382Y84543D01*
X61414Y84526D01*
X61451Y84502D01*
X61488Y84477D01*
X61533Y84444D01*
X61578Y84403D01*
X61628Y84358D01*
X61677Y84305D01*
X61730Y84248D01*
X61783Y84178D01*
X61837Y84104D01*
X61890Y84018D01*
X62402Y83169D01*
X61890D01*
X61390Y84014D01*
Y84018D01*
X61382Y84026D01*
X61373Y84039D01*
X61365Y84055D01*
X61336Y84100D01*
X61300Y84153D01*
X61259Y84211D01*
X61213Y84268D01*
X61168Y84317D01*
X61144Y84338D01*
X61123Y84354D01*
X61119Y84358D01*
X61103Y84367D01*
X61078Y84379D01*
X61049Y84395D01*
X61008Y84412D01*
X60963Y84424D01*
X60914Y84432D01*
X60857Y84436D01*
Y83169D01*
X60393D01*
Y85912D01*
X60857D01*
Y84727D01*
X60894D01*
X60931Y84731D01*
X60980Y84740D01*
X61029Y84748D01*
X61078Y84760D01*
X61127Y84781D01*
X61164Y84809D01*
X61168Y84813D01*
X61181Y84830D01*
X61189Y84842D01*
X61201Y84859D01*
X61213Y84879D01*
X61230Y84904D01*
X61250Y84932D01*
X61267Y84969D01*
X61291Y85010D01*
X61312Y85055D01*
X61340Y85109D01*
X61365Y85166D01*
X61394Y85232D01*
X61427Y85305D01*
Y85309D01*
X61435Y85322D01*
X61439Y85338D01*
X61451Y85359D01*
X61463Y85383D01*
X61476Y85416D01*
X61509Y85482D01*
X61541Y85555D01*
X61582Y85625D01*
X61619Y85687D01*
X61636Y85715D01*
X61652Y85736D01*
X61656Y85740D01*
X61668Y85752D01*
X61685Y85769D01*
X61709Y85793D01*
X61738Y85814D01*
X61771Y85838D01*
X61808Y85859D01*
X61849Y85875D01*
X61853D01*
X61869Y85879D01*
X61898Y85888D01*
X61935Y85896D01*
X61984Y85900D01*
X62046Y85908D01*
X62120Y85912D01*
X62300D01*
Y85527D01*
D02*
G37*
G36*
X70807Y83169D02*
X70344D01*
Y84387D01*
X69057D01*
Y83169D01*
X68593D01*
Y85912D01*
X69057D01*
Y84768D01*
X70344D01*
Y85912D01*
X70807D01*
Y83169D01*
D02*
G37*
G36*
X53576Y78834D02*
X54220D01*
X54257Y78830D01*
X54306Y78826D01*
X54363Y78822D01*
X54425Y78813D01*
X54490Y78805D01*
X54634Y78781D01*
X54781Y78740D01*
X54855Y78715D01*
X54925Y78682D01*
X54991Y78649D01*
X55052Y78609D01*
X55056Y78604D01*
X55064Y78600D01*
X55081Y78584D01*
X55101Y78568D01*
X55126Y78547D01*
X55150Y78518D01*
X55179Y78486D01*
X55208Y78449D01*
X55237Y78408D01*
X55265Y78363D01*
X55290Y78309D01*
X55314Y78256D01*
X55335Y78199D01*
X55351Y78133D01*
X55360Y78067D01*
X55364Y77994D01*
Y77989D01*
Y77977D01*
Y77961D01*
X55360Y77936D01*
X55355Y77907D01*
X55351Y77871D01*
X55343Y77834D01*
X55331Y77793D01*
X55298Y77698D01*
X55278Y77649D01*
X55253Y77600D01*
X55224Y77551D01*
X55187Y77501D01*
X55146Y77452D01*
X55101Y77407D01*
X55097Y77403D01*
X55089Y77395D01*
X55072Y77387D01*
X55052Y77370D01*
X55023Y77350D01*
X54991Y77329D01*
X54949Y77309D01*
X54900Y77288D01*
X54847Y77264D01*
X54786Y77243D01*
X54716Y77223D01*
X54642Y77202D01*
X54560Y77186D01*
X54474Y77178D01*
X54375Y77169D01*
X54273Y77165D01*
X53113D01*
Y79908D01*
X53576D01*
Y78834D01*
D02*
G37*
G36*
X52420Y77165D02*
X51956D01*
Y79527D01*
X50726D01*
Y78158D01*
Y78153D01*
Y78137D01*
Y78113D01*
Y78080D01*
Y78043D01*
Y77998D01*
X50722Y77948D01*
Y77899D01*
X50718Y77793D01*
X50714Y77690D01*
X50710Y77641D01*
X50706Y77596D01*
X50698Y77559D01*
X50694Y77526D01*
Y77518D01*
X50686Y77501D01*
X50677Y77473D01*
X50661Y77436D01*
X50636Y77395D01*
X50608Y77350D01*
X50571Y77305D01*
X50521Y77260D01*
X50513Y77256D01*
X50497Y77243D01*
X50464Y77223D01*
X50423Y77206D01*
X50366Y77186D01*
X50296Y77165D01*
X50218Y77153D01*
X50124Y77149D01*
X50062D01*
X50017Y77153D01*
X49960D01*
X49898Y77157D01*
X49829Y77161D01*
X49751Y77169D01*
Y77555D01*
X50001D01*
X50029Y77559D01*
X50099Y77567D01*
X50132Y77575D01*
X50157Y77584D01*
X50161D01*
X50165Y77588D01*
X50189Y77608D01*
X50218Y77637D01*
X50239Y77678D01*
Y77682D01*
X50243Y77694D01*
X50247Y77719D01*
Y77735D01*
X50251Y77756D01*
X50255Y77780D01*
Y77809D01*
X50259Y77842D01*
Y77883D01*
Y77928D01*
X50263Y77977D01*
Y78035D01*
Y78096D01*
Y79908D01*
X52420D01*
Y77165D01*
D02*
G37*
G36*
X60821D02*
X60251D01*
X59812Y78309D01*
X58221D01*
X57811Y77165D01*
X57282D01*
X58730Y80950D01*
X59271D01*
X60821Y77165D01*
D02*
G37*
G36*
X42535Y79966D02*
X42576D01*
X42625Y79957D01*
X42678Y79949D01*
X42740Y79937D01*
X42809Y79925D01*
X42879Y79904D01*
X42957Y79879D01*
X43031Y79847D01*
X43109Y79814D01*
X43187Y79769D01*
X43260Y79720D01*
X43334Y79662D01*
X43404Y79597D01*
X43408Y79593D01*
X43420Y79580D01*
X43437Y79560D01*
X43461Y79527D01*
X43486Y79490D01*
X43519Y79445D01*
X43551Y79392D01*
X43584Y79330D01*
X43617Y79260D01*
X43650Y79183D01*
X43683Y79101D01*
X43707Y79010D01*
X43732Y78912D01*
X43748Y78805D01*
X43761Y78690D01*
X43765Y78572D01*
Y78568D01*
Y78547D01*
Y78522D01*
X43761Y78486D01*
Y78440D01*
X43756Y78387D01*
X43752Y78330D01*
X43744Y78268D01*
X43728Y78137D01*
X43699Y77998D01*
X43658Y77862D01*
X43633Y77801D01*
X43605Y77739D01*
Y77735D01*
X43597Y77727D01*
X43588Y77711D01*
X43576Y77690D01*
X43560Y77666D01*
X43539Y77633D01*
X43486Y77567D01*
X43420Y77489D01*
X43342Y77411D01*
X43248Y77337D01*
X43141Y77268D01*
X43137D01*
X43129Y77260D01*
X43113Y77251D01*
X43088Y77243D01*
X43060Y77231D01*
X43027Y77214D01*
X42990Y77202D01*
X42945Y77186D01*
X42900Y77169D01*
X42846Y77157D01*
X42736Y77128D01*
X42613Y77112D01*
X42481Y77104D01*
X42457D01*
X42428Y77108D01*
X42387D01*
X42338Y77116D01*
X42281Y77124D01*
X42219Y77137D01*
X42149Y77149D01*
X42075Y77169D01*
X42002Y77194D01*
X41924Y77223D01*
X41846Y77260D01*
X41768Y77301D01*
X41694Y77350D01*
X41620Y77407D01*
X41551Y77473D01*
X41547Y77477D01*
X41534Y77489D01*
X41518Y77510D01*
X41497Y77543D01*
X41469Y77579D01*
X41440Y77624D01*
X41407Y77682D01*
X41374Y77743D01*
X41342Y77817D01*
X41309Y77895D01*
X41280Y77981D01*
X41251Y78075D01*
X41231Y78178D01*
X41214Y78289D01*
X41202Y78408D01*
X41198Y78535D01*
Y78539D01*
Y78543D01*
Y78568D01*
X41202Y78609D01*
X41206Y78658D01*
X41210Y78723D01*
X41219Y78797D01*
X41235Y78875D01*
X41251Y78961D01*
X41272Y79051D01*
X41301Y79146D01*
X41337Y79240D01*
X41374Y79334D01*
X41424Y79425D01*
X41481Y79511D01*
X41547Y79589D01*
X41620Y79662D01*
X41625Y79666D01*
X41637Y79675D01*
X41657Y79691D01*
X41682Y79712D01*
X41719Y79732D01*
X41760Y79761D01*
X41805Y79789D01*
X41862Y79818D01*
X41920Y79847D01*
X41985Y79871D01*
X42055Y79900D01*
X42133Y79921D01*
X42215Y79941D01*
X42297Y79957D01*
X42387Y79966D01*
X42481Y79970D01*
X42506D01*
X42535Y79966D01*
D02*
G37*
%LPC*%
G36*
X50098Y84547D02*
X50094D01*
X50086Y84543D01*
X50070Y84539D01*
X50049Y84531D01*
X50024Y84518D01*
X49992Y84510D01*
X49951Y84498D01*
X49910Y84485D01*
X49856Y84473D01*
X49799Y84457D01*
X49738Y84444D01*
X49668Y84428D01*
X49594Y84412D01*
X49516Y84399D01*
X49430Y84383D01*
X49336Y84371D01*
X49323D01*
X49307Y84367D01*
X49291Y84362D01*
X49237Y84354D01*
X49176Y84342D01*
X49110Y84330D01*
X49045Y84313D01*
X48983Y84297D01*
X48930Y84276D01*
X48926Y84272D01*
X48909Y84268D01*
X48889Y84256D01*
X48864Y84239D01*
X48831Y84215D01*
X48803Y84190D01*
X48774Y84162D01*
X48745Y84125D01*
X48741Y84121D01*
X48737Y84108D01*
X48725Y84088D01*
X48717Y84059D01*
X48704Y84026D01*
X48692Y83989D01*
X48688Y83948D01*
X48684Y83903D01*
Y83895D01*
X48688Y83874D01*
X48692Y83838D01*
X48700Y83797D01*
X48717Y83747D01*
X48741Y83694D01*
X48778Y83645D01*
X48823Y83596D01*
X48831Y83592D01*
X48848Y83575D01*
X48881Y83559D01*
X48926Y83534D01*
X48983Y83514D01*
X49057Y83493D01*
X49139Y83477D01*
X49233Y83473D01*
X49278D01*
X49303Y83477D01*
X49332Y83481D01*
X49393Y83489D01*
X49471Y83501D01*
X49549Y83522D01*
X49631Y83551D01*
X49713Y83587D01*
X49717D01*
X49721Y83592D01*
X49746Y83608D01*
X49783Y83637D01*
X49832Y83674D01*
X49881Y83719D01*
X49930Y83776D01*
X49979Y83838D01*
X50020Y83911D01*
X50024Y83920D01*
X50033Y83940D01*
X50045Y83977D01*
X50057Y84026D01*
X50070Y84092D01*
X50082Y84174D01*
X50090Y84268D01*
X50094Y84375D01*
X50098Y84547D01*
D02*
G37*
G36*
X41320Y84457D02*
X40685D01*
Y83551D01*
X41246D01*
X41279Y83555D01*
X41324D01*
X41369Y83559D01*
X41419Y83563D01*
X41521Y83575D01*
X41628Y83596D01*
X41722Y83620D01*
X41767Y83637D01*
X41804Y83657D01*
X41808D01*
X41812Y83661D01*
X41833Y83678D01*
X41866Y83706D01*
X41902Y83743D01*
X41935Y83788D01*
X41968Y83846D01*
X41989Y83916D01*
X41997Y83956D01*
Y83997D01*
Y84002D01*
Y84006D01*
X41993Y84026D01*
X41989Y84059D01*
X41980Y84104D01*
X41960Y84153D01*
X41935Y84207D01*
X41902Y84260D01*
X41853Y84313D01*
X41845Y84321D01*
X41837Y84325D01*
X41824Y84338D01*
X41808Y84346D01*
X41783Y84358D01*
X41755Y84371D01*
X41722Y84387D01*
X41685Y84399D01*
X41640Y84412D01*
X41591Y84424D01*
X41533Y84436D01*
X41468Y84444D01*
X41398Y84453D01*
X41320Y84457D01*
D02*
G37*
G36*
X66761Y85588D02*
X66728D01*
X66703Y85584D01*
X66675Y85580D01*
X66638Y85576D01*
X66560Y85555D01*
X66466Y85523D01*
X66420Y85502D01*
X66371Y85478D01*
X66322Y85449D01*
X66273Y85412D01*
X66228Y85371D01*
X66183Y85326D01*
X66179Y85322D01*
X66174Y85314D01*
X66162Y85297D01*
X66146Y85277D01*
X66129Y85248D01*
X66109Y85215D01*
X66088Y85174D01*
X66068Y85129D01*
X66047Y85076D01*
X66027Y85018D01*
X66006Y84953D01*
X65990Y84883D01*
X65974Y84805D01*
X65961Y84723D01*
X65957Y84633D01*
X65953Y84539D01*
Y84535D01*
Y84514D01*
Y84490D01*
X65957Y84453D01*
X65961Y84408D01*
X65965Y84358D01*
X65974Y84301D01*
X65982Y84244D01*
X66010Y84112D01*
X66051Y83981D01*
X66076Y83920D01*
X66109Y83858D01*
X66142Y83801D01*
X66183Y83747D01*
X66187Y83743D01*
X66195Y83735D01*
X66207Y83723D01*
X66224Y83706D01*
X66248Y83686D01*
X66273Y83665D01*
X66306Y83641D01*
X66343Y83620D01*
X66425Y83571D01*
X66523Y83530D01*
X66576Y83514D01*
X66638Y83501D01*
X66695Y83493D01*
X66761Y83489D01*
X66794D01*
X66818Y83493D01*
X66847Y83497D01*
X66884Y83501D01*
X66962Y83522D01*
X67052Y83555D01*
X67101Y83575D01*
X67150Y83600D01*
X67195Y83628D01*
X67244Y83665D01*
X67290Y83706D01*
X67335Y83751D01*
X67339Y83756D01*
X67343Y83764D01*
X67355Y83780D01*
X67372Y83801D01*
X67388Y83829D01*
X67409Y83862D01*
X67429Y83903D01*
X67454Y83952D01*
X67474Y84002D01*
X67495Y84063D01*
X67515Y84129D01*
X67532Y84202D01*
X67548Y84280D01*
X67560Y84367D01*
X67564Y84457D01*
X67568Y84555D01*
Y84559D01*
Y84576D01*
Y84604D01*
X67564Y84637D01*
X67560Y84682D01*
X67556Y84731D01*
X67548Y84785D01*
X67540Y84842D01*
X67511Y84965D01*
X67495Y85031D01*
X67470Y85096D01*
X67441Y85158D01*
X67413Y85219D01*
X67376Y85273D01*
X67335Y85326D01*
X67331Y85330D01*
X67322Y85338D01*
X67310Y85351D01*
X67294Y85367D01*
X67269Y85387D01*
X67244Y85408D01*
X67212Y85432D01*
X67179Y85457D01*
X67093Y85506D01*
X66994Y85547D01*
X66941Y85564D01*
X66884Y85576D01*
X66822Y85584D01*
X66761Y85588D01*
D02*
G37*
G36*
X109221Y38426D02*
X108181D01*
Y37672D01*
Y37669D01*
Y37662D01*
Y37652D01*
Y37639D01*
Y37606D01*
X108185Y37564D01*
Y37521D01*
X108188Y37475D01*
X108191Y37432D01*
X108194Y37400D01*
Y37393D01*
X108198Y37377D01*
X108204Y37350D01*
X108214Y37318D01*
X108224Y37282D01*
X108240Y37245D01*
X108257Y37206D01*
X108276Y37170D01*
X108280Y37167D01*
X108286Y37154D01*
X108299Y37137D01*
X108319Y37114D01*
X108342Y37091D01*
X108372Y37065D01*
X108404Y37039D01*
X108444Y37016D01*
X108450Y37013D01*
X108463Y37006D01*
X108486Y36996D01*
X108519Y36983D01*
X108555Y36973D01*
X108598Y36963D01*
X108647Y36957D01*
X108700Y36953D01*
X108729D01*
X108759Y36957D01*
X108801Y36963D01*
X108847Y36977D01*
X108896Y36990D01*
X108946Y37013D01*
X108995Y37042D01*
X109001Y37045D01*
X109014Y37058D01*
X109037Y37078D01*
X109064Y37104D01*
X109093Y37141D01*
X109119Y37183D01*
X109146Y37229D01*
X109169Y37285D01*
Y37288D01*
X109172Y37291D01*
X109175Y37301D01*
X109178Y37314D01*
X109182Y37331D01*
X109185Y37347D01*
X109192Y37370D01*
X109195Y37396D01*
X109201Y37429D01*
X109205Y37462D01*
X109208Y37498D01*
X109215Y37537D01*
X109218Y37626D01*
X109221Y37728D01*
Y38426D01*
D02*
G37*
G36*
X110494D02*
X109579D01*
Y37773D01*
Y37770D01*
Y37760D01*
Y37747D01*
Y37731D01*
Y37708D01*
X109582Y37682D01*
Y37626D01*
X109585Y37564D01*
X109592Y37498D01*
X109602Y37439D01*
X109605Y37413D01*
X109611Y37390D01*
Y37387D01*
X109615Y37383D01*
X109621Y37363D01*
X109631Y37337D01*
X109648Y37304D01*
X109667Y37268D01*
X109693Y37229D01*
X109726Y37193D01*
X109762Y37160D01*
X109769Y37157D01*
X109782Y37147D01*
X109805Y37134D01*
X109835Y37121D01*
X109874Y37108D01*
X109920Y37095D01*
X109969Y37085D01*
X110028Y37082D01*
X110054D01*
X110081Y37085D01*
X110117Y37091D01*
X110159Y37101D01*
X110205Y37114D01*
X110251Y37131D01*
X110294Y37157D01*
X110300Y37160D01*
X110313Y37170D01*
X110333Y37186D01*
X110356Y37209D01*
X110382Y37239D01*
X110408Y37275D01*
X110431Y37314D01*
X110451Y37363D01*
X110454Y37370D01*
Y37377D01*
X110458Y37390D01*
X110461Y37403D01*
X110464Y37423D01*
X110468Y37446D01*
X110474Y37468D01*
X110477Y37498D01*
X110481Y37534D01*
X110484Y37570D01*
X110487Y37613D01*
X110491Y37659D01*
Y37708D01*
X110494Y37764D01*
Y37823D01*
Y38426D01*
D02*
G37*
G36*
Y61436D02*
X108181D01*
Y60789D01*
Y60786D01*
Y60776D01*
Y60760D01*
Y60740D01*
X108185Y60714D01*
Y60684D01*
X108188Y60619D01*
X108194Y60543D01*
X108204Y60465D01*
X108217Y60389D01*
X108234Y60320D01*
Y60317D01*
X108237Y60314D01*
X108240Y60304D01*
X108244Y60291D01*
X108257Y60261D01*
X108273Y60222D01*
X108296Y60179D01*
X108322Y60133D01*
X108355Y60087D01*
X108391Y60048D01*
X108395Y60045D01*
X108398Y60041D01*
X108417Y60025D01*
X108450Y59999D01*
X108493Y59966D01*
X108549Y59933D01*
X108614Y59897D01*
X108690Y59861D01*
X108775Y59828D01*
X108778D01*
X108785Y59825D01*
X108798Y59822D01*
X108818Y59815D01*
X108841Y59809D01*
X108870Y59802D01*
X108903Y59795D01*
X108939Y59786D01*
X108978Y59779D01*
X109024Y59772D01*
X109070Y59766D01*
X109123Y59759D01*
X109234Y59750D01*
X109359Y59746D01*
X109405D01*
X109438Y59750D01*
X109477D01*
X109523Y59753D01*
X109572Y59759D01*
X109628Y59766D01*
X109746Y59786D01*
X109867Y59812D01*
X109982Y59851D01*
X110038Y59877D01*
X110087Y59904D01*
X110090Y59907D01*
X110097Y59910D01*
X110110Y59920D01*
X110130Y59933D01*
X110149Y59946D01*
X110172Y59966D01*
X110225Y60009D01*
X110284Y60064D01*
X110340Y60130D01*
X110392Y60202D01*
X110412Y60242D01*
X110431Y60284D01*
Y60287D01*
X110435Y60291D01*
X110438Y60301D01*
X110441Y60314D01*
X110445Y60333D01*
X110451Y60353D01*
X110458Y60379D01*
X110464Y60409D01*
X110468Y60442D01*
X110474Y60481D01*
X110481Y60524D01*
X110484Y60570D01*
X110487Y60622D01*
X110491Y60678D01*
X110494Y60737D01*
Y60802D01*
Y61436D01*
D02*
G37*
G36*
X110517Y29475D02*
X109516D01*
Y28616D01*
Y28613D01*
Y28603D01*
Y28589D01*
Y28570D01*
X109520Y28547D01*
Y28521D01*
X109523Y28458D01*
X109529Y28389D01*
X109539Y28317D01*
X109552Y28248D01*
X109572Y28186D01*
Y28183D01*
X109575Y28179D01*
X109582Y28160D01*
X109595Y28134D01*
X109615Y28098D01*
X109641Y28062D01*
X109670Y28022D01*
X109710Y27983D01*
X109753Y27950D01*
X109759Y27947D01*
X109775Y27937D01*
X109798Y27924D01*
X109835Y27907D01*
X109874Y27894D01*
X109920Y27881D01*
X109972Y27871D01*
X110025Y27868D01*
X110044D01*
X110061Y27871D01*
X110077D01*
X110100Y27874D01*
X110149Y27888D01*
X110205Y27907D01*
X110264Y27933D01*
X110320Y27973D01*
X110349Y27999D01*
X110376Y28025D01*
X110379Y28029D01*
X110382Y28032D01*
X110389Y28042D01*
X110399Y28055D01*
X110408Y28071D01*
X110422Y28094D01*
X110435Y28117D01*
X110448Y28147D01*
X110461Y28179D01*
X110471Y28216D01*
X110484Y28255D01*
X110494Y28298D01*
X110504Y28347D01*
X110510Y28399D01*
X110517Y28455D01*
Y28517D01*
Y29475D01*
D02*
G37*
G36*
X46572Y85609D02*
X46544D01*
X46523Y85605D01*
X46499Y85601D01*
X46466Y85592D01*
X46396Y85576D01*
X46314Y85539D01*
X46273Y85519D01*
X46228Y85490D01*
X46183Y85461D01*
X46138Y85420D01*
X46093Y85379D01*
X46047Y85330D01*
X46043Y85326D01*
X46039Y85318D01*
X46027Y85301D01*
X46011Y85277D01*
X45994Y85248D01*
X45978Y85215D01*
X45957Y85174D01*
X45937Y85125D01*
X45912Y85072D01*
X45892Y85010D01*
X45875Y84945D01*
X45859Y84871D01*
X45842Y84793D01*
X45830Y84711D01*
X45826Y84621D01*
X45822Y84522D01*
Y84518D01*
Y84498D01*
Y84473D01*
X45826Y84436D01*
X45830Y84391D01*
X45834Y84342D01*
X45838Y84285D01*
X45851Y84227D01*
X45875Y84100D01*
X45912Y83969D01*
X45937Y83907D01*
X45965Y83846D01*
X45998Y83788D01*
X46035Y83739D01*
X46039Y83735D01*
X46043Y83727D01*
X46056Y83715D01*
X46072Y83702D01*
X46093Y83682D01*
X46117Y83661D01*
X46179Y83616D01*
X46257Y83567D01*
X46343Y83530D01*
X46392Y83514D01*
X46441Y83501D01*
X46494Y83493D01*
X46552Y83489D01*
X46580D01*
X46605Y83493D01*
X46630Y83497D01*
X46663Y83501D01*
X46736Y83522D01*
X46818Y83551D01*
X46863Y83575D01*
X46909Y83600D01*
X46954Y83628D01*
X46999Y83661D01*
X47044Y83702D01*
X47085Y83747D01*
X47089Y83751D01*
X47093Y83760D01*
X47105Y83776D01*
X47118Y83797D01*
X47138Y83825D01*
X47155Y83858D01*
X47175Y83899D01*
X47196Y83948D01*
X47216Y84002D01*
X47236Y84059D01*
X47257Y84129D01*
X47273Y84202D01*
X47286Y84280D01*
X47298Y84367D01*
X47302Y84461D01*
X47306Y84559D01*
Y84563D01*
Y84584D01*
Y84608D01*
X47302Y84645D01*
X47298Y84690D01*
X47294Y84740D01*
X47290Y84793D01*
X47278Y84854D01*
X47253Y84982D01*
X47216Y85113D01*
X47191Y85178D01*
X47163Y85236D01*
X47126Y85293D01*
X47089Y85346D01*
X47085Y85351D01*
X47081Y85359D01*
X47068Y85371D01*
X47052Y85387D01*
X47032Y85408D01*
X47003Y85428D01*
X46941Y85478D01*
X46867Y85527D01*
X46781Y85568D01*
X46732Y85584D01*
X46679Y85597D01*
X46626Y85605D01*
X46572Y85609D01*
D02*
G37*
G36*
X63878D02*
X63850D01*
X63829Y85605D01*
X63805Y85601D01*
X63772Y85592D01*
X63702Y85576D01*
X63620Y85539D01*
X63579Y85519D01*
X63534Y85490D01*
X63489Y85461D01*
X63444Y85420D01*
X63399Y85379D01*
X63354Y85330D01*
X63349Y85326D01*
X63345Y85318D01*
X63333Y85301D01*
X63317Y85277D01*
X63300Y85248D01*
X63284Y85215D01*
X63263Y85174D01*
X63243Y85125D01*
X63218Y85072D01*
X63198Y85010D01*
X63181Y84945D01*
X63165Y84871D01*
X63149Y84793D01*
X63136Y84711D01*
X63132Y84621D01*
X63128Y84522D01*
Y84518D01*
Y84498D01*
Y84473D01*
X63132Y84436D01*
X63136Y84391D01*
X63140Y84342D01*
X63144Y84285D01*
X63157Y84227D01*
X63181Y84100D01*
X63218Y83969D01*
X63243Y83907D01*
X63272Y83846D01*
X63304Y83788D01*
X63341Y83739D01*
X63345Y83735D01*
X63349Y83727D01*
X63362Y83715D01*
X63378Y83702D01*
X63399Y83682D01*
X63423Y83661D01*
X63485Y83616D01*
X63563Y83567D01*
X63649Y83530D01*
X63698Y83514D01*
X63747Y83501D01*
X63801Y83493D01*
X63858Y83489D01*
X63887D01*
X63911Y83493D01*
X63936Y83497D01*
X63969Y83501D01*
X64042Y83522D01*
X64124Y83551D01*
X64170Y83575D01*
X64215Y83600D01*
X64260Y83628D01*
X64305Y83661D01*
X64350Y83702D01*
X64391Y83747D01*
X64395Y83751D01*
X64399Y83760D01*
X64411Y83776D01*
X64424Y83797D01*
X64444Y83825D01*
X64461Y83858D01*
X64481Y83899D01*
X64502Y83948D01*
X64522Y84002D01*
X64543Y84059D01*
X64563Y84129D01*
X64579Y84202D01*
X64592Y84280D01*
X64604Y84367D01*
X64608Y84461D01*
X64612Y84559D01*
Y84563D01*
Y84584D01*
Y84608D01*
X64608Y84645D01*
X64604Y84690D01*
X64600Y84740D01*
X64596Y84793D01*
X64584Y84854D01*
X64559Y84982D01*
X64522Y85113D01*
X64498Y85178D01*
X64469Y85236D01*
X64432Y85293D01*
X64395Y85346D01*
X64391Y85351D01*
X64387Y85359D01*
X64375Y85371D01*
X64358Y85387D01*
X64338Y85408D01*
X64309Y85428D01*
X64247Y85478D01*
X64174Y85527D01*
X64087Y85568D01*
X64038Y85584D01*
X63985Y85597D01*
X63932Y85605D01*
X63878Y85609D01*
D02*
G37*
G36*
X46122Y79527D02*
X45064D01*
Y79523D01*
Y79511D01*
Y79494D01*
X45060Y79470D01*
Y79437D01*
X45056Y79400D01*
Y79355D01*
X45052Y79310D01*
X45048Y79256D01*
X45040Y79195D01*
X45036Y79133D01*
X45028Y79068D01*
X45011Y78928D01*
X44995Y78777D01*
X44970Y78617D01*
X44941Y78453D01*
X44905Y78289D01*
X44868Y78125D01*
X44822Y77969D01*
X44773Y77817D01*
X44716Y77674D01*
X44683Y77608D01*
X44650Y77547D01*
X46122D01*
Y79527D01*
D02*
G37*
G36*
X54211Y78453D02*
X53576D01*
Y77547D01*
X54138D01*
X54171Y77551D01*
X54216D01*
X54261Y77555D01*
X54310Y77559D01*
X54412Y77571D01*
X54519Y77592D01*
X54613Y77616D01*
X54658Y77633D01*
X54695Y77653D01*
X54699D01*
X54703Y77657D01*
X54724Y77674D01*
X54757Y77702D01*
X54794Y77739D01*
X54826Y77785D01*
X54859Y77842D01*
X54880Y77912D01*
X54888Y77952D01*
Y77994D01*
Y77998D01*
Y78002D01*
X54884Y78022D01*
X54880Y78055D01*
X54872Y78100D01*
X54851Y78149D01*
X54826Y78203D01*
X54794Y78256D01*
X54744Y78309D01*
X54736Y78317D01*
X54728Y78322D01*
X54716Y78334D01*
X54699Y78342D01*
X54675Y78354D01*
X54646Y78367D01*
X54613Y78383D01*
X54576Y78395D01*
X54531Y78408D01*
X54482Y78420D01*
X54425Y78432D01*
X54359Y78440D01*
X54289Y78449D01*
X54211Y78453D01*
D02*
G37*
G36*
X58988Y80556D02*
Y80552D01*
X58984Y80540D01*
X58980Y80519D01*
X58976Y80495D01*
X58968Y80458D01*
X58959Y80421D01*
X58947Y80376D01*
X58935Y80326D01*
X58922Y80273D01*
X58906Y80216D01*
X58869Y80093D01*
X58828Y79962D01*
X58783Y79826D01*
X58365Y78715D01*
X59656D01*
X59259Y79765D01*
Y79769D01*
X59250Y79785D01*
X59242Y79810D01*
X59230Y79847D01*
X59214Y79884D01*
X59197Y79933D01*
X59177Y79986D01*
X59156Y80044D01*
X59115Y80171D01*
X59070Y80302D01*
X59025Y80433D01*
X58988Y80556D01*
D02*
G37*
G36*
X42481Y79584D02*
X42449D01*
X42424Y79580D01*
X42395Y79576D01*
X42358Y79572D01*
X42281Y79552D01*
X42186Y79519D01*
X42141Y79498D01*
X42092Y79474D01*
X42043Y79445D01*
X41993Y79408D01*
X41948Y79367D01*
X41903Y79322D01*
X41899Y79318D01*
X41895Y79310D01*
X41883Y79293D01*
X41866Y79273D01*
X41850Y79244D01*
X41829Y79211D01*
X41809Y79170D01*
X41789Y79125D01*
X41768Y79072D01*
X41747Y79014D01*
X41727Y78949D01*
X41711Y78879D01*
X41694Y78801D01*
X41682Y78719D01*
X41678Y78629D01*
X41674Y78535D01*
Y78531D01*
Y78510D01*
Y78486D01*
X41678Y78449D01*
X41682Y78404D01*
X41686Y78354D01*
X41694Y78297D01*
X41702Y78240D01*
X41731Y78108D01*
X41772Y77977D01*
X41797Y77916D01*
X41829Y77854D01*
X41862Y77797D01*
X41903Y77743D01*
X41907Y77739D01*
X41916Y77731D01*
X41928Y77719D01*
X41944Y77702D01*
X41969Y77682D01*
X41993Y77662D01*
X42026Y77637D01*
X42063Y77616D01*
X42145Y77567D01*
X42244Y77526D01*
X42297Y77510D01*
X42358Y77498D01*
X42416Y77489D01*
X42481Y77485D01*
X42514D01*
X42539Y77489D01*
X42568Y77493D01*
X42604Y77498D01*
X42682Y77518D01*
X42772Y77551D01*
X42822Y77571D01*
X42871Y77596D01*
X42916Y77624D01*
X42965Y77662D01*
X43010Y77702D01*
X43055Y77748D01*
X43060Y77752D01*
X43064Y77760D01*
X43076Y77776D01*
X43092Y77797D01*
X43109Y77825D01*
X43129Y77858D01*
X43150Y77899D01*
X43174Y77948D01*
X43195Y77998D01*
X43215Y78059D01*
X43236Y78125D01*
X43252Y78199D01*
X43269Y78276D01*
X43281Y78363D01*
X43285Y78453D01*
X43289Y78551D01*
Y78555D01*
Y78572D01*
Y78600D01*
X43285Y78633D01*
X43281Y78678D01*
X43277Y78727D01*
X43269Y78781D01*
X43260Y78838D01*
X43232Y78961D01*
X43215Y79027D01*
X43191Y79092D01*
X43162Y79154D01*
X43133Y79215D01*
X43096Y79269D01*
X43055Y79322D01*
X43051Y79326D01*
X43043Y79334D01*
X43031Y79347D01*
X43014Y79363D01*
X42990Y79383D01*
X42965Y79404D01*
X42932Y79428D01*
X42900Y79453D01*
X42814Y79502D01*
X42715Y79543D01*
X42662Y79560D01*
X42604Y79572D01*
X42543Y79580D01*
X42481Y79584D01*
D02*
G37*
%LPD*%
D31*
X13681Y25492D02*
G03*
X13681Y25492I-492J0D01*
G01*
X5709Y84646D02*
G03*
X5709Y84646I-492J0D01*
G01*
X54665Y11417D02*
G03*
X54665Y11417I-492J0D01*
G01*
X81102Y80610D02*
G03*
X81102Y80610I-492J0D01*
G01*
D32*
X12106Y18996D02*
Y20965D01*
X8858Y18996D02*
X12106D01*
X295D02*
Y20965D01*
Y18996D02*
X3543D01*
X10925Y71358D02*
Y83563D01*
X8957Y71358D02*
Y83563D01*
Y71358D02*
X10925D01*
X8957Y83563D02*
X10925D01*
X90354Y27657D02*
Y27756D01*
X89173Y27657D02*
X90354D01*
Y32283D02*
Y32382D01*
X89173D02*
X90354D01*
X90847Y36319D02*
Y36417D01*
X89665Y36319D02*
X90847D01*
Y40945D02*
Y41043D01*
X89665D02*
X90847D01*
X89764Y50492D02*
X89862D01*
Y49311D02*
Y50492D01*
X85138D02*
X85236D01*
X85138Y49311D02*
Y50492D01*
X77658Y15157D02*
X77756D01*
Y15256D01*
Y43012D02*
Y43110D01*
X77658D02*
X77756D01*
X49803D02*
X49902D01*
X49803Y43012D02*
Y43110D01*
Y15157D02*
Y15256D01*
Y15157D02*
X49902D01*
X22343Y8366D02*
Y8465D01*
X23524D01*
X22343Y3740D02*
Y3839D01*
Y3740D02*
X23524D01*
X86319Y67323D02*
Y79528D01*
X84350Y67323D02*
Y79528D01*
Y67323D02*
X86319D01*
X84350Y79528D02*
X86319D01*
X84744Y81201D02*
X86319D01*
X84744Y83957D02*
X86319D01*
D55*
X108431Y16148D02*
G03*
X108431Y16148I-328J0D01*
G01*
D56*
X106464Y14157D02*
X122244D01*
X106464D02*
Y73247D01*
X122244D01*
Y14157D02*
Y73247D01*
X36614Y21752D02*
X40945Y24508D01*
X36614Y21752D02*
Y27264D01*
X40945Y24508D01*
X32677Y30807D02*
X40157D01*
X32677D02*
Y38287D01*
D57*
X30217Y8957D02*
Y11712D01*
X31594D01*
X32053Y11253D01*
Y10334D01*
X31594Y9875D01*
X30217D01*
X31135D02*
X32053Y8957D01*
X34808D02*
X32972D01*
X34808Y10793D01*
Y11253D01*
X34349Y11712D01*
X33431D01*
X32972Y11253D01*
X99475Y69422D02*
X99015Y69881D01*
X98097D01*
X97638Y69422D01*
Y67585D01*
X98097Y67126D01*
X99015D01*
X99475Y67585D01*
X100393Y67126D02*
X101311D01*
X100852D01*
Y69881D01*
X100393Y69422D01*
X107972Y71653D02*
Y68898D01*
X109350D01*
X109809Y69357D01*
Y71193D01*
X109350Y71653D01*
X107972D01*
X112564Y71193D02*
X112105Y71653D01*
X111187D01*
X110728Y71193D01*
Y70734D01*
X111187Y70275D01*
X112105D01*
X112564Y69816D01*
Y69357D01*
X112105Y68898D01*
X111187D01*
X110728Y69357D01*
X113482Y68898D02*
X114401D01*
X113942D01*
Y71653D01*
X113482Y71193D01*
X4134Y37205D02*
Y39960D01*
X5511D01*
X5971Y39501D01*
Y38582D01*
X5511Y38123D01*
X4134D01*
X8726Y37205D02*
X6889D01*
X8726Y39041D01*
Y39501D01*
X8266Y39960D01*
X7348D01*
X6889Y39501D01*
X11827Y9449D02*
Y12204D01*
X13204D01*
X13664Y11745D01*
Y10826D01*
X13204Y10367D01*
X11827D01*
X12745D02*
X13664Y9449D01*
X16419Y12204D02*
X14582D01*
Y10826D01*
X15500Y11286D01*
X15959D01*
X16419Y10826D01*
Y9908D01*
X15959Y9449D01*
X15041D01*
X14582Y9908D01*
X73992Y81988D02*
Y84743D01*
X75370D01*
X75829Y84284D01*
Y83366D01*
X75370Y82907D01*
X73992D01*
X74910D02*
X75829Y81988D01*
X78584Y84743D02*
X77665Y84284D01*
X76747Y83366D01*
Y82447D01*
X77206Y81988D01*
X78125D01*
X78584Y82447D01*
Y82907D01*
X78125Y83366D01*
X76747D01*
X90158Y74901D02*
Y72605D01*
X90617Y72146D01*
X91535D01*
X91994Y72605D01*
Y74901D01*
X94749Y72146D02*
X92913D01*
X94749Y73982D01*
Y74441D01*
X94290Y74901D01*
X93372D01*
X92913Y74441D01*
X27755Y26771D02*
X27263Y27263D01*
X26279D01*
X25787Y26771D01*
Y26279D01*
X26279Y25787D01*
X27263D01*
X27755Y25295D01*
Y24803D01*
X27263Y24311D01*
X26279D01*
X25787Y24803D01*
X28739Y24311D02*
X29723D01*
X29231D01*
Y27263D01*
X28739Y26771D01*
X18879Y67816D02*
X19371Y67324D01*
X20355D01*
X20846Y67816D01*
Y69784D01*
X20355Y70276D01*
X19371D01*
X18879Y69784D01*
X17895Y67324D02*
X15927D01*
Y67816D01*
X17895Y69784D01*
Y70276D01*
X5021Y23524D02*
X7972D01*
Y24999D01*
X7480Y25491D01*
X5513D01*
X5021Y24999D01*
Y23524D01*
X7972Y28443D02*
Y26475D01*
X6005Y28443D01*
X5513D01*
X5021Y27951D01*
Y26967D01*
X5513Y26475D01*
X21260Y52559D02*
Y55511D01*
X22736D01*
X23228Y55019D01*
Y54035D01*
X22736Y53543D01*
X21260D01*
X22244D02*
X23228Y52559D01*
X24212D02*
X25196D01*
X24704D01*
Y55511D01*
X24212Y55019D01*
X26671Y55511D02*
X28639D01*
Y55019D01*
X26671Y53051D01*
Y52559D01*
X10925Y86515D02*
Y84055D01*
X11417Y83563D01*
X12401D01*
X12893Y84055D01*
Y86515D01*
X15845D02*
X13877D01*
Y85039D01*
X14861Y85531D01*
X15353D01*
X15845Y85039D01*
Y84055D01*
X15353Y83563D01*
X14369D01*
X13877Y84055D01*
X30905Y77657D02*
X30413Y78149D01*
X29429D01*
X28937Y77657D01*
Y75689D01*
X29429Y75197D01*
X30413D01*
X30905Y75689D01*
X31889D02*
X32381Y75197D01*
X33365D01*
X33857Y75689D01*
Y77657D01*
X33365Y78149D01*
X32381D01*
X31889Y77657D01*
Y77165D01*
X32381Y76673D01*
X33857D01*
X20078Y84842D02*
X19586Y85334D01*
X18602D01*
X18110Y84842D01*
Y82874D01*
X18602Y82382D01*
X19586D01*
X20078Y82874D01*
X21062Y82382D02*
X22046D01*
X21554D01*
Y85334D01*
X21062Y84842D01*
X23522Y82382D02*
X24506D01*
X24014D01*
Y85334D01*
X23522Y84842D01*
X31791Y69684D02*
X31299Y70176D01*
X30315D01*
X29823Y69684D01*
Y67716D01*
X30315Y67224D01*
X31299D01*
X31791Y67716D01*
X32775Y67224D02*
X33759D01*
X33267D01*
Y70176D01*
X32775Y69684D01*
X36710Y67224D02*
Y70176D01*
X35234Y68700D01*
X37202D01*
X41799Y16502D02*
X41339Y16043D01*
Y15124D01*
X41799Y14665D01*
X43635D01*
X44094Y15124D01*
Y16043D01*
X43635Y16502D01*
X44094Y17420D02*
Y18339D01*
Y17879D01*
X41339D01*
X41799Y17420D01*
X41339Y21553D02*
X41799Y20635D01*
X42717Y19716D01*
X43635D01*
X44094Y20175D01*
Y21094D01*
X43635Y21553D01*
X43176D01*
X42717Y21094D01*
Y19716D01*
X50754Y59973D02*
X50295Y60432D01*
X49376D01*
X48917Y59973D01*
Y58136D01*
X49376Y57677D01*
X50295D01*
X50754Y58136D01*
X51672Y57677D02*
X52591D01*
X52131D01*
Y60432D01*
X51672Y59973D01*
X53968Y60432D02*
X55805D01*
Y59973D01*
X53968Y58136D01*
Y57677D01*
X75852Y8890D02*
X75393Y9349D01*
X74475D01*
X74016Y8890D01*
Y7054D01*
X74475Y6594D01*
X75393D01*
X75852Y7054D01*
X76771Y6594D02*
X77689D01*
X77230D01*
Y9349D01*
X76771Y8890D01*
X79067Y7054D02*
X79526Y6594D01*
X80444D01*
X80903Y7054D01*
Y8890D01*
X80444Y9349D01*
X79526D01*
X79067Y8890D01*
Y8431D01*
X79526Y7972D01*
X80903D01*
X75656Y5150D02*
X75196Y5609D01*
X74278D01*
X73819Y5150D01*
Y3314D01*
X74278Y2854D01*
X75196D01*
X75656Y3314D01*
X78411Y2854D02*
X76574D01*
X78411Y4691D01*
Y5150D01*
X77951Y5609D01*
X77033D01*
X76574Y5150D01*
X79329D02*
X79788Y5609D01*
X80706D01*
X81166Y5150D01*
Y3314D01*
X80706Y2854D01*
X79788D01*
X79329Y3314D01*
Y5150D01*
X96030Y28707D02*
Y30544D01*
X95570Y31003D01*
X94652D01*
X94193Y30544D01*
Y28707D01*
X94652Y28248D01*
X95570D01*
X95111Y29166D02*
X96030Y28248D01*
X95570D02*
X96030Y28707D01*
X96948Y30544D02*
X97407Y31003D01*
X98325D01*
X98785Y30544D01*
Y30085D01*
X98325Y29625D01*
X98785Y29166D01*
Y28707D01*
X98325Y28248D01*
X97407D01*
X96948Y28707D01*
Y29166D01*
X97407Y29625D01*
X96948Y30085D01*
Y30544D01*
X97407Y29625D02*
X98325D01*
X95931Y37467D02*
Y39304D01*
X95472Y39763D01*
X94554D01*
X94095Y39304D01*
Y37467D01*
X94554Y37008D01*
X95472D01*
X95013Y37926D02*
X95931Y37008D01*
X95472D02*
X95931Y37467D01*
X96850D02*
X97309Y37008D01*
X98227D01*
X98686Y37467D01*
Y39304D01*
X98227Y39763D01*
X97309D01*
X96850Y39304D01*
Y38844D01*
X97309Y38385D01*
X98686D01*
X84711Y42487D02*
Y44323D01*
X84251Y44783D01*
X83333D01*
X82874Y44323D01*
Y42487D01*
X83333Y42028D01*
X84251D01*
X83792Y42946D02*
X84711Y42028D01*
X84251D02*
X84711Y42487D01*
X85629Y42028D02*
X86547D01*
X86088D01*
Y44783D01*
X85629Y44323D01*
X87925D02*
X88384Y44783D01*
X89302D01*
X89762Y44323D01*
Y42487D01*
X89302Y42028D01*
X88384D01*
X87925Y42487D01*
Y44323D01*
X23884Y10006D02*
Y11843D01*
X23425Y12302D01*
X22506D01*
X22047Y11843D01*
Y10006D01*
X22506Y9547D01*
X23425D01*
X22966Y10466D02*
X23884Y9547D01*
X23425D02*
X23884Y10006D01*
X24802Y9547D02*
X25721D01*
X25261D01*
Y12302D01*
X24802Y11843D01*
X27098Y9547D02*
X28016D01*
X27557D01*
Y12302D01*
X27098Y11843D01*
X100886Y57480D02*
Y60235D01*
X102263D01*
X102723Y59776D01*
Y58858D01*
X102263Y58399D01*
X100886D01*
X101804D02*
X102723Y57480D01*
X103641Y57939D02*
X104100Y57480D01*
X105018D01*
X105477Y57939D01*
Y59776D01*
X105018Y60235D01*
X104100D01*
X103641Y59776D01*
Y59317D01*
X104100Y58858D01*
X105477D01*
X66043Y12499D02*
X67880D01*
Y12040D01*
X66043Y10203D01*
Y9744D01*
X67880D01*
X68798D02*
X69717D01*
X69257D01*
Y12499D01*
X68798Y12040D01*
X81102Y19881D02*
Y17585D01*
X81561Y17126D01*
X82480D01*
X82939Y17585D01*
Y19881D01*
X83857Y19422D02*
X84316Y19881D01*
X85235D01*
X85694Y19422D01*
Y18963D01*
X85235Y18504D01*
X84776D01*
X85235D01*
X85694Y18044D01*
Y17585D01*
X85235Y17126D01*
X84316D01*
X83857Y17585D01*
X46129Y47703D02*
X45670Y47244D01*
Y46325D01*
X46129Y45866D01*
X47966D01*
X48425Y46325D01*
Y47244D01*
X47966Y47703D01*
X48425Y48621D02*
Y49540D01*
Y49080D01*
X45670D01*
X46129Y48621D01*
X45670Y52754D02*
Y50917D01*
X47048D01*
X46589Y51835D01*
Y52294D01*
X47048Y52754D01*
X47966D01*
X48425Y52294D01*
Y51376D01*
X47966Y50917D01*
X32087Y52067D02*
Y55019D01*
X33562D01*
X34054Y54527D01*
Y53543D01*
X33562Y53051D01*
X32087D01*
X33070D02*
X34054Y52067D01*
X35038Y55019D02*
X37006D01*
Y54527D01*
X35038Y52559D01*
Y52067D01*
X66339Y51279D02*
Y54035D01*
X67716D01*
X68175Y53575D01*
Y52657D01*
X67716Y52198D01*
X66339D01*
X67257D02*
X68175Y51279D01*
X70930D02*
X69094D01*
X70930Y53116D01*
Y53575D01*
X70471Y54035D01*
X69553D01*
X69094Y53575D01*
X73685Y51279D02*
X71849D01*
X73685Y53116D01*
Y53575D01*
X73226Y54035D01*
X72308D01*
X71849Y53575D01*
X77067Y59055D02*
X74312D01*
Y60433D01*
X74771Y60892D01*
X75689D01*
X76149Y60433D01*
Y59055D01*
Y59974D02*
X77067Y60892D01*
X74771Y61810D02*
X74312Y62269D01*
Y63188D01*
X74771Y63647D01*
X75230D01*
X75689Y63188D01*
X76149Y63647D01*
X76608D01*
X77067Y63188D01*
Y62269D01*
X76608Y61810D01*
X76149D01*
X75689Y62269D01*
X75230Y61810D01*
X74771D01*
X75689Y62269D02*
Y63188D01*
X102854Y49310D02*
X102362Y49802D01*
X101378D01*
X100886Y49310D01*
Y47342D01*
X101378Y46850D01*
X102362D01*
X102854Y47342D01*
X105806Y49802D02*
X103838D01*
Y48326D01*
X104822Y48818D01*
X105314D01*
X105806Y48326D01*
Y47342D01*
X105314Y46850D01*
X104330D01*
X103838Y47342D01*
X47737Y6889D02*
X47245Y6397D01*
Y5413D01*
X47737Y4921D01*
X49705D01*
X50197Y5413D01*
Y6397D01*
X49705Y6889D01*
X50197Y7873D02*
Y8857D01*
Y8365D01*
X47245D01*
X47737Y7873D01*
Y10333D02*
X47245Y10825D01*
Y11809D01*
X47737Y12301D01*
X48229D01*
X48721Y11809D01*
X49213Y12301D01*
X49705D01*
X50197Y11809D01*
Y10825D01*
X49705Y10333D01*
X49213D01*
X48721Y10825D01*
X48229Y10333D01*
X47737D01*
X48721Y10825D02*
Y11809D01*
D58*
X80321Y52271D02*
X79827Y52764D01*
X78840D01*
X78347Y52271D01*
Y50297D01*
X78840Y49803D01*
X79827D01*
X80321Y50297D01*
X83282Y52764D02*
X82295Y52271D01*
X81308Y51284D01*
Y50297D01*
X81801Y49803D01*
X82788D01*
X83282Y50297D01*
Y50790D01*
X82788Y51284D01*
X81308D01*
X29336Y45480D02*
X28843Y45973D01*
X27856D01*
X27362Y45480D01*
Y43505D01*
X27856Y43012D01*
X28843D01*
X29336Y43505D01*
X30323Y45973D02*
Y43012D01*
X32298D01*
X33285Y45973D02*
Y43012D01*
Y43999D01*
X35259Y45973D01*
X33778Y44492D01*
X35259Y43012D01*
X56102Y53453D02*
X57089D01*
X56596D01*
Y50492D01*
X56102D01*
X57089D01*
X60051Y53453D02*
X59064D01*
X58570Y52960D01*
Y50986D01*
X59064Y50492D01*
X60051D01*
X60544Y50986D01*
Y52960D01*
X60051Y53453D01*
M02*
