G04 Layer_Color=16711935*
%FSLAX25Y25*%
%MOIN*%
G70*
G01*
G75*
%ADD33C,0.01969*%
%ADD43C,0.03150*%
G04:AMPARAMS|DCode=59|XSize=23.62mil|YSize=27.56mil|CornerRadius=6.89mil|HoleSize=0mil|Usage=FLASHONLY|Rotation=90.000|XOffset=0mil|YOffset=0mil|HoleType=Round|Shape=RoundedRectangle|*
%AMROUNDEDRECTD59*
21,1,0.02362,0.01378,0,0,90.0*
21,1,0.00984,0.02756,0,0,90.0*
1,1,0.01378,0.00689,0.00492*
1,1,0.01378,0.00689,-0.00492*
1,1,0.01378,-0.00689,-0.00492*
1,1,0.01378,-0.00689,0.00492*
%
%ADD59ROUNDEDRECTD59*%
%ADD60R,0.03543X0.03937*%
G04:AMPARAMS|DCode=61|XSize=23.62mil|YSize=27.56mil|CornerRadius=6.89mil|HoleSize=0mil|Usage=FLASHONLY|Rotation=180.000|XOffset=0mil|YOffset=0mil|HoleType=Round|Shape=RoundedRectangle|*
%AMROUNDEDRECTD61*
21,1,0.02362,0.01378,0,0,180.0*
21,1,0.00984,0.02756,0,0,180.0*
1,1,0.01378,-0.00492,0.00689*
1,1,0.01378,0.00492,0.00689*
1,1,0.01378,0.00492,-0.00689*
1,1,0.01378,-0.00492,-0.00689*
%
%ADD61ROUNDEDRECTD61*%
G04:AMPARAMS|DCode=66|XSize=102.36mil|YSize=51.18mil|CornerRadius=13.78mil|HoleSize=0mil|Usage=FLASHONLY|Rotation=180.000|XOffset=0mil|YOffset=0mil|HoleType=Round|Shape=RoundedRectangle|*
%AMROUNDEDRECTD66*
21,1,0.10236,0.02362,0,0,180.0*
21,1,0.07480,0.05118,0,0,180.0*
1,1,0.02756,-0.03740,0.01181*
1,1,0.02756,0.03740,0.01181*
1,1,0.02756,0.03740,-0.01181*
1,1,0.02756,-0.03740,-0.01181*
%
%ADD66ROUNDEDRECTD66*%
G04:AMPARAMS|DCode=67|XSize=39.37mil|YSize=35.43mil|CornerRadius=9.84mil|HoleSize=0mil|Usage=FLASHONLY|Rotation=270.000|XOffset=0mil|YOffset=0mil|HoleType=Round|Shape=RoundedRectangle|*
%AMROUNDEDRECTD67*
21,1,0.03937,0.01575,0,0,270.0*
21,1,0.01969,0.03543,0,0,270.0*
1,1,0.01969,-0.00787,-0.00984*
1,1,0.01969,-0.00787,0.00984*
1,1,0.01969,0.00787,0.00984*
1,1,0.01969,0.00787,-0.00984*
%
%ADD67ROUNDEDRECTD67*%
%ADD80C,0.05118*%
%ADD81C,0.04331*%
%ADD82R,0.04528X0.02756*%
G04:AMPARAMS|DCode=83|XSize=122.05mil|YSize=102.36mil|CornerRadius=26.58mil|HoleSize=0mil|Usage=FLASHONLY|Rotation=270.000|XOffset=0mil|YOffset=0mil|HoleType=Round|Shape=RoundedRectangle|*
%AMROUNDEDRECTD83*
21,1,0.12205,0.04921,0,0,270.0*
21,1,0.06890,0.10236,0,0,270.0*
1,1,0.05315,-0.02461,-0.03445*
1,1,0.05315,-0.02461,0.03445*
1,1,0.05315,0.02461,0.03445*
1,1,0.05315,0.02461,-0.03445*
%
%ADD83ROUNDEDRECTD83*%
G04:AMPARAMS|DCode=84|XSize=82.68mil|YSize=98.43mil|CornerRadius=21.65mil|HoleSize=0mil|Usage=FLASHONLY|Rotation=180.000|XOffset=0mil|YOffset=0mil|HoleType=Round|Shape=RoundedRectangle|*
%AMROUNDEDRECTD84*
21,1,0.08268,0.05512,0,0,180.0*
21,1,0.03937,0.09843,0,0,180.0*
1,1,0.04331,-0.01969,0.02756*
1,1,0.04331,0.01969,0.02756*
1,1,0.04331,0.01969,-0.02756*
1,1,0.04331,-0.01969,-0.02756*
%
%ADD84ROUNDEDRECTD84*%
G04:AMPARAMS|DCode=85|XSize=21.65mil|YSize=58.27mil|CornerRadius=6.4mil|HoleSize=0mil|Usage=FLASHONLY|Rotation=90.000|XOffset=0mil|YOffset=0mil|HoleType=Round|Shape=RoundedRectangle|*
%AMROUNDEDRECTD85*
21,1,0.02165,0.04547,0,0,90.0*
21,1,0.00886,0.05827,0,0,90.0*
1,1,0.01280,0.02274,0.00443*
1,1,0.01280,0.02274,-0.00443*
1,1,0.01280,-0.02274,-0.00443*
1,1,0.01280,-0.02274,0.00443*
%
%ADD85ROUNDEDRECTD85*%
G04:AMPARAMS|DCode=86|XSize=62.01mil|YSize=86.61mil|CornerRadius=16.49mil|HoleSize=0mil|Usage=FLASHONLY|Rotation=270.000|XOffset=0mil|YOffset=0mil|HoleType=Round|Shape=RoundedRectangle|*
%AMROUNDEDRECTD86*
21,1,0.06201,0.05364,0,0,270.0*
21,1,0.02904,0.08661,0,0,270.0*
1,1,0.03297,-0.02682,-0.01452*
1,1,0.03297,-0.02682,0.01452*
1,1,0.03297,0.02682,0.01452*
1,1,0.03297,0.02682,-0.01452*
%
%ADD86ROUNDEDRECTD86*%
G04:AMPARAMS|DCode=87|XSize=62.01mil|YSize=82.68mil|CornerRadius=16.49mil|HoleSize=0mil|Usage=FLASHONLY|Rotation=270.000|XOffset=0mil|YOffset=0mil|HoleType=Round|Shape=RoundedRectangle|*
%AMROUNDEDRECTD87*
21,1,0.06201,0.04971,0,0,270.0*
21,1,0.02904,0.08268,0,0,270.0*
1,1,0.03297,-0.02485,-0.01452*
1,1,0.03297,-0.02485,0.01452*
1,1,0.03297,0.02485,0.01452*
1,1,0.03297,0.02485,-0.01452*
%
%ADD87ROUNDEDRECTD87*%
G04:AMPARAMS|DCode=88|XSize=50.2mil|YSize=55.12mil|CornerRadius=13.53mil|HoleSize=0mil|Usage=FLASHONLY|Rotation=270.000|XOffset=0mil|YOffset=0mil|HoleType=Round|Shape=RoundedRectangle|*
%AMROUNDEDRECTD88*
21,1,0.05020,0.02805,0,0,270.0*
21,1,0.02313,0.05512,0,0,270.0*
1,1,0.02707,-0.01403,-0.01157*
1,1,0.02707,-0.01403,0.01157*
1,1,0.02707,0.01403,0.01157*
1,1,0.02707,0.01403,-0.01157*
%
%ADD88ROUNDEDRECTD88*%
G04:AMPARAMS|DCode=89|XSize=50.2mil|YSize=59.06mil|CornerRadius=13.53mil|HoleSize=0mil|Usage=FLASHONLY|Rotation=270.000|XOffset=0mil|YOffset=0mil|HoleType=Round|Shape=RoundedRectangle|*
%AMROUNDEDRECTD89*
21,1,0.05020,0.03199,0,0,270.0*
21,1,0.02313,0.05906,0,0,270.0*
1,1,0.02707,-0.01599,-0.01157*
1,1,0.02707,-0.01599,0.01157*
1,1,0.02707,0.01599,0.01157*
1,1,0.02707,0.01599,-0.01157*
%
%ADD89ROUNDEDRECTD89*%
G04:AMPARAMS|DCode=90|XSize=97.44mil|YSize=59.06mil|CornerRadius=15.75mil|HoleSize=0mil|Usage=FLASHONLY|Rotation=270.000|XOffset=0mil|YOffset=0mil|HoleType=Round|Shape=RoundedRectangle|*
%AMROUNDEDRECTD90*
21,1,0.09744,0.02756,0,0,270.0*
21,1,0.06594,0.05906,0,0,270.0*
1,1,0.03150,-0.01378,-0.03297*
1,1,0.03150,-0.01378,0.03297*
1,1,0.03150,0.01378,0.03297*
1,1,0.03150,0.01378,-0.03297*
%
%ADD90ROUNDEDRECTD90*%
G04:AMPARAMS|DCode=91|XSize=27.56mil|YSize=45.28mil|CornerRadius=7.87mil|HoleSize=0mil|Usage=FLASHONLY|Rotation=90.000|XOffset=0mil|YOffset=0mil|HoleType=Round|Shape=RoundedRectangle|*
%AMROUNDEDRECTD91*
21,1,0.02756,0.02953,0,0,90.0*
21,1,0.01181,0.04528,0,0,90.0*
1,1,0.01575,0.01476,0.00591*
1,1,0.01575,0.01476,-0.00591*
1,1,0.01575,-0.01476,-0.00591*
1,1,0.01575,-0.01476,0.00591*
%
%ADD91ROUNDEDRECTD91*%
D33*
X61614Y55216D02*
Y59744D01*
X61516Y55216D02*
X61614D01*
X61516D02*
X61614D01*
D43*
X38583Y42028D02*
D03*
X58268Y48524D02*
D03*
D59*
X12815Y31398D02*
D03*
X17106D02*
D03*
X57106Y65256D02*
D03*
X61398D02*
D03*
X47264Y63484D02*
D03*
X51555D02*
D03*
D60*
X6890Y26969D02*
D03*
X12402D02*
D03*
D61*
X61614Y55335D02*
D03*
Y59626D02*
D03*
X71358Y81575D02*
D03*
Y77284D02*
D03*
D66*
X5906Y33848D02*
D03*
Y43848D02*
D03*
Y53848D02*
D03*
D67*
X87598Y73966D02*
D03*
X82087D02*
D03*
X87598Y80315D02*
D03*
X82087D02*
D03*
X87598Y69488D02*
D03*
X82087D02*
D03*
X98100Y13780D02*
D03*
X92588D02*
D03*
X98002Y19094D02*
D03*
X92490D02*
D03*
X97116Y28425D02*
D03*
X91604D02*
D03*
X97116Y38642D02*
D03*
X91604D02*
D03*
X91634Y48524D02*
D03*
X97146D02*
D03*
X97441Y58661D02*
D03*
X91929D02*
D03*
D80*
X65158Y68602D02*
D03*
X70866Y68898D02*
D03*
D81*
X97583Y43657D02*
D03*
Y53657D02*
D03*
Y33658D02*
D03*
Y63657D02*
D03*
Y23658D02*
D03*
X92246D02*
D03*
Y33658D02*
D03*
Y43657D02*
D03*
Y53657D02*
D03*
Y63657D02*
D03*
D82*
X44783Y59350D02*
D03*
Y51870D02*
D03*
X55216D02*
D03*
Y55610D02*
D03*
Y59350D02*
D03*
D83*
X109941Y7579D02*
D03*
D84*
X110728Y47933D02*
D03*
D85*
X103122Y70374D02*
D03*
Y72933D02*
D03*
Y67815D02*
D03*
Y65256D02*
D03*
Y75492D02*
D03*
D86*
X104500Y60532D02*
D03*
D87*
X104303Y80216D02*
D03*
D88*
X112402Y67028D02*
D03*
D89*
X112205Y73425D02*
D03*
D90*
Y81988D02*
D03*
Y58760D02*
D03*
D91*
X53839Y81890D02*
D03*
Y74410D02*
D03*
X64272D02*
D03*
Y78150D02*
D03*
Y81890D02*
D03*
M02*
