M48
;Layer_Color=9474304
;FILE_FORMAT=2:5
INCH,LZ
;TYPE=PLATED
T1F00S00C0.01181
T2F00S00C0.01575
T3F00S00C0.01968
T4F00S00C0.03150
%
T01
X0003248Y0005512
X0009941Y0012697
X0010237Y0018505
X0019882Y0018406
X0017815Y002313
X0022048Y0031793
X0025295Y0034547
X0029429Y0034646
X0027363Y0038191
X0028051Y0049311
X0030512Y0052362
X0037795Y0056791
X0042226Y0048624
X0043309Y0043506
X004439Y0037795
X0043604Y0034451
X0044027Y0027688
X0045868Y0024706
X0042618Y0019291
X0049508Y0014862
X0049409Y0004134
X0041043Y0007972
X0032579Y0014075
X0027461Y0017126
X0033071Y0023425
X0058369Y0019095
X0058467Y0009843
X006585Y0009449
X0069196Y0010138
X0073822Y0009843
X0079039Y0012107
X0080315Y000561
X0084646Y0003839
X0087008Y0009744
X0092323Y0003051
X0097047Y000315
X0102264Y0003051
X0101678Y0017028
X0101181Y0026772
X010158Y0032974
X0103647Y0035533
X0101481Y0037994
X0108882Y0055125
X0099274Y0075492
X0101476Y0078839
X0084842Y0076961
X006811Y0072736
X0068701Y0064862
X0070476Y0062011
X0071949Y0085433
X0046654Y0074508
X0039567Y007313
X0034843Y0085236
X0022539Y0085335
X0018701Y0079331
X0009252Y0079528
X0002461Y0085138
X0002756Y0058661
X0020079Y0062598
X0016142Y0048428
X0012894Y0044097
X0021064Y0044392
X0057087Y0034449
X0072244Y0035236
X0070866Y0021457
X008124Y0018928
X0113779Y0017421
X0113583Y0023327
X0112598Y0011024
X0113681Y000315
X0113583Y004124
X0110728Y0044685
X0113091Y0055709
X0111622Y0080209
X0111417Y0085039
T02
X0038583Y0042028
X0050593Y0043408
X0058268Y0048524
X0077461Y0042774
X0067913Y0082382
X0047441Y0083071
T03
X0013288Y0037108
X0092246Y0033658
X0097583
Y0043657
X0092246
Y0053657
X0097583
Y0063657
X0092246
Y0023658
X0097583
T04
X0065158Y0068602
X0070866Y0068898
M30
