G04 Layer_Physical_Order=2*
G04 Layer_Color=16711680*
%FSLAX25Y25*%
%MOIN*%
G70*
G01*
G75*
G04:AMPARAMS|DCode=10|XSize=19.69mil|YSize=23.62mil|CornerRadius=4.92mil|HoleSize=0mil|Usage=FLASHONLY|Rotation=90.000|XOffset=0mil|YOffset=0mil|HoleType=Round|Shape=RoundedRectangle|*
%AMROUNDEDRECTD10*
21,1,0.01969,0.01378,0,0,90.0*
21,1,0.00984,0.02362,0,0,90.0*
1,1,0.00984,0.00689,0.00492*
1,1,0.00984,0.00689,-0.00492*
1,1,0.00984,-0.00689,-0.00492*
1,1,0.00984,-0.00689,0.00492*
%
%ADD10ROUNDEDRECTD10*%
%ADD11R,0.03150X0.03543*%
G04:AMPARAMS|DCode=12|XSize=19.69mil|YSize=23.62mil|CornerRadius=4.92mil|HoleSize=0mil|Usage=FLASHONLY|Rotation=180.000|XOffset=0mil|YOffset=0mil|HoleType=Round|Shape=RoundedRectangle|*
%AMROUNDEDRECTD12*
21,1,0.01969,0.01378,0,0,180.0*
21,1,0.00984,0.02362,0,0,180.0*
1,1,0.00984,-0.00492,0.00689*
1,1,0.00984,0.00492,0.00689*
1,1,0.00984,0.00492,-0.00689*
1,1,0.00984,-0.00492,-0.00689*
%
%ADD12ROUNDEDRECTD12*%
G04:AMPARAMS|DCode=17|XSize=98.43mil|YSize=47.24mil|CornerRadius=11.81mil|HoleSize=0mil|Usage=FLASHONLY|Rotation=180.000|XOffset=0mil|YOffset=0mil|HoleType=Round|Shape=RoundedRectangle|*
%AMROUNDEDRECTD17*
21,1,0.09843,0.02362,0,0,180.0*
21,1,0.07480,0.04724,0,0,180.0*
1,1,0.02362,-0.03740,0.01181*
1,1,0.02362,0.03740,0.01181*
1,1,0.02362,0.03740,-0.01181*
1,1,0.02362,-0.03740,-0.01181*
%
%ADD17ROUNDEDRECTD17*%
G04:AMPARAMS|DCode=18|XSize=35.43mil|YSize=31.5mil|CornerRadius=7.87mil|HoleSize=0mil|Usage=FLASHONLY|Rotation=270.000|XOffset=0mil|YOffset=0mil|HoleType=Round|Shape=RoundedRectangle|*
%AMROUNDEDRECTD18*
21,1,0.03543,0.01575,0,0,270.0*
21,1,0.01969,0.03150,0,0,270.0*
1,1,0.01575,-0.00787,-0.00984*
1,1,0.01575,-0.00787,0.00984*
1,1,0.01575,0.00787,0.00984*
1,1,0.01575,0.00787,-0.00984*
%
%ADD18ROUNDEDRECTD18*%
%ADD31C,0.00984*%
%ADD32C,0.00787*%
%ADD33C,0.01969*%
%ADD34C,0.01575*%
%ADD35C,0.01181*%
%ADD36C,0.00906*%
%ADD37C,0.04724*%
%ADD38C,0.03937*%
%ADD39C,0.02756*%
%ADD40C,0.02441*%
%ADD41C,0.02362*%
%ADD42C,0.02559*%
%ADD43C,0.03150*%
%ADD44R,0.04134X0.02362*%
G04:AMPARAMS|DCode=45|XSize=118.11mil|YSize=98.43mil|CornerRadius=24.61mil|HoleSize=0mil|Usage=FLASHONLY|Rotation=270.000|XOffset=0mil|YOffset=0mil|HoleType=Round|Shape=RoundedRectangle|*
%AMROUNDEDRECTD45*
21,1,0.11811,0.04921,0,0,270.0*
21,1,0.06890,0.09843,0,0,270.0*
1,1,0.04921,-0.02461,-0.03445*
1,1,0.04921,-0.02461,0.03445*
1,1,0.04921,0.02461,0.03445*
1,1,0.04921,0.02461,-0.03445*
%
%ADD45ROUNDEDRECTD45*%
G04:AMPARAMS|DCode=46|XSize=78.74mil|YSize=94.49mil|CornerRadius=19.69mil|HoleSize=0mil|Usage=FLASHONLY|Rotation=180.000|XOffset=0mil|YOffset=0mil|HoleType=Round|Shape=RoundedRectangle|*
%AMROUNDEDRECTD46*
21,1,0.07874,0.05512,0,0,180.0*
21,1,0.03937,0.09449,0,0,180.0*
1,1,0.03937,-0.01969,0.02756*
1,1,0.03937,0.01969,0.02756*
1,1,0.03937,0.01969,-0.02756*
1,1,0.03937,-0.01969,-0.02756*
%
%ADD46ROUNDEDRECTD46*%
G04:AMPARAMS|DCode=47|XSize=17.72mil|YSize=54.33mil|CornerRadius=4.43mil|HoleSize=0mil|Usage=FLASHONLY|Rotation=90.000|XOffset=0mil|YOffset=0mil|HoleType=Round|Shape=RoundedRectangle|*
%AMROUNDEDRECTD47*
21,1,0.01772,0.04547,0,0,90.0*
21,1,0.00886,0.05433,0,0,90.0*
1,1,0.00886,0.02274,0.00443*
1,1,0.00886,0.02274,-0.00443*
1,1,0.00886,-0.02274,-0.00443*
1,1,0.00886,-0.02274,0.00443*
%
%ADD47ROUNDEDRECTD47*%
G04:AMPARAMS|DCode=48|XSize=58.07mil|YSize=82.68mil|CornerRadius=14.52mil|HoleSize=0mil|Usage=FLASHONLY|Rotation=270.000|XOffset=0mil|YOffset=0mil|HoleType=Round|Shape=RoundedRectangle|*
%AMROUNDEDRECTD48*
21,1,0.05807,0.05364,0,0,270.0*
21,1,0.02904,0.08268,0,0,270.0*
1,1,0.02904,-0.02682,-0.01452*
1,1,0.02904,-0.02682,0.01452*
1,1,0.02904,0.02682,0.01452*
1,1,0.02904,0.02682,-0.01452*
%
%ADD48ROUNDEDRECTD48*%
G04:AMPARAMS|DCode=49|XSize=58.07mil|YSize=78.74mil|CornerRadius=14.52mil|HoleSize=0mil|Usage=FLASHONLY|Rotation=270.000|XOffset=0mil|YOffset=0mil|HoleType=Round|Shape=RoundedRectangle|*
%AMROUNDEDRECTD49*
21,1,0.05807,0.04971,0,0,270.0*
21,1,0.02904,0.07874,0,0,270.0*
1,1,0.02904,-0.02485,-0.01452*
1,1,0.02904,-0.02485,0.01452*
1,1,0.02904,0.02485,0.01452*
1,1,0.02904,0.02485,-0.01452*
%
%ADD49ROUNDEDRECTD49*%
G04:AMPARAMS|DCode=50|XSize=46.26mil|YSize=51.18mil|CornerRadius=11.57mil|HoleSize=0mil|Usage=FLASHONLY|Rotation=270.000|XOffset=0mil|YOffset=0mil|HoleType=Round|Shape=RoundedRectangle|*
%AMROUNDEDRECTD50*
21,1,0.04626,0.02805,0,0,270.0*
21,1,0.02313,0.05118,0,0,270.0*
1,1,0.02313,-0.01403,-0.01157*
1,1,0.02313,-0.01403,0.01157*
1,1,0.02313,0.01403,0.01157*
1,1,0.02313,0.01403,-0.01157*
%
%ADD50ROUNDEDRECTD50*%
G04:AMPARAMS|DCode=51|XSize=46.26mil|YSize=55.12mil|CornerRadius=11.57mil|HoleSize=0mil|Usage=FLASHONLY|Rotation=270.000|XOffset=0mil|YOffset=0mil|HoleType=Round|Shape=RoundedRectangle|*
%AMROUNDEDRECTD51*
21,1,0.04626,0.03199,0,0,270.0*
21,1,0.02313,0.05512,0,0,270.0*
1,1,0.02313,-0.01599,-0.01157*
1,1,0.02313,-0.01599,0.01157*
1,1,0.02313,0.01599,0.01157*
1,1,0.02313,0.01599,-0.01157*
%
%ADD51ROUNDEDRECTD51*%
G04:AMPARAMS|DCode=52|XSize=93.5mil|YSize=55.12mil|CornerRadius=13.78mil|HoleSize=0mil|Usage=FLASHONLY|Rotation=270.000|XOffset=0mil|YOffset=0mil|HoleType=Round|Shape=RoundedRectangle|*
%AMROUNDEDRECTD52*
21,1,0.09350,0.02756,0,0,270.0*
21,1,0.06594,0.05512,0,0,270.0*
1,1,0.02756,-0.01378,-0.03297*
1,1,0.02756,-0.01378,0.03297*
1,1,0.02756,0.01378,0.03297*
1,1,0.02756,0.01378,-0.03297*
%
%ADD52ROUNDEDRECTD52*%
G04:AMPARAMS|DCode=53|XSize=23.62mil|YSize=41.34mil|CornerRadius=5.91mil|HoleSize=0mil|Usage=FLASHONLY|Rotation=90.000|XOffset=0mil|YOffset=0mil|HoleType=Round|Shape=RoundedRectangle|*
%AMROUNDEDRECTD53*
21,1,0.02362,0.02953,0,0,90.0*
21,1,0.01181,0.04134,0,0,90.0*
1,1,0.01181,0.01476,0.00591*
1,1,0.01181,0.01476,-0.00591*
1,1,0.01181,-0.01476,-0.00591*
1,1,0.01181,-0.01476,0.00591*
%
%ADD53ROUNDEDRECTD53*%
%ADD54C,0.01378*%
G36*
X66809Y64079D02*
X67253Y63415D01*
X67917Y62971D01*
X68120Y62931D01*
X68498Y62358D01*
X68429Y62011D01*
X68585Y61228D01*
X69028Y60563D01*
X69692Y60119D01*
X70476Y59964D01*
X71259Y60119D01*
X71924Y60563D01*
X72055Y60760D01*
X72284Y60806D01*
X72707Y61088D01*
X74703Y63084D01*
X74873Y63116D01*
X75290Y63053D01*
X75302Y63046D01*
X75428Y62959D01*
X75553Y62872D01*
X75557Y62871D01*
X75561Y62869D01*
X75711Y62837D01*
X75859Y62804D01*
X82151Y62669D01*
X82192Y62634D01*
X82474Y62340D01*
X82526Y62227D01*
Y51423D01*
X79877Y48774D01*
X60955Y48372D01*
X60565Y48496D01*
X60415Y48827D01*
X60307Y49369D01*
X59829Y50085D01*
X59113Y50563D01*
X58268Y50731D01*
X58071Y50893D01*
Y53429D01*
X58283D01*
Y55110D01*
X55216D01*
X52150D01*
Y53429D01*
X52362D01*
Y50172D01*
X52119Y49929D01*
X47638D01*
Y53839D01*
X47620D01*
X47309Y54230D01*
X49107Y62038D01*
X49643Y62137D01*
X49790Y61916D01*
X50284Y61587D01*
X50866Y61471D01*
X51055D01*
Y63484D01*
X52055D01*
Y61426D01*
X52273Y61350D01*
X52362Y60984D01*
Y57791D01*
X52150D01*
Y56110D01*
X55216D01*
X58283D01*
Y57791D01*
X58071D01*
Y59529D01*
X58100Y59558D01*
X58404Y60014D01*
X58511Y60551D01*
Y63703D01*
X58718Y63841D01*
X58995Y64257D01*
X59040Y64265D01*
X59464D01*
X59509Y64257D01*
X59786Y63841D01*
X60193Y63569D01*
Y61228D01*
X59917Y60814D01*
X59817Y60315D01*
Y58937D01*
X59917Y58438D01*
X60200Y58015D01*
X60386Y57890D01*
X60360Y57309D01*
X60046Y57099D01*
X59716Y56606D01*
X59601Y56024D01*
Y55835D01*
X60551D01*
X60554Y55830D01*
X60670Y55753D01*
X60781Y55670D01*
X60799Y55666D01*
X60815Y55656D01*
X60951Y55629D01*
X61086Y55595D01*
X61104Y55598D01*
X61122Y55595D01*
X61614D01*
X61909D01*
X62217Y55656D01*
X62477Y55830D01*
X62480Y55835D01*
X63628D01*
Y56024D01*
X63512Y56606D01*
X63182Y57099D01*
X62806Y57351D01*
Y57866D01*
X63029Y58015D01*
X63312Y58438D01*
X63411Y58937D01*
Y60315D01*
X63312Y60814D01*
X63029Y61238D01*
X62606Y61520D01*
X62602Y61521D01*
Y63569D01*
X63009Y63841D01*
X63292Y64265D01*
X63352Y64567D01*
X66712D01*
X66809Y64079D01*
D02*
G37*
G36*
X61909Y56398D02*
X61122D01*
X61221Y58563D01*
X61909D01*
Y56398D01*
D02*
G37*
G36*
X79339Y72756D02*
X79634Y72664D01*
X79777Y72562D01*
X79816Y72368D01*
X80164Y71847D01*
X80027Y71403D01*
X79816Y71087D01*
X79694Y70472D01*
Y68504D01*
X79816Y67889D01*
X80164Y67369D01*
X80685Y67020D01*
X81299Y66898D01*
X82064D01*
Y64862D01*
X82064Y64862D01*
X82155Y64401D01*
X82416Y64011D01*
X82251Y63552D01*
X82168Y63471D01*
X75876Y63607D01*
X75690Y64071D01*
X77244Y65625D01*
X77526Y66048D01*
X77626Y66547D01*
Y71155D01*
X79229Y72758D01*
X79339Y72756D01*
D02*
G37*
G36*
X41240Y86485D02*
Y58388D01*
X36519Y53667D01*
X32055D01*
X31959Y53810D01*
X31295Y54254D01*
X30512Y54409D01*
X30179Y54343D01*
X22092Y62430D01*
X22126Y62598D01*
X21970Y63382D01*
X21526Y64046D01*
X20862Y64490D01*
X20079Y64646D01*
X20005Y64706D01*
Y77788D01*
X20148Y77883D01*
X20592Y78547D01*
X20748Y79331D01*
X20592Y80114D01*
X20148Y80778D01*
X19484Y81222D01*
X18701Y81378D01*
X17917Y81222D01*
X17253Y80778D01*
X16809Y80114D01*
X16654Y79331D01*
X16809Y78547D01*
X17253Y77883D01*
X17396Y77788D01*
Y63976D01*
X17495Y63477D01*
X17778Y63054D01*
X18065Y62767D01*
X18032Y62598D01*
X18187Y61815D01*
X18631Y61151D01*
X19295Y60707D01*
X20079Y60551D01*
X20247Y60585D01*
X27970Y52862D01*
X27763Y52362D01*
X23312D01*
X10657Y65017D01*
Y78052D01*
X10700Y78080D01*
X11143Y78744D01*
X11299Y79528D01*
X11143Y80311D01*
X10700Y80975D01*
X10035Y81419D01*
X9252Y81575D01*
X8468Y81419D01*
X7804Y80975D01*
X7361Y80311D01*
X7205Y79528D01*
X7361Y78744D01*
X7804Y78080D01*
X7847Y78052D01*
Y64435D01*
X7954Y63898D01*
X8258Y63442D01*
X15584Y56117D01*
X15393Y55655D01*
X11528D01*
X11500Y55798D01*
X11065Y56449D01*
X10414Y56884D01*
X9646Y57037D01*
X2165D01*
X1484Y56901D01*
X984Y57163D01*
Y86226D01*
X1338Y86579D01*
X41240Y86485D01*
D02*
G37*
G36*
X2165Y40660D02*
X9646D01*
X9707Y40672D01*
X9953Y40212D01*
X6778Y37037D01*
X2165D01*
X1961Y36996D01*
X1575Y37313D01*
Y40384D01*
X1961Y40701D01*
X2165Y40660D01*
D02*
G37*
G36*
X41322Y44404D02*
X41352Y44261D01*
X41202Y43506D01*
X41362Y42700D01*
X41819Y42016D01*
X42503Y41559D01*
X43309Y41399D01*
X43442Y41425D01*
X44546Y40321D01*
X44453Y40036D01*
X44330Y39831D01*
X43606Y39687D01*
X42942Y39243D01*
X42914Y39200D01*
X36474D01*
X31414Y44261D01*
X31621Y44761D01*
X41131D01*
X41322Y44404D01*
D02*
G37*
G36*
X105000Y56580D02*
X107182D01*
X107902Y56723D01*
X108402Y56391D01*
Y55463D01*
X108587Y54535D01*
X108965Y53969D01*
X108812Y53595D01*
X108709Y53462D01*
X108040Y53374D01*
X107370Y53096D01*
X106794Y52654D01*
X106353Y52079D01*
X106075Y51408D01*
X105980Y50689D01*
Y45177D01*
X106075Y44458D01*
X106353Y43787D01*
X106794Y43212D01*
X107370Y42770D01*
X108040Y42492D01*
X108760Y42397D01*
X112697D01*
X113416Y42492D01*
X114087Y42770D01*
X114657Y43208D01*
X114681Y43205D01*
X115157Y43036D01*
X115157Y13901D01*
X114657Y13655D01*
X114147Y14047D01*
X113305Y14395D01*
X112401Y14514D01*
X110441D01*
Y7579D01*
X109941D01*
Y7079D01*
X103990D01*
Y4134D01*
X104109Y3230D01*
X104457Y2389D01*
X104698Y2075D01*
X104452Y1575D01*
X1575Y1575D01*
X1575Y30384D01*
X1961Y30701D01*
X2165Y30660D01*
X9646D01*
X10296Y30790D01*
X10796Y30513D01*
Y29528D01*
X10039D01*
Y24409D01*
X10713D01*
Y21547D01*
X10809Y21064D01*
X10421Y20676D01*
X10237Y20713D01*
X9392Y20545D01*
X8676Y20066D01*
X8197Y19350D01*
X8029Y18505D01*
X8197Y17660D01*
X8676Y16944D01*
X9392Y16465D01*
X10237Y16297D01*
X11082Y16465D01*
X11798Y16944D01*
X12276Y17660D01*
X12444Y18505D01*
X12408Y18689D01*
X13312Y19594D01*
X13617Y20049D01*
X13724Y20587D01*
Y20815D01*
X13802Y20933D01*
X13925Y21547D01*
Y24409D01*
X14764D01*
Y29528D01*
X14764Y29528D01*
X14764Y29967D01*
X15304Y29886D01*
X15342Y29830D01*
X15835Y29500D01*
X16417Y29384D01*
X16606D01*
Y31398D01*
Y33411D01*
X16417D01*
X15835Y33295D01*
X15342Y32965D01*
X15129Y32647D01*
X14601Y32605D01*
X14555Y32620D01*
X14426Y32812D01*
X14007Y33092D01*
Y34423D01*
X14007Y34423D01*
X14678Y34701D01*
X15254Y35143D01*
X15695Y35718D01*
X15973Y36389D01*
X16068Y37108D01*
X15973Y37828D01*
X15695Y38498D01*
X15254Y39074D01*
X14678Y39515D01*
X14007Y39793D01*
X13950Y39801D01*
X13930Y40292D01*
X14429Y40391D01*
X14601Y40506D01*
X23203D01*
X25216Y38493D01*
X25156Y38191D01*
X25324Y37346D01*
X25802Y36630D01*
X26519Y36151D01*
X27363Y35983D01*
X28208Y36151D01*
X28925Y36630D01*
X29403Y37346D01*
X29571Y38191D01*
X29403Y39036D01*
X28925Y39752D01*
X28208Y40231D01*
X27363Y40399D01*
X27061Y40338D01*
X24666Y42733D01*
X24243Y43016D01*
X23743Y43116D01*
X23156D01*
X22921Y43557D01*
X22955Y43608D01*
X23111Y44392D01*
X22955Y45175D01*
X22512Y45840D01*
X21847Y46283D01*
X21064Y46439D01*
X20281Y46283D01*
X19616Y45840D01*
X19324Y45401D01*
X15670D01*
X15463Y45901D01*
X15841Y46280D01*
X16142Y46220D01*
X16987Y46388D01*
X17704Y46866D01*
X17824Y47047D01*
X24653D01*
X34899Y36802D01*
X35355Y36497D01*
X35892Y36390D01*
X41994D01*
X42157Y35898D01*
X41713Y35234D01*
X41578Y34553D01*
X40022Y32998D01*
X23658D01*
X23496Y33241D01*
X22832Y33684D01*
X22048Y33840D01*
X21265Y33684D01*
X20601Y33241D01*
X20157Y32576D01*
X20001Y31793D01*
X20157Y31010D01*
X20601Y30345D01*
X21265Y29901D01*
X22048Y29746D01*
X22832Y29901D01*
X22867Y29925D01*
X23153Y29982D01*
X23576Y30265D01*
X23700Y30388D01*
X40563D01*
X41062Y30488D01*
X41485Y30770D01*
X43199Y32484D01*
X43604Y32403D01*
X44388Y32559D01*
X45052Y33003D01*
X45243Y33288D01*
X45743Y33136D01*
Y30560D01*
X44770Y29587D01*
X44027Y29735D01*
X43244Y29579D01*
X42579Y29135D01*
X42136Y28471D01*
X41980Y27688D01*
X42136Y26904D01*
X42579Y26240D01*
X43244Y25796D01*
X43555Y25734D01*
X43977Y25489D01*
X43821Y24706D01*
X43977Y23923D01*
X44421Y23258D01*
X45085Y22815D01*
X45257Y22780D01*
X45703Y22334D01*
Y13827D01*
X45803Y13327D01*
X46085Y12904D01*
X54931Y4058D01*
X55354Y3776D01*
X55854Y3676D01*
X79685D01*
X79716Y3682D01*
X80315Y3563D01*
X81098Y3719D01*
X81763Y4163D01*
X82206Y4827D01*
X82362Y5610D01*
X82206Y6394D01*
X81763Y7058D01*
X81098Y7502D01*
X80315Y7658D01*
X79532Y7502D01*
X78867Y7058D01*
X78424Y6394D01*
X78402Y6285D01*
X69096D01*
X68905Y6747D01*
X70190Y8032D01*
X70494Y8488D01*
X70502Y8524D01*
X70687Y8648D01*
X71143Y9332D01*
X71304Y10138D01*
X71143Y10945D01*
X70687Y11629D01*
X70003Y12085D01*
X69196Y12246D01*
X68390Y12085D01*
X67706Y11629D01*
X67249Y10945D01*
X67089Y10138D01*
X67249Y9332D01*
X67356Y9172D01*
X66439Y8256D01*
X58101D01*
X51545Y14812D01*
X51555Y14862D01*
X51399Y15646D01*
X50955Y16310D01*
X50913Y16338D01*
Y41063D01*
X51515Y41183D01*
X51585Y41230D01*
X51896Y41168D01*
X75692D01*
X75758Y41071D01*
X76539Y40548D01*
X77461Y40365D01*
X78382Y40548D01*
X78573Y40676D01*
X79014Y40440D01*
Y27651D01*
X72900Y21536D01*
X72617Y21113D01*
X72518Y20614D01*
Y11386D01*
X72375Y11291D01*
X71931Y10626D01*
X71775Y9843D01*
X71931Y9060D01*
X72375Y8395D01*
X73039Y7952D01*
X73822Y7796D01*
X74606Y7952D01*
X75270Y8395D01*
X75714Y9060D01*
X75870Y9843D01*
X75714Y10626D01*
X75270Y11291D01*
X75127Y11386D01*
Y20074D01*
X81241Y26188D01*
X81524Y26611D01*
X81623Y27110D01*
Y43952D01*
X81524Y44451D01*
X81241Y44875D01*
X79565Y46550D01*
X79142Y46833D01*
X78643Y46933D01*
X60851D01*
X60564Y47433D01*
X60640Y47563D01*
X82168Y48020D01*
X82526Y47670D01*
Y21917D01*
X81527Y20919D01*
X81240Y20976D01*
X80457Y20820D01*
X79792Y20376D01*
X79349Y19712D01*
X79193Y18928D01*
X79349Y18145D01*
X79792Y17481D01*
X80457Y17037D01*
X81240Y16881D01*
X82024Y17037D01*
X82688Y17481D01*
X83131Y18145D01*
X83287Y18928D01*
X83230Y19215D01*
X83639Y19624D01*
X84101Y19433D01*
Y17398D01*
X80349Y13647D01*
X79823Y13998D01*
X79039Y14154D01*
X78256Y13998D01*
X77592Y13555D01*
X77148Y12890D01*
X76992Y12107D01*
X77148Y11323D01*
X77592Y10659D01*
X78256Y10215D01*
X79039Y10060D01*
X79823Y10215D01*
X80487Y10659D01*
X80670Y10934D01*
X80973Y10994D01*
X81364Y11255D01*
X85211Y15103D01*
X85673Y14912D01*
Y11267D01*
X85560Y11192D01*
X85116Y10527D01*
X84961Y9744D01*
X85116Y8961D01*
X85560Y8297D01*
X86224Y7853D01*
X87008Y7697D01*
X87791Y7853D01*
X88455Y8297D01*
X88899Y8961D01*
X89055Y9744D01*
X88899Y10527D01*
X88455Y11192D01*
X88283Y11307D01*
Y13815D01*
X88745Y14007D01*
X89205Y13546D01*
X89628Y13263D01*
X90127Y13164D01*
X90195D01*
Y12795D01*
X90317Y12181D01*
X90666Y11660D01*
X91186Y11312D01*
X91801Y11190D01*
X93376D01*
X93990Y11312D01*
X94511Y11660D01*
X94859Y12181D01*
X94981Y12795D01*
Y14764D01*
X94859Y15378D01*
X94511Y15899D01*
X94073Y16192D01*
X94036Y16553D01*
X94064Y16742D01*
X94413Y16975D01*
X94761Y17496D01*
X94883Y18110D01*
Y18933D01*
X95109Y19126D01*
X95609Y18896D01*
Y18110D01*
X95731Y17496D01*
X96079Y16975D01*
X96517Y16682D01*
X96554Y16321D01*
X96526Y16132D01*
X96177Y15899D01*
X95829Y15378D01*
X95707Y14764D01*
Y12795D01*
X95829Y12181D01*
X96177Y11660D01*
X96698Y11312D01*
X97313Y11190D01*
X98887D01*
X99502Y11312D01*
X100023Y11660D01*
X100371Y12181D01*
X100493Y12795D01*
Y13998D01*
X101509Y15015D01*
X101678Y14981D01*
X102462Y15137D01*
X103126Y15581D01*
X103570Y16245D01*
X103623Y16513D01*
X103634Y16529D01*
X103733Y17028D01*
X103634Y17528D01*
X103623Y17544D01*
X103570Y17812D01*
X103126Y18476D01*
X102462Y18920D01*
X101678Y19076D01*
X100895Y18920D01*
X100836Y18880D01*
X100395Y19116D01*
Y19643D01*
X102433Y21681D01*
X102716Y22104D01*
X102815Y22603D01*
Y25603D01*
X103073Y25988D01*
X103228Y26772D01*
X103073Y27555D01*
X102629Y28219D01*
X101964Y28663D01*
X101181Y28819D01*
X100398Y28663D01*
X100058Y28436D01*
X99623Y28657D01*
X99578Y29128D01*
X101411Y30960D01*
X101580Y30927D01*
X102363Y31083D01*
X103027Y31526D01*
X103471Y32191D01*
X103627Y32974D01*
X103545Y33384D01*
X103647Y33486D01*
X104430Y33642D01*
X105094Y34086D01*
X105284Y34370D01*
X105645Y34611D01*
X105928Y35034D01*
X106027Y35533D01*
X105928Y36033D01*
X105645Y36456D01*
X105284Y36697D01*
X105094Y36981D01*
X104430Y37425D01*
X103647Y37580D01*
X103515Y38064D01*
X103373Y38777D01*
X102929Y39442D01*
X102786Y39537D01*
Y54621D01*
X102687Y55120D01*
X102404Y55544D01*
X101867Y56080D01*
X102075Y56580D01*
X104000D01*
Y60532D01*
X105000D01*
Y56580D01*
D02*
G37*
G36*
X109134Y76962D02*
X109336Y76827D01*
Y76327D01*
X109051Y76136D01*
X108574Y75423D01*
X108407Y74582D01*
Y73925D01*
X112205D01*
Y72925D01*
X108407D01*
Y72269D01*
X108574Y71427D01*
X109051Y70714D01*
X109527Y70395D01*
X109549Y69809D01*
X109444Y69739D01*
X108968Y69025D01*
X108800Y68184D01*
Y67528D01*
X112401D01*
Y66528D01*
X108800D01*
Y65871D01*
X108968Y65030D01*
X109292Y64544D01*
X109192Y64036D01*
X108804Y63848D01*
X108139Y64293D01*
X107182Y64483D01*
X107138D01*
X106914Y64756D01*
X103122D01*
Y65756D01*
X106855D01*
X106755Y66262D01*
X106444Y66727D01*
X106555Y66892D01*
X106650Y67372D01*
Y68258D01*
X106555Y68738D01*
X106316Y69095D01*
X106555Y69451D01*
X106650Y69931D01*
Y70817D01*
X106555Y71297D01*
X106316Y71654D01*
X106555Y72010D01*
X106650Y72490D01*
Y73376D01*
X106555Y73856D01*
X106316Y74213D01*
X106555Y74569D01*
X106650Y75049D01*
Y75935D01*
X107083Y76323D01*
X107745Y76455D01*
X108556Y76997D01*
X108577Y77029D01*
X109000D01*
X109134Y76962D01*
D02*
G37*
G36*
X61345Y73487D02*
X61474Y73401D01*
X61497Y73281D01*
X61802Y72825D01*
X62258Y72521D01*
X62795Y72414D01*
X64520D01*
X64553Y71914D01*
X64280Y71878D01*
X63462Y71539D01*
X62760Y71000D01*
X62221Y70298D01*
X61882Y69480D01*
X61832Y69102D01*
X65158D01*
Y68102D01*
X61832D01*
X61876Y67769D01*
X61851Y67615D01*
X61620Y67269D01*
X60709D01*
X60126Y67154D01*
X59633Y66824D01*
X59420Y66505D01*
X58892Y66463D01*
X58846Y66478D01*
X58718Y66671D01*
X58294Y66953D01*
X57795Y67053D01*
X56417D01*
X56386Y67046D01*
X52840Y70592D01*
X52293Y71726D01*
X52621Y72197D01*
X53339D01*
Y74409D01*
X53839D01*
Y74909D01*
X56937D01*
Y75000D01*
X56902Y75173D01*
X57219Y75560D01*
X57418D01*
X57418Y75560D01*
X58032Y75682D01*
X58553Y76030D01*
X58802D01*
X61345Y73487D01*
D02*
G37*
G36*
X108152Y86394D02*
X108523Y85893D01*
X108402Y85285D01*
Y84069D01*
X107961Y83833D01*
X107745Y83978D01*
X106788Y84168D01*
X104803D01*
Y80216D01*
X104303D01*
Y79716D01*
X99318D01*
Y78765D01*
X99468Y78011D01*
X99418Y77890D01*
X99184Y77564D01*
X99109Y77506D01*
X98491Y77384D01*
X97827Y76940D01*
X97523Y76486D01*
X96931Y76371D01*
X92556Y80745D01*
X92133Y81028D01*
X91634Y81127D01*
X89991D01*
Y81299D01*
X89869Y81914D01*
X89521Y82435D01*
X89000Y82783D01*
X88386Y82905D01*
X86811D01*
X86197Y82783D01*
X85676Y82435D01*
X85328Y81914D01*
X85205Y81299D01*
Y79445D01*
X85093Y79309D01*
X84923D01*
X84480Y79763D01*
Y81299D01*
X84357Y81914D01*
X84009Y82435D01*
X83489Y82783D01*
X82874Y82905D01*
X81299D01*
X80685Y82783D01*
X80164Y82435D01*
X79816Y81914D01*
X79694Y81299D01*
Y80365D01*
X78841Y79513D01*
X78423Y79233D01*
X78251Y79061D01*
X77968Y78638D01*
X77869Y78139D01*
Y77556D01*
X76898Y76586D01*
X76731Y76474D01*
X73627Y73370D01*
X73344Y72947D01*
X73245Y72448D01*
Y71673D01*
X72745Y71426D01*
X72455Y71649D01*
X71688Y71966D01*
X70866Y72074D01*
X70044Y71966D01*
X69278Y71649D01*
X68620Y71144D01*
X68348Y70789D01*
X67718Y70789D01*
X67555Y71000D01*
X66853Y71539D01*
X66035Y71878D01*
X65751Y71915D01*
X65748Y72414D01*
X66286Y72521D01*
X66742Y72825D01*
X67046Y73281D01*
X67153Y73819D01*
Y75000D01*
X67046Y75538D01*
X66742Y75993D01*
X66932Y76468D01*
X67246Y76938D01*
X67370Y77559D01*
Y77650D01*
X64272D01*
Y78650D01*
X67370D01*
Y78740D01*
X67246Y79361D01*
X67065Y79632D01*
X67365Y80082D01*
X67913Y79973D01*
X68306Y80051D01*
X68721Y79969D01*
X68721Y79969D01*
X69724D01*
X69979Y79706D01*
X69922Y79136D01*
X69790Y79048D01*
X69461Y78555D01*
X69345Y77973D01*
Y77784D01*
X73372D01*
Y77973D01*
X73256Y78555D01*
X72926Y79048D01*
X72608Y79261D01*
X72566Y79789D01*
X72580Y79835D01*
X72773Y79963D01*
X73056Y80387D01*
X73155Y80886D01*
Y82264D01*
X73056Y82763D01*
X72773Y83186D01*
X72350Y83469D01*
X71850Y83568D01*
X70866D01*
X70367Y83469D01*
X70133Y83312D01*
X69616Y84085D01*
X68835Y84607D01*
X67913Y84790D01*
X66992Y84607D01*
X66210Y84085D01*
X66038Y83828D01*
X65748Y83885D01*
X62795D01*
X62258Y83778D01*
X61834Y83495D01*
X60728D01*
X60728Y83495D01*
X60114Y83373D01*
X59593Y83025D01*
X59593Y83025D01*
X57329Y80761D01*
X56981Y80240D01*
X56859Y79626D01*
X56859Y79626D01*
Y78877D01*
X56753Y78771D01*
X53665D01*
X53378Y79180D01*
X53635Y79894D01*
X55315D01*
X55853Y80001D01*
X56308Y80306D01*
X56613Y80762D01*
X56720Y81299D01*
Y82480D01*
X56613Y83018D01*
X56308Y83474D01*
X55853Y83778D01*
X55583Y83832D01*
X55234Y84340D01*
X56004Y86480D01*
X108152Y86394D01*
D02*
G37*
G36*
X96715Y66892D02*
X96797Y66838D01*
X96818Y66681D01*
X96725Y66285D01*
X96193Y66065D01*
X95617Y65623D01*
X95188Y65063D01*
X94917Y65020D01*
X94911D01*
X94641Y65063D01*
X94211Y65623D01*
X93636Y66065D01*
X92965Y66342D01*
X92246Y66437D01*
X91526Y66342D01*
X90856Y66065D01*
X90280Y65623D01*
X89838Y65047D01*
X89561Y64377D01*
X89466Y63657D01*
X89561Y62938D01*
X89838Y62268D01*
X90280Y61692D01*
X90400Y61600D01*
X90419Y61529D01*
X90348Y61010D01*
X90006Y60781D01*
X89658Y60260D01*
X89536Y59646D01*
Y57677D01*
X89658Y57063D01*
X90006Y56542D01*
X90354Y56310D01*
X90426Y55799D01*
X90406Y55719D01*
X90280Y55623D01*
X89838Y55047D01*
X89561Y54377D01*
X89466Y53657D01*
X89561Y52938D01*
X89838Y52268D01*
X90280Y51692D01*
X90468Y51548D01*
X90343Y51013D01*
X90232Y50991D01*
X89711Y50643D01*
X89363Y50122D01*
X89241Y49508D01*
Y47976D01*
X86971Y45706D01*
X86509Y45897D01*
Y58699D01*
X87965Y63346D01*
X86509Y63378D01*
Y66368D01*
X86509Y66368D01*
X86492Y66452D01*
X86665Y66693D01*
X86913Y66898D01*
X88386D01*
X89000Y67020D01*
X89521Y67369D01*
X89869Y67889D01*
X89928Y68184D01*
X95424D01*
X96715Y66892D01*
D02*
G37*
%LPC*%
G36*
X61114Y54835D02*
X59601D01*
Y54646D01*
X59716Y54063D01*
X60046Y53570D01*
X60540Y53240D01*
X61114Y53126D01*
Y54835D01*
D02*
G37*
G36*
X63628D02*
X62114D01*
Y53126D01*
X62688Y53240D01*
X63182Y53570D01*
X63512Y54063D01*
X63628Y54646D01*
Y54835D01*
D02*
G37*
G36*
X38583Y44235D02*
X37738Y44067D01*
X37022Y43589D01*
X36543Y42872D01*
X36375Y42028D01*
X36543Y41183D01*
X37022Y40466D01*
X37738Y39988D01*
X38583Y39820D01*
X39428Y39988D01*
X40144Y40466D01*
X40622Y41183D01*
X40790Y42028D01*
X40622Y42872D01*
X40144Y43589D01*
X39428Y44067D01*
X38583Y44235D01*
D02*
G37*
G36*
X19315Y30898D02*
X17606D01*
Y29384D01*
X17795D01*
X18377Y29500D01*
X18871Y29830D01*
X19201Y30323D01*
X19315Y30898D01*
D02*
G37*
G36*
X109441Y14514D02*
X107480D01*
X106577Y14395D01*
X105735Y14047D01*
X105012Y13492D01*
X104457Y12769D01*
X104109Y11927D01*
X103990Y11024D01*
Y8079D01*
X109441D01*
Y14514D01*
D02*
G37*
G36*
X9465Y26469D02*
X7390D01*
Y24197D01*
X9465D01*
Y26469D01*
D02*
G37*
G36*
X6390Y29740D02*
X4315D01*
Y27468D01*
X6390D01*
Y29740D01*
D02*
G37*
G36*
X9465D02*
X7390D01*
Y27468D01*
X9465D01*
Y29740D01*
D02*
G37*
G36*
X6390Y26469D02*
X4315D01*
Y24197D01*
X6390D01*
Y26469D01*
D02*
G37*
G36*
X17795Y33411D02*
X17606D01*
Y31898D01*
X19315D01*
X19201Y32472D01*
X18871Y32965D01*
X18377Y33295D01*
X17795Y33411D01*
D02*
G37*
G36*
X56937Y73909D02*
X54339D01*
Y72197D01*
X55315D01*
X55936Y72321D01*
X56462Y72672D01*
X56813Y73198D01*
X56937Y73819D01*
Y73909D01*
D02*
G37*
G36*
X70858Y76784D02*
X69345D01*
Y76595D01*
X69461Y76012D01*
X69790Y75519D01*
X70284Y75189D01*
X70858Y75075D01*
Y76784D01*
D02*
G37*
G36*
X73372D02*
X71858D01*
Y75075D01*
X72433Y75189D01*
X72926Y75519D01*
X73256Y76012D01*
X73372Y76595D01*
Y76784D01*
D02*
G37*
G36*
X103803Y84168D02*
X101818D01*
X100861Y83978D01*
X100050Y83436D01*
X99508Y82625D01*
X99318Y81668D01*
Y80717D01*
X103803D01*
Y84168D01*
D02*
G37*
%LPD*%
D10*
X12815Y31398D02*
D03*
X17106D02*
D03*
X57106Y65256D02*
D03*
X61398D02*
D03*
X47264Y63484D02*
D03*
X51555D02*
D03*
D11*
X6890Y26969D02*
D03*
X12402D02*
D03*
D12*
X61614Y55335D02*
D03*
Y59626D02*
D03*
X71358Y81575D02*
D03*
Y77284D02*
D03*
D17*
X5906Y33848D02*
D03*
Y43848D02*
D03*
Y53848D02*
D03*
D18*
X87598Y73966D02*
D03*
X82087D02*
D03*
X87598Y80315D02*
D03*
X82087D02*
D03*
X87598Y69488D02*
D03*
X82087D02*
D03*
X98100Y13780D02*
D03*
X92588D02*
D03*
X98002Y19094D02*
D03*
X92490D02*
D03*
X97116Y28425D02*
D03*
X91604D02*
D03*
X97116Y38642D02*
D03*
X91604D02*
D03*
X91634Y48524D02*
D03*
X97146D02*
D03*
X97441Y58661D02*
D03*
X91929D02*
D03*
D31*
X58268Y18994D02*
X58467Y18794D01*
X22654Y31187D02*
X23160Y31693D01*
X12894Y44097D02*
X21064D01*
X43579Y46358D02*
X55494D01*
X43286Y46065D02*
X43579Y46358D01*
X55494D02*
X56576Y45276D01*
X31297Y46065D02*
X43286D01*
X28051Y49311D02*
X31297Y46065D01*
X20079Y62598D02*
X30315Y52362D01*
X30512D01*
X44048Y59350D02*
X44783D01*
X37060Y52362D02*
X44048Y59350D01*
X30512Y52362D02*
X37060D01*
X90127Y14469D02*
X92588D01*
X92134Y18209D02*
X94261Y20336D01*
X52660Y48624D02*
X55807Y51772D01*
X80106Y75443D02*
X82087D01*
X58778Y45276D02*
X59130Y45628D01*
X56576Y45276D02*
X58778D01*
X55854Y4981D02*
X79685D01*
X47008Y13827D02*
Y22874D01*
Y13827D02*
X55854Y4981D01*
X79685D02*
X80315Y5610D01*
X73822Y20614D02*
X80319Y27110D01*
X73822Y9843D02*
Y20614D01*
X86978Y22278D02*
Y43868D01*
X78443Y73779D02*
X80106Y75443D01*
X78405Y73779D02*
X78443D01*
X76321Y71695D02*
X78405Y73779D01*
X79173Y77016D02*
Y78139D01*
X77709Y75551D02*
X79173Y77016D01*
X77653Y75551D02*
X77709D01*
X74550Y72448D02*
X77653Y75551D01*
X76321Y66547D02*
Y71695D01*
X74550Y67281D02*
Y72448D01*
X79173Y78139D02*
X79346Y78311D01*
X42226Y48624D02*
X52660D01*
X43309Y43408D02*
Y43506D01*
X43307Y43406D02*
X43309Y43408D01*
X47047Y30020D02*
Y39665D01*
X43307Y43406D02*
X47047Y39665D01*
X45374Y59252D02*
X47264Y61142D01*
Y63484D01*
X101481Y37994D02*
Y54621D01*
X103647Y35533D02*
X104722D01*
X103607Y35494D02*
X103647Y35533D01*
X97116Y28510D02*
X101580Y32974D01*
X100446Y35494D02*
X103607D01*
X97441Y58661D02*
X101481Y54621D01*
X97116Y28425D02*
Y28510D01*
X98002Y19094D02*
X101511Y22603D01*
X101181Y26772D02*
X101511Y26442D01*
Y22603D02*
Y26442D01*
X98429Y13780D02*
X101678Y17028D01*
X98100Y13780D02*
X98429D01*
X86978Y9774D02*
Y22278D01*
Y9774D02*
X87008Y9744D01*
X88750Y15846D02*
Y23012D01*
Y15846D02*
X90127Y14469D01*
X80319Y27110D02*
Y43952D01*
X78643Y45628D02*
X80319Y43952D01*
X59130Y45628D02*
X78643D01*
X62267Y74410D02*
X64272D01*
X58465Y78212D02*
X62267Y74410D01*
X80949Y79823D02*
X82087D01*
X87008Y9744D02*
X87279D01*
X87504Y9969D01*
X98745Y69980D02*
X103122D01*
X87598Y79823D02*
X91634D01*
X44027Y27688D02*
X44715D01*
X47047Y30020D01*
X79346Y78311D02*
X79484D01*
X80949Y79776D01*
X87598Y69488D02*
X95965D01*
X97638Y67815D01*
X86978Y43868D02*
X91634Y48524D01*
X40563Y31693D02*
X43320Y34451D01*
X23160Y31693D02*
X40563D01*
X43320Y34451D02*
X43604D01*
X14144Y41811D02*
X23743D01*
X27363Y38191D01*
X16142Y48426D02*
Y48428D01*
X14313Y46597D02*
X16142Y48426D01*
X11859Y46597D02*
X14313D01*
X10394Y45132D02*
X11859Y46597D01*
X5906Y43848D02*
X10394D01*
X13183Y41597D02*
X13930D01*
X5906Y34319D02*
X13183Y41597D01*
X13930D02*
X14144Y41811D01*
X5906Y33848D02*
Y34319D01*
X22654Y31187D02*
X22654D01*
X22048Y31793D02*
X22654Y31187D01*
X80949Y79776D02*
Y79823D01*
X94261Y20336D02*
Y20510D01*
X97409Y23658D01*
X97583D01*
X88750Y31476D02*
X90931Y33658D01*
X92246D01*
X97192D02*
X97583D01*
X91604Y28425D02*
X91960D01*
X97192Y33658D01*
X96620Y43657D02*
X97583D01*
X95494Y42532D02*
X96620Y43657D01*
X95494Y42176D02*
Y42532D01*
X91960Y38642D02*
X95494Y42176D01*
X91604Y38642D02*
X91960D01*
X109941Y7579D02*
X111221Y8858D01*
X97583Y48961D02*
Y53657D01*
X91604Y18209D02*
X92134D01*
X97116D02*
X98002Y19094D01*
X92246Y53657D02*
Y58345D01*
X91929Y58661D02*
X92246Y58345D01*
X58268Y18994D02*
X58369Y19095D01*
X88750Y23012D02*
X88750Y23012D01*
X88750Y23012D02*
Y31476D01*
X86978Y22278D02*
X86978Y22278D01*
X101678Y17028D02*
X102428D01*
X45868Y24013D02*
Y24706D01*
Y24013D02*
X47008Y22874D01*
X97116Y38642D02*
X97298D01*
X97501Y38438D01*
X99034Y36906D01*
X100446Y35494D01*
X68701Y64862D02*
X72130D01*
X74550Y67281D01*
X70476Y62011D02*
X71785D01*
X76321Y66547D01*
X96774Y74457D02*
X98298Y72933D01*
X103122D01*
X96774Y74457D02*
Y74682D01*
X91634Y79823D02*
X96774Y74682D01*
X87598Y75443D02*
X87785Y75630D01*
X93095D01*
X98745Y69980D01*
X97638Y67815D02*
X103122D01*
X97146Y48524D02*
X97583Y48961D01*
X18701Y63976D02*
X20079Y62598D01*
X18701Y63976D02*
Y79331D01*
X10394Y43848D02*
Y45132D01*
D32*
X61398Y59842D02*
X61614Y59626D01*
X61398Y59842D02*
Y65256D01*
X65158Y69784D02*
X68110Y72736D01*
X65158Y68602D02*
Y69784D01*
X85305Y16899D02*
Y66368D01*
X84842Y66831D02*
X85305Y66368D01*
X83268Y64862D02*
Y68307D01*
X83730Y21418D02*
Y64400D01*
X83268Y64862D02*
X83730Y64400D01*
X82087Y69488D02*
X83268Y68307D01*
X61811Y65256D02*
X65158Y68602D01*
X61398Y65256D02*
X61811D01*
X81240Y18928D02*
X83730Y21418D01*
X79039Y12107D02*
X80512D01*
X85305Y16899D01*
X84842Y66831D02*
Y69557D01*
Y69615D02*
Y76961D01*
D33*
X16132Y53848D02*
X25492Y44488D01*
X5906Y53848D02*
X16132D01*
D34*
X108587Y54535D02*
Y55527D01*
X112205Y73425D02*
Y81988D01*
Y66831D02*
Y73425D01*
X110433Y80216D02*
X112205Y81988D01*
X50591Y43996D02*
X50674D01*
X51896Y42774D01*
X12402Y26969D02*
Y36220D01*
X51896Y42774D02*
X77461D01*
X67913Y82382D02*
X68721Y81575D01*
X71358D01*
X55905Y65256D02*
X57106D01*
X46654Y74508D02*
X55905Y65256D01*
X57418Y77165D02*
X58465Y78212D01*
X48808Y74508D02*
X51465Y77165D01*
X46654Y74508D02*
X48808D01*
X51465Y77165D02*
X57418D01*
X67421Y81890D02*
X67913Y82382D01*
X64272Y81890D02*
X67421D01*
X104303Y80216D02*
X110433D01*
X104500Y60532D02*
X110433D01*
X112205Y58760D01*
X103122Y65256D02*
X110630D01*
X112205Y66831D01*
X112402Y67028D01*
X112205Y58760D02*
Y66831D01*
X60728Y81890D02*
X64272D01*
X58465Y79626D02*
X60728Y81890D01*
X58465Y78212D02*
Y79626D01*
X12319Y21547D02*
Y26886D01*
X12402Y26969D01*
X111820Y58760D02*
X112205D01*
X108587Y55527D02*
X111820Y58760D01*
D35*
X57519Y6851D02*
X67021D01*
X69196Y9026D01*
X9252Y64435D02*
X35892Y37795D01*
X9252Y64435D02*
Y79528D01*
X10237Y18505D02*
X12319Y20587D01*
X9763Y18032D02*
X10237Y18505D01*
X49508Y14862D02*
X57519Y6851D01*
X69196Y9026D02*
Y10138D01*
X55807Y59252D02*
X57106Y60551D01*
Y65256D01*
X35892Y37795D02*
X44390D01*
X52658Y83071D02*
X53839Y81890D01*
X47441Y83071D02*
X52658D01*
X49508Y42322D02*
X50593Y43408D01*
X49508Y14862D02*
Y42322D01*
X12319Y20587D02*
Y21547D01*
D36*
X65850Y9449D02*
X66440Y8859D01*
D37*
X65158Y68602D02*
D03*
X70866Y68898D02*
D03*
D38*
X97583Y43657D02*
D03*
Y53657D02*
D03*
Y33658D02*
D03*
Y63657D02*
D03*
Y23658D02*
D03*
X92246D02*
D03*
Y33658D02*
D03*
Y43657D02*
D03*
Y53657D02*
D03*
Y63657D02*
D03*
X13288Y37108D02*
D03*
D39*
X38583Y42028D02*
D03*
X58268Y48524D02*
D03*
X10237Y18505D02*
D03*
X27363Y38191D02*
D03*
X16142Y48428D02*
D03*
D40*
X9252Y79528D02*
D03*
X9941Y12697D02*
D03*
X3248Y5512D02*
D03*
X80315Y5610D02*
D03*
X65850Y9449D02*
D03*
X101481Y37994D02*
D03*
X103647Y35533D02*
D03*
X101580Y32974D02*
D03*
X73822Y9843D02*
D03*
X81240Y18928D02*
D03*
X79039Y12107D02*
D03*
X87008Y9744D02*
D03*
X44027Y27688D02*
D03*
X101476Y78839D02*
D03*
X84646Y3839D02*
D03*
X25295Y34547D02*
D03*
X28051Y49311D02*
D03*
X30512Y52362D02*
D03*
X43604Y34451D02*
D03*
X44390Y37795D02*
D03*
X12894Y44097D02*
D03*
X21064Y44392D02*
D03*
X22048Y31793D02*
D03*
X84842Y76961D02*
D03*
X92323Y3051D02*
D03*
X102264D02*
D03*
X113681Y3150D02*
D03*
X113091Y55709D02*
D03*
X111417Y85039D02*
D03*
X58369Y19095D02*
D03*
X18701Y79331D02*
D03*
X49508Y14862D02*
D03*
X101181Y26772D02*
D03*
X101678Y17028D02*
D03*
X110728Y44685D02*
D03*
X45868Y24706D02*
D03*
X17815Y23130D02*
D03*
X32579Y14075D02*
D03*
X33071Y23425D02*
D03*
X27461Y17126D02*
D03*
X41043Y7972D02*
D03*
X19882Y18406D02*
D03*
X42618Y19291D02*
D03*
X49409Y4134D02*
D03*
X112598Y11024D02*
D03*
X113779Y17421D02*
D03*
X113583Y23327D02*
D03*
X72244Y35236D02*
D03*
X57087Y34449D02*
D03*
X70866Y21457D02*
D03*
X111622Y80209D02*
D03*
X29429Y34646D02*
D03*
X20079Y62598D02*
D03*
X68701Y64862D02*
D03*
X58467Y9843D02*
D03*
X70476Y62011D02*
D03*
X99274Y75492D02*
D03*
X97047Y3150D02*
D03*
D41*
X2756Y58661D02*
D03*
X39567Y73130D02*
D03*
X37795Y56791D02*
D03*
X68110Y72736D02*
D03*
X71949Y85433D02*
D03*
X113583Y41240D02*
D03*
X108882Y55125D02*
D03*
X2461Y85138D02*
D03*
X34843Y85236D02*
D03*
X22539Y85335D02*
D03*
D42*
X69196Y10138D02*
D03*
X43309Y43506D02*
D03*
X42226Y48624D02*
D03*
D43*
X46654Y74508D02*
D03*
X47441Y83071D02*
D03*
X77461Y42774D02*
D03*
X50593Y43408D02*
D03*
X67913Y82382D02*
D03*
D44*
X44783Y59350D02*
D03*
Y51870D02*
D03*
X55216D02*
D03*
Y55610D02*
D03*
Y59350D02*
D03*
D45*
X109941Y7579D02*
D03*
D46*
X110728Y47933D02*
D03*
D47*
X103122Y70374D02*
D03*
Y72933D02*
D03*
Y67815D02*
D03*
Y65256D02*
D03*
Y75492D02*
D03*
D48*
X104500Y60532D02*
D03*
D49*
X104303Y80216D02*
D03*
D50*
X112402Y67028D02*
D03*
D51*
X112205Y73425D02*
D03*
D52*
Y81988D02*
D03*
Y58760D02*
D03*
D53*
X53839Y81890D02*
D03*
Y74410D02*
D03*
X64272D02*
D03*
Y78150D02*
D03*
Y81890D02*
D03*
D54*
X55236Y55728D02*
X55610Y56102D01*
X39370Y66339D02*
X49409D01*
X51555Y64193D01*
Y63484D02*
Y64193D01*
M02*
