G04 Layer_Color=16711935*
%FSLAX25Y25*%
%MOIN*%
G70*
G01*
G75*
G04:AMPARAMS|DCode=37|XSize=39.37mil|YSize=35.43mil|CornerRadius=9.84mil|HoleSize=0mil|Usage=FLASHONLY|Rotation=270.000|XOffset=0mil|YOffset=0mil|HoleType=Round|Shape=RoundedRectangle|*
%AMROUNDEDRECTD37*
21,1,0.03937,0.01575,0,0,270.0*
21,1,0.01969,0.03543,0,0,270.0*
1,1,0.01969,-0.00787,-0.00984*
1,1,0.01969,-0.00787,0.00984*
1,1,0.01969,0.00787,0.00984*
1,1,0.01969,0.00787,-0.00984*
%
%ADD37ROUNDEDRECTD37*%
G04:AMPARAMS|DCode=42|XSize=82.68mil|YSize=82.68mil|CornerRadius=21.65mil|HoleSize=0mil|Usage=FLASHONLY|Rotation=180.000|XOffset=0mil|YOffset=0mil|HoleType=Round|Shape=RoundedRectangle|*
%AMROUNDEDRECTD42*
21,1,0.08268,0.03937,0,0,180.0*
21,1,0.03937,0.08268,0,0,180.0*
1,1,0.04331,-0.01969,0.01969*
1,1,0.04331,0.01969,0.01969*
1,1,0.04331,0.01969,-0.01969*
1,1,0.04331,-0.01969,-0.01969*
%
%ADD42ROUNDEDRECTD42*%
%ADD43C,0.08268*%
%ADD44C,0.06299*%
G04:AMPARAMS|DCode=45|XSize=62.99mil|YSize=62.99mil|CornerRadius=16.73mil|HoleSize=0mil|Usage=FLASHONLY|Rotation=0.000|XOffset=0mil|YOffset=0mil|HoleType=Round|Shape=RoundedRectangle|*
%AMROUNDEDRECTD45*
21,1,0.06299,0.02953,0,0,0.0*
21,1,0.02953,0.06299,0,0,0.0*
1,1,0.03347,0.01476,-0.01476*
1,1,0.03347,-0.01476,-0.01476*
1,1,0.03347,-0.01476,0.01476*
1,1,0.03347,0.01476,0.01476*
%
%ADD45ROUNDEDRECTD45*%
G04:AMPARAMS|DCode=46|XSize=43.31mil|YSize=25.59mil|CornerRadius=7.38mil|HoleSize=0mil|Usage=FLASHONLY|Rotation=180.000|XOffset=0mil|YOffset=0mil|HoleType=Round|Shape=RoundedRectangle|*
%AMROUNDEDRECTD46*
21,1,0.04331,0.01083,0,0,180.0*
21,1,0.02854,0.02559,0,0,180.0*
1,1,0.01476,-0.01427,0.00541*
1,1,0.01476,0.01427,0.00541*
1,1,0.01476,0.01427,-0.00541*
1,1,0.01476,-0.01427,-0.00541*
%
%ADD46ROUNDEDRECTD46*%
G04:AMPARAMS|DCode=47|XSize=27.56mil|YSize=49.21mil|CornerRadius=7.87mil|HoleSize=0mil|Usage=FLASHONLY|Rotation=270.000|XOffset=0mil|YOffset=0mil|HoleType=Round|Shape=RoundedRectangle|*
%AMROUNDEDRECTD47*
21,1,0.02756,0.03347,0,0,270.0*
21,1,0.01181,0.04921,0,0,270.0*
1,1,0.01575,-0.01673,-0.00591*
1,1,0.01575,-0.01673,0.00591*
1,1,0.01575,0.01673,0.00591*
1,1,0.01575,0.01673,-0.00591*
%
%ADD47ROUNDEDRECTD47*%
G04:AMPARAMS|DCode=48|XSize=135.83mil|YSize=62.99mil|CornerRadius=16.73mil|HoleSize=0mil|Usage=FLASHONLY|Rotation=270.000|XOffset=0mil|YOffset=0mil|HoleType=Round|Shape=RoundedRectangle|*
%AMROUNDEDRECTD48*
21,1,0.13583,0.02953,0,0,270.0*
21,1,0.10236,0.06299,0,0,270.0*
1,1,0.03347,-0.01476,-0.05118*
1,1,0.03347,-0.01476,0.05118*
1,1,0.03347,0.01476,0.05118*
1,1,0.03347,0.01476,-0.05118*
%
%ADD48ROUNDEDRECTD48*%
D37*
X12008Y-11319D02*
D03*
X6496D02*
D03*
X20079Y-17815D02*
D03*
X25591D02*
D03*
D42*
X24902Y18209D02*
D03*
D43*
X14902D02*
D03*
X22237Y-30841D02*
D03*
X-22434Y30644D02*
D03*
D44*
X9902Y4921D02*
D03*
Y-5079D02*
D03*
X-98Y4921D02*
D03*
Y-5079D02*
D03*
X-10098Y4921D02*
D03*
D45*
Y-5079D02*
D03*
D46*
X16339Y5512D02*
D03*
Y-1378D02*
D03*
X28150D02*
D03*
Y5512D02*
D03*
D47*
X25492Y-9449D02*
D03*
X16634Y-5709D02*
D03*
Y-13189D02*
D03*
D48*
X-26359Y18406D02*
D03*
X-3759D02*
D03*
M02*
