M48
;Layer_Color=9474304
;FILE_FORMAT=2:5
INCH,LZ
;TYPE=PLATED
T1F00S00C0.01181
T2F00S00C0.03543
T3F00S00C0.03740
%
T01
X-0022736Y-0033465
X-0024114Y-0029331
X-0024016Y-0024902
X-0023917Y-0021063
X-0010335Y-0021358
X-0004429Y-002195
X-0000984Y-0013091
X0015945Y-0016732
X0014567Y-0022835
X0018602Y-0023622
X002313
X002815Y-0023917
X0032185Y-0024114
X0028839Y-0028248
X0029724Y-0015945
X003248Y-0012697
Y-0006398
X0032874Y0001772
X002815Y0001181
X0032874Y0010827
X001939Y-0007972
X0009744Y-002628
X-0003051Y-0035728
X-000315Y-0040256
X-0009843Y-0039075
X-0013976Y-0037795
X-0018898Y-0035827
X-0020177Y-0003937
X-0026575Y-000128
Y-0008858
X-0006103Y0017619
X0001558Y0016634
X0005118Y0027067
T02
X-0010098Y-0005079
X-0000098
X0009902
Y0004921
X-0000098
X-0010098
X0014902Y0018209
X0024902
T03
X0022237Y-0030841
X-0022434Y0030644
M30
