G04 Layer_Color=65535*
%FSLAX25Y25*%
%MOIN*%
G70*
G01*
G75*
%ADD28C,0.01000*%
%ADD29C,0.00984*%
%ADD30C,0.00394*%
%ADD31C,0.00787*%
%ADD32C,0.00591*%
%ADD33C,0.00800*%
G36*
X-36024Y11066D02*
X-39023D01*
X-39015Y11057D01*
X-38994Y11037D01*
X-38965Y10999D01*
X-38923Y10945D01*
X-38873Y10883D01*
X-38819Y10804D01*
X-38761Y10716D01*
X-38699Y10616D01*
Y10612D01*
X-38690Y10604D01*
X-38682Y10592D01*
X-38673Y10571D01*
X-38657Y10546D01*
X-38644Y10517D01*
X-38607Y10450D01*
X-38570Y10375D01*
X-38528Y10292D01*
X-38491Y10205D01*
X-38457Y10121D01*
X-38911D01*
X-38915Y10126D01*
X-38919Y10138D01*
X-38932Y10159D01*
X-38944Y10188D01*
X-38961Y10221D01*
X-38985Y10263D01*
X-39011Y10309D01*
X-39035Y10354D01*
X-39102Y10463D01*
X-39181Y10579D01*
X-39264Y10700D01*
X-39360Y10812D01*
X-39364Y10816D01*
X-39372Y10825D01*
X-39385Y10841D01*
X-39406Y10862D01*
X-39431Y10883D01*
X-39456Y10912D01*
X-39526Y10974D01*
X-39601Y11045D01*
X-39689Y11116D01*
X-39780Y11178D01*
X-39876Y11232D01*
Y11536D01*
X-36024D01*
Y11066D01*
D02*
G37*
G36*
X-37105Y9290D02*
X-37072D01*
X-37026Y9281D01*
X-36976Y9273D01*
X-36922Y9264D01*
X-36860Y9248D01*
X-36793Y9227D01*
X-36727Y9202D01*
X-36656Y9173D01*
X-36585Y9136D01*
X-36510Y9094D01*
X-36440Y9044D01*
X-36369Y8990D01*
X-36302Y8923D01*
X-36298Y8919D01*
X-36286Y8907D01*
X-36269Y8886D01*
X-36248Y8857D01*
X-36223Y8824D01*
X-36194Y8778D01*
X-36161Y8728D01*
X-36132Y8670D01*
X-36099Y8607D01*
X-36065Y8536D01*
X-36036Y8462D01*
X-36011Y8378D01*
X-35990Y8291D01*
X-35974Y8200D01*
X-35961Y8104D01*
X-35957Y8000D01*
Y7996D01*
Y7979D01*
X-35961Y7950D01*
Y7917D01*
X-35965Y7871D01*
X-35974Y7821D01*
X-35982Y7767D01*
X-35994Y7705D01*
X-36011Y7638D01*
X-36032Y7571D01*
X-36053Y7501D01*
X-36082Y7430D01*
X-36119Y7359D01*
X-36157Y7293D01*
X-36202Y7222D01*
X-36257Y7160D01*
X-36261Y7155D01*
X-36269Y7147D01*
X-36286Y7130D01*
X-36311Y7106D01*
X-36340Y7080D01*
X-36377Y7051D01*
X-36419Y7022D01*
X-36469Y6989D01*
X-36519Y6956D01*
X-36581Y6922D01*
X-36643Y6889D01*
X-36714Y6860D01*
X-36789Y6835D01*
X-36868Y6810D01*
X-36951Y6793D01*
X-37039Y6781D01*
X-37101Y7251D01*
X-37097D01*
X-37084Y7255D01*
X-37064Y7259D01*
X-37034Y7268D01*
X-37001Y7276D01*
X-36964Y7284D01*
X-36876Y7314D01*
X-36781Y7351D01*
X-36685Y7397D01*
X-36598Y7455D01*
X-36560Y7488D01*
X-36523Y7521D01*
Y7526D01*
X-36514Y7530D01*
X-36506Y7542D01*
X-36494Y7555D01*
X-36469Y7596D01*
X-36435Y7655D01*
X-36402Y7725D01*
X-36377Y7804D01*
X-36356Y7900D01*
X-36348Y8000D01*
Y8004D01*
Y8016D01*
Y8033D01*
X-36352Y8058D01*
X-36356Y8083D01*
X-36361Y8121D01*
X-36377Y8195D01*
X-36402Y8287D01*
X-36444Y8383D01*
X-36473Y8428D01*
X-36502Y8474D01*
X-36535Y8520D01*
X-36577Y8566D01*
X-36581Y8570D01*
X-36589Y8574D01*
X-36602Y8586D01*
X-36619Y8603D01*
X-36639Y8620D01*
X-36668Y8636D01*
X-36698Y8657D01*
X-36735Y8682D01*
X-36818Y8724D01*
X-36914Y8757D01*
X-37026Y8786D01*
X-37084Y8790D01*
X-37147Y8794D01*
X-37180D01*
X-37201Y8790D01*
X-37230Y8786D01*
X-37259Y8782D01*
X-37334Y8770D01*
X-37421Y8740D01*
X-37509Y8703D01*
X-37554Y8678D01*
X-37596Y8649D01*
X-37638Y8616D01*
X-37679Y8578D01*
X-37683Y8574D01*
X-37688Y8570D01*
X-37700Y8557D01*
X-37713Y8541D01*
X-37729Y8520D01*
X-37746Y8495D01*
X-37788Y8433D01*
X-37825Y8354D01*
X-37858Y8262D01*
X-37883Y8158D01*
X-37887Y8100D01*
X-37892Y8042D01*
Y8037D01*
Y8016D01*
X-37887Y7987D01*
Y7950D01*
X-37879Y7900D01*
X-37871Y7846D01*
X-37858Y7779D01*
X-37841Y7709D01*
X-38253Y7759D01*
Y7763D01*
Y7767D01*
X-38249Y7788D01*
X-38245Y7813D01*
Y7838D01*
Y7842D01*
Y7850D01*
Y7867D01*
X-38249Y7888D01*
Y7917D01*
X-38253Y7946D01*
X-38266Y8016D01*
X-38282Y8100D01*
X-38312Y8191D01*
X-38349Y8287D01*
X-38403Y8378D01*
Y8383D01*
X-38412Y8391D01*
X-38420Y8399D01*
X-38432Y8416D01*
X-38470Y8457D01*
X-38524Y8503D01*
X-38590Y8545D01*
X-38673Y8586D01*
X-38719Y8603D01*
X-38773Y8611D01*
X-38827Y8620D01*
X-38886Y8624D01*
X-38911D01*
X-38932Y8620D01*
X-38977Y8616D01*
X-39040Y8603D01*
X-39106Y8582D01*
X-39177Y8549D01*
X-39252Y8503D01*
X-39285Y8478D01*
X-39318Y8445D01*
X-39327Y8437D01*
X-39343Y8412D01*
X-39372Y8374D01*
X-39406Y8324D01*
X-39435Y8258D01*
X-39464Y8179D01*
X-39481Y8091D01*
X-39489Y7992D01*
Y7987D01*
Y7979D01*
Y7967D01*
X-39485Y7946D01*
Y7921D01*
X-39481Y7896D01*
X-39468Y7829D01*
X-39447Y7759D01*
X-39414Y7680D01*
X-39372Y7605D01*
X-39314Y7530D01*
X-39306Y7521D01*
X-39281Y7501D01*
X-39244Y7467D01*
X-39185Y7434D01*
X-39114Y7393D01*
X-39023Y7355D01*
X-38919Y7322D01*
X-38798Y7297D01*
X-38881Y6827D01*
X-38886D01*
X-38902Y6831D01*
X-38927Y6835D01*
X-38961Y6843D01*
X-38998Y6856D01*
X-39044Y6868D01*
X-39094Y6885D01*
X-39148Y6906D01*
X-39268Y6960D01*
X-39327Y6989D01*
X-39389Y7026D01*
X-39447Y7068D01*
X-39505Y7114D01*
X-39564Y7164D01*
X-39614Y7218D01*
X-39618Y7222D01*
X-39626Y7230D01*
X-39639Y7251D01*
X-39655Y7272D01*
X-39676Y7305D01*
X-39697Y7338D01*
X-39722Y7380D01*
X-39747Y7430D01*
X-39768Y7480D01*
X-39793Y7538D01*
X-39813Y7600D01*
X-39834Y7667D01*
X-39851Y7742D01*
X-39863Y7817D01*
X-39872Y7896D01*
X-39876Y7979D01*
Y7983D01*
Y7992D01*
Y8008D01*
Y8033D01*
X-39872Y8062D01*
X-39867Y8091D01*
X-39859Y8170D01*
X-39843Y8258D01*
X-39818Y8358D01*
X-39784Y8457D01*
X-39739Y8557D01*
Y8562D01*
X-39734Y8570D01*
X-39726Y8582D01*
X-39713Y8603D01*
X-39684Y8649D01*
X-39643Y8707D01*
X-39589Y8774D01*
X-39526Y8840D01*
X-39456Y8907D01*
X-39372Y8965D01*
X-39368D01*
X-39364Y8969D01*
X-39347Y8978D01*
X-39331Y8986D01*
X-39310Y8998D01*
X-39285Y9011D01*
X-39223Y9036D01*
X-39148Y9061D01*
X-39065Y9086D01*
X-38973Y9102D01*
X-38877Y9106D01*
X-38836D01*
X-38786Y9098D01*
X-38728Y9090D01*
X-38657Y9073D01*
X-38582Y9048D01*
X-38503Y9015D01*
X-38424Y8969D01*
X-38420D01*
X-38416Y8965D01*
X-38391Y8944D01*
X-38353Y8915D01*
X-38307Y8869D01*
X-38253Y8815D01*
X-38199Y8744D01*
X-38149Y8665D01*
X-38100Y8574D01*
Y8578D01*
X-38095Y8591D01*
X-38091Y8607D01*
X-38083Y8632D01*
X-38074Y8657D01*
X-38062Y8690D01*
X-38029Y8770D01*
X-37983Y8853D01*
X-37929Y8940D01*
X-37858Y9027D01*
X-37771Y9102D01*
X-37767Y9106D01*
X-37758Y9111D01*
X-37746Y9119D01*
X-37725Y9131D01*
X-37704Y9148D01*
X-37675Y9165D01*
X-37642Y9181D01*
X-37600Y9198D01*
X-37559Y9215D01*
X-37513Y9231D01*
X-37409Y9264D01*
X-37288Y9285D01*
X-37222Y9294D01*
X-37134D01*
X-37105Y9290D01*
D02*
G37*
G36*
X-30906Y-3702D02*
X-34121D01*
X-30906Y-4825D01*
Y-5283D01*
X-34175Y-6390D01*
X-30906D01*
Y-6880D01*
X-34745D01*
Y-6119D01*
X-32024Y-5208D01*
X-32020D01*
X-32008Y-5204D01*
X-31987Y-5196D01*
X-31962Y-5187D01*
X-31933Y-5179D01*
X-31896Y-5166D01*
X-31812Y-5137D01*
X-31721Y-5108D01*
X-31625Y-5079D01*
X-31538Y-5050D01*
X-31496Y-5037D01*
X-31459Y-5025D01*
X-31463D01*
X-31467Y-5021D01*
X-31480Y-5017D01*
X-31496Y-5012D01*
X-31521Y-5004D01*
X-31546Y-4996D01*
X-31579Y-4988D01*
X-31613Y-4975D01*
X-31654Y-4963D01*
X-31700Y-4946D01*
X-31750Y-4929D01*
X-31808Y-4913D01*
X-31866Y-4892D01*
X-31933Y-4871D01*
X-32000Y-4846D01*
X-32074Y-4821D01*
X-34745Y-3898D01*
Y-3211D01*
X-30906D01*
Y-3702D01*
D02*
G37*
G36*
X-32382Y-7712D02*
X-32328Y-7717D01*
X-32266Y-7721D01*
X-32195Y-7725D01*
X-32050Y-7741D01*
X-31896Y-7762D01*
X-31746Y-7796D01*
X-31675Y-7816D01*
X-31609Y-7841D01*
X-31604D01*
X-31592Y-7846D01*
X-31575Y-7854D01*
X-31550Y-7866D01*
X-31521Y-7883D01*
X-31488Y-7900D01*
X-31413Y-7949D01*
X-31367Y-7979D01*
X-31326Y-8012D01*
X-31276Y-8054D01*
X-31230Y-8095D01*
X-31184Y-8145D01*
X-31139Y-8195D01*
X-31097Y-8253D01*
X-31055Y-8316D01*
X-31051Y-8320D01*
X-31047Y-8332D01*
X-31034Y-8349D01*
X-31022Y-8378D01*
X-31005Y-8411D01*
X-30989Y-8453D01*
X-30968Y-8499D01*
X-30951Y-8557D01*
X-30931Y-8615D01*
X-30910Y-8682D01*
X-30893Y-8756D01*
X-30876Y-8836D01*
X-30864Y-8923D01*
X-30851Y-9014D01*
X-30847Y-9110D01*
X-30843Y-9210D01*
Y-9214D01*
Y-9235D01*
Y-9264D01*
X-30847Y-9302D01*
Y-9347D01*
X-30851Y-9397D01*
X-30860Y-9460D01*
X-30868Y-9522D01*
X-30889Y-9663D01*
X-30922Y-9813D01*
X-30968Y-9959D01*
X-30993Y-10029D01*
X-31026Y-10096D01*
X-31030Y-10100D01*
X-31034Y-10113D01*
X-31047Y-10129D01*
X-31059Y-10150D01*
X-31080Y-10179D01*
X-31105Y-10212D01*
X-31130Y-10246D01*
X-31163Y-10283D01*
X-31238Y-10366D01*
X-31330Y-10446D01*
X-31438Y-10520D01*
X-31500Y-10554D01*
X-31563Y-10583D01*
X-31567D01*
X-31579Y-10587D01*
X-31600Y-10595D01*
X-31629Y-10604D01*
X-31663Y-10616D01*
X-31708Y-10628D01*
X-31758Y-10641D01*
X-31817Y-10654D01*
X-31883Y-10670D01*
X-31954Y-10683D01*
X-32033Y-10695D01*
X-32120Y-10703D01*
X-32212Y-10716D01*
X-32312Y-10720D01*
X-32416Y-10728D01*
X-34745D01*
Y-10221D01*
X-32445D01*
X-32403Y-10217D01*
X-32357D01*
X-32303Y-10212D01*
X-32249Y-10208D01*
X-32129Y-10200D01*
X-32008Y-10183D01*
X-31891Y-10158D01*
X-31837Y-10146D01*
X-31792Y-10129D01*
X-31787D01*
X-31783Y-10125D01*
X-31771Y-10121D01*
X-31754Y-10113D01*
X-31708Y-10088D01*
X-31659Y-10054D01*
X-31596Y-10013D01*
X-31538Y-9959D01*
X-31480Y-9892D01*
X-31425Y-9813D01*
Y-9809D01*
X-31421Y-9801D01*
X-31413Y-9788D01*
X-31405Y-9772D01*
X-31396Y-9751D01*
X-31388Y-9722D01*
X-31376Y-9692D01*
X-31363Y-9659D01*
X-31342Y-9576D01*
X-31321Y-9480D01*
X-31305Y-9372D01*
X-31301Y-9256D01*
Y-9247D01*
Y-9231D01*
Y-9202D01*
X-31305Y-9164D01*
X-31309Y-9118D01*
X-31313Y-9064D01*
X-31321Y-9006D01*
X-31334Y-8944D01*
X-31363Y-8815D01*
X-31384Y-8748D01*
X-31409Y-8682D01*
X-31438Y-8619D01*
X-31471Y-8561D01*
X-31509Y-8507D01*
X-31554Y-8457D01*
X-31559Y-8453D01*
X-31567Y-8444D01*
X-31584Y-8436D01*
X-31604Y-8420D01*
X-31633Y-8403D01*
X-31671Y-8382D01*
X-31717Y-8357D01*
X-31771Y-8336D01*
X-31833Y-8316D01*
X-31904Y-8291D01*
X-31983Y-8270D01*
X-32070Y-8253D01*
X-32170Y-8236D01*
X-32278Y-8224D01*
X-32399Y-8220D01*
X-32528Y-8216D01*
X-34745D01*
Y-7708D01*
X-32432D01*
X-32382Y-7712D01*
D02*
G37*
G36*
X-36024Y-2255D02*
X-39863D01*
Y524D01*
X-39410D01*
Y-1747D01*
X-38237D01*
Y379D01*
X-37783D01*
Y-1747D01*
X-36477D01*
Y612D01*
X-36024D01*
Y-2255D01*
D02*
G37*
G36*
X-39410Y-5004D02*
X-38220D01*
Y-3203D01*
X-37767D01*
Y-5004D01*
X-36024D01*
Y-5512D01*
X-39863D01*
Y-2924D01*
X-39410D01*
Y-5004D01*
D02*
G37*
G36*
X-37176Y4938D02*
X-37650D01*
Y6390D01*
X-37176D01*
Y4938D01*
D02*
G37*
G36*
X-37500Y4335D02*
X-37446Y4331D01*
X-37384Y4327D01*
X-37313Y4322D01*
X-37168Y4306D01*
X-37014Y4285D01*
X-36864Y4252D01*
X-36793Y4231D01*
X-36727Y4206D01*
X-36722D01*
X-36710Y4202D01*
X-36693Y4194D01*
X-36668Y4181D01*
X-36639Y4164D01*
X-36606Y4148D01*
X-36531Y4098D01*
X-36485Y4069D01*
X-36444Y4035D01*
X-36394Y3994D01*
X-36348Y3952D01*
X-36302Y3902D01*
X-36257Y3852D01*
X-36215Y3794D01*
X-36173Y3732D01*
X-36169Y3728D01*
X-36165Y3715D01*
X-36153Y3698D01*
X-36140Y3669D01*
X-36123Y3636D01*
X-36107Y3594D01*
X-36086Y3549D01*
X-36069Y3490D01*
X-36049Y3432D01*
X-36028Y3366D01*
X-36011Y3291D01*
X-35994Y3212D01*
X-35982Y3124D01*
X-35969Y3033D01*
X-35965Y2937D01*
X-35961Y2837D01*
Y2833D01*
Y2812D01*
Y2783D01*
X-35965Y2746D01*
Y2700D01*
X-35969Y2650D01*
X-35978Y2588D01*
X-35986Y2525D01*
X-36007Y2384D01*
X-36040Y2234D01*
X-36086Y2089D01*
X-36111Y2018D01*
X-36144Y1951D01*
X-36148Y1947D01*
X-36153Y1935D01*
X-36165Y1918D01*
X-36178Y1897D01*
X-36198Y1868D01*
X-36223Y1835D01*
X-36248Y1801D01*
X-36281Y1764D01*
X-36356Y1681D01*
X-36448Y1602D01*
X-36556Y1527D01*
X-36619Y1494D01*
X-36681Y1464D01*
X-36685D01*
X-36698Y1460D01*
X-36718Y1452D01*
X-36748Y1444D01*
X-36781Y1431D01*
X-36827Y1419D01*
X-36876Y1406D01*
X-36935Y1394D01*
X-37001Y1377D01*
X-37072Y1365D01*
X-37151Y1352D01*
X-37238Y1344D01*
X-37330Y1331D01*
X-37430Y1327D01*
X-37534Y1319D01*
X-39863D01*
Y1826D01*
X-37563D01*
X-37521Y1831D01*
X-37475D01*
X-37421Y1835D01*
X-37367Y1839D01*
X-37247Y1847D01*
X-37126Y1864D01*
X-37010Y1889D01*
X-36955Y1901D01*
X-36910Y1918D01*
X-36906D01*
X-36901Y1922D01*
X-36889Y1926D01*
X-36872Y1935D01*
X-36827Y1960D01*
X-36777Y1993D01*
X-36714Y2034D01*
X-36656Y2089D01*
X-36598Y2155D01*
X-36544Y2234D01*
Y2238D01*
X-36540Y2247D01*
X-36531Y2259D01*
X-36523Y2276D01*
X-36514Y2296D01*
X-36506Y2326D01*
X-36494Y2355D01*
X-36481Y2388D01*
X-36460Y2471D01*
X-36440Y2567D01*
X-36423Y2675D01*
X-36419Y2792D01*
Y2800D01*
Y2816D01*
Y2846D01*
X-36423Y2883D01*
X-36427Y2929D01*
X-36431Y2983D01*
X-36440Y3041D01*
X-36452Y3104D01*
X-36481Y3232D01*
X-36502Y3299D01*
X-36527Y3366D01*
X-36556Y3428D01*
X-36589Y3486D01*
X-36627Y3540D01*
X-36673Y3590D01*
X-36677Y3594D01*
X-36685Y3603D01*
X-36702Y3611D01*
X-36722Y3628D01*
X-36752Y3644D01*
X-36789Y3665D01*
X-36835Y3690D01*
X-36889Y3711D01*
X-36951Y3732D01*
X-37022Y3757D01*
X-37101Y3777D01*
X-37188Y3794D01*
X-37288Y3811D01*
X-37396Y3823D01*
X-37517Y3827D01*
X-37646Y3832D01*
X-39863D01*
Y4339D01*
X-37550D01*
X-37500Y4335D01*
D02*
G37*
G36*
X-30906Y8287D02*
X-31255D01*
X-31251Y8283D01*
X-31238Y8275D01*
X-31218Y8258D01*
X-31192Y8237D01*
X-31159Y8208D01*
X-31126Y8175D01*
X-31089Y8137D01*
X-31051Y8091D01*
X-31010Y8037D01*
X-30972Y7979D01*
X-30939Y7917D01*
X-30910Y7846D01*
X-30880Y7767D01*
X-30860Y7688D01*
X-30847Y7601D01*
X-30843Y7505D01*
Y7501D01*
Y7488D01*
Y7472D01*
X-30847Y7447D01*
Y7418D01*
X-30851Y7384D01*
X-30860Y7347D01*
X-30868Y7305D01*
X-30889Y7210D01*
X-30922Y7106D01*
X-30968Y7002D01*
X-30993Y6948D01*
X-31026Y6893D01*
X-31030Y6889D01*
X-31034Y6881D01*
X-31047Y6868D01*
X-31059Y6848D01*
X-31080Y6823D01*
X-31101Y6798D01*
X-31159Y6735D01*
X-31230Y6665D01*
X-31317Y6594D01*
X-31421Y6523D01*
X-31538Y6461D01*
X-31542D01*
X-31554Y6453D01*
X-31571Y6448D01*
X-31596Y6436D01*
X-31625Y6427D01*
X-31663Y6415D01*
X-31708Y6398D01*
X-31754Y6386D01*
X-31808Y6373D01*
X-31866Y6357D01*
X-31929Y6344D01*
X-31995Y6336D01*
X-32137Y6319D01*
X-32291Y6311D01*
X-32332D01*
X-32362Y6315D01*
X-32399D01*
X-32441Y6319D01*
X-32491Y6323D01*
X-32544Y6328D01*
X-32661Y6344D01*
X-32786Y6369D01*
X-32919Y6402D01*
X-33048Y6448D01*
X-33052D01*
X-33065Y6457D01*
X-33081Y6465D01*
X-33106Y6473D01*
X-33131Y6490D01*
X-33164Y6506D01*
X-33239Y6552D01*
X-33327Y6611D01*
X-33410Y6681D01*
X-33493Y6764D01*
X-33568Y6864D01*
X-33572Y6868D01*
X-33576Y6877D01*
X-33585Y6893D01*
X-33597Y6914D01*
X-33610Y6939D01*
X-33626Y6972D01*
X-33643Y7006D01*
X-33659Y7047D01*
X-33693Y7139D01*
X-33722Y7243D01*
X-33743Y7359D01*
X-33751Y7422D01*
Y7484D01*
Y7488D01*
Y7497D01*
Y7509D01*
Y7526D01*
X-33747Y7576D01*
X-33738Y7634D01*
X-33726Y7705D01*
X-33705Y7779D01*
X-33680Y7858D01*
X-33643Y7933D01*
Y7938D01*
X-33639Y7942D01*
X-33622Y7967D01*
X-33601Y8000D01*
X-33568Y8046D01*
X-33526Y8096D01*
X-33481Y8150D01*
X-33426Y8204D01*
X-33364Y8254D01*
X-34745D01*
Y8724D01*
X-30906D01*
Y8287D01*
D02*
G37*
G36*
Y12122D02*
X-32066Y11677D01*
Y10063D01*
X-30906Y9647D01*
Y9111D01*
X-34745Y10579D01*
Y11128D01*
X-30906Y12701D01*
Y12122D01*
D02*
G37*
G36*
X-31987Y15426D02*
X-31954D01*
X-31908Y15417D01*
X-31858Y15409D01*
X-31804Y15401D01*
X-31742Y15384D01*
X-31675Y15363D01*
X-31609Y15338D01*
X-31538Y15309D01*
X-31467Y15272D01*
X-31392Y15230D01*
X-31321Y15180D01*
X-31251Y15126D01*
X-31184Y15059D01*
X-31180Y15055D01*
X-31168Y15043D01*
X-31151Y15022D01*
X-31130Y14993D01*
X-31105Y14960D01*
X-31076Y14914D01*
X-31043Y14864D01*
X-31014Y14806D01*
X-30980Y14743D01*
X-30947Y14673D01*
X-30918Y14598D01*
X-30893Y14514D01*
X-30872Y14427D01*
X-30856Y14336D01*
X-30843Y14240D01*
X-30839Y14136D01*
Y14132D01*
Y14115D01*
X-30843Y14086D01*
Y14053D01*
X-30847Y14007D01*
X-30856Y13957D01*
X-30864Y13903D01*
X-30876Y13841D01*
X-30893Y13774D01*
X-30914Y13708D01*
X-30935Y13637D01*
X-30964Y13566D01*
X-31001Y13495D01*
X-31039Y13429D01*
X-31084Y13358D01*
X-31139Y13296D01*
X-31143Y13292D01*
X-31151Y13283D01*
X-31168Y13266D01*
X-31192Y13242D01*
X-31222Y13217D01*
X-31259Y13187D01*
X-31301Y13158D01*
X-31351Y13125D01*
X-31400Y13092D01*
X-31463Y13058D01*
X-31525Y13025D01*
X-31596Y12996D01*
X-31671Y12971D01*
X-31750Y12946D01*
X-31833Y12930D01*
X-31920Y12917D01*
X-31983Y13387D01*
X-31979D01*
X-31966Y13391D01*
X-31945Y13396D01*
X-31916Y13404D01*
X-31883Y13412D01*
X-31846Y13420D01*
X-31758Y13450D01*
X-31663Y13487D01*
X-31567Y13533D01*
X-31480Y13591D01*
X-31442Y13624D01*
X-31405Y13658D01*
Y13662D01*
X-31396Y13666D01*
X-31388Y13678D01*
X-31376Y13691D01*
X-31351Y13733D01*
X-31317Y13791D01*
X-31284Y13861D01*
X-31259Y13940D01*
X-31238Y14036D01*
X-31230Y14136D01*
Y14140D01*
Y14153D01*
Y14169D01*
X-31234Y14194D01*
X-31238Y14219D01*
X-31242Y14257D01*
X-31259Y14332D01*
X-31284Y14423D01*
X-31326Y14519D01*
X-31355Y14564D01*
X-31384Y14610D01*
X-31417Y14656D01*
X-31459Y14702D01*
X-31463Y14706D01*
X-31471Y14710D01*
X-31484Y14723D01*
X-31500Y14739D01*
X-31521Y14756D01*
X-31550Y14773D01*
X-31579Y14793D01*
X-31617Y14818D01*
X-31700Y14860D01*
X-31796Y14893D01*
X-31908Y14922D01*
X-31966Y14926D01*
X-32029Y14931D01*
X-32062D01*
X-32083Y14926D01*
X-32112Y14922D01*
X-32141Y14918D01*
X-32216Y14906D01*
X-32303Y14876D01*
X-32391Y14839D01*
X-32436Y14814D01*
X-32478Y14785D01*
X-32520Y14752D01*
X-32561Y14714D01*
X-32565Y14710D01*
X-32570Y14706D01*
X-32582Y14693D01*
X-32594Y14677D01*
X-32611Y14656D01*
X-32628Y14631D01*
X-32669Y14569D01*
X-32707Y14490D01*
X-32740Y14398D01*
X-32765Y14294D01*
X-32769Y14236D01*
X-32773Y14178D01*
Y14173D01*
Y14153D01*
X-32769Y14123D01*
Y14086D01*
X-32761Y14036D01*
X-32753Y13982D01*
X-32740Y13916D01*
X-32723Y13845D01*
X-33135Y13895D01*
Y13899D01*
Y13903D01*
X-33131Y13924D01*
X-33127Y13949D01*
Y13974D01*
Y13978D01*
Y13986D01*
Y14003D01*
X-33131Y14024D01*
Y14053D01*
X-33135Y14082D01*
X-33148Y14153D01*
X-33164Y14236D01*
X-33193Y14327D01*
X-33231Y14423D01*
X-33285Y14514D01*
Y14519D01*
X-33293Y14527D01*
X-33302Y14535D01*
X-33314Y14552D01*
X-33352Y14594D01*
X-33406Y14639D01*
X-33472Y14681D01*
X-33555Y14723D01*
X-33601Y14739D01*
X-33655Y14748D01*
X-33709Y14756D01*
X-33768Y14760D01*
X-33792D01*
X-33813Y14756D01*
X-33859Y14752D01*
X-33922Y14739D01*
X-33988Y14718D01*
X-34059Y14685D01*
X-34134Y14639D01*
X-34167Y14614D01*
X-34200Y14581D01*
X-34209Y14573D01*
X-34225Y14548D01*
X-34254Y14510D01*
X-34288Y14460D01*
X-34317Y14394D01*
X-34346Y14315D01*
X-34363Y14228D01*
X-34371Y14128D01*
Y14123D01*
Y14115D01*
Y14103D01*
X-34367Y14082D01*
Y14057D01*
X-34363Y14032D01*
X-34350Y13965D01*
X-34329Y13895D01*
X-34296Y13816D01*
X-34254Y13741D01*
X-34196Y13666D01*
X-34188Y13658D01*
X-34163Y13637D01*
X-34125Y13603D01*
X-34067Y13570D01*
X-33996Y13529D01*
X-33905Y13491D01*
X-33801Y13458D01*
X-33680Y13433D01*
X-33763Y12963D01*
X-33768D01*
X-33784Y12967D01*
X-33809Y12971D01*
X-33843Y12979D01*
X-33880Y12992D01*
X-33926Y13004D01*
X-33976Y13021D01*
X-34030Y13042D01*
X-34150Y13096D01*
X-34209Y13125D01*
X-34271Y13162D01*
X-34329Y13204D01*
X-34387Y13250D01*
X-34446Y13300D01*
X-34496Y13354D01*
X-34500Y13358D01*
X-34508Y13366D01*
X-34521Y13387D01*
X-34537Y13408D01*
X-34558Y13441D01*
X-34579Y13475D01*
X-34604Y13516D01*
X-34629Y13566D01*
X-34650Y13616D01*
X-34675Y13674D01*
X-34695Y13737D01*
X-34716Y13803D01*
X-34733Y13878D01*
X-34745Y13953D01*
X-34754Y14032D01*
X-34758Y14115D01*
Y14119D01*
Y14128D01*
Y14144D01*
Y14169D01*
X-34754Y14198D01*
X-34749Y14228D01*
X-34741Y14307D01*
X-34724Y14394D01*
X-34699Y14494D01*
X-34666Y14594D01*
X-34620Y14693D01*
Y14698D01*
X-34616Y14706D01*
X-34608Y14718D01*
X-34595Y14739D01*
X-34566Y14785D01*
X-34525Y14843D01*
X-34471Y14910D01*
X-34408Y14976D01*
X-34337Y15043D01*
X-34254Y15101D01*
X-34250D01*
X-34246Y15105D01*
X-34229Y15114D01*
X-34213Y15122D01*
X-34192Y15134D01*
X-34167Y15147D01*
X-34105Y15172D01*
X-34030Y15197D01*
X-33946Y15222D01*
X-33855Y15238D01*
X-33759Y15243D01*
X-33718D01*
X-33668Y15234D01*
X-33610Y15226D01*
X-33539Y15209D01*
X-33464Y15184D01*
X-33385Y15151D01*
X-33306Y15105D01*
X-33302D01*
X-33298Y15101D01*
X-33273Y15080D01*
X-33235Y15051D01*
X-33189Y15005D01*
X-33135Y14951D01*
X-33081Y14881D01*
X-33031Y14802D01*
X-32981Y14710D01*
Y14714D01*
X-32977Y14727D01*
X-32973Y14743D01*
X-32965Y14768D01*
X-32956Y14793D01*
X-32944Y14827D01*
X-32911Y14906D01*
X-32865Y14989D01*
X-32811Y15076D01*
X-32740Y15164D01*
X-32653Y15238D01*
X-32649Y15243D01*
X-32640Y15247D01*
X-32628Y15255D01*
X-32607Y15268D01*
X-32586Y15284D01*
X-32557Y15301D01*
X-32524Y15317D01*
X-32482Y15334D01*
X-32441Y15351D01*
X-32395Y15367D01*
X-32291Y15401D01*
X-32170Y15421D01*
X-32104Y15430D01*
X-32016D01*
X-31987Y15426D01*
D02*
G37*
G36*
X-32245Y5928D02*
X-32199D01*
X-32145Y5924D01*
X-32087Y5920D01*
X-32024Y5912D01*
X-31891Y5895D01*
X-31750Y5866D01*
X-31613Y5824D01*
X-31550Y5799D01*
X-31488Y5770D01*
X-31484D01*
X-31475Y5762D01*
X-31459Y5754D01*
X-31438Y5741D01*
X-31413Y5725D01*
X-31380Y5704D01*
X-31313Y5650D01*
X-31234Y5583D01*
X-31155Y5504D01*
X-31080Y5408D01*
X-31010Y5300D01*
Y5296D01*
X-31001Y5288D01*
X-30993Y5271D01*
X-30985Y5246D01*
X-30972Y5217D01*
X-30955Y5184D01*
X-30943Y5146D01*
X-30926Y5100D01*
X-30910Y5055D01*
X-30897Y5001D01*
X-30868Y4888D01*
X-30851Y4764D01*
X-30843Y4630D01*
Y4622D01*
Y4605D01*
X-30847Y4576D01*
Y4535D01*
X-30856Y4485D01*
X-30864Y4426D01*
X-30876Y4364D01*
X-30889Y4293D01*
X-30910Y4219D01*
X-30935Y4144D01*
X-30964Y4065D01*
X-31001Y3986D01*
X-31043Y3906D01*
X-31093Y3832D01*
X-31151Y3757D01*
X-31218Y3686D01*
X-31222Y3682D01*
X-31234Y3669D01*
X-31255Y3653D01*
X-31288Y3632D01*
X-31326Y3603D01*
X-31371Y3574D01*
X-31430Y3540D01*
X-31492Y3507D01*
X-31567Y3474D01*
X-31646Y3441D01*
X-31733Y3412D01*
X-31829Y3382D01*
X-31933Y3362D01*
X-32045Y3345D01*
X-32166Y3333D01*
X-32295Y3328D01*
X-32328D01*
X-32370Y3333D01*
X-32420Y3337D01*
X-32486Y3341D01*
X-32561Y3349D01*
X-32640Y3366D01*
X-32728Y3382D01*
X-32819Y3403D01*
X-32915Y3432D01*
X-33011Y3470D01*
X-33106Y3507D01*
X-33198Y3557D01*
X-33285Y3615D01*
X-33364Y3682D01*
X-33439Y3757D01*
X-33443Y3761D01*
X-33451Y3773D01*
X-33468Y3794D01*
X-33489Y3819D01*
X-33510Y3857D01*
X-33539Y3898D01*
X-33568Y3944D01*
X-33597Y4002D01*
X-33626Y4061D01*
X-33651Y4127D01*
X-33680Y4198D01*
X-33701Y4277D01*
X-33722Y4360D01*
X-33738Y4443D01*
X-33747Y4535D01*
X-33751Y4630D01*
Y4639D01*
Y4655D01*
X-33747Y4684D01*
Y4726D01*
X-33738Y4776D01*
X-33730Y4830D01*
X-33718Y4893D01*
X-33705Y4963D01*
X-33684Y5034D01*
X-33659Y5113D01*
X-33626Y5188D01*
X-33593Y5267D01*
X-33547Y5346D01*
X-33497Y5421D01*
X-33439Y5496D01*
X-33372Y5566D01*
X-33368Y5570D01*
X-33356Y5583D01*
X-33335Y5600D01*
X-33302Y5625D01*
X-33264Y5650D01*
X-33219Y5683D01*
X-33164Y5716D01*
X-33102Y5749D01*
X-33031Y5783D01*
X-32952Y5816D01*
X-32869Y5849D01*
X-32778Y5874D01*
X-32678Y5899D01*
X-32570Y5916D01*
X-32453Y5928D01*
X-32332Y5932D01*
X-32283D01*
X-32245Y5928D01*
D02*
G37*
G36*
X-30906Y2255D02*
X-34121D01*
X-30906Y1132D01*
Y674D01*
X-34175Y-432D01*
X-30906D01*
Y-923D01*
X-34745D01*
Y-162D01*
X-32024Y749D01*
X-32020D01*
X-32008Y753D01*
X-31987Y762D01*
X-31962Y770D01*
X-31933Y778D01*
X-31896Y791D01*
X-31812Y820D01*
X-31721Y849D01*
X-31625Y878D01*
X-31538Y907D01*
X-31496Y920D01*
X-31459Y932D01*
X-31463D01*
X-31467Y936D01*
X-31480Y941D01*
X-31496Y945D01*
X-31521Y953D01*
X-31546Y961D01*
X-31579Y970D01*
X-31613Y982D01*
X-31654Y994D01*
X-31700Y1011D01*
X-31750Y1028D01*
X-31808Y1044D01*
X-31866Y1065D01*
X-31933Y1086D01*
X-32000Y1111D01*
X-32074Y1136D01*
X-34745Y2059D01*
Y2746D01*
X-30906D01*
Y2255D01*
D02*
G37*
%LPC*%
G36*
X-32253Y8299D02*
X-32307D01*
X-32345Y8295D01*
X-32395Y8291D01*
X-32449Y8287D01*
X-32507Y8283D01*
X-32574Y8270D01*
X-32707Y8245D01*
X-32848Y8204D01*
X-32915Y8179D01*
X-32977Y8150D01*
X-33035Y8117D01*
X-33090Y8075D01*
X-33094Y8071D01*
X-33102Y8066D01*
X-33114Y8054D01*
X-33131Y8037D01*
X-33152Y8012D01*
X-33177Y7987D01*
X-33227Y7925D01*
X-33273Y7846D01*
X-33318Y7750D01*
X-33335Y7700D01*
X-33347Y7646D01*
X-33356Y7588D01*
X-33360Y7530D01*
Y7526D01*
Y7517D01*
Y7501D01*
X-33356Y7476D01*
X-33352Y7451D01*
X-33347Y7418D01*
X-33327Y7347D01*
X-33298Y7264D01*
X-33277Y7218D01*
X-33252Y7172D01*
X-33223Y7130D01*
X-33185Y7085D01*
X-33148Y7043D01*
X-33102Y7002D01*
X-33098Y6997D01*
X-33090Y6993D01*
X-33073Y6981D01*
X-33052Y6968D01*
X-33027Y6952D01*
X-32990Y6935D01*
X-32952Y6918D01*
X-32902Y6898D01*
X-32852Y6877D01*
X-32790Y6860D01*
X-32723Y6843D01*
X-32653Y6827D01*
X-32570Y6814D01*
X-32486Y6802D01*
X-32391Y6798D01*
X-32291Y6794D01*
X-32241D01*
X-32203Y6798D01*
X-32158Y6802D01*
X-32108Y6806D01*
X-32054Y6814D01*
X-31991Y6823D01*
X-31862Y6848D01*
X-31729Y6889D01*
X-31667Y6914D01*
X-31604Y6943D01*
X-31546Y6981D01*
X-31492Y7018D01*
X-31488Y7022D01*
X-31480Y7027D01*
X-31467Y7043D01*
X-31451Y7060D01*
X-31430Y7081D01*
X-31409Y7106D01*
X-31363Y7168D01*
X-31313Y7247D01*
X-31272Y7339D01*
X-31255Y7389D01*
X-31242Y7438D01*
X-31234Y7492D01*
X-31230Y7551D01*
Y7555D01*
Y7563D01*
Y7580D01*
X-31234Y7605D01*
X-31238Y7630D01*
X-31242Y7663D01*
X-31263Y7734D01*
X-31292Y7817D01*
X-31313Y7863D01*
X-31334Y7904D01*
X-31363Y7950D01*
X-31396Y7996D01*
X-31434Y8037D01*
X-31480Y8079D01*
X-31484Y8083D01*
X-31492Y8087D01*
X-31505Y8100D01*
X-31530Y8112D01*
X-31554Y8129D01*
X-31588Y8150D01*
X-31625Y8170D01*
X-31671Y8191D01*
X-31721Y8208D01*
X-31779Y8229D01*
X-31846Y8250D01*
X-31912Y8266D01*
X-31987Y8279D01*
X-32070Y8291D01*
X-32158Y8295D01*
X-32253Y8299D01*
D02*
G37*
G36*
X-32478Y11519D02*
X-33543Y11116D01*
X-33547D01*
X-33564Y11107D01*
X-33589Y11099D01*
X-33626Y11087D01*
X-33664Y11070D01*
X-33713Y11053D01*
X-33768Y11033D01*
X-33826Y11012D01*
X-33955Y10970D01*
X-34088Y10925D01*
X-34221Y10879D01*
X-34346Y10841D01*
X-34342D01*
X-34329Y10837D01*
X-34308Y10833D01*
X-34283Y10829D01*
X-34246Y10820D01*
X-34209Y10812D01*
X-34163Y10800D01*
X-34113Y10787D01*
X-34059Y10775D01*
X-34001Y10758D01*
X-33876Y10721D01*
X-33743Y10679D01*
X-33605Y10633D01*
X-32478Y10209D01*
Y11519D01*
D02*
G37*
G36*
X-32312Y5450D02*
X-32362D01*
X-32395Y5446D01*
X-32441Y5442D01*
X-32491Y5437D01*
X-32544Y5429D01*
X-32603Y5421D01*
X-32728Y5392D01*
X-32794Y5375D01*
X-32861Y5350D01*
X-32923Y5321D01*
X-32985Y5292D01*
X-33040Y5254D01*
X-33094Y5213D01*
X-33098Y5209D01*
X-33106Y5200D01*
X-33119Y5188D01*
X-33135Y5171D01*
X-33156Y5146D01*
X-33177Y5121D01*
X-33202Y5088D01*
X-33227Y5055D01*
X-33277Y4967D01*
X-33318Y4868D01*
X-33335Y4813D01*
X-33347Y4755D01*
X-33356Y4693D01*
X-33360Y4630D01*
Y4626D01*
Y4614D01*
Y4597D01*
X-33356Y4572D01*
X-33352Y4543D01*
X-33347Y4506D01*
X-33327Y4426D01*
X-33293Y4331D01*
X-33273Y4285D01*
X-33248Y4235D01*
X-33219Y4185D01*
X-33181Y4135D01*
X-33139Y4090D01*
X-33094Y4044D01*
X-33090Y4040D01*
X-33081Y4036D01*
X-33065Y4023D01*
X-33044Y4006D01*
X-33015Y3990D01*
X-32981Y3969D01*
X-32940Y3948D01*
X-32894Y3927D01*
X-32840Y3906D01*
X-32782Y3886D01*
X-32715Y3865D01*
X-32644Y3848D01*
X-32565Y3832D01*
X-32482Y3819D01*
X-32391Y3815D01*
X-32295Y3811D01*
X-32245D01*
X-32208Y3815D01*
X-32162Y3819D01*
X-32112Y3823D01*
X-32054Y3832D01*
X-31995Y3840D01*
X-31862Y3869D01*
X-31729Y3911D01*
X-31667Y3936D01*
X-31604Y3969D01*
X-31546Y4002D01*
X-31492Y4044D01*
X-31488Y4048D01*
X-31480Y4056D01*
X-31467Y4069D01*
X-31451Y4085D01*
X-31430Y4110D01*
X-31409Y4135D01*
X-31384Y4169D01*
X-31363Y4206D01*
X-31313Y4289D01*
X-31272Y4389D01*
X-31255Y4443D01*
X-31242Y4506D01*
X-31234Y4564D01*
X-31230Y4630D01*
Y4634D01*
Y4647D01*
Y4664D01*
X-31234Y4689D01*
X-31238Y4718D01*
X-31242Y4755D01*
X-31263Y4834D01*
X-31297Y4926D01*
X-31317Y4976D01*
X-31342Y5026D01*
X-31371Y5071D01*
X-31409Y5121D01*
X-31451Y5167D01*
X-31496Y5213D01*
X-31500Y5217D01*
X-31509Y5221D01*
X-31525Y5234D01*
X-31546Y5250D01*
X-31575Y5267D01*
X-31609Y5288D01*
X-31650Y5308D01*
X-31700Y5333D01*
X-31750Y5354D01*
X-31812Y5375D01*
X-31879Y5396D01*
X-31954Y5412D01*
X-32033Y5429D01*
X-32120Y5442D01*
X-32212Y5446D01*
X-32312Y5450D01*
D02*
G37*
%LPD*%
D28*
X5902Y37902D02*
G03*
X5902Y37902I-6000J0D01*
G01*
D29*
X-16240Y12500D02*
G03*
X-16240Y12500I-492J0D01*
G01*
X1181Y-18898D02*
G03*
X1181Y-18898I-492J0D01*
G01*
D30*
X-18622Y787D02*
G03*
X-18622Y787I-197J0D01*
G01*
D31*
X9902Y13209D02*
Y23209D01*
X29902D01*
Y13209D02*
Y23209D01*
X9902Y13209D02*
X29902D01*
X-4265Y-10079D02*
X14902D01*
X-15098D02*
X14902D01*
X-15098Y9921D02*
X14902D01*
X-15098Y-10079D02*
Y9921D01*
X14902Y-10079D02*
Y9921D01*
X-15551Y18209D02*
X-3740D01*
X-15551Y16240D02*
X-3740D01*
Y18209D01*
X-15551Y16240D02*
Y18209D01*
X21555Y1772D02*
X24705D01*
X21555Y7677D02*
X24705D01*
X6398Y-31890D02*
Y-20079D01*
X4429Y-31890D02*
Y-20079D01*
Y-31890D02*
X6398D01*
X4429Y-20079D02*
X6398D01*
D32*
X-18307Y-31496D02*
X-21062D01*
Y-30119D01*
X-20603Y-29659D01*
X-19685D01*
X-19225Y-30119D01*
Y-31496D01*
Y-30578D02*
X-18307Y-29659D01*
X-18766Y-28741D02*
X-18307Y-28282D01*
Y-27363D01*
X-18766Y-26904D01*
X-20603D01*
X-21062Y-27363D01*
Y-28282D01*
X-20603Y-28741D01*
X-20144D01*
X-19685Y-28282D01*
Y-26904D01*
X-8858Y-39764D02*
X-11613D01*
Y-38386D01*
X-11154Y-37927D01*
X-10236D01*
X-9777Y-38386D01*
Y-39764D01*
Y-38845D02*
X-8858Y-37927D01*
X-11154Y-37009D02*
X-11613Y-36550D01*
Y-35631D01*
X-11154Y-35172D01*
X-10695D01*
X-10236Y-35631D01*
X-9777Y-35172D01*
X-9317D01*
X-8858Y-35631D01*
Y-36550D01*
X-9317Y-37009D01*
X-9777D01*
X-10236Y-36550D01*
X-10695Y-37009D01*
X-11154D01*
X-10236Y-36550D02*
Y-35631D01*
X-6627Y-38222D02*
X-7086Y-38682D01*
Y-39600D01*
X-6627Y-40059D01*
X-4790D01*
X-4331Y-39600D01*
Y-38682D01*
X-4790Y-38222D01*
X-7086Y-35467D02*
Y-37304D01*
X-5708D01*
X-6167Y-36386D01*
Y-35926D01*
X-5708Y-35467D01*
X-4790D01*
X-4331Y-35926D01*
Y-36845D01*
X-4790Y-37304D01*
X1673Y26180D02*
Y23228D01*
X3641D01*
X4625Y26180D02*
X6593Y23228D01*
Y26180D02*
X4625Y23228D01*
X7577D02*
X8561D01*
X8069D01*
Y26180D01*
X7577Y25688D01*
X-7677Y-1378D02*
Y1574D01*
X-6201D01*
X-5709Y1082D01*
Y98D01*
X-6201Y-394D01*
X-7677D01*
X-2757Y-1378D02*
X-4725D01*
X-2757Y590D01*
Y1082D01*
X-3249Y1574D01*
X-4233D01*
X-4725Y1082D01*
X26476Y8957D02*
Y11908D01*
X27952D01*
X28444Y11417D01*
Y10433D01*
X27952Y9941D01*
X26476D01*
X27460D02*
X28444Y8957D01*
X29428Y11417D02*
X29920Y11908D01*
X30904D01*
X31396Y11417D01*
Y10925D01*
X30904Y10433D01*
X30412D01*
X30904D01*
X31396Y9941D01*
Y9449D01*
X30904Y8957D01*
X29920D01*
X29428Y9449D01*
X-21850Y11811D02*
X-24802D01*
Y13287D01*
X-24310Y13779D01*
X-23326D01*
X-22834Y13287D01*
Y11811D01*
Y12795D02*
X-21850Y13779D01*
X-24802Y16731D02*
Y14763D01*
X-23326D01*
X-23818Y15747D01*
Y16239D01*
X-23326Y16731D01*
X-22342D01*
X-21850Y16239D01*
Y15255D01*
X-22342Y14763D01*
X-11811Y28542D02*
Y26083D01*
X-11319Y25591D01*
X-10335D01*
X-9843Y26083D01*
Y28542D01*
X-8859Y25591D02*
X-7875D01*
X-8367D01*
Y28542D01*
X-8859Y28050D01*
X33858Y6003D02*
X33366Y6495D01*
X32382D01*
X31890Y6003D01*
Y4035D01*
X32382Y3543D01*
X33366D01*
X33858Y4035D01*
X34842Y3543D02*
X35825D01*
X35333D01*
Y6495D01*
X34842Y6003D01*
X-28247Y6889D02*
X-28739Y6397D01*
Y5413D01*
X-28247Y4921D01*
X-26279D01*
X-25787Y5413D01*
Y6397D01*
X-26279Y6889D01*
X-28247Y7873D02*
X-28739Y8365D01*
Y9349D01*
X-28247Y9841D01*
X-27755D01*
X-27263Y9349D01*
Y8857D01*
Y9349D01*
X-26771Y9841D01*
X-26279D01*
X-25787Y9349D01*
Y8365D01*
X-26279Y7873D01*
X-2657Y25688D02*
X-3149Y25196D01*
Y24212D01*
X-2657Y23720D01*
X-689D01*
X-197Y24212D01*
Y25196D01*
X-689Y25688D01*
X-197Y28148D02*
X-3149D01*
X-1673Y26672D01*
Y28640D01*
X-27263Y197D02*
X-24311D01*
Y1673D01*
X-24803Y2165D01*
X-26771D01*
X-27263Y1673D01*
Y197D01*
X-24311Y3149D02*
Y4133D01*
Y3641D01*
X-27263D01*
X-26771Y3149D01*
X3838Y-11418D02*
X3346Y-10926D01*
X2362D01*
X1870Y-11418D01*
Y-13386D01*
X2362Y-13878D01*
X3346D01*
X3838Y-13386D01*
X6790Y-13878D02*
X4822D01*
X6790Y-11910D01*
Y-11418D01*
X6298Y-10926D01*
X5314D01*
X4822Y-11418D01*
X-26771Y-16240D02*
X-23819D01*
Y-14272D01*
X-26771Y-13288D02*
X-23819Y-11321D01*
X-26771D02*
X-23819Y-13288D01*
Y-8369D02*
Y-10336D01*
X-25787Y-8369D01*
X-26279D01*
X-26771Y-8861D01*
Y-9845D01*
X-26279Y-10336D01*
X14469Y-26181D02*
Y-23229D01*
X15944D01*
X16436Y-23721D01*
Y-24705D01*
X15944Y-25197D01*
X14469D01*
X15452D02*
X16436Y-26181D01*
X19388Y-23229D02*
X18404Y-23721D01*
X17420Y-24705D01*
Y-25689D01*
X17912Y-26181D01*
X18896D01*
X19388Y-25689D01*
Y-25197D01*
X18896Y-24705D01*
X17420D01*
X5409Y-26479D02*
X8361D01*
Y-27955D01*
X7869Y-28446D01*
X6885D01*
X6393Y-27955D01*
Y-26479D01*
Y-27463D02*
X5409Y-28446D01*
X8361Y-29430D02*
Y-31398D01*
X7869D01*
X5901Y-29430D01*
X5409D01*
X-7874Y-17422D02*
Y-19882D01*
X-7382Y-20374D01*
X-6398D01*
X-5906Y-19882D01*
Y-17422D01*
X-2954Y-20374D02*
X-4922D01*
X-2954Y-18406D01*
Y-17914D01*
X-3446Y-17422D01*
X-4430D01*
X-4922Y-17914D01*
D33*
X-18098Y-7079D02*
X-16432D01*
X-17265D01*
Y-2080D01*
X-18098Y-2913D01*
X19234Y-2080D02*
X15902D01*
Y-4580D01*
X17568Y-3746D01*
X18401D01*
X19234Y-4580D01*
Y-6246D01*
X18401Y-7079D01*
X16735D01*
X15902Y-6246D01*
M02*
