M48
;Layer_Color=9474304
;FILE_FORMAT=2:5
INCH,LZ
;TYPE=PLATED
T1F00S00C0.03740
T2F00S00C0.04724
%
T01
X-0022434Y-0030841
X-0000098Y-0038098
X0022237Y-0030841
X0036042Y-0011841
Y0011644
X0022237Y0030644
X-0000098Y0037902
X-0022434Y0030644
X-0036239Y0011644
Y-0011841
T02
X-0013885Y-0019111
X0Y-0023622
X0013885Y-0019111
X0022466Y-00073
Y00073
X0013885Y0019111
X0
X-0013885
X-0022466Y00073
Y-00073
M30
