G04 Layer_Physical_Order=1*
G04 Layer_Color=255*
%FSLAX25Y25*%
%MOIN*%
G70*
G01*
G75*
%ADD10C,0.01575*%
%ADD11C,0.07874*%
%ADD12C,0.09843*%
D10*
X13885Y-19111D02*
X22237Y-30841D01*
X-98Y-38098D02*
X0Y-23622D01*
X-22434Y-30841D02*
X-13885Y-19111D01*
X-36239Y-11841D02*
X-22466Y-7300D01*
X-36239Y11644D02*
X-22466Y7300D01*
X-22563Y-7397D02*
X-22466Y-7300D01*
X-20537Y28085D02*
X-13885Y19111D01*
X-98Y37902D02*
X0Y19111D01*
X22466Y-7300D02*
X36042Y-11841D01*
X22466Y7300D02*
X36042Y11644D01*
X13885Y19111D02*
X22237Y30644D01*
X22466Y-7300D02*
X24090D01*
X22466Y7300D02*
X23449Y8283D01*
X-13885Y-22032D02*
Y-19111D01*
D11*
X-98Y37902D02*
D03*
X-22434Y30644D02*
D03*
X-36239Y11644D02*
D03*
Y-11841D02*
D03*
X-22434Y-30841D02*
D03*
X-98Y-38098D02*
D03*
X22237Y-30841D02*
D03*
X36042Y-11841D02*
D03*
Y11644D02*
D03*
X22237Y30644D02*
D03*
D12*
X0Y19111D02*
D03*
X13885Y-19111D02*
D03*
X-13885D02*
D03*
X22466Y-7300D02*
D03*
X-22466D02*
D03*
X22466Y7300D02*
D03*
X-22466D02*
D03*
X13885Y19111D02*
D03*
X-13885D02*
D03*
X0Y-23622D02*
D03*
M02*
