%FSLAX25Y25*%
%MOIN*%
G70*
G01*
G75*
G04 Layer_Physical_Order=1*
G04 Layer_Color=255*
%ADD10R,0.07874X0.01969*%
%ADD11R,0.07874X0.09843*%
%ADD12R,0.03543X0.02756*%
%ADD13R,0.01969X0.02362*%
%ADD14R,0.05906X0.05906*%
%ADD15R,0.06693X0.04331*%
%ADD16R,0.03543X0.03150*%
%ADD17R,0.04331X0.06693*%
%ADD18R,0.02362X0.04528*%
%ADD19O,0.00984X0.03543*%
%ADD20O,0.03543X0.00984*%
%ADD21R,0.22441X0.22441*%
%ADD22R,0.07480X0.10236*%
%ADD23R,0.02559X0.04331*%
%ADD24R,0.04724X0.02362*%
%ADD25R,0.06693X0.03150*%
%ADD26R,0.03150X0.03543*%
%ADD27R,0.00984X0.04331*%
%ADD28R,0.08071X0.08071*%
%ADD29O,0.00787X0.03543*%
%ADD30O,0.03543X0.00787*%
%ADD31R,0.05315X0.04724*%
%ADD32R,0.19685X0.04724*%
%ADD33R,0.01969X0.01969*%
%ADD34R,0.12992X0.05512*%
%ADD35R,0.05118X0.02756*%
%ADD36R,0.05709X0.17323*%
%ADD37C,0.00984*%
%ADD38C,0.01181*%
%ADD39C,0.01969*%
%ADD40C,0.01575*%
%ADD41C,0.03937*%
%ADD42R,0.13780X0.06496*%
%ADD43R,0.15748X0.07874*%
%ADD44C,0.05118*%
%ADD45R,0.09055X0.07087*%
%ADD46C,0.04724*%
%ADD47P,0.06392X8X112.5*%
%ADD48C,0.06000*%
%ADD49C,0.04331*%
%ADD50C,0.02756*%
%ADD51C,0.01969*%
%ADD52C,0.03543*%
%ADD53C,0.03937*%
G36*
X45374Y-14075D02*
X45374D01*
Y-21752D01*
X45079D01*
Y-34154D01*
X40157D01*
Y-22555D01*
X40862D01*
Y-18709D01*
X37697D01*
Y-17709D01*
X40862D01*
Y-14075D01*
X42717D01*
Y-13780D01*
X42717D01*
X42717Y-13780D01*
X42717Y-13780D01*
X45374D01*
Y-14075D01*
D02*
G37*
G36*
X149409Y-5315D02*
X152576D01*
X152768Y-5777D01*
X152442Y-6102D01*
X149409D01*
Y-10827D01*
X149705D01*
Y-11319D01*
X149705D01*
Y-15650D01*
Y-15920D01*
X147489D01*
X145061Y-13492D01*
X145121Y-13189D01*
X144953Y-12344D01*
X144474Y-11628D01*
X144218Y-11456D01*
Y-6594D01*
X144193Y-6469D01*
Y-4257D01*
X149409D01*
Y-5315D01*
D02*
G37*
G36*
X21736Y-5307D02*
X26673D01*
Y-5807D01*
X27173D01*
Y-11728D01*
X30721D01*
Y-13484D01*
X26848D01*
X26673Y-13450D01*
X22674D01*
X22500Y-13484D01*
X21949D01*
Y-13610D01*
X21397Y-13979D01*
X19294Y-16082D01*
X18902Y-16668D01*
X18765Y-17359D01*
Y-27418D01*
X18320Y-27637D01*
X17602Y-27340D01*
X16831Y-27238D01*
X16060Y-27340D01*
X15342Y-27637D01*
X14725Y-28111D01*
X14252Y-28727D01*
X13954Y-29446D01*
X13852Y-30217D01*
X13954Y-30987D01*
X14252Y-31706D01*
X14725Y-32322D01*
X15342Y-32796D01*
X16060Y-33093D01*
X16831Y-33195D01*
X17602Y-33093D01*
X18320Y-32796D01*
X18765Y-33015D01*
Y-35249D01*
X18616Y-35348D01*
X18137Y-36065D01*
X18129Y-36108D01*
X17068Y-37168D01*
X15628D01*
Y-38319D01*
X15212Y-38597D01*
X15053Y-38531D01*
Y-36956D01*
X12978D01*
Y-39727D01*
Y-42499D01*
X13189D01*
Y-48327D01*
X13272D01*
X13508Y-48768D01*
X13118Y-49352D01*
X13092Y-49481D01*
X8563D01*
X8025Y-49588D01*
X7570Y-49892D01*
X6782Y-50680D01*
X6478Y-51136D01*
X6419Y-51431D01*
X5921Y-51382D01*
Y-48705D01*
X5921D01*
Y-48680D01*
X6275Y-48327D01*
X9843D01*
Y-43224D01*
X9957D01*
Y-42499D01*
X11978D01*
Y-39727D01*
Y-36956D01*
X9957D01*
Y-31382D01*
X5520D01*
Y-37303D01*
X4520D01*
Y-31382D01*
X1345D01*
X992Y-31028D01*
X1050Y-11728D01*
X4520D01*
Y-5807D01*
X5020D01*
Y-5307D01*
X9957D01*
Y-984D01*
X21736D01*
Y-5307D01*
D02*
G37*
G36*
X22153Y-48441D02*
X26000D01*
D01*
X26000D01*
X26067Y-48508D01*
Y-48539D01*
X29913D01*
Y-45374D01*
X30913D01*
Y-48539D01*
X33693D01*
X34010Y-48926D01*
X33914Y-49409D01*
X34022Y-49953D01*
X34330Y-50414D01*
X34752Y-50696D01*
X34750Y-53051D01*
X34547D01*
Y-53051D01*
X26280D01*
Y-53051D01*
X25886D01*
X25787Y-52953D01*
Y-52953D01*
X17520D01*
D01*
X17520D01*
X17323Y-52756D01*
Y-51870D01*
X17174D01*
X16938Y-51429D01*
X17197Y-51042D01*
X17365Y-50197D01*
X17197Y-49352D01*
X16807Y-48768D01*
X16982Y-48441D01*
X17307D01*
Y-48441D01*
X21154D01*
Y-45276D01*
X22153D01*
Y-48441D01*
D02*
G37*
G36*
X95866Y-1476D02*
X95866D01*
Y-12947D01*
X95480Y-13264D01*
X95472Y-13262D01*
X91547D01*
X86811Y-8526D01*
Y-1476D01*
X86811D01*
Y-1338D01*
X87165Y-984D01*
X95866D01*
Y-1476D01*
D02*
G37*
G36*
X32874Y-22577D02*
Y-40650D01*
X34317D01*
X34812Y-40748D01*
X34914Y-41260D01*
X34934Y-41363D01*
X35205Y-41768D01*
X34969Y-42209D01*
X31610D01*
Y-37803D01*
X26673D01*
Y-37303D01*
X26173D01*
Y-31382D01*
X22377D01*
Y-29839D01*
X26173D01*
Y-27854D01*
X26673D01*
Y-27354D01*
X31610D01*
Y-25870D01*
X31398D01*
Y-23327D01*
Y-22860D01*
X31814Y-22777D01*
X31897Y-22760D01*
X32320Y-22478D01*
X32412Y-22386D01*
X32874Y-22577D01*
D02*
G37*
G36*
X45079Y-40037D02*
X43600Y-41515D01*
X43122Y-41370D01*
X43036Y-40938D01*
X42753Y-40514D01*
X42330Y-40232D01*
X41831Y-40132D01*
X41331Y-40232D01*
X40908Y-40514D01*
X40626Y-40938D01*
X40526Y-41437D01*
Y-42209D01*
X39891D01*
X39869Y-42102D01*
X39521Y-41581D01*
X39052Y-41111D01*
X39243Y-40650D01*
X40157D01*
Y-38287D01*
X45079D01*
Y-40037D01*
D02*
G37*
G36*
X56426Y-20076D02*
X56004Y-20135D01*
X56004D01*
X55159Y-20303D01*
X54443Y-20781D01*
X53964Y-21498D01*
X53796Y-22343D01*
X53964Y-23187D01*
X54443Y-23904D01*
X55159Y-24382D01*
X56004Y-24550D01*
X56086Y-24534D01*
X56355Y-24803D01*
X56523Y-25648D01*
X57002Y-26364D01*
X57718Y-26843D01*
X58563Y-27011D01*
X59408Y-26843D01*
X59917Y-26503D01*
X60407Y-26600D01*
X60447Y-26660D01*
X61163Y-27138D01*
X61802Y-27265D01*
X61947Y-27744D01*
X61344Y-28346D01*
X59621D01*
X59621Y-28346D01*
Y-28346D01*
X59449Y-28346D01*
X59268Y-28134D01*
X59095Y-28134D01*
X59095Y-28134D01*
Y-28134D01*
X57784D01*
Y-30315D01*
Y-32496D01*
X59095D01*
X59095Y-32496D01*
Y-32496D01*
X59268Y-32496D01*
X59449Y-32283D01*
X59621Y-32283D01*
X59621Y-32283D01*
Y-32283D01*
X62992D01*
Y-30388D01*
X63631Y-29750D01*
X67815D01*
Y-32087D01*
X72933D01*
Y-29750D01*
X77764D01*
X78081Y-30136D01*
X78026Y-30413D01*
X78125Y-30913D01*
X78408Y-31336D01*
Y-31459D01*
X78125Y-31883D01*
X78026Y-32382D01*
X78125Y-32881D01*
X78341Y-33204D01*
X78142Y-33663D01*
X77771Y-33724D01*
X77374Y-33419D01*
X76704Y-33142D01*
X75984Y-33047D01*
X75265Y-33142D01*
X74594Y-33419D01*
X74019Y-33861D01*
X73619Y-34382D01*
X73146Y-34221D01*
Y-32661D01*
X70874D01*
Y-35236D01*
X69874D01*
Y-32661D01*
X67602D01*
Y-33904D01*
X67154Y-34125D01*
X66845Y-33888D01*
X66031Y-33551D01*
X65158Y-33436D01*
X64284Y-33551D01*
X63470Y-33888D01*
X62771Y-34424D01*
X62234Y-35123D01*
X61897Y-35937D01*
X61821Y-36516D01*
X61024D01*
Y-33465D01*
X57480D01*
Y-36303D01*
X57299D01*
Y-36303D01*
X55028D01*
Y-38681D01*
Y-41059D01*
X57299D01*
Y-40846D01*
X57382D01*
Y-40846D01*
X62500D01*
Y-39555D01*
X62949Y-39334D01*
X63470Y-39734D01*
X64284Y-40071D01*
X65158Y-40186D01*
X66031Y-40071D01*
X66414Y-39913D01*
X68270Y-41769D01*
X68694Y-42052D01*
X69193Y-42151D01*
X70365D01*
X70511Y-42630D01*
X70423Y-42688D01*
X70140Y-42877D01*
X67668Y-45349D01*
X65938D01*
X65833Y-45191D01*
X65117Y-44712D01*
X64272Y-44544D01*
X63427Y-44712D01*
X62941Y-45037D01*
X62500Y-44801D01*
Y-42421D01*
X57382D01*
Y-42421D01*
X57168Y-42421D01*
X57087Y-42421D01*
Y-42421D01*
X57087D01*
X57087D01*
X52378D01*
X52061Y-42035D01*
X52101Y-41831D01*
X52025Y-41446D01*
X52342Y-41059D01*
X54027D01*
Y-38681D01*
Y-36303D01*
X52362D01*
Y-21752D01*
X51279D01*
Y-19614D01*
X56235D01*
X56426Y-20076D01*
D02*
G37*
G36*
X121715Y-41178D02*
X122139Y-41461D01*
X122221Y-41478D01*
X122524Y-41538D01*
Y-42610D01*
X128067D01*
Y-41561D01*
X134547D01*
Y-45374D01*
X139665D01*
Y-43433D01*
X143209D01*
Y-44472D01*
X141520D01*
Y-47335D01*
X163205D01*
Y-45842D01*
X163667Y-45650D01*
X164532Y-46516D01*
Y-60532D01*
X164670Y-61223D01*
X165061Y-61809D01*
X168113Y-64860D01*
X168699Y-65251D01*
X169390Y-65389D01*
X169783D01*
Y-66732D01*
X175947D01*
X175950Y-67953D01*
X175596Y-68307D01*
X169783D01*
Y-74606D01*
X175960D01*
X175962Y-75827D01*
X175609Y-76181D01*
X169783D01*
Y-82480D01*
X170232D01*
X170393Y-82954D01*
X169982Y-83269D01*
X169341Y-84105D01*
X168938Y-85078D01*
X168866Y-85622D01*
X172835D01*
Y-86622D01*
X168866D01*
X168938Y-87166D01*
X169341Y-88139D01*
X169982Y-88975D01*
X170008Y-88995D01*
X169847Y-89468D01*
X163205D01*
Y-87311D01*
X141520D01*
Y-89468D01*
X121374D01*
Y-86622D01*
X113878D01*
Y-86122D01*
X113378D01*
Y-82366D01*
X108937D01*
X108745Y-81904D01*
X111122Y-79528D01*
X127051D01*
Y-82693D01*
X130209D01*
Y-79331D01*
X131209D01*
Y-82693D01*
X134366D01*
Y-79528D01*
X135138D01*
Y-64728D01*
X135495Y-64378D01*
X139370Y-64468D01*
X139272Y-48425D01*
X124803D01*
X124705Y-51673D01*
X119504Y-51631D01*
X119228Y-51214D01*
X119309Y-51019D01*
X119417Y-50197D01*
X119309Y-49375D01*
X118991Y-48608D01*
X118486Y-47951D01*
X117829Y-47446D01*
X117062Y-47128D01*
X116240Y-47020D01*
X115418Y-47128D01*
X114795Y-47386D01*
X114409Y-47069D01*
X114511Y-46555D01*
X114343Y-45710D01*
X114249Y-45569D01*
X114404Y-45368D01*
X114561Y-45176D01*
X115320Y-45490D01*
X116142Y-45598D01*
X116964Y-45490D01*
X117730Y-45172D01*
X118388Y-44668D01*
X118893Y-44010D01*
X119210Y-43244D01*
X119318Y-42421D01*
X119210Y-41599D01*
X118893Y-40833D01*
X118388Y-40175D01*
X118245Y-40066D01*
X118406Y-39592D01*
X120129D01*
X121715Y-41178D01*
D02*
G37*
G36*
X119291Y-1476D02*
X119291D01*
Y-7579D01*
X123228D01*
Y-5832D01*
X128298D01*
X131176Y-8710D01*
Y-11949D01*
X130919Y-12120D01*
X130441Y-12836D01*
X130272Y-13681D01*
X130441Y-14526D01*
X130919Y-15242D01*
X131635Y-15721D01*
X132480Y-15889D01*
X133325Y-15721D01*
X133735Y-15940D01*
Y-18456D01*
X123690Y-28500D01*
X123228Y-28309D01*
Y-27362D01*
X118110D01*
Y-29109D01*
X115645D01*
X115426Y-28699D01*
X115594Y-27854D01*
X115439Y-27075D01*
X115756Y-26689D01*
X117437D01*
Y-26689D01*
X117799D01*
X117898Y-26787D01*
Y-26787D01*
X120169D01*
Y-24213D01*
X120669D01*
Y-23713D01*
X123441D01*
Y-22763D01*
X123652D01*
X124189Y-22656D01*
X124645Y-22352D01*
X126032Y-20965D01*
X127461D01*
Y-15846D01*
X126969D01*
Y-10335D01*
X123031D01*
Y-15846D01*
X122736D01*
Y-19953D01*
X121949D01*
Y-15846D01*
X120891D01*
Y-15453D01*
X120792Y-14954D01*
X120698Y-14813D01*
X120509Y-14530D01*
X119488Y-13509D01*
Y-10335D01*
X115551D01*
Y-11097D01*
X110827D01*
Y-7382D01*
X105709D01*
Y-7947D01*
X104921D01*
Y-1476D01*
X104921D01*
Y-1338D01*
X105275Y-984D01*
X119291D01*
Y-1476D01*
D02*
G37*
G36*
X76772Y-56398D02*
X76772D01*
Y-58831D01*
X71381D01*
X70843Y-58938D01*
X70388Y-59243D01*
X68884Y-60747D01*
X68602Y-60630D01*
Y-60630D01*
X68602Y-60630D01*
X64665D01*
Y-65945D01*
X63500D01*
Y-64969D01*
X57957D01*
Y-65945D01*
X24866D01*
X24675Y-65483D01*
X26181Y-63976D01*
Y-60236D01*
X25265Y-59320D01*
X25456Y-58858D01*
X25787D01*
Y-58858D01*
X26181D01*
X26280Y-58957D01*
Y-58957D01*
X34391D01*
X34745Y-59310D01*
X34744Y-60039D01*
X34547Y-62205D01*
X39494Y-62175D01*
X39862Y-62248D01*
X40254Y-62170D01*
X41404Y-62163D01*
X41831Y-62248D01*
X42284Y-62157D01*
X43314Y-62151D01*
X43799Y-62248D01*
X44315Y-62145D01*
X45224Y-62140D01*
X45768Y-62248D01*
X46312Y-62140D01*
X46340Y-62120D01*
X53839Y-61992D01*
Y-57480D01*
X58169D01*
Y-61319D01*
X63287D01*
Y-59478D01*
X64470Y-58295D01*
X68206D01*
X68622Y-58213D01*
X68705Y-58196D01*
X69129Y-57913D01*
X69168Y-57874D01*
X72342D01*
Y-56226D01*
X76772D01*
Y-56398D01*
D02*
G37*
G36*
X77756Y-1476D02*
X77756D01*
Y-2829D01*
X76279D01*
Y-1575D01*
X71555D01*
Y-6693D01*
X76279D01*
Y-5438D01*
X77756D01*
Y-9236D01*
X77280D01*
Y-9236D01*
X75008D01*
Y-11811D01*
Y-14386D01*
X77280D01*
Y-13287D01*
X77756D01*
Y-13287D01*
X80179D01*
X80370Y-13749D01*
X79348Y-14772D01*
X79263Y-14736D01*
X78543Y-14642D01*
X77824Y-14736D01*
X77153Y-15014D01*
X77067Y-14971D01*
Y-14961D01*
X71949D01*
Y-16804D01*
X63222D01*
X62987Y-16363D01*
X63162Y-16101D01*
X63330Y-15256D01*
X63237Y-14788D01*
X63590Y-14434D01*
X63976Y-14511D01*
X64821Y-14343D01*
X65538Y-13864D01*
X66016Y-13148D01*
X66184Y-12303D01*
X66016Y-11458D01*
X65538Y-10742D01*
X64821Y-10263D01*
X63976Y-10095D01*
X63884Y-10114D01*
X58071Y-4301D01*
Y-2362D01*
X51772D01*
Y-6299D01*
Y-7235D01*
X51566Y-7373D01*
X49690Y-9248D01*
X49228Y-9057D01*
Y-8571D01*
X42504D01*
Y-8957D01*
X37992D01*
Y-13862D01*
X37205D01*
Y-8957D01*
X33330D01*
Y-7787D01*
X34030Y-7087D01*
X37106D01*
Y-1969D01*
X32382D01*
Y-5033D01*
X31966Y-5311D01*
X31610Y-5163D01*
Y-984D01*
X65831D01*
Y-1362D01*
X65831D01*
Y-3634D01*
X70980D01*
Y-1362D01*
X70980D01*
Y-1338D01*
X71334Y-984D01*
X77756D01*
Y-1476D01*
D02*
G37*
G36*
X149409Y-1648D02*
X142224D01*
X141725Y-1747D01*
X141585Y-1841D01*
X141302Y-2030D01*
X140022Y-3310D01*
X139943Y-3429D01*
X139476D01*
Y-6594D01*
Y-9760D01*
X140469D01*
Y-9547D01*
X141609D01*
Y-11456D01*
X141352Y-11628D01*
X140874Y-12344D01*
X140706Y-13189D01*
X140874Y-14034D01*
X141352Y-14750D01*
X142069Y-15229D01*
X142913Y-15397D01*
X143216Y-15337D01*
X146026Y-18147D01*
X146450Y-18430D01*
X146532Y-18446D01*
X146949Y-18529D01*
X149705D01*
Y-19390D01*
Y-23130D01*
X152550D01*
X152828Y-23546D01*
X152756Y-23720D01*
X152756D01*
X152756Y-23720D01*
Y-28839D01*
X157480D01*
Y-24192D01*
X157942Y-24001D01*
X158268Y-24327D01*
Y-28839D01*
X162992D01*
Y-23720D01*
X162992D01*
Y-23696D01*
X163346Y-23343D01*
X166059D01*
Y-21465D01*
X162500D01*
Y-20965D01*
X162000D01*
Y-18587D01*
X160802D01*
X160611Y-18125D01*
X163086Y-15650D01*
X165847D01*
Y-11319D01*
X160350D01*
Y-11319D01*
Y-11039D01*
X160350Y-10965D01*
X160350Y-10965D01*
X160350D01*
Y-8275D01*
X160799Y-8054D01*
X161270Y-8415D01*
X162243Y-8818D01*
X162787Y-8890D01*
Y-4921D01*
X163787D01*
Y-8890D01*
X164332Y-8818D01*
X165305Y-8415D01*
X166140Y-7774D01*
X166781Y-6938D01*
X166911Y-6627D01*
X167401Y-6725D01*
X167323Y-28543D01*
X175886D01*
X175890Y-31225D01*
X175537Y-31579D01*
X172646D01*
Y-34744D01*
X172146D01*
Y-35244D01*
X167799D01*
Y-37057D01*
X167413Y-37374D01*
X167346Y-37361D01*
X166929Y-37278D01*
X166929D01*
Y-36220D01*
X161811D01*
Y-36281D01*
X161349Y-36473D01*
X161024Y-36147D01*
Y-34744D01*
X157653D01*
X157653Y-34744D01*
Y-34744D01*
X157480Y-34744D01*
X157299Y-34532D01*
X157127Y-34532D01*
X157127Y-34532D01*
Y-34532D01*
X155815D01*
Y-36713D01*
X155315D01*
Y-37213D01*
X153331D01*
Y-38894D01*
X153331D01*
Y-39017D01*
X152977Y-39370D01*
X148721D01*
Y-44472D01*
X147933D01*
Y-39370D01*
X143209D01*
Y-40623D01*
X141797D01*
X141606Y-40161D01*
X143836Y-37930D01*
X144119Y-37507D01*
X144135Y-37424D01*
X144218Y-37008D01*
Y-28642D01*
X144193Y-28516D01*
Y-25689D01*
X140469D01*
Y-25476D01*
X139476D01*
Y-28642D01*
X138476D01*
Y-25476D01*
X137484D01*
Y-25689D01*
X133760D01*
Y-28516D01*
X133735Y-28642D01*
Y-30063D01*
X132720Y-31077D01*
X125456D01*
X125265Y-30615D01*
X135962Y-19918D01*
X136245Y-19495D01*
X136344Y-18996D01*
Y-9547D01*
X137484D01*
Y-9760D01*
X138476D01*
Y-6594D01*
Y-3429D01*
X137484D01*
Y-3642D01*
X133760D01*
Y-6469D01*
X133735Y-6594D01*
Y-6926D01*
X133273Y-7117D01*
X129761Y-3605D01*
X129338Y-3322D01*
X129255Y-3306D01*
X128839Y-3223D01*
X123228D01*
Y-1476D01*
X123228D01*
Y-1338D01*
X123582Y-984D01*
X149409D01*
Y-1648D01*
D02*
G37*
%LPC*%
G36*
X133185Y-43488D02*
X131701D01*
Y-44972D01*
X133185D01*
Y-43488D01*
D02*
G37*
G36*
X130701D02*
X129217D01*
Y-44972D01*
X130701D01*
Y-43488D01*
D02*
G37*
G36*
X163205Y-83449D02*
X152862D01*
Y-86311D01*
X163205D01*
Y-83449D01*
D02*
G37*
G36*
X151862D02*
X141520D01*
Y-86311D01*
X151862D01*
Y-83449D01*
D02*
G37*
G36*
X31610Y-31382D02*
X27173D01*
Y-36803D01*
X31610D01*
Y-31382D01*
D02*
G37*
G36*
X154815Y-34532D02*
X153331D01*
Y-36213D01*
X154815D01*
Y-34532D01*
D02*
G37*
G36*
X163870Y-33571D02*
X161598D01*
Y-35646D01*
X163870D01*
Y-33571D01*
D02*
G37*
G36*
X121374Y-82366D02*
X114378D01*
Y-85622D01*
X121374D01*
Y-82366D01*
D02*
G37*
G36*
X151862Y-48335D02*
X141520D01*
Y-51197D01*
X151862D01*
Y-48335D01*
D02*
G37*
G36*
X133185Y-45972D02*
X131701D01*
Y-47457D01*
X133185D01*
Y-45972D01*
D02*
G37*
G36*
X163205Y-48335D02*
X152862D01*
Y-51197D01*
X163205D01*
Y-48335D01*
D02*
G37*
G36*
X130701Y-45972D02*
X129217D01*
Y-47457D01*
X130701D01*
Y-45972D01*
D02*
G37*
G36*
X128067Y-43610D02*
X125795D01*
Y-45685D01*
X128067D01*
Y-43610D01*
D02*
G37*
G36*
X60228Y-61894D02*
X57957D01*
Y-63968D01*
X60228D01*
Y-61894D01*
D02*
G37*
G36*
X124795Y-43610D02*
X122524D01*
Y-45685D01*
X124795D01*
Y-43610D01*
D02*
G37*
G36*
X63500Y-61894D02*
X61228D01*
Y-63968D01*
X63500D01*
Y-61894D01*
D02*
G37*
G36*
X42618Y-1969D02*
X37894D01*
Y-7087D01*
X42504D01*
Y-7571D01*
X49228D01*
Y-5890D01*
X49016D01*
Y-2362D01*
X42717D01*
D01*
X42717D01*
X42618Y-2264D01*
Y-1969D01*
D02*
G37*
G36*
X67905Y-4634D02*
X65831D01*
Y-6905D01*
X67905D01*
Y-4634D01*
D02*
G37*
G36*
X74008Y-9236D02*
X71736D01*
Y-11311D01*
X74008D01*
Y-9236D01*
D02*
G37*
G36*
X9957Y-6307D02*
X5520D01*
Y-11728D01*
X9957D01*
Y-6307D01*
D02*
G37*
G36*
X26173D02*
X21736D01*
Y-11728D01*
X26173D01*
Y-6307D01*
D02*
G37*
G36*
X107768Y-1657D02*
X105496D01*
Y-3732D01*
X107768D01*
Y-1657D01*
D02*
G37*
G36*
X111039D02*
X108768D01*
Y-3732D01*
X111039D01*
Y-1657D01*
D02*
G37*
G36*
Y-4732D02*
X108768D01*
Y-6807D01*
X111039D01*
Y-4732D01*
D02*
G37*
G36*
X70980Y-4634D02*
X68906D01*
Y-6905D01*
X70980D01*
Y-4634D01*
D02*
G37*
G36*
X107768Y-4732D02*
X105496D01*
Y-6807D01*
X107768D01*
Y-4732D01*
D02*
G37*
G36*
X74008Y-12311D02*
X71736D01*
Y-14386D01*
X74008D01*
Y-12311D01*
D02*
G37*
G36*
X167142Y-30496D02*
X164870D01*
Y-32571D01*
X167142D01*
Y-30496D01*
D02*
G37*
G36*
X56783Y-30815D02*
X55299D01*
Y-32496D01*
X56783D01*
Y-30815D01*
D02*
G37*
G36*
X163870Y-30496D02*
X161598D01*
Y-32571D01*
X163870D01*
Y-30496D01*
D02*
G37*
G36*
X167142Y-33571D02*
X164870D01*
Y-35646D01*
X167142D01*
Y-33571D01*
D02*
G37*
G36*
X171646Y-31579D02*
X167799D01*
Y-34244D01*
X171646D01*
Y-31579D01*
D02*
G37*
G36*
X166059Y-18587D02*
X163000D01*
Y-20465D01*
X166059D01*
Y-18587D01*
D02*
G37*
G36*
X16831Y-9916D02*
X16060Y-10017D01*
X15342Y-10315D01*
X14725Y-10788D01*
X14252Y-11405D01*
X13954Y-12123D01*
X13852Y-12894D01*
X13954Y-13665D01*
X14252Y-14383D01*
X14725Y-15000D01*
X15342Y-15473D01*
X16060Y-15770D01*
X16831Y-15872D01*
X17602Y-15770D01*
X18320Y-15473D01*
X18937Y-15000D01*
X19410Y-14383D01*
X19707Y-13665D01*
X19809Y-12894D01*
X19707Y-12123D01*
X19410Y-11405D01*
X18937Y-10788D01*
X18320Y-10315D01*
X17602Y-10017D01*
X16831Y-9916D01*
D02*
G37*
G36*
X123441Y-24713D02*
X121169D01*
Y-26787D01*
X123441D01*
Y-24713D01*
D02*
G37*
G36*
X31610Y-28354D02*
X27173D01*
Y-29839D01*
X31610D01*
Y-28354D01*
D02*
G37*
G36*
X56783Y-28134D02*
X55299D01*
Y-29815D01*
X56783D01*
Y-28134D01*
D02*
G37*
%LPD*%
D10*
X26673Y-15256D02*
D03*
Y-27854D02*
D03*
Y-18406D02*
D03*
Y-24705D02*
D03*
Y-21555D02*
D03*
D11*
X5020Y-37303D02*
D03*
X26673Y-5807D02*
D03*
Y-37303D02*
D03*
X5020Y-5807D02*
D03*
D12*
X54527Y-38681D02*
D03*
Y-44587D02*
D03*
X55807Y-55315D02*
D03*
Y-49409D02*
D03*
X59941Y-44587D02*
D03*
Y-38681D02*
D03*
X60925Y-49409D02*
D03*
Y-55315D02*
D03*
X3150Y-51083D02*
D03*
Y-45177D02*
D03*
D13*
X61221Y-30315D02*
D03*
X57284D02*
D03*
X59252Y-35433D02*
D03*
X159252Y-36713D02*
D03*
X155315D02*
D03*
X157283Y-41831D02*
D03*
D14*
X109941Y-62992D02*
D03*
X120374D02*
D03*
D15*
X172146Y-34744D02*
D03*
Y-45374D02*
D03*
X21654Y-45276D02*
D03*
Y-55905D02*
D03*
X30413Y-45374D02*
D03*
Y-56004D02*
D03*
X91437Y-62008D02*
D03*
Y-72638D02*
D03*
D16*
X60728Y-64468D02*
D03*
Y-58957D02*
D03*
X79331Y-58760D02*
D03*
Y-64272D02*
D03*
X84842Y-58760D02*
D03*
Y-64272D02*
D03*
X78543Y-46555D02*
D03*
Y-52067D02*
D03*
X114665Y-24114D02*
D03*
Y-18602D02*
D03*
X120669Y-24213D02*
D03*
Y-29724D02*
D03*
X108268Y-9744D02*
D03*
Y-4232D02*
D03*
X125295Y-43110D02*
D03*
Y-37598D02*
D03*
X137106Y-43012D02*
D03*
Y-37500D02*
D03*
X157579Y-8465D02*
D03*
Y-2953D02*
D03*
X151969Y-2953D02*
D03*
Y-8465D02*
D03*
X74508Y-17323D02*
D03*
Y-11811D02*
D03*
X70374Y-35236D02*
D03*
Y-29724D02*
D03*
X164370Y-38583D02*
D03*
Y-33071D02*
D03*
D17*
X37697Y-18209D02*
D03*
X48327D02*
D03*
D18*
X66634Y-63681D02*
D03*
X74114D02*
D03*
X70374Y-54823D02*
D03*
X121260Y-4528D02*
D03*
X125000Y-13386D02*
D03*
X117520D02*
D03*
D19*
X105413Y-17421D02*
D03*
X103445D02*
D03*
X101476D02*
D03*
X99508D02*
D03*
X97539D02*
D03*
X95571D02*
D03*
X93602D02*
D03*
X91634D02*
D03*
X89665D02*
D03*
X87697D02*
D03*
X85728D02*
D03*
X83760D02*
D03*
Y-45374D02*
D03*
X85728D02*
D03*
X87697D02*
D03*
X89665D02*
D03*
X91634D02*
D03*
X93602D02*
D03*
X95571D02*
D03*
X97539D02*
D03*
X99508D02*
D03*
X101476D02*
D03*
X103445D02*
D03*
X105413D02*
D03*
D20*
X80610Y-20571D02*
D03*
Y-22539D02*
D03*
Y-24508D02*
D03*
Y-26476D02*
D03*
Y-28445D02*
D03*
Y-30413D02*
D03*
Y-32382D02*
D03*
Y-34350D02*
D03*
Y-36319D02*
D03*
Y-38287D02*
D03*
Y-40256D02*
D03*
Y-42224D02*
D03*
X108563D02*
D03*
Y-40256D02*
D03*
Y-38287D02*
D03*
Y-36319D02*
D03*
Y-34350D02*
D03*
Y-32382D02*
D03*
Y-30413D02*
D03*
Y-28445D02*
D03*
Y-26476D02*
D03*
Y-24508D02*
D03*
Y-22539D02*
D03*
Y-20571D02*
D03*
D21*
X94587Y-31398D02*
D03*
D22*
X100394Y-7382D02*
D03*
X82284D02*
D03*
D23*
X7776Y-45374D02*
D03*
X15256D02*
D03*
Y-54823D02*
D03*
X11516D02*
D03*
X7776D02*
D03*
D24*
X45866Y-4331D02*
D03*
Y-8071D02*
D03*
Y-11811D02*
D03*
X54921D02*
D03*
Y-8071D02*
D03*
Y-4331D02*
D03*
D25*
X100787Y-72835D02*
D03*
Y-60630D02*
D03*
D26*
X125098Y-18406D02*
D03*
X119587D02*
D03*
X34843Y-11516D02*
D03*
X40354D02*
D03*
X104429Y-50984D02*
D03*
X109941D02*
D03*
X68405Y-4134D02*
D03*
X73917D02*
D03*
X12478Y-39727D02*
D03*
X17990D02*
D03*
X40256Y-4528D02*
D03*
X34744D02*
D03*
X67618Y-49508D02*
D03*
X73130D02*
D03*
X151083Y-41929D02*
D03*
X145571D02*
D03*
X160630Y-26280D02*
D03*
X155118D02*
D03*
X90847Y-52067D02*
D03*
X85335D02*
D03*
D27*
X142913Y-6594D02*
D03*
X140945D02*
D03*
X138976D02*
D03*
X137008D02*
D03*
X135039D02*
D03*
Y-28642D02*
D03*
X137008D02*
D03*
X138976D02*
D03*
X140945D02*
D03*
X142913D02*
D03*
D28*
X43799Y-52362D02*
D03*
D29*
X39862Y-45276D02*
D03*
X41831D02*
D03*
X43799D02*
D03*
X45768D02*
D03*
X47736D02*
D03*
Y-59449D02*
D03*
X45768D02*
D03*
X43799D02*
D03*
X41831D02*
D03*
X39862D02*
D03*
D30*
X50886Y-49409D02*
D03*
Y-55315D02*
D03*
X36713D02*
D03*
Y-49409D02*
D03*
D31*
X130709Y-79331D02*
D03*
Y-71457D02*
D03*
Y-63583D02*
D03*
Y-55709D02*
D03*
X173228D02*
D03*
Y-63583D02*
D03*
Y-71457D02*
D03*
Y-79331D02*
D03*
D32*
X152362Y-47835D02*
D03*
Y-86811D02*
D03*
D33*
X131201Y-45472D02*
D03*
Y-36811D02*
D03*
D34*
X113878Y-71161D02*
D03*
Y-86122D02*
D03*
D35*
X153051Y-13484D02*
D03*
Y-17224D02*
D03*
Y-20965D02*
D03*
X162500D02*
D03*
Y-13484D02*
D03*
D36*
X36516Y-31201D02*
D03*
X48720D02*
D03*
D37*
X71063Y-43799D02*
X74606D01*
X68209Y-46654D02*
X71063Y-43799D01*
X64370Y-46654D02*
X68209D01*
X64272Y-46752D02*
X64370Y-46654D01*
X69193Y-40846D02*
X75369D01*
X78321Y-43799D02*
X82185D01*
X75369Y-40846D02*
X78321Y-43799D01*
X65158Y-36811D02*
X69193Y-40846D01*
X62008Y-25098D02*
X63386Y-26476D01*
X80610D01*
X63090Y-28445D02*
X80610D01*
X61221Y-30315D02*
X63090Y-28445D01*
X87754Y-13681D02*
X89665Y-15592D01*
X78543Y-17421D02*
X82284Y-13681D01*
X87754D01*
X89665Y-17421D02*
Y-15592D01*
X107633Y-4232D02*
X108268D01*
X104582Y-1181D02*
X107633Y-4232D01*
X71992Y-1181D02*
X104582D01*
X69040Y-4134D02*
X71992Y-1181D01*
X68405Y-4134D02*
X69040D01*
X80020Y-9646D02*
X82284Y-7382D01*
Y-8268D02*
X84707D01*
X91007Y-14567D01*
X112697Y-20571D02*
X114665Y-18602D01*
X114665D01*
X113681D02*
X114665D01*
X110630Y-15551D02*
X113681Y-18602D01*
X106595Y-12402D02*
X116535D01*
X117520Y-13386D01*
X103445Y-15551D02*
X106595Y-12402D01*
X108563Y-32382D02*
X133261D01*
X135039Y-30603D02*
Y-28642D01*
X133261Y-32382D02*
X135039Y-30603D01*
X137008Y-32185D02*
Y-28642D01*
X108563Y-34350D02*
X134843D01*
X137008Y-32185D01*
X120669Y-38287D02*
X122638Y-40256D01*
X108563Y-38287D02*
X120669D01*
X3150Y-45177D02*
X3347Y-45374D01*
X7776D01*
X75984Y-39137D02*
X79072Y-42224D01*
X75984Y-39137D02*
Y-35827D01*
X79072Y-42224D02*
X80610D01*
X87697Y-49705D02*
Y-45374D01*
X82139Y-48290D02*
X84351D01*
X85728Y-46912D01*
Y-45374D01*
X82185Y-43799D02*
X83760Y-45374D01*
X164370Y-38583D02*
X166929D01*
X168209Y-39862D01*
X161614Y-38583D02*
X164370D01*
X159744Y-36713D02*
X161614Y-38583D01*
X159252Y-36713D02*
X159744D01*
X91007Y-14567D02*
X95472D01*
X95571Y-14665D01*
Y-17421D02*
Y-14665D01*
X132480Y-13681D02*
Y-8169D01*
X128839Y-4528D02*
X132480Y-8169D01*
X121260Y-4528D02*
X128839D01*
X146949Y-17224D02*
X152559D01*
X142913Y-13189D02*
X146949Y-17224D01*
X142913Y-13189D02*
Y-6594D01*
X142224Y-2953D02*
X151969D01*
X140945Y-4232D02*
X142224Y-2953D01*
X140945Y-6594D02*
Y-4232D01*
X70473Y-54921D02*
X90748D01*
X70374Y-54823D02*
X70473Y-54921D01*
X50886Y-59449D02*
X51083Y-59252D01*
X47736Y-59449D02*
X50886D01*
X45768Y-54724D02*
X45965Y-54528D01*
X45768Y-59449D02*
Y-54724D01*
X43799Y-52756D02*
X45079Y-54035D01*
X41831Y-54331D02*
X43799Y-52362D01*
Y-52756D02*
Y-52362D01*
Y-56496D02*
Y-52756D01*
Y-52362D02*
X43799Y-52362D01*
X43799Y-56496D02*
X43799Y-56496D01*
Y-59449D02*
Y-56496D01*
X41831Y-59449D02*
Y-54331D01*
X39862Y-56299D02*
X41634Y-54528D01*
X39862Y-59449D02*
Y-56299D01*
X36713Y-49409D02*
X40846D01*
X41634Y-50197D01*
X41831Y-45276D02*
Y-41437D01*
X38386Y-42717D02*
X39862Y-44193D01*
Y-45276D02*
Y-44193D01*
X49696Y-42028D02*
X49893Y-41831D01*
X47441Y-42028D02*
X49696D01*
X45768Y-43701D02*
X47441Y-42028D01*
X45768Y-45276D02*
Y-43701D01*
X117520Y-13386D02*
X119587Y-15453D01*
Y-18406D02*
Y-15453D01*
X135039Y-18996D02*
Y-6594D01*
X123622Y-30413D02*
X135039Y-18996D01*
X99902Y-9252D02*
X108268D01*
X97539Y-11614D02*
X99902Y-9252D01*
X73917Y-4134D02*
X79921D01*
X108563Y-30413D02*
X123622D01*
X103445Y-17421D02*
Y-15551D01*
X97539Y-17421D02*
Y-11614D01*
X139665Y-40256D02*
X142913Y-37008D01*
X122638Y-40256D02*
X139665D01*
X109941Y-48917D02*
X112303Y-46555D01*
X109941Y-50984D02*
Y-48917D01*
X71457Y-63779D02*
X71555Y-63681D01*
X74114D01*
X56004Y-22343D02*
X57776Y-20571D01*
X80610D01*
X58563Y-24803D02*
X60827Y-22539D01*
X80610D01*
X26673Y-37303D02*
Y-27854D01*
X47785Y-37978D02*
Y-37549D01*
X138091Y-17520D02*
X138976Y-18406D01*
Y-28642D02*
Y-18406D01*
X105413Y-47091D02*
X109307Y-50984D01*
X109941D01*
X105413Y-47091D02*
Y-45374D01*
X101476Y-52909D02*
Y-45374D01*
X116240Y-49563D02*
Y-48917D01*
X111964Y-53839D02*
X116240Y-49563D01*
X102406Y-53839D02*
X111964D01*
X101476Y-52909D02*
X102406Y-53839D01*
X138091Y-17520D02*
X138976Y-16634D01*
Y-6594D01*
X135039D02*
X137008D01*
X140945Y-32087D02*
Y-28642D01*
X142913Y-37008D02*
Y-28642D01*
X108563Y-26476D02*
X111872D01*
X112500Y-26969D02*
X113386Y-27854D01*
X112364Y-26969D02*
X112500D01*
X111872Y-26476D02*
X112364Y-26969D01*
X108563Y-22539D02*
X113091D01*
X114665Y-24114D01*
X108563Y-20571D02*
X112697D01*
X97539Y-28445D02*
X98917Y-27067D01*
X94587Y-31398D02*
X97539Y-28445D01*
X108563D01*
X103445Y-51673D02*
Y-45374D01*
Y-51673D02*
X103543Y-51772D01*
X108563Y-42224D02*
X115945D01*
X116142Y-42421D01*
X103445Y-45374D02*
Y-40256D01*
Y-22539D02*
X108563D01*
X98917Y-27067D02*
X103248Y-22736D01*
X103445Y-22539D01*
X91634Y-28445D02*
X94587Y-31398D01*
X91634Y-28445D02*
Y-17421D01*
X80610Y-40256D02*
X85728D01*
X85925Y-40059D01*
X90256Y-35728D01*
X94587Y-31398D01*
X74114Y-63681D02*
X78445D01*
X26673Y-18406D02*
X31485D01*
X32026Y-17865D01*
Y-7246D01*
X31398Y-21555D02*
X33600Y-19353D01*
X26673Y-21555D02*
X31398D01*
X82284Y-8268D02*
Y-7382D01*
X108563Y-36319D02*
X135925D01*
X137106Y-37500D01*
X97539Y-49114D02*
Y-45374D01*
X96560Y-50593D02*
Y-50094D01*
X97539Y-49114D01*
X99508Y-52378D02*
Y-45374D01*
X98974Y-52911D02*
X99508Y-52378D01*
X56256Y-4331D02*
X63976Y-12051D01*
Y-12303D02*
Y-12051D01*
X54921Y-4331D02*
X56256D01*
X53347Y-4035D02*
X54921D01*
X40453Y-4331D02*
X45866D01*
X40256Y-4528D02*
X40453Y-4331D01*
X40650Y-11811D02*
X45866D01*
X40354Y-11516D02*
X40650Y-11811D01*
X32026Y-7246D02*
X34744Y-4528D01*
X33600Y-12758D02*
X34843Y-11516D01*
X33600Y-19353D02*
Y-12758D01*
X57677Y-11811D02*
X61122Y-15256D01*
X54921Y-11811D02*
X55216D01*
X57677D01*
X53347Y-11516D02*
X54921D01*
X55216Y-11811D01*
X91634Y-47977D02*
X93504Y-49847D01*
Y-54287D02*
Y-49847D01*
X92870Y-54921D02*
X93504Y-54287D01*
X90748Y-54921D02*
X92870D01*
X91634Y-47977D02*
Y-45374D01*
X89665Y-50886D02*
X90847Y-52067D01*
X89665Y-50886D02*
Y-45374D01*
X85335Y-52067D02*
X87697Y-49705D01*
X78543Y-52067D02*
X78543Y-52067D01*
X85335D01*
X63930Y-56991D02*
X68206D01*
X70374Y-54823D01*
X61964Y-58957D02*
X63930Y-56991D01*
X60728Y-58957D02*
X61964D01*
X70571Y-46555D02*
X78543D01*
X67815Y-49311D02*
X70571Y-46555D01*
X67815Y-49508D02*
Y-49311D01*
D38*
X70374Y-35236D02*
X72933Y-37795D01*
Y-38386D02*
Y-37795D01*
X49803Y-18209D02*
X78248D01*
X14469Y-50886D02*
X15157Y-50197D01*
X8563Y-50886D02*
X14469D01*
X60138Y-55315D02*
X60138Y-55315D01*
X50886Y-55315D02*
X60138D01*
X11516Y-56890D02*
X14567Y-59941D01*
Y-62106D02*
Y-59941D01*
X7776Y-51673D02*
X8563Y-50886D01*
X7776Y-54823D02*
Y-51673D01*
X152559Y-13484D02*
Y-7972D01*
X157579Y-2953D01*
X152559Y-20965D02*
X155118Y-23524D01*
Y-26280D02*
Y-23524D01*
X77854Y-60236D02*
X79331Y-58760D01*
X71381Y-60236D02*
X77854D01*
X67936Y-63681D02*
X71381Y-60236D01*
X66634Y-63681D02*
X67936D01*
X43799Y-45276D02*
Y-43303D01*
X47785Y-39317D02*
Y-37978D01*
X43799Y-43303D02*
X47785Y-39317D01*
X124990Y-18297D02*
X125000Y-18287D01*
X116637Y-21358D02*
X123652D01*
X125098Y-19912D02*
Y-18406D01*
X123652Y-21358D02*
X125098Y-19912D01*
X114665Y-19387D02*
X116637Y-21358D01*
X114665Y-19387D02*
Y-18602D01*
X137106Y-43012D02*
X138091Y-42028D01*
X145177D01*
X79331Y-58760D02*
X84842D01*
X160630Y-26280D02*
Y-24702D01*
X158760Y-22832D02*
Y-17989D01*
X162500Y-14249D01*
Y-13484D02*
X162992D01*
X158760Y-22832D02*
X160630Y-24702D01*
X162500Y-14249D02*
Y-13484D01*
X50886Y-49409D02*
X55807D01*
X60138Y-49409D02*
Y-45866D01*
X59547Y-45276D02*
X60138Y-45866D01*
X47736Y-45276D02*
X59547D01*
X53647Y-52362D02*
X54137Y-51873D01*
Y-51080D01*
X55807Y-49409D01*
X55807Y-49409D01*
X59252Y-38386D02*
Y-35433D01*
X58957Y-38681D02*
X59252Y-38386D01*
X49803Y-11122D02*
X52559Y-8366D01*
X54921D01*
X49803Y-18209D02*
Y-11122D01*
X45866Y-8071D02*
X49508D01*
X50689Y-6890D01*
X49409Y-5610D02*
X50689Y-6890D01*
X49409Y-5610D02*
Y-2660D01*
X48324Y-1575D02*
X49409Y-2660D01*
X32680Y-1575D02*
X48324D01*
X28448Y-5807D02*
X32680Y-1575D01*
X26673Y-5807D02*
X28448D01*
X157579Y-15551D02*
Y-8465D01*
X161122Y-4921D01*
D39*
X15628Y-41164D02*
X19882Y-36909D01*
X20177D01*
X15628Y-45002D02*
Y-41164D01*
X15256Y-45374D02*
X15628Y-45002D01*
X166339Y-60532D02*
Y-45768D01*
X163189Y-42618D02*
X166339Y-45768D01*
X151279Y-42618D02*
X163189D01*
X118996Y-62402D02*
X125689Y-55709D01*
X20177Y-36909D02*
X20571Y-36516D01*
Y-17359D01*
X166339Y-60532D02*
X169390Y-63583D01*
X173228D01*
X172047Y-45866D02*
X173228Y-47047D01*
Y-55709D02*
Y-47047D01*
X125689Y-55709D02*
X130709D01*
X100787Y-60630D02*
X106791D01*
X108563Y-62402D01*
X22674Y-15256D02*
X26673D01*
X20571Y-17359D02*
X22674Y-15256D01*
X109941Y-67224D02*
Y-62992D01*
Y-67224D02*
X113878Y-71161D01*
X108563Y-62992D02*
Y-62402D01*
D40*
X73425Y-50984D02*
Y-48819D01*
X74114Y-52362D02*
Y-51673D01*
X172047Y-45866D02*
Y-41043D01*
X16142Y-55413D02*
X29823D01*
X30413Y-56004D02*
X31102Y-55315D01*
X36713D01*
X125000Y-18287D02*
Y-13386D01*
X87795Y-61319D02*
X90748D01*
X84842Y-64272D02*
X87795Y-61319D01*
X29823Y-55413D02*
X30413Y-56004D01*
X48720Y-18602D02*
X49803Y-18209D01*
X48720Y-31201D02*
Y-18602D01*
X92224Y-75886D02*
X96260Y-79921D01*
X92224Y-75886D02*
Y-72835D01*
X100787D01*
X96260Y-79921D02*
X96457Y-79724D01*
X36417Y-40748D02*
Y-30906D01*
Y-40748D02*
X38386Y-42717D01*
X73425Y-50984D02*
X74114Y-51673D01*
X74311Y-51870D01*
X65751Y-53940D02*
X67618Y-52073D01*
X3150Y-59744D02*
Y-51083D01*
X8957Y-59744D02*
X11516Y-57185D01*
X3150Y-59744D02*
X8957D01*
X11516Y-57185D02*
Y-56890D01*
Y-54823D01*
X67618Y-52073D02*
Y-49508D01*
D41*
X22736Y-45374D02*
X30413D01*
X22441Y-56299D02*
X22736Y-56004D01*
X22441Y-62106D02*
Y-56299D01*
X22736Y-56004D02*
X30413D01*
X37697Y-18209D02*
X42531D01*
D42*
X25984Y-46555D02*
D03*
D43*
X96260Y-79921D02*
D03*
D44*
X65158Y-36811D02*
D03*
D45*
X5709Y-62303D02*
D03*
D46*
X116240Y-50197D02*
D03*
X116142Y-42421D02*
D03*
D47*
X14567Y-62106D02*
D03*
X22441D02*
D03*
D48*
X163287Y-4921D02*
D03*
X172835Y-86122D02*
D03*
D49*
X16831Y-12894D02*
D03*
Y-30217D02*
D03*
D50*
X103248Y-22736D02*
D03*
Y-27067D02*
D03*
Y-31398D02*
D03*
Y-35728D02*
D03*
Y-40059D02*
D03*
X98917Y-22736D02*
D03*
Y-27067D02*
D03*
Y-31398D02*
D03*
Y-35728D02*
D03*
Y-40059D02*
D03*
X94587Y-22736D02*
D03*
Y-27067D02*
D03*
Y-31398D02*
D03*
Y-35728D02*
D03*
Y-40059D02*
D03*
X90256Y-22736D02*
D03*
Y-27067D02*
D03*
Y-31398D02*
D03*
Y-35728D02*
D03*
Y-40059D02*
D03*
X85925Y-22736D02*
D03*
Y-27067D02*
D03*
Y-31398D02*
D03*
Y-35728D02*
D03*
Y-40059D02*
D03*
X82336Y-48684D02*
D03*
X72933Y-38386D02*
D03*
X64272Y-46752D02*
D03*
X168209Y-39862D02*
D03*
X91339Y-5217D02*
D03*
X91831Y-11909D02*
D03*
X142913Y-13189D02*
D03*
X132480Y-13681D02*
D03*
X11417Y-44488D02*
D03*
X41339Y-38583D02*
D03*
X75000Y-57677D02*
D03*
X69980Y-13976D02*
D03*
X42815Y-18307D02*
D03*
X29134Y-40650D02*
D03*
X23524D02*
D03*
X43898Y-39272D02*
D03*
X51083Y-59252D02*
D03*
X49893Y-41831D02*
D03*
X64272Y-3543D02*
D03*
X125098Y-24213D02*
D03*
X17323Y-18799D02*
D03*
X9055Y-20866D02*
D03*
X12106Y-30315D02*
D03*
X16929Y-25492D02*
D03*
X20571Y-50886D02*
D03*
X25886Y-50984D02*
D03*
X31102D02*
D03*
X54528Y-30709D02*
D03*
X74606Y-43799D02*
D03*
X112303Y-46555D02*
D03*
X71457Y-63779D02*
D03*
X56004Y-22343D02*
D03*
X58563Y-24803D02*
D03*
X62008Y-25098D02*
D03*
X20177Y-36909D02*
D03*
X15157Y-50197D02*
D03*
X157579Y-15551D02*
D03*
X138091Y-17520D02*
D03*
X139829Y-32776D02*
D03*
X125787Y-8268D02*
D03*
X42224Y-41043D02*
D03*
X146752Y-8268D02*
D03*
X144980Y-20866D02*
D03*
X173917Y-30118D02*
D03*
X165059Y-87598D02*
D03*
X136319D02*
D03*
X130315Y-87402D02*
D03*
X157677Y-31398D02*
D03*
X123228Y-49803D02*
D03*
X2756Y-26969D02*
D03*
X67323Y-8169D02*
D03*
X124803Y-87402D02*
D03*
X113386Y-27854D02*
D03*
X2756Y-20915D02*
D03*
Y-14862D02*
D03*
X11614Y-2559D02*
D03*
X17126Y-2461D02*
D03*
X42421Y-27657D02*
D03*
X42323Y-31299D02*
D03*
X54429Y-27657D02*
D03*
X94488Y-11516D02*
D03*
Y-5118D02*
D03*
X88386D02*
D03*
X112894Y-8858D02*
D03*
X151378Y-33760D02*
D03*
X145768Y-33661D02*
D03*
X145669Y-27559D02*
D03*
X151279Y-27461D02*
D03*
X121063Y-46063D02*
D03*
X54137Y-51873D02*
D03*
X131004Y-17717D02*
D03*
X96560Y-50593D02*
D03*
X63976Y-12303D02*
D03*
X98974Y-52911D02*
D03*
X61122Y-15256D02*
D03*
D51*
X45965Y-54528D02*
D03*
X41634D02*
D03*
X45965Y-50197D02*
D03*
X41634D02*
D03*
D52*
X74311Y-51870D02*
D03*
D53*
X65751Y-53940D02*
D03*
X110630Y-15551D02*
D03*
X75984Y-35827D02*
D03*
X78543Y-17421D02*
D03*
X172047Y-41043D02*
D03*
M02*
