%FSLAX25Y25*%
%MOIN*%
G70*
G01*
G75*
G04 Layer_Color=8388736*
%ADD10R,0.07874X0.01969*%
%ADD11R,0.07874X0.09843*%
%ADD12R,0.03543X0.02756*%
%ADD13R,0.01969X0.02362*%
%ADD14R,0.05906X0.05906*%
%ADD15R,0.06693X0.04331*%
%ADD16R,0.03543X0.03150*%
%ADD17R,0.04331X0.06693*%
%ADD18R,0.02362X0.04528*%
%ADD19O,0.00984X0.03543*%
%ADD20O,0.03543X0.00984*%
%ADD21R,0.22441X0.22441*%
%ADD22R,0.07480X0.10236*%
%ADD23R,0.02559X0.04331*%
%ADD24R,0.04724X0.02362*%
%ADD25R,0.06693X0.03150*%
%ADD26R,0.03150X0.03543*%
%ADD27R,0.00984X0.04331*%
%ADD28R,0.08071X0.08071*%
%ADD29O,0.00787X0.03543*%
%ADD30O,0.03543X0.00787*%
%ADD31R,0.05315X0.04724*%
%ADD32R,0.19685X0.04724*%
%ADD33R,0.01969X0.01969*%
%ADD34R,0.12992X0.05512*%
%ADD35R,0.05118X0.02756*%
%ADD36R,0.05709X0.17323*%
%ADD37C,0.00984*%
%ADD38C,0.01181*%
%ADD39C,0.01969*%
%ADD40C,0.01575*%
%ADD41C,0.03937*%
%ADD42R,0.13780X0.06496*%
%ADD43R,0.15748X0.07874*%
%ADD44C,0.05118*%
%ADD45R,0.09055X0.07087*%
%ADD46C,0.04724*%
%ADD47P,0.06392X8X112.5*%
%ADD48C,0.06000*%
%ADD49C,0.04331*%
%ADD50C,0.02756*%
%ADD51C,0.01969*%
%ADD52C,0.03543*%
%ADD53C,0.03937*%
%ADD54R,0.03937X0.05906*%
%ADD55R,0.05906X0.06890*%
%ADD56C,0.01000*%
%ADD57C,0.00787*%
%ADD58C,0.00394*%
%ADD59C,0.00606*%
%ADD60C,0.00591*%
%ADD61R,0.08661X0.02756*%
%ADD62R,0.08661X0.10630*%
%ADD63R,0.04331X0.03543*%
%ADD64R,0.02756X0.03150*%
%ADD65R,0.06693X0.06693*%
%ADD66R,0.07480X0.05118*%
%ADD67R,0.04331X0.03937*%
%ADD68R,0.05118X0.07480*%
%ADD69R,0.03150X0.05315*%
%ADD70O,0.01772X0.04331*%
%ADD71O,0.04331X0.01772*%
%ADD72R,0.23228X0.23228*%
%ADD73R,0.08268X0.11024*%
%ADD74R,0.03347X0.05118*%
%ADD75R,0.05512X0.03150*%
%ADD76R,0.07480X0.03937*%
%ADD77R,0.03937X0.04331*%
%ADD78R,0.01772X0.05118*%
%ADD79R,0.08858X0.08858*%
%ADD80O,0.01575X0.04331*%
%ADD81O,0.04331X0.01575*%
%ADD82R,0.06102X0.05512*%
%ADD83R,0.20472X0.05512*%
%ADD84R,0.02756X0.02756*%
%ADD85R,0.13780X0.06299*%
%ADD86R,0.05906X0.03543*%
%ADD87R,0.06496X0.18110*%
%ADD88R,0.16535X0.08661*%
%ADD89C,0.05906*%
%ADD90R,0.09843X0.07874*%
%ADD91C,0.05512*%
%ADD92P,0.07244X8X112.5*%
%ADD93C,0.06787*%
%ADD94C,0.02756*%
D44*
X16831Y-12894D02*
D03*
Y-30217D02*
D03*
D61*
X26673Y-15256D02*
D03*
Y-27854D02*
D03*
Y-18406D02*
D03*
Y-24705D02*
D03*
Y-21555D02*
D03*
D62*
X5020Y-37303D02*
D03*
X26673Y-5807D02*
D03*
Y-37303D02*
D03*
X5020Y-5807D02*
D03*
D63*
X54527Y-38681D02*
D03*
Y-44587D02*
D03*
X55807Y-55315D02*
D03*
Y-49409D02*
D03*
X59941Y-44587D02*
D03*
Y-38681D02*
D03*
X60925Y-49409D02*
D03*
Y-55315D02*
D03*
X3150Y-51083D02*
D03*
Y-45177D02*
D03*
D64*
X61221Y-30315D02*
D03*
X57284D02*
D03*
X59252Y-35433D02*
D03*
X159252Y-36713D02*
D03*
X155315D02*
D03*
X157283Y-41831D02*
D03*
D65*
X109941Y-62992D02*
D03*
X120374D02*
D03*
D66*
X172146Y-34744D02*
D03*
Y-45374D02*
D03*
X21654Y-45276D02*
D03*
Y-55905D02*
D03*
X30413Y-45374D02*
D03*
Y-56004D02*
D03*
X91437Y-62008D02*
D03*
Y-72638D02*
D03*
D67*
X60728Y-64468D02*
D03*
Y-58957D02*
D03*
X79331Y-58760D02*
D03*
Y-64272D02*
D03*
X84842Y-58760D02*
D03*
Y-64272D02*
D03*
X78543Y-46555D02*
D03*
Y-52067D02*
D03*
X114665Y-24114D02*
D03*
Y-18602D02*
D03*
X120669Y-24213D02*
D03*
Y-29724D02*
D03*
X108268Y-9744D02*
D03*
Y-4232D02*
D03*
X125295Y-43110D02*
D03*
Y-37598D02*
D03*
X137106Y-43012D02*
D03*
Y-37500D02*
D03*
X157579Y-8465D02*
D03*
Y-2953D02*
D03*
X151969Y-2953D02*
D03*
Y-8465D02*
D03*
X74508Y-17323D02*
D03*
Y-11811D02*
D03*
X70374Y-35236D02*
D03*
Y-29724D02*
D03*
X164370Y-38583D02*
D03*
Y-33071D02*
D03*
D68*
X37697Y-18209D02*
D03*
X48327D02*
D03*
D69*
X66634Y-63681D02*
D03*
X74114D02*
D03*
X70374Y-54823D02*
D03*
X121260Y-4528D02*
D03*
X125000Y-13386D02*
D03*
X117520D02*
D03*
D70*
X105413Y-17421D02*
D03*
X103445D02*
D03*
X101476D02*
D03*
X99508D02*
D03*
X97539D02*
D03*
X95571D02*
D03*
X93602D02*
D03*
X91634D02*
D03*
X89665D02*
D03*
X87697D02*
D03*
X85728D02*
D03*
X83760D02*
D03*
Y-45374D02*
D03*
X85728D02*
D03*
X87697D02*
D03*
X89665D02*
D03*
X91634D02*
D03*
X93602D02*
D03*
X95571D02*
D03*
X97539D02*
D03*
X99508D02*
D03*
X101476D02*
D03*
X103445D02*
D03*
X105413D02*
D03*
D71*
X80610Y-20571D02*
D03*
Y-22539D02*
D03*
Y-24508D02*
D03*
Y-26476D02*
D03*
Y-28445D02*
D03*
Y-30413D02*
D03*
Y-32382D02*
D03*
Y-34350D02*
D03*
Y-36319D02*
D03*
Y-38287D02*
D03*
Y-40256D02*
D03*
Y-42224D02*
D03*
X108563D02*
D03*
Y-40256D02*
D03*
Y-38287D02*
D03*
Y-36319D02*
D03*
Y-34350D02*
D03*
Y-32382D02*
D03*
Y-30413D02*
D03*
Y-28445D02*
D03*
Y-26476D02*
D03*
Y-24508D02*
D03*
Y-22539D02*
D03*
Y-20571D02*
D03*
D72*
X94587Y-31398D02*
D03*
D73*
X100394Y-7382D02*
D03*
X82284D02*
D03*
D74*
X7776Y-45374D02*
D03*
X15256D02*
D03*
Y-54823D02*
D03*
X11516D02*
D03*
X7776D02*
D03*
D75*
X45866Y-4331D02*
D03*
Y-8071D02*
D03*
Y-11811D02*
D03*
X54921D02*
D03*
Y-8071D02*
D03*
Y-4331D02*
D03*
D76*
X100787Y-72835D02*
D03*
Y-60630D02*
D03*
D77*
X125098Y-18406D02*
D03*
X119587D02*
D03*
X34843Y-11516D02*
D03*
X40354D02*
D03*
X104429Y-50984D02*
D03*
X109941D02*
D03*
X68405Y-4134D02*
D03*
X73917D02*
D03*
X12478Y-39727D02*
D03*
X17990D02*
D03*
X40256Y-4528D02*
D03*
X34744D02*
D03*
X67618Y-49508D02*
D03*
X73130D02*
D03*
X151083Y-41929D02*
D03*
X145571D02*
D03*
X160630Y-26280D02*
D03*
X155118D02*
D03*
X90847Y-52067D02*
D03*
X85335D02*
D03*
D78*
X142913Y-6594D02*
D03*
X140945D02*
D03*
X138976D02*
D03*
X137008D02*
D03*
X135039D02*
D03*
Y-28642D02*
D03*
X137008D02*
D03*
X138976D02*
D03*
X140945D02*
D03*
X142913D02*
D03*
D79*
X43799Y-52362D02*
D03*
D80*
X39862Y-45276D02*
D03*
X41831D02*
D03*
X43799D02*
D03*
X45768D02*
D03*
X47736D02*
D03*
Y-59449D02*
D03*
X45768D02*
D03*
X43799D02*
D03*
X41831D02*
D03*
X39862D02*
D03*
D81*
X50886Y-49409D02*
D03*
Y-55315D02*
D03*
X36713D02*
D03*
Y-49409D02*
D03*
D82*
X130709Y-79331D02*
D03*
Y-71457D02*
D03*
Y-63583D02*
D03*
Y-55709D02*
D03*
X173228D02*
D03*
Y-63583D02*
D03*
Y-71457D02*
D03*
Y-79331D02*
D03*
D83*
X152362Y-47835D02*
D03*
Y-86811D02*
D03*
D84*
X131201Y-45472D02*
D03*
Y-36811D02*
D03*
D85*
X113878Y-71161D02*
D03*
Y-86122D02*
D03*
D86*
X153051Y-13484D02*
D03*
Y-17224D02*
D03*
Y-20965D02*
D03*
X162500D02*
D03*
Y-13484D02*
D03*
D87*
X36516Y-31201D02*
D03*
X48720D02*
D03*
D88*
X96260Y-79921D02*
D03*
D89*
X65158Y-36811D02*
D03*
D90*
X5709Y-62303D02*
D03*
D91*
X116240Y-50197D02*
D03*
X116142Y-42421D02*
D03*
D92*
X14567Y-62106D02*
D03*
X22441D02*
D03*
D93*
X163287Y-4921D02*
D03*
X172835Y-86122D02*
D03*
D94*
X45965Y-54528D02*
D03*
X41634D02*
D03*
X45965Y-50197D02*
D03*
X41634D02*
D03*
M02*
