%FSLAX25Y25*%
%MOIN*%
G70*
G01*
G75*
G04 Layer_Color=16711935*
%ADD10R,0.07874X0.01969*%
%ADD11R,0.07874X0.09843*%
%ADD12R,0.03543X0.02756*%
%ADD13R,0.01969X0.02362*%
%ADD14R,0.05906X0.05906*%
%ADD15R,0.06693X0.04331*%
%ADD16R,0.03543X0.03150*%
%ADD17R,0.04331X0.06693*%
%ADD18R,0.02362X0.04528*%
%ADD19O,0.00984X0.03543*%
%ADD20O,0.03543X0.00984*%
%ADD21R,0.22441X0.22441*%
%ADD22R,0.07480X0.10236*%
%ADD23R,0.02559X0.04331*%
%ADD24R,0.04724X0.02362*%
%ADD25R,0.06693X0.03150*%
%ADD26R,0.03150X0.03543*%
%ADD27R,0.00984X0.04331*%
%ADD28R,0.08071X0.08071*%
%ADD29O,0.00787X0.03543*%
%ADD30O,0.03543X0.00787*%
%ADD31R,0.05315X0.04724*%
%ADD32R,0.19685X0.04724*%
%ADD33R,0.01969X0.01969*%
%ADD34R,0.12992X0.05512*%
%ADD35R,0.05118X0.02756*%
%ADD36R,0.05709X0.17323*%
%ADD37C,0.00984*%
%ADD38C,0.01181*%
%ADD39C,0.01969*%
%ADD40C,0.01575*%
%ADD41C,0.03937*%
%ADD42R,0.13780X0.06496*%
%ADD43R,0.15748X0.07874*%
%ADD44C,0.05118*%
%ADD45R,0.09055X0.07087*%
%ADD46C,0.04724*%
%ADD47P,0.06392X8X112.5*%
%ADD48C,0.06000*%
%ADD49C,0.04331*%
%ADD50C,0.02756*%
%ADD51C,0.01969*%
%ADD52C,0.03543*%
%ADD53C,0.03937*%
%ADD54R,0.03937X0.05906*%
%ADD55R,0.05906X0.06890*%
%ADD56C,0.01000*%
%ADD57C,0.00787*%
%ADD58C,0.00394*%
%ADD59C,0.00606*%
%ADD60C,0.00591*%
%ADD61R,0.08661X0.02756*%
%ADD62R,0.08661X0.10630*%
%ADD63R,0.04331X0.03543*%
%ADD64R,0.02756X0.03150*%
%ADD65R,0.06693X0.06693*%
%ADD66R,0.07480X0.05118*%
%ADD67R,0.04331X0.03937*%
%ADD68R,0.05118X0.07480*%
%ADD69R,0.03150X0.05315*%
%ADD70O,0.01772X0.04331*%
%ADD71O,0.04331X0.01772*%
%ADD72R,0.23228X0.23228*%
%ADD73R,0.08268X0.11024*%
%ADD74R,0.03347X0.05118*%
%ADD75R,0.05512X0.03150*%
%ADD76R,0.07480X0.03937*%
%ADD77R,0.03937X0.04331*%
%ADD78R,0.01772X0.05118*%
%ADD79R,0.08858X0.08858*%
%ADD80O,0.01575X0.04331*%
%ADD81O,0.04331X0.01575*%
%ADD82R,0.06102X0.05512*%
%ADD83R,0.20472X0.05512*%
%ADD84R,0.02756X0.02756*%
%ADD85R,0.13780X0.06299*%
%ADD86R,0.05906X0.03543*%
%ADD87R,0.06496X0.18110*%
%ADD88R,0.16535X0.08661*%
%ADD89C,0.05906*%
%ADD90R,0.09843X0.07874*%
%ADD91C,0.05512*%
%ADD92P,0.07244X8X112.5*%
%ADD93C,0.06787*%
%ADD94C,0.02756*%
%ADD95R,0.04724X0.06693*%
%ADD96R,0.06693X0.07677*%
D37*
X143209Y-84449D02*
Y-63976D01*
Y-84449D02*
X162894D01*
Y-63976D01*
X143209D02*
X162894D01*
X151476Y-74213D02*
X156201D01*
Y-80118D02*
Y-74213D01*
X151476Y-80118D02*
X156201D01*
X151476D02*
Y-74213D01*
Y-76575D02*
X153051D01*
Y-74213D01*
X144783D02*
X149508D01*
Y-80118D02*
Y-74213D01*
X144783Y-80118D02*
X149508D01*
X144783D02*
Y-74213D01*
Y-76575D02*
X146358D01*
Y-74213D01*
X151476Y-66339D02*
X156201D01*
Y-72244D02*
Y-66339D01*
X151476Y-72244D02*
X156201D01*
X151476D02*
Y-66339D01*
Y-68701D02*
X153051D01*
Y-66339D01*
X146358Y-68701D02*
Y-66339D01*
X144783Y-68701D02*
X146358D01*
X144783Y-72244D02*
Y-66339D01*
Y-72244D02*
X149508D01*
Y-66339D01*
X144783D02*
X149508D01*
D38*
X162500Y-57284D02*
X165256Y-54921D01*
X163681Y-53740D02*
X165256Y-54921D01*
X162500Y-57284D02*
X163681Y-53740D01*
X162500Y-57284D02*
X164075Y-54921D01*
X164469Y-62795D02*
X167224Y-60433D01*
X165650Y-59252D02*
X167224Y-60433D01*
X164469Y-62795D02*
X165650Y-59252D01*
X164469Y-62795D02*
X166043Y-60433D01*
D40*
X161319Y-88386D02*
Y-84842D01*
X158012Y-88386D02*
Y-84842D01*
X154705Y-88386D02*
Y-84842D01*
X151398Y-88386D02*
Y-84842D01*
X148091Y-88386D02*
Y-84842D01*
X144783Y-88386D02*
Y-84842D01*
X163287Y-82480D02*
X166831D01*
X163287Y-79173D02*
X166831D01*
X163287Y-75866D02*
X166831D01*
X163287Y-72559D02*
X166831D01*
X163287Y-69252D02*
X166831D01*
X163287Y-65945D02*
X166831D01*
X139272Y-82480D02*
X142815D01*
X139272Y-79173D02*
X142815D01*
X139272Y-75866D02*
X142815D01*
X139272Y-72559D02*
X142815D01*
X139272Y-69252D02*
X142815D01*
X139272Y-65945D02*
X142815D01*
X161319Y-63583D02*
Y-60039D01*
X158012Y-63583D02*
Y-60039D01*
X154705Y-63583D02*
Y-60039D01*
X151398Y-63583D02*
Y-60039D01*
X148091Y-63583D02*
Y-60039D01*
X144783Y-63583D02*
Y-60039D01*
D44*
X16831Y-12894D02*
D03*
Y-30217D02*
D03*
D56*
X168403Y-50584D02*
G03*
X173559Y-44281I-3841J8402D01*
G01*
X168403Y-50584D02*
G03*
X163681Y-55709I2627J-7159D01*
G01*
X170372Y-56096D02*
G03*
X175528Y-49793I-3841J8402D01*
G01*
X170372Y-56096D02*
G03*
X165650Y-61221I2627J-7159D01*
G01*
D63*
X58071Y-45571D02*
D03*
Y-51476D02*
D03*
D67*
X11417Y-48819D02*
D03*
Y-54331D02*
D03*
D88*
X96260Y-79921D02*
D03*
D89*
X65158Y-36811D02*
D03*
D90*
X5709Y-62303D02*
D03*
D91*
X116240Y-50197D02*
D03*
X116142Y-42421D02*
D03*
D92*
X14567Y-62106D02*
D03*
X22441D02*
D03*
D93*
X163287Y-4921D02*
D03*
X172835Y-86122D02*
D03*
D94*
X45965Y-54528D02*
D03*
X41634D02*
D03*
X45965Y-50197D02*
D03*
X41634D02*
D03*
D95*
X7185Y-6496D02*
D03*
Y-30118D02*
D03*
X21752D02*
D03*
Y-6496D02*
D03*
X58858D02*
D03*
Y-30118D02*
D03*
X73425D02*
D03*
Y-6496D02*
D03*
X33022D02*
D03*
Y-30118D02*
D03*
X47589D02*
D03*
Y-6496D02*
D03*
D96*
X4921Y-52264D02*
D03*
Y-37500D02*
D03*
M02*
