M48
;Layer_Color=9474304
;FILE_FORMAT=2:5
INCH,LZ
;TYPE=PLATED
T1F00S00C0.01181
T2F00S00C0.01378
T3F00S00C0.01575
T4F00S00C0.03000
T5F00S00C0.03150
T6F00S00C0.04331
%
T01
X0173917Y-0030118
X0168209Y-0039862
X0157677Y-0031398
X0151378Y-003376
X0145768Y-0033661
X0145669Y-0027559
X0151279Y-0027461
X0139829Y-0032776
X0113386Y-0027854
X0103248Y-0027067
Y-0031398
Y-0035728
Y-0040059
X0098917
Y-0035728
Y-0031398
Y-0027067
X0094587
Y-0031398
Y-0035728
Y-0040059
X0090256
Y-0035728
Y-0031398
Y-0027067
X0085925
Y-0031398
Y-0035728
Y-0040059
X0082336Y-0048684
X0074606Y-0043799
X0072933Y-0038386
X0064272Y-0046752
X0054137Y-0051873
X0045965Y-0050197
Y-0054528
X0041634
Y-0050197
X0042224Y-0041043
X0041339Y-0038583
X0043898Y-0039272
X0049893Y-0041831
X0054528Y-0030709
X0054429Y-0027657
X0042421
X0042323Y-0031299
X0029134Y-004065
X0023524
X0020177Y-0036909
X0020571Y-0050886
X0025886Y-0050984
X0031102
X0051083Y-0059252
X0071457Y-0063779
X0075Y-0057677
X009656Y-0050593
X0098974Y-0052911
X0112303Y-0046555
X0121063Y-0046063
X0123228Y-0049803
X0124803Y-0087402
X0130315
X0136319Y-0087598
X0165059
X0015157Y-0050197
X0011417Y-0044488
X0012106Y-0030315
X0002756Y-0026969
Y-0020915
Y-0014862
X0009055Y-0020866
X0011614Y-0002559
X0017126Y-0002461
X0017323Y-0018799
X0016929Y-0025492
X0042815Y-0018307
X0056004Y-0022343
X0058563Y-0024803
X0062008Y-0025098
X0061122Y-0015256
X0063976Y-0012303
X0067323Y-0008169
X0064272Y-0003543
X006998Y-0013976
X0091831Y-0011909
X0094488Y-0011516
Y-0005118
X0091339Y-0005217
X0088386Y-0005118
X0090256Y-0022736
X0094587
X0098917
X0103248
X0085925
X0125098Y-0024213
X0131004Y-0017717
X013248Y-0013681
X0138091Y-001752
X0142913Y-0013189
X0146752Y-0008268
X014498Y-0020866
X0157579Y-0015551
X0125787Y-0008268
X0112894Y-0008858
T02
X0074311Y-005187
T03
X0172047Y-0041043
X0075984Y-0035827
X0065751Y-005394
X0078543Y-0017421
X011063Y-0015551
T04
X0172835Y-0086122
X0163287Y-0004921
T05
X0022441Y-0062106
X0065158Y-0036811
X0116142Y-0042421
X011624Y-0050197
X009626Y-0079921
X0014567Y-0062106
X0005709Y-0062303
T06
X0016831Y-0030217
Y-0012894
M30
