%FSLAX25Y25*%
%MOIN*%
G70*
G01*
G75*
G04 Layer_Color=65535*
%ADD10R,0.07874X0.01969*%
%ADD11R,0.07874X0.09843*%
%ADD12R,0.03543X0.02756*%
%ADD13R,0.01969X0.02362*%
%ADD14R,0.05906X0.05906*%
%ADD15R,0.06693X0.04331*%
%ADD16R,0.03543X0.03150*%
%ADD17R,0.04331X0.06693*%
%ADD18R,0.02362X0.04528*%
%ADD19O,0.00984X0.03543*%
%ADD20O,0.03543X0.00984*%
%ADD21R,0.22441X0.22441*%
%ADD22R,0.07480X0.10236*%
%ADD23R,0.02559X0.04331*%
%ADD24R,0.04724X0.02362*%
%ADD25R,0.06693X0.03150*%
%ADD26R,0.03150X0.03543*%
%ADD27R,0.00984X0.04331*%
%ADD28R,0.08071X0.08071*%
%ADD29O,0.00787X0.03543*%
%ADD30O,0.03543X0.00787*%
%ADD31R,0.05315X0.04724*%
%ADD32R,0.19685X0.04724*%
%ADD33R,0.01969X0.01969*%
%ADD34R,0.12992X0.05512*%
%ADD35R,0.05118X0.02756*%
%ADD36R,0.05709X0.17323*%
%ADD37C,0.00984*%
%ADD38C,0.01181*%
%ADD39C,0.01969*%
%ADD40C,0.01575*%
%ADD41C,0.03937*%
%ADD42R,0.13780X0.06496*%
%ADD43R,0.15748X0.07874*%
%ADD44C,0.05118*%
%ADD45R,0.09055X0.07087*%
%ADD46C,0.04724*%
%ADD47P,0.06392X8X112.5*%
%ADD48C,0.06000*%
%ADD49C,0.04331*%
%ADD50C,0.02756*%
%ADD51C,0.01969*%
%ADD52C,0.03543*%
%ADD53C,0.03937*%
%ADD54R,0.03937X0.05906*%
%ADD55R,0.05906X0.06890*%
%ADD56C,0.01000*%
%ADD57C,0.00787*%
%ADD58C,0.00394*%
%ADD59C,0.00606*%
%ADD60C,0.00591*%
D37*
X63779Y-63681D02*
G03*
X63779Y-63681I-492J0D01*
G01*
X109055Y-14272D02*
G03*
X109055Y-14272I-492J0D01*
G01*
X4823Y-54823D02*
G03*
X4823Y-54823I-492J0D01*
G01*
X46358Y-984D02*
G03*
X46358Y-984I-492J0D01*
G01*
X114665Y-13386D02*
G03*
X114665Y-13386I-492J0D01*
G01*
X34055Y-59842D02*
G03*
X34055Y-59842I-492J0D01*
G01*
X153543Y-9941D02*
G03*
X153543Y-9941I-492J0D01*
G01*
D56*
X159252Y-67520D02*
G03*
X159252Y-67520I-6890J0D01*
G01*
X101181Y-295D02*
X104331D01*
X105512Y-1476D01*
Y-3051D02*
Y-1476D01*
X77559Y-689D02*
X79528D01*
X76772Y-1476D02*
X77559Y-689D01*
X76772Y-2657D02*
Y-1476D01*
Y-13287D02*
Y-11319D01*
Y-13287D02*
X77559Y-14075D01*
X79528D01*
X105512Y-13681D02*
Y-11713D01*
X105118Y-14075D02*
X105512Y-13681D01*
X102362Y-14075D02*
X105118D01*
X144882Y-23130D02*
X147244D01*
X145669Y-21555D02*
X147244Y-23130D01*
X145669Y-24311D02*
Y-21555D01*
Y-24311D02*
X146850Y-23130D01*
X141339D02*
X146850D01*
D57*
X55905Y-42421D02*
Y-40846D01*
X53150Y-42421D02*
Y-40846D01*
X54429Y-53150D02*
Y-51575D01*
X57185Y-53150D02*
Y-51575D01*
X58563Y-42421D02*
Y-40846D01*
X61319Y-42421D02*
Y-40846D01*
X62303Y-53150D02*
Y-51575D01*
X59547Y-53150D02*
Y-51575D01*
X175098Y-41634D02*
Y-38484D01*
X169193Y-41634D02*
Y-38484D01*
X41437Y-15256D02*
X44587D01*
X41437Y-21161D02*
X44587D01*
X24606Y-52165D02*
Y-49016D01*
X18701Y-52165D02*
Y-49016D01*
X33366Y-52264D02*
Y-49114D01*
X27461Y-52264D02*
Y-49114D01*
X64468Y-60039D02*
Y-56496D01*
X67618D01*
X76279Y-60039D02*
Y-56496D01*
X73130D02*
X76279D01*
X109153Y-45965D02*
Y-44291D01*
X107480Y-45965D02*
X109153D01*
X80020D02*
Y-44291D01*
Y-45965D02*
X81693D01*
X80020Y-18504D02*
Y-16831D01*
X81693D01*
X109153Y-18504D02*
Y-16831D01*
X107480D02*
X109153D01*
X5413Y-49114D02*
X17618D01*
X5413Y-51083D02*
X17618D01*
Y-49114D01*
X5413Y-51083D02*
Y-49114D01*
X94390Y-68898D02*
Y-65748D01*
X88484Y-68898D02*
Y-65748D01*
X124016Y-6201D02*
X127165D01*
Y-9744D02*
Y-6201D01*
X115354D02*
X118504D01*
X115354Y-9744D02*
Y-6201D01*
X1772Y-48917D02*
Y-47343D01*
X4528Y-48917D02*
Y-47343D01*
X36024Y-60138D02*
X37894D01*
X36024D02*
Y-57284D01*
X49705Y-60138D02*
X51575D01*
Y-57284D01*
Y-47441D02*
Y-44587D01*
X49705D02*
X51575D01*
X36024D02*
X37894D01*
X36024Y-47441D02*
Y-44587D01*
X168504Y-63583D02*
Y-62795D01*
Y-63583D02*
X169291D01*
Y-62795D01*
X168504D02*
X169291D01*
X134646Y-54921D02*
X135433D01*
Y-55709D02*
Y-54921D01*
X134646Y-55709D02*
X135433D01*
X134646D02*
Y-54921D01*
X137402Y-83661D02*
X167323D01*
X137402D02*
Y-50984D01*
X142520Y-48622D02*
X162205D01*
Y-86417D02*
Y-48622D01*
X142520Y-86417D02*
X162205D01*
X142520D02*
Y-48622D01*
X137402Y-50984D02*
X167323D01*
Y-83661D02*
Y-50984D01*
X128839Y-39016D02*
X133563D01*
X119980Y-81791D02*
Y-75492D01*
X107776Y-81791D02*
Y-75492D01*
X157185Y-11122D02*
X158366D01*
X157185Y-23327D02*
X158366D01*
X157185D02*
Y-11122D01*
X158366Y-23327D02*
Y-11122D01*
D58*
X129528Y-16043D02*
X148819D01*
X129528Y-19587D02*
X148819D01*
X128720Y-44409D02*
X129547D01*
X128681Y-44370D02*
X128720Y-44409D01*
X128681Y-44370D02*
Y-43465D01*
X132815Y-44449D02*
X133681D01*
Y-43583D01*
D59*
X129134Y-27461D02*
Y-7776D01*
X148819Y-27461D02*
Y-7776D01*
D60*
X9514Y-13978D02*
X8202D01*
X8858D01*
Y-17257D01*
X8202Y-17913D01*
X7546D01*
X6890Y-17257D01*
X10825Y-17913D02*
X12137D01*
X11481D01*
Y-13978D01*
X10825Y-14634D01*
X55905Y-35728D02*
X53150D01*
Y-34351D01*
X53610Y-33892D01*
X54528D01*
X54987Y-34351D01*
Y-35728D01*
Y-34810D02*
X55905Y-33892D01*
Y-31137D02*
Y-32973D01*
X54069Y-31137D01*
X53610D01*
X53150Y-31596D01*
Y-32514D01*
X53610Y-32973D01*
Y-30218D02*
X53150Y-29759D01*
Y-28841D01*
X53610Y-28382D01*
X55446D01*
X55905Y-28841D01*
Y-29759D01*
X55446Y-30218D01*
X53610D01*
X58185Y-25727D02*
Y-23890D01*
X57726Y-23431D01*
X56808D01*
X56349Y-23890D01*
Y-25727D01*
X56808Y-26186D01*
X57726D01*
X57267Y-25267D02*
X58185Y-26186D01*
X57726D02*
X58185Y-25727D01*
X60481Y-26186D02*
Y-23431D01*
X59104Y-24808D01*
X60941D01*
X112795Y-56300D02*
Y-59055D01*
X114173D01*
X114632Y-58596D01*
Y-56759D01*
X114173Y-56300D01*
X112795D01*
X115550Y-56759D02*
X116009Y-56300D01*
X116928D01*
X117387Y-56759D01*
Y-57218D01*
X116928Y-57678D01*
X116469D01*
X116928D01*
X117387Y-58137D01*
Y-58596D01*
X116928Y-59055D01*
X116009D01*
X115550Y-58596D01*
X51575Y-60236D02*
Y-57481D01*
X52952D01*
X53412Y-57940D01*
Y-58859D01*
X52952Y-59318D01*
X51575D01*
X52493D02*
X53412Y-60236D01*
X54330D02*
X55248D01*
X54789D01*
Y-57481D01*
X54330Y-57940D01*
X56626D02*
X57085Y-57481D01*
X58003D01*
X58462Y-57940D01*
Y-58399D01*
X58003Y-58859D01*
X58462Y-59318D01*
Y-59777D01*
X58003Y-60236D01*
X57085D01*
X56626Y-59777D01*
Y-59318D01*
X57085Y-58859D01*
X56626Y-58399D01*
Y-57940D01*
X57085Y-58859D02*
X58003D01*
X64665Y-45079D02*
X62304D01*
Y-43898D01*
X62697Y-43505D01*
X63485D01*
X63878Y-43898D01*
Y-45079D01*
Y-44292D02*
X64665Y-43505D01*
Y-42717D02*
Y-41930D01*
Y-42324D01*
X62304D01*
X62697Y-42717D01*
X62304Y-40749D02*
Y-39175D01*
X62697D01*
X64272Y-40749D01*
X64665D01*
X170636Y-48984D02*
X170177Y-48524D01*
X169258D01*
X168799Y-48984D01*
Y-50820D01*
X169258Y-51279D01*
X170177D01*
X170636Y-50820D01*
X171554Y-51279D02*
X172473D01*
X172013D01*
Y-48524D01*
X171554Y-48984D01*
X173850D02*
X174309Y-48524D01*
X175228D01*
X175687Y-48984D01*
Y-49443D01*
X175228Y-49902D01*
X174768D01*
X175228D01*
X175687Y-50361D01*
Y-50820D01*
X175228Y-51279D01*
X174309D01*
X173850Y-50820D01*
X89730Y-86090D02*
X89271Y-85631D01*
X88353D01*
X87894Y-86090D01*
Y-86549D01*
X88353Y-87008D01*
X89271D01*
X89730Y-87467D01*
Y-87927D01*
X89271Y-88386D01*
X88353D01*
X87894Y-87927D01*
X92026Y-88386D02*
X91108D01*
X90649Y-87927D01*
Y-87008D01*
X91108Y-86549D01*
X92026D01*
X92485Y-87008D01*
Y-87467D01*
X90649D01*
X93404Y-88386D02*
Y-86549D01*
X94781D01*
X95240Y-87008D01*
Y-88386D01*
X96159D02*
X97536D01*
X97995Y-87927D01*
X97536Y-87467D01*
X96618D01*
X96159Y-87008D01*
X96618Y-86549D01*
X97995D01*
X99373Y-88386D02*
X100291D01*
X100751Y-87927D01*
Y-87008D01*
X100291Y-86549D01*
X99373D01*
X98914Y-87008D01*
Y-87927D01*
X99373Y-88386D01*
X101669Y-86549D02*
Y-88386D01*
Y-87467D01*
X102128Y-87008D01*
X102587Y-86549D01*
X103046D01*
X53051Y-65354D02*
Y-62599D01*
X54429D01*
X54888Y-63059D01*
Y-63977D01*
X54429Y-64436D01*
X53051D01*
X53970D02*
X54888Y-65354D01*
X57643Y-62599D02*
X55806D01*
Y-63977D01*
X56725Y-63518D01*
X57184D01*
X57643Y-63977D01*
Y-64895D01*
X57184Y-65354D01*
X56265D01*
X55806Y-64895D01*
X77658Y-56791D02*
Y-54036D01*
X79035D01*
X79494Y-54496D01*
Y-55414D01*
X79035Y-55873D01*
X77658D01*
X78576D02*
X79494Y-56791D01*
X82249D02*
X80413D01*
X82249Y-54955D01*
Y-54496D01*
X81790Y-54036D01*
X80872D01*
X80413Y-54496D01*
X53412Y-17389D02*
X52952Y-16930D01*
X52034D01*
X51575Y-17389D01*
Y-19226D01*
X52034Y-19685D01*
X52952D01*
X53412Y-19226D01*
X54330Y-19685D02*
X55248D01*
X54789D01*
Y-16930D01*
X54330Y-17389D01*
X58462Y-19685D02*
X56626D01*
X58462Y-17848D01*
Y-17389D01*
X58003Y-16930D01*
X57085D01*
X56626Y-17389D01*
X20736Y-50919D02*
X20276Y-51378D01*
Y-52297D01*
X20736Y-52756D01*
X22572D01*
X23031Y-52297D01*
Y-51378D01*
X22572Y-50919D01*
Y-50001D02*
X23031Y-49542D01*
Y-48623D01*
X22572Y-48164D01*
X20736D01*
X20276Y-48623D01*
Y-49542D01*
X20736Y-50001D01*
X21195D01*
X21654Y-49542D01*
Y-48164D01*
X29297Y-62271D02*
X28838Y-61812D01*
X27920D01*
X27461Y-62271D01*
Y-64108D01*
X27920Y-64567D01*
X28838D01*
X29297Y-64108D01*
X30216Y-64567D02*
X31134D01*
X30675D01*
Y-61812D01*
X30216Y-62271D01*
X32511D02*
X32971Y-61812D01*
X33889D01*
X34348Y-62271D01*
Y-64108D01*
X33889Y-64567D01*
X32971D01*
X32511Y-64108D01*
Y-62271D01*
X70242Y-60958D02*
Y-59122D01*
X69783Y-58662D01*
X68865D01*
X68405Y-59122D01*
Y-60958D01*
X68865Y-61417D01*
X69783D01*
X69324Y-60499D02*
X70242Y-61417D01*
X69783D02*
X70242Y-60958D01*
X71161Y-61417D02*
X72079D01*
X71620D01*
Y-58662D01*
X71161Y-59122D01*
X86910Y-12206D02*
Y-14502D01*
X87369Y-14961D01*
X88287D01*
X88746Y-14502D01*
Y-12206D01*
X89665Y-14961D02*
X90583D01*
X90124D01*
Y-12206D01*
X89665Y-12665D01*
X89862Y-6792D02*
X91699D01*
Y-7251D01*
X89862Y-9088D01*
Y-9547D01*
X91699D01*
X92617D02*
X93536D01*
X93076D01*
Y-6792D01*
X92617Y-7251D01*
X99Y-57677D02*
X2395D01*
X2854Y-57218D01*
Y-56300D01*
X2395Y-55840D01*
X99D01*
X2854Y-53545D02*
X99D01*
X1477Y-54922D01*
Y-53086D01*
X48918Y-12500D02*
X51214D01*
X51673Y-12041D01*
Y-11123D01*
X51214Y-10663D01*
X48918D01*
X49377Y-9745D02*
X48918Y-9286D01*
Y-8367D01*
X49377Y-7908D01*
X49837D01*
X50296Y-8367D01*
Y-8827D01*
Y-8367D01*
X50755Y-7908D01*
X51214D01*
X51673Y-8367D01*
Y-9286D01*
X51214Y-9745D01*
X98819Y-58169D02*
Y-55414D01*
X100196D01*
X100656Y-55873D01*
Y-56792D01*
X100196Y-57251D01*
X98819D01*
X99737D02*
X100656Y-58169D01*
X101574D02*
X102492D01*
X102033D01*
Y-55414D01*
X101574Y-55873D01*
X83760Y-56693D02*
Y-53938D01*
X85137D01*
X85597Y-54397D01*
Y-55315D01*
X85137Y-55775D01*
X83760D01*
X84678D02*
X85597Y-56693D01*
X87892D02*
Y-53938D01*
X86515Y-55315D01*
X88352D01*
X123130Y-24016D02*
Y-21261D01*
X124507D01*
X124967Y-21720D01*
Y-22638D01*
X124507Y-23097D01*
X123130D01*
X124048D02*
X124967Y-24016D01*
X125885Y-21720D02*
X126344Y-21261D01*
X127262D01*
X127722Y-21720D01*
Y-22179D01*
X127262Y-22638D01*
X127722Y-23097D01*
Y-23557D01*
X127262Y-24016D01*
X126344D01*
X125885Y-23557D01*
Y-23097D01*
X126344Y-22638D01*
X125885Y-22179D01*
Y-21720D01*
X126344Y-22638D02*
X127262D01*
X119095Y-53937D02*
X120013D01*
X119554D01*
Y-52100D01*
X119095D01*
X121850Y-53937D02*
X122768D01*
X123227Y-53478D01*
Y-52560D01*
X122768Y-52100D01*
X121850D01*
X121390Y-52560D01*
Y-53478D01*
X121850Y-53937D01*
X113746Y-37238D02*
X112369D01*
X111909Y-37697D01*
Y-38616D01*
X112369Y-39075D01*
X113746D01*
X114664D02*
X115583D01*
X115124D01*
Y-36320D01*
X114664D01*
X116960Y-39075D02*
Y-36320D01*
Y-38157D02*
X118338Y-37238D01*
X116960Y-38157D02*
X118338Y-39075D01*
X115485Y-28116D02*
X115944Y-27657D01*
Y-26739D01*
X115485Y-26280D01*
X113648D01*
X113189Y-26739D01*
Y-27657D01*
X113648Y-28116D01*
X113189Y-29035D02*
Y-29953D01*
Y-29494D01*
X115944D01*
X115485Y-29035D01*
X115944Y-33167D02*
X115485Y-32249D01*
X114567Y-31330D01*
X113648D01*
X113189Y-31790D01*
Y-32708D01*
X113648Y-33167D01*
X114107D01*
X114567Y-32708D01*
Y-31330D01*
X105577Y-53807D02*
X105118Y-53347D01*
X104199D01*
X103740Y-53807D01*
Y-55643D01*
X104199Y-56102D01*
X105118D01*
X105577Y-55643D01*
X106495Y-56102D02*
X107413D01*
X106954D01*
Y-53347D01*
X106495Y-53807D01*
X110628Y-53347D02*
X108791D01*
Y-54725D01*
X109709Y-54266D01*
X110169D01*
X110628Y-54725D01*
Y-55643D01*
X110169Y-56102D01*
X109250D01*
X108791Y-55643D01*
X91601Y-56464D02*
X91141Y-56005D01*
X90223D01*
X89764Y-56464D01*
Y-58301D01*
X90223Y-58760D01*
X91141D01*
X91601Y-58301D01*
X92519Y-58760D02*
X93437D01*
X92978D01*
Y-56005D01*
X92519Y-56464D01*
X120898Y-33726D02*
X121357Y-33267D01*
Y-32349D01*
X120898Y-31890D01*
X119062D01*
X118602Y-32349D01*
Y-33267D01*
X119062Y-33726D01*
X118602Y-36022D02*
X121357D01*
X119980Y-34645D01*
Y-36481D01*
X71226Y-7645D02*
X70767Y-7186D01*
X69849D01*
X69390Y-7645D01*
Y-9482D01*
X69849Y-9941D01*
X70767D01*
X71226Y-9482D01*
X72145Y-7186D02*
X73981D01*
Y-7645D01*
X72145Y-9482D01*
Y-9941D01*
X112827Y-6069D02*
X113286Y-5610D01*
Y-4691D01*
X112827Y-4232D01*
X110991D01*
X110531Y-4691D01*
Y-5610D01*
X110991Y-6069D01*
X112827Y-6987D02*
X113286Y-7446D01*
Y-8365D01*
X112827Y-8824D01*
X112368D01*
X111909Y-8365D01*
X111450Y-8824D01*
X110991D01*
X110531Y-8365D01*
Y-7446D01*
X110991Y-6987D01*
X111450D01*
X111909Y-7446D01*
X112368Y-6987D01*
X112827D01*
X111909Y-7446D02*
Y-8365D01*
X126246Y-4364D02*
Y-2527D01*
X125787Y-2068D01*
X124869D01*
X124409Y-2527D01*
Y-4364D01*
X124869Y-4823D01*
X125787D01*
X125328Y-3904D02*
X126246Y-4823D01*
X125787D02*
X126246Y-4364D01*
X127164Y-2527D02*
X127624Y-2068D01*
X128542D01*
X129001Y-2527D01*
Y-2986D01*
X128542Y-3445D01*
X128083D01*
X128542D01*
X129001Y-3904D01*
Y-4364D01*
X128542Y-4823D01*
X127624D01*
X127164Y-4364D01*
X35039Y-40454D02*
Y-42750D01*
X35498Y-43209D01*
X36417D01*
X36876Y-42750D01*
Y-40454D01*
X39631D02*
X37794D01*
Y-41831D01*
X38713Y-41372D01*
X39172D01*
X39631Y-41831D01*
Y-42750D01*
X39172Y-43209D01*
X38254D01*
X37794Y-42750D01*
X14337Y-34515D02*
X13878Y-34056D01*
X12959D01*
X12500Y-34515D01*
Y-36352D01*
X12959Y-36811D01*
X13878D01*
X14337Y-36352D01*
X15255Y-36811D02*
X16173D01*
X15714D01*
Y-34056D01*
X15255Y-34515D01*
X17551Y-36811D02*
X18469D01*
X18010D01*
Y-34056D01*
X17551Y-34515D01*
X146653Y-53249D02*
X149277D01*
X147966D01*
Y-57185D01*
X150589D02*
X151901D01*
X151245D01*
Y-53249D01*
X150589Y-53905D01*
X122736Y-35138D02*
Y-32383D01*
X124114D01*
X124573Y-32842D01*
Y-33760D01*
X124114Y-34220D01*
X122736D01*
X123655D02*
X124573Y-35138D01*
X125491Y-32383D02*
X127328D01*
Y-32842D01*
X125491Y-34679D01*
Y-35138D01*
X134252D02*
Y-32383D01*
X135629D01*
X136089Y-32842D01*
Y-33760D01*
X135629Y-34220D01*
X134252D01*
X135170D02*
X136089Y-35138D01*
X138844Y-32383D02*
X137925Y-32842D01*
X137007Y-33760D01*
Y-34679D01*
X137466Y-35138D01*
X138384D01*
X138844Y-34679D01*
Y-34220D01*
X138384Y-33760D01*
X137007D01*
X65650Y-51575D02*
X62895D01*
Y-50197D01*
X63354Y-49738D01*
X64272D01*
X64731Y-50197D01*
Y-51575D01*
Y-50656D02*
X65650Y-49738D01*
X63354Y-48820D02*
X62895Y-48361D01*
Y-47442D01*
X63354Y-46983D01*
X63813D01*
X64272Y-47442D01*
Y-47901D01*
Y-47442D01*
X64731Y-46983D01*
X65190D01*
X65650Y-47442D01*
Y-48361D01*
X65190Y-48820D01*
X160990Y-43143D02*
Y-41306D01*
X160531Y-40847D01*
X159613D01*
X159153Y-41306D01*
Y-43143D01*
X159613Y-43602D01*
X160531D01*
X160072Y-42684D02*
X160990Y-43602D01*
X160531D02*
X160990Y-43143D01*
X163745Y-43602D02*
X161909D01*
X163745Y-41766D01*
Y-41306D01*
X163286Y-40847D01*
X162368D01*
X161909Y-41306D01*
X129134Y-32383D02*
Y-35138D01*
X130511D01*
X130971Y-34679D01*
Y-32842D01*
X130511Y-32383D01*
X129134D01*
X131889Y-35138D02*
X132807D01*
X132348D01*
Y-32383D01*
X131889Y-32842D01*
X147309Y-36680D02*
X146850Y-36221D01*
X145932D01*
X145472Y-36680D01*
Y-38517D01*
X145932Y-38976D01*
X146850D01*
X147309Y-38517D01*
X148228Y-36680D02*
X148687Y-36221D01*
X149605D01*
X150064Y-36680D01*
Y-37140D01*
X149605Y-37599D01*
X149146D01*
X149605D01*
X150064Y-38058D01*
Y-38517D01*
X149605Y-38976D01*
X148687D01*
X148228Y-38517D01*
X114337Y-77330D02*
X113877Y-76871D01*
X112959D01*
X112500Y-77330D01*
Y-79167D01*
X112959Y-79626D01*
X113877D01*
X114337Y-79167D01*
X117092Y-79626D02*
X115255D01*
X117092Y-77789D01*
Y-77330D01*
X116632Y-76871D01*
X115714D01*
X115255Y-77330D01*
X157447Y-29397D02*
X156988Y-28938D01*
X156069D01*
X155610Y-29397D01*
Y-31234D01*
X156069Y-31693D01*
X156988D01*
X157447Y-31234D01*
X160202Y-28938D02*
X158365D01*
Y-30315D01*
X159284Y-29856D01*
X159743D01*
X160202Y-30315D01*
Y-31234D01*
X159743Y-31693D01*
X158824D01*
X158365Y-31234D01*
X162565Y-8826D02*
X162106Y-8367D01*
X161188D01*
X160728Y-8826D01*
Y-10663D01*
X161188Y-11122D01*
X162106D01*
X162565Y-10663D01*
X165320Y-8367D02*
X164402Y-8826D01*
X163483Y-9745D01*
Y-10663D01*
X163943Y-11122D01*
X164861D01*
X165320Y-10663D01*
Y-10204D01*
X164861Y-9745D01*
X163483D01*
X147539Y-9449D02*
X144784D01*
Y-8071D01*
X145244Y-7612D01*
X146162D01*
X146621Y-8071D01*
Y-9449D01*
Y-8530D02*
X147539Y-7612D01*
Y-6694D02*
Y-5776D01*
Y-6235D01*
X144784D01*
X145244Y-6694D01*
X144784Y-2561D02*
Y-4398D01*
X146162D01*
X145703Y-3480D01*
Y-3020D01*
X146162Y-2561D01*
X147080D01*
X147539Y-3020D01*
Y-3939D01*
X147080Y-4398D01*
X161909Y-16241D02*
Y-18537D01*
X162369Y-18996D01*
X163287D01*
X163746Y-18537D01*
Y-16241D01*
X166501Y-18996D02*
X164664D01*
X166501Y-17159D01*
Y-16700D01*
X166042Y-16241D01*
X165124D01*
X164664Y-16700D01*
X69358Y-16372D02*
X68898Y-16831D01*
Y-17750D01*
X69358Y-18209D01*
X71194D01*
X71653Y-17750D01*
Y-16831D01*
X71194Y-16372D01*
X71653Y-15454D02*
Y-14535D01*
Y-14995D01*
X68898D01*
X69358Y-15454D01*
X71653Y-11780D02*
X68898D01*
X70276Y-13158D01*
Y-11321D01*
X41043Y-33072D02*
Y-35827D01*
X42880D01*
X43798D02*
X44717D01*
X44258D01*
Y-33072D01*
X43798Y-33531D01*
X66634Y-27362D02*
Y-24607D01*
X68011D01*
X68471Y-25066D01*
Y-25985D01*
X68011Y-26444D01*
X66634D01*
X67552D02*
X68471Y-27362D01*
X69389D02*
X70307D01*
X69848D01*
Y-24607D01*
X69389Y-25066D01*
X71685Y-26903D02*
X72144Y-27362D01*
X73062D01*
X73521Y-26903D01*
Y-25066D01*
X73062Y-24607D01*
X72144D01*
X71685Y-25066D01*
Y-25526D01*
X72144Y-25985D01*
X73521D01*
X163091Y-31102D02*
Y-28347D01*
X164468D01*
X164927Y-28806D01*
Y-29725D01*
X164468Y-30184D01*
X163091D01*
X164009D02*
X164927Y-31102D01*
X167682D02*
X165846D01*
X167682Y-29266D01*
Y-28806D01*
X167223Y-28347D01*
X166305D01*
X165846Y-28806D01*
X170437Y-31102D02*
X168601D01*
X170437Y-29266D01*
Y-28806D01*
X169978Y-28347D01*
X169060D01*
X168601Y-28806D01*
X93012Y-53445D02*
Y-50690D01*
X94389D01*
X94849Y-51149D01*
Y-52067D01*
X94389Y-52526D01*
X93012D01*
X93930D02*
X94849Y-53445D01*
X95767D02*
X96685D01*
X96226D01*
Y-50690D01*
X95767Y-51149D01*
X99900Y-53445D02*
X98063D01*
X99900Y-51608D01*
Y-51149D01*
X99440Y-50690D01*
X98522D01*
X98063Y-51149D01*
M02*
