G04 Layer_Color=16711935*
%FSLAX25Y25*%
%MOIN*%
G70*
G01*
G75*
%ADD47C,0.01181*%
%ADD48C,0.00984*%
%ADD51C,0.01575*%
%ADD56C,0.06693*%
%ADD72C,0.01000*%
G04:AMPARAMS|DCode=75|XSize=43.31mil|YSize=39.37mil|CornerRadius=11.81mil|HoleSize=0mil|Usage=FLASHONLY|Rotation=0.000|XOffset=0mil|YOffset=0mil|HoleType=Round|Shape=RoundedRectangle|*
%AMROUNDEDRECTD75*
21,1,0.04331,0.01575,0,0,0.0*
21,1,0.01969,0.03937,0,0,0.0*
1,1,0.02362,0.00984,-0.00787*
1,1,0.02362,-0.00984,-0.00787*
1,1,0.02362,-0.00984,0.00787*
1,1,0.02362,0.00984,0.00787*
%
%ADD75ROUNDEDRECTD75*%
G04:AMPARAMS|DCode=77|XSize=27.56mil|YSize=31.5mil|CornerRadius=8.86mil|HoleSize=0mil|Usage=FLASHONLY|Rotation=180.000|XOffset=0mil|YOffset=0mil|HoleType=Round|Shape=RoundedRectangle|*
%AMROUNDEDRECTD77*
21,1,0.02756,0.01378,0,0,180.0*
21,1,0.00984,0.03150,0,0,180.0*
1,1,0.01772,-0.00492,0.00689*
1,1,0.01772,0.00492,0.00689*
1,1,0.01772,0.00492,-0.00689*
1,1,0.01772,-0.00492,-0.00689*
%
%ADD77ROUNDEDRECTD77*%
G04:AMPARAMS|DCode=79|XSize=43.31mil|YSize=39.37mil|CornerRadius=11.81mil|HoleSize=0mil|Usage=FLASHONLY|Rotation=90.000|XOffset=0mil|YOffset=0mil|HoleType=Round|Shape=RoundedRectangle|*
%AMROUNDEDRECTD79*
21,1,0.04331,0.01575,0,0,90.0*
21,1,0.01969,0.03937,0,0,90.0*
1,1,0.02362,0.00787,0.00984*
1,1,0.02362,0.00787,-0.00984*
1,1,0.02362,-0.00787,-0.00984*
1,1,0.02362,-0.00787,0.00984*
%
%ADD79ROUNDEDRECTD79*%
%ADD111C,0.07480*%
%ADD112O,0.05512X0.04724*%
G04:AMPARAMS|DCode=113|XSize=66.93mil|YSize=66.93mil|CornerRadius=18.7mil|HoleSize=0mil|Usage=FLASHONLY|Rotation=90.000|XOffset=0mil|YOffset=0mil|HoleType=Round|Shape=RoundedRectangle|*
%AMROUNDEDRECTD113*
21,1,0.06693,0.02953,0,0,90.0*
21,1,0.02953,0.06693,0,0,90.0*
1,1,0.03740,0.01476,0.01476*
1,1,0.03740,0.01476,-0.01476*
1,1,0.03740,-0.01476,-0.01476*
1,1,0.03740,-0.01476,0.01476*
%
%ADD113ROUNDEDRECTD113*%
%ADD114C,0.04724*%
G04:AMPARAMS|DCode=115|XSize=98.43mil|YSize=78.74mil|CornerRadius=21.65mil|HoleSize=0mil|Usage=FLASHONLY|Rotation=180.000|XOffset=0mil|YOffset=0mil|HoleType=Round|Shape=RoundedRectangle|*
%AMROUNDEDRECTD115*
21,1,0.09843,0.03543,0,0,180.0*
21,1,0.05512,0.07874,0,0,180.0*
1,1,0.04331,-0.02756,0.01772*
1,1,0.04331,0.02756,0.01772*
1,1,0.04331,0.02756,-0.01772*
1,1,0.04331,-0.02756,-0.01772*
%
%ADD115ROUNDEDRECTD115*%
%ADD116R,0.14567X0.08661*%
%ADD117R,0.02756X0.03150*%
G04:AMPARAMS|DCode=118|XSize=39.37mil|YSize=62.99mil|CornerRadius=11.81mil|HoleSize=0mil|Usage=FLASHONLY|Rotation=180.000|XOffset=0mil|YOffset=0mil|HoleType=Round|Shape=RoundedRectangle|*
%AMROUNDEDRECTD118*
21,1,0.03937,0.03937,0,0,180.0*
21,1,0.01575,0.06299,0,0,180.0*
1,1,0.02362,-0.00787,0.01969*
1,1,0.02362,0.00787,0.01969*
1,1,0.02362,0.00787,-0.01969*
1,1,0.02362,-0.00787,-0.01969*
%
%ADD118ROUNDEDRECTD118*%
G04:AMPARAMS|DCode=119|XSize=66.93mil|YSize=47.24mil|CornerRadius=13.78mil|HoleSize=0mil|Usage=FLASHONLY|Rotation=270.000|XOffset=0mil|YOffset=0mil|HoleType=Round|Shape=RoundedRectangle|*
%AMROUNDEDRECTD119*
21,1,0.06693,0.01969,0,0,270.0*
21,1,0.03937,0.04724,0,0,270.0*
1,1,0.02756,-0.00984,-0.01969*
1,1,0.02756,-0.00984,0.01969*
1,1,0.02756,0.00984,0.01969*
1,1,0.02756,0.00984,-0.01969*
%
%ADD119ROUNDEDRECTD119*%
G04:AMPARAMS|DCode=120|XSize=66.93mil|YSize=76.77mil|CornerRadius=18.7mil|HoleSize=0mil|Usage=FLASHONLY|Rotation=270.000|XOffset=0mil|YOffset=0mil|HoleType=Round|Shape=RoundedRectangle|*
%AMROUNDEDRECTD120*
21,1,0.06693,0.03937,0,0,270.0*
21,1,0.02953,0.07677,0,0,270.0*
1,1,0.03740,-0.01969,-0.01476*
1,1,0.03740,-0.01969,0.01476*
1,1,0.03740,0.01969,0.01476*
1,1,0.03740,0.01969,-0.01476*
%
%ADD120ROUNDEDRECTD120*%
D47*
X163935Y-62457D02*
X165510Y-60094D01*
X163935Y-62457D02*
X165116Y-58913D01*
X166691Y-60094D01*
X163935Y-62457D02*
X166691Y-60094D01*
X161967Y-56945D02*
X163541Y-54583D01*
X161967Y-56945D02*
X163148Y-53402D01*
X164722Y-54583D01*
X161967Y-56945D02*
X164722Y-54583D01*
D48*
X144250Y-66000D02*
X148974D01*
Y-71905D02*
Y-66000D01*
X144250Y-71905D02*
X148974D01*
X144250D02*
Y-66000D01*
Y-68362D02*
X145825D01*
Y-66000D01*
X152518Y-68362D02*
Y-66000D01*
X150943Y-68362D02*
X152518D01*
X150943Y-71905D02*
Y-66000D01*
Y-71905D02*
X155667D01*
Y-66000D01*
X150943D02*
X155667D01*
X145825Y-76236D02*
Y-73874D01*
X144250Y-76236D02*
X145825D01*
X144250Y-79779D02*
Y-73874D01*
Y-79779D02*
X148974D01*
Y-73874D01*
X144250D02*
X148974D01*
X152518Y-76236D02*
Y-73874D01*
X150943Y-76236D02*
X152518D01*
X150943Y-79779D02*
Y-73874D01*
Y-79779D02*
X155667D01*
Y-73874D01*
X150943D02*
X155667D01*
X142675Y-63638D02*
X162360D01*
Y-84110D02*
Y-63638D01*
X142675Y-84110D02*
X162360D01*
X142675D02*
Y-63638D01*
D51*
X144250Y-63244D02*
Y-59701D01*
X147557Y-63244D02*
Y-59701D01*
X150864Y-63244D02*
Y-59701D01*
X154171Y-63244D02*
Y-59701D01*
X157478Y-63244D02*
Y-59701D01*
X160785Y-63244D02*
Y-59701D01*
X138738Y-65606D02*
X142281D01*
X138738Y-68913D02*
X142281D01*
X138738Y-72220D02*
X142281D01*
X138738Y-75528D02*
X142281D01*
X138738Y-78835D02*
X142281D01*
X138738Y-82142D02*
X142281D01*
X162754Y-65606D02*
X166297D01*
X162754Y-68913D02*
X166297D01*
X162754Y-72220D02*
X166297D01*
X162754Y-75528D02*
X166297D01*
X162754Y-78835D02*
X166297D01*
X162754Y-82142D02*
X166297D01*
X144250Y-88047D02*
Y-84504D01*
X147557Y-88047D02*
Y-84504D01*
X150864Y-88047D02*
Y-84504D01*
X154171Y-88047D02*
Y-84504D01*
X157478Y-88047D02*
Y-84504D01*
X160785Y-88047D02*
Y-84504D01*
D56*
X13750Y-62795D02*
D03*
D72*
X169838Y-55757D02*
G03*
X165116Y-60882I2627J-7159D01*
G01*
X169838Y-55757D02*
G03*
X174994Y-49454I-3841J8402D01*
G01*
X167870Y-50246D02*
G03*
X163148Y-55370I2627J-7159D01*
G01*
X167870Y-50246D02*
G03*
X173026Y-43943I-3841J8402D01*
G01*
D75*
X30750Y-61756D02*
D03*
Y-56244D02*
D03*
X55800Y-56112D02*
D03*
Y-50600D02*
D03*
D77*
X20500Y-54896D02*
D03*
Y-50604D02*
D03*
D79*
X29035Y-36811D02*
D03*
X23524D02*
D03*
X18724Y-36753D02*
D03*
X13213D02*
D03*
D111*
X171500Y-85888D02*
D03*
X165750Y-4250D02*
D03*
D112*
X114500Y-43500D02*
D03*
Y-48500D02*
D03*
D113*
X21654Y-62795D02*
D03*
D114*
X65000Y-33750D02*
D03*
X54500D02*
D03*
D115*
X5750Y-61750D02*
D03*
D116*
X96500Y-79500D02*
D03*
D117*
X78250Y-24037D02*
D03*
Y-19746D02*
D03*
D118*
X56339Y-39250D02*
D03*
X65000D02*
D03*
D119*
X33022Y-6496D02*
D03*
Y-30118D02*
D03*
X47589D02*
D03*
Y-6496D02*
D03*
X21567Y-30500D02*
D03*
Y-6878D02*
D03*
X7000D02*
D03*
Y-30500D02*
D03*
X58858Y-6496D02*
D03*
Y-30118D02*
D03*
X73425D02*
D03*
Y-6496D02*
D03*
D120*
X5020Y-42520D02*
D03*
X19783D02*
D03*
M02*
