M48
;Layer_Color=9474304
;FILE_FORMAT=2:5
INCH,LZ
;TYPE=PLATED
T1F00S00C0.01181
T2F00S00C0.01732
T3F00S00C0.01968
T4F00S00C0.03150
T5F00S00C0.03543
%
T01
X01745Y-007125
X01725Y-00475
Y-00425
Y-00375
Y-00325
X01675
X01625
X01575
X0157646Y-002875
X0165646
X01525Y-00325
X01475
Y-00375
Y-00425
X014025Y-00405
X013625Y-00405
X0138056Y-00485
X01388Y-0052
X013175Y-00525
Y-00485
X012775
Y-00525
X0124748Y-0051754
X012275Y-0054
X012175Y-00485
X01187Y-0046
X010875Y-0045374
X01045Y-004925
X00975Y-00515
X00955Y-0049
X0094587Y-0040059
X0090256
X0085925
Y-0035728
Y-0031398
Y-0027067
X0090256
Y-0031398
Y-0035728
X0094587
Y-0031398
Y-0027067
X0098917
Y-0031398
Y-0035728
Y-0040059
X0103248
Y-0035728
Y-0031398
Y-0027067
X011275Y-0028445
X01295Y-00362
X014Y-003125
X014225Y-005975
X01345Y-00595
X012925
X012775Y-006625
X013375Y-0066
X013875Y-0072
X013825Y-0076
X0139Y-008275
X013575
Y-00865
X012625Y-0086
Y-00828
X012835Y-00761
X012825Y-00727
X012125Y-0071
X012145Y-00662
X0118Y-0065
X0114
X011835Y-00734
X011865Y-00761
X011625Y-008375
X0111Y-008725
X014275Y-008325
X014875Y-008395
Y-00812
X015505
X0157Y-008725
X0153934Y-0070057
X0154Y-006225
X015425Y-005575
X01575Y-00475
X01625
X01675
X00815Y-005175
X00715Y-005575
X0069Y-004875
X0064Y-0048
X0073Y-00425
X0076002Y-004275
X0078Y-004025
X00725Y-0037
X0077Y-003125
X006575Y-0029777
X006125Y-0027
X00555Y-0026
X00525Y-002925
X005225Y-0037
X005175Y-00395
X005275Y-004275
X0049Y-004175
X0045965Y-0050197
X0043799Y-0052362
X0041634Y-0050197
Y-0054528
X0045965
X0049903Y-0057653
X005265Y-005915
X005575Y-00595
X006275Y-0062
X005225Y-0051512
X00375Y-00525
X003755Y-00594
X00255Y-005875
X0025375Y-0055565
X0026741Y-0061485
X002675Y-00645
X002875Y-00495
X0032
X002375Y-004925
X001725
X0025295Y-0044291
X002595Y-00333
X0029035Y-003
X00425
Y-0027
Y-003325
Y-00365
X003475Y-0041148
X001425Y-00435
X0009Y-0047441
X000725Y-0051
X000325
X0009Y-0054921
X0011Y-0058
X001375
X000525Y-003775
X0005315Y-0022539
Y-0015846
X0011Y-0014075
X0011122Y-0020768
X0011Y-0024311
X002075Y-00227
X002405
X0031791Y-002
X003275Y-001675
X003225Y-0014
X002625
Y-00083
X00289Y-0007
X00249Y-00023
X00205Y-0014
X00415Y-001825
X00434Y-001685
X005225Y-0017
X0054Y-0023
X00525Y-002575
X005675Y-002125
X0059449Y-0019488
X0063189Y-0019587
X0067126Y-0019783
X0072047Y-0019587
X00765Y-0013
X006925Y-00065
X00665
X006645Y-0002
X00695
X005525
X004975
X00403Y-00051
X0059747Y-0011516
X0082579Y-0004921
X009675Y-000325
X0098Y-00065
X010215Y-00073
X01035Y-000325
X011225
Y-000775
X0118Y-00085
Y-00135
X011575Y-002225
X012Y-00225
X01267Y-00229
X013065
Y-00189
Y-001515
X013Y-0010854
X012995Y-000695
X01325Y-00055
X0139342Y-000925
X014328Y-0010854
X0148Y-001075
Y-0005
X014375Y-00165
X013875
X0139342Y-0023223
X014375Y-00215
X01595Y-001925
Y-001525
Y-001155
X016275Y-000925
X016775
X0165646Y-001675
X01625Y-001715
X01267Y-00189
X01285Y-00255
X012375Y-000325
X012125
X0108667Y-0017225
X0103248Y-0022736
X0098917
X0094587
X0090256
X0085925
T02
X015025Y-00495
T03
X00545Y-003375
X0065
X01145Y-00435
Y-00485
T04
X0021654Y-0062795
X00965Y-00795
X001375Y-0062795
T05
X01715Y-0085888
X000575Y-006175
X016575Y-000425
M30
