G04 Layer_Physical_Order=1*
G04 Layer_Color=255*
%FSLAX25Y25*%
%MOIN*%
G70*
G01*
G75*
G04:AMPARAMS|DCode=10|XSize=19.69mil|YSize=23.62mil|CornerRadius=4.92mil|HoleSize=0mil|Usage=FLASHONLY|Rotation=270.000|XOffset=0mil|YOffset=0mil|HoleType=Round|Shape=RoundedRectangle|*
%AMROUNDEDRECTD10*
21,1,0.01969,0.01378,0,0,270.0*
21,1,0.00984,0.02362,0,0,270.0*
1,1,0.00984,-0.00689,-0.00492*
1,1,0.00984,-0.00689,0.00492*
1,1,0.00984,0.00689,0.00492*
1,1,0.00984,0.00689,-0.00492*
%
%ADD10ROUNDEDRECTD10*%
G04:AMPARAMS|DCode=11|XSize=35.43mil|YSize=31.5mil|CornerRadius=7.87mil|HoleSize=0mil|Usage=FLASHONLY|Rotation=0.000|XOffset=0mil|YOffset=0mil|HoleType=Round|Shape=RoundedRectangle|*
%AMROUNDEDRECTD11*
21,1,0.03543,0.01575,0,0,0.0*
21,1,0.01969,0.03150,0,0,0.0*
1,1,0.01575,0.00984,-0.00787*
1,1,0.01575,-0.00984,-0.00787*
1,1,0.01575,-0.00984,0.00787*
1,1,0.01575,0.00984,0.00787*
%
%ADD11ROUNDEDRECTD11*%
G04:AMPARAMS|DCode=12|XSize=43.31mil|YSize=9.84mil|CornerRadius=2.46mil|HoleSize=0mil|Usage=FLASHONLY|Rotation=270.000|XOffset=0mil|YOffset=0mil|HoleType=Round|Shape=RoundedRectangle|*
%AMROUNDEDRECTD12*
21,1,0.04331,0.00492,0,0,270.0*
21,1,0.03839,0.00984,0,0,270.0*
1,1,0.00492,-0.00246,-0.01919*
1,1,0.00492,-0.00246,0.01919*
1,1,0.00492,0.00246,0.01919*
1,1,0.00492,0.00246,-0.01919*
%
%ADD12ROUNDEDRECTD12*%
G04:AMPARAMS|DCode=13|XSize=19.69mil|YSize=23.62mil|CornerRadius=4.92mil|HoleSize=0mil|Usage=FLASHONLY|Rotation=180.000|XOffset=0mil|YOffset=0mil|HoleType=Round|Shape=RoundedRectangle|*
%AMROUNDEDRECTD13*
21,1,0.01969,0.01378,0,0,180.0*
21,1,0.00984,0.02362,0,0,180.0*
1,1,0.00984,-0.00492,0.00689*
1,1,0.00984,0.00492,0.00689*
1,1,0.00984,0.00492,-0.00689*
1,1,0.00984,-0.00492,-0.00689*
%
%ADD13ROUNDEDRECTD13*%
G04:AMPARAMS|DCode=14|XSize=35.43mil|YSize=27.56mil|CornerRadius=6.89mil|HoleSize=0mil|Usage=FLASHONLY|Rotation=90.000|XOffset=0mil|YOffset=0mil|HoleType=Round|Shape=RoundedRectangle|*
%AMROUNDEDRECTD14*
21,1,0.03543,0.01378,0,0,90.0*
21,1,0.02165,0.02756,0,0,90.0*
1,1,0.01378,0.00689,0.01083*
1,1,0.01378,0.00689,-0.01083*
1,1,0.01378,-0.00689,-0.01083*
1,1,0.01378,-0.00689,0.01083*
%
%ADD14ROUNDEDRECTD14*%
G04:AMPARAMS|DCode=15|XSize=35.43mil|YSize=31.5mil|CornerRadius=7.87mil|HoleSize=0mil|Usage=FLASHONLY|Rotation=90.000|XOffset=0mil|YOffset=0mil|HoleType=Round|Shape=RoundedRectangle|*
%AMROUNDEDRECTD15*
21,1,0.03543,0.01575,0,0,90.0*
21,1,0.01969,0.03150,0,0,90.0*
1,1,0.01575,0.00787,0.00984*
1,1,0.01575,0.00787,-0.00984*
1,1,0.01575,-0.00787,-0.00984*
1,1,0.01575,-0.00787,0.00984*
%
%ADD15ROUNDEDRECTD15*%
%ADD16O,0.03937X0.14961*%
G04:AMPARAMS|DCode=17|XSize=39.37mil|YSize=149.61mil|CornerRadius=9.84mil|HoleSize=0mil|Usage=FLASHONLY|Rotation=0.000|XOffset=0mil|YOffset=0mil|HoleType=Round|Shape=RoundedRectangle|*
%AMROUNDEDRECTD17*
21,1,0.03937,0.12992,0,0,0.0*
21,1,0.01969,0.14961,0,0,0.0*
1,1,0.01969,0.00984,-0.06496*
1,1,0.01969,-0.00984,-0.06496*
1,1,0.01969,-0.00984,0.06496*
1,1,0.01969,0.00984,0.06496*
%
%ADD17ROUNDEDRECTD17*%
G04:AMPARAMS|DCode=18|XSize=27.56mil|YSize=51.18mil|CornerRadius=6.89mil|HoleSize=0mil|Usage=FLASHONLY|Rotation=90.000|XOffset=0mil|YOffset=0mil|HoleType=Round|Shape=RoundedRectangle|*
%AMROUNDEDRECTD18*
21,1,0.02756,0.03740,0,0,90.0*
21,1,0.01378,0.05118,0,0,90.0*
1,1,0.01378,0.01870,0.00689*
1,1,0.01378,0.01870,-0.00689*
1,1,0.01378,-0.01870,-0.00689*
1,1,0.01378,-0.01870,0.00689*
%
%ADD18ROUNDEDRECTD18*%
G04:AMPARAMS|DCode=19|XSize=66.93mil|YSize=43.31mil|CornerRadius=10.83mil|HoleSize=0mil|Usage=FLASHONLY|Rotation=180.000|XOffset=0mil|YOffset=0mil|HoleType=Round|Shape=RoundedRectangle|*
%AMROUNDEDRECTD19*
21,1,0.06693,0.02165,0,0,180.0*
21,1,0.04528,0.04331,0,0,180.0*
1,1,0.02165,-0.02264,0.01083*
1,1,0.02165,0.02264,0.01083*
1,1,0.02165,0.02264,-0.01083*
1,1,0.02165,-0.02264,-0.01083*
%
%ADD19ROUNDEDRECTD19*%
G04:AMPARAMS|DCode=20|XSize=39.37mil|YSize=23.62mil|CornerRadius=5.91mil|HoleSize=0mil|Usage=FLASHONLY|Rotation=90.000|XOffset=0mil|YOffset=0mil|HoleType=Round|Shape=RoundedRectangle|*
%AMROUNDEDRECTD20*
21,1,0.03937,0.01181,0,0,90.0*
21,1,0.02756,0.02362,0,0,90.0*
1,1,0.01181,0.00591,0.01378*
1,1,0.01181,0.00591,-0.01378*
1,1,0.01181,-0.00591,-0.01378*
1,1,0.01181,-0.00591,0.01378*
%
%ADD20ROUNDEDRECTD20*%
%ADD21R,0.08071X0.08071*%
%ADD22O,0.00787X0.03543*%
%ADD23O,0.03543X0.00787*%
G04:AMPARAMS|DCode=24|XSize=23.62mil|YSize=45.28mil|CornerRadius=5.91mil|HoleSize=0mil|Usage=FLASHONLY|Rotation=180.000|XOffset=0mil|YOffset=0mil|HoleType=Round|Shape=RoundedRectangle|*
%AMROUNDEDRECTD24*
21,1,0.02362,0.03347,0,0,180.0*
21,1,0.01181,0.04528,0,0,180.0*
1,1,0.01181,-0.00591,0.01673*
1,1,0.01181,0.00591,0.01673*
1,1,0.01181,0.00591,-0.01673*
1,1,0.01181,-0.00591,-0.01673*
%
%ADD24ROUNDEDRECTD24*%
G04:AMPARAMS|DCode=25|XSize=45mil|YSize=45mil|CornerRadius=11.25mil|HoleSize=0mil|Usage=FLASHONLY|Rotation=0.000|XOffset=0mil|YOffset=0mil|HoleType=Round|Shape=RoundedRectangle|*
%AMROUNDEDRECTD25*
21,1,0.04500,0.02250,0,0,0.0*
21,1,0.02250,0.04500,0,0,0.0*
1,1,0.02250,0.01125,-0.01125*
1,1,0.02250,-0.01125,-0.01125*
1,1,0.02250,-0.01125,0.01125*
1,1,0.02250,0.01125,0.01125*
%
%ADD25ROUNDEDRECTD25*%
G04:AMPARAMS|DCode=26|XSize=35.43mil|YSize=31.5mil|CornerRadius=7.87mil|HoleSize=0mil|Usage=FLASHONLY|Rotation=315.000|XOffset=0mil|YOffset=0mil|HoleType=Round|Shape=RoundedRectangle|*
%AMROUNDEDRECTD26*
21,1,0.03543,0.01575,0,0,315.0*
21,1,0.01969,0.03150,0,0,315.0*
1,1,0.01575,0.00139,-0.01253*
1,1,0.01575,-0.01253,0.00139*
1,1,0.01575,-0.00139,0.01253*
1,1,0.01575,0.01253,-0.00139*
%
%ADD26ROUNDEDRECTD26*%
G04:AMPARAMS|DCode=27|XSize=23.62mil|YSize=47.24mil|CornerRadius=5.91mil|HoleSize=0mil|Usage=FLASHONLY|Rotation=90.000|XOffset=0mil|YOffset=0mil|HoleType=Round|Shape=RoundedRectangle|*
%AMROUNDEDRECTD27*
21,1,0.02362,0.03543,0,0,90.0*
21,1,0.01181,0.04724,0,0,90.0*
1,1,0.01181,0.01772,0.00591*
1,1,0.01181,0.01772,-0.00591*
1,1,0.01181,-0.01772,-0.00591*
1,1,0.01181,-0.01772,0.00591*
%
%ADD27ROUNDEDRECTD27*%
G04:AMPARAMS|DCode=28|XSize=25.59mil|YSize=43.31mil|CornerRadius=6.4mil|HoleSize=0mil|Usage=FLASHONLY|Rotation=180.000|XOffset=0mil|YOffset=0mil|HoleType=Round|Shape=RoundedRectangle|*
%AMROUNDEDRECTD28*
21,1,0.02559,0.03051,0,0,180.0*
21,1,0.01280,0.04331,0,0,180.0*
1,1,0.01280,-0.00640,0.01526*
1,1,0.01280,0.00640,0.01526*
1,1,0.01280,0.00640,-0.01526*
1,1,0.01280,-0.00640,-0.01526*
%
%ADD28ROUNDEDRECTD28*%
%ADD29R,0.22441X0.22441*%
%ADD30O,0.03543X0.00984*%
%ADD31O,0.00984X0.03543*%
G04:AMPARAMS|DCode=32|XSize=15.75mil|YSize=43.31mil|CornerRadius=3.94mil|HoleSize=0mil|Usage=FLASHONLY|Rotation=270.000|XOffset=0mil|YOffset=0mil|HoleType=Round|Shape=RoundedRectangle|*
%AMROUNDEDRECTD32*
21,1,0.01575,0.03543,0,0,270.0*
21,1,0.00787,0.04331,0,0,270.0*
1,1,0.00787,-0.01772,-0.00394*
1,1,0.00787,-0.01772,0.00394*
1,1,0.00787,0.01772,0.00394*
1,1,0.00787,0.01772,-0.00394*
%
%ADD32ROUNDEDRECTD32*%
G04:AMPARAMS|DCode=33|XSize=66.93mil|YSize=43.31mil|CornerRadius=10.83mil|HoleSize=0mil|Usage=FLASHONLY|Rotation=90.000|XOffset=0mil|YOffset=0mil|HoleType=Round|Shape=RoundedRectangle|*
%AMROUNDEDRECTD33*
21,1,0.06693,0.02165,0,0,90.0*
21,1,0.04528,0.04331,0,0,90.0*
1,1,0.02165,0.01083,0.02264*
1,1,0.02165,0.01083,-0.02264*
1,1,0.02165,-0.01083,-0.02264*
1,1,0.02165,-0.01083,0.02264*
%
%ADD33ROUNDEDRECTD33*%
G04:AMPARAMS|DCode=34|XSize=35.43mil|YSize=35.43mil|CornerRadius=8.86mil|HoleSize=0mil|Usage=FLASHONLY|Rotation=180.000|XOffset=0mil|YOffset=0mil|HoleType=Round|Shape=RoundedRectangle|*
%AMROUNDEDRECTD34*
21,1,0.03543,0.01772,0,0,180.0*
21,1,0.01772,0.03543,0,0,180.0*
1,1,0.01772,-0.00886,0.00886*
1,1,0.01772,0.00886,0.00886*
1,1,0.01772,0.00886,-0.00886*
1,1,0.01772,-0.00886,-0.00886*
%
%ADD34ROUNDEDRECTD34*%
G04:AMPARAMS|DCode=35|XSize=70.87mil|YSize=29.53mil|CornerRadius=7.38mil|HoleSize=0mil|Usage=FLASHONLY|Rotation=90.000|XOffset=0mil|YOffset=0mil|HoleType=Round|Shape=RoundedRectangle|*
%AMROUNDEDRECTD35*
21,1,0.07087,0.01476,0,0,90.0*
21,1,0.05610,0.02953,0,0,90.0*
1,1,0.01476,0.00738,0.02805*
1,1,0.01476,0.00738,-0.02805*
1,1,0.01476,-0.00738,-0.02805*
1,1,0.01476,-0.00738,0.02805*
%
%ADD35ROUNDEDRECTD35*%
G04:AMPARAMS|DCode=36|XSize=23.62mil|YSize=51.18mil|CornerRadius=5.91mil|HoleSize=0mil|Usage=FLASHONLY|Rotation=90.000|XOffset=0mil|YOffset=0mil|HoleType=Round|Shape=RoundedRectangle|*
%AMROUNDEDRECTD36*
21,1,0.02362,0.03937,0,0,90.0*
21,1,0.01181,0.05118,0,0,90.0*
1,1,0.01181,0.01969,0.00591*
1,1,0.01181,0.01969,-0.00591*
1,1,0.01181,-0.01969,-0.00591*
1,1,0.01181,-0.01969,0.00591*
%
%ADD36ROUNDEDRECTD36*%
%ADD37R,0.18110X0.16929*%
G04:AMPARAMS|DCode=38|XSize=78.74mil|YSize=62.99mil|CornerRadius=15.75mil|HoleSize=0mil|Usage=FLASHONLY|Rotation=270.000|XOffset=0mil|YOffset=0mil|HoleType=Round|Shape=RoundedRectangle|*
%AMROUNDEDRECTD38*
21,1,0.07874,0.03150,0,0,270.0*
21,1,0.04724,0.06299,0,0,270.0*
1,1,0.03150,-0.01575,-0.02362*
1,1,0.03150,-0.01575,0.02362*
1,1,0.03150,0.01575,0.02362*
1,1,0.03150,0.01575,-0.02362*
%
%ADD38ROUNDEDRECTD38*%
G04:AMPARAMS|DCode=39|XSize=93.5mil|YSize=74.8mil|CornerRadius=18.7mil|HoleSize=0mil|Usage=FLASHONLY|Rotation=270.000|XOffset=0mil|YOffset=0mil|HoleType=Round|Shape=RoundedRectangle|*
%AMROUNDEDRECTD39*
21,1,0.09350,0.03740,0,0,270.0*
21,1,0.05610,0.07480,0,0,270.0*
1,1,0.03740,-0.01870,-0.02805*
1,1,0.03740,-0.01870,0.02805*
1,1,0.03740,0.01870,0.02805*
1,1,0.03740,0.01870,-0.02805*
%
%ADD39ROUNDEDRECTD39*%
G04:AMPARAMS|DCode=40|XSize=46.26mil|YSize=74.8mil|CornerRadius=11.57mil|HoleSize=0mil|Usage=FLASHONLY|Rotation=270.000|XOffset=0mil|YOffset=0mil|HoleType=Round|Shape=RoundedRectangle|*
%AMROUNDEDRECTD40*
21,1,0.04626,0.05167,0,0,270.0*
21,1,0.02313,0.07480,0,0,270.0*
1,1,0.02313,-0.02584,-0.01157*
1,1,0.02313,-0.02584,0.01157*
1,1,0.02313,0.02584,0.01157*
1,1,0.02313,0.02584,-0.01157*
%
%ADD40ROUNDEDRECTD40*%
G04:AMPARAMS|DCode=41|XSize=58.07mil|YSize=78.74mil|CornerRadius=14.52mil|HoleSize=0mil|Usage=FLASHONLY|Rotation=270.000|XOffset=0mil|YOffset=0mil|HoleType=Round|Shape=RoundedRectangle|*
%AMROUNDEDRECTD41*
21,1,0.05807,0.04971,0,0,270.0*
21,1,0.02904,0.07874,0,0,270.0*
1,1,0.02904,-0.02485,-0.01452*
1,1,0.02904,-0.02485,0.01452*
1,1,0.02904,0.02485,0.01452*
1,1,0.02904,0.02485,-0.01452*
%
%ADD41ROUNDEDRECTD41*%
G04:AMPARAMS|DCode=42|XSize=58.07mil|YSize=82.68mil|CornerRadius=14.52mil|HoleSize=0mil|Usage=FLASHONLY|Rotation=270.000|XOffset=0mil|YOffset=0mil|HoleType=Round|Shape=RoundedRectangle|*
%AMROUNDEDRECTD42*
21,1,0.05807,0.05364,0,0,270.0*
21,1,0.02904,0.08268,0,0,270.0*
1,1,0.02904,-0.02682,-0.01452*
1,1,0.02904,-0.02682,0.01452*
1,1,0.02904,0.02682,0.01452*
1,1,0.02904,0.02682,-0.01452*
%
%ADD42ROUNDEDRECTD42*%
G04:AMPARAMS|DCode=43|XSize=17.72mil|YSize=54.33mil|CornerRadius=4.43mil|HoleSize=0mil|Usage=FLASHONLY|Rotation=90.000|XOffset=0mil|YOffset=0mil|HoleType=Round|Shape=RoundedRectangle|*
%AMROUNDEDRECTD43*
21,1,0.01772,0.04547,0,0,90.0*
21,1,0.00886,0.05433,0,0,90.0*
1,1,0.00886,0.02274,0.00443*
1,1,0.00886,0.02274,-0.00443*
1,1,0.00886,-0.02274,-0.00443*
1,1,0.00886,-0.02274,0.00443*
%
%ADD43ROUNDEDRECTD43*%
G04:AMPARAMS|DCode=44|XSize=21.65mil|YSize=59.06mil|CornerRadius=5.41mil|HoleSize=0mil|Usage=FLASHONLY|Rotation=0.000|XOffset=0mil|YOffset=0mil|HoleType=Round|Shape=RoundedRectangle|*
%AMROUNDEDRECTD44*
21,1,0.02165,0.04823,0,0,0.0*
21,1,0.01083,0.05906,0,0,0.0*
1,1,0.01083,0.00541,-0.02411*
1,1,0.01083,-0.00541,-0.02411*
1,1,0.01083,-0.00541,0.02411*
1,1,0.01083,0.00541,0.02411*
%
%ADD44ROUNDEDRECTD44*%
G04:AMPARAMS|DCode=45|XSize=15.75mil|YSize=74.8mil|CornerRadius=3.94mil|HoleSize=0mil|Usage=FLASHONLY|Rotation=0.000|XOffset=0mil|YOffset=0mil|HoleType=Round|Shape=RoundedRectangle|*
%AMROUNDEDRECTD45*
21,1,0.01575,0.06693,0,0,0.0*
21,1,0.00787,0.07480,0,0,0.0*
1,1,0.00787,0.00394,-0.03347*
1,1,0.00787,-0.00394,-0.03347*
1,1,0.00787,-0.00394,0.03347*
1,1,0.00787,0.00394,0.03347*
%
%ADD45ROUNDEDRECTD45*%
%ADD46R,0.03150X0.03543*%
%ADD47C,0.01181*%
%ADD48C,0.00984*%
%ADD49C,0.00787*%
%ADD50C,0.01772*%
%ADD51C,0.01575*%
%ADD52C,0.01969*%
%ADD53C,0.01378*%
%ADD54R,0.04250X0.05000*%
%ADD55R,0.02600X0.02272*%
%ADD56C,0.06693*%
%ADD57O,0.04724X0.03937*%
G04:AMPARAMS|DCode=58|XSize=59.06mil|YSize=59.06mil|CornerRadius=14.76mil|HoleSize=0mil|Usage=FLASHONLY|Rotation=90.000|XOffset=0mil|YOffset=0mil|HoleType=Round|Shape=RoundedRectangle|*
%AMROUNDEDRECTD58*
21,1,0.05906,0.02953,0,0,90.0*
21,1,0.02953,0.05906,0,0,90.0*
1,1,0.02953,0.01476,0.01476*
1,1,0.02953,0.01476,-0.01476*
1,1,0.02953,-0.01476,-0.01476*
1,1,0.02953,-0.01476,0.01476*
%
%ADD58ROUNDEDRECTD58*%
%ADD59C,0.05906*%
%ADD60C,0.03937*%
G04:AMPARAMS|DCode=61|XSize=90.55mil|YSize=70.87mil|CornerRadius=17.72mil|HoleSize=0mil|Usage=FLASHONLY|Rotation=180.000|XOffset=0mil|YOffset=0mil|HoleType=Round|Shape=RoundedRectangle|*
%AMROUNDEDRECTD61*
21,1,0.09055,0.03543,0,0,180.0*
21,1,0.05512,0.07087,0,0,180.0*
1,1,0.03543,-0.02756,0.01772*
1,1,0.03543,0.02756,0.01772*
1,1,0.03543,0.02756,-0.01772*
1,1,0.03543,-0.02756,-0.01772*
%
%ADD61ROUNDEDRECTD61*%
%ADD62R,0.13780X0.07874*%
%ADD63C,0.02402*%
%ADD64C,0.02756*%
%ADD65C,0.03150*%
G36*
X167227Y-76390D02*
Y-79309D01*
X167411Y-80231D01*
X167933Y-81012D01*
X168714Y-81534D01*
X169142Y-81619D01*
X169230Y-81868D01*
X169235Y-82148D01*
X168400Y-82788D01*
X167703Y-83696D01*
X167265Y-84754D01*
X167182Y-85388D01*
X171500D01*
Y-86388D01*
X167182D01*
X167265Y-87023D01*
X167703Y-88080D01*
X168400Y-88988D01*
X168512Y-89074D01*
X168351Y-89548D01*
X155639D01*
X155487Y-89048D01*
X155536Y-89015D01*
X155866Y-88521D01*
X155982Y-87939D01*
Y-87750D01*
X153969D01*
Y-87250D01*
X153469D01*
Y-85041D01*
X152894Y-85155D01*
X152401Y-85485D01*
X152158Y-85849D01*
X151701Y-85887D01*
X151594Y-85860D01*
X151446Y-85638D01*
X151023Y-85356D01*
X150524Y-85256D01*
X149539D01*
X149040Y-85356D01*
X148617Y-85638D01*
X148412Y-85945D01*
X147899D01*
Y-85766D01*
X147777Y-85151D01*
X147429Y-84630D01*
X146908Y-84282D01*
X146805Y-84262D01*
Y-79791D01*
X147305Y-79524D01*
X147507Y-79659D01*
X148236Y-79804D01*
X150294D01*
Y-80987D01*
X150203Y-81443D01*
Y-82821D01*
X150303Y-83320D01*
X150585Y-83743D01*
X151009Y-84026D01*
X151508Y-84126D01*
X152492D01*
X152991Y-84026D01*
X153415Y-83743D01*
X153697Y-83320D01*
X153797Y-82821D01*
Y-81443D01*
X153706Y-80987D01*
Y-79517D01*
X154112Y-79246D01*
X154525Y-78627D01*
X154546Y-78521D01*
X155810D01*
Y-79309D01*
X155993Y-80231D01*
X156516Y-81012D01*
X157297Y-81534D01*
X158219Y-81717D01*
X161368D01*
X162290Y-81534D01*
X163071Y-81012D01*
X163593Y-80231D01*
X163777Y-79309D01*
Y-74585D01*
X163633Y-73864D01*
X163971Y-73444D01*
X164269Y-73432D01*
X167227Y-76390D01*
D02*
G37*
G36*
X20577Y-21172D02*
X21001Y-21455D01*
X21500Y-21555D01*
X24931D01*
X25330Y-22055D01*
X25291Y-22250D01*
X27500D01*
Y-22750D01*
X28000D01*
Y-24764D01*
X28189D01*
X28771Y-24648D01*
X29265Y-24318D01*
X29896Y-24262D01*
X30085Y-24435D01*
Y-26241D01*
X29807Y-26658D01*
X29696Y-27215D01*
Y-27710D01*
X29310Y-28027D01*
X29035Y-27973D01*
X28260Y-28127D01*
X27602Y-28567D01*
X27163Y-29224D01*
X27008Y-30000D01*
X27163Y-30776D01*
X27602Y-31433D01*
X28260Y-31873D01*
X29035Y-32027D01*
X29811Y-31873D01*
X30061Y-31706D01*
X30531D01*
X30804Y-31652D01*
X31152Y-31721D01*
X32431D01*
X32988Y-31610D01*
X33460Y-31295D01*
X33775Y-30823D01*
X33827Y-30565D01*
X34327Y-30615D01*
Y-36314D01*
X33827Y-36364D01*
X33775Y-36107D01*
X33460Y-35634D01*
X32988Y-35319D01*
X32431Y-35208D01*
X31152D01*
X30595Y-35319D01*
X30123Y-35634D01*
X29701Y-35366D01*
X29331Y-35119D01*
X28691Y-34991D01*
X28551D01*
Y-38189D01*
X27551D01*
Y-34991D01*
X27411D01*
X26772Y-35119D01*
X26402Y-35366D01*
X25980Y-35634D01*
X25508Y-35319D01*
X24951Y-35208D01*
X23671D01*
X23114Y-35319D01*
X22642Y-35634D01*
X22403Y-35993D01*
X21934Y-35959D01*
X21883Y-35940D01*
X21863Y-35841D01*
X21853Y-35825D01*
Y-35242D01*
X24594Y-32501D01*
X24877Y-32078D01*
X24948Y-31721D01*
X24951D01*
X25508Y-31610D01*
X25980Y-31295D01*
X26295Y-30823D01*
X26406Y-30266D01*
Y-27215D01*
X26295Y-26658D01*
X25980Y-26186D01*
X25508Y-25870D01*
X24951Y-25759D01*
X23671D01*
X23114Y-25870D01*
X22642Y-26186D01*
X22327Y-26658D01*
X22216Y-27215D01*
Y-30266D01*
X22327Y-30823D01*
X22367Y-30882D01*
Y-31038D01*
X19625Y-33780D01*
X19343Y-34203D01*
X19243Y-34702D01*
Y-34912D01*
X19094D01*
X18519Y-35027D01*
X18030Y-35353D01*
X17704Y-35841D01*
X17589Y-36417D01*
Y-38583D01*
X17607Y-38671D01*
X17289Y-39057D01*
X16589D01*
X16272Y-38671D01*
X16289Y-38583D01*
Y-38000D01*
X13878D01*
X11467D01*
Y-38583D01*
X11520Y-38850D01*
X11108Y-39339D01*
X10039D01*
X9425Y-39461D01*
X8904Y-39810D01*
X8556Y-40330D01*
X8434Y-40945D01*
Y-42913D01*
X8556Y-43528D01*
X8904Y-44049D01*
X9425Y-44397D01*
X10039Y-44519D01*
X11614D01*
X12229Y-44397D01*
X12750Y-44049D01*
X13098Y-43528D01*
X13220Y-42913D01*
Y-41867D01*
X16133D01*
X16369Y-42308D01*
X16274Y-42449D01*
X16113Y-43262D01*
Y-43845D01*
X24887D01*
Y-43262D01*
X24726Y-42449D01*
X24265Y-41760D01*
X24130Y-41670D01*
X24281Y-41170D01*
X24951D01*
X25508Y-41059D01*
X25980Y-40743D01*
X26402Y-41012D01*
X26553Y-41113D01*
X26585Y-41693D01*
X26485Y-41760D01*
X26024Y-42449D01*
X25863Y-43262D01*
Y-43845D01*
X34637D01*
Y-43662D01*
X34750Y-43175D01*
X35526Y-43020D01*
X36183Y-42581D01*
X36623Y-41923D01*
X36777Y-41148D01*
X36623Y-40372D01*
X36291Y-39876D01*
X36579Y-39423D01*
X37106Y-39492D01*
X37394Y-39905D01*
Y-44413D01*
X37517Y-45028D01*
X37865Y-45549D01*
X38359Y-45879D01*
X38394Y-45938D01*
X38482Y-46367D01*
X38154Y-46750D01*
X38000D01*
Y-47989D01*
X37213D01*
Y-49409D01*
Y-50831D01*
X38000D01*
X38000Y-54111D01*
X36076D01*
X36027Y-54038D01*
X35441Y-53646D01*
X34750Y-53509D01*
X34344D01*
X34275Y-53162D01*
X33862Y-52543D01*
X33243Y-52130D01*
X32514Y-51985D01*
X27986D01*
X27257Y-52130D01*
X26638Y-52543D01*
X26225Y-53162D01*
X26189Y-53339D01*
X25774Y-53617D01*
X25375Y-53538D01*
X24976Y-53617D01*
X24561Y-53339D01*
X24525Y-53162D01*
X24112Y-52543D01*
X23493Y-52130D01*
X22764Y-51985D01*
X18236D01*
X17745Y-52083D01*
X15637Y-49975D01*
X15598Y-49949D01*
X15363Y-49597D01*
X14908Y-49292D01*
X14370Y-49186D01*
X11040D01*
X10773Y-48686D01*
X11040Y-48286D01*
X11208Y-47441D01*
X11040Y-46596D01*
X10561Y-45880D01*
X9845Y-45401D01*
X9000Y-45233D01*
X8155Y-45401D01*
X7656Y-45735D01*
X6913D01*
X6640Y-45552D01*
X6102Y-45445D01*
X2165D01*
X1628Y-45552D01*
X1503Y-45635D01*
X1003Y-45368D01*
Y-35900D01*
X1503Y-35740D01*
X1997Y-36119D01*
X2696Y-36408D01*
X3117Y-36464D01*
X3373Y-36966D01*
X3372Y-37002D01*
X3223Y-37750D01*
X3377Y-38526D01*
X3644Y-38926D01*
Y-39641D01*
X3392Y-39810D01*
X3044Y-40330D01*
X2922Y-40945D01*
Y-42913D01*
X3044Y-43528D01*
X3392Y-44049D01*
X3913Y-44397D01*
X4528Y-44519D01*
X6102D01*
X6717Y-44397D01*
X7238Y-44049D01*
X7586Y-43528D01*
X7708Y-42913D01*
Y-40945D01*
X7586Y-40330D01*
X7238Y-39810D01*
X6856Y-39554D01*
Y-38926D01*
X7123Y-38526D01*
X7277Y-37750D01*
X7129Y-37007D01*
X7131Y-36945D01*
X7394Y-36480D01*
X7934Y-36408D01*
X8632Y-36119D01*
X9232Y-35659D01*
X9692Y-35060D01*
X9981Y-34361D01*
X10080Y-33612D01*
Y-32892D01*
X10521Y-32656D01*
X10731Y-32797D01*
X11688Y-32987D01*
X13870D01*
Y-29035D01*
X14370D01*
Y-28535D01*
X19552D01*
Y-27584D01*
X19362Y-26627D01*
X18884Y-25913D01*
X19062Y-25794D01*
X19381Y-25317D01*
X19481Y-24811D01*
X15748D01*
Y-23811D01*
X19481D01*
X19381Y-23305D01*
X19070Y-22840D01*
X19181Y-22675D01*
X19276Y-22195D01*
Y-21309D01*
X19218Y-21019D01*
X19506Y-20603D01*
X19971Y-20566D01*
X20577Y-21172D01*
D02*
G37*
G36*
X55144Y-17849D02*
X55643Y-17948D01*
X60603D01*
X61376Y-18721D01*
X61316Y-18811D01*
X61162Y-19587D01*
X61298Y-20272D01*
X61034Y-20772D01*
X58682D01*
X58623Y-20474D01*
X58183Y-19817D01*
X57526Y-19377D01*
X56750Y-19223D01*
X55974Y-19377D01*
X55317Y-19817D01*
X54877Y-20474D01*
X54748Y-21122D01*
X54000Y-20973D01*
X53224Y-21127D01*
X52567Y-21567D01*
X52127Y-22224D01*
X51973Y-23000D01*
X52127Y-23776D01*
X52567Y-24433D01*
X53224Y-24873D01*
X54000Y-25027D01*
X54486Y-24930D01*
X54661Y-24965D01*
X59817D01*
X59968Y-25465D01*
X59817Y-25567D01*
X59377Y-26224D01*
X59223Y-27000D01*
X59377Y-27776D01*
X59784Y-28384D01*
X59754Y-28488D01*
X59721Y-28517D01*
X59099Y-28485D01*
X58606Y-28155D01*
X58031Y-28041D01*
Y-30250D01*
X57531D01*
Y-30750D01*
X55445D01*
X55431Y-30768D01*
X55082Y-31029D01*
X55028Y-31040D01*
X54500Y-30970D01*
X53781Y-31065D01*
X53110Y-31343D01*
X52535Y-31784D01*
X52093Y-32360D01*
X51815Y-33031D01*
X51720Y-33750D01*
X51815Y-34469D01*
X52093Y-35140D01*
X52535Y-35715D01*
X53110Y-36157D01*
X53781Y-36435D01*
X54500Y-36530D01*
X55219Y-36435D01*
X55890Y-36157D01*
X56466Y-35715D01*
X56907Y-35140D01*
X57129Y-34604D01*
X57213Y-34580D01*
X57278Y-34593D01*
X57703Y-34934D01*
Y-36057D01*
X57803Y-36556D01*
X58085Y-36980D01*
X58509Y-37262D01*
X58530Y-37267D01*
X58888Y-37625D01*
X58699Y-37984D01*
X58190Y-37980D01*
X57982Y-37668D01*
X57390Y-37273D01*
X56693Y-37134D01*
X56209D01*
Y-39744D01*
Y-42354D01*
X56693D01*
X57390Y-42215D01*
X57982Y-41820D01*
X58242Y-41430D01*
X58803Y-41389D01*
X58821Y-41395D01*
X59002Y-41667D01*
X59523Y-42015D01*
X60138Y-42137D01*
X62106D01*
X62721Y-42015D01*
X63242Y-41667D01*
X63590Y-41146D01*
X63712Y-40532D01*
Y-38957D01*
X63709Y-38941D01*
X64026Y-38555D01*
X67402D01*
X67758Y-38625D01*
X68742D01*
X69241Y-38526D01*
X69665Y-38243D01*
X69947Y-37820D01*
X70047Y-37321D01*
Y-35943D01*
X69947Y-35444D01*
X69665Y-35020D01*
X69241Y-34738D01*
X68742Y-34638D01*
X68147D01*
X68110Y-34625D01*
X67727Y-34151D01*
X67780Y-33750D01*
X67685Y-33031D01*
X67407Y-32360D01*
X66966Y-31784D01*
X66390Y-31343D01*
X65719Y-31065D01*
X65000Y-30970D01*
X64281Y-31065D01*
X64035Y-31167D01*
X63471Y-30882D01*
X63423Y-30693D01*
X64380Y-29736D01*
X64407Y-29696D01*
X64542Y-29561D01*
X64622Y-29507D01*
X65358Y-28771D01*
X66142D01*
X66354Y-28983D01*
X66435Y-29037D01*
X66765Y-29367D01*
X67188Y-29650D01*
X67687Y-29750D01*
X77680D01*
X78059Y-30250D01*
X78026Y-30413D01*
X78125Y-30913D01*
X78408Y-31336D01*
Y-31459D01*
X78125Y-31883D01*
X78026Y-32382D01*
X78125Y-32881D01*
X78408Y-33304D01*
Y-33428D01*
X78125Y-33851D01*
X78026Y-34350D01*
X78125Y-34850D01*
X78408Y-35273D01*
Y-35396D01*
X78125Y-35820D01*
X78026Y-36319D01*
X78125Y-36818D01*
X78188Y-36911D01*
X78378Y-37303D01*
X78188Y-37695D01*
X78125Y-37788D01*
X78026Y-38287D01*
X78125Y-38787D01*
X78285Y-39026D01*
X78255Y-39180D01*
X77925Y-39674D01*
X77909Y-39756D01*
X80610D01*
Y-40756D01*
X77876D01*
X77663Y-41091D01*
X77559Y-41190D01*
X77288Y-41218D01*
X76887Y-40950D01*
X76728Y-40591D01*
X76687Y-40349D01*
X76697Y-40334D01*
X76797Y-39835D01*
Y-38457D01*
X76697Y-37958D01*
X76415Y-37534D01*
X76222Y-37406D01*
X76207Y-37360D01*
X76249Y-36832D01*
X76568Y-36619D01*
X76898Y-36125D01*
X77013Y-35543D01*
Y-35354D01*
X72987D01*
Y-35543D01*
X73102Y-36125D01*
X73432Y-36619D01*
X73750Y-36832D01*
X73793Y-37360D01*
X73778Y-37406D01*
X73585Y-37534D01*
X73303Y-37958D01*
X73203Y-38457D01*
Y-39835D01*
X73303Y-40334D01*
X73445Y-40548D01*
Y-41000D01*
X73545Y-41499D01*
X73827Y-41923D01*
X74087Y-42182D01*
X73974Y-42750D01*
X74046Y-43111D01*
X74045Y-43113D01*
X74001Y-43332D01*
X73935Y-43614D01*
X73445Y-43693D01*
X73282Y-43660D01*
X72291D01*
X72023Y-43160D01*
X72116Y-43021D01*
X72232Y-42439D01*
Y-42250D01*
X70218D01*
Y-41750D01*
X69718D01*
Y-39541D01*
X69144Y-39656D01*
X68651Y-39985D01*
X68408Y-40349D01*
X67951Y-40387D01*
X67844Y-40360D01*
X67696Y-40139D01*
X67273Y-39856D01*
X66774Y-39756D01*
X65789D01*
X65290Y-39856D01*
X64867Y-40139D01*
X64584Y-40562D01*
X64485Y-41061D01*
Y-42439D01*
X64584Y-42938D01*
X64867Y-43361D01*
X65290Y-43644D01*
X65789Y-43744D01*
X65899D01*
X67327Y-45173D01*
X67751Y-45455D01*
X68250Y-45555D01*
X69954D01*
X70101Y-45702D01*
Y-47234D01*
X70223Y-47849D01*
X70571Y-48370D01*
X70912Y-48597D01*
X70912Y-49153D01*
X70571Y-49380D01*
X70223Y-49901D01*
X70101Y-50516D01*
Y-52484D01*
X70223Y-53099D01*
X70361Y-53305D01*
X70266Y-53965D01*
X70255Y-53978D01*
X69939Y-54189D01*
X69520Y-54816D01*
X69154Y-54811D01*
X68999Y-54764D01*
X68968Y-54604D01*
X68620Y-54083D01*
X68099Y-53735D01*
X67484Y-53613D01*
X65516D01*
X64901Y-53735D01*
X64380Y-54083D01*
X64057Y-54568D01*
X63931Y-54603D01*
X63523Y-54601D01*
X63242Y-54180D01*
X62721Y-53831D01*
X62106Y-53709D01*
X60138D01*
X59523Y-53831D01*
X59002Y-54180D01*
X58742Y-54569D01*
X58649Y-54595D01*
X58280D01*
X58187Y-54569D01*
X57927Y-54180D01*
X57406Y-53832D01*
X56791Y-53709D01*
X54823D01*
X54208Y-53832D01*
X53790Y-54111D01*
X50000D01*
X49500Y-53614D01*
X49500Y-50882D01*
X50000Y-50735D01*
X50302Y-51114D01*
X50223Y-51512D01*
X50377Y-52288D01*
X50817Y-52945D01*
X51474Y-53385D01*
X52250Y-53539D01*
X53026Y-53385D01*
X53683Y-52945D01*
X53702Y-52917D01*
X54487D01*
X54823Y-52984D01*
X56791D01*
X57406Y-52861D01*
X57927Y-52513D01*
X58187Y-52124D01*
X58280Y-52098D01*
X58649D01*
X58742Y-52124D01*
X59002Y-52513D01*
X59523Y-52861D01*
X60138Y-52984D01*
X62106D01*
X62721Y-52861D01*
X63242Y-52513D01*
X63416Y-52253D01*
X64010Y-52246D01*
X64227Y-52570D01*
X64818Y-52965D01*
X65516Y-53104D01*
X66000D01*
Y-50494D01*
Y-47884D01*
X65516D01*
X64818Y-48023D01*
X64227Y-48418D01*
X63952Y-48830D01*
X63423Y-48880D01*
X63373Y-48865D01*
X63242Y-48668D01*
X62721Y-48320D01*
X62527Y-48281D01*
Y-47565D01*
X62721Y-47527D01*
X63242Y-47179D01*
X63590Y-46658D01*
X63712Y-46043D01*
Y-44469D01*
X63590Y-43854D01*
X63242Y-43333D01*
X62721Y-42985D01*
X62106Y-42863D01*
X60138D01*
X59523Y-42985D01*
X59002Y-43333D01*
X58656Y-43851D01*
X58174D01*
X57828Y-43333D01*
X57307Y-42985D01*
X56693Y-42863D01*
X54724D01*
X54110Y-42985D01*
X53589Y-43333D01*
X53243Y-43851D01*
X50334D01*
X50183Y-43351D01*
X50433Y-43183D01*
X50873Y-42526D01*
X51027Y-41750D01*
X50873Y-40974D01*
X50433Y-40317D01*
X49781Y-39880D01*
X49776Y-39857D01*
X49786Y-39369D01*
X49805Y-39366D01*
X50392Y-38974D01*
X50783Y-38388D01*
X50920Y-37697D01*
Y-24705D01*
X50783Y-24013D01*
X50392Y-23427D01*
X49936Y-23123D01*
Y-22112D01*
X50311Y-21862D01*
X50724Y-21243D01*
X50869Y-20514D01*
Y-19212D01*
X51310Y-18976D01*
X51405Y-19040D01*
X52250Y-19208D01*
X53095Y-19040D01*
X53811Y-18561D01*
X54290Y-17845D01*
X54304Y-17773D01*
X54839Y-17645D01*
X55144Y-17849D01*
D02*
G37*
G36*
X116033Y-1503D02*
X116005Y-1648D01*
Y-4994D01*
X116111Y-5532D01*
X116416Y-5988D01*
X116872Y-6292D01*
X117409Y-6399D01*
X118162D01*
X119007Y-7243D01*
X119462Y-7548D01*
X120000Y-7655D01*
X121168D01*
X122114Y-8601D01*
X121907Y-9101D01*
X121150D01*
X120612Y-9208D01*
X120156Y-9512D01*
X119852Y-9968D01*
X119745Y-10506D01*
Y-13852D01*
X119852Y-14390D01*
X120134Y-14813D01*
Y-14990D01*
X120134Y-14990D01*
X120257Y-15605D01*
X120605Y-16126D01*
X120744Y-16264D01*
X120485Y-16651D01*
X120363Y-17266D01*
Y-19234D01*
X120444Y-19644D01*
X120089Y-20026D01*
X119959Y-20015D01*
X119587Y-19487D01*
X119637Y-19234D01*
Y-17266D01*
X119515Y-16651D01*
X119167Y-16130D01*
X118646Y-15782D01*
X118032Y-15660D01*
X117755D01*
X116204Y-14109D01*
X116255Y-13852D01*
Y-10506D01*
X116148Y-9968D01*
X115844Y-9512D01*
X115388Y-9208D01*
X114850Y-9101D01*
X113669D01*
X113132Y-9208D01*
X112676Y-9512D01*
X112371Y-9968D01*
X112316Y-10244D01*
X111816Y-10195D01*
Y-9941D01*
X111717Y-9442D01*
X111434Y-9018D01*
X111011Y-8736D01*
X110512Y-8636D01*
X110354D01*
X110087Y-8136D01*
X110226Y-7928D01*
X110345Y-7333D01*
Y-1722D01*
X110301Y-1503D01*
X110699Y-1003D01*
X115627D01*
X116033Y-1503D01*
D02*
G37*
G36*
X141975Y-32773D02*
Y-41430D01*
X140710Y-42695D01*
X137443D01*
X137291Y-42195D01*
X137683Y-41933D01*
X138123Y-41276D01*
X138277Y-40500D01*
X138247Y-40348D01*
X139428Y-39167D01*
X139711Y-38743D01*
X139811Y-38244D01*
Y-37487D01*
X139908Y-37468D01*
X140429Y-37120D01*
X140777Y-36599D01*
X140899Y-35984D01*
Y-34016D01*
X140777Y-33401D01*
X141063Y-32930D01*
X141433Y-32683D01*
X141475Y-32621D01*
X141975Y-32773D01*
D02*
G37*
G36*
X8155Y-49481D02*
X8827Y-49614D01*
X9042Y-49920D01*
X9091Y-50021D01*
X9119Y-50135D01*
X9028Y-50591D01*
Y-51772D01*
X9119Y-52227D01*
X9091Y-52341D01*
X9042Y-52442D01*
X8827Y-52748D01*
X8155Y-52881D01*
X7656Y-53215D01*
X6913D01*
X6640Y-53033D01*
X6102Y-52926D01*
X2165D01*
X1628Y-53033D01*
X1503Y-53116D01*
X1003Y-52848D01*
Y-49514D01*
X1503Y-49246D01*
X1628Y-49330D01*
X2165Y-49436D01*
X6102D01*
X6640Y-49330D01*
X6913Y-49147D01*
X7656D01*
X8155Y-49481D01*
D02*
G37*
G36*
X16330Y-55492D02*
Y-56057D01*
X16475Y-56787D01*
X16888Y-57405D01*
X17507Y-57819D01*
X18236Y-57964D01*
X22764D01*
X23493Y-57819D01*
X24112Y-57405D01*
X24202Y-57271D01*
X24350D01*
X24599Y-57438D01*
X25375Y-57592D01*
X26151Y-57438D01*
X26400Y-57271D01*
X26548D01*
X26638Y-57405D01*
X27257Y-57819D01*
X27986Y-57964D01*
X32514D01*
X33243Y-57819D01*
X33862Y-57405D01*
X34052Y-57121D01*
X34750D01*
X35441Y-56984D01*
X36027Y-56592D01*
X36076Y-56519D01*
X37596D01*
X38000Y-57019D01*
X38000Y-58000D01*
X38383D01*
X38441Y-58071D01*
Y-58949D01*
X39862D01*
Y-59449D01*
X40362D01*
Y-62148D01*
X40406Y-62140D01*
X40846Y-61845D01*
X41287Y-62140D01*
X41331Y-62148D01*
Y-59449D01*
X42331D01*
Y-62148D01*
X42375Y-62140D01*
X42815Y-61845D01*
X43255Y-62140D01*
X43299Y-62148D01*
Y-59449D01*
X44299D01*
Y-62148D01*
X44343Y-62140D01*
X44783Y-61845D01*
X45224Y-62140D01*
X45268Y-62148D01*
Y-59449D01*
X46268D01*
Y-62148D01*
X46312Y-62140D01*
X46773Y-61832D01*
X47275Y-61939D01*
X47736Y-62031D01*
X48197Y-61939D01*
X48588Y-61678D01*
X48849Y-61288D01*
X48941Y-60827D01*
Y-59957D01*
X49441Y-59588D01*
X49903Y-59680D01*
X50678Y-59525D01*
X51336Y-59086D01*
X51775Y-58428D01*
X51930Y-57653D01*
X51804Y-57019D01*
X52092Y-56519D01*
X53217D01*
Y-56890D01*
X53339Y-57504D01*
X53688Y-58025D01*
X54208Y-58373D01*
X54823Y-58495D01*
X56791D01*
X57406Y-58373D01*
X57927Y-58025D01*
X58187Y-57636D01*
X58280Y-57610D01*
X58649D01*
X58742Y-57636D01*
X59002Y-58025D01*
X59523Y-58373D01*
X60138Y-58495D01*
X62106D01*
X62721Y-58373D01*
X63242Y-58025D01*
X63565Y-57541D01*
X63691Y-57505D01*
X64099Y-57507D01*
X64380Y-57929D01*
X64901Y-58277D01*
X65195Y-58335D01*
Y-59402D01*
X65026D01*
X64565Y-59494D01*
X64174Y-59755D01*
X63913Y-60145D01*
X63821Y-60606D01*
Y-61394D01*
X63913Y-61854D01*
X64174Y-62245D01*
X64565Y-62506D01*
X65026Y-62598D01*
X68569D01*
X69030Y-62506D01*
X69261Y-62351D01*
X69671Y-62507D01*
X69727Y-62575D01*
Y-63362D01*
X69819Y-63823D01*
X70080Y-64214D01*
X70470Y-64475D01*
X70931Y-64566D01*
X74474D01*
X74935Y-64475D01*
X75160Y-64324D01*
X75660Y-64472D01*
Y-64543D01*
X75782Y-65158D01*
X75961Y-65426D01*
X75694Y-65926D01*
X25349D01*
X25082Y-65426D01*
X25262Y-65155D01*
X25438Y-64272D01*
Y-61319D01*
X25262Y-60436D01*
X24762Y-59687D01*
X24013Y-59187D01*
X23130Y-59011D01*
X20177D01*
X19294Y-59187D01*
X18545Y-59687D01*
X18045Y-60436D01*
X17898Y-61174D01*
X17381Y-61231D01*
X17203Y-60802D01*
X16569Y-59976D01*
X15743Y-59343D01*
X14782Y-58944D01*
X14250Y-58874D01*
Y-62795D01*
X13250D01*
Y-58874D01*
X12718Y-58944D01*
X11757Y-59343D01*
X11668Y-59410D01*
X11168Y-59164D01*
X10927Y-58581D01*
X10483Y-58002D01*
X9904Y-57557D01*
X9743Y-57491D01*
X9795Y-56971D01*
X9845Y-56961D01*
X10561Y-56482D01*
X11040Y-55766D01*
X11208Y-54921D01*
X11040Y-54076D01*
X10773Y-53677D01*
X11040Y-53177D01*
X14014D01*
X16330Y-55492D01*
D02*
G37*
G36*
X123077Y-46672D02*
X123501Y-46955D01*
X124000Y-47055D01*
X133102D01*
X133424Y-47555D01*
X133364Y-47858D01*
Y-52681D01*
X133467Y-53199D01*
X133760Y-53639D01*
X134200Y-53933D01*
X134719Y-54036D01*
X135801D01*
X136320Y-53933D01*
X136759Y-53639D01*
X137053Y-53199D01*
X137156Y-52681D01*
Y-50845D01*
X137656Y-50447D01*
X138056Y-50527D01*
X138832Y-50373D01*
X139490Y-49933D01*
X139929Y-49276D01*
X140084Y-48500D01*
X139929Y-47724D01*
X139816Y-47555D01*
X140083Y-47055D01*
X140582D01*
X140904Y-47555D01*
X140844Y-47858D01*
Y-52681D01*
X140947Y-53199D01*
X141241Y-53639D01*
X141680Y-53933D01*
X142199Y-54036D01*
X143281D01*
X143695Y-53953D01*
X144195Y-54224D01*
Y-60644D01*
X143695Y-60976D01*
X143234Y-60884D01*
X142750D01*
Y-63494D01*
X141750D01*
Y-60884D01*
X141266D01*
X141222Y-60893D01*
X141186Y-60875D01*
X140837Y-60460D01*
X140896Y-60161D01*
Y-55339D01*
X140793Y-54820D01*
X140499Y-54381D01*
X140060Y-54087D01*
X139541Y-53984D01*
X138459D01*
X137940Y-54087D01*
X137501Y-54381D01*
X137207Y-54820D01*
X137104Y-55339D01*
Y-60161D01*
X137142Y-60351D01*
X136766Y-60851D01*
X135516D01*
X134901Y-60973D01*
X134380Y-61321D01*
X134032Y-61842D01*
X133964Y-62184D01*
X133237D01*
X133218Y-62086D01*
X132870Y-61565D01*
X132349Y-61217D01*
X131734Y-61095D01*
X129766D01*
X129151Y-61217D01*
X128630Y-61565D01*
X128282Y-62086D01*
X128263Y-62184D01*
X127486D01*
X127468Y-62092D01*
X127120Y-61571D01*
X126599Y-61223D01*
X126347Y-61173D01*
Y-52939D01*
X126621Y-52529D01*
X126776Y-51754D01*
X126621Y-50978D01*
X126182Y-50320D01*
X125524Y-49881D01*
X124748Y-49726D01*
X123973Y-49881D01*
X123315Y-50320D01*
X122876Y-50978D01*
X122721Y-51754D01*
X122876Y-52529D01*
X123315Y-53187D01*
X123738Y-53470D01*
Y-61156D01*
X123401Y-61223D01*
X122880Y-61571D01*
X122532Y-62092D01*
X122410Y-62707D01*
Y-64281D01*
X122532Y-64896D01*
X122880Y-65417D01*
X123401Y-65765D01*
X124016Y-65887D01*
X125984D01*
X126599Y-65765D01*
X127120Y-65417D01*
X127468Y-64896D01*
X127488Y-64793D01*
X128263D01*
X128282Y-64890D01*
X128630Y-65411D01*
X129151Y-65759D01*
X129766Y-65881D01*
X131734D01*
X132349Y-65759D01*
X132870Y-65411D01*
X133218Y-64890D01*
X133237Y-64793D01*
X134130D01*
X134380Y-65167D01*
X134901Y-65515D01*
X135516Y-65637D01*
X137484D01*
X137698Y-65992D01*
X137674Y-66035D01*
X137311Y-66363D01*
X135516D01*
X134901Y-66485D01*
X134380Y-66833D01*
X134032Y-67354D01*
X133964Y-67698D01*
X133454D01*
X133418Y-67515D01*
X133023Y-66924D01*
X132432Y-66529D01*
X131734Y-66390D01*
X131250D01*
Y-69000D01*
X130250D01*
Y-66390D01*
X129766D01*
X129068Y-66529D01*
X128477Y-66924D01*
X128082Y-67515D01*
X128021Y-67822D01*
X127511D01*
X127468Y-67604D01*
X127120Y-67083D01*
X126599Y-66735D01*
X125984Y-66613D01*
X124016D01*
X123401Y-66735D01*
X122880Y-67083D01*
X122532Y-67604D01*
X122410Y-68218D01*
Y-69793D01*
X122532Y-70408D01*
X122880Y-70929D01*
X123401Y-71277D01*
X124016Y-71399D01*
X124064D01*
Y-72254D01*
X123795Y-72504D01*
X123239Y-72445D01*
X123099Y-72235D01*
X122606Y-71905D01*
X122031Y-71791D01*
Y-74000D01*
Y-76209D01*
X122606Y-76095D01*
X123099Y-75765D01*
X123342Y-75401D01*
X123799Y-75363D01*
X123906Y-75390D01*
X124054Y-75612D01*
X124477Y-75894D01*
X124976Y-75994D01*
X125961D01*
X126460Y-75894D01*
X126883Y-75612D01*
X127166Y-75188D01*
X127265Y-74689D01*
Y-73311D01*
X127166Y-72812D01*
X126883Y-72388D01*
X126874Y-72382D01*
Y-71093D01*
X127120Y-70929D01*
X127468Y-70408D01*
X127512Y-70183D01*
X128022D01*
X128082Y-70485D01*
X128477Y-71076D01*
X129068Y-71471D01*
X129753Y-71607D01*
X129774Y-71640D01*
X129901Y-72110D01*
X129714Y-72235D01*
X129384Y-72729D01*
X129268Y-73311D01*
Y-73500D01*
X131281D01*
Y-74000D01*
X131781D01*
Y-76209D01*
X132356Y-76095D01*
X132849Y-75765D01*
X133092Y-75401D01*
X133549Y-75363D01*
X133656Y-75390D01*
X133804Y-75612D01*
X134227Y-75894D01*
X134726Y-75994D01*
X135711D01*
X136210Y-75894D01*
X136633Y-75612D01*
X136916Y-75188D01*
X137015Y-74689D01*
Y-73311D01*
X136916Y-72812D01*
X136633Y-72388D01*
X136624Y-72382D01*
Y-71149D01*
X137484D01*
X138099Y-71027D01*
X138620Y-70679D01*
X138968Y-70158D01*
X139090Y-69543D01*
Y-68923D01*
X139590Y-68656D01*
X139660Y-68703D01*
Y-69793D01*
X139782Y-70408D01*
X140130Y-70929D01*
X140578Y-71228D01*
X140618Y-71500D01*
X140578Y-71772D01*
X140130Y-72071D01*
X139782Y-72592D01*
X139660Y-73207D01*
Y-74782D01*
X139782Y-75396D01*
X140130Y-75917D01*
X140651Y-76265D01*
X141266Y-76387D01*
X143234D01*
X143559Y-76323D01*
X143997Y-76649D01*
Y-76850D01*
X143559Y-77177D01*
X143234Y-77113D01*
X141266D01*
X140651Y-77235D01*
X140536Y-77312D01*
X134373D01*
X134241Y-77224D01*
X133742Y-77125D01*
X132758D01*
X132259Y-77224D01*
X132127Y-77312D01*
X124623D01*
X124491Y-77224D01*
X123992Y-77125D01*
X123008D01*
X122509Y-77224D01*
X122377Y-77312D01*
X116768D01*
X116358Y-76812D01*
X116366Y-76772D01*
Y-74016D01*
X116259Y-73478D01*
X115954Y-73022D01*
X115578Y-72771D01*
X115608Y-72416D01*
X115661Y-72271D01*
X118264D01*
X119076Y-72110D01*
X119765Y-71649D01*
X120226Y-70960D01*
X120387Y-70148D01*
Y-69565D01*
X116000D01*
Y-69065D01*
X115500D01*
Y-65859D01*
X113736D01*
X112924Y-66020D01*
X112397Y-66372D01*
X111859Y-66285D01*
X111791Y-66244D01*
X111233Y-65517D01*
X110472Y-64933D01*
X110053Y-64759D01*
Y-64218D01*
X110671Y-63962D01*
X110985Y-63721D01*
X113236D01*
X113736Y-63787D01*
X118264D01*
X119369Y-63641D01*
X120398Y-63215D01*
X121282Y-62536D01*
X121961Y-61652D01*
X122387Y-60623D01*
X122533Y-59518D01*
Y-57352D01*
X122387Y-56248D01*
X121961Y-55218D01*
X121282Y-54334D01*
X120398Y-53655D01*
X119369Y-53229D01*
X118264Y-53084D01*
X113736D01*
X112631Y-53229D01*
X111602Y-53655D01*
X110718Y-54334D01*
X110237Y-54961D01*
X109689Y-54734D01*
X108636Y-54595D01*
X106864D01*
X105811Y-54734D01*
X104829Y-55140D01*
X104515Y-55382D01*
X104344D01*
X104031Y-55141D01*
X102991Y-54710D01*
X101875Y-54563D01*
X99625D01*
X98509Y-54710D01*
X97469Y-55141D01*
X96576Y-55826D01*
X96318Y-56163D01*
X95884Y-55829D01*
X95035Y-55478D01*
X94125Y-55358D01*
X93630D01*
X93423Y-54858D01*
X94095Y-54185D01*
X94378Y-53762D01*
X94477Y-53263D01*
Y-51263D01*
X94977Y-50923D01*
X95074Y-50942D01*
X95473Y-51500D01*
X95627Y-52276D01*
X96067Y-52933D01*
X96724Y-53373D01*
X97500Y-53527D01*
X98276Y-53373D01*
X98933Y-52933D01*
X99156Y-52601D01*
X99423Y-52422D01*
X100180Y-51665D01*
X100554Y-51702D01*
X101774Y-52922D01*
X102197Y-53205D01*
X102697Y-53305D01*
X109900D01*
X110399Y-53205D01*
X110822Y-52922D01*
X112802Y-50943D01*
X113387Y-51185D01*
X114106Y-51280D01*
X114894D01*
X115613Y-51185D01*
X116284Y-50907D01*
X116859Y-50466D01*
X117301Y-49890D01*
X117579Y-49219D01*
X117673Y-48500D01*
X117579Y-47781D01*
X117301Y-47110D01*
X116859Y-46534D01*
X116566Y-46310D01*
Y-45690D01*
X116859Y-45465D01*
X117301Y-44890D01*
X117579Y-44219D01*
X117673Y-43500D01*
X117579Y-42781D01*
X117301Y-42110D01*
X117223Y-42009D01*
X117445Y-41561D01*
X117965D01*
X123077Y-46672D01*
D02*
G37*
G36*
X134101Y-3946D02*
Y-5213D01*
Y-17804D01*
X132578Y-19328D01*
X132295Y-19751D01*
X132195Y-20250D01*
Y-26710D01*
X131960Y-26945D01*
X130527D01*
X130260Y-26445D01*
X130373Y-26276D01*
X130527Y-25500D01*
X130373Y-24724D01*
X129933Y-24067D01*
X129276Y-23627D01*
X128500Y-23473D01*
X127724Y-23627D01*
X127067Y-24067D01*
X126627Y-24724D01*
X126538Y-25172D01*
X120230D01*
X120181Y-24672D01*
X120845Y-24540D01*
X121561Y-24061D01*
X122040Y-23345D01*
X122192Y-22579D01*
X123891Y-20879D01*
X123891Y-20879D01*
X123975Y-20754D01*
X124158Y-20718D01*
X124679Y-20370D01*
X125027Y-19849D01*
X125149Y-19234D01*
Y-17490D01*
X125613Y-17212D01*
X125631Y-17210D01*
X125676Y-17240D01*
X126250Y-17354D01*
Y-15146D01*
X126750D01*
Y-14646D01*
X128763D01*
Y-14457D01*
X128648Y-13874D01*
X128318Y-13381D01*
X128000Y-13168D01*
X127957Y-12640D01*
X127972Y-12594D01*
X128123Y-12494D01*
X128567Y-12288D01*
X129224Y-12727D01*
X130000Y-12881D01*
X130776Y-12727D01*
X131433Y-12288D01*
X131873Y-11630D01*
X132027Y-10854D01*
X131873Y-10079D01*
X131433Y-9421D01*
X130776Y-8981D01*
X130000Y-8827D01*
X129224Y-8981D01*
X128662Y-9357D01*
X128258Y-9173D01*
X128281Y-8685D01*
X128318Y-8660D01*
X128648Y-8167D01*
X128763Y-7585D01*
Y-7396D01*
X126750D01*
Y-6396D01*
X128763D01*
Y-6207D01*
X128648Y-5624D01*
X128318Y-5131D01*
X128000Y-4918D01*
X127957Y-4390D01*
X127972Y-4344D01*
X128165Y-4216D01*
X128370Y-3909D01*
X134064D01*
X134101Y-3946D01*
D02*
G37*
G36*
X114917Y-80787D02*
X115608Y-80924D01*
X115733Y-80900D01*
X115858Y-80924D01*
X122377D01*
X122509Y-81012D01*
X123008Y-81112D01*
X123992D01*
X124491Y-81012D01*
X124623Y-80924D01*
X132127D01*
X132259Y-81012D01*
X132758Y-81112D01*
X133742D01*
X134241Y-81012D01*
X134373Y-80924D01*
X139794D01*
X140130Y-81429D01*
X140651Y-81777D01*
X141266Y-81899D01*
X143234D01*
X143695Y-81807D01*
X144195Y-82101D01*
Y-84264D01*
X144104Y-84282D01*
X143583Y-84630D01*
X143235Y-85151D01*
X143113Y-85766D01*
Y-87734D01*
X143235Y-88349D01*
X143583Y-88870D01*
X143850Y-89048D01*
X143698Y-89548D01*
X142185D01*
X142033Y-89048D01*
X142070Y-89023D01*
X142465Y-88432D01*
X142604Y-87734D01*
Y-87250D01*
X139994D01*
X137384D01*
Y-87734D01*
X137523Y-88432D01*
X137918Y-89023D01*
X137955Y-89048D01*
X137803Y-89548D01*
X134120D01*
X133864Y-89135D01*
X133865Y-89048D01*
X134021Y-88264D01*
Y-86500D01*
X130815D01*
X127609D01*
Y-88264D01*
X127765Y-89048D01*
X127766Y-89135D01*
X127510Y-89548D01*
X123189D01*
X122954Y-89107D01*
X123029Y-88993D01*
X123174Y-88264D01*
Y-83736D01*
X123029Y-83007D01*
X122616Y-82388D01*
X121997Y-81975D01*
X121268Y-81830D01*
X119102D01*
X118373Y-81975D01*
X118308Y-82018D01*
X117935Y-81944D01*
X117125D01*
X117026Y-81877D01*
X116250Y-81723D01*
X115474Y-81877D01*
X114817Y-82317D01*
X114377Y-82974D01*
X114354Y-83092D01*
X113093Y-84353D01*
X112701Y-84939D01*
X112695Y-84970D01*
X112481Y-85289D01*
X112375Y-85827D01*
Y-88583D01*
X112467Y-89048D01*
X112292Y-89474D01*
X112253Y-89548D01*
X109597D01*
X109558Y-89474D01*
X109383Y-89048D01*
X109476Y-88583D01*
Y-85827D01*
X109393Y-85411D01*
X114378Y-80427D01*
X114917Y-80787D01*
D02*
G37*
G36*
X105801Y-1503D02*
X105757Y-1722D01*
Y-7333D01*
X105876Y-7928D01*
X105910Y-7979D01*
X105674Y-8420D01*
X104842D01*
X104260Y-8535D01*
X103788Y-8851D01*
X103417Y-8602D01*
X102835Y-8486D01*
X102646D01*
Y-10500D01*
X101646D01*
Y-8486D01*
X101457D01*
X100874Y-8602D01*
X100381Y-8932D01*
X100168Y-9250D01*
X99640Y-9293D01*
X99594Y-9278D01*
X99466Y-9085D01*
X99043Y-8803D01*
X98543Y-8703D01*
X97165D01*
X96859Y-8764D01*
X94439Y-6344D01*
Y-1722D01*
X94396Y-1503D01*
X94794Y-1003D01*
X105403D01*
X105801Y-1503D01*
D02*
G37*
G36*
X166250Y-8568D02*
X166885Y-8485D01*
X167942Y-8047D01*
X168850Y-7350D01*
X169023Y-7124D01*
X169497Y-7285D01*
Y-27067D01*
X169573Y-27451D01*
X169790Y-27777D01*
X170116Y-27994D01*
X170500Y-28071D01*
X176162D01*
Y-84479D01*
X175662Y-84578D01*
X175297Y-83696D01*
X174600Y-82788D01*
X173692Y-82092D01*
X173583Y-82047D01*
X173632Y-81549D01*
X173707Y-81534D01*
X174488Y-81012D01*
X175011Y-80231D01*
X175194Y-79309D01*
Y-74585D01*
X175011Y-73663D01*
X174488Y-72882D01*
X173707Y-72360D01*
X172785Y-72176D01*
X169636D01*
X168714Y-72360D01*
X168299Y-72637D01*
X166220Y-70557D01*
X166427Y-70057D01*
X175148D01*
Y-51553D01*
X155463D01*
Y-70057D01*
X155463Y-70057D01*
X155463D01*
X155505Y-70557D01*
X155024Y-71038D01*
X153527D01*
X152206Y-69716D01*
Y-69174D01*
X152764D01*
X153493Y-69029D01*
X154112Y-68616D01*
X154525Y-67997D01*
X154671Y-67268D01*
Y-65102D01*
X154525Y-64373D01*
X154112Y-63754D01*
X153493Y-63341D01*
X152764Y-63196D01*
X152206D01*
Y-60205D01*
X152620Y-59929D01*
X152968Y-59408D01*
X153090Y-58793D01*
Y-57218D01*
X152968Y-56604D01*
X152620Y-56083D01*
X152099Y-55735D01*
X151484Y-55613D01*
X149516D01*
X148901Y-55735D01*
X148380Y-56083D01*
X148032Y-56604D01*
X147910Y-57218D01*
Y-58793D01*
X148032Y-59408D01*
X148380Y-59929D01*
X148794Y-60205D01*
Y-63196D01*
X148236D01*
X147507Y-63341D01*
X147305Y-63476D01*
X146805Y-63209D01*
Y-47250D01*
X146705Y-46751D01*
X146423Y-46327D01*
X144922Y-44827D01*
X144499Y-44545D01*
X144000Y-44445D01*
X143303D01*
X143112Y-43984D01*
X144202Y-42893D01*
X144485Y-42470D01*
X144584Y-41971D01*
Y-27260D01*
X144579Y-27236D01*
Y-25091D01*
X144499Y-24687D01*
X144271Y-24345D01*
X143929Y-24117D01*
X143526Y-24037D01*
X143034D01*
X142630Y-24117D01*
X142295Y-24341D01*
X141960Y-24117D01*
X141557Y-24037D01*
X141065D01*
X140662Y-24117D01*
X140506Y-24221D01*
X140487Y-24192D01*
X140075Y-23917D01*
X139843Y-23871D01*
Y-27010D01*
X138843D01*
Y-23871D01*
X138610Y-23917D01*
X138198Y-24192D01*
X138179Y-24221D01*
X138023Y-24117D01*
X137620Y-24037D01*
X137128D01*
X136725Y-24117D01*
X136390Y-24341D01*
X136055Y-24117D01*
X135652Y-24037D01*
X135160D01*
X134805Y-23746D01*
Y-20790D01*
X136328Y-19267D01*
X136611Y-18844D01*
X136710Y-18345D01*
Y-8362D01*
X137128Y-7936D01*
X137620D01*
X138023Y-7855D01*
X138179Y-7751D01*
X138198Y-7780D01*
X138610Y-8056D01*
X138843Y-8102D01*
Y-4963D01*
X139843D01*
Y-8102D01*
X140075Y-8056D01*
X140487Y-7780D01*
X140506Y-7751D01*
X140662Y-7855D01*
X141065Y-7936D01*
X141557D01*
X141975Y-8362D01*
Y-9335D01*
X141846Y-9421D01*
X141407Y-10079D01*
X141252Y-10854D01*
X141407Y-11630D01*
X141846Y-12288D01*
X142504Y-12727D01*
X143280Y-12881D01*
X143397Y-12858D01*
X148782Y-18244D01*
X149238Y-18548D01*
X149522Y-18605D01*
Y-24345D01*
X149629Y-24883D01*
X149934Y-25339D01*
X151429Y-26834D01*
X151460Y-26991D01*
X151743Y-27415D01*
X152166Y-27697D01*
X152665Y-27797D01*
X154043D01*
X154543Y-27697D01*
X154966Y-27415D01*
X155094Y-27222D01*
X155140Y-27207D01*
X155668Y-27250D01*
X155881Y-27568D01*
X156375Y-27898D01*
X156957Y-28014D01*
X157146D01*
Y-26000D01*
X158146D01*
Y-28014D01*
X158335D01*
X158917Y-27898D01*
X159410Y-27568D01*
X160000Y-27586D01*
X160166Y-27697D01*
X160665Y-27797D01*
X162043D01*
X162543Y-27697D01*
X162966Y-27415D01*
X163243Y-26999D01*
X163288Y-26991D01*
X163712D01*
X163757Y-26999D01*
X164034Y-27415D01*
X164112Y-27467D01*
X163773Y-27974D01*
X163619Y-28750D01*
X163773Y-29526D01*
X164212Y-30183D01*
X164870Y-30623D01*
X165646Y-30777D01*
X166421Y-30623D01*
X167079Y-30183D01*
X167518Y-29526D01*
X167673Y-28750D01*
X167518Y-27974D01*
X167179Y-27467D01*
X167257Y-27415D01*
X167540Y-26991D01*
X167639Y-26492D01*
Y-25508D01*
X167540Y-25009D01*
X167257Y-24585D01*
X166834Y-24303D01*
X166335Y-24203D01*
X164957D01*
X164457Y-24303D01*
X164034Y-24585D01*
X163757Y-25001D01*
X163712Y-25009D01*
X163288D01*
X163243Y-25001D01*
X162966Y-24585D01*
X162666Y-24385D01*
X162652Y-24317D01*
X162375Y-23901D01*
X162412Y-23742D01*
X162595Y-23401D01*
X163724D01*
Y-21490D01*
X160632D01*
Y-21498D01*
X160252Y-21752D01*
X160143Y-21772D01*
X160038Y-21702D01*
X159500Y-21595D01*
X158936D01*
X158151Y-20810D01*
Y-20301D01*
X158036Y-19725D01*
X157880Y-19491D01*
X157751Y-19120D01*
X157880Y-18749D01*
X158036Y-18515D01*
X158151Y-17939D01*
Y-16561D01*
X158036Y-15985D01*
X157880Y-15751D01*
X157751Y-15380D01*
X157880Y-15009D01*
X158036Y-14775D01*
X158151Y-14199D01*
Y-12821D01*
X158036Y-12245D01*
X157710Y-11756D01*
X157222Y-11430D01*
X156646Y-11316D01*
X155155D01*
Y-10455D01*
X155349Y-10417D01*
X155870Y-10068D01*
X156216Y-9551D01*
X157447D01*
X157585Y-9757D01*
X158009Y-10040D01*
X158508Y-10139D01*
X159492D01*
X159991Y-10040D01*
X160415Y-9757D01*
X160697Y-9334D01*
X160797Y-8835D01*
Y-7457D01*
X160697Y-6957D01*
X160415Y-6534D01*
X160222Y-6406D01*
X160207Y-6360D01*
X160250Y-5832D01*
X160568Y-5619D01*
X160898Y-5125D01*
X160945Y-4886D01*
X161452Y-4902D01*
X161515Y-5385D01*
X161953Y-6442D01*
X162650Y-7350D01*
X163558Y-8047D01*
X164615Y-8485D01*
X165250Y-8568D01*
Y-4250D01*
X166250D01*
Y-8568D01*
D02*
G37*
G36*
X125035Y-1503D02*
X124953Y-1915D01*
Y-3293D01*
X125053Y-3793D01*
X125335Y-4216D01*
X125528Y-4344D01*
X125543Y-4390D01*
X125501Y-4918D01*
X125182Y-5131D01*
X124852Y-5624D01*
X124736Y-6207D01*
Y-6596D01*
X124275Y-6788D01*
X122743Y-5257D01*
X122288Y-4952D01*
X121750Y-4845D01*
X120582D01*
X119995Y-4259D01*
Y-1648D01*
X119967Y-1503D01*
X120373Y-1003D01*
X124773D01*
X125035Y-1503D01*
D02*
G37*
G36*
X76271D02*
X76256Y-1575D01*
Y-8268D01*
X76348Y-8728D01*
X76609Y-9119D01*
X77000Y-9380D01*
X77461Y-9472D01*
X78188D01*
X78745Y-10028D01*
X78553Y-10490D01*
X77705D01*
X77206Y-10589D01*
X76810Y-10854D01*
X76500Y-10792D01*
X75655Y-10960D01*
X74939Y-11439D01*
X74460Y-12155D01*
X74292Y-13000D01*
X74460Y-13845D01*
X74939Y-14561D01*
X75655Y-15040D01*
X76500Y-15208D01*
X77345Y-15040D01*
X78061Y-14561D01*
X78540Y-13845D01*
X78688Y-13099D01*
X82083D01*
X82235Y-13599D01*
X82181Y-13635D01*
X81253Y-14563D01*
X81102Y-14789D01*
X80168Y-15723D01*
X73572D01*
X72583Y-14734D01*
X72774Y-14272D01*
X72933D01*
Y-9154D01*
X68209D01*
Y-14272D01*
X69266D01*
Y-14567D01*
X69366Y-15066D01*
X69648Y-15489D01*
X72109Y-17950D01*
X72532Y-18233D01*
X73032Y-18332D01*
X80709D01*
X81208Y-18233D01*
X81631Y-17950D01*
X81993Y-17588D01*
X82455Y-17779D01*
Y-18701D01*
X82493Y-18890D01*
X82079Y-19304D01*
X81890Y-19266D01*
X77810D01*
X77311Y-19366D01*
X76888Y-19648D01*
X75765Y-20772D01*
X69412D01*
X69056Y-20272D01*
X69153Y-19783D01*
X68999Y-19008D01*
X68559Y-18350D01*
X67902Y-17911D01*
X67435Y-17818D01*
X65922Y-16305D01*
X65922Y-16305D01*
X65788Y-16215D01*
X64709Y-15137D01*
X64706Y-15132D01*
X64308Y-14734D01*
X64499Y-14272D01*
X67421D01*
Y-9154D01*
X62697D01*
Y-10212D01*
X61480D01*
X61308Y-9955D01*
X60592Y-9477D01*
X59747Y-9308D01*
X58902Y-9477D01*
X58186Y-9955D01*
X57707Y-10671D01*
X57539Y-11516D01*
X57707Y-12361D01*
X58186Y-13077D01*
X58451Y-13254D01*
X58299Y-13755D01*
X56849D01*
X53672Y-10577D01*
X53644Y-10558D01*
X50305Y-7219D01*
Y-6988D01*
X50205Y-6489D01*
X49922Y-6066D01*
X47982Y-4125D01*
Y-3248D01*
X47875Y-2710D01*
X47570Y-2255D01*
X47114Y-1950D01*
X46577Y-1843D01*
X43033D01*
X42496Y-1950D01*
X42040Y-2255D01*
X41736Y-2710D01*
X41629Y-3248D01*
Y-4429D01*
X41736Y-4967D01*
X42040Y-5423D01*
X41851Y-5881D01*
X41673Y-6073D01*
X41671D01*
X41095Y-6188D01*
X40607Y-6514D01*
X39643Y-7478D01*
X39143Y-7271D01*
Y-6988D01*
X39020Y-6368D01*
X38705Y-5897D01*
X38515Y-5423D01*
X38820Y-4967D01*
X38927Y-4429D01*
Y-3248D01*
X38820Y-2710D01*
X38515Y-2255D01*
X38059Y-1950D01*
X37522Y-1843D01*
X33978D01*
X33441Y-1950D01*
X32985Y-2255D01*
X32798Y-2534D01*
X27161D01*
X26662Y-2633D01*
X26239Y-2916D01*
X22578Y-6577D01*
X22295Y-7001D01*
X22195Y-7500D01*
Y-8990D01*
X21901Y-9048D01*
X21380Y-9396D01*
X21032Y-9917D01*
X20910Y-10531D01*
Y-12106D01*
X21032Y-12721D01*
X21380Y-13242D01*
X21901Y-13590D01*
X22516Y-13712D01*
X24484D01*
X25099Y-13590D01*
X25620Y-13242D01*
X25968Y-12721D01*
X25995Y-12583D01*
X26505D01*
X26532Y-12721D01*
X26880Y-13242D01*
X27401Y-13590D01*
X28016Y-13712D01*
X29984D01*
X30599Y-13590D01*
X31120Y-13242D01*
X31468Y-12721D01*
X31487Y-12623D01*
X32798D01*
X32985Y-12903D01*
X33441Y-13207D01*
X33978Y-13314D01*
X37522D01*
X38059Y-13207D01*
X38143Y-13151D01*
X38666Y-13326D01*
X38703Y-13427D01*
X38333Y-13863D01*
X37750D01*
Y-17750D01*
X40456D01*
Y-15986D01*
X40404Y-15725D01*
X40855Y-15428D01*
X41174Y-15641D01*
X41750Y-15755D01*
X44627D01*
X44890Y-16019D01*
Y-20514D01*
X45036Y-21243D01*
X45449Y-21862D01*
X46068Y-22275D01*
X46324Y-22326D01*
Y-23123D01*
X45868Y-23427D01*
X45477Y-24013D01*
X45339Y-24705D01*
Y-37606D01*
X42522Y-40424D01*
X42130Y-41010D01*
X41993Y-41701D01*
X42055Y-42011D01*
X41835Y-42467D01*
X41682Y-42506D01*
X41287Y-42585D01*
X41106Y-42706D01*
X40606Y-42439D01*
Y-39000D01*
X40606Y-39000D01*
X40483Y-38385D01*
X40135Y-37865D01*
X40135Y-37865D01*
X39765Y-37495D01*
X39791Y-37432D01*
X39886Y-36713D01*
Y-25689D01*
X39791Y-24970D01*
X39514Y-24299D01*
X39072Y-23723D01*
X38496Y-23282D01*
X38147Y-23137D01*
X38247Y-22637D01*
X38333D01*
X39145Y-22476D01*
X39834Y-22015D01*
X40295Y-21326D01*
X40456Y-20514D01*
Y-18750D01*
X37250D01*
X34044D01*
Y-18892D01*
X33544Y-19044D01*
X33225Y-18567D01*
X32567Y-18127D01*
X31791Y-17973D01*
X31590Y-17503D01*
Y-16043D01*
X31468Y-15429D01*
X31120Y-14908D01*
X30599Y-14560D01*
X29984Y-14438D01*
X28016D01*
X27401Y-14560D01*
X26880Y-14908D01*
X26532Y-15429D01*
X26505Y-15567D01*
X25995D01*
X25968Y-15429D01*
X25620Y-14908D01*
X25099Y-14560D01*
X24484Y-14438D01*
X22516D01*
X21901Y-14560D01*
X21380Y-14908D01*
X21099Y-15329D01*
X19515D01*
X19214Y-14829D01*
X19276Y-14518D01*
Y-13632D01*
X19181Y-13152D01*
X19078Y-12999D01*
X18820Y-12570D01*
X19362Y-11759D01*
X19552Y-10802D01*
Y-9850D01*
X14567D01*
Y-9350D01*
X14067D01*
Y-5399D01*
X12082D01*
X11125Y-5589D01*
X10580Y-5953D01*
X10080Y-5686D01*
Y-4774D01*
X9981Y-4024D01*
X9692Y-3326D01*
X9232Y-2727D01*
X8632Y-2267D01*
X7934Y-1977D01*
X7185Y-1879D01*
X5815D01*
Y-7579D01*
X4815D01*
Y-1879D01*
X3445D01*
X2696Y-1977D01*
X1997Y-2267D01*
X1503Y-2646D01*
X1003Y-2486D01*
Y-1003D01*
X75866D01*
X76271Y-1503D01*
D02*
G37*
G36*
X162379Y-1503D02*
X161953Y-2058D01*
X161515Y-3115D01*
X161510Y-3157D01*
X161013Y-3165D01*
X160898Y-2583D01*
X160568Y-2090D01*
X160074Y-1760D01*
X159500Y-1646D01*
Y-3854D01*
X159000D01*
Y-4354D01*
X156986D01*
Y-4543D01*
X157102Y-5125D01*
X157432Y-5619D01*
X157750Y-5832D01*
X157793Y-6360D01*
X157778Y-6406D01*
X157585Y-6534D01*
X157447Y-6741D01*
X156216D01*
X155870Y-6223D01*
X155349Y-5875D01*
X154734Y-5753D01*
X152766D01*
X152151Y-5875D01*
X151630Y-6223D01*
X151282Y-6744D01*
X151160Y-7358D01*
Y-8933D01*
X151282Y-9548D01*
X151630Y-10068D01*
X152151Y-10417D01*
X152345Y-10455D01*
Y-11427D01*
X152330Y-11430D01*
X151841Y-11756D01*
X151515Y-12245D01*
X151400Y-12821D01*
Y-14199D01*
X151515Y-14775D01*
X151671Y-15009D01*
X151800Y-15380D01*
X151671Y-15751D01*
X151608Y-15845D01*
X150357D01*
X145292Y-10779D01*
X145152Y-10079D01*
X144713Y-9421D01*
X144584Y-9335D01*
Y-5213D01*
X144579Y-5188D01*
Y-3043D01*
X144775Y-2805D01*
X151160D01*
Y-3421D01*
X151282Y-4036D01*
X151630Y-4557D01*
X152151Y-4905D01*
X152766Y-5027D01*
X154734D01*
X155349Y-4905D01*
X155870Y-4557D01*
X156218Y-4036D01*
X156340Y-3421D01*
Y-1846D01*
X156272Y-1503D01*
X156621Y-1003D01*
X162132D01*
X162379Y-1503D01*
D02*
G37*
G36*
X32916Y-5594D02*
X32795Y-5897D01*
X32480Y-6368D01*
X32357Y-6988D01*
Y-7079D01*
X35750D01*
Y-8079D01*
X32357D01*
Y-8169D01*
X32480Y-8790D01*
X32795Y-9261D01*
X32916Y-9563D01*
X32612Y-10014D01*
X31487D01*
X31468Y-9917D01*
X31120Y-9396D01*
X30599Y-9048D01*
X29984Y-8926D01*
X28016D01*
X27401Y-9048D01*
X26880Y-9396D01*
X26532Y-9917D01*
X26505Y-10055D01*
X25995D01*
X25968Y-9917D01*
X25620Y-9396D01*
X25099Y-9048D01*
X24805Y-8990D01*
Y-8040D01*
X27702Y-5143D01*
X32612D01*
X32916Y-5594D01*
D02*
G37*
%LPC*%
G36*
X154469Y-85041D02*
Y-86750D01*
X155982D01*
Y-86561D01*
X155866Y-85979D01*
X155536Y-85485D01*
X155043Y-85155D01*
X154469Y-85041D01*
D02*
G37*
G36*
X36213Y-47989D02*
X35335D01*
X34791Y-48097D01*
X34330Y-48405D01*
X34022Y-48866D01*
X34013Y-48909D01*
X36213D01*
Y-47989D01*
D02*
G37*
G36*
Y-49909D02*
X34013D01*
X34022Y-49953D01*
X34330Y-50414D01*
X34791Y-50722D01*
X35335Y-50831D01*
X36213D01*
Y-49909D01*
D02*
G37*
G36*
X27000Y-23250D02*
X25291D01*
X25405Y-23824D01*
X25735Y-24318D01*
X26229Y-24648D01*
X26811Y-24764D01*
X27000D01*
Y-23250D01*
D02*
G37*
G36*
X19552Y-29535D02*
X14870D01*
Y-32987D01*
X17052D01*
X18009Y-32797D01*
X18820Y-32255D01*
X19362Y-31444D01*
X19552Y-30487D01*
Y-29535D01*
D02*
G37*
G36*
X34637Y-44844D02*
X30750D01*
Y-47551D01*
X32514D01*
X33326Y-47389D01*
X34015Y-46929D01*
X34476Y-46240D01*
X34637Y-45427D01*
Y-44844D01*
D02*
G37*
G36*
X29750D02*
X25863D01*
Y-45427D01*
X26024Y-46240D01*
X26485Y-46929D01*
X27174Y-47389D01*
X27986Y-47551D01*
X29750D01*
Y-44844D01*
D02*
G37*
G36*
X20000D02*
X16113D01*
Y-45427D01*
X16274Y-46240D01*
X16735Y-46929D01*
X17424Y-47389D01*
X18236Y-47551D01*
X20000D01*
Y-44844D01*
D02*
G37*
G36*
X24887D02*
X21000D01*
Y-47551D01*
X22764D01*
X23576Y-47389D01*
X24265Y-46929D01*
X24726Y-46240D01*
X24887Y-45427D01*
Y-44844D01*
D02*
G37*
G36*
X14567Y-34695D02*
X14378D01*
Y-37000D01*
X16289D01*
Y-36417D01*
X16158Y-35758D01*
X15785Y-35200D01*
X15226Y-34826D01*
X14567Y-34695D01*
D02*
G37*
G36*
X13378D02*
X13189D01*
X12530Y-34826D01*
X11971Y-35200D01*
X11598Y-35758D01*
X11467Y-36417D01*
Y-37000D01*
X13378D01*
Y-34695D01*
D02*
G37*
G36*
X67484Y-47884D02*
X67000D01*
Y-49994D01*
X69307D01*
Y-49707D01*
X69168Y-49009D01*
X68773Y-48418D01*
X68182Y-48023D01*
X67484Y-47884D01*
D02*
G37*
G36*
X69307Y-50994D02*
X67000D01*
Y-53104D01*
X67484D01*
X68182Y-52965D01*
X68773Y-52570D01*
X69168Y-51979D01*
X69307Y-51281D01*
Y-50994D01*
D02*
G37*
G36*
X57032Y-28041D02*
X56457Y-28155D01*
X55964Y-28485D01*
X55634Y-28979D01*
X55518Y-29561D01*
Y-29750D01*
X57032D01*
Y-28041D01*
D02*
G37*
G36*
X75500Y-32646D02*
Y-34354D01*
X77013D01*
Y-34165D01*
X76898Y-33583D01*
X76568Y-33090D01*
X76074Y-32760D01*
X75500Y-32646D01*
D02*
G37*
G36*
X55209Y-40244D02*
X52902D01*
Y-40532D01*
X53041Y-41229D01*
X53436Y-41820D01*
X54027Y-42215D01*
X54724Y-42354D01*
X55209D01*
Y-40244D01*
D02*
G37*
G36*
X74500Y-32646D02*
X73926Y-32760D01*
X73432Y-33090D01*
X73102Y-33583D01*
X72987Y-34165D01*
Y-34354D01*
X74500D01*
Y-32646D01*
D02*
G37*
G36*
X70718Y-39541D02*
Y-41250D01*
X72232D01*
Y-41061D01*
X72116Y-40479D01*
X71786Y-39985D01*
X71293Y-39656D01*
X70718Y-39541D01*
D02*
G37*
G36*
X55209Y-37134D02*
X54724D01*
X54027Y-37273D01*
X53436Y-37668D01*
X53041Y-38259D01*
X52902Y-38957D01*
Y-39244D01*
X55209D01*
Y-37134D01*
D02*
G37*
G36*
X39362Y-59949D02*
X38441D01*
Y-60827D01*
X38549Y-61371D01*
X38857Y-61832D01*
X39318Y-62140D01*
X39362Y-62148D01*
Y-59949D01*
D02*
G37*
G36*
X121031Y-71791D02*
X120457Y-71905D01*
X119964Y-72235D01*
X119634Y-72729D01*
X119518Y-73311D01*
Y-73500D01*
X121031D01*
Y-71791D01*
D02*
G37*
G36*
X118264Y-65859D02*
X116500D01*
Y-68565D01*
X120387D01*
Y-67982D01*
X120226Y-67170D01*
X119765Y-66481D01*
X119076Y-66020D01*
X118264Y-65859D01*
D02*
G37*
G36*
X121031Y-74500D02*
X119518D01*
Y-74689D01*
X119634Y-75271D01*
X119964Y-75765D01*
X120457Y-76095D01*
X121031Y-76209D01*
Y-74500D01*
D02*
G37*
G36*
X130781D02*
X129268D01*
Y-74689D01*
X129384Y-75271D01*
X129714Y-75765D01*
X130207Y-76095D01*
X130781Y-76209D01*
Y-74500D01*
D02*
G37*
G36*
X128763Y-15646D02*
X127250D01*
Y-17354D01*
X127824Y-17240D01*
X128318Y-16910D01*
X128648Y-16417D01*
X128763Y-15835D01*
Y-15646D01*
D02*
G37*
G36*
X130315Y-81613D02*
X129732D01*
X128920Y-81774D01*
X128231Y-82235D01*
X127770Y-82924D01*
X127609Y-83736D01*
Y-85500D01*
X130315D01*
Y-81613D01*
D02*
G37*
G36*
X131898D02*
X131315D01*
Y-85500D01*
X134021D01*
Y-83736D01*
X133860Y-82924D01*
X133399Y-82235D01*
X132710Y-81774D01*
X131898Y-81613D01*
D02*
G37*
G36*
X139494Y-83943D02*
X139207D01*
X138509Y-84082D01*
X137918Y-84477D01*
X137523Y-85068D01*
X137384Y-85766D01*
Y-86250D01*
X139494D01*
Y-83943D01*
D02*
G37*
G36*
X140781D02*
X140494D01*
Y-86250D01*
X142604D01*
Y-85766D01*
X142465Y-85068D01*
X142070Y-84477D01*
X141479Y-84082D01*
X140781Y-83943D01*
D02*
G37*
G36*
X150250Y-47091D02*
X149328Y-47275D01*
X148547Y-47797D01*
X148025Y-48578D01*
X147842Y-49500D01*
X148025Y-50422D01*
X148253Y-50763D01*
X148032Y-51092D01*
X147910Y-51707D01*
Y-53281D01*
X148032Y-53896D01*
X148380Y-54417D01*
X148901Y-54765D01*
X149516Y-54887D01*
X151484D01*
X152099Y-54765D01*
X152620Y-54417D01*
X152968Y-53896D01*
X153090Y-53281D01*
Y-51707D01*
X152968Y-51092D01*
X152620Y-50571D01*
X152487Y-50483D01*
X152475Y-50422D01*
X152658Y-49500D01*
X152475Y-48578D01*
X151953Y-47797D01*
X151172Y-47275D01*
X150250Y-47091D01*
D02*
G37*
G36*
X167817Y-21490D02*
X164724D01*
Y-23401D01*
X166095D01*
X166753Y-23270D01*
X167312Y-22897D01*
X167685Y-22338D01*
X167817Y-21679D01*
Y-21490D01*
D02*
G37*
G36*
X166095Y-11316D02*
X162354D01*
X161778Y-11430D01*
X161290Y-11756D01*
X160964Y-12245D01*
X160849Y-12821D01*
Y-14199D01*
X160964Y-14775D01*
X161290Y-15263D01*
X161778Y-15589D01*
X162354Y-15704D01*
X163398D01*
X163727Y-16204D01*
X163619Y-16750D01*
X163773Y-17526D01*
X164143Y-18079D01*
X163973Y-18579D01*
X162354D01*
X161695Y-18710D01*
X161137Y-19083D01*
X160763Y-19642D01*
X160632Y-20301D01*
Y-20490D01*
X164224D01*
X167817D01*
Y-20301D01*
X167685Y-19642D01*
X167312Y-19083D01*
X166972Y-18856D01*
X166940Y-18276D01*
X167079Y-18183D01*
X167518Y-17526D01*
X167673Y-16750D01*
X167518Y-15974D01*
X167357Y-15732D01*
X167159Y-15263D01*
X167485Y-14775D01*
X167600Y-14199D01*
Y-12821D01*
X167485Y-12245D01*
X167159Y-11756D01*
X166671Y-11430D01*
X166095Y-11316D01*
D02*
G37*
G36*
X17052Y-5399D02*
X15067D01*
Y-8850D01*
X19552D01*
Y-7899D01*
X19362Y-6942D01*
X18820Y-6131D01*
X18009Y-5589D01*
X17052Y-5399D01*
D02*
G37*
G36*
X36750Y-13863D02*
X36167D01*
X35355Y-14024D01*
X34666Y-14485D01*
X34205Y-15174D01*
X34044Y-15986D01*
Y-17750D01*
X36750D01*
Y-13863D01*
D02*
G37*
G36*
X158500Y-1646D02*
X157926Y-1760D01*
X157432Y-2090D01*
X157102Y-2583D01*
X156986Y-3165D01*
Y-3354D01*
X158500D01*
Y-1646D01*
D02*
G37*
%LPD*%
D10*
X86559Y-12856D02*
D03*
X90850D02*
D03*
X157646Y-26000D02*
D03*
X153354D02*
D03*
X165646Y-26000D02*
D03*
X161354D02*
D03*
X31791Y-22750D02*
D03*
X27500D02*
D03*
X104104Y-49750D02*
D03*
X108396D02*
D03*
X102146Y-10500D02*
D03*
X97854D02*
D03*
X109823Y-10433D02*
D03*
X105532D02*
D03*
D11*
X55709Y-45256D02*
D03*
Y-39744D02*
D03*
X142250Y-63494D02*
D03*
Y-69006D02*
D03*
X150500Y-58006D02*
D03*
Y-52494D02*
D03*
X153750Y-8146D02*
D03*
Y-2634D02*
D03*
X23500Y-16831D02*
D03*
Y-11319D02*
D03*
X29000D02*
D03*
Y-16831D02*
D03*
X78250Y-58244D02*
D03*
Y-63756D02*
D03*
X61122Y-56102D02*
D03*
Y-50591D02*
D03*
X55807Y-56102D02*
D03*
Y-50591D02*
D03*
X130750Y-69000D02*
D03*
Y-63488D02*
D03*
X125000Y-69006D02*
D03*
Y-63494D02*
D03*
X136500Y-68756D02*
D03*
Y-63244D02*
D03*
X66500Y-56006D02*
D03*
Y-50494D02*
D03*
X61122Y-39744D02*
D03*
Y-45256D02*
D03*
X142250Y-79506D02*
D03*
Y-73994D02*
D03*
D12*
X143280Y-4963D02*
D03*
X141311D02*
D03*
X139342D02*
D03*
X137374D02*
D03*
X135406D02*
D03*
Y-27010D02*
D03*
X137374D02*
D03*
X139342D02*
D03*
X141311D02*
D03*
X143280D02*
D03*
D13*
X112750Y-17604D02*
D03*
Y-21896D02*
D03*
X126750Y-2604D02*
D03*
Y-6896D02*
D03*
X159000Y-8146D02*
D03*
Y-3854D02*
D03*
X133250Y-79118D02*
D03*
X131281Y-74000D02*
D03*
X135219D02*
D03*
X68250Y-36632D02*
D03*
X70218Y-41750D02*
D03*
X66281D02*
D03*
X123500Y-79118D02*
D03*
X121531Y-74000D02*
D03*
X125469D02*
D03*
X61468Y-30250D02*
D03*
X57531D02*
D03*
X59500Y-35368D02*
D03*
X150031Y-87250D02*
D03*
X153969D02*
D03*
X152000Y-82132D02*
D03*
X75000Y-34854D02*
D03*
Y-39146D02*
D03*
X126750Y-15146D02*
D03*
Y-10854D02*
D03*
D14*
X19783Y-37500D02*
D03*
X13878D02*
D03*
D15*
X139994Y-86750D02*
D03*
X145506D02*
D03*
X84994Y-51500D02*
D03*
X90506D02*
D03*
X138506Y-35000D02*
D03*
X132994D02*
D03*
X126744Y-40500D02*
D03*
X132256D02*
D03*
X120494Y-35000D02*
D03*
X126006D02*
D03*
X78006Y-51500D02*
D03*
X72494D02*
D03*
X117244Y-18250D02*
D03*
X122756D02*
D03*
X78006Y-46250D02*
D03*
X72494D02*
D03*
X5315Y-41929D02*
D03*
X10827D02*
D03*
D16*
X37106Y-31201D02*
D03*
D17*
X48130D02*
D03*
D18*
X164224Y-13510D02*
D03*
Y-20990D02*
D03*
X154776D02*
D03*
Y-17250D02*
D03*
Y-13510D02*
D03*
D19*
X116000Y-58435D02*
D03*
Y-69065D02*
D03*
X30250Y-54974D02*
D03*
Y-44344D02*
D03*
X20500Y-54974D02*
D03*
Y-44344D02*
D03*
X150500Y-66185D02*
D03*
Y-76815D02*
D03*
D20*
X107480Y-75394D02*
D03*
X114370D02*
D03*
Y-87205D02*
D03*
X107480D02*
D03*
D21*
X43799Y-52362D02*
D03*
D22*
X39862Y-45276D02*
D03*
X41831D02*
D03*
X43799D02*
D03*
X45768D02*
D03*
X47736D02*
D03*
Y-59449D02*
D03*
X45768D02*
D03*
X43799D02*
D03*
X41831D02*
D03*
X39862D02*
D03*
D23*
X50886Y-49409D02*
D03*
Y-55315D02*
D03*
X36713D02*
D03*
Y-49409D02*
D03*
D24*
X114260Y-12179D02*
D03*
X121740D02*
D03*
X118000Y-3321D02*
D03*
D25*
X93000Y-70000D02*
D03*
Y-60000D02*
D03*
X100750D02*
D03*
Y-70000D02*
D03*
D26*
X87199Y-59301D02*
D03*
X83301Y-63199D02*
D03*
D27*
X35750Y-3839D02*
D03*
Y-7579D02*
D03*
Y-11319D02*
D03*
X44805D02*
D03*
Y-7579D02*
D03*
Y-3839D02*
D03*
D28*
X24311Y-38189D02*
D03*
X28051D02*
D03*
X31791D02*
D03*
Y-28740D02*
D03*
X24311D02*
D03*
D29*
X94587Y-31398D02*
D03*
D30*
X108563Y-20571D02*
D03*
Y-22539D02*
D03*
Y-24508D02*
D03*
Y-26476D02*
D03*
Y-28445D02*
D03*
Y-30413D02*
D03*
Y-32382D02*
D03*
Y-34350D02*
D03*
Y-36319D02*
D03*
Y-38287D02*
D03*
Y-40256D02*
D03*
Y-42224D02*
D03*
X80610D02*
D03*
Y-40256D02*
D03*
Y-38287D02*
D03*
Y-36319D02*
D03*
Y-34350D02*
D03*
Y-32382D02*
D03*
Y-30413D02*
D03*
Y-28445D02*
D03*
Y-26476D02*
D03*
Y-24508D02*
D03*
Y-22539D02*
D03*
Y-20571D02*
D03*
D31*
X105413Y-45374D02*
D03*
X103445D02*
D03*
X101476D02*
D03*
X99508D02*
D03*
X97539D02*
D03*
X95571D02*
D03*
X93602D02*
D03*
X91634D02*
D03*
X89665D02*
D03*
X87697D02*
D03*
X85728D02*
D03*
X83760D02*
D03*
Y-17421D02*
D03*
X85728D02*
D03*
X87697D02*
D03*
X89665D02*
D03*
X91634D02*
D03*
X93602D02*
D03*
X95571D02*
D03*
X97539D02*
D03*
X99508D02*
D03*
X101476D02*
D03*
X103445D02*
D03*
X105413D02*
D03*
D32*
X72703Y-62968D02*
D03*
Y-59031D02*
D03*
X66797Y-61000D02*
D03*
D33*
X47880Y-18250D02*
D03*
X37250D02*
D03*
X120185Y-86000D02*
D03*
X130815D02*
D03*
D34*
X107750Y-59551D02*
D03*
Y-69000D02*
D03*
D35*
X92146Y-4528D02*
D03*
X108051D02*
D03*
D36*
X4134Y-47441D02*
D03*
Y-54921D02*
D03*
X12402Y-51181D02*
D03*
D37*
X165305Y-60805D02*
D03*
D38*
X171211Y-76947D02*
D03*
X159793D02*
D03*
D39*
X5315Y-30807D02*
D03*
Y-7579D02*
D03*
D40*
Y-15846D02*
D03*
Y-22539D02*
D03*
D41*
X14567Y-9350D02*
D03*
D42*
X14370Y-29035D02*
D03*
D43*
X15748Y-14075D02*
D03*
Y-24311D02*
D03*
Y-21752D02*
D03*
Y-16634D02*
D03*
Y-19193D02*
D03*
D44*
X139000Y-57750D02*
D03*
X135260Y-50270D02*
D03*
X142740D02*
D03*
D45*
X87303Y-4921D02*
D03*
X82579D02*
D03*
X77854D02*
D03*
D46*
X65059Y-11713D02*
D03*
X70571D02*
D03*
D47*
X102150Y-7300D02*
X102398D01*
X105532Y-10433D01*
X149776Y-17250D02*
X153000D01*
X150927Y-24345D02*
Y-18521D01*
X151026Y-18422D01*
X153000Y-17552D02*
Y-17250D01*
X152131Y-18422D02*
X153000Y-17552D01*
X151026Y-18422D02*
X152131D01*
X152581Y-26000D02*
X153354D01*
X150927Y-24345D02*
X152581Y-26000D01*
X123750Y-4550D02*
Y-3250D01*
Y-4550D02*
X126096Y-6896D01*
X126750D01*
X118000Y-4250D02*
Y-3321D01*
Y-4250D02*
X120000Y-6250D01*
X121750D01*
X126354Y-10854D01*
X126750D01*
X130000D01*
X52250Y-51512D02*
X54886D01*
X55807Y-50591D01*
X43799Y-43299D02*
Y-41701D01*
X154776Y-20990D02*
X156344D01*
X161354Y-26000D02*
Y-24854D01*
X156344Y-20990D02*
X158354Y-23000D01*
X159500D01*
X161354Y-24854D01*
X143380Y-10854D02*
X149776Y-17250D01*
X164224Y-13510D02*
X165646Y-14931D01*
Y-28750D02*
Y-26000D01*
Y-16750D02*
Y-14931D01*
X61122Y-50591D02*
Y-45256D01*
X61122Y-45256D02*
X61122Y-45256D01*
X55709Y-45256D02*
X61122D01*
X55709Y-45256D02*
X55709Y-45256D01*
X47994Y-45256D02*
X55709D01*
X61122Y-39744D02*
Y-37872D01*
X153750Y-8146D02*
X159000D01*
X153750Y-12484D02*
Y-8146D01*
Y-12484D02*
X154776Y-13510D01*
X59500Y-36250D02*
Y-35368D01*
Y-36250D02*
X61122Y-37872D01*
X124750Y-69000D02*
X125469Y-69718D01*
Y-74000D02*
Y-69718D01*
X135219Y-69532D02*
X135750Y-69000D01*
X135219Y-74000D02*
Y-69532D01*
X11000Y-60045D02*
X13750Y-62795D01*
X11000Y-60045D02*
Y-58000D01*
X5250Y-62795D02*
X10045Y-58000D01*
X13750Y-62795D02*
X17235Y-59310D01*
X12294Y-40462D02*
X22038D01*
X24311Y-38189D01*
X10827Y-41929D02*
X12294Y-40462D01*
D48*
X108051Y-8661D02*
Y-4528D01*
Y-8661D02*
X109823Y-10433D01*
X108953D02*
X109823D01*
X106877Y-12509D02*
X108953Y-10433D01*
X103609Y-12509D02*
X106877D01*
X103600Y-12500D02*
X103609Y-12509D01*
X114024Y-26476D02*
X127524D01*
X113700Y-26152D02*
X114024Y-26476D01*
X111800Y-26152D02*
X113700D01*
X111476Y-26476D02*
X111800Y-26152D01*
X108563Y-26476D02*
X111476D01*
X127524D02*
X128500Y-25500D01*
X125043Y-63195D02*
Y-52048D01*
X124748Y-51754D02*
X125043Y-52048D01*
X83793Y-52457D02*
X84250Y-52000D01*
X83793Y-52700D02*
Y-52457D01*
X82450Y-54043D02*
X83793Y-52700D01*
X80550Y-54043D02*
X82450D01*
X79207Y-52700D02*
X80550Y-54043D01*
X79207Y-52700D02*
Y-52450D01*
X78257Y-51500D02*
X79207Y-52450D01*
X81500Y-51750D02*
Y-50000D01*
X76002Y-42750D02*
X79585D01*
X114262Y-30738D02*
X116750Y-28250D01*
X111250Y-30738D02*
X114262D01*
X110926Y-30413D02*
X111250Y-30738D01*
X108563Y-30413D02*
X110926D01*
X108563Y-28445D02*
X112750D01*
X114742Y-24508D02*
X115750Y-23500D01*
X108563Y-24508D02*
X114742D01*
X139364Y-66120D02*
Y-58114D01*
X139000Y-57750D02*
X139364Y-58114D01*
Y-66120D02*
X142250Y-69006D01*
X130750Y-63488D02*
X135750D01*
X124750D02*
X130750D01*
X124750D02*
X125043Y-63195D01*
X84994Y-51700D02*
X87697Y-48997D01*
X84994Y-52000D02*
Y-51700D01*
X84250Y-52000D02*
X84994D01*
X78006Y-51500D02*
X78257D01*
X84018Y-48636D02*
X85728Y-46926D01*
X82864Y-48636D02*
X84018D01*
X81500Y-50000D02*
X82864Y-48636D01*
X85728Y-46926D02*
Y-45374D01*
X93173Y-53263D02*
Y-49737D01*
X91634Y-48212D02*
X92058Y-48636D01*
X92072D01*
X93173Y-49737D01*
X92072Y-54364D02*
X93173Y-53263D01*
X85594Y-54364D02*
X92072D01*
X82304Y-57654D02*
X85594Y-54364D01*
X82304Y-58620D02*
Y-57654D01*
X79924Y-61000D02*
X82304Y-58620D01*
X66797Y-61000D02*
X79924D01*
X87697Y-48997D02*
Y-45374D01*
X67303Y-28061D02*
X67687Y-28445D01*
X67277Y-28061D02*
X67303D01*
X66682Y-27466D02*
X67277Y-28061D01*
X64804Y-27466D02*
X66682D01*
X64804Y-27480D02*
Y-27466D01*
X63700Y-28584D02*
X64804Y-27480D01*
X63673Y-28584D02*
X63700D01*
X63457Y-28800D02*
X63673Y-28584D01*
X67687Y-28445D02*
X80610D01*
X63457Y-28814D02*
Y-28800D01*
X62021Y-30250D02*
X63457Y-28814D01*
X64148Y-25882D02*
X67339D01*
X63220Y-26810D02*
X64148Y-25882D01*
X63220Y-26824D02*
Y-26810D01*
X63044Y-27000D02*
X63220Y-26824D01*
X67933Y-26476D02*
X80610D01*
X67339Y-25882D02*
X67933Y-26476D01*
X140000Y-30647D02*
X141311Y-29336D01*
Y-27260D01*
X140000Y-31250D02*
Y-30647D01*
X97500Y-51500D02*
X98500D01*
X99508Y-50492D01*
X91634Y-48212D02*
Y-45374D01*
X95500Y-49000D02*
X96750D01*
X97539Y-48211D01*
X103445Y-48195D02*
X104500Y-49250D01*
X103445Y-48195D02*
Y-45374D01*
X63784Y-16056D02*
X64978Y-17250D01*
X63784Y-16056D02*
Y-16054D01*
X64978Y-17250D02*
X65000Y-17228D01*
X61250Y-27000D02*
X63044D01*
X61468Y-30250D02*
X62021D01*
X79585Y-42750D02*
X79835Y-43000D01*
X115750Y-23500D02*
Y-22250D01*
X79835Y-43000D02*
X80610Y-42224D01*
X116750Y-28250D02*
X132500D01*
X117750Y-30000D02*
X134750D01*
X143280Y-41971D02*
Y-27260D01*
X134750Y-30000D02*
X135406Y-29344D01*
X141250Y-44000D02*
X143280Y-41971D01*
X132500Y-28250D02*
X133500Y-27250D01*
Y-20250D01*
X108750Y-49396D02*
Y-45374D01*
X108396Y-49750D02*
X108750Y-49396D01*
X101476Y-50780D02*
X102697Y-52000D01*
X101476Y-50780D02*
Y-45374D01*
X89665Y-17421D02*
Y-15561D01*
X135624Y-31750D02*
X137374Y-30000D01*
X143280Y-10854D02*
Y-5213D01*
X126750Y-2604D02*
X134604D01*
X135406Y-3405D01*
Y-5213D02*
Y-3405D01*
X108667Y-20467D02*
Y-17225D01*
X108563Y-20571D02*
X108667Y-20467D01*
X111989Y-17225D02*
X112559Y-17795D01*
X112108Y-22539D02*
X112697Y-21950D01*
X108563Y-22539D02*
X112108D01*
X108667Y-17225D02*
X111989D01*
X21500Y-20250D02*
X25715D01*
X20443Y-19193D02*
X21500Y-20250D01*
X25715D02*
X28839Y-17126D01*
X135406Y-29344D02*
Y-27260D01*
Y-5213D02*
X137374D01*
X89665Y-51160D02*
X90506Y-52000D01*
X89665Y-51160D02*
Y-45374D01*
X105413D02*
X108750D01*
X108563Y-42224D02*
X113224D01*
X114500Y-43500D01*
X138506Y-38244D02*
Y-35000D01*
X136250Y-40500D02*
X138506Y-38244D01*
X132256Y-40500D02*
X136250D01*
X146006Y-87250D02*
X150031D01*
X142250Y-69006D02*
X142250Y-69006D01*
X142250Y-73994D02*
Y-69006D01*
X137374Y-30000D02*
Y-27260D01*
X90256Y-35728D02*
X94587Y-31398D01*
X85925Y-40059D02*
X90256Y-35728D01*
X85728Y-40256D02*
X85925Y-40059D01*
X80610Y-40256D02*
X85728D01*
X91634Y-28445D02*
X94587Y-31398D01*
X103248Y-22736D02*
X103445Y-22539D01*
X98917Y-27067D02*
X103248Y-22736D01*
X103445Y-22539D02*
X108563D01*
X103445Y-45374D02*
Y-40256D01*
X94587Y-31398D02*
X97539Y-28445D01*
X98917Y-27067D01*
X40846Y-49409D02*
X41634Y-50197D01*
X41831Y-50000D01*
X66500Y-60703D02*
X66797Y-61000D01*
X66500Y-60703D02*
Y-56006D01*
X23500Y-11319D02*
Y-7500D01*
X29000Y-11319D02*
X35750D01*
X15748Y-16634D02*
X23303D01*
X23500Y-16831D01*
X15748Y-19193D02*
X20443D01*
X27161Y-3839D02*
X35750D01*
X23500Y-7500D02*
X27161Y-3839D01*
X152506Y-1500D02*
X153750Y-2744D01*
X139342Y-9250D02*
Y-5213D01*
X141311D02*
Y-2439D01*
X142250Y-1500D01*
X152506D01*
X139342Y-27260D02*
Y-23223D01*
X135406Y-18345D02*
Y-5213D01*
X133500Y-20250D02*
X135406Y-18345D01*
X41634Y-54528D02*
X41831D01*
X43799D01*
X45965D01*
X55807Y-56102D02*
X61122D01*
X55807Y-56102D02*
X55807Y-56102D01*
X97539Y-48211D02*
Y-45374D01*
X143280Y-10854D02*
X143380D01*
X114260Y-14010D02*
Y-12179D01*
Y-14010D02*
X117244Y-16994D01*
Y-18250D02*
Y-16994D01*
X113326Y-14174D02*
X114260Y-13240D01*
Y-12179D01*
X113400Y-48500D02*
X114500D01*
X77463Y-59031D02*
X78250Y-58244D01*
X135110Y-50460D02*
Y-48500D01*
X138056D01*
X78250Y-63756D02*
X82744D01*
X83051Y-63449D01*
X91146Y-13000D02*
X91634Y-13488D01*
Y-17421D02*
Y-13488D01*
Y-28445D02*
Y-17421D01*
X97539D02*
Y-13789D01*
X99508Y-17421D02*
Y-13258D01*
X92146Y-5896D02*
Y-4528D01*
X97854Y-11604D02*
Y-10500D01*
Y-11604D02*
X99508Y-13258D01*
X96750Y-10500D02*
X97854D01*
X92146Y-5896D02*
X96750Y-10500D01*
X103445Y-17421D02*
Y-15305D01*
X104576Y-14174D01*
X113326D01*
X101476Y-17421D02*
Y-14624D01*
X103600Y-12500D01*
X60939Y-32750D02*
X61750Y-33561D01*
X74750Y-41000D02*
Y-39146D01*
X66281Y-42281D02*
Y-41750D01*
Y-42281D02*
X68250Y-44250D01*
X78006Y-46250D02*
X78882Y-45374D01*
X83760D01*
X72703Y-59031D02*
X77463D01*
X75250Y-55244D02*
X78250Y-58244D01*
X70494Y-44250D02*
X72494Y-46250D01*
X68250Y-44250D02*
X70494D01*
X144000Y-45750D02*
X145500Y-47250D01*
Y-86500D02*
Y-47250D01*
X145506Y-86750D02*
X146006Y-87250D01*
X128250Y-72700D02*
X130250Y-70700D01*
X131281Y-74000D02*
Y-71732D01*
X130250Y-70700D02*
X131281Y-71732D01*
X130250Y-70700D02*
Y-69000D01*
X67632Y-37250D02*
X68250Y-36632D01*
X61750Y-35500D02*
Y-33561D01*
Y-35500D02*
X63500Y-37250D01*
X67632D01*
X54500Y-33750D02*
X55500Y-32750D01*
X60939D01*
X19783Y-37500D02*
X20548Y-36735D01*
Y-34702D01*
X23671Y-29380D02*
X24311Y-28740D01*
X23671Y-31579D02*
Y-29380D01*
X20548Y-34702D02*
X23671Y-31579D01*
X77463Y-62968D02*
X78250Y-63756D01*
X72703Y-62968D02*
X77463D01*
X120494Y-37244D02*
Y-35000D01*
Y-37244D02*
X123750Y-40500D01*
X126744D01*
X108563Y-38287D02*
X119037D01*
X124750Y-44000D01*
X108563Y-40256D02*
X118506D01*
X124000Y-45750D01*
X144000D01*
X108563Y-36319D02*
X116931D01*
X118250Y-35000D01*
X120494D01*
X108563Y-34350D02*
X116150D01*
X118750Y-31750D01*
X135624D01*
X108563Y-32382D02*
X115368D01*
X117750Y-30000D01*
X124750Y-44000D02*
X141250D01*
X97539Y-28445D02*
X108563D01*
X127006Y-34000D02*
X129500D01*
X126006Y-35000D02*
X127206Y-36200D01*
X129500D01*
X131794D01*
X132994Y-35000D01*
X129500Y-34000D02*
X131994D01*
X28051Y-44935D02*
X30250D01*
X28051D02*
Y-41600D01*
Y-38189D01*
X74750Y-41000D02*
X76000Y-42250D01*
X75250Y-55244D02*
Y-43612D01*
X102697Y-52000D02*
X109900D01*
X113400Y-48500D01*
X99508Y-50492D02*
Y-45374D01*
X92913Y-9163D02*
X97539Y-13789D01*
X90649Y-9163D02*
X92913D01*
X95571Y-17421D02*
Y-14061D01*
X89993Y-10747D02*
X92257D01*
X88999Y-9753D02*
X89993Y-10747D01*
X92257D02*
X95571Y-14061D01*
X76500Y-13000D02*
X77705Y-11795D01*
X85899D01*
X78082Y-22539D02*
X80610D01*
X77810Y-20571D02*
X80610D01*
X63189Y-19587D02*
Y-18689D01*
X67126Y-19783D02*
Y-19354D01*
X54661Y-23661D02*
X76961D01*
X57576Y-22076D02*
X76305D01*
X65000Y-17228D02*
X67126Y-19354D01*
X56750Y-21250D02*
X57576Y-22076D01*
X76305D02*
X77810Y-20571D01*
X54000Y-23000D02*
X54661Y-23661D01*
X76961D02*
X78082Y-22539D01*
X52750Y-11500D02*
X56309Y-15059D01*
X62788D01*
X63784Y-16054D01*
X61143Y-16643D02*
X63189Y-18689D01*
X55643Y-16643D02*
X61143D01*
X50319Y-11319D02*
X55643Y-16643D01*
X44805Y-11319D02*
X50319D01*
X49000Y-7760D02*
X52741Y-11500D01*
X52750D01*
X44805Y-3839D02*
X45850D01*
X49000Y-6988D01*
Y-7760D02*
Y-6988D01*
X85728Y-17421D02*
Y-15447D01*
X84750Y-14469D02*
X85728Y-15447D01*
X84661Y-14558D02*
X84750Y-14469D01*
X83104Y-14558D02*
X84661D01*
X82176Y-15485D02*
X83104Y-14558D01*
X82176Y-15561D02*
Y-15485D01*
X80709Y-17028D02*
X82176Y-15561D01*
X73032Y-17028D02*
X80709D01*
X70571Y-14567D02*
X73032Y-17028D01*
X70571Y-14567D02*
Y-11713D01*
X12106Y-21752D02*
X15748D01*
X11122Y-20768D02*
X12106Y-21752D01*
X85899Y-11795D02*
X89665Y-15561D01*
X59747Y-11516D02*
X64863D01*
X65059Y-11713D01*
X87303Y-5817D02*
Y-4921D01*
Y-5817D02*
X90649Y-9163D01*
X77854Y-7293D02*
X80315Y-9753D01*
X77854Y-7293D02*
Y-4921D01*
X80315Y-9753D02*
X88999D01*
D49*
X47736Y-58154D02*
X48237Y-57653D01*
X49903D01*
X47000Y-41750D02*
X49000D01*
X36713Y-49409D02*
X40846D01*
X41831Y-50000D02*
Y-45276D01*
X39862Y-59449D02*
Y-56299D01*
X41634Y-54528D01*
X41831Y-59449D02*
Y-54528D01*
X43799D02*
X43799Y-54528D01*
Y-59449D02*
Y-54528D01*
X45768Y-59449D02*
Y-54724D01*
X45965Y-54528D01*
X50886Y-55315D02*
X55020D01*
X55807Y-56102D01*
X39000Y-44413D02*
X39862Y-45276D01*
X47736D02*
Y-44740D01*
X43799Y-45276D02*
Y-43299D01*
X34750Y-55315D02*
X36713D01*
X45768Y-45276D02*
Y-42982D01*
X47000Y-41750D01*
X47756Y-45256D02*
X47994D01*
X47736Y-45276D02*
X47756Y-45256D01*
X47736Y-59449D02*
Y-58154D01*
X41831Y-45276D02*
Y-42926D01*
X41250Y-42345D02*
X41831Y-42926D01*
X41250Y-42345D02*
Y-41000D01*
X26450Y-41600D02*
X28051D01*
X50886Y-49409D02*
X52461D01*
X52854Y-49803D01*
Y-50907D02*
Y-49803D01*
X52250Y-51512D02*
X52854Y-50907D01*
D50*
X164774Y-71524D02*
X170197Y-76947D01*
X155731Y-72744D02*
X156951Y-71524D01*
X150500Y-65935D02*
X150625Y-66060D01*
X156951Y-71524D02*
X164774D01*
X152821Y-72744D02*
X155731D01*
X150500Y-70423D02*
X152821Y-72744D01*
X150500Y-70423D02*
Y-66185D01*
X150250Y-49500D02*
X150500Y-49750D01*
Y-52494D02*
Y-49750D01*
X170197Y-76947D02*
X171711D01*
X20500Y-55565D02*
X25375D01*
X8900Y-37700D02*
Y-35750D01*
X5315Y-32165D02*
X8900Y-35750D01*
X5315Y-32165D02*
Y-30807D01*
Y-32885D02*
Y-30807D01*
X2250Y-35950D02*
X5315Y-32885D01*
X2250Y-37700D02*
Y-35950D01*
X14567Y-9396D02*
X19946D01*
X4134Y-54921D02*
X9000D01*
X25375Y-55565D02*
X30250D01*
X12402Y-51181D02*
X14431D01*
X18815Y-55565D01*
X20500D01*
X4134Y-47441D02*
X9000D01*
X29035Y-30000D02*
X30531D01*
X31791Y-28740D01*
Y-22750D01*
X11000Y-14075D02*
X15748D01*
X31791Y-22750D02*
Y-20000D01*
X158661Y-76815D02*
X160293Y-78447D01*
X150500Y-76815D02*
X158661D01*
X150500D02*
X152000Y-78315D01*
Y-82132D02*
Y-78315D01*
X150500Y-65935D02*
Y-59581D01*
X5315Y-15846D02*
Y-7579D01*
Y-30807D02*
Y-22539D01*
Y-7579D02*
X7132Y-9396D01*
X14567D01*
X7087Y-29035D02*
X14370D01*
X5315Y-30807D02*
X7087Y-29035D01*
X31791Y-38189D02*
X34750Y-41148D01*
X72494Y-54756D02*
Y-51500D01*
X71500Y-55750D02*
X72494Y-54756D01*
X11000Y-24311D02*
X15748D01*
X13750Y-62795D02*
Y-58150D01*
X5250Y-62795D02*
X13750D01*
X5315Y-22539D02*
Y-15846D01*
X7087Y-24311D02*
X11000D01*
X5315Y-22539D02*
X7087Y-24311D01*
D51*
X49130Y-17000D02*
X52250D01*
X121740Y-14990D02*
Y-12179D01*
Y-14990D02*
X122756Y-16006D01*
Y-18250D02*
Y-16006D01*
Y-19744D02*
Y-18250D01*
X120000Y-22500D02*
X122756Y-19744D01*
X37106Y-37106D02*
Y-31201D01*
Y-37106D02*
X39000Y-39000D01*
Y-44413D02*
Y-39000D01*
X5250Y-41864D02*
Y-37750D01*
Y-41864D02*
X5315Y-41929D01*
X92551Y-59551D02*
X93000Y-60000D01*
X87199Y-59551D02*
X92551D01*
X116000Y-69065D02*
X120898D01*
X116000D02*
Y-65128D01*
Y-72087D02*
Y-69065D01*
X112250Y-8146D02*
Y-7750D01*
X47880Y-18250D02*
X49130Y-17000D01*
X5315Y-7579D02*
Y-5696D01*
X129500Y-36200D02*
Y-34000D01*
X107480Y-75394D02*
Y-69270D01*
X107750Y-69000D01*
D52*
X159396Y-4250D02*
X165750D01*
X159000Y-3854D02*
X159396Y-4250D01*
X93000Y-76000D02*
X96500Y-79500D01*
X93000Y-76000D02*
Y-70000D01*
X114370Y-77880D02*
Y-75394D01*
X141362Y-79118D02*
X141750Y-79506D01*
X133250Y-79118D02*
X141362D01*
X114370Y-77880D02*
X115608Y-79118D01*
X115858D02*
X123500D01*
X133250D01*
X117935Y-83750D02*
X120185Y-86000D01*
X107480Y-84770D02*
X114370Y-77880D01*
X107480Y-87205D02*
Y-84770D01*
X43799Y-41701D02*
X48130Y-37370D01*
Y-31201D01*
Y-18500D01*
X30250Y-55565D02*
X30500Y-55315D01*
X34750D01*
X114370Y-87205D02*
Y-85630D01*
X116250Y-83750D01*
X117935D01*
X114884Y-59551D02*
X116000Y-58435D01*
X107750Y-59551D02*
X114884D01*
X101199D02*
X107750D01*
X100750Y-60000D02*
X101199Y-59551D01*
X93000Y-70000D02*
X100750D01*
X24599Y-1999D02*
X24900Y-2300D01*
X165750Y-4250D02*
X166000Y-8500D01*
X171000Y-87000D02*
X171500Y-85888D01*
X161051Y-87000D02*
X171500Y-85888D01*
X166000Y-82000D02*
X171500Y-85888D01*
D53*
X41671Y-7579D02*
X44805D01*
X40250Y-9000D02*
X41671Y-7579D01*
X40250Y-12750D02*
Y-9000D01*
Y-12750D02*
X41750Y-14250D01*
X45250D01*
X47880Y-16880D01*
Y-18250D02*
Y-16880D01*
D54*
X117125Y-86250D02*
D03*
D55*
X48700Y-52514D02*
D03*
D56*
X171500Y-85888D02*
D03*
X165750Y-4250D02*
D03*
D57*
X114500Y-43500D02*
D03*
Y-48500D02*
D03*
D58*
X21654Y-62795D02*
D03*
D59*
X13750D02*
D03*
D60*
X65000Y-33750D02*
D03*
X54500D02*
D03*
D61*
X5750Y-61750D02*
D03*
D62*
X96500Y-79500D02*
D03*
D63*
X49903Y-57653D02*
D03*
X124748Y-51754D02*
D03*
X81500Y-51750D02*
D03*
X78000Y-40250D02*
D03*
X76002Y-42750D02*
D03*
X42500Y-27000D02*
D03*
X112750Y-28445D02*
D03*
X65750Y-29777D02*
D03*
X56750Y-21250D02*
D03*
X59449Y-19488D02*
D03*
X121250Y-71000D02*
D03*
X140000Y-31250D02*
D03*
X97500Y-51500D02*
D03*
X95500Y-49000D02*
D03*
X49000Y-41750D02*
D03*
X64000Y-48000D02*
D03*
X69000Y-48750D02*
D03*
X55500Y-26000D02*
D03*
X54000Y-23000D02*
D03*
X115750Y-22250D02*
D03*
X128500Y-25500D02*
D03*
X130650Y-22900D02*
D03*
X23750Y-49250D02*
D03*
X112250Y-7750D02*
D03*
X102150Y-7300D02*
D03*
X69250Y-6500D02*
D03*
X25295Y-44291D02*
D03*
X130650Y-15150D02*
D03*
X129950Y-6950D02*
D03*
X143280Y-10854D02*
D03*
X130000D02*
D03*
X55250Y-2000D02*
D03*
X28900Y-7000D02*
D03*
X51750Y-39500D02*
D03*
X24050Y-22700D02*
D03*
X25950Y-33300D02*
D03*
X42500Y-30000D02*
D03*
X25375Y-55565D02*
D03*
X17250Y-49250D02*
D03*
X43400Y-16850D02*
D03*
X41500Y-18250D02*
D03*
X108750Y-45374D02*
D03*
X136250Y-40500D02*
D03*
X135750Y-82750D02*
D03*
Y-86500D02*
D03*
X116250Y-83750D02*
D03*
X157000Y-87250D02*
D03*
X142250Y-59750D02*
D03*
X128350Y-76100D02*
D03*
X72047Y-19587D02*
D03*
X24900Y-2300D02*
D03*
X118650Y-76100D02*
D03*
X128250Y-72700D02*
D03*
X52250Y-51512D02*
D03*
X49750Y-2000D02*
D03*
X40300Y-5100D02*
D03*
X162500Y-17150D02*
D03*
X139342Y-9250D02*
D03*
Y-23223D02*
D03*
X5250Y-37750D02*
D03*
X34750Y-41148D02*
D03*
X29035Y-30000D02*
D03*
X11000Y-14075D02*
D03*
X32250Y-14000D02*
D03*
X31791Y-20000D02*
D03*
X157646Y-28750D02*
D03*
X165646D02*
D03*
Y-16750D02*
D03*
X148000Y-5000D02*
D03*
Y-10750D02*
D03*
X138750Y-16500D02*
D03*
X143750D02*
D03*
Y-21500D02*
D03*
X112250Y-3250D02*
D03*
X118000Y-8500D02*
D03*
Y-13500D02*
D03*
X52500Y-25750D02*
D03*
X52250Y-37000D02*
D03*
X42500Y-33250D02*
D03*
X14250Y-43500D02*
D03*
X28750Y-49500D02*
D03*
X32000D02*
D03*
X25500Y-58750D02*
D03*
X138750Y-72000D02*
D03*
X138250Y-76000D02*
D03*
X127750Y-66250D02*
D03*
X133750Y-66000D02*
D03*
X138056Y-48500D02*
D03*
X118700Y-46000D02*
D03*
X72500Y-37000D02*
D03*
X118350Y-73400D02*
D03*
X140250Y-40500D02*
D03*
X123750Y-3250D02*
D03*
X121250D02*
D03*
X103500D02*
D03*
X96750D02*
D03*
X82579Y-4921D02*
D03*
X126700Y-18900D02*
D03*
Y-22900D02*
D03*
X138800Y-52000D02*
D03*
X129250Y-59500D02*
D03*
X134500D02*
D03*
X131750Y-48500D02*
D03*
X52650Y-59150D02*
D03*
X3250Y-51000D02*
D03*
X7250D02*
D03*
X32750Y-16750D02*
D03*
X162750Y-9250D02*
D03*
X167750D02*
D03*
X159500Y-15250D02*
D03*
Y-19250D02*
D03*
X121450Y-66200D02*
D03*
X126250Y-86000D02*
D03*
X139000Y-82750D02*
D03*
X142750Y-83250D02*
D03*
X111000Y-87250D02*
D03*
X126250Y-82800D02*
D03*
X148750Y-83950D02*
D03*
Y-81200D02*
D03*
X155050D02*
D03*
X52500Y-29250D02*
D03*
X42500Y-36500D02*
D03*
X62750Y-62000D02*
D03*
X153934Y-70057D02*
D03*
X154000Y-62250D02*
D03*
X154250Y-55750D02*
D03*
X174500Y-71250D02*
D03*
X127750Y-48500D02*
D03*
X121750D02*
D03*
X132500Y-5500D02*
D03*
X52750Y-42750D02*
D03*
X77000Y-31250D02*
D03*
X61250Y-27000D02*
D03*
X20750Y-22700D02*
D03*
X26250Y-8300D02*
D03*
X130650Y-18900D02*
D03*
X159500Y-11550D02*
D03*
X131750Y-52500D02*
D03*
X127750D02*
D03*
X37550Y-59400D02*
D03*
X37500Y-52500D02*
D03*
X26741Y-61485D02*
D03*
X26750Y-64500D02*
D03*
X55750Y-59500D02*
D03*
X26250Y-14000D02*
D03*
X20500D02*
D03*
X11000Y-58000D02*
D03*
X147500Y-32500D02*
D03*
Y-37500D02*
D03*
Y-42500D02*
D03*
X172500D02*
D03*
Y-37500D02*
D03*
X152500Y-32500D02*
D03*
X157500D02*
D03*
X162500D02*
D03*
X167500D02*
D03*
X172500D02*
D03*
Y-47500D02*
D03*
X167500D02*
D03*
X162500D02*
D03*
X157500D02*
D03*
X66500Y-6500D02*
D03*
X66450Y-2000D02*
D03*
X69500D02*
D03*
X98000Y-6500D02*
D03*
X129500Y-36200D02*
D03*
X43799Y-52362D02*
D03*
X13750Y-58000D02*
D03*
X11000Y-24311D02*
D03*
X5315Y-15846D02*
D03*
Y-22539D02*
D03*
X73000Y-42500D02*
D03*
X122750Y-54000D02*
D03*
X114000Y-65000D02*
D03*
X118000D02*
D03*
X104500Y-49250D02*
D03*
X45965Y-54528D02*
D03*
X41634D02*
D03*
X45965Y-50197D02*
D03*
X41634D02*
D03*
X63189Y-19587D02*
D03*
X67126Y-19783D02*
D03*
D64*
X52250Y-17000D02*
D03*
X120000Y-22500D02*
D03*
X9000Y-47441D02*
D03*
X108667Y-17225D02*
D03*
X71500Y-55750D02*
D03*
X9000Y-54921D02*
D03*
X85925Y-40059D02*
D03*
Y-35728D02*
D03*
Y-31398D02*
D03*
Y-27067D02*
D03*
Y-22736D02*
D03*
X90256Y-40059D02*
D03*
Y-35728D02*
D03*
Y-31398D02*
D03*
Y-27067D02*
D03*
Y-22736D02*
D03*
X94587Y-40059D02*
D03*
Y-35728D02*
D03*
Y-31398D02*
D03*
Y-27067D02*
D03*
Y-22736D02*
D03*
X98917Y-40059D02*
D03*
Y-35728D02*
D03*
Y-31398D02*
D03*
Y-27067D02*
D03*
Y-22736D02*
D03*
X103248Y-40059D02*
D03*
Y-35728D02*
D03*
Y-31398D02*
D03*
Y-27067D02*
D03*
Y-22736D02*
D03*
X76500Y-13000D02*
D03*
X59747Y-11516D02*
D03*
X11122Y-20768D02*
D03*
D65*
X150250Y-49500D02*
D03*
M02*
