G04 Layer_Physical_Order=2*
G04 Layer_Color=16711680*
%FSLAX25Y25*%
%MOIN*%
G70*
G01*
G75*
G04:AMPARAMS|DCode=11|XSize=35.43mil|YSize=31.5mil|CornerRadius=7.87mil|HoleSize=0mil|Usage=FLASHONLY|Rotation=0.000|XOffset=0mil|YOffset=0mil|HoleType=Round|Shape=RoundedRectangle|*
%AMROUNDEDRECTD11*
21,1,0.03543,0.01575,0,0,0.0*
21,1,0.01969,0.03150,0,0,0.0*
1,1,0.01575,0.00984,-0.00787*
1,1,0.01575,-0.00984,-0.00787*
1,1,0.01575,-0.00984,0.00787*
1,1,0.01575,0.00984,0.00787*
%
%ADD11ROUNDEDRECTD11*%
G04:AMPARAMS|DCode=13|XSize=19.69mil|YSize=23.62mil|CornerRadius=4.92mil|HoleSize=0mil|Usage=FLASHONLY|Rotation=180.000|XOffset=0mil|YOffset=0mil|HoleType=Round|Shape=RoundedRectangle|*
%AMROUNDEDRECTD13*
21,1,0.01969,0.01378,0,0,180.0*
21,1,0.00984,0.02362,0,0,180.0*
1,1,0.00984,-0.00492,0.00689*
1,1,0.00984,0.00492,0.00689*
1,1,0.00984,0.00492,-0.00689*
1,1,0.00984,-0.00492,-0.00689*
%
%ADD13ROUNDEDRECTD13*%
G04:AMPARAMS|DCode=15|XSize=35.43mil|YSize=31.5mil|CornerRadius=7.87mil|HoleSize=0mil|Usage=FLASHONLY|Rotation=90.000|XOffset=0mil|YOffset=0mil|HoleType=Round|Shape=RoundedRectangle|*
%AMROUNDEDRECTD15*
21,1,0.03543,0.01575,0,0,90.0*
21,1,0.01969,0.03150,0,0,90.0*
1,1,0.01575,0.00787,0.00984*
1,1,0.01575,0.00787,-0.00984*
1,1,0.01575,-0.00787,-0.00984*
1,1,0.01575,-0.00787,0.00984*
%
%ADD15ROUNDEDRECTD15*%
%ADD47C,0.01181*%
%ADD48C,0.00984*%
%ADD49C,0.00787*%
%ADD50C,0.01772*%
%ADD51C,0.01575*%
%ADD52C,0.01969*%
%ADD56C,0.06693*%
%ADD57O,0.04724X0.03937*%
G04:AMPARAMS|DCode=58|XSize=59.06mil|YSize=59.06mil|CornerRadius=14.76mil|HoleSize=0mil|Usage=FLASHONLY|Rotation=90.000|XOffset=0mil|YOffset=0mil|HoleType=Round|Shape=RoundedRectangle|*
%AMROUNDEDRECTD58*
21,1,0.05906,0.02953,0,0,90.0*
21,1,0.02953,0.05906,0,0,90.0*
1,1,0.02953,0.01476,0.01476*
1,1,0.02953,0.01476,-0.01476*
1,1,0.02953,-0.01476,-0.01476*
1,1,0.02953,-0.01476,0.01476*
%
%ADD58ROUNDEDRECTD58*%
%ADD59C,0.05906*%
%ADD60C,0.03937*%
G04:AMPARAMS|DCode=61|XSize=90.55mil|YSize=70.87mil|CornerRadius=17.72mil|HoleSize=0mil|Usage=FLASHONLY|Rotation=180.000|XOffset=0mil|YOffset=0mil|HoleType=Round|Shape=RoundedRectangle|*
%AMROUNDEDRECTD61*
21,1,0.09055,0.03543,0,0,180.0*
21,1,0.05512,0.07087,0,0,180.0*
1,1,0.03543,-0.02756,0.01772*
1,1,0.03543,0.02756,0.01772*
1,1,0.03543,0.02756,-0.01772*
1,1,0.03543,-0.02756,-0.01772*
%
%ADD61ROUNDEDRECTD61*%
%ADD62R,0.13780X0.07874*%
%ADD63C,0.02402*%
%ADD64C,0.02756*%
%ADD65C,0.03150*%
%ADD66R,0.01969X0.02362*%
G04:AMPARAMS|DCode=67|XSize=31.5mil|YSize=55.12mil|CornerRadius=7.87mil|HoleSize=0mil|Usage=FLASHONLY|Rotation=180.000|XOffset=0mil|YOffset=0mil|HoleType=Round|Shape=RoundedRectangle|*
%AMROUNDEDRECTD67*
21,1,0.03150,0.03937,0,0,180.0*
21,1,0.01575,0.05512,0,0,180.0*
1,1,0.01575,-0.00787,0.01969*
1,1,0.01575,0.00787,0.01969*
1,1,0.01575,0.00787,-0.01969*
1,1,0.01575,-0.00787,-0.01969*
%
%ADD67ROUNDEDRECTD67*%
G04:AMPARAMS|DCode=68|XSize=59.06mil|YSize=39.37mil|CornerRadius=9.84mil|HoleSize=0mil|Usage=FLASHONLY|Rotation=270.000|XOffset=0mil|YOffset=0mil|HoleType=Round|Shape=RoundedRectangle|*
%AMROUNDEDRECTD68*
21,1,0.05906,0.01969,0,0,270.0*
21,1,0.03937,0.03937,0,0,270.0*
1,1,0.01969,-0.00984,-0.01969*
1,1,0.01969,-0.00984,0.01969*
1,1,0.01969,0.00984,0.01969*
1,1,0.01969,0.00984,-0.01969*
%
%ADD68ROUNDEDRECTD68*%
G04:AMPARAMS|DCode=69|XSize=59.06mil|YSize=68.9mil|CornerRadius=14.76mil|HoleSize=0mil|Usage=FLASHONLY|Rotation=270.000|XOffset=0mil|YOffset=0mil|HoleType=Round|Shape=RoundedRectangle|*
%AMROUNDEDRECTD69*
21,1,0.05906,0.03937,0,0,270.0*
21,1,0.02953,0.06890,0,0,270.0*
1,1,0.02953,-0.01969,-0.01476*
1,1,0.02953,-0.01969,0.01476*
1,1,0.02953,0.01969,0.01476*
1,1,0.02953,0.01969,-0.01476*
%
%ADD69ROUNDEDRECTD69*%
G36*
X61291Y-18936D02*
X61162Y-19587D01*
X61316Y-20362D01*
X61756Y-21020D01*
X62413Y-21459D01*
X63189Y-21614D01*
X63341Y-21584D01*
X66861Y-25104D01*
Y-31139D01*
X66413Y-31360D01*
X66390Y-31343D01*
X65719Y-31065D01*
X65000Y-30970D01*
X64281Y-31065D01*
X63610Y-31343D01*
X63034Y-31784D01*
X62593Y-32360D01*
X62315Y-33031D01*
X62220Y-33750D01*
X62315Y-34469D01*
X62593Y-35140D01*
X62962Y-35622D01*
X63077Y-36146D01*
X62729Y-36667D01*
X62607Y-37282D01*
Y-41219D01*
X62729Y-41833D01*
X63077Y-42354D01*
X63598Y-42702D01*
X64213Y-42824D01*
X64986D01*
Y-56044D01*
X62750D01*
X62097Y-56174D01*
X61544Y-56544D01*
X57543Y-60544D01*
X37207D01*
X36456Y-59793D01*
Y-53000D01*
Y-42173D01*
X36623Y-41923D01*
X36777Y-41148D01*
X36623Y-40372D01*
X36183Y-39714D01*
X35526Y-39275D01*
X34750Y-39121D01*
X33974Y-39275D01*
X33317Y-39714D01*
X32877Y-40372D01*
X32723Y-41148D01*
X32877Y-41923D01*
X33044Y-42173D01*
Y-51294D01*
X27099D01*
X26488Y-51172D01*
X24262D01*
X23651Y-51294D01*
X22514D01*
X22513Y-51293D01*
Y-51104D01*
X18486D01*
Y-51293D01*
X18602Y-51876D01*
X18932Y-52369D01*
X18951Y-52381D01*
X19021Y-53007D01*
X18828Y-53215D01*
X10344D01*
X9845Y-52881D01*
X9000Y-52714D01*
X8155Y-52881D01*
X7439Y-53360D01*
X6960Y-54076D01*
X6792Y-54921D01*
X6960Y-55766D01*
X7439Y-56482D01*
X7739Y-56683D01*
X7587Y-57183D01*
X6250D01*
Y-61750D01*
X5250D01*
Y-57183D01*
X2994D01*
X2270Y-57278D01*
X1596Y-57557D01*
X1503Y-57629D01*
X1003Y-57382D01*
Y-45838D01*
X1503Y-45684D01*
X2168Y-46128D01*
X3051Y-46304D01*
X6554D01*
X6639Y-46365D01*
X6919Y-46804D01*
X6792Y-47441D01*
X6960Y-48286D01*
X7439Y-49002D01*
X8155Y-49481D01*
X9000Y-49649D01*
X9845Y-49481D01*
X10344Y-49147D01*
X14309D01*
X14962Y-49017D01*
X15515Y-48647D01*
X17858Y-46304D01*
X21752D01*
X22635Y-46128D01*
X23384Y-45628D01*
X23884Y-44879D01*
X24060Y-43996D01*
Y-42456D01*
X26250D01*
X26903Y-42326D01*
X27456Y-41956D01*
X30059Y-39354D01*
X30437Y-39279D01*
X30958Y-38931D01*
X31306Y-38410D01*
X31429Y-37795D01*
Y-35827D01*
X31306Y-35212D01*
X30958Y-34691D01*
X30741Y-34547D01*
Y-33953D01*
X31241Y-33685D01*
X31346Y-33755D01*
X32037Y-33893D01*
X34006D01*
X34697Y-33755D01*
X35283Y-33364D01*
X35675Y-32778D01*
X35812Y-32087D01*
Y-29173D01*
X35930Y-29055D01*
X38297D01*
X38797Y-28955D01*
X39220Y-28673D01*
X42102Y-25790D01*
X45636D01*
X46136Y-25691D01*
X46559Y-25408D01*
X47662Y-24305D01*
X52481D01*
X52567Y-24433D01*
X53224Y-24873D01*
X54000Y-25027D01*
X54776Y-24873D01*
X55433Y-24433D01*
X55873Y-23776D01*
X56002Y-23128D01*
X56750Y-23277D01*
X57526Y-23123D01*
X58183Y-22683D01*
X58623Y-22026D01*
X58777Y-21250D01*
X58623Y-20474D01*
X58183Y-19817D01*
X57526Y-19377D01*
X56750Y-19223D01*
X55974Y-19377D01*
X55618Y-19615D01*
X55449Y-19502D01*
X54950Y-19402D01*
X53452D01*
X53300Y-18902D01*
X53811Y-18561D01*
X53895Y-18436D01*
X61011D01*
X61291Y-18936D01*
D02*
G37*
G36*
X73344Y-50173D02*
X73768Y-50455D01*
X74267Y-50555D01*
X79369D01*
X79611Y-51055D01*
X79473Y-51750D01*
X79627Y-52526D01*
X80067Y-53183D01*
X80724Y-53623D01*
X81500Y-53777D01*
X82276Y-53623D01*
X82933Y-53183D01*
X83373Y-52526D01*
X83417Y-52305D01*
X91460D01*
X93987Y-54832D01*
X93796Y-55294D01*
X74250D01*
X73641Y-55415D01*
X73540Y-54905D01*
X73061Y-54189D01*
X72345Y-53710D01*
X71500Y-53542D01*
X70655Y-53710D01*
X69939Y-54189D01*
X69460Y-54905D01*
X69292Y-55750D01*
X69051Y-56044D01*
X67796D01*
Y-45278D01*
X68258Y-45086D01*
X73344Y-50173D01*
D02*
G37*
G36*
X27554Y-28639D02*
X27163Y-29224D01*
X27008Y-30000D01*
X27163Y-30776D01*
X27329Y-31025D01*
Y-34547D01*
X27113Y-34691D01*
X26765Y-35212D01*
X26642Y-35827D01*
Y-37795D01*
X26667Y-37920D01*
X26336Y-38252D01*
X25875Y-38005D01*
X25917Y-37795D01*
Y-35827D01*
X25795Y-35212D01*
X25446Y-34691D01*
X24926Y-34343D01*
X24311Y-34221D01*
X24017D01*
X23874Y-33860D01*
X23845Y-33721D01*
X24220Y-33160D01*
X24358Y-32469D01*
Y-29554D01*
X25773Y-28139D01*
X27411D01*
X27554Y-28639D01*
D02*
G37*
G36*
X162379Y-1503D02*
X161953Y-2058D01*
X161515Y-3115D01*
X161432Y-3750D01*
X165750D01*
Y-4250D01*
X166250D01*
Y-8568D01*
X166885Y-8485D01*
X167942Y-8047D01*
X168850Y-7350D01*
X169023Y-7124D01*
X169497Y-7285D01*
Y-27067D01*
X169573Y-27451D01*
X169790Y-27777D01*
X170116Y-27994D01*
X170500Y-28071D01*
X176162D01*
Y-84479D01*
X175662Y-84578D01*
X175297Y-83696D01*
X174600Y-82788D01*
X173692Y-82092D01*
X172635Y-81654D01*
X172000Y-81570D01*
Y-85888D01*
X171500D01*
Y-86388D01*
X167182D01*
X167265Y-87023D01*
X167703Y-88080D01*
X168400Y-88988D01*
X168512Y-89074D01*
X168351Y-89548D01*
X87224D01*
Y-86193D01*
X106146D01*
Y-72807D01*
X87224D01*
Y-66929D01*
X87407Y-66706D01*
X105457D01*
X113794Y-75043D01*
Y-83000D01*
X113924Y-83653D01*
X114294Y-84206D01*
X114319Y-84231D01*
X114377Y-84526D01*
X114817Y-85183D01*
X115474Y-85623D01*
X116250Y-85777D01*
X117026Y-85623D01*
X117683Y-85183D01*
X118123Y-84526D01*
X118277Y-83750D01*
X118123Y-82974D01*
X117683Y-82317D01*
X117206Y-81998D01*
Y-74336D01*
X117076Y-73683D01*
X116706Y-73130D01*
X107370Y-63794D01*
X106817Y-63424D01*
X106164Y-63294D01*
X60272D01*
X60081Y-62832D01*
X63457Y-59456D01*
X73500D01*
X74153Y-59326D01*
X74706Y-58956D01*
X74706Y-58956D01*
X74957Y-58706D01*
X95165D01*
X95212Y-58715D01*
X126991D01*
X127643Y-58586D01*
X128197Y-58216D01*
X128957Y-57456D01*
X144000D01*
X144653Y-57326D01*
X145206Y-56956D01*
X150255Y-51907D01*
X151172Y-51725D01*
X151953Y-51203D01*
X152475Y-50422D01*
X152658Y-49500D01*
X152475Y-48578D01*
X151953Y-47797D01*
X151172Y-47275D01*
X150250Y-47091D01*
X149328Y-47275D01*
X148547Y-47797D01*
X148025Y-48578D01*
X147843Y-49495D01*
X143293Y-54044D01*
X128250D01*
X127597Y-54174D01*
X127044Y-54544D01*
X126284Y-55303D01*
X120695D01*
X120503Y-54842D01*
X122333Y-53012D01*
X123198D01*
X123315Y-53187D01*
X123973Y-53626D01*
X124748Y-53781D01*
X125524Y-53626D01*
X126182Y-53187D01*
X126621Y-52529D01*
X126776Y-51754D01*
X126621Y-50978D01*
X126182Y-50320D01*
X125524Y-49881D01*
X124748Y-49726D01*
X123973Y-49881D01*
X123315Y-50320D01*
X123260Y-50402D01*
X121793D01*
X121294Y-50502D01*
X120870Y-50785D01*
X117928Y-53727D01*
X98646D01*
X98494Y-53227D01*
X98933Y-52933D01*
X99373Y-52276D01*
X99527Y-51500D01*
X99373Y-50724D01*
X98933Y-50067D01*
X98276Y-49627D01*
X97926Y-49558D01*
X97527Y-49000D01*
X97373Y-48224D01*
X96933Y-47567D01*
X96276Y-47127D01*
X95500Y-46973D01*
X95139Y-47045D01*
X94673Y-46578D01*
X94249Y-46295D01*
X93750Y-46195D01*
X75311D01*
X72986Y-43870D01*
X72946Y-43844D01*
X71071Y-41969D01*
Y-39397D01*
X71055Y-39312D01*
Y-34077D01*
X71496Y-33841D01*
X71667Y-33956D01*
X72441Y-34110D01*
X72925D01*
Y-30118D01*
Y-26127D01*
X72441D01*
X71667Y-26281D01*
X71496Y-26395D01*
X71055Y-26159D01*
Y-22408D01*
X70955Y-21908D01*
X70673Y-21485D01*
X69123Y-19935D01*
X69153Y-19783D01*
X68999Y-19008D01*
X68912Y-18877D01*
X69147Y-18436D01*
X72669D01*
X72669Y-18436D01*
X73284Y-18314D01*
X73805Y-17966D01*
X74133Y-17638D01*
X74595Y-17829D01*
Y-18953D01*
X74517Y-19071D01*
X74394Y-19685D01*
X74517Y-20300D01*
X74595Y-20417D01*
Y-25654D01*
X74538Y-25799D01*
X74160Y-26127D01*
X73925D01*
Y-29618D01*
X76433D01*
Y-28822D01*
X76894Y-28631D01*
X77986Y-29723D01*
Y-34152D01*
X74375Y-37763D01*
X74070Y-38219D01*
X73963Y-38757D01*
Y-41237D01*
X74070Y-41774D01*
X74166Y-41918D01*
X74129Y-41974D01*
X73974Y-42750D01*
X74129Y-43526D01*
X74568Y-44183D01*
X75226Y-44623D01*
X76002Y-44777D01*
X76348Y-44708D01*
X76385Y-44733D01*
X77000Y-44856D01*
X105961D01*
X106783Y-45678D01*
X106877Y-46150D01*
X107317Y-46807D01*
X107974Y-47247D01*
X108750Y-47401D01*
X109526Y-47247D01*
X110183Y-46807D01*
X110623Y-46150D01*
X110777Y-45374D01*
X110623Y-44598D01*
X110183Y-43941D01*
X109526Y-43501D01*
X109054Y-43407D01*
X107761Y-42115D01*
X107240Y-41767D01*
X106626Y-41644D01*
X106626Y-41644D01*
X77654D01*
X77435Y-41317D01*
X77171Y-41140D01*
X76995Y-40877D01*
X76773Y-40655D01*
Y-39339D01*
X80385Y-35727D01*
X80689Y-35271D01*
X80796Y-34734D01*
Y-29141D01*
X80689Y-28603D01*
X80385Y-28148D01*
X78918Y-26680D01*
X79109Y-26219D01*
X80234D01*
Y-24537D01*
X78250D01*
Y-23537D01*
X80234D01*
Y-21856D01*
X80234D01*
X80022Y-21714D01*
Y-17777D01*
X77405D01*
Y-15000D01*
X77995Y-14606D01*
X103776D01*
X106475Y-17304D01*
X106627Y-18070D01*
X107106Y-18786D01*
X107394Y-18979D01*
Y-22000D01*
X107394Y-22000D01*
X107517Y-22614D01*
X107865Y-23135D01*
X110865Y-26135D01*
X111386Y-26483D01*
X112000Y-26606D01*
X112000Y-26606D01*
X118000D01*
X118000Y-26606D01*
X118614Y-26483D01*
X119135Y-26135D01*
X120703Y-24568D01*
X120845Y-24540D01*
X121561Y-24061D01*
X122040Y-23345D01*
X122208Y-22500D01*
X122040Y-21655D01*
X121561Y-20939D01*
X120845Y-20460D01*
X120000Y-20292D01*
X119155Y-20460D01*
X118439Y-20939D01*
X118121Y-21415D01*
X117949Y-21435D01*
X117551Y-21367D01*
X117183Y-20817D01*
X116526Y-20377D01*
X115750Y-20223D01*
X114974Y-20377D01*
X114317Y-20817D01*
X114231Y-20945D01*
X113290D01*
X112555Y-20210D01*
Y-16000D01*
X112455Y-15501D01*
X112172Y-15078D01*
X106702Y-9607D01*
X106279Y-9325D01*
X105780Y-9225D01*
X76675D01*
X76358Y-8839D01*
X76433Y-8465D01*
Y-6996D01*
X73425D01*
X70418D01*
Y-8465D01*
X70572Y-9239D01*
X71010Y-9895D01*
X71667Y-10334D01*
X72441Y-10488D01*
X73021D01*
X73212Y-10950D01*
X70515Y-13647D01*
X61356D01*
X61205Y-13147D01*
X61308Y-13077D01*
X61787Y-12361D01*
X61955Y-11516D01*
X61787Y-10671D01*
X61308Y-9955D01*
X61265Y-9927D01*
X61120Y-9742D01*
X61511Y-9156D01*
X61649Y-8465D01*
Y-4528D01*
X61511Y-3836D01*
X61120Y-3250D01*
X60534Y-2859D01*
X59842Y-2721D01*
X57874D01*
X57183Y-2859D01*
X56597Y-3250D01*
X56205Y-3836D01*
X56068Y-4528D01*
Y-8465D01*
X56205Y-9156D01*
X56313Y-9318D01*
X56046Y-9817D01*
X50586D01*
X50350Y-9376D01*
X50442Y-9239D01*
X50596Y-8465D01*
Y-6996D01*
X47589D01*
X44581D01*
Y-8465D01*
X44735Y-9239D01*
X44827Y-9376D01*
X44592Y-9817D01*
X35834D01*
X35567Y-9318D01*
X35675Y-9156D01*
X35812Y-8465D01*
Y-4528D01*
X35675Y-3836D01*
X35283Y-3250D01*
X34697Y-2859D01*
X34006Y-2721D01*
X32037D01*
X31346Y-2859D01*
X30760Y-3250D01*
X30369Y-3836D01*
X30231Y-4528D01*
Y-8465D01*
X30369Y-9156D01*
X30476Y-9318D01*
X30209Y-9817D01*
X24589D01*
X24264Y-9317D01*
X24358Y-8846D01*
Y-4909D01*
X24220Y-4218D01*
X23829Y-3632D01*
X23242Y-3241D01*
X22551Y-3103D01*
X20583D01*
X19891Y-3241D01*
X19305Y-3632D01*
X18914Y-4218D01*
X18776Y-4909D01*
Y-8846D01*
X18870Y-9317D01*
X18545Y-9817D01*
X10710D01*
X10264Y-9906D01*
X10090Y-9785D01*
X9869Y-9544D01*
X10007Y-8846D01*
Y-7378D01*
X7500D01*
Y-10870D01*
X7984D01*
X8516Y-10764D01*
X8763Y-11225D01*
X7785Y-12203D01*
X7502Y-12626D01*
X7402Y-13125D01*
Y-18353D01*
X7502Y-18852D01*
X7785Y-19275D01*
X8975Y-20465D01*
X8914Y-20768D01*
X9082Y-21613D01*
X9561Y-22329D01*
X10277Y-22807D01*
X11122Y-22975D01*
X11967Y-22807D01*
X12683Y-22329D01*
X13162Y-21613D01*
X13330Y-20768D01*
X13162Y-19923D01*
X12683Y-19207D01*
X11967Y-18728D01*
X11122Y-18560D01*
X10819Y-18620D01*
X10012Y-17812D01*
Y-16361D01*
X10512Y-16005D01*
X11000Y-16102D01*
X11776Y-15948D01*
X12025Y-15781D01*
X14868D01*
X17544Y-18456D01*
X18097Y-18826D01*
X18750Y-18956D01*
X28335D01*
X29860Y-20481D01*
X29919Y-20776D01*
X30358Y-21433D01*
X31016Y-21873D01*
X31791Y-22027D01*
X32567Y-21873D01*
X33225Y-21433D01*
X33664Y-20776D01*
X33819Y-20000D01*
X33664Y-19224D01*
X33225Y-18567D01*
X32567Y-18127D01*
X32273Y-18069D01*
X30248Y-16044D01*
X29694Y-15674D01*
X29041Y-15544D01*
X19457D01*
X16839Y-12927D01*
X16879Y-12688D01*
X17020Y-12427D01*
X57751D01*
X58186Y-13077D01*
X58289Y-13147D01*
X58138Y-13647D01*
X54235D01*
X54196Y-13607D01*
X53772Y-13325D01*
X53273Y-13225D01*
X51227D01*
X50728Y-13325D01*
X50304Y-13607D01*
X48832Y-15080D01*
X48482Y-15313D01*
X43784Y-20012D01*
X40250D01*
X39750Y-20112D01*
X39327Y-20394D01*
X37026Y-22695D01*
X30500D01*
X30001Y-22795D01*
X29577Y-23077D01*
X28710Y-23945D01*
X19508D01*
X19009Y-24045D01*
X18585Y-24328D01*
X17077Y-25835D01*
X16795Y-26259D01*
X16695Y-26758D01*
Y-34793D01*
X16454Y-35155D01*
X16331Y-35769D01*
Y-37738D01*
X16454Y-38352D01*
X16802Y-38873D01*
Y-38998D01*
X16183Y-39411D01*
X15683Y-40160D01*
X15507Y-41043D01*
Y-43830D01*
X13602Y-45735D01*
X10344D01*
X9845Y-45401D01*
X9429Y-45318D01*
X9280Y-45107D01*
X9146Y-44752D01*
X9296Y-43996D01*
Y-41043D01*
X9121Y-40160D01*
X8620Y-39411D01*
X7871Y-38911D01*
X7514Y-38840D01*
X7123Y-38526D01*
X7166Y-38309D01*
X7277Y-37750D01*
X7123Y-36974D01*
X6683Y-36317D01*
X6026Y-35877D01*
X5250Y-35723D01*
X4474Y-35877D01*
X3817Y-36317D01*
X3377Y-36974D01*
X3223Y-37750D01*
X3319Y-38235D01*
X3077Y-38688D01*
X2952Y-38755D01*
X2168Y-38911D01*
X1503Y-39355D01*
X1003Y-39202D01*
Y-1003D01*
X162132D01*
X162379Y-1503D01*
D02*
G37*
G36*
X18794Y-59521D02*
X18545Y-59687D01*
X18045Y-60436D01*
X17898Y-61174D01*
X17381Y-61231D01*
X17203Y-60802D01*
X16569Y-59976D01*
X15743Y-59343D01*
X14782Y-58944D01*
X14250Y-58874D01*
Y-62795D01*
X13250D01*
Y-58874D01*
X12718Y-58944D01*
X11757Y-59343D01*
X11668Y-59410D01*
X11168Y-59164D01*
X10927Y-58581D01*
X10483Y-58002D01*
X9904Y-57557D01*
X9743Y-57491D01*
X9795Y-56971D01*
X9845Y-56961D01*
X10344Y-56627D01*
X18794D01*
Y-59521D01*
D02*
G37*
G36*
X23363Y-55118D02*
X23419Y-55206D01*
X23348Y-55565D01*
X23502Y-56341D01*
X23942Y-56998D01*
X24599Y-57438D01*
X25375Y-57592D01*
X26151Y-57438D01*
X26400Y-57271D01*
X28208D01*
X28282Y-57646D01*
X28630Y-58167D01*
X29151Y-58515D01*
X29766Y-58637D01*
X31734D01*
X32349Y-58515D01*
X32544Y-58384D01*
X33044Y-58652D01*
Y-59348D01*
X32544Y-59616D01*
X32349Y-59485D01*
X31734Y-59363D01*
X29766D01*
X29151Y-59485D01*
X28630Y-59833D01*
X28282Y-60354D01*
X28160Y-60969D01*
Y-62543D01*
X28282Y-63158D01*
X28630Y-63679D01*
X29151Y-64027D01*
X29766Y-64149D01*
X31734D01*
X31945Y-64107D01*
X33301Y-65464D01*
X33110Y-65926D01*
X25349D01*
X25082Y-65426D01*
X25262Y-65155D01*
X25438Y-64272D01*
Y-61319D01*
X25262Y-60436D01*
X24762Y-59687D01*
X24013Y-59187D01*
X23130Y-59011D01*
X22206D01*
Y-56041D01*
X22297Y-55585D01*
Y-55512D01*
X22809Y-54999D01*
X23363Y-55118D01*
D02*
G37*
%LPC*%
G36*
X21000Y-48396D02*
Y-50104D01*
X22513D01*
Y-49915D01*
X22398Y-49333D01*
X22068Y-48840D01*
X21574Y-48510D01*
X21000Y-48396D01*
D02*
G37*
G36*
X20000D02*
X19426Y-48510D01*
X18932Y-48840D01*
X18602Y-49333D01*
X18486Y-49915D01*
Y-50104D01*
X20000D01*
Y-48396D01*
D02*
G37*
G36*
X56784Y-53502D02*
X56300D01*
Y-55612D01*
X58607D01*
Y-55324D01*
X58468Y-54627D01*
X58073Y-54036D01*
X57482Y-53641D01*
X56784Y-53502D01*
D02*
G37*
G36*
X55300D02*
X54816D01*
X54118Y-53641D01*
X53527Y-54036D01*
X53132Y-54627D01*
X52993Y-55324D01*
Y-55612D01*
X55300D01*
Y-53502D01*
D02*
G37*
G36*
X58607Y-56612D02*
X56300D01*
Y-58722D01*
X56784D01*
X57482Y-58583D01*
X58073Y-58188D01*
X58468Y-57597D01*
X58607Y-56899D01*
Y-56612D01*
D02*
G37*
G36*
X55300D02*
X52993D01*
Y-56899D01*
X53132Y-57597D01*
X53527Y-58188D01*
X54118Y-58583D01*
X54816Y-58722D01*
X55300D01*
Y-56612D01*
D02*
G37*
G36*
X49000Y-39723D02*
X48224Y-39877D01*
X47567Y-40317D01*
X47127Y-40974D01*
X46973Y-41750D01*
X47127Y-42526D01*
X47567Y-43183D01*
X47796Y-43336D01*
Y-56750D01*
X47796Y-56750D01*
X47887Y-57211D01*
X47946Y-57298D01*
X47875Y-57653D01*
X48030Y-58428D01*
X48469Y-59086D01*
X49127Y-59525D01*
X49903Y-59680D01*
X50678Y-59525D01*
X51336Y-59086D01*
X51775Y-58428D01*
X51930Y-57653D01*
X51775Y-56877D01*
X51336Y-56219D01*
X50678Y-55780D01*
X50204Y-55686D01*
Y-52929D01*
X50704Y-52777D01*
X50817Y-52945D01*
X51474Y-53385D01*
X52250Y-53539D01*
X53026Y-53385D01*
X53683Y-52945D01*
X53702Y-52917D01*
X54432D01*
X54816Y-52993D01*
X56784D01*
X57399Y-52871D01*
X57920Y-52523D01*
X58268Y-52002D01*
X58390Y-51387D01*
Y-49813D01*
X58268Y-49198D01*
X57920Y-48677D01*
X57399Y-48329D01*
X56784Y-48207D01*
X54816D01*
X54201Y-48329D01*
X53680Y-48677D01*
X53332Y-49198D01*
X53316Y-49278D01*
X52746Y-49583D01*
X52250Y-49485D01*
X51474Y-49639D01*
X50817Y-50078D01*
X50704Y-50247D01*
X50204Y-50095D01*
Y-43336D01*
X50433Y-43183D01*
X50873Y-42526D01*
X51027Y-41750D01*
X50873Y-40974D01*
X50433Y-40317D01*
X49776Y-39877D01*
X49000Y-39723D01*
D02*
G37*
G36*
X48573Y-26127D02*
X48089D01*
Y-29618D01*
X50596D01*
Y-28150D01*
X50442Y-27375D01*
X50003Y-26719D01*
X49347Y-26281D01*
X48573Y-26127D01*
D02*
G37*
G36*
X47089Y-30618D02*
X44581D01*
Y-32087D01*
X44735Y-32861D01*
X45174Y-33517D01*
X45830Y-33956D01*
X46604Y-34110D01*
X47089D01*
Y-30618D01*
D02*
G37*
G36*
X50596D02*
X48089D01*
Y-34110D01*
X48573D01*
X49347Y-33956D01*
X50003Y-33517D01*
X50442Y-32861D01*
X50596Y-32087D01*
Y-30618D01*
D02*
G37*
G36*
X61250Y-24973D02*
X60474Y-25127D01*
X59817Y-25567D01*
X59377Y-26224D01*
X59354Y-26343D01*
X57874D01*
X57183Y-26481D01*
X56597Y-26872D01*
X56205Y-27458D01*
X56068Y-28150D01*
Y-30875D01*
X55568Y-31209D01*
X55219Y-31065D01*
X54500Y-30970D01*
X53781Y-31065D01*
X53110Y-31343D01*
X52535Y-31784D01*
X52093Y-32360D01*
X51815Y-33031D01*
X51720Y-33750D01*
X51815Y-34469D01*
X52093Y-35140D01*
X52535Y-35715D01*
X53110Y-36157D01*
X53656Y-36383D01*
X53801Y-36483D01*
X54008Y-36969D01*
X53945Y-37282D01*
Y-41219D01*
X54068Y-41833D01*
X54416Y-42354D01*
X54937Y-42702D01*
X55551Y-42824D01*
X57126D01*
X57740Y-42702D01*
X58261Y-42354D01*
X58609Y-41833D01*
X58732Y-41219D01*
Y-37282D01*
X58609Y-36667D01*
X58261Y-36146D01*
X57740Y-35798D01*
X57126Y-35676D01*
X57032D01*
X56880Y-35176D01*
X56907Y-35140D01*
X57185Y-34469D01*
X57229Y-34137D01*
X57635Y-33845D01*
X57874Y-33893D01*
X59842D01*
X60534Y-33755D01*
X61120Y-33364D01*
X61511Y-32778D01*
X61649Y-32087D01*
Y-28948D01*
X62026Y-28873D01*
X62683Y-28433D01*
X63123Y-27776D01*
X63277Y-27000D01*
X63123Y-26224D01*
X62683Y-25567D01*
X62026Y-25127D01*
X61250Y-24973D01*
D02*
G37*
G36*
X47089Y-26127D02*
X46604D01*
X45830Y-26281D01*
X45174Y-26719D01*
X44735Y-27375D01*
X44581Y-28150D01*
Y-29618D01*
X47089D01*
Y-26127D01*
D02*
G37*
G36*
X12713Y-37253D02*
X10603D01*
Y-37738D01*
X10741Y-38435D01*
X11136Y-39026D01*
X11728Y-39421D01*
X12425Y-39560D01*
X12713D01*
Y-37253D01*
D02*
G37*
G36*
X15822D02*
X13713D01*
Y-39560D01*
X14000D01*
X14697Y-39421D01*
X15289Y-39026D01*
X15684Y-38435D01*
X15822Y-37738D01*
Y-37253D01*
D02*
G37*
G36*
X14000Y-33947D02*
X13713D01*
Y-36253D01*
X15822D01*
Y-35769D01*
X15684Y-35072D01*
X15289Y-34481D01*
X14697Y-34086D01*
X14000Y-33947D01*
D02*
G37*
G36*
X6500Y-31000D02*
X3993D01*
Y-32469D01*
X4147Y-33243D01*
X4585Y-33899D01*
X5241Y-34338D01*
X6016Y-34492D01*
X6500D01*
Y-31000D01*
D02*
G37*
G36*
X171000Y-81570D02*
X170365Y-81654D01*
X169308Y-82092D01*
X168400Y-82788D01*
X167703Y-83696D01*
X167265Y-84754D01*
X167182Y-85388D01*
X171000D01*
Y-81570D01*
D02*
G37*
G36*
X12713Y-33947D02*
X12425D01*
X11728Y-34086D01*
X11136Y-34481D01*
X10741Y-35072D01*
X10603Y-35769D01*
Y-36253D01*
X12713D01*
Y-33947D01*
D02*
G37*
G36*
X136250Y-38473D02*
X135474Y-38627D01*
X134817Y-39067D01*
X134377Y-39724D01*
X134223Y-40500D01*
X134377Y-41276D01*
X134817Y-41933D01*
X135474Y-42373D01*
X136250Y-42527D01*
X136402Y-42497D01*
X136752Y-42847D01*
Y-46981D01*
X136623Y-47067D01*
X136184Y-47724D01*
X136029Y-48500D01*
X136184Y-49276D01*
X136623Y-49933D01*
X137281Y-50373D01*
X138056Y-50527D01*
X138832Y-50373D01*
X139490Y-49933D01*
X139929Y-49276D01*
X140084Y-48500D01*
X139929Y-47724D01*
X139490Y-47067D01*
X139361Y-46981D01*
Y-42306D01*
X139262Y-41807D01*
X138979Y-41384D01*
X138247Y-40652D01*
X138277Y-40500D01*
X138123Y-39724D01*
X137683Y-39067D01*
X137026Y-38627D01*
X136250Y-38473D01*
D02*
G37*
G36*
X114894Y-40720D02*
X114106D01*
X113387Y-40815D01*
X112716Y-41093D01*
X112141Y-41535D01*
X111699Y-42110D01*
X111421Y-42781D01*
X111327Y-43500D01*
X111421Y-44219D01*
X111699Y-44890D01*
X112141Y-45465D01*
X112434Y-45690D01*
Y-46310D01*
X112141Y-46534D01*
X111699Y-47110D01*
X111421Y-47781D01*
X111327Y-48500D01*
X111421Y-49219D01*
X111699Y-49890D01*
X112141Y-50466D01*
X112716Y-50907D01*
X113387Y-51185D01*
X114106Y-51280D01*
X114894D01*
X115613Y-51185D01*
X116284Y-50907D01*
X116859Y-50466D01*
X117301Y-49890D01*
X117579Y-49219D01*
X117673Y-48500D01*
X117579Y-47781D01*
X117301Y-47110D01*
X116859Y-46534D01*
X116566Y-46310D01*
Y-45690D01*
X116859Y-45465D01*
X117301Y-44890D01*
X117579Y-44219D01*
X117673Y-43500D01*
X117579Y-42781D01*
X117301Y-42110D01*
X116859Y-41535D01*
X116284Y-41093D01*
X115613Y-40815D01*
X114894Y-40720D01*
D02*
G37*
G36*
X10007Y-31000D02*
X7500D01*
Y-34492D01*
X7984D01*
X8759Y-34338D01*
X9415Y-33899D01*
X9853Y-33243D01*
X10007Y-32469D01*
Y-31000D01*
D02*
G37*
G36*
X165250Y-4750D02*
X161432D01*
X161515Y-5385D01*
X161953Y-6442D01*
X162650Y-7350D01*
X163558Y-8047D01*
X164615Y-8485D01*
X165250Y-8568D01*
Y-4750D01*
D02*
G37*
G36*
X6500Y-2886D02*
X6016D01*
X5241Y-3040D01*
X4585Y-3479D01*
X4147Y-4135D01*
X3993Y-4909D01*
Y-6378D01*
X6500D01*
Y-2886D01*
D02*
G37*
G36*
Y-7378D02*
X3993D01*
Y-8846D01*
X4147Y-9621D01*
X4585Y-10277D01*
X5241Y-10716D01*
X6016Y-10870D01*
X6500D01*
Y-7378D01*
D02*
G37*
G36*
X143280Y-8827D02*
X142504Y-8981D01*
X141846Y-9421D01*
X141407Y-10079D01*
X141254Y-10845D01*
X137832D01*
X136848Y-9861D01*
X136392Y-9556D01*
X135854Y-9449D01*
X131452D01*
X131433Y-9421D01*
X130776Y-8981D01*
X130000Y-8827D01*
X129224Y-8981D01*
X128567Y-9421D01*
X128127Y-10079D01*
X127973Y-10854D01*
X128127Y-11630D01*
X128567Y-12288D01*
X129224Y-12727D01*
X130000Y-12881D01*
X130776Y-12727D01*
X131433Y-12288D01*
X131452Y-12259D01*
X135272D01*
X136257Y-13243D01*
X136712Y-13548D01*
X137250Y-13655D01*
X141884D01*
X142421Y-13548D01*
X142877Y-13243D01*
X143246Y-12875D01*
X143280Y-12881D01*
X144055Y-12727D01*
X144713Y-12288D01*
X145152Y-11630D01*
X145307Y-10854D01*
X145152Y-10079D01*
X144713Y-9421D01*
X144055Y-8981D01*
X143280Y-8827D01*
D02*
G37*
G36*
X7984Y-2886D02*
X7500D01*
Y-6378D01*
X10007D01*
Y-4909D01*
X9853Y-4135D01*
X9415Y-3479D01*
X8759Y-3040D01*
X7984Y-2886D01*
D02*
G37*
G36*
X47089Y-2504D02*
X46604D01*
X45830Y-2658D01*
X45174Y-3097D01*
X44735Y-3753D01*
X44581Y-4528D01*
Y-5996D01*
X47089D01*
Y-2504D01*
D02*
G37*
G36*
X48573D02*
X48089D01*
Y-5996D01*
X50596D01*
Y-4528D01*
X50442Y-3753D01*
X50003Y-3097D01*
X49347Y-2658D01*
X48573Y-2504D01*
D02*
G37*
G36*
X72925D02*
X72441D01*
X71667Y-2658D01*
X71010Y-3097D01*
X70572Y-3753D01*
X70418Y-4528D01*
Y-5996D01*
X72925D01*
Y-2504D01*
D02*
G37*
G36*
X74409D02*
X73925D01*
Y-5996D01*
X76433D01*
Y-4528D01*
X76279Y-3753D01*
X75840Y-3097D01*
X75184Y-2658D01*
X74409Y-2504D01*
D02*
G37*
G36*
X76433Y-30618D02*
X73925D01*
Y-34110D01*
X74409D01*
X75184Y-33956D01*
X75840Y-33517D01*
X76279Y-32861D01*
X76433Y-32087D01*
Y-30618D01*
D02*
G37*
G36*
X128500Y-23473D02*
X127724Y-23627D01*
X127067Y-24067D01*
X126627Y-24724D01*
X126473Y-25500D01*
X126627Y-26276D01*
X127067Y-26933D01*
X127724Y-27373D01*
X128500Y-27527D01*
X129276Y-27373D01*
X129933Y-26933D01*
X130019Y-26805D01*
X134771D01*
X138253Y-30286D01*
X138127Y-30474D01*
X137973Y-31250D01*
X138127Y-32026D01*
X138567Y-32683D01*
X139224Y-33123D01*
X140000Y-33277D01*
X140776Y-33123D01*
X141433Y-32683D01*
X141873Y-32026D01*
X142027Y-31250D01*
X141873Y-30474D01*
X141433Y-29817D01*
X141174Y-29644D01*
X140922Y-29267D01*
X136233Y-24577D01*
X135810Y-24295D01*
X135311Y-24195D01*
X130019D01*
X129933Y-24067D01*
X129276Y-23627D01*
X128500Y-23473D01*
D02*
G37*
G36*
X7984Y-26508D02*
X7500D01*
Y-30000D01*
X10007D01*
Y-28532D01*
X9853Y-27757D01*
X9415Y-27101D01*
X8759Y-26662D01*
X7984Y-26508D01*
D02*
G37*
G36*
X165646Y-14723D02*
X164870Y-14877D01*
X164212Y-15317D01*
X163773Y-15974D01*
X163619Y-16750D01*
X163773Y-17526D01*
X164212Y-18183D01*
X164241Y-18202D01*
Y-27298D01*
X164212Y-27317D01*
X163773Y-27974D01*
X163619Y-28750D01*
X163773Y-29526D01*
X164212Y-30183D01*
X164870Y-30623D01*
X165646Y-30777D01*
X166421Y-30623D01*
X167079Y-30183D01*
X167518Y-29526D01*
X167673Y-28750D01*
X167518Y-27974D01*
X167079Y-27317D01*
X167051Y-27298D01*
Y-18202D01*
X167079Y-18183D01*
X167518Y-17526D01*
X167673Y-16750D01*
X167518Y-15974D01*
X167079Y-15317D01*
X166421Y-14877D01*
X165646Y-14723D01*
D02*
G37*
G36*
X6500Y-26508D02*
X6016D01*
X5241Y-26662D01*
X4585Y-27101D01*
X4147Y-27757D01*
X3993Y-28532D01*
Y-30000D01*
X6500D01*
Y-26508D01*
D02*
G37*
%LPD*%
D11*
X30750Y-61756D02*
D03*
Y-56244D02*
D03*
X55800Y-56112D02*
D03*
Y-50600D02*
D03*
D13*
X20500Y-54896D02*
D03*
Y-50604D02*
D03*
D15*
X29035Y-36811D02*
D03*
X23524D02*
D03*
X18724Y-36753D02*
D03*
X13213D02*
D03*
D47*
X65000Y-39250D02*
X66391Y-40641D01*
Y-57750D02*
Y-40641D01*
X76000Y-25750D02*
X79391Y-29141D01*
X75368Y-38757D02*
X79391Y-34734D01*
Y-29141D01*
X75368Y-41237D02*
X76002Y-41870D01*
Y-42750D02*
Y-41870D01*
X75368Y-41237D02*
Y-38757D01*
X141884Y-12250D02*
X143280Y-10854D01*
X130000D02*
X135854D01*
X137250Y-12250D01*
X141884D01*
X165646Y-28750D02*
Y-16750D01*
X54888Y-51512D02*
X55800Y-50600D01*
X52250Y-51512D02*
X54888D01*
X1600Y-59145D02*
X5250Y-62795D01*
X1600Y-59145D02*
Y-57600D01*
X5250Y-62795D02*
X10045Y-58000D01*
X11000D01*
Y-60045D02*
Y-58000D01*
Y-60045D02*
X13750Y-62795D01*
X17195Y-59350D01*
X122750Y-54000D02*
X122908Y-54158D01*
X125744D01*
X127403Y-52500D01*
X127750D01*
X76000Y-25750D02*
Y-19685D01*
Y-13500D01*
D48*
X46956Y-20925D02*
X52832D01*
X44980Y-22901D02*
X46956Y-20925D01*
X69750Y-39380D02*
X69767Y-39397D01*
Y-42510D02*
Y-39397D01*
Y-42510D02*
X72050Y-44793D01*
X68166Y-40036D02*
X68183Y-40053D01*
Y-43166D02*
Y-40053D01*
Y-43166D02*
X74267Y-49250D01*
X118468Y-55032D02*
X121793Y-51707D01*
X123700D01*
X123709Y-51717D02*
X124758D01*
X123700Y-51707D02*
X123709Y-51717D01*
X124748Y-51767D02*
Y-51754D01*
Y-51767D02*
X125033Y-52052D01*
X96031Y-55032D02*
X118468D01*
X74267Y-49250D02*
X92491D01*
X94656Y-51415D01*
X97585D01*
X92000Y-51000D02*
X96031Y-55032D01*
X82000Y-51000D02*
X92000D01*
X81500Y-51750D02*
Y-51500D01*
X82000Y-51000D01*
X72050Y-44793D02*
X72064D01*
X74771Y-47500D01*
X55168Y-20925D02*
X56425D01*
X54950Y-20707D02*
X55168Y-20925D01*
X53050Y-20707D02*
X54950D01*
X52832Y-20925D02*
X53050Y-20707D01*
X56425Y-20925D02*
X56750Y-21250D01*
X35390Y-27750D02*
X38297D01*
X41562Y-24485D01*
X38223Y-25584D02*
X40906Y-22901D01*
X25233Y-26834D02*
X29906D01*
X41562Y-24485D02*
X45636D01*
X40906Y-22901D02*
X44980D01*
X47122Y-23000D02*
X54000D01*
X45636Y-24485D02*
X47122Y-23000D01*
X21567Y-30500D02*
X25233Y-26834D01*
X31156Y-25584D02*
X38223D01*
X29906Y-26834D02*
X31156Y-25584D01*
X37567Y-24000D02*
X40250Y-21317D01*
X30500Y-24000D02*
X37567D01*
X29250Y-25250D02*
X30500Y-24000D01*
X19508Y-25250D02*
X29250D01*
X18000Y-26758D02*
X19508Y-25250D01*
X40250Y-21317D02*
X44324D01*
X140000Y-31250D02*
Y-30189D01*
X135311Y-25500D02*
X140000Y-30189D01*
X97500Y-51500D02*
X97585Y-51415D01*
X93750Y-47500D02*
X95250Y-49000D01*
X95500D01*
X74771Y-47500D02*
X93750D01*
X112750Y-22250D02*
X115750D01*
X111250Y-20750D02*
X112750Y-22250D01*
X111250Y-20750D02*
Y-16000D01*
X128500Y-25500D02*
X135311D01*
X18000Y-36029D02*
Y-26758D01*
Y-36029D02*
X18724Y-36753D01*
X23466D02*
X23524Y-36811D01*
X18724Y-36753D02*
X23466D01*
X136250Y-40500D02*
X138056Y-42306D01*
Y-48500D02*
Y-42306D01*
X33022Y-30118D02*
X35390Y-27750D01*
X58858Y-29392D02*
X61250Y-27000D01*
X58858Y-30118D02*
Y-29392D01*
X55500Y-38411D02*
X56339Y-39250D01*
X55500Y-38411D02*
Y-34750D01*
X54500Y-33750D02*
X55500Y-34750D01*
X68166Y-40036D02*
Y-24563D01*
X63189Y-19587D02*
X68166Y-24563D01*
X69750Y-39380D02*
Y-22408D01*
X67126Y-19783D02*
X69750Y-22408D01*
X49405Y-16236D02*
X49521D01*
X51227Y-14530D01*
X53273D01*
X53694Y-14951D01*
X44324Y-21317D02*
X49405Y-16236D01*
X59747Y-11516D02*
Y-11125D01*
X59744Y-11122D02*
X59747Y-11125D01*
X8707Y-13125D02*
X10710Y-11122D01*
X8707Y-18353D02*
Y-13125D01*
X10710Y-11122D02*
X59744D01*
X8707Y-18353D02*
X11122Y-20768D01*
X75477Y-10530D02*
X105780D01*
X111250Y-16000D01*
X53694Y-14951D02*
X71056D01*
X75477Y-10530D01*
D49*
X49000Y-56750D02*
X49903Y-57653D01*
X49000Y-56750D02*
Y-41750D01*
D50*
X62750Y-57750D02*
X73500D01*
X26610Y-53000D02*
X34750D01*
X26488Y-52878D02*
X26610Y-53000D01*
X24262Y-52878D02*
X26488D01*
X24140Y-53000D02*
X24262Y-52878D01*
X22396Y-53000D02*
X24140D01*
X20500Y-54896D02*
X22396Y-53000D01*
X106164Y-65000D02*
X115500Y-74336D01*
Y-83000D02*
Y-74336D01*
Y-83000D02*
X116250Y-83750D01*
X126991Y-57010D02*
X128250Y-55750D01*
X95212Y-57010D02*
X126991D01*
X95203Y-57000D02*
X95212Y-57010D01*
X74250Y-57000D02*
X95203D01*
X128250Y-55750D02*
X144000D01*
X150250Y-49500D01*
X35250Y-65000D02*
X106164D01*
X34750Y-60500D02*
Y-53000D01*
X9000Y-54921D02*
X20500D01*
X58250Y-62250D02*
X62750Y-57750D01*
X9000Y-47441D02*
X14309D01*
X19230Y-42520D01*
X19783D02*
X21553Y-40750D01*
X26250D01*
X29035Y-37965D01*
Y-36811D01*
Y-30000D01*
X30071Y-55565D02*
X30750Y-56244D01*
X25375Y-55565D02*
X30071D01*
X30750Y-61756D02*
X32006D01*
X35250Y-65000D01*
X34750Y-60500D02*
X36500Y-62250D01*
X20500Y-61642D02*
Y-54921D01*
Y-54896D01*
Y-61642D02*
X21654Y-62795D01*
X71500Y-55750D02*
X73500Y-57750D01*
X36500Y-62250D02*
X58250D01*
X29041Y-17250D02*
X31791Y-20000D01*
X11000Y-14075D02*
X15575D01*
X18750Y-17250D01*
X29041D01*
X65000Y-39250D02*
X65500Y-38750D01*
Y-34250D01*
X65000Y-33750D02*
X65500Y-34250D01*
X5250Y-62795D02*
Y-57900D01*
X13750Y-62795D02*
Y-58150D01*
X5250Y-62795D02*
X13750D01*
X73500Y-57750D02*
X74250Y-57000D01*
X34750Y-53000D02*
Y-41148D01*
D51*
X112000Y-25000D02*
X118000D01*
X109000Y-22000D02*
X112000Y-25000D01*
X118000D02*
X120000Y-23000D01*
X5250Y-42289D02*
Y-37750D01*
X120000Y-23000D02*
Y-22500D01*
X108667Y-17225D02*
X109000Y-17559D01*
Y-22000D02*
Y-17559D01*
X77000Y-43250D02*
X106626D01*
X108750Y-45374D01*
X76000Y-13500D02*
X76500Y-13000D01*
X52250Y-17000D02*
X52419Y-16831D01*
X72669D01*
X76500Y-13000D02*
X104441D01*
X108667Y-17225D01*
X72669Y-16831D02*
X76000Y-13500D01*
X76061Y-19746D02*
X78250D01*
X76000Y-19685D02*
X76061Y-19746D01*
D52*
X19230Y-42520D02*
X19783D01*
X161000Y-3500D02*
X165750Y-4250D01*
X166000Y-8500D01*
X161000Y-87000D02*
X171500Y-85888D01*
X171000Y-87000D02*
X171500Y-85888D01*
X166000Y-82000D02*
X171500Y-85888D01*
D56*
D03*
X165750Y-4250D02*
D03*
D57*
X114500Y-43500D02*
D03*
Y-48500D02*
D03*
D58*
X21654Y-62795D02*
D03*
D59*
X13750D02*
D03*
D60*
X65000Y-33750D02*
D03*
X54500D02*
D03*
D61*
X5750Y-61750D02*
D03*
D62*
X96500Y-79500D02*
D03*
D63*
X49903Y-57653D02*
D03*
X124748Y-51754D02*
D03*
X81500Y-51750D02*
D03*
X78000Y-40250D02*
D03*
X76002Y-42750D02*
D03*
X42500Y-27000D02*
D03*
X112750Y-28445D02*
D03*
X65750Y-29777D02*
D03*
X56750Y-21250D02*
D03*
X59449Y-19488D02*
D03*
X121250Y-71000D02*
D03*
X140000Y-31250D02*
D03*
X97500Y-51500D02*
D03*
X95500Y-49000D02*
D03*
X49000Y-41750D02*
D03*
X64000Y-48000D02*
D03*
X69000Y-48750D02*
D03*
X55500Y-26000D02*
D03*
X54000Y-23000D02*
D03*
X115750Y-22250D02*
D03*
X128500Y-25500D02*
D03*
X130650Y-22900D02*
D03*
X23750Y-49250D02*
D03*
X112250Y-7750D02*
D03*
X102150Y-7300D02*
D03*
X69250Y-6500D02*
D03*
X25295Y-44291D02*
D03*
X130650Y-15150D02*
D03*
X129950Y-6950D02*
D03*
X143280Y-10854D02*
D03*
X130000D02*
D03*
X55250Y-2000D02*
D03*
X28900Y-7000D02*
D03*
X51750Y-39500D02*
D03*
X24050Y-22700D02*
D03*
X25950Y-33300D02*
D03*
X42500Y-30000D02*
D03*
X25375Y-55565D02*
D03*
X17250Y-49250D02*
D03*
X43400Y-16850D02*
D03*
X41500Y-18250D02*
D03*
X108750Y-45374D02*
D03*
X136250Y-40500D02*
D03*
X135750Y-82750D02*
D03*
Y-86500D02*
D03*
X116250Y-83750D02*
D03*
X157000Y-87250D02*
D03*
X142250Y-59750D02*
D03*
X128350Y-76100D02*
D03*
X72047Y-19587D02*
D03*
X24900Y-2300D02*
D03*
X118650Y-76100D02*
D03*
X128250Y-72700D02*
D03*
X52250Y-51512D02*
D03*
X49750Y-2000D02*
D03*
X40300Y-5100D02*
D03*
X162500Y-17150D02*
D03*
X139342Y-9250D02*
D03*
Y-23223D02*
D03*
X5250Y-37750D02*
D03*
X34750Y-41148D02*
D03*
X29035Y-30000D02*
D03*
X11000Y-14075D02*
D03*
X32250Y-14000D02*
D03*
X31791Y-20000D02*
D03*
X157646Y-28750D02*
D03*
X165646D02*
D03*
Y-16750D02*
D03*
X148000Y-5000D02*
D03*
Y-10750D02*
D03*
X138750Y-16500D02*
D03*
X143750D02*
D03*
Y-21500D02*
D03*
X112250Y-3250D02*
D03*
X118000Y-8500D02*
D03*
Y-13500D02*
D03*
X52500Y-25750D02*
D03*
X52250Y-37000D02*
D03*
X42500Y-33250D02*
D03*
X14250Y-43500D02*
D03*
X28750Y-49500D02*
D03*
X32000D02*
D03*
X25500Y-58750D02*
D03*
X138750Y-72000D02*
D03*
X138250Y-76000D02*
D03*
X127750Y-66250D02*
D03*
X133750Y-66000D02*
D03*
X138056Y-48500D02*
D03*
X118700Y-46000D02*
D03*
X72500Y-37000D02*
D03*
X118350Y-73400D02*
D03*
X140250Y-40500D02*
D03*
X123750Y-3250D02*
D03*
X121250D02*
D03*
X103500D02*
D03*
X96750D02*
D03*
X82579Y-4921D02*
D03*
X126700Y-18900D02*
D03*
Y-22900D02*
D03*
X138800Y-52000D02*
D03*
X129250Y-59500D02*
D03*
X134500D02*
D03*
X131750Y-48500D02*
D03*
X52650Y-59150D02*
D03*
X3250Y-51000D02*
D03*
X7250D02*
D03*
X32750Y-16750D02*
D03*
X162750Y-9250D02*
D03*
X167750D02*
D03*
X159500Y-15250D02*
D03*
Y-19250D02*
D03*
X121450Y-66200D02*
D03*
X126250Y-86000D02*
D03*
X139000Y-82750D02*
D03*
X142750Y-83250D02*
D03*
X111000Y-87250D02*
D03*
X126250Y-82800D02*
D03*
X148750Y-83950D02*
D03*
Y-81200D02*
D03*
X155050D02*
D03*
X52500Y-29250D02*
D03*
X42500Y-36500D02*
D03*
X62750Y-62000D02*
D03*
X153934Y-70057D02*
D03*
X154000Y-62250D02*
D03*
X154250Y-55750D02*
D03*
X174500Y-71250D02*
D03*
X127750Y-48500D02*
D03*
X121750D02*
D03*
X132500Y-5500D02*
D03*
X52750Y-42750D02*
D03*
X77000Y-31250D02*
D03*
X61250Y-27000D02*
D03*
X20750Y-22700D02*
D03*
X26250Y-8300D02*
D03*
X130650Y-18900D02*
D03*
X159500Y-11550D02*
D03*
X131750Y-52500D02*
D03*
X127750D02*
D03*
X37550Y-59400D02*
D03*
X37500Y-52500D02*
D03*
X26741Y-61485D02*
D03*
X26750Y-64500D02*
D03*
X55750Y-59500D02*
D03*
X26250Y-14000D02*
D03*
X20500D02*
D03*
X11000Y-58000D02*
D03*
X147500Y-32500D02*
D03*
Y-37500D02*
D03*
Y-42500D02*
D03*
X172500D02*
D03*
Y-37500D02*
D03*
X152500Y-32500D02*
D03*
X157500D02*
D03*
X162500D02*
D03*
X167500D02*
D03*
X172500D02*
D03*
Y-47500D02*
D03*
X167500D02*
D03*
X162500D02*
D03*
X157500D02*
D03*
X66500Y-6500D02*
D03*
X66450Y-2000D02*
D03*
X69500D02*
D03*
X98000Y-6500D02*
D03*
X129500Y-36200D02*
D03*
X43799Y-52362D02*
D03*
X13750Y-58000D02*
D03*
X11000Y-24311D02*
D03*
X5315Y-15846D02*
D03*
Y-22539D02*
D03*
X73000Y-42500D02*
D03*
X122750Y-54000D02*
D03*
X114000Y-65000D02*
D03*
X118000D02*
D03*
X104500Y-49250D02*
D03*
X45965Y-54528D02*
D03*
X41634D02*
D03*
X45965Y-50197D02*
D03*
X41634D02*
D03*
X63189Y-19587D02*
D03*
X67126Y-19783D02*
D03*
D64*
X52250Y-17000D02*
D03*
X120000Y-22500D02*
D03*
X9000Y-47441D02*
D03*
X108667Y-17225D02*
D03*
X71500Y-55750D02*
D03*
X9000Y-54921D02*
D03*
X85925Y-40059D02*
D03*
Y-35728D02*
D03*
Y-31398D02*
D03*
Y-27067D02*
D03*
Y-22736D02*
D03*
X90256Y-40059D02*
D03*
Y-35728D02*
D03*
Y-31398D02*
D03*
Y-27067D02*
D03*
Y-22736D02*
D03*
X94587Y-40059D02*
D03*
Y-35728D02*
D03*
Y-31398D02*
D03*
Y-27067D02*
D03*
Y-22736D02*
D03*
X98917Y-40059D02*
D03*
Y-35728D02*
D03*
Y-31398D02*
D03*
Y-27067D02*
D03*
Y-22736D02*
D03*
X103248Y-40059D02*
D03*
Y-35728D02*
D03*
Y-31398D02*
D03*
Y-27067D02*
D03*
Y-22736D02*
D03*
X76500Y-13000D02*
D03*
X59747Y-11516D02*
D03*
X11122Y-20768D02*
D03*
D65*
X150250Y-49500D02*
D03*
D66*
X78250Y-24037D02*
D03*
Y-19746D02*
D03*
D67*
X56339Y-39250D02*
D03*
X65000D02*
D03*
D68*
X33022Y-6496D02*
D03*
Y-30118D02*
D03*
X47589D02*
D03*
Y-6496D02*
D03*
X21567Y-30500D02*
D03*
Y-6878D02*
D03*
X7000D02*
D03*
Y-30500D02*
D03*
X58858Y-6496D02*
D03*
Y-30118D02*
D03*
X73425D02*
D03*
Y-6496D02*
D03*
D69*
X5020Y-42520D02*
D03*
X19783D02*
D03*
M02*
