G04 Layer_Color=65535*
%FSLAX25Y25*%
%MOIN*%
G70*
G01*
G75*
%ADD48C,0.00984*%
%ADD49C,0.00787*%
%ADD70C,0.00394*%
%ADD71C,0.00606*%
%ADD72C,0.01000*%
%ADD73C,0.00591*%
D48*
X155268Y-9967D02*
G03*
X155268Y-9967I-492J0D01*
G01*
X34055Y-59842D02*
G03*
X34055Y-59842I-492J0D01*
G01*
X111406Y-12179D02*
G03*
X111406Y-12179I-492J0D01*
G01*
X36242Y-492D02*
G03*
X36242Y-492I-492J0D01*
G01*
X21358Y-38189D02*
G03*
X21358Y-38189I-492J0D01*
G01*
X109055Y-14272D02*
G03*
X109055Y-14272I-492J0D01*
G01*
X73195Y-65921D02*
G03*
X73195Y-65921I-492J0D01*
G01*
X4626Y-44094D02*
G03*
X4626Y-44094I-492J0D01*
G01*
X146480Y-50270D02*
G03*
X146480Y-50270I-492J0D01*
G01*
D49*
X16043Y-38878D02*
X17618D01*
X16043Y-36122D02*
X17618D01*
X160091Y-23352D02*
Y-11148D01*
X158909Y-23352D02*
Y-11148D01*
Y-23352D02*
X160091D01*
X158909Y-11148D02*
X160091D01*
X118953Y-65325D02*
Y-62175D01*
X113047Y-65325D02*
Y-62175D01*
X36024Y-60138D02*
X37894D01*
X36024D02*
Y-57284D01*
X49705Y-60138D02*
X51575D01*
Y-57284D01*
Y-47441D02*
Y-44587D01*
X49705D02*
X51575D01*
X36024D02*
X37894D01*
X36024Y-47441D02*
Y-44587D01*
X112094Y-8537D02*
Y-4994D01*
X115244D01*
X123906Y-8537D02*
Y-4994D01*
X120756D02*
X123906D01*
X21949Y-34449D02*
Y-32480D01*
X34154Y-34449D02*
Y-32480D01*
X21949Y-34449D02*
X34154D01*
X21949Y-32480D02*
X34154D01*
X107480Y-16831D02*
X109153D01*
Y-18504D02*
Y-16831D01*
X80020D02*
X81693D01*
X80020Y-18504D02*
Y-16831D01*
Y-45965D02*
X81693D01*
X80020D02*
Y-44291D01*
X107480Y-45965D02*
X109153D01*
Y-44291D01*
X67978Y-64543D02*
X69159D01*
X67978D02*
Y-63362D01*
Y-57457D02*
X69159D01*
X67978Y-58638D02*
Y-57457D01*
X27297Y-51234D02*
Y-48085D01*
X33203Y-51234D02*
Y-48085D01*
X17547Y-51234D02*
Y-48085D01*
X23453Y-51234D02*
Y-48085D01*
X40990Y-21203D02*
X44140D01*
X40990Y-15297D02*
X44140D01*
X123925Y-83047D02*
X127075D01*
X123925Y-88953D02*
X127075D01*
X8268Y-45276D02*
X11024D01*
Y-48425D02*
Y-45276D01*
X8268Y-57087D02*
X11024D01*
Y-53937D01*
X153453Y-73075D02*
Y-69925D01*
X147547Y-73075D02*
Y-69925D01*
X133095Y-56766D02*
X136343D01*
X133095D02*
Y-54797D01*
X141657Y-56766D02*
X144905D01*
Y-54797D01*
D70*
X129894Y-14411D02*
X149185D01*
X129894Y-17955D02*
X149185D01*
D71*
X129500Y-25829D02*
Y-6144D01*
X149185Y-25829D02*
Y-6144D01*
D72*
X145248Y-21498D02*
X147610D01*
X146035Y-19923D02*
X147610Y-21498D01*
X146035Y-22679D02*
Y-19923D01*
Y-22679D02*
X147216Y-21498D01*
X141705D02*
X147216D01*
X156496Y-46163D02*
Y-48787D01*
X157808Y-50098D01*
X159120Y-48787D01*
Y-46163D01*
X160432Y-50098D02*
X161744D01*
X161088D01*
Y-47475D01*
X160432D01*
X163712Y-46163D02*
Y-50098D01*
X165679D01*
X166335Y-49442D01*
Y-48787D01*
Y-48131D01*
X165679Y-47475D01*
X163712D01*
X167647D02*
Y-50098D01*
Y-48787D01*
X168303Y-48131D01*
X168959Y-47475D01*
X169615D01*
X172239Y-50098D02*
X173551D01*
X174207Y-49442D01*
Y-48131D01*
X173551Y-47475D01*
X172239D01*
X171583Y-48131D01*
Y-49442D01*
X172239Y-50098D01*
D73*
X126338Y-60161D02*
X123583D01*
Y-58784D01*
X124042Y-58325D01*
X124960D01*
X125420Y-58784D01*
Y-60161D01*
Y-59243D02*
X126338Y-58325D01*
X124042Y-57406D02*
X123583Y-56947D01*
Y-56029D01*
X124042Y-55570D01*
X124501D01*
X124960Y-56029D01*
Y-56488D01*
Y-56029D01*
X125420Y-55570D01*
X125879D01*
X126338Y-56029D01*
Y-56947D01*
X125879Y-57406D01*
X124042Y-54651D02*
X123583Y-54192D01*
Y-53274D01*
X124042Y-52815D01*
X125879D01*
X126338Y-53274D01*
Y-54192D01*
X125879Y-54651D01*
X124042D01*
X90321Y-85795D02*
X89862Y-85335D01*
X88943D01*
X88484Y-85795D01*
Y-86254D01*
X88943Y-86713D01*
X89862D01*
X90321Y-87172D01*
Y-87631D01*
X89862Y-88090D01*
X88943D01*
X88484Y-87631D01*
X92617Y-88090D02*
X91698D01*
X91239Y-87631D01*
Y-86713D01*
X91698Y-86254D01*
X92617D01*
X93076Y-86713D01*
Y-87172D01*
X91239D01*
X93994Y-88090D02*
Y-86254D01*
X95372D01*
X95831Y-86713D01*
Y-88090D01*
X96749D02*
X98127D01*
X98586Y-87631D01*
X98127Y-87172D01*
X97208D01*
X96749Y-86713D01*
X97208Y-86254D01*
X98586D01*
X99963Y-88090D02*
X100882D01*
X101341Y-87631D01*
Y-86713D01*
X100882Y-86254D01*
X99963D01*
X99504Y-86713D01*
Y-87631D01*
X99963Y-88090D01*
X102259Y-86254D02*
Y-88090D01*
Y-87172D01*
X102718Y-86713D01*
X103178Y-86254D01*
X103637D01*
X137663Y-78872D02*
Y-77035D01*
X137204Y-76576D01*
X136286D01*
X135827Y-77035D01*
Y-78872D01*
X136286Y-79331D01*
X137204D01*
X136745Y-78412D02*
X137663Y-79331D01*
X137204D02*
X137663Y-78872D01*
X138582Y-76576D02*
X140419D01*
Y-77035D01*
X138582Y-78872D01*
Y-79331D01*
X141186Y-60875D02*
Y-58120D01*
X142563D01*
X143023Y-58579D01*
Y-59498D01*
X142563Y-59957D01*
X141186D01*
X142104D02*
X143023Y-60875D01*
X143941Y-58579D02*
X144400Y-58120D01*
X145318D01*
X145777Y-58579D01*
Y-59039D01*
X145318Y-59498D01*
X144859D01*
X145318D01*
X145777Y-59957D01*
Y-60416D01*
X145318Y-60875D01*
X144400D01*
X143941Y-60416D01*
X136909Y-44194D02*
Y-46949D01*
X138287D01*
X138746Y-46490D01*
Y-44653D01*
X138287Y-44194D01*
X136909D01*
X141042Y-46949D02*
Y-44194D01*
X139664Y-45571D01*
X141501D01*
X138976Y-84350D02*
Y-81595D01*
X140354D01*
X140813Y-82055D01*
Y-82973D01*
X140354Y-83432D01*
X138976D01*
X139895D02*
X140813Y-84350D01*
X143568D02*
X141731D01*
X143568Y-82514D01*
Y-82055D01*
X143109Y-81595D01*
X142191D01*
X141731Y-82055D01*
X145864Y-84350D02*
Y-81595D01*
X144486Y-82973D01*
X146323D01*
X157373Y-85026D02*
Y-83189D01*
X156914Y-82730D01*
X155996D01*
X155536Y-83189D01*
Y-85026D01*
X155996Y-85485D01*
X156914D01*
X156455Y-84567D02*
X157373Y-85485D01*
X156914D02*
X157373Y-85026D01*
X160128Y-82730D02*
X159210Y-83189D01*
X158291Y-84108D01*
Y-85026D01*
X158751Y-85485D01*
X159669D01*
X160128Y-85026D01*
Y-84567D01*
X159669Y-84108D01*
X158291D01*
X148889Y-61045D02*
X148430Y-60586D01*
X147511D01*
X147052Y-61045D01*
Y-62882D01*
X147511Y-63341D01*
X148430D01*
X148889Y-62882D01*
X151644Y-63341D02*
X149807D01*
X151644Y-61504D01*
Y-61045D01*
X151185Y-60586D01*
X150266D01*
X149807Y-61045D01*
X152562D02*
X153021Y-60586D01*
X153940D01*
X154399Y-61045D01*
Y-61504D01*
X153940Y-61963D01*
X153481D01*
X153940D01*
X154399Y-62423D01*
Y-62882D01*
X153940Y-63341D01*
X153021D01*
X152562Y-62882D01*
X131550Y-60300D02*
X128795D01*
Y-58922D01*
X129254Y-58463D01*
X130173D01*
X130632Y-58922D01*
Y-60300D01*
Y-59382D02*
X131550Y-58463D01*
Y-55708D02*
Y-57545D01*
X129713Y-55708D01*
X129254D01*
X128795Y-56168D01*
Y-57086D01*
X129254Y-57545D01*
X131550Y-52953D02*
Y-54790D01*
X129713Y-52953D01*
X129254D01*
X128795Y-53412D01*
Y-54331D01*
X129254Y-54790D01*
X125558Y-22868D02*
X125099Y-23327D01*
Y-24246D01*
X125558Y-24705D01*
X127395D01*
X127854Y-24246D01*
Y-23327D01*
X127395Y-22868D01*
X127854Y-20113D02*
Y-21950D01*
X126018Y-20113D01*
X125558D01*
X125099Y-20572D01*
Y-21490D01*
X125558Y-21950D01*
X127854Y-17358D02*
Y-19195D01*
X126018Y-17358D01*
X125558D01*
X125099Y-17817D01*
Y-18735D01*
X125558Y-19195D01*
X74181Y-30348D02*
X73721Y-30808D01*
Y-31726D01*
X74181Y-32185D01*
X76017D01*
X76476Y-31726D01*
Y-30808D01*
X76017Y-30348D01*
X76476Y-29430D02*
Y-28512D01*
Y-28971D01*
X73721D01*
X74181Y-29430D01*
X76017Y-27134D02*
X76476Y-26675D01*
Y-25757D01*
X76017Y-25297D01*
X74181D01*
X73721Y-25757D01*
Y-26675D01*
X74181Y-27134D01*
X74640D01*
X75099Y-26675D01*
Y-25297D01*
X1673Y-49410D02*
Y-52165D01*
X3051D01*
X3510Y-51706D01*
Y-49869D01*
X3051Y-49410D01*
X1673D01*
X4428Y-52165D02*
X5347D01*
X4887D01*
Y-49410D01*
X4428Y-49869D01*
X98490Y-12468D02*
X98031Y-12009D01*
X97113D01*
X96653Y-12468D01*
Y-14305D01*
X97113Y-14764D01*
X98031D01*
X98490Y-14305D01*
X99409Y-14764D02*
X100327D01*
X99868D01*
Y-12009D01*
X99409Y-12468D01*
X101704D02*
X102164Y-12009D01*
X103082D01*
X103541Y-12468D01*
Y-12927D01*
X103082Y-13386D01*
X103541Y-13845D01*
Y-14305D01*
X103082Y-14764D01*
X102164D01*
X101704Y-14305D01*
Y-13845D01*
X102164Y-13386D01*
X101704Y-12927D01*
Y-12468D01*
X102164Y-13386D02*
X103082D01*
X96949Y-3446D02*
X98786D01*
Y-3905D01*
X96949Y-5742D01*
Y-6201D01*
X98786D01*
X101541D02*
X99704D01*
X101541Y-4364D01*
Y-3905D01*
X101081Y-3446D01*
X100163D01*
X99704Y-3905D01*
X13451Y-1773D02*
X12532D01*
X12992D01*
Y-4068D01*
X12532Y-4528D01*
X12073D01*
X11614Y-4068D01*
X14369Y-4528D02*
X15288D01*
X14828D01*
Y-1773D01*
X14369Y-2232D01*
X53445Y-42421D02*
X50690D01*
Y-41044D01*
X51149Y-40585D01*
X52067D01*
X52526Y-41044D01*
Y-42421D01*
Y-41503D02*
X53445Y-40585D01*
Y-37830D02*
Y-39666D01*
X51608Y-37830D01*
X51149D01*
X50690Y-38289D01*
Y-39207D01*
X51149Y-39666D01*
Y-36911D02*
X50690Y-36452D01*
Y-35534D01*
X51149Y-35074D01*
X52986D01*
X53445Y-35534D01*
Y-36452D01*
X52986Y-36911D01*
X51149D01*
X58876Y-27822D02*
Y-25986D01*
X58417Y-25526D01*
X57499D01*
X57039Y-25986D01*
Y-27822D01*
X57499Y-28282D01*
X58417D01*
X57958Y-27363D02*
X58876Y-28282D01*
X58417D02*
X58876Y-27822D01*
X61172Y-28282D02*
Y-25526D01*
X59794Y-26904D01*
X61631D01*
X106250Y-63495D02*
Y-66250D01*
X107627D01*
X108087Y-65791D01*
Y-63954D01*
X107627Y-63495D01*
X106250D01*
X110842Y-66250D02*
X109005D01*
X110842Y-64413D01*
Y-63954D01*
X110382Y-63495D01*
X109464D01*
X109005Y-63954D01*
X57087Y-65650D02*
X54332D01*
Y-64272D01*
X54791Y-63813D01*
X55709D01*
X56168Y-64272D01*
Y-65650D01*
Y-64731D02*
X57087Y-63813D01*
Y-62895D02*
Y-61976D01*
Y-62435D01*
X54332D01*
X54791Y-62895D01*
Y-60599D02*
X54332Y-60140D01*
Y-59221D01*
X54791Y-58762D01*
X55250D01*
X55709Y-59221D01*
X56168Y-58762D01*
X56627D01*
X57087Y-59221D01*
Y-60140D01*
X56627Y-60599D01*
X56168D01*
X55709Y-60140D01*
X55250Y-60599D01*
X54791D01*
X55709Y-60140D02*
Y-59221D01*
X61910Y-65551D02*
X59154D01*
Y-64174D01*
X59614Y-63714D01*
X60532D01*
X60991Y-64174D01*
Y-65551D01*
Y-64633D02*
X61910Y-63714D01*
Y-62796D02*
Y-61878D01*
Y-62337D01*
X59154D01*
X59614Y-62796D01*
X59154Y-58664D02*
X59614Y-59582D01*
X60532Y-60500D01*
X61450D01*
X61910Y-60041D01*
Y-59123D01*
X61450Y-58664D01*
X60991D01*
X60532Y-59123D01*
Y-60500D01*
X127033Y-79102D02*
X126574Y-78643D01*
X125656D01*
X125197Y-79102D01*
Y-80939D01*
X125656Y-81398D01*
X126574D01*
X127033Y-80939D01*
X127952Y-81398D02*
X128870D01*
X128411D01*
Y-78643D01*
X127952Y-79102D01*
X130248D02*
X130707Y-78643D01*
X131625D01*
X132084Y-79102D01*
Y-79561D01*
X131625Y-80020D01*
X131166D01*
X131625D01*
X132084Y-80479D01*
Y-80939D01*
X131625Y-81398D01*
X130707D01*
X130248Y-80939D01*
X68182Y-48023D02*
X65427D01*
Y-46646D01*
X65886Y-46186D01*
X66804D01*
X67263Y-46646D01*
Y-48023D01*
Y-47105D02*
X68182Y-46186D01*
X65427Y-43431D02*
Y-45268D01*
X66804D01*
X66345Y-44350D01*
Y-43891D01*
X66804Y-43431D01*
X67722D01*
X68182Y-43891D01*
Y-44809D01*
X67722Y-45268D01*
X83760Y-59842D02*
X81005D01*
Y-58465D01*
X81464Y-58006D01*
X82382D01*
X82841Y-58465D01*
Y-59842D01*
Y-58924D02*
X83760Y-58006D01*
Y-55251D02*
Y-57087D01*
X81923Y-55251D01*
X81464D01*
X81005Y-55710D01*
Y-56628D01*
X81464Y-57087D01*
X54337Y-18204D02*
X53878Y-17745D01*
X52959D01*
X52500Y-18204D01*
Y-20041D01*
X52959Y-20500D01*
X53878D01*
X54337Y-20041D01*
X55255Y-20500D02*
X56173D01*
X55714D01*
Y-17745D01*
X55255Y-18204D01*
X59387Y-20500D02*
X57551D01*
X59387Y-18663D01*
Y-18204D01*
X58928Y-17745D01*
X58010D01*
X57551Y-18204D01*
X19454Y-50323D02*
X18995Y-50782D01*
Y-51700D01*
X19454Y-52159D01*
X21291D01*
X21750Y-51700D01*
Y-50782D01*
X21291Y-50323D01*
Y-49404D02*
X21750Y-48945D01*
Y-48027D01*
X21291Y-47568D01*
X19454D01*
X18995Y-48027D01*
Y-48945D01*
X19454Y-49404D01*
X19913D01*
X20372Y-48945D01*
Y-47568D01*
X28905Y-63124D02*
X28446Y-63583D01*
Y-64501D01*
X28905Y-64961D01*
X30742D01*
X31201Y-64501D01*
Y-63583D01*
X30742Y-63124D01*
X31201Y-62206D02*
Y-61287D01*
Y-61746D01*
X28446D01*
X28905Y-62206D01*
Y-59910D02*
X28446Y-59451D01*
Y-58532D01*
X28905Y-58073D01*
X30742D01*
X31201Y-58532D01*
Y-59451D01*
X30742Y-59910D01*
X28905D01*
X65087Y-65291D02*
Y-63454D01*
X64627Y-62995D01*
X63709D01*
X63250Y-63454D01*
Y-65291D01*
X63709Y-65750D01*
X64627D01*
X64168Y-64832D02*
X65087Y-65750D01*
X64627D02*
X65087Y-65291D01*
X66005Y-65750D02*
X66923D01*
X66464D01*
Y-62995D01*
X66005Y-63454D01*
X73819Y-19981D02*
Y-22277D01*
X74278Y-22736D01*
X75196D01*
X75656Y-22277D01*
Y-19981D01*
X76574Y-22736D02*
X77492D01*
X77033D01*
Y-19981D01*
X76574Y-20440D01*
X81299Y-5117D02*
X79462D01*
Y-4658D01*
X81299Y-2821D01*
Y-2362D01*
X79462D01*
X78544D02*
X77626D01*
X78085D01*
Y-5117D01*
X78544Y-4658D01*
X26280Y-30000D02*
X28576D01*
X29035Y-29541D01*
Y-28622D01*
X28576Y-28163D01*
X26280D01*
X29035Y-25868D02*
X26280D01*
X27658Y-27245D01*
Y-25408D01*
X38802Y-12008D02*
X41098D01*
X41557Y-11549D01*
Y-10630D01*
X41098Y-10171D01*
X38802D01*
X39261Y-9253D02*
X38802Y-8794D01*
Y-7875D01*
X39261Y-7416D01*
X39720D01*
X40180Y-7875D01*
Y-8335D01*
Y-7875D01*
X40639Y-7416D01*
X41098D01*
X41557Y-7875D01*
Y-8794D01*
X41098Y-9253D01*
X99250Y-66250D02*
Y-63495D01*
X100628D01*
X101087Y-63954D01*
Y-64872D01*
X100628Y-65332D01*
X99250D01*
X100168D02*
X101087Y-66250D01*
X102005D02*
X102923D01*
X102464D01*
Y-63495D01*
X102005Y-63954D01*
X87500Y-66500D02*
X85552Y-64552D01*
X86526Y-63578D01*
X87175D01*
X87825Y-64227D01*
Y-64877D01*
X86851Y-65851D01*
X87500Y-65201D02*
X88799D01*
X90422Y-63578D02*
X88474Y-61630D01*
Y-63578D01*
X89773Y-62279D01*
X117638Y-23663D02*
Y-20908D01*
X119015D01*
X119474Y-21368D01*
Y-22286D01*
X119015Y-22745D01*
X117638D01*
X118556D02*
X119474Y-23663D01*
X120393Y-21368D02*
X120852Y-20908D01*
X121770D01*
X122230Y-21368D01*
Y-21827D01*
X121770Y-22286D01*
X122230Y-22745D01*
Y-23204D01*
X121770Y-23663D01*
X120852D01*
X120393Y-23204D01*
Y-22745D01*
X120852Y-22286D01*
X120393Y-21827D01*
Y-21368D01*
X120852Y-22286D02*
X121770D01*
X30279Y-8563D02*
X27525D01*
Y-7186D01*
X27984Y-6726D01*
X28902D01*
X29361Y-7186D01*
Y-8563D01*
Y-7645D02*
X30279Y-6726D01*
Y-5808D02*
Y-4890D01*
Y-5349D01*
X27525D01*
X27984Y-5808D01*
Y-3512D02*
X27525Y-3053D01*
Y-2135D01*
X27984Y-1675D01*
X29820D01*
X30279Y-2135D01*
Y-3053D01*
X29820Y-3512D01*
X27984D01*
X70500Y-56750D02*
Y-53995D01*
X71877D01*
X72337Y-54454D01*
Y-55373D01*
X71877Y-55832D01*
X70500D01*
X71418D02*
X72337Y-56750D01*
X73255D02*
X74173D01*
X73714D01*
Y-53995D01*
X73255Y-54454D01*
X75551Y-56750D02*
X76469D01*
X76010D01*
Y-53995D01*
X75551Y-54454D01*
X112433Y-54209D02*
X113351D01*
X112892D01*
Y-52372D01*
X112433D01*
X115188Y-54209D02*
X116106D01*
X116566Y-53750D01*
Y-52831D01*
X116106Y-52372D01*
X115188D01*
X114729Y-52831D01*
Y-53750D01*
X115188Y-54209D01*
X114825Y-37653D02*
X113447D01*
X112988Y-38112D01*
Y-39031D01*
X113447Y-39490D01*
X114825D01*
X115743D02*
X116661D01*
X116202D01*
Y-36735D01*
X115743D01*
X118039Y-39490D02*
Y-36735D01*
Y-38571D02*
X119416Y-37653D01*
X118039Y-38571D02*
X119416Y-39490D01*
X111966Y-28901D02*
X111507Y-29360D01*
Y-30279D01*
X111966Y-30738D01*
X113803D01*
X114262Y-30279D01*
Y-29360D01*
X113803Y-28901D01*
X114262Y-27983D02*
Y-27064D01*
Y-27524D01*
X111507D01*
X111966Y-27983D01*
X111507Y-23850D02*
X111966Y-24769D01*
X112885Y-25687D01*
X113803D01*
X114262Y-25228D01*
Y-24309D01*
X113803Y-23850D01*
X113344D01*
X112885Y-24309D01*
Y-25687D01*
X104839Y-51982D02*
X104379Y-51522D01*
X103461D01*
X103002Y-51982D01*
Y-53818D01*
X103461Y-54278D01*
X104379D01*
X104839Y-53818D01*
X105757Y-54278D02*
X106675D01*
X106216D01*
Y-51522D01*
X105757Y-51982D01*
X109889Y-51522D02*
X108053D01*
Y-52900D01*
X108971Y-52441D01*
X109430D01*
X109889Y-52900D01*
Y-53818D01*
X109430Y-54278D01*
X108512D01*
X108053Y-53818D01*
X93337Y-64204D02*
X92878Y-63745D01*
X91959D01*
X91500Y-64204D01*
Y-66041D01*
X91959Y-66500D01*
X92878D01*
X93337Y-66041D01*
X94255Y-66500D02*
X95173D01*
X94714D01*
Y-63745D01*
X94255Y-64204D01*
X130206Y-1613D02*
X129747Y-1154D01*
X128829D01*
X128370Y-1613D01*
Y-3450D01*
X128829Y-3909D01*
X129747D01*
X130206Y-3450D01*
X132502Y-3909D02*
Y-1154D01*
X131125Y-2531D01*
X132961D01*
X117337Y-9041D02*
Y-7204D01*
X116877Y-6745D01*
X115959D01*
X115500Y-7204D01*
Y-9041D01*
X115959Y-9500D01*
X116877D01*
X116418Y-8582D02*
X117337Y-9500D01*
X116877D02*
X117337Y-9041D01*
X118255Y-7204D02*
X118714Y-6745D01*
X119632D01*
X120092Y-7204D01*
Y-7663D01*
X119632Y-8123D01*
X119173D01*
X119632D01*
X120092Y-8582D01*
Y-9041D01*
X119632Y-9500D01*
X118714D01*
X118255Y-9041D01*
X13378Y-34695D02*
Y-31940D01*
X14755D01*
X15215Y-32399D01*
Y-33318D01*
X14755Y-33777D01*
X13378D01*
X14296D02*
X15215Y-34695D01*
X16133D02*
X17051D01*
X16592D01*
Y-31940D01*
X16133Y-32399D01*
X18429D02*
X18888Y-31940D01*
X19806D01*
X20266Y-32399D01*
Y-32859D01*
X19806Y-33318D01*
X19347D01*
X19806D01*
X20266Y-33777D01*
Y-34236D01*
X19806Y-34695D01*
X18888D01*
X18429Y-34236D01*
X4724Y-39173D02*
Y-36418D01*
X6102D01*
X6561Y-36877D01*
Y-37796D01*
X6102Y-38255D01*
X4724D01*
X5643D02*
X6561Y-39173D01*
X7479D02*
X8398D01*
X7939D01*
Y-36418D01*
X7479Y-36877D01*
X11153Y-39173D02*
Y-36418D01*
X9775Y-37796D01*
X11612D01*
X35039Y-40454D02*
Y-42750D01*
X35498Y-43209D01*
X36417D01*
X36876Y-42750D01*
Y-40454D01*
X39631D02*
X37794D01*
Y-41831D01*
X38713Y-41372D01*
X39172D01*
X39631Y-41831D01*
Y-42750D01*
X39172Y-43209D01*
X38254D01*
X37794Y-42750D01*
X21223Y-22431D02*
X20763Y-21971D01*
X19845D01*
X19386Y-22431D01*
Y-24267D01*
X19845Y-24726D01*
X20763D01*
X21223Y-24267D01*
X22141Y-24726D02*
X23059D01*
X22600D01*
Y-21971D01*
X22141Y-22431D01*
X24437Y-24726D02*
X25355D01*
X24896D01*
Y-21971D01*
X24437Y-22431D01*
X24419Y-8555D02*
X21664D01*
Y-7178D01*
X22123Y-6718D01*
X23041D01*
X23501Y-7178D01*
Y-8555D01*
Y-7637D02*
X24419Y-6718D01*
X23960Y-5800D02*
X24419Y-5341D01*
Y-4423D01*
X23960Y-3963D01*
X22123D01*
X21664Y-4423D01*
Y-5341D01*
X22123Y-5800D01*
X22582D01*
X23041Y-5341D01*
Y-3963D01*
X107480Y-78741D02*
X110104D01*
X108792D01*
Y-82677D01*
X111416D02*
X112728D01*
X112072D01*
Y-78741D01*
X111416Y-79397D01*
X121555Y-32382D02*
Y-29627D01*
X122933D01*
X123392Y-30086D01*
Y-31004D01*
X122933Y-31464D01*
X121555D01*
X122474D02*
X123392Y-32382D01*
X124310Y-29627D02*
X126147D01*
Y-30086D01*
X124310Y-31923D01*
Y-32382D01*
X127165Y-45965D02*
Y-43210D01*
X128543D01*
X129002Y-43669D01*
Y-44587D01*
X128543Y-45046D01*
X127165D01*
X128084D02*
X129002Y-45965D01*
X131757Y-43210D02*
X130839Y-43669D01*
X129920Y-44587D01*
Y-45505D01*
X130379Y-45965D01*
X131298D01*
X131757Y-45505D01*
Y-45046D01*
X131298Y-44587D01*
X129920D01*
X118766Y-79561D02*
Y-77724D01*
X118307Y-77265D01*
X117388D01*
X116929Y-77724D01*
Y-79561D01*
X117388Y-80020D01*
X118307D01*
X117848Y-79101D02*
X118766Y-80020D01*
X118307D02*
X118766Y-79561D01*
X121521Y-80020D02*
X119684D01*
X121521Y-78183D01*
Y-77724D01*
X121062Y-77265D01*
X120143D01*
X119684Y-77724D01*
X135597Y-30086D02*
X135137Y-29627D01*
X134219D01*
X133760Y-30086D01*
Y-31923D01*
X134219Y-32382D01*
X135137D01*
X135597Y-31923D01*
X136515Y-30086D02*
X136974Y-29627D01*
X137892D01*
X138352Y-30086D01*
Y-30545D01*
X137892Y-31004D01*
X137433D01*
X137892D01*
X138352Y-31464D01*
Y-31923D01*
X137892Y-32382D01*
X136974D01*
X136515Y-31923D01*
X115125Y-64010D02*
X114666Y-64469D01*
Y-65387D01*
X115125Y-65847D01*
X116962D01*
X117421Y-65387D01*
Y-64469D01*
X116962Y-64010D01*
X117421Y-61255D02*
Y-63091D01*
X115585Y-61255D01*
X115125D01*
X114666Y-61714D01*
Y-62632D01*
X115125Y-63091D01*
X163270Y-28625D02*
X162811Y-28166D01*
X161892D01*
X161433Y-28625D01*
Y-30462D01*
X161892Y-30921D01*
X162811D01*
X163270Y-30462D01*
X166025Y-28166D02*
X164188D01*
Y-29544D01*
X165106Y-29085D01*
X165566D01*
X166025Y-29544D01*
Y-30462D01*
X165566Y-30921D01*
X164647D01*
X164188Y-30462D01*
X144579Y-3421D02*
Y-666D01*
X145957D01*
X146416Y-1125D01*
Y-2044D01*
X145957Y-2503D01*
X144579D01*
X145498D02*
X146416Y-3421D01*
X147334D02*
X148253D01*
X147793D01*
Y-666D01*
X147334Y-1125D01*
X151467Y-666D02*
X149630D01*
Y-2044D01*
X150549Y-1585D01*
X151008D01*
X151467Y-2044D01*
Y-2962D01*
X151008Y-3421D01*
X150089D01*
X149630Y-2962D01*
X161500Y-15995D02*
Y-18291D01*
X161959Y-18750D01*
X162878D01*
X163337Y-18291D01*
Y-15995D01*
X166092Y-18750D02*
X164255D01*
X166092Y-16913D01*
Y-16454D01*
X165632Y-15995D01*
X164714D01*
X164255Y-16454D01*
X87565Y-8925D02*
X87106Y-8465D01*
X86187D01*
X85728Y-8925D01*
Y-10761D01*
X86187Y-11220D01*
X87106D01*
X87565Y-10761D01*
X88483Y-11220D02*
X89402D01*
X88942D01*
Y-8465D01*
X88483Y-8925D01*
X92157Y-11220D02*
Y-8465D01*
X90779Y-9843D01*
X92616D01*
X40945Y-34056D02*
Y-36811D01*
X42782D01*
X43700D02*
X44618D01*
X44159D01*
Y-34056D01*
X43700Y-34515D01*
X92868Y-52780D02*
Y-50024D01*
X94245D01*
X94705Y-50484D01*
Y-51402D01*
X94245Y-51861D01*
X92868D01*
X93786D02*
X94705Y-52780D01*
X95623D02*
X96541D01*
X96082D01*
Y-50024D01*
X95623Y-50484D01*
X99756Y-52780D02*
X97919D01*
X99756Y-50943D01*
Y-50484D01*
X99296Y-50024D01*
X98378D01*
X97919Y-50484D01*
X69616Y-33291D02*
Y-31454D01*
X69157Y-30995D01*
X68239D01*
X67780Y-31454D01*
Y-33291D01*
X68239Y-33750D01*
X69157D01*
X68698Y-32832D02*
X69616Y-33750D01*
X69157D02*
X69616Y-33291D01*
X72371Y-30995D02*
X70535D01*
Y-32372D01*
X71453Y-31913D01*
X71912D01*
X72371Y-32372D01*
Y-33291D01*
X71912Y-33750D01*
X70994D01*
X70535Y-33291D01*
X147250Y-48250D02*
Y-45495D01*
X148627D01*
X149087Y-45954D01*
Y-46872D01*
X148627Y-47332D01*
X147250D01*
X148168D02*
X149087Y-48250D01*
X151842D02*
X150005D01*
X151842Y-46413D01*
Y-45954D01*
X151383Y-45495D01*
X150464D01*
X150005Y-45954D01*
X154597Y-45495D02*
X152760D01*
Y-46872D01*
X153678Y-46413D01*
X154138D01*
X154597Y-46872D01*
Y-47791D01*
X154138Y-48250D01*
X153219D01*
X152760Y-47791D01*
X153638Y-28568D02*
X153179Y-28109D01*
X152260D01*
X151801Y-28568D01*
Y-30405D01*
X152260Y-30864D01*
X153179D01*
X153638Y-30405D01*
X156393Y-30864D02*
X154556D01*
X156393Y-29027D01*
Y-28568D01*
X155934Y-28109D01*
X155015D01*
X154556Y-28568D01*
X159148Y-28109D02*
X157311D01*
Y-29487D01*
X158229Y-29027D01*
X158689D01*
X159148Y-29487D01*
Y-30405D01*
X158689Y-30864D01*
X157770D01*
X157311Y-30405D01*
X55315Y-12500D02*
Y-9745D01*
X56692D01*
X57152Y-10204D01*
Y-11123D01*
X56692Y-11582D01*
X55315D01*
X56233D02*
X57152Y-12500D01*
X58070Y-10204D02*
X58529Y-9745D01*
X59447D01*
X59907Y-10204D01*
Y-10663D01*
X59447Y-11123D01*
X58988D01*
X59447D01*
X59907Y-11582D01*
Y-12041D01*
X59447Y-12500D01*
X58529D01*
X58070Y-12041D01*
X60825Y-12500D02*
X61743D01*
X61284D01*
Y-9745D01*
X60825Y-10204D01*
M02*
