G04 Layer_Color=8388736*
%FSLAX25Y25*%
%MOIN*%
G70*
G01*
G75*
%ADD10C,0.01575*%
%ADD48C,0.01181*%
%ADD49C,0.00984*%
%ADD50C,0.01000*%
G04:AMPARAMS|DCode=56|XSize=43.31mil|YSize=39.37mil|CornerRadius=11.81mil|HoleSize=0mil|Usage=FLASHONLY|Rotation=0.000|XOffset=0mil|YOffset=0mil|HoleType=Round|Shape=RoundedRectangle|*
%AMROUNDEDRECTD56*
21,1,0.04331,0.01575,0,0,0.0*
21,1,0.01969,0.03937,0,0,0.0*
1,1,0.02362,0.00984,-0.00787*
1,1,0.02362,-0.00984,-0.00787*
1,1,0.02362,-0.00984,0.00787*
1,1,0.02362,0.00984,0.00787*
%
%ADD56ROUNDEDRECTD56*%
G04:AMPARAMS|DCode=57|XSize=43.31mil|YSize=39.37mil|CornerRadius=11.81mil|HoleSize=0mil|Usage=FLASHONLY|Rotation=90.000|XOffset=0mil|YOffset=0mil|HoleType=Round|Shape=RoundedRectangle|*
%AMROUNDEDRECTD57*
21,1,0.04331,0.01575,0,0,90.0*
21,1,0.01969,0.03937,0,0,90.0*
1,1,0.02362,0.00787,0.00984*
1,1,0.02362,0.00787,-0.00984*
1,1,0.02362,-0.00787,-0.00984*
1,1,0.02362,-0.00787,0.00984*
%
%ADD57ROUNDEDRECTD57*%
%ADD58R,0.03150X0.05315*%
%ADD59R,0.05315X0.03150*%
%ADD60R,0.05118X0.03347*%
%ADD61R,0.04331X0.04331*%
%ADD62R,0.06299X0.03937*%
%ADD63R,0.03937X0.04331*%
%ADD64R,0.04921X0.03150*%
G04:AMPARAMS|DCode=65|XSize=74.8mil|YSize=51.18mil|CornerRadius=14.76mil|HoleSize=0mil|Usage=FLASHONLY|Rotation=0.000|XOffset=0mil|YOffset=0mil|HoleType=Round|Shape=RoundedRectangle|*
%AMROUNDEDRECTD65*
21,1,0.07480,0.02165,0,0,0.0*
21,1,0.04528,0.05118,0,0,0.0*
1,1,0.02953,0.02264,-0.01083*
1,1,0.02953,-0.02264,-0.01083*
1,1,0.02953,-0.02264,0.01083*
1,1,0.02953,0.02264,0.01083*
%
%ADD65ROUNDEDRECTD65*%
G04:AMPARAMS|DCode=66|XSize=74.8mil|YSize=51.18mil|CornerRadius=14.76mil|HoleSize=0mil|Usage=FLASHONLY|Rotation=270.000|XOffset=0mil|YOffset=0mil|HoleType=Round|Shape=RoundedRectangle|*
%AMROUNDEDRECTD66*
21,1,0.07480,0.02165,0,0,270.0*
21,1,0.04528,0.05118,0,0,270.0*
1,1,0.02953,-0.01083,-0.02264*
1,1,0.02953,-0.01083,0.02264*
1,1,0.02953,0.01083,0.02264*
1,1,0.02953,0.01083,-0.02264*
%
%ADD66ROUNDEDRECTD66*%
%ADD67O,0.09449X0.03150*%
G04:AMPARAMS|DCode=68|XSize=66.93mil|YSize=55.12mil|CornerRadius=15.75mil|HoleSize=0mil|Usage=FLASHONLY|Rotation=90.000|XOffset=0mil|YOffset=0mil|HoleType=Round|Shape=RoundedRectangle|*
%AMROUNDEDRECTD68*
21,1,0.06693,0.02362,0,0,90.0*
21,1,0.03543,0.05512,0,0,90.0*
1,1,0.03150,0.01181,0.01772*
1,1,0.03150,0.01181,-0.01772*
1,1,0.03150,-0.01181,-0.01772*
1,1,0.03150,-0.01181,0.01772*
%
%ADD68ROUNDEDRECTD68*%
%ADD69R,0.05512X0.06102*%
%ADD70R,0.05512X0.20472*%
%ADD71R,0.06693X0.06693*%
%ADD72C,0.06693*%
G04:AMPARAMS|DCode=73|XSize=66.93mil|YSize=66.93mil|CornerRadius=18.7mil|HoleSize=0mil|Usage=FLASHONLY|Rotation=90.000|XOffset=0mil|YOffset=0mil|HoleType=Round|Shape=RoundedRectangle|*
%AMROUNDEDRECTD73*
21,1,0.06693,0.02953,0,0,90.0*
21,1,0.02953,0.06693,0,0,90.0*
1,1,0.03740,0.01476,0.01476*
1,1,0.03740,0.01476,-0.01476*
1,1,0.03740,-0.01476,-0.01476*
1,1,0.03740,-0.01476,0.01476*
%
%ADD73ROUNDEDRECTD73*%
G04:AMPARAMS|DCode=74|XSize=66.93mil|YSize=66.93mil|CornerRadius=18.7mil|HoleSize=0mil|Usage=FLASHONLY|Rotation=0.000|XOffset=0mil|YOffset=0mil|HoleType=Round|Shape=RoundedRectangle|*
%AMROUNDEDRECTD74*
21,1,0.06693,0.02953,0,0,0.0*
21,1,0.02953,0.06693,0,0,0.0*
1,1,0.03740,0.01476,-0.01476*
1,1,0.03740,-0.01476,-0.01476*
1,1,0.03740,-0.01476,0.01476*
1,1,0.03740,0.01476,0.01476*
%
%ADD74ROUNDEDRECTD74*%
%ADD75C,0.06299*%
G04:AMPARAMS|DCode=76|XSize=61.02mil|YSize=61.02mil|CornerRadius=17.22mil|HoleSize=0mil|Usage=FLASHONLY|Rotation=180.000|XOffset=0mil|YOffset=0mil|HoleType=Round|Shape=RoundedRectangle|*
%AMROUNDEDRECTD76*
21,1,0.06102,0.02658,0,0,180.0*
21,1,0.02658,0.06102,0,0,180.0*
1,1,0.03445,-0.01329,0.01329*
1,1,0.03445,0.01329,0.01329*
1,1,0.03445,0.01329,-0.01329*
1,1,0.03445,-0.01329,-0.01329*
%
%ADD76ROUNDEDRECTD76*%
%ADD77C,0.06102*%
G36*
X340256Y22305D02*
X340354Y22206D01*
Y2089D01*
X339999Y1738D01*
X323622Y1931D01*
Y28164D01*
X324033Y28448D01*
X340256Y22305D01*
D02*
G37*
G36*
X340748Y139862D02*
X340650Y139764D01*
X324276Y130705D01*
X323845Y130959D01*
X323787Y156142D01*
X324141Y156496D01*
X340748Y156496D01*
Y139862D01*
D02*
G37*
D10*
X65059Y89862D02*
Y93405D01*
X61752Y89862D02*
Y93405D01*
X58445Y89862D02*
Y93405D01*
X55138Y89862D02*
Y93405D01*
X51831Y89862D02*
Y93405D01*
X48524Y89862D02*
Y93405D01*
X67028Y87500D02*
X70571D01*
X67028Y84193D02*
X70571D01*
X67028Y80886D02*
X70571D01*
X67028Y77579D02*
X70571D01*
X67028Y74272D02*
X70571D01*
X67028Y70965D02*
X70571D01*
X43012Y87500D02*
X46555D01*
X43012Y84193D02*
X46555D01*
X43012Y80886D02*
X46555D01*
X43012Y77579D02*
X46555D01*
X43012Y74272D02*
X46555D01*
X43012Y70965D02*
X46555D01*
X65059Y65059D02*
Y68602D01*
X61752Y65059D02*
Y68602D01*
X58445Y65059D02*
Y68602D01*
X55138Y65059D02*
Y68602D01*
X51831Y65059D02*
Y68602D01*
X48524Y65059D02*
Y68602D01*
D48*
X43799Y93012D02*
X45374Y90650D01*
X44193Y94193D02*
X45374Y90650D01*
X42618Y93012D02*
X44193Y94193D01*
X42618Y93012D02*
X45374Y90650D01*
X45768Y98524D02*
X47343Y96161D01*
X46161Y99705D02*
X47343Y96161D01*
X44587Y98524D02*
X46161Y99705D01*
X44587Y98524D02*
X47343Y96161D01*
D49*
X60335Y87106D02*
X65059D01*
X60335Y81201D02*
Y87106D01*
Y81201D02*
X65059D01*
Y87106D01*
X63484Y84744D02*
X65059D01*
X63484D02*
Y87106D01*
X56791Y84744D02*
Y87106D01*
Y84744D02*
X58366D01*
Y81201D02*
Y87106D01*
X53642Y81201D02*
X58366D01*
X53642D02*
Y87106D01*
X58366D01*
X63484Y76870D02*
Y79232D01*
Y76870D02*
X65059D01*
Y73327D02*
Y79232D01*
X60335Y73327D02*
X65059D01*
X60335D02*
Y79232D01*
X65059D01*
X56791Y76870D02*
Y79232D01*
Y76870D02*
X58366D01*
Y73327D02*
Y79232D01*
X53642Y73327D02*
X58366D01*
X53642D02*
Y79232D01*
X58366D01*
X46949Y89468D02*
X66634D01*
X46949Y68996D02*
Y89468D01*
Y68996D02*
X66634D01*
Y89468D01*
D50*
X44193Y92224D02*
G03*
X39471Y97349I-7349J-2034D01*
G01*
X34315Y103652D02*
G03*
X39471Y97349I8997J2099D01*
G01*
X46161Y97736D02*
G03*
X41439Y102861I-7349J-2034D01*
G01*
X36283Y109164D02*
G03*
X41439Y102861I8997J2099D01*
G01*
D56*
X16437Y23721D02*
D03*
Y29232D02*
D03*
X115792Y21959D02*
D03*
Y16447D02*
D03*
X56890Y129921D02*
D03*
Y124409D02*
D03*
X92421Y16142D02*
D03*
Y21654D02*
D03*
X139567Y7776D02*
D03*
Y13287D02*
D03*
X185047Y54134D02*
D03*
Y48622D02*
D03*
X147145Y27461D02*
D03*
Y32972D02*
D03*
X190945Y48720D02*
D03*
Y54232D02*
D03*
X182580Y26673D02*
D03*
Y32185D02*
D03*
X146752Y44488D02*
D03*
Y38976D02*
D03*
D57*
X33563Y113484D02*
D03*
X39075D02*
D03*
X20276Y113287D02*
D03*
X25787D02*
D03*
X23524Y17520D02*
D03*
X29035D02*
D03*
X29232Y11713D02*
D03*
X23720D02*
D03*
X100984Y132973D02*
D03*
X106496D02*
D03*
X25787Y106595D02*
D03*
X20276D02*
D03*
X160236Y68898D02*
D03*
X154724D02*
D03*
X170669Y73622D02*
D03*
X176181D02*
D03*
X162107Y20452D02*
D03*
X167618D02*
D03*
D58*
X49213Y130020D02*
D03*
X41732D02*
D03*
X45472Y121161D02*
D03*
X27559Y129921D02*
D03*
X31299Y121063D02*
D03*
X23819D02*
D03*
D59*
X186122Y69193D02*
D03*
Y61713D02*
D03*
X194980Y65453D02*
D03*
D60*
X32480Y24213D02*
D03*
Y27953D02*
D03*
Y31693D02*
D03*
X23031D02*
D03*
Y24213D02*
D03*
D61*
X233661Y34493D02*
D03*
X224213D02*
D03*
X233661Y41526D02*
D03*
X224213D02*
D03*
X233661Y48560D02*
D03*
X224213D02*
D03*
X233661Y55594D02*
D03*
X224213D02*
D03*
X233661Y62628D02*
D03*
X224213D02*
D03*
X233661Y69662D02*
D03*
X224213D02*
D03*
X233661Y76695D02*
D03*
X224213D02*
D03*
X233661Y83729D02*
D03*
X224213D02*
D03*
X233661Y90763D02*
D03*
X224213D02*
D03*
X233661Y97797D02*
D03*
X224213D02*
D03*
X233661Y104831D02*
D03*
X224213D02*
D03*
X233661Y111864D02*
D03*
X224213D02*
D03*
X233661Y27459D02*
D03*
X224213D02*
D03*
X233661Y118898D02*
D03*
X224213D02*
D03*
D62*
X139370Y28248D02*
D03*
Y36909D02*
D03*
D63*
X105709Y144783D02*
D03*
X100197D02*
D03*
D64*
X99705Y22736D02*
D03*
Y18996D02*
D03*
Y15256D02*
D03*
X109153D02*
D03*
Y22736D02*
D03*
D65*
X168012Y57284D02*
D03*
Y67913D02*
D03*
X177657Y67815D02*
D03*
Y57185D02*
D03*
D66*
X218898Y130118D02*
D03*
X208268D02*
D03*
D67*
X174311Y27539D02*
D03*
Y32539D02*
D03*
Y37539D02*
D03*
Y42539D02*
D03*
X155413Y27539D02*
D03*
Y32539D02*
D03*
Y37539D02*
D03*
Y42539D02*
D03*
D68*
X209547Y39549D02*
D03*
X216634D02*
D03*
Y47504D02*
D03*
X209547D02*
D03*
Y55458D02*
D03*
X216634D02*
D03*
Y63413D02*
D03*
X209547D02*
D03*
Y71367D02*
D03*
X216634D02*
D03*
Y79322D02*
D03*
X209547D02*
D03*
Y87276D02*
D03*
X216634D02*
D03*
Y95231D02*
D03*
X209547D02*
D03*
Y103185D02*
D03*
X216634D02*
D03*
Y111140D02*
D03*
X209547D02*
D03*
Y119291D02*
D03*
X216634D02*
D03*
Y31595D02*
D03*
X209547D02*
D03*
D69*
X167815Y123031D02*
D03*
X175689D02*
D03*
X183563D02*
D03*
X191437D02*
D03*
Y80512D02*
D03*
X183563D02*
D03*
X175689D02*
D03*
X167815D02*
D03*
D70*
X199311Y101378D02*
D03*
X160335D02*
D03*
D71*
X10335Y119882D02*
D03*
X83169Y13681D02*
D03*
X8563Y17126D02*
D03*
D72*
X10335Y129882D02*
D03*
X266673Y49114D02*
D03*
X276673Y59114D02*
D03*
X266673D02*
D03*
X276673Y69114D02*
D03*
X266673D02*
D03*
X276673Y79114D02*
D03*
X266673D02*
D03*
X276673Y89114D02*
D03*
X266673D02*
D03*
X276673Y99114D02*
D03*
X266673D02*
D03*
X83169Y23681D02*
D03*
X8563Y27126D02*
D03*
Y37126D02*
D03*
X276240Y31890D02*
D03*
D73*
X276673Y49114D02*
D03*
D74*
X266240Y31890D02*
D03*
D75*
X267146Y124921D02*
D03*
Y134921D02*
D03*
X277146D02*
D03*
Y124921D02*
D03*
X272146Y129921D02*
D03*
X28032Y137323D02*
D03*
X18032D02*
D03*
Y147323D02*
D03*
X28032D02*
D03*
X23031Y142323D02*
D03*
D76*
X179469Y12183D02*
D03*
D77*
X150256D02*
D03*
M02*
