M48
;Layer_Color=9474304
;FILE_FORMAT=2:5
INCH,LZ
;TYPE=PLATED
T1F00S00C0.01181
T2F00S00C0.02362
T3F00S00C0.03150
T4F00S00C0.03346
T5F00S00C0.03543
%
T01
X0130709Y000748
X0131299Y0016339
Y0025787
X0131201Y0035827
X0133957Y0041887
X0131496Y0048327
X015315Y0049508
X0157677Y0064468
X0149213Y0067815
X0157776Y0079035
X0156988Y0086713
X0179331Y0086319
X0179232Y0100984
X0197244Y0114567
X0216339Y011063
X0216929Y0102854
X0217421Y0094784
Y0087008
X021624Y0079035
X0217126Y0070866
X0216831Y0062402
Y0055413
X0216777Y0048273
X0216634Y0041142
X021624Y0033563
X021309Y0025886
X0189665Y0028346
X0190157Y0037303
X0175492Y0049311
X0172933Y0062795
X0195276Y0060532
X0197933Y008809
X0243095Y0090763
X0243209Y0097638
X0242512Y0104831
X0242762Y0111864
X0240157Y0118996
X0216929Y0119291
X0243042Y0083729
X0243088Y0076695
X0243035Y0069662
X0243041Y0062628
X0243209Y0055315
X0242717Y0048524
X0242421Y0041437
X0243012Y0034547
X0243209Y0027165
X0189075Y000689
X0183465Y0006496
X0175Y0007185
X0163779Y0007087
X0154232Y000689
X0144193Y0006988
X0166043Y0039961
X015876Y0114469
X0143898Y0117717
X0143602Y0132382
X0143307Y0100689
X0138583Y009626
X0130315Y0096063
X0113484Y0096457
X0108661Y009065
X0110236Y006811
X0109449Y0046555
X0045768Y0028642
X0047244Y0021457
X0081201Y0126476
X010502Y0125295
X0105118Y0137894
X0105709Y0151181
X0123425Y0151476
X0120768Y0138779
X0046161Y0140847
X0046063Y0149902
X0131791Y0151476
X0143602Y0142717
X0325787Y0141732
Y0135039
X0332087Y0137303
X0338976Y0141339
X0338779Y0148819
Y0154626
X0334744Y0154823
X0331299
X0326575
X0325886Y0149213
T02
X0199705Y0123031
T03
X0150256Y0012183
X0179469
T04
X0267146Y0124921
X0277146
X0272146Y0129921
X0028032Y0137323
X0018032
Y0147323
X0028032
X0023031Y0142323
X0267146Y0134921
X0277146
T05
X026624Y003189
X027624
X0276673Y0049114
X0266673
Y0059114
X0276673
Y0069114
X0266673
Y0079114
X0276673
Y0089114
X0266673
Y0099114
X0276673
X0083169Y0023681
Y0013681
X0008563Y0017126
Y0027126
Y0037126
X0010335Y0119882
Y0129882
M30
