G04 Layer_Physical_Order=2*
G04 Layer_Color=16711680*
%FSLAX25Y25*%
%MOIN*%
G70*
G01*
G75*
%ADD10R,0.01969X0.02362*%
%ADD11R,0.02362X0.01969*%
%ADD12R,0.03543X0.03150*%
%ADD43C,0.00984*%
%ADD44C,0.01181*%
%ADD45C,0.01575*%
%ADD49C,0.03937*%
%ADD50R,0.15748X0.07874*%
%ADD51R,0.09055X0.07087*%
%ADD52C,0.04724*%
%ADD53C,0.06693*%
G04:AMPARAMS|DCode=54|XSize=59.06mil|YSize=59.06mil|CornerRadius=0mil|HoleSize=0mil|Usage=FLASHONLY|Rotation=90.000|XOffset=0mil|YOffset=0mil|HoleType=Round|Shape=Octagon|*
%AMOCTAGOND54*
4,1,8,0.01476,0.02953,-0.01476,0.02953,-0.02953,0.01476,-0.02953,-0.01476,-0.01476,-0.02953,0.01476,-0.02953,0.02953,-0.01476,0.02953,0.01476,0.01476,0.02953,0.0*
%
%ADD54OCTAGOND54*%

%ADD55C,0.02756*%
%ADD56C,0.01969*%
%ADD57R,0.03150X0.05512*%
%ADD58R,0.03937X0.05906*%
%ADD59R,0.06890X0.05906*%
G36*
X44620Y-26165D02*
Y-29618D01*
X50557D01*
Y-27040D01*
X51057Y-26773D01*
X51240Y-26895D01*
X51739Y-26995D01*
X51848D01*
X52158Y-27495D01*
X52027Y-28151D01*
X52195Y-28996D01*
X52674Y-29712D01*
X53390Y-30191D01*
X54235Y-30359D01*
X55080Y-30191D01*
X55602Y-29842D01*
X56102Y-30085D01*
Y-31475D01*
X55602Y-31697D01*
X55050Y-31469D01*
X54331Y-31374D01*
X53611Y-31469D01*
X52941Y-31746D01*
X52365Y-32188D01*
X51923Y-32764D01*
X51646Y-33434D01*
X51551Y-34154D01*
X51646Y-34873D01*
X51923Y-35543D01*
X52365Y-36119D01*
X52941Y-36561D01*
X53611Y-36838D01*
X54331Y-36933D01*
X55050Y-36838D01*
X55252Y-36755D01*
X56595Y-38098D01*
Y-41142D01*
X60802D01*
Y-44488D01*
X60901Y-44987D01*
X61184Y-45411D01*
X65708Y-49935D01*
X66131Y-50218D01*
X66166Y-50301D01*
X65877Y-50732D01*
X65709Y-51577D01*
X65877Y-52422D01*
X66115Y-52778D01*
Y-59261D01*
X63394Y-61981D01*
X33062D01*
X31308Y-60227D01*
X30853Y-59922D01*
X30413Y-59835D01*
Y-56102D01*
X25457D01*
X25218Y-55634D01*
X28257Y-52595D01*
X28562Y-52139D01*
X28669Y-51601D01*
Y-47731D01*
X33380Y-43020D01*
X33565Y-43056D01*
X34409Y-42888D01*
X35126Y-42410D01*
X35604Y-41693D01*
X35772Y-40848D01*
X35604Y-40004D01*
X35126Y-39287D01*
X34409Y-38809D01*
X33565Y-38641D01*
X32720Y-38809D01*
X32004Y-39287D01*
X31525Y-40004D01*
X31357Y-40848D01*
X31394Y-41033D01*
X26270Y-46156D01*
X25966Y-46612D01*
X25859Y-47149D01*
Y-51020D01*
X23103Y-53776D01*
X22260D01*
X21723Y-53883D01*
X21641Y-53937D01*
X20034D01*
X19622Y-53724D01*
X19352Y-53724D01*
X17941D01*
Y-55709D01*
Y-57693D01*
X19622D01*
X19749Y-57628D01*
X20249Y-57932D01*
Y-59055D01*
X19783D01*
X18268Y-60570D01*
X17831Y-60720D01*
X17646Y-60536D01*
X15854Y-58744D01*
X14378D01*
Y-62697D01*
X13378D01*
Y-58744D01*
X11902D01*
X11698Y-58947D01*
X11236Y-58756D01*
Y-57760D01*
X6209D01*
Y-62303D01*
X5209D01*
Y-57760D01*
X1083D01*
Y-46260D01*
X6785D01*
X7082Y-46760D01*
X6946Y-47443D01*
X7114Y-48288D01*
X7593Y-49004D01*
X8309Y-49483D01*
X9154Y-49651D01*
X9999Y-49483D01*
X10715Y-49004D01*
X11194Y-48288D01*
X11281Y-47847D01*
X15051Y-44077D01*
X15551Y-44284D01*
Y-46260D01*
X24016D01*
Y-38780D01*
X24016Y-38780D01*
X24016D01*
X23835Y-38344D01*
X27509Y-34671D01*
X27531D01*
X28192Y-35112D01*
X29037Y-35280D01*
X29882Y-35112D01*
X30598Y-34634D01*
X31077Y-33917D01*
X31088Y-33858D01*
X35778D01*
Y-29207D01*
X38877Y-26108D01*
X44144D01*
X44620Y-26165D01*
D02*
G37*
G36*
X160755Y-1386D02*
X160187Y-1821D01*
X159491Y-2729D01*
X159053Y-3787D01*
X158969Y-4421D01*
X163287D01*
Y-4921D01*
X163787D01*
Y-9239D01*
X164422Y-9156D01*
X165479Y-8718D01*
X166387Y-8021D01*
X166823Y-7454D01*
X167323Y-7623D01*
Y-28543D01*
X175434D01*
X175787Y-28897D01*
X175701Y-82278D01*
X175252Y-82498D01*
X175027Y-82325D01*
X173969Y-81888D01*
X173335Y-81804D01*
Y-86122D01*
X172835D01*
Y-86622D01*
X168517D01*
X168600Y-87257D01*
X169038Y-88314D01*
X169540Y-88968D01*
X169294Y-89468D01*
X108661D01*
Y-74311D01*
X106398Y-72047D01*
X87992D01*
X87697Y-71752D01*
Y-66535D01*
X87106Y-65847D01*
X73065D01*
X72874Y-65385D01*
X80747Y-57511D01*
X124692D01*
X124692Y-57511D01*
X125306Y-57389D01*
X125827Y-57041D01*
X130770Y-52098D01*
X162598D01*
X162598Y-52098D01*
X163213Y-51976D01*
X163734Y-51627D01*
X171598Y-43764D01*
X172047Y-43823D01*
X172767Y-43728D01*
X173437Y-43451D01*
X174013Y-43009D01*
X174454Y-42433D01*
X174732Y-41763D01*
X174827Y-41043D01*
X174732Y-40324D01*
X174454Y-39654D01*
X174013Y-39078D01*
X173437Y-38636D01*
X172767Y-38358D01*
X172047Y-38264D01*
X171328Y-38358D01*
X170657Y-38636D01*
X170509Y-38750D01*
X170015Y-38669D01*
X169770Y-38301D01*
X169053Y-37822D01*
X168209Y-37654D01*
X167364Y-37822D01*
X166648Y-38301D01*
X166169Y-39017D01*
X166001Y-39862D01*
X166169Y-40707D01*
X166648Y-41423D01*
X166667Y-41625D01*
X160975Y-47317D01*
X129331D01*
X128832Y-47417D01*
X128408Y-47700D01*
X123377Y-52731D01*
X104119D01*
X99270Y-47883D01*
X98980Y-47689D01*
X98501Y-47210D01*
X98078Y-46927D01*
X97579Y-46828D01*
X95541D01*
X95041Y-46927D01*
X94618Y-47210D01*
X94449Y-47379D01*
X84069D01*
X83897Y-47122D01*
X83181Y-46644D01*
X82336Y-46476D01*
X81491Y-46644D01*
X80775Y-47122D01*
X80296Y-47839D01*
X80128Y-48684D01*
X80259Y-49340D01*
X79949Y-49840D01*
X73892D01*
X70568Y-46515D01*
X70144Y-46232D01*
X69645Y-46133D01*
X67823D01*
X64986Y-43295D01*
Y-41530D01*
X65256Y-41142D01*
X69980D01*
Y-34128D01*
X70457Y-34071D01*
X70480Y-34071D01*
X72925D01*
Y-30118D01*
Y-26165D01*
X70457D01*
Y-29766D01*
X69957Y-29866D01*
X69730Y-29319D01*
X69288Y-28743D01*
X68713Y-28301D01*
X68042Y-28024D01*
X67323Y-27929D01*
X67157Y-27783D01*
Y-24816D01*
X67157Y-24816D01*
X67035Y-24202D01*
X66686Y-23681D01*
X66686Y-23681D01*
X60963Y-17957D01*
X60932Y-17804D01*
X60768Y-17558D01*
X61036Y-17058D01*
X75445D01*
X75764Y-17421D01*
X75858Y-18141D01*
X76136Y-18811D01*
X76578Y-19387D01*
X77036Y-19738D01*
Y-32059D01*
X77034Y-32065D01*
X76894Y-32176D01*
X76394Y-31935D01*
Y-30618D01*
X73925D01*
Y-34071D01*
X76061D01*
X76269Y-34571D01*
X75093Y-35747D01*
X74745Y-36268D01*
X74623Y-36882D01*
X74623Y-36882D01*
Y-39277D01*
X74311Y-39533D01*
X73466Y-39701D01*
X72750Y-40179D01*
X72271Y-40896D01*
X72103Y-41741D01*
X72271Y-42585D01*
X72750Y-43302D01*
X73466Y-43780D01*
X74311Y-43948D01*
X75156Y-43780D01*
X75872Y-43302D01*
X75909Y-43246D01*
X76407Y-43197D01*
X76971Y-43761D01*
X76971Y-43761D01*
X77491Y-44109D01*
X77782Y-44167D01*
X78549Y-44935D01*
X78549Y-44935D01*
X79070Y-45283D01*
X79685Y-45405D01*
X79685Y-45405D01*
X107089D01*
X107212Y-46022D01*
X107691Y-46738D01*
X108407Y-47217D01*
X109252Y-47385D01*
X110097Y-47217D01*
X110813Y-46738D01*
X111292Y-46022D01*
X111460Y-45177D01*
X111292Y-44332D01*
X110813Y-43616D01*
X110097Y-43137D01*
X109331Y-42985D01*
X109009Y-42664D01*
X108489Y-42316D01*
X107874Y-42193D01*
X107874Y-42194D01*
X80350D01*
X79647Y-41490D01*
X79573Y-41441D01*
X79724Y-40941D01*
X80626D01*
Y-39260D01*
X78642D01*
Y-38260D01*
X80626D01*
Y-36579D01*
X80626D01*
X80413Y-36437D01*
Y-32500D01*
X80247D01*
Y-19587D01*
X80509Y-19387D01*
X80935Y-18831D01*
X106425D01*
X106701Y-19191D01*
X107277Y-19633D01*
X107947Y-19910D01*
X108667Y-20005D01*
X109386Y-19910D01*
X110057Y-19633D01*
X110632Y-19191D01*
X111074Y-18615D01*
X111352Y-17945D01*
X111446Y-17225D01*
X111352Y-16506D01*
X111074Y-15835D01*
X110632Y-15260D01*
X110057Y-14818D01*
X109386Y-14540D01*
X108667Y-14446D01*
X107947Y-14540D01*
X107277Y-14818D01*
X106701Y-15260D01*
X106425Y-15620D01*
X80635D01*
X80509Y-15456D01*
X79933Y-15014D01*
X79263Y-14736D01*
X78543Y-14642D01*
X78094Y-14701D01*
X77710Y-14317D01*
X77189Y-13969D01*
X76575Y-13847D01*
X76575Y-13847D01*
X55118D01*
X54504Y-13969D01*
X54391Y-14044D01*
X54331Y-14032D01*
X53486Y-14200D01*
X52770Y-14679D01*
X52378Y-15266D01*
X51817Y-15412D01*
X51356Y-14951D01*
X51367Y-14357D01*
X51845Y-13641D01*
X52013Y-12796D01*
X51845Y-11951D01*
X51367Y-11235D01*
X50793Y-10851D01*
X50609Y-10537D01*
X50557Y-10267D01*
Y-6996D01*
X44620D01*
Y-10401D01*
X44620Y-10449D01*
X44504Y-10901D01*
X40711D01*
X40539Y-10644D01*
X39823Y-10166D01*
X38978Y-9997D01*
X38133Y-10166D01*
X37417Y-10644D01*
X36939Y-11360D01*
X36770Y-12205D01*
X36939Y-13050D01*
X37417Y-13767D01*
X38133Y-14245D01*
X38978Y-14413D01*
X39823Y-14245D01*
X40539Y-13767D01*
X40711Y-13510D01*
X44834D01*
X46926Y-15602D01*
Y-15898D01*
X47025Y-16397D01*
X47308Y-16820D01*
X51912Y-21424D01*
X51705Y-21924D01*
X14075D01*
X13576Y-22023D01*
X13152Y-22306D01*
X9080Y-26378D01*
X4429D01*
Y-33858D01*
X9941D01*
Y-29207D01*
X14615Y-24533D01*
X36109D01*
X36300Y-24995D01*
X34917Y-26378D01*
X30266D01*
Y-30734D01*
X29766Y-31010D01*
X29037Y-30865D01*
X28192Y-31033D01*
X27476Y-31511D01*
X27108Y-32061D01*
X26969D01*
X26469Y-32161D01*
X26046Y-32444D01*
X25182Y-33307D01*
X24721Y-33116D01*
Y-30618D01*
X22252D01*
Y-34071D01*
X23765D01*
X23957Y-34533D01*
X19710Y-38780D01*
X15551D01*
Y-41215D01*
X14764D01*
X14265Y-41314D01*
X13841Y-41597D01*
X10020Y-45418D01*
X9999Y-45404D01*
X9252Y-45255D01*
Y-38780D01*
X7489D01*
X7190Y-38280D01*
X7326Y-37598D01*
X7158Y-36754D01*
X6679Y-36037D01*
X5963Y-35559D01*
X5118Y-35391D01*
X4273Y-35559D01*
X3557Y-36037D01*
X3078Y-36754D01*
X2910Y-37598D01*
X3046Y-38280D01*
X2747Y-38780D01*
X1083D01*
Y-1083D01*
X1280Y-886D01*
X160585D01*
X160755Y-1386D01*
D02*
G37*
%LPC*%
G36*
X21252Y-30618D02*
X18783D01*
Y-34071D01*
X21252D01*
Y-30618D01*
D02*
G37*
G36*
X113386Y-25647D02*
X112541Y-25815D01*
X111825Y-26293D01*
X111346Y-27009D01*
X111178Y-27854D01*
X111346Y-28699D01*
X111825Y-29416D01*
X112163Y-29641D01*
X112180Y-29732D01*
X112463Y-30155D01*
X116007Y-33698D01*
X116430Y-33981D01*
X116929Y-34080D01*
X138097D01*
X138268Y-34337D01*
X138984Y-34815D01*
X139829Y-34983D01*
X140674Y-34815D01*
X141390Y-34337D01*
X141869Y-33621D01*
X142037Y-32776D01*
X141869Y-31931D01*
X141390Y-31214D01*
X140674Y-30736D01*
X139829Y-30568D01*
X138984Y-30736D01*
X138268Y-31214D01*
X138097Y-31471D01*
X117470D01*
X115134Y-29136D01*
X115426Y-28699D01*
X115594Y-27854D01*
X115426Y-27009D01*
X114947Y-26293D01*
X114231Y-25815D01*
X113386Y-25647D01*
D02*
G37*
G36*
X60827Y-49409D02*
X55709D01*
Y-49718D01*
X55209Y-49985D01*
X54981Y-49833D01*
X54137Y-49665D01*
X53292Y-49833D01*
X52575Y-50311D01*
X52097Y-51028D01*
X51929Y-51873D01*
X52097Y-52718D01*
X52575Y-53434D01*
X53292Y-53912D01*
X54137Y-54080D01*
X54981Y-53912D01*
X55209Y-53760D01*
X55709Y-54028D01*
Y-54134D01*
X60827D01*
Y-49409D01*
D02*
G37*
G36*
X21252Y-26165D02*
X18783D01*
Y-29618D01*
X21252D01*
Y-26165D01*
D02*
G37*
G36*
X50557Y-30618D02*
X48089D01*
Y-34071D01*
X50557D01*
Y-30618D01*
D02*
G37*
G36*
X47089D02*
X44620D01*
Y-34071D01*
X47089D01*
Y-30618D01*
D02*
G37*
G36*
X116142Y-39244D02*
X115320Y-39353D01*
X114553Y-39670D01*
X113895Y-40175D01*
X113391Y-40833D01*
X113073Y-41599D01*
X112965Y-42421D01*
X113073Y-43244D01*
X113391Y-44010D01*
X113895Y-44668D01*
X114170Y-44878D01*
Y-45378D01*
X113895Y-45588D01*
X113391Y-46246D01*
X113073Y-47012D01*
X112965Y-47835D01*
X113073Y-48657D01*
X113391Y-49423D01*
X113895Y-50081D01*
X114553Y-50586D01*
X115320Y-50903D01*
X116142Y-51011D01*
X116964Y-50903D01*
X117730Y-50586D01*
X118388Y-50081D01*
X118893Y-49423D01*
X119210Y-48657D01*
X119318Y-47835D01*
X119210Y-47012D01*
X118893Y-46246D01*
X118388Y-45588D01*
X118114Y-45378D01*
Y-44878D01*
X118388Y-44668D01*
X118893Y-44010D01*
X119210Y-43244D01*
X119318Y-42421D01*
X119210Y-41599D01*
X118893Y-40833D01*
X118388Y-40175D01*
X117730Y-39670D01*
X116964Y-39353D01*
X116142Y-39244D01*
D02*
G37*
G36*
X57768Y-57784D02*
X55496D01*
Y-59858D01*
X57768D01*
Y-57784D01*
D02*
G37*
G36*
X61039D02*
X58768D01*
Y-59858D01*
X61039D01*
Y-57784D01*
D02*
G37*
G36*
X172335Y-81804D02*
X171700Y-81888D01*
X170643Y-82325D01*
X169735Y-83022D01*
X169038Y-83930D01*
X168600Y-84987D01*
X168517Y-85622D01*
X172335D01*
Y-81804D01*
D02*
G37*
G36*
X49893Y-39623D02*
X49049Y-39791D01*
X48332Y-40270D01*
X47854Y-40986D01*
X47686Y-41831D01*
X47854Y-42676D01*
X48332Y-43392D01*
X48589Y-43563D01*
Y-58063D01*
X48688Y-58562D01*
X48971Y-58985D01*
X49068Y-59050D01*
X49327Y-59438D01*
X50043Y-59917D01*
X50888Y-60085D01*
X51733Y-59917D01*
X52449Y-59438D01*
X52928Y-58722D01*
X53096Y-57877D01*
X52928Y-57032D01*
X52449Y-56316D01*
X51733Y-55837D01*
X51198Y-55731D01*
Y-43563D01*
X51455Y-43392D01*
X51933Y-42676D01*
X52101Y-41831D01*
X51933Y-40986D01*
X51455Y-40270D01*
X50738Y-39791D01*
X49893Y-39623D01*
D02*
G37*
G36*
X61039Y-54709D02*
X58768D01*
Y-56783D01*
X61039D01*
Y-54709D01*
D02*
G37*
G36*
X16941Y-53724D02*
X15260D01*
Y-55209D01*
X16941D01*
Y-53724D01*
D02*
G37*
G36*
Y-56209D02*
X15260D01*
Y-57693D01*
X16941D01*
Y-56209D01*
D02*
G37*
G36*
X57768Y-54709D02*
X55496D01*
Y-56783D01*
X57768D01*
Y-54709D01*
D02*
G37*
G36*
X24721Y-26165D02*
X22252D01*
Y-29618D01*
X24721D01*
Y-26165D01*
D02*
G37*
G36*
X21252Y-2543D02*
X18783D01*
Y-5996D01*
X21252D01*
Y-2543D01*
D02*
G37*
G36*
X24721D02*
X22252D01*
Y-5996D01*
X24721D01*
Y-2543D01*
D02*
G37*
G36*
X61614Y-2756D02*
X56102D01*
Y-10236D01*
X61614D01*
Y-2756D01*
D02*
G37*
G36*
X162787Y-5421D02*
X158969D01*
X159053Y-6056D01*
X159491Y-7113D01*
X160187Y-8021D01*
X161095Y-8718D01*
X162153Y-9156D01*
X162787Y-9239D01*
Y-5421D01*
D02*
G37*
G36*
X72925Y-2543D02*
X70457D01*
Y-5996D01*
X72925D01*
Y-2543D01*
D02*
G37*
G36*
X76394D02*
X73925D01*
Y-5996D01*
X76394D01*
Y-2543D01*
D02*
G37*
G36*
X47089D02*
X44620D01*
Y-5996D01*
X47089D01*
Y-2543D01*
D02*
G37*
G36*
X50557D02*
X48089D01*
Y-5996D01*
X50557D01*
Y-2543D01*
D02*
G37*
G36*
X21252Y-6996D02*
X18783D01*
Y-10449D01*
X21252D01*
Y-6996D01*
D02*
G37*
G36*
X24721D02*
X22252D01*
Y-10449D01*
X24721D01*
Y-6996D01*
D02*
G37*
G36*
X76394Y-26165D02*
X73925D01*
Y-29618D01*
X76394D01*
Y-26165D01*
D02*
G37*
G36*
X142913Y-10981D02*
X142069Y-11149D01*
X141352Y-11628D01*
X140874Y-12344D01*
X140867Y-12376D01*
X134213D01*
X134041Y-12120D01*
X133325Y-11641D01*
X132480Y-11473D01*
X131635Y-11641D01*
X130919Y-12120D01*
X130441Y-12836D01*
X130272Y-13681D01*
X130441Y-14526D01*
X130919Y-15242D01*
X131635Y-15721D01*
X132480Y-15889D01*
X133325Y-15721D01*
X134041Y-15242D01*
X134213Y-14986D01*
X141705D01*
X142069Y-15229D01*
X142913Y-15397D01*
X143758Y-15229D01*
X144474Y-14750D01*
X144953Y-14034D01*
X145121Y-13189D01*
X144953Y-12344D01*
X144474Y-11628D01*
X143758Y-11149D01*
X142913Y-10981D01*
D02*
G37*
G36*
X9941Y-2756D02*
X4429D01*
Y-10236D01*
X9941D01*
Y-2756D01*
D02*
G37*
G36*
X35778D02*
X30266D01*
Y-10236D01*
X35778D01*
Y-2756D01*
D02*
G37*
G36*
X72925Y-6996D02*
X70457D01*
Y-10449D01*
X72925D01*
Y-6996D01*
D02*
G37*
G36*
X76394D02*
X73925D01*
Y-10449D01*
X76394D01*
Y-6996D01*
D02*
G37*
%LPD*%
D10*
X78642Y-38760D02*
D03*
Y-34468D02*
D03*
D11*
X21732Y-55709D02*
D03*
X17441D02*
D03*
D12*
X58268Y-51772D02*
D03*
Y-57284D02*
D03*
X27854Y-58465D02*
D03*
Y-63976D02*
D03*
D43*
X75236Y-41741D02*
X76228Y-40748D01*
X74311Y-41741D02*
X75236D01*
X73352Y-51144D02*
X96009D01*
X69645Y-47438D02*
X73352Y-51144D01*
X67283Y-47438D02*
X69645D01*
X63681Y-43836D02*
X67283Y-47438D01*
X70079Y-50098D02*
X72699Y-52719D01*
X62106Y-44488D02*
Y-26243D01*
X68832Y-49012D02*
X69998Y-50179D01*
X66631Y-49012D02*
X68832D01*
X62106Y-44488D02*
X66631Y-49012D01*
X14075Y-23228D02*
X54132D01*
X54235Y-28151D02*
X56891D01*
X58858Y-30118D01*
X63681Y-43836D02*
Y-25591D01*
X57579Y-19488D02*
X63681Y-25591D01*
X57579Y-19488D02*
Y-19193D01*
X53101Y-20768D02*
X55807D01*
X56631Y-20768D02*
X62106Y-26243D01*
X53101Y-20768D02*
X56631D01*
X56894Y-25689D02*
X57483Y-25100D01*
X55151Y-25689D02*
X56894D01*
X55150Y-25690D02*
X55151Y-25689D01*
X54132Y-23228D02*
X54967D01*
X54131Y-23230D02*
X54132Y-23228D01*
X53753Y-19193D02*
X57579D01*
X49806Y-15246D02*
X53753Y-19193D01*
X51739Y-25690D02*
X55150D01*
X50852Y-24803D02*
X51739Y-25690D01*
X38337Y-24803D02*
X50852D01*
X72699Y-52719D02*
X91496D01*
X168209Y-41929D02*
Y-39862D01*
X129331Y-48622D02*
X161516D01*
X168209Y-41929D01*
X142421Y-13681D02*
X142913Y-13189D01*
X132480Y-13681D02*
X142421D01*
X103578Y-54035D02*
X123917D01*
X129331Y-48622D01*
X116929Y-32776D02*
X139829D01*
X113386Y-29232D02*
X116929Y-32776D01*
X113386Y-29232D02*
Y-27854D01*
X19980Y-40354D02*
X26969Y-33366D01*
X14764Y-42520D02*
X19783D01*
X9840Y-47443D02*
X14764Y-42520D01*
X9154Y-47443D02*
X9840D01*
X95541Y-48132D02*
X97579D01*
X98300Y-48853D01*
X98348Y-48805D02*
X103578Y-54035D01*
X98832Y-53054D02*
X98974Y-52911D01*
X33022Y-30118D02*
X38337Y-24803D01*
X94989Y-48684D02*
X95541Y-48132D01*
X82336Y-48684D02*
X94989D01*
X96009Y-51144D02*
X96560Y-50593D01*
X91496Y-52719D02*
X91831Y-53054D01*
X98832D01*
X49806Y-15246D02*
Y-12796D01*
X7185Y-30118D02*
X14075Y-23228D01*
X28743Y-33366D02*
X29037Y-33073D01*
X26969Y-33366D02*
X28743D01*
X38978Y-12205D02*
X45375D01*
X48231Y-15062D01*
Y-15898D02*
Y-15062D01*
Y-15898D02*
X53101Y-20768D01*
X53101Y-20768D01*
X29134Y-64764D02*
X29429Y-65059D01*
X70929D02*
X71224Y-64764D01*
X29429Y-65059D02*
X70929D01*
X49893Y-58063D02*
X50079Y-57877D01*
X50888D01*
X49893Y-58063D02*
Y-41831D01*
D44*
X72835Y-30709D02*
X73425Y-30118D01*
X54137Y-51873D02*
X57773D01*
X57874Y-51772D01*
X27264Y-51601D02*
Y-47149D01*
X67917Y-51577D02*
Y-50686D01*
X23685Y-55181D02*
X27264Y-51601D01*
Y-47149D02*
X33565Y-40848D01*
X22260Y-55181D02*
X23685D01*
X21654Y-55787D02*
X21732Y-55709D01*
X21654Y-62795D02*
Y-55787D01*
X21732Y-55709D02*
X22260Y-55181D01*
X24019Y-62795D02*
X25593Y-61221D01*
X30315D01*
X21654Y-62795D02*
X24019D01*
X67520Y-59842D02*
Y-51577D01*
X30315Y-61221D02*
X32480Y-63386D01*
X63976D01*
X67520Y-59842D01*
D45*
X67323Y-38287D02*
Y-32087D01*
Y-38287D02*
X67421Y-38386D01*
X54921Y-34154D02*
X59153Y-38386D01*
X54331Y-34154D02*
X54921D01*
X65551Y-30315D02*
X67323Y-32087D01*
X65551Y-30315D02*
Y-24816D01*
X59449Y-18714D02*
X65551Y-24816D01*
X59449Y-18714D02*
Y-18418D01*
X58353Y-17323D02*
X59449Y-18418D01*
X55413Y-17323D02*
X58353D01*
X54331Y-16240D02*
X55413Y-17323D01*
X76575Y-15453D02*
X78543Y-17421D01*
X55118Y-15453D02*
X76575D01*
X54331Y-16240D02*
X55118Y-15453D01*
X76228Y-40748D02*
X78106Y-42626D01*
X76228Y-40748D02*
Y-36882D01*
X130105Y-50492D02*
X162598D01*
X172047Y-41043D01*
X72225Y-5296D02*
X73425Y-6496D01*
X5118Y-40256D02*
Y-37598D01*
Y-40256D02*
X5217Y-40354D01*
X27854Y-57973D02*
X27956Y-58074D01*
X27857Y-58172D02*
X27956Y-58074D01*
X24312Y-58172D02*
X27857D01*
X124692Y-55905D02*
X130105Y-50492D01*
X80082Y-55905D02*
X124692D01*
X78543Y-17421D02*
X78739Y-17225D01*
X108667D01*
X27854Y-63484D02*
X29134Y-64764D01*
X71224D02*
X80082Y-55905D01*
X107874Y-43799D02*
X109252Y-45177D01*
X79685Y-43799D02*
X107874D01*
X78106Y-42626D02*
X78511D01*
X79685Y-43799D01*
X78543Y-17421D02*
X78642Y-17520D01*
Y-34468D02*
Y-17520D01*
X76228Y-36882D02*
X78642Y-34468D01*
D49*
X54331Y-34154D02*
D03*
X67323Y-30709D02*
D03*
X78543Y-17421D02*
D03*
X172047Y-41043D02*
D03*
X108667Y-17225D02*
D03*
D50*
X96260Y-79921D02*
D03*
D51*
X5709Y-62303D02*
D03*
D52*
X116142Y-47835D02*
D03*
Y-42421D02*
D03*
D53*
X163287Y-4921D02*
D03*
X172835Y-86122D02*
D03*
D54*
X13878Y-62697D02*
D03*
X21654Y-62795D02*
D03*
D55*
X57579Y-60728D02*
D03*
X74311Y-41741D02*
D03*
X57483Y-25100D02*
D03*
X54235Y-28151D02*
D03*
X54331Y-16240D02*
D03*
X54131Y-23230D02*
D03*
X103248Y-22736D02*
D03*
Y-27067D02*
D03*
Y-31398D02*
D03*
Y-35728D02*
D03*
Y-40059D02*
D03*
X98917Y-22736D02*
D03*
Y-27067D02*
D03*
Y-31398D02*
D03*
Y-35728D02*
D03*
Y-40059D02*
D03*
X94587Y-22736D02*
D03*
Y-27067D02*
D03*
Y-31398D02*
D03*
Y-35728D02*
D03*
Y-40059D02*
D03*
X90256Y-22736D02*
D03*
Y-27067D02*
D03*
Y-31398D02*
D03*
Y-35728D02*
D03*
Y-40059D02*
D03*
X85925Y-22736D02*
D03*
Y-27067D02*
D03*
Y-31398D02*
D03*
Y-35728D02*
D03*
Y-40059D02*
D03*
X168209Y-39862D02*
D03*
X142913Y-13189D02*
D03*
X132480Y-13681D02*
D03*
X41339Y-38583D02*
D03*
X9350Y-36909D02*
D03*
X43898Y-39272D02*
D03*
X49893Y-41831D02*
D03*
X38976Y-7874D02*
D03*
X26083Y-2657D02*
D03*
X157579Y-15551D02*
D03*
X138091Y-17520D02*
D03*
X139829Y-32776D02*
D03*
X117323Y-7677D02*
D03*
X42224Y-41043D02*
D03*
X146752Y-8268D02*
D03*
X144980Y-20866D02*
D03*
X173917Y-30118D02*
D03*
X165059Y-87598D02*
D03*
X136319D02*
D03*
X157677Y-31398D02*
D03*
X123228Y-49803D02*
D03*
X15157Y-2953D02*
D03*
X113386Y-27854D02*
D03*
X42323Y-32382D02*
D03*
X69390Y-3740D02*
D03*
X99606Y-7185D02*
D03*
X52067Y-2559D02*
D03*
X112598Y-11417D02*
D03*
X151378Y-33760D02*
D03*
X145768Y-33661D02*
D03*
X145669Y-27559D02*
D03*
X151279Y-27461D02*
D03*
X121063Y-46063D02*
D03*
X54137Y-51873D02*
D03*
X131004Y-17717D02*
D03*
X96560Y-50593D02*
D03*
X98974Y-52911D02*
D03*
X34843Y-17815D02*
D03*
X42421Y-28937D02*
D03*
X38978Y-12205D02*
D03*
X5118Y-37598D02*
D03*
X9154Y-47443D02*
D03*
X24705Y-50197D02*
D03*
X30512Y-50098D02*
D03*
X20079Y-50197D02*
D03*
X4429Y-50886D02*
D03*
X130118Y-29429D02*
D03*
X24312Y-58172D02*
D03*
X25492Y-42815D02*
D03*
X15256Y-47736D02*
D03*
X33366Y-45866D02*
D03*
X14665Y-30315D02*
D03*
X5315Y-22539D02*
D03*
Y-15748D02*
D03*
X82336Y-48684D02*
D03*
X165059Y-78839D02*
D03*
X161713Y-53937D02*
D03*
X141732Y-54331D02*
D03*
X165059Y-69488D02*
D03*
X64961Y-53445D02*
D03*
X73228Y-19094D02*
D03*
X67917Y-51577D02*
D03*
X109252Y-45177D02*
D03*
X51968Y-9252D02*
D03*
X49806Y-12796D02*
D03*
X14567Y-9350D02*
D03*
X33565Y-40848D02*
D03*
X29037Y-33073D02*
D03*
X42618Y-16043D02*
D03*
X42520Y-19783D02*
D03*
X50888Y-57877D02*
D03*
X72244Y-35925D02*
D03*
D56*
X45965Y-54528D02*
D03*
X41634D02*
D03*
X45965Y-50197D02*
D03*
X41634D02*
D03*
D57*
X58957Y-37598D02*
D03*
X67618D02*
D03*
D58*
X7185Y-6496D02*
D03*
Y-30118D02*
D03*
X21752D02*
D03*
Y-6496D02*
D03*
X58858D02*
D03*
Y-30118D02*
D03*
X73425D02*
D03*
Y-6496D02*
D03*
X33022D02*
D03*
Y-30118D02*
D03*
X47589D02*
D03*
Y-6496D02*
D03*
D59*
X5020Y-42520D02*
D03*
X19783D02*
D03*
M02*
