G04 Layer_Color=8388736*
%FSLAX25Y25*%
%MOIN*%
G70*
G01*
G75*
%ADD39R,0.05118X0.02362*%
%ADD52C,0.04724*%
%ADD65R,0.02756X0.03150*%
%ADD66R,0.03150X0.02756*%
%ADD67R,0.04331X0.03937*%
%ADD68R,0.03937X0.04331*%
%ADD69R,0.08268X0.10138*%
%ADD70R,0.08268X0.05413*%
%ADD71R,0.08661X0.06594*%
%ADD72R,0.09055X0.06594*%
%ADD73R,0.06221X0.02559*%
%ADD74R,0.04724X0.15748*%
%ADD75R,0.07480X0.05118*%
%ADD76R,0.05118X0.07480*%
%ADD77O,0.01772X0.04331*%
%ADD78O,0.04331X0.01772*%
%ADD79R,0.23228X0.23228*%
%ADD80R,0.03347X0.05118*%
%ADD81R,0.05512X0.03150*%
%ADD82R,0.03937X0.07480*%
%ADD83R,0.01772X0.05118*%
%ADD84R,0.03150X0.05315*%
%ADD85R,0.03543X0.04331*%
%ADD86R,0.08858X0.08858*%
%ADD87O,0.01575X0.04331*%
%ADD88O,0.04331X0.01575*%
%ADD89R,0.06102X0.05512*%
%ADD90R,0.20472X0.05512*%
%ADD91R,0.13780X0.06299*%
%ADD92R,0.05906X0.03543*%
%ADD93R,0.08268X0.11024*%
%ADD94R,0.05906X0.03150*%
%ADD95R,0.04331X0.04331*%
%ADD96R,0.03740X0.07874*%
%ADD97R,0.16535X0.08661*%
%ADD98R,0.09843X0.07874*%
%ADD99C,0.05512*%
%ADD100C,0.07480*%
G04:AMPARAMS|DCode=101|XSize=66.93mil|YSize=66.93mil|CornerRadius=0mil|HoleSize=0mil|Usage=FLASHONLY|Rotation=90.000|XOffset=0mil|YOffset=0mil|HoleType=Round|Shape=Octagon|*
%AMOCTAGOND101*
4,1,8,0.01673,0.03347,-0.01673,0.03347,-0.03347,0.01673,-0.03347,-0.01673,-0.01673,-0.03347,0.01673,-0.03347,0.03347,-0.01673,0.03347,0.01673,0.01673,0.03347,0.0*
%
%ADD101OCTAGOND101*%

D39*
X65847Y-61417D02*
D03*
X71752Y-59449D02*
D03*
Y-63386D02*
D03*
D52*
X54331Y-34154D02*
D03*
X67323Y-30709D02*
D03*
D65*
X68898Y-35236D02*
D03*
X70866Y-40354D02*
D03*
X66929D02*
D03*
X159252Y-36713D02*
D03*
X155315D02*
D03*
X157283Y-41831D02*
D03*
X63189Y-30315D02*
D03*
X59252D02*
D03*
X61221Y-35433D02*
D03*
X112697Y-18425D02*
D03*
Y-22716D02*
D03*
X85236Y-8937D02*
D03*
Y-4646D02*
D03*
X157579Y-3366D02*
D03*
Y-7658D02*
D03*
X74394Y-34677D02*
D03*
Y-38969D02*
D03*
D66*
X86732Y-13386D02*
D03*
X91024D02*
D03*
X101752Y-10039D02*
D03*
X97461D02*
D03*
X109232Y-10039D02*
D03*
X104941D02*
D03*
X103957Y-48819D02*
D03*
X108248D02*
D03*
X134468Y-2264D02*
D03*
X138760D02*
D03*
X72027Y-16043D02*
D03*
X67736D02*
D03*
X31870Y-22835D02*
D03*
X27579D02*
D03*
X159035Y-25689D02*
D03*
X154744D02*
D03*
X112618Y-2559D02*
D03*
X116909D02*
D03*
D67*
X55709Y-38976D02*
D03*
Y-44488D02*
D03*
X55807Y-50394D02*
D03*
Y-55905D02*
D03*
X61221Y-44488D02*
D03*
Y-38976D02*
D03*
X61122Y-50591D02*
D03*
Y-56102D02*
D03*
X77461Y-64173D02*
D03*
Y-58661D02*
D03*
X84842Y-58760D02*
D03*
Y-64272D02*
D03*
X28839Y-17126D02*
D03*
Y-11614D02*
D03*
X23622D02*
D03*
Y-17126D02*
D03*
X130020Y-43012D02*
D03*
Y-37500D02*
D03*
X137106Y-43012D02*
D03*
Y-37500D02*
D03*
X151969Y-2953D02*
D03*
Y-8465D02*
D03*
X164370Y-38583D02*
D03*
Y-33071D02*
D03*
D68*
X71457Y-45472D02*
D03*
X76968D02*
D03*
X10827Y-41929D02*
D03*
X5315D02*
D03*
X71457Y-54232D02*
D03*
X76968D02*
D03*
X125098Y-18406D02*
D03*
X119587D02*
D03*
X71457Y-49852D02*
D03*
X76968D02*
D03*
X151083Y-41929D02*
D03*
X145571D02*
D03*
X90847Y-52067D02*
D03*
X85335D02*
D03*
D69*
X5315Y-30807D02*
D03*
Y-7579D02*
D03*
D70*
Y-15846D02*
D03*
Y-22539D02*
D03*
D71*
X14567Y-9350D02*
D03*
D72*
X14370Y-29035D02*
D03*
D73*
X15748Y-14075D02*
D03*
Y-24311D02*
D03*
Y-21752D02*
D03*
Y-16634D02*
D03*
Y-19193D02*
D03*
D74*
X37106Y-31201D02*
D03*
X48130D02*
D03*
D75*
X172146Y-34744D02*
D03*
Y-45374D02*
D03*
X20571Y-45079D02*
D03*
Y-55709D02*
D03*
X29823Y-45079D02*
D03*
Y-55709D02*
D03*
X91437Y-62008D02*
D03*
Y-72638D02*
D03*
D76*
X37697Y-18209D02*
D03*
X48327D02*
D03*
D77*
X105413Y-17421D02*
D03*
X103445D02*
D03*
X101476D02*
D03*
X99508D02*
D03*
X97539D02*
D03*
X95571D02*
D03*
X93602D02*
D03*
X91634D02*
D03*
X89665D02*
D03*
X87697D02*
D03*
X85728D02*
D03*
X83760D02*
D03*
Y-45374D02*
D03*
X85728D02*
D03*
X87697D02*
D03*
X89665D02*
D03*
X91634D02*
D03*
X93602D02*
D03*
X95571D02*
D03*
X97539D02*
D03*
X99508D02*
D03*
X101476D02*
D03*
X103445D02*
D03*
X105413D02*
D03*
D78*
X80610Y-20571D02*
D03*
Y-22539D02*
D03*
Y-24508D02*
D03*
Y-26476D02*
D03*
Y-28445D02*
D03*
Y-30413D02*
D03*
Y-32382D02*
D03*
Y-34350D02*
D03*
Y-36319D02*
D03*
Y-38287D02*
D03*
Y-40256D02*
D03*
Y-42224D02*
D03*
X108563D02*
D03*
Y-40256D02*
D03*
Y-38287D02*
D03*
Y-36319D02*
D03*
Y-34350D02*
D03*
Y-32382D02*
D03*
Y-30413D02*
D03*
Y-28445D02*
D03*
Y-26476D02*
D03*
Y-24508D02*
D03*
Y-22539D02*
D03*
Y-20571D02*
D03*
D79*
X94587Y-31398D02*
D03*
D80*
X24311Y-28740D02*
D03*
X31791D02*
D03*
Y-38189D02*
D03*
X28051D02*
D03*
X24311D02*
D03*
D81*
X34252Y-4134D02*
D03*
Y-7874D02*
D03*
Y-11614D02*
D03*
X43307D02*
D03*
Y-7874D02*
D03*
Y-4134D02*
D03*
D82*
X97539Y-69488D02*
D03*
X109744D02*
D03*
D83*
X142913Y-6594D02*
D03*
X140945D02*
D03*
X138976D02*
D03*
X137008D02*
D03*
X135039D02*
D03*
Y-28642D02*
D03*
X137008D02*
D03*
X138976D02*
D03*
X140945D02*
D03*
X142913D02*
D03*
D84*
X121260Y-4528D02*
D03*
X125000Y-13386D02*
D03*
X117520D02*
D03*
D85*
X13878Y-37500D02*
D03*
X19783D02*
D03*
D86*
X43799Y-52362D02*
D03*
D87*
X39862Y-45276D02*
D03*
X41831D02*
D03*
X43799D02*
D03*
X45768D02*
D03*
X47736D02*
D03*
Y-59449D02*
D03*
X45768D02*
D03*
X43799D02*
D03*
X41831D02*
D03*
X39862D02*
D03*
D88*
X50886Y-49409D02*
D03*
Y-55315D02*
D03*
X36713D02*
D03*
Y-49409D02*
D03*
D89*
X130709Y-79331D02*
D03*
Y-71457D02*
D03*
Y-63583D02*
D03*
Y-55709D02*
D03*
X173228D02*
D03*
Y-63583D02*
D03*
Y-71457D02*
D03*
Y-79331D02*
D03*
D90*
X152362Y-47835D02*
D03*
Y-86811D02*
D03*
D91*
X119488Y-71752D02*
D03*
Y-86713D02*
D03*
D92*
X153051Y-13484D02*
D03*
Y-17224D02*
D03*
Y-20965D02*
D03*
X162500D02*
D03*
Y-13484D02*
D03*
D93*
X77165Y-7776D02*
D03*
X60433D02*
D03*
D94*
X12402Y-51181D02*
D03*
X4134Y-54921D02*
D03*
Y-47441D02*
D03*
D95*
X114862Y-62500D02*
D03*
X124311D02*
D03*
D96*
X92146Y-4528D02*
D03*
X108051D02*
D03*
D97*
X96260Y-79921D02*
D03*
D98*
X5709Y-62303D02*
D03*
D99*
X116142Y-47835D02*
D03*
Y-42421D02*
D03*
D100*
X163287Y-4921D02*
D03*
X172835Y-86122D02*
D03*
D101*
X13878Y-62697D02*
D03*
X21654Y-62795D02*
D03*
M02*
