G04 Layer_Physical_Order=1*
G04 Layer_Color=255*
%FSLAX25Y25*%
%MOIN*%
G70*
G01*
G75*
%ADD10C,0.01575*%
%ADD11C,0.03150*%
G04:AMPARAMS|DCode=12|XSize=59.06mil|YSize=47.24mil|CornerRadius=11.81mil|HoleSize=0mil|Usage=FLASHONLY|Rotation=180.000|XOffset=0mil|YOffset=0mil|HoleType=Round|Shape=RoundedRectangle|*
%AMROUNDEDRECTD12*
21,1,0.05906,0.02362,0,0,180.0*
21,1,0.03543,0.04724,0,0,180.0*
1,1,0.02362,-0.01772,0.01181*
1,1,0.02362,0.01772,0.01181*
1,1,0.02362,0.01772,-0.01181*
1,1,0.02362,-0.01772,-0.01181*
%
%ADD12ROUNDEDRECTD12*%
%ADD13R,0.03543X0.03543*%
G04:AMPARAMS|DCode=14|XSize=66.93mil|YSize=43.31mil|CornerRadius=10.83mil|HoleSize=0mil|Usage=FLASHONLY|Rotation=180.000|XOffset=0mil|YOffset=0mil|HoleType=Round|Shape=RoundedRectangle|*
%AMROUNDEDRECTD14*
21,1,0.06693,0.02165,0,0,180.0*
21,1,0.04528,0.04331,0,0,180.0*
1,1,0.02165,-0.02264,0.01083*
1,1,0.02165,0.02264,0.01083*
1,1,0.02165,0.02264,-0.01083*
1,1,0.02165,-0.02264,-0.01083*
%
%ADD14ROUNDEDRECTD14*%
G04:AMPARAMS|DCode=15|XSize=66.93mil|YSize=43.31mil|CornerRadius=10.83mil|HoleSize=0mil|Usage=FLASHONLY|Rotation=270.000|XOffset=0mil|YOffset=0mil|HoleType=Round|Shape=RoundedRectangle|*
%AMROUNDEDRECTD15*
21,1,0.06693,0.02165,0,0,270.0*
21,1,0.04528,0.04331,0,0,270.0*
1,1,0.02165,-0.01083,-0.02264*
1,1,0.02165,-0.01083,0.02264*
1,1,0.02165,0.01083,0.02264*
1,1,0.02165,0.01083,-0.02264*
%
%ADD15ROUNDEDRECTD15*%
%ADD16R,0.04724X0.19685*%
%ADD17R,0.04724X0.05315*%
G04:AMPARAMS|DCode=18|XSize=35.43mil|YSize=31.5mil|CornerRadius=7.87mil|HoleSize=0mil|Usage=FLASHONLY|Rotation=270.000|XOffset=0mil|YOffset=0mil|HoleType=Round|Shape=RoundedRectangle|*
%AMROUNDEDRECTD18*
21,1,0.03543,0.01575,0,0,270.0*
21,1,0.01969,0.03150,0,0,270.0*
1,1,0.01575,-0.00787,-0.00984*
1,1,0.01575,-0.00787,0.00984*
1,1,0.01575,0.00787,0.00984*
1,1,0.01575,0.00787,-0.00984*
%
%ADD18ROUNDEDRECTD18*%
G04:AMPARAMS|DCode=19|XSize=59.06mil|YSize=47.24mil|CornerRadius=11.81mil|HoleSize=0mil|Usage=FLASHONLY|Rotation=90.000|XOffset=0mil|YOffset=0mil|HoleType=Round|Shape=RoundedRectangle|*
%AMROUNDEDRECTD19*
21,1,0.05906,0.02362,0,0,90.0*
21,1,0.03543,0.04724,0,0,90.0*
1,1,0.02362,0.01181,0.01772*
1,1,0.02362,0.01181,-0.01772*
1,1,0.02362,-0.01181,-0.01772*
1,1,0.02362,-0.01181,0.01772*
%
%ADD19ROUNDEDRECTD19*%
G04:AMPARAMS|DCode=20|XSize=35.43mil|YSize=31.5mil|CornerRadius=7.87mil|HoleSize=0mil|Usage=FLASHONLY|Rotation=0.000|XOffset=0mil|YOffset=0mil|HoleType=Round|Shape=RoundedRectangle|*
%AMROUNDEDRECTD20*
21,1,0.03543,0.01575,0,0,0.0*
21,1,0.01969,0.03150,0,0,0.0*
1,1,0.01575,0.00984,-0.00787*
1,1,0.01575,-0.00984,-0.00787*
1,1,0.01575,-0.00984,0.00787*
1,1,0.01575,0.00984,0.00787*
%
%ADD20ROUNDEDRECTD20*%
%ADD21O,0.08661X0.02362*%
%ADD22R,0.04134X0.02362*%
%ADD23R,0.03150X0.03543*%
%ADD24R,0.05512X0.03150*%
%ADD25R,0.04331X0.02559*%
%ADD26R,0.04528X0.02362*%
%ADD27R,0.02362X0.04528*%
%ADD28C,0.05315*%
G04:AMPARAMS|DCode=29|XSize=53.15mil|YSize=53.15mil|CornerRadius=13.29mil|HoleSize=0mil|Usage=FLASHONLY|Rotation=180.000|XOffset=0mil|YOffset=0mil|HoleType=Round|Shape=RoundedRectangle|*
%AMROUNDEDRECTD29*
21,1,0.05315,0.02658,0,0,180.0*
21,1,0.02658,0.05315,0,0,180.0*
1,1,0.02658,-0.01329,0.01329*
1,1,0.02658,0.01329,0.01329*
1,1,0.02658,0.01329,-0.01329*
1,1,0.02658,-0.01329,-0.01329*
%
%ADD29ROUNDEDRECTD29*%
%ADD30C,0.05512*%
G04:AMPARAMS|DCode=31|XSize=59.06mil|YSize=59.06mil|CornerRadius=14.76mil|HoleSize=0mil|Usage=FLASHONLY|Rotation=0.000|XOffset=0mil|YOffset=0mil|HoleType=Round|Shape=RoundedRectangle|*
%AMROUNDEDRECTD31*
21,1,0.05906,0.02953,0,0,0.0*
21,1,0.02953,0.05906,0,0,0.0*
1,1,0.02953,0.01476,-0.01476*
1,1,0.02953,-0.01476,-0.01476*
1,1,0.02953,-0.01476,0.01476*
1,1,0.02953,0.01476,0.01476*
%
%ADD31ROUNDEDRECTD31*%
%ADD32C,0.05906*%
G04:AMPARAMS|DCode=33|XSize=59.06mil|YSize=59.06mil|CornerRadius=14.76mil|HoleSize=0mil|Usage=FLASHONLY|Rotation=90.000|XOffset=0mil|YOffset=0mil|HoleType=Round|Shape=RoundedRectangle|*
%AMROUNDEDRECTD33*
21,1,0.05906,0.02953,0,0,90.0*
21,1,0.02953,0.05906,0,0,90.0*
1,1,0.02953,0.01476,0.01476*
1,1,0.02953,0.01476,-0.01476*
1,1,0.02953,-0.01476,-0.01476*
1,1,0.02953,-0.01476,0.01476*
%
%ADD33ROUNDEDRECTD33*%
%ADD34R,0.05906X0.05906*%
%ADD35C,0.03543*%
%ADD36C,0.03937*%
G36*
X196752Y116535D02*
X198917Y114370D01*
Y112221D01*
X195949D01*
Y101878D01*
X199311D01*
Y100878D01*
X195949D01*
Y90535D01*
X198917D01*
Y61417D01*
X193722Y56222D01*
X193224Y56271D01*
X193207Y56297D01*
X192751Y56601D01*
Y62920D01*
X193053Y63287D01*
X198228D01*
Y67618D01*
X195370D01*
X193243Y69744D01*
Y76870D01*
X194783D01*
Y84153D01*
X188091D01*
Y76870D01*
X189631D01*
Y71750D01*
X189370Y71358D01*
X182874D01*
Y67028D01*
X184469D01*
X184845Y66465D01*
X186954Y64356D01*
X186763Y63894D01*
X186622D01*
Y61713D01*
Y59531D01*
X189139D01*
Y56601D01*
X188683Y56297D01*
X188292Y55711D01*
X188249Y55497D01*
X187740D01*
X187715Y55619D01*
X187320Y56210D01*
X186729Y56605D01*
X186031Y56744D01*
X185547D01*
Y54134D01*
X185047D01*
Y53634D01*
X182241D01*
Y53347D01*
X182357Y52764D01*
X182081Y52264D01*
X159449D01*
X156102Y55610D01*
Y66224D01*
X156203Y66245D01*
X156789Y66636D01*
X157181Y67222D01*
X157225Y67447D01*
X157735D01*
X157780Y67222D01*
X158171Y66636D01*
X158757Y66245D01*
X159449Y66107D01*
X161024D01*
X161122Y66127D01*
X161221Y66107D01*
X163785D01*
X163801Y66024D01*
X164258Y65341D01*
X164942Y64884D01*
X165748Y64723D01*
X170276D01*
X171082Y64884D01*
X171766Y65341D01*
X172223Y66024D01*
X172383Y66831D01*
Y68996D01*
X172223Y69802D01*
X171827Y70395D01*
X171903Y70762D01*
X171990Y70938D01*
X172148Y70969D01*
X172734Y71361D01*
X173126Y71947D01*
X173170Y72171D01*
X173680D01*
X173725Y71947D01*
X174117Y71361D01*
X174375Y71188D01*
Y70703D01*
X173904Y70388D01*
X173447Y69704D01*
X173286Y68898D01*
Y66732D01*
X173447Y65926D01*
X173904Y65242D01*
X174587Y64785D01*
X175394Y64625D01*
X179921D01*
X180728Y64785D01*
X181411Y65242D01*
X181868Y65926D01*
X182029Y66732D01*
Y68898D01*
X181871Y69690D01*
X182003Y70355D01*
Y76398D01*
X182476Y76870D01*
X186909D01*
Y84153D01*
X180217D01*
Y79720D01*
X179497Y79001D01*
X179035Y79192D01*
Y84153D01*
X172343D01*
Y76870D01*
X175130D01*
X175179Y76370D01*
X174703Y76275D01*
X174117Y75884D01*
X173725Y75298D01*
X173680Y75073D01*
X173170D01*
X173126Y75298D01*
X172734Y75884D01*
X172148Y76275D01*
X171457Y76413D01*
X171264D01*
X171161Y76870D01*
X171161Y76913D01*
Y84153D01*
X164469D01*
Y76870D01*
X169618D01*
X169668Y76370D01*
X169191Y76275D01*
X168605Y75884D01*
X168213Y75298D01*
X168076Y74606D01*
Y73583D01*
X166735Y72242D01*
X166343Y71656D01*
X166233Y71104D01*
X165748D01*
X164942Y70943D01*
X164258Y70486D01*
X163801Y69802D01*
X163785Y69720D01*
X162830D01*
Y69882D01*
X162692Y70573D01*
X162301Y71159D01*
X161715Y71551D01*
X161024Y71688D01*
X159449D01*
X158757Y71551D01*
X158171Y71159D01*
X157780Y70573D01*
X157735Y70348D01*
X157225D01*
X157181Y70573D01*
X156789Y71159D01*
X156203Y71551D01*
X156102Y71571D01*
Y116280D01*
X156456Y116633D01*
X196752Y116535D01*
D02*
G37*
G36*
X97539Y94784D02*
X100591Y91732D01*
X105373D01*
X105496Y91639D01*
X105763Y91255D01*
X105683Y90650D01*
X105785Y89879D01*
X106082Y89161D01*
X106555Y88544D01*
X107172Y88070D01*
X107891Y87773D01*
X108661Y87671D01*
X109036Y87721D01*
X113986Y82771D01*
Y38814D01*
X66693D01*
X42813Y62695D01*
X42227Y63086D01*
X41535Y63224D01*
X21365D01*
X21061Y63679D01*
X20475Y64070D01*
X19783Y64208D01*
X19730D01*
X19569Y64681D01*
X19737Y64810D01*
X20368Y65633D01*
X20765Y66590D01*
X20900Y67618D01*
X20765Y68646D01*
X20691Y68825D01*
X24112Y72246D01*
X24503Y72832D01*
X24641Y73524D01*
Y99375D01*
X25765D01*
X26456Y99512D01*
X27042Y99904D01*
X36723Y109585D01*
X37558D01*
X38249Y109723D01*
X38835Y110114D01*
X39227Y110700D01*
X39364Y111391D01*
Y112966D01*
X39227Y113658D01*
X38835Y114244D01*
X38249Y114635D01*
X38024Y114680D01*
Y115190D01*
X38249Y115234D01*
X38835Y115626D01*
X39227Y116212D01*
X39364Y116903D01*
Y118478D01*
X39227Y119169D01*
X38835Y119755D01*
X38380Y120060D01*
Y122088D01*
X38243Y122779D01*
X37851Y123365D01*
X35724Y125492D01*
X39152Y128920D01*
X55216Y129035D01*
X97539D01*
Y94784D01*
D02*
G37*
G36*
X33465Y117815D02*
X33783Y117447D01*
Y116903D01*
X33921Y116212D01*
X34312Y115626D01*
X34898Y115234D01*
X35123Y115190D01*
Y114680D01*
X34898Y114635D01*
X34312Y114244D01*
X33921Y113658D01*
X33783Y112966D01*
Y111754D01*
X28843Y106814D01*
X28381Y107005D01*
Y107579D01*
X28244Y108270D01*
X27852Y108856D01*
X27594Y109029D01*
Y110853D01*
X27852Y111026D01*
X28244Y111612D01*
X28381Y112303D01*
Y113327D01*
X32577Y117522D01*
X32772Y117815D01*
X33465D01*
D02*
G37*
G36*
X11028Y59742D02*
X11420Y59156D01*
X12006Y58764D01*
X12697Y58627D01*
X13246D01*
X13345Y58127D01*
X12483Y57770D01*
X11661Y57139D01*
X11029Y56316D01*
X10633Y55358D01*
X10498Y54331D01*
X10633Y53303D01*
X10707Y53124D01*
X9952Y52369D01*
X9479Y52530D01*
X9446Y52780D01*
X9049Y53737D01*
X8418Y54560D01*
X7596Y55191D01*
X6638Y55588D01*
X5610Y55723D01*
X5002Y55643D01*
X4626Y55972D01*
Y57531D01*
X5002Y57861D01*
X5610Y57781D01*
X6638Y57916D01*
X7596Y58313D01*
X8418Y58944D01*
X9049Y59767D01*
X9123Y59946D01*
X10987D01*
X11028Y59742D01*
D02*
G37*
G36*
X123721Y82382D02*
Y41925D01*
X118060Y36265D01*
X117598Y36456D01*
Y37598D01*
Y83519D01*
X117461Y84210D01*
X117069Y84796D01*
X116107Y85759D01*
X116298Y86221D01*
X119882D01*
X123721Y82382D01*
D02*
G37*
G36*
X60435Y20376D02*
X61021Y19985D01*
X61713Y19847D01*
X89987D01*
X90160Y19589D01*
X90746Y19197D01*
X90930Y19161D01*
Y18651D01*
X90740Y18613D01*
X90148Y18218D01*
X89753Y17627D01*
X89615Y16929D01*
Y16642D01*
X95228D01*
Y16929D01*
X95089Y17627D01*
X94694Y18218D01*
X94103Y18613D01*
X93912Y18651D01*
Y19161D01*
X94097Y19197D01*
X94683Y19589D01*
X95074Y20175D01*
X95212Y20866D01*
Y20930D01*
X96638D01*
Y19496D01*
X99705D01*
Y18496D01*
X96638D01*
Y16815D01*
X96653D01*
Y13091D01*
X102756D01*
Y13450D01*
X103642D01*
X104333Y13587D01*
X104919Y13979D01*
X105587Y14646D01*
X106087Y14439D01*
Y13075D01*
X108653D01*
Y15256D01*
Y17437D01*
X106531D01*
Y20571D01*
X108819D01*
X109239Y20290D01*
X109931Y20153D01*
X113358D01*
X113531Y19894D01*
X114117Y19503D01*
X114301Y19466D01*
Y18956D01*
X114111Y18918D01*
X113519Y18523D01*
X113124Y17932D01*
X112985Y17235D01*
Y16947D01*
X115792D01*
X118599D01*
Y17235D01*
X118460Y17932D01*
X118065Y18523D01*
X117474Y18918D01*
X117283Y18956D01*
Y19466D01*
X117468Y19503D01*
X118054Y19894D01*
X118445Y20481D01*
X118583Y21172D01*
Y22747D01*
X118445Y23438D01*
X118054Y24024D01*
X117598Y24328D01*
Y30694D01*
X123258Y36354D01*
X123721Y36162D01*
Y5709D01*
X123222Y5210D01*
X5908Y7300D01*
X5880Y7801D01*
X6642Y7901D01*
X7604Y8299D01*
X8429Y8933D01*
X9063Y9759D01*
X9461Y10720D01*
X9531Y11252D01*
X5610D01*
Y11752D01*
X5110D01*
Y15673D01*
X5002Y15659D01*
X4626Y15988D01*
Y17531D01*
X5002Y17861D01*
X5610Y17781D01*
X6638Y17916D01*
X6747Y17962D01*
X14274Y10435D01*
X14860Y10044D01*
X15551Y9906D01*
X21352D01*
X21656Y9451D01*
X22242Y9059D01*
X22933Y8922D01*
X24508D01*
X25199Y9059D01*
X25785Y9451D01*
X26177Y10037D01*
X26221Y10262D01*
X26731D01*
X26776Y10037D01*
X27168Y9451D01*
X27754Y9059D01*
X28445Y8922D01*
X30020D01*
X30711Y9059D01*
X31297Y9451D01*
X31688Y10037D01*
X31826Y10728D01*
Y10792D01*
X32480D01*
X32713Y10839D01*
X32872Y10733D01*
X33563Y10595D01*
X34254Y10733D01*
X34840Y11124D01*
X35232Y11710D01*
X35369Y12402D01*
Y20669D01*
X35232Y21361D01*
X35173Y21449D01*
X35440Y21949D01*
X35630D01*
Y25673D01*
X35646D01*
Y27453D01*
X32480D01*
X29315D01*
Y25673D01*
X29331D01*
Y21949D01*
X30495D01*
X30575Y21850D01*
X30674Y21356D01*
Y20640D01*
X30174Y20256D01*
X29823Y20326D01*
X29535D01*
Y17520D01*
X28535D01*
Y20326D01*
X28248D01*
X27551Y20188D01*
X26959Y19793D01*
X26564Y19201D01*
X26526Y19011D01*
X26017D01*
X25980Y19195D01*
X25588Y19781D01*
X25330Y19954D01*
Y21949D01*
X26181D01*
Y26476D01*
X19882D01*
Y21949D01*
X21046D01*
X21127Y21850D01*
Y19284D01*
X21067Y19195D01*
X20930Y18504D01*
Y16535D01*
X21067Y15844D01*
X21459Y15258D01*
X22045Y14867D01*
X22134Y14849D01*
X22200Y14550D01*
X22186Y14329D01*
X21656Y13974D01*
X21352Y13519D01*
X16299D01*
X9343Y20475D01*
X9446Y20724D01*
X9581Y21752D01*
X9446Y22780D01*
X9049Y23738D01*
X8418Y24560D01*
X7596Y25191D01*
X6638Y25588D01*
X5610Y25723D01*
X5002Y25643D01*
X4626Y25973D01*
Y27531D01*
X5002Y27861D01*
X5610Y27781D01*
X6638Y27916D01*
X7596Y28313D01*
X8418Y28944D01*
X9049Y29766D01*
X9148Y30005D01*
X13110D01*
X13646Y29469D01*
Y28445D01*
X13784Y27754D01*
X14175Y27168D01*
X14762Y26776D01*
X14946Y26739D01*
Y26230D01*
X14755Y26192D01*
X14164Y25797D01*
X13769Y25205D01*
X13630Y24508D01*
Y24221D01*
X19244D01*
Y24508D01*
X19105Y25205D01*
X18710Y25797D01*
X18119Y26192D01*
X17928Y26230D01*
Y26739D01*
X18113Y26776D01*
X18699Y27168D01*
X19090Y27754D01*
X19228Y28445D01*
Y29146D01*
X19718Y29493D01*
X19882Y29429D01*
Y29429D01*
X26181D01*
Y33957D01*
X19882D01*
Y33696D01*
X19094D01*
X18403Y33559D01*
X17817Y33167D01*
X16476Y31826D01*
X16398D01*
X15136Y33088D01*
X14550Y33480D01*
X13858Y33617D01*
X9099D01*
X9049Y33737D01*
X8418Y34560D01*
X7596Y35191D01*
X6638Y35588D01*
X5610Y35723D01*
X5002Y35643D01*
X4626Y35972D01*
Y37531D01*
X5002Y37861D01*
X5610Y37781D01*
X6638Y37916D01*
X7596Y38313D01*
X8418Y38944D01*
X9049Y39766D01*
X9148Y40005D01*
X26142D01*
X31690Y34457D01*
X31569Y34047D01*
X31503Y33957D01*
X29331D01*
Y30232D01*
X29315D01*
Y28453D01*
X32480D01*
X35646D01*
Y29883D01*
X36146Y30000D01*
X44491Y21656D01*
X44464Y21457D01*
X44559Y20737D01*
X44837Y20067D01*
X45279Y19491D01*
X45854Y19049D01*
X46525Y18772D01*
X47244Y18677D01*
X47964Y18772D01*
X48634Y19049D01*
X49210Y19491D01*
X49651Y20067D01*
X49929Y20737D01*
X50024Y21457D01*
X49929Y22176D01*
X49651Y22847D01*
X49210Y23422D01*
X48634Y23864D01*
X47964Y24142D01*
X47244Y24236D01*
X47045Y24210D01*
X45882Y25373D01*
X46062Y25901D01*
X46487Y25957D01*
X47158Y26234D01*
X47733Y26676D01*
X48175Y27252D01*
X48453Y27922D01*
X48547Y28642D01*
X48453Y29361D01*
X48175Y30032D01*
X47733Y30607D01*
X47158Y31049D01*
X46487Y31327D01*
X45768Y31421D01*
X45569Y31395D01*
X40057Y36907D01*
X39471Y37299D01*
X38780Y37436D01*
X33819D01*
X28167Y43088D01*
X27581Y43480D01*
X26890Y43617D01*
X19265D01*
X19095Y44117D01*
X19639Y44535D01*
X20030Y45044D01*
X35767D01*
X60435Y20376D01*
D02*
G37*
G36*
X340256Y22146D02*
X340354Y22047D01*
Y1931D01*
X339999Y1579D01*
X323622Y1772D01*
Y28005D01*
X324033Y28289D01*
X340256Y22146D01*
D02*
G37*
G36*
X182410Y50181D02*
X182392Y50090D01*
X182257Y49409D01*
Y47835D01*
X182394Y47143D01*
X182786Y46557D01*
X183372Y46166D01*
X184063Y46028D01*
X186031D01*
X186723Y46166D01*
X187309Y46557D01*
X187700Y47143D01*
X187751Y47398D01*
X188261D01*
X188292Y47242D01*
X188683Y46656D01*
X188719Y46293D01*
X181772Y39346D01*
X178655D01*
X178306Y39579D01*
X177461Y39747D01*
X171161D01*
X170317Y39579D01*
X169600Y39101D01*
X169122Y38384D01*
X168954Y37539D01*
X169122Y36694D01*
X169600Y35978D01*
X170317Y35500D01*
X171161Y35332D01*
X177461D01*
X178306Y35500D01*
X178655Y35733D01*
X182520D01*
X183211Y35871D01*
X183797Y36262D01*
X190454Y42919D01*
X190846Y42800D01*
X190945Y42703D01*
X190945Y41724D01*
X190945Y5315D01*
X190945D01*
X190673Y5096D01*
X190087Y4715D01*
X189468Y4393D01*
X188820Y4133D01*
X188525Y4047D01*
X185041Y4109D01*
X185029Y4111D01*
X184547Y4232D01*
X184168Y4125D01*
X183753Y4132D01*
X183658Y4228D01*
X168620Y4402D01*
X141507Y4885D01*
X141373Y5387D01*
X141840Y5700D01*
X142235Y6291D01*
X142374Y6988D01*
Y7276D01*
X136760D01*
Y6988D01*
X136899Y6291D01*
X137294Y5700D01*
X137662Y5453D01*
X137507Y4956D01*
X131667Y5060D01*
X131004Y5315D01*
X129528D01*
Y39926D01*
X131988D01*
X131991Y39921D01*
X132567Y39479D01*
X133237Y39202D01*
X133957Y39107D01*
X134676Y39202D01*
X134777Y39243D01*
X135630Y38390D01*
Y34350D01*
X143110D01*
Y39469D01*
X139661D01*
X136660Y42470D01*
X136642Y42606D01*
X136364Y43277D01*
X135922Y43852D01*
X135346Y44294D01*
X134676Y44572D01*
X133957Y44666D01*
X133237Y44572D01*
X132567Y44294D01*
X131991Y43852D01*
X131751Y43539D01*
X129528D01*
Y49114D01*
X131004Y50591D01*
X182126D01*
X182410Y50181D01*
D02*
G37*
G36*
X16540Y59742D02*
X16931Y59156D01*
X17517Y58764D01*
X18209Y58627D01*
X19783D01*
X20475Y58764D01*
X21061Y59156D01*
X21365Y59611D01*
X40787D01*
X64668Y35731D01*
X65254Y35339D01*
X65945Y35201D01*
X113986D01*
Y31442D01*
Y24328D01*
X113531Y24024D01*
X113358Y23765D01*
X112205D01*
Y24902D01*
X106102D01*
Y23242D01*
X105602Y23035D01*
X104624Y24013D01*
X104038Y24405D01*
X103347Y24543D01*
X102756D01*
Y24902D01*
X96653D01*
Y24543D01*
X93504D01*
X92813Y24405D01*
X92576Y24247D01*
X91437D01*
X90746Y24110D01*
X90160Y23718D01*
X89987Y23460D01*
X62461D01*
X37793Y48128D01*
X37207Y48519D01*
X36516Y48657D01*
X20548D01*
X20270Y49328D01*
X19639Y50150D01*
X18816Y50782D01*
X17858Y51178D01*
X17651Y51205D01*
X17441Y51737D01*
X17908Y52345D01*
X18304Y53303D01*
X18440Y54331D01*
X18304Y55358D01*
X17908Y56316D01*
X17276Y57139D01*
X16454Y57770D01*
X15496Y58166D01*
X14909Y58244D01*
X14892Y58750D01*
X14963Y58764D01*
X15549Y59156D01*
X15940Y59742D01*
X15985Y59967D01*
X16495D01*
X16540Y59742D01*
D02*
G37*
G36*
X25394Y126673D02*
X26221D01*
X26413Y126211D01*
X24512Y124311D01*
X21654D01*
Y117815D01*
X25984D01*
Y120674D01*
X28634Y123323D01*
X29134Y123116D01*
Y119188D01*
X26023Y116078D01*
X25000D01*
X24309Y115940D01*
X23723Y115549D01*
X23331Y114963D01*
X23294Y114778D01*
X22785D01*
X22747Y114969D01*
X22352Y115560D01*
X21760Y115955D01*
X21063Y116094D01*
X20776D01*
Y113287D01*
Y110481D01*
X21063D01*
X21760Y110619D01*
X22352Y111014D01*
X22747Y111606D01*
X22785Y111796D01*
X23294D01*
X23331Y111612D01*
X23723Y111026D01*
X23981Y110853D01*
Y109029D01*
X23723Y108856D01*
X23331Y108270D01*
X23286Y108045D01*
X22777D01*
X22732Y108270D01*
X22340Y108856D01*
X21754Y109248D01*
X21063Y109385D01*
X19488D01*
X18797Y109248D01*
X18211Y108856D01*
X17819Y108270D01*
X17682Y107579D01*
Y105610D01*
X17819Y104919D01*
X18211Y104333D01*
X18469Y104160D01*
Y103740D01*
X18607Y103049D01*
X18998Y102463D01*
X21028Y100433D01*
Y74272D01*
X18136Y71380D01*
X17957Y71454D01*
X16929Y71589D01*
X15901Y71454D01*
X14944Y71057D01*
X14121Y70426D01*
X13490Y69604D01*
X13093Y68646D01*
X12958Y67618D01*
X13093Y66590D01*
X13490Y65633D01*
X14121Y64810D01*
X14254Y64708D01*
X14085Y64208D01*
X12697D01*
X12006Y64070D01*
X11420Y63679D01*
X11339Y63558D01*
X9123D01*
X9049Y63737D01*
X8418Y64560D01*
X7596Y65191D01*
X6638Y65588D01*
X5610Y65723D01*
X5002Y65643D01*
X4626Y65973D01*
Y67815D01*
X9547D01*
Y75689D01*
X7318D01*
Y115590D01*
X19843Y128115D01*
X25394D01*
Y126673D01*
D02*
G37*
G36*
X99705Y152264D02*
X99819Y147898D01*
X99470Y147539D01*
X97638D01*
Y147377D01*
X43996D01*
X43305Y147240D01*
X42719Y146848D01*
X40000Y144129D01*
X30817D01*
X30656Y144603D01*
X30710Y144644D01*
X31312Y145429D01*
X31691Y146342D01*
X31754Y146823D01*
X28032D01*
Y147823D01*
X31754D01*
X31691Y148303D01*
X31312Y149217D01*
X30710Y150002D01*
X29926Y150604D01*
X29117Y150938D01*
X29212Y151441D01*
X94240Y152863D01*
X98357Y152938D01*
X99705Y152264D01*
D02*
G37*
G36*
X97638Y142028D02*
X99972D01*
X100000Y140945D01*
X96653Y137598D01*
X60728D01*
X31614Y138488D01*
X31312Y139217D01*
X30710Y140002D01*
X30656Y140043D01*
X30817Y140516D01*
X40748D01*
X41439Y140654D01*
X42025Y141045D01*
X44744Y143764D01*
X97638D01*
Y142028D01*
D02*
G37*
G36*
X109158Y138779D02*
X106167Y135789D01*
X105060D01*
X104369Y135651D01*
X104043Y135434D01*
X103543Y135701D01*
Y142028D01*
X105910D01*
X109158Y138779D01*
D02*
G37*
G36*
X340748Y139862D02*
X340650Y139764D01*
X324276Y130705D01*
X323845Y130959D01*
X323787Y156142D01*
X324141Y156496D01*
X340748Y156496D01*
Y139862D01*
D02*
G37*
G36*
X283563Y152362D02*
X283853Y131360D01*
X283502Y131004D01*
X278810D01*
X278710Y131504D01*
X279040Y131641D01*
X279824Y132243D01*
X280427Y133027D01*
X280805Y133941D01*
X280868Y134421D01*
X273423D01*
X273486Y133941D01*
X273500Y133909D01*
X273321Y133729D01*
X273100Y133568D01*
X272146Y133694D01*
X271192Y133568D01*
X270971Y133729D01*
X270792Y133909D01*
X270805Y133941D01*
X270868Y134421D01*
X263423D01*
X263487Y133941D01*
X263865Y133027D01*
X263943Y132926D01*
X263566Y132596D01*
X253937Y142224D01*
X145079D01*
Y99705D01*
X139862Y94488D01*
X103543D01*
Y130295D01*
X104043Y130563D01*
X104369Y130345D01*
X105060Y130208D01*
X106635D01*
X107326Y130345D01*
X107912Y130737D01*
X108304Y131323D01*
X108441Y132014D01*
Y132954D01*
X112461Y136973D01*
X118680D01*
X118802Y136814D01*
X119378Y136372D01*
X120048Y136095D01*
X120768Y136000D01*
X121487Y136095D01*
X122158Y136372D01*
X122733Y136814D01*
X123175Y137390D01*
X123453Y138060D01*
X123547Y138779D01*
X123453Y139499D01*
X123175Y140169D01*
X122733Y140745D01*
X122158Y141187D01*
X121487Y141464D01*
X120768Y141559D01*
X120048Y141464D01*
X119378Y141187D01*
X118802Y140745D01*
X118680Y140586D01*
X112461D01*
X108268Y144779D01*
Y147539D01*
X103543D01*
Y152953D01*
X141240Y153642D01*
X141588Y153579D01*
X141638Y153642D01*
X145079D01*
X230801Y155335D01*
X279705Y156220D01*
X283563Y152362D01*
D02*
G37*
%LPC*%
G36*
X185622Y63894D02*
X182858D01*
Y62213D01*
X185622D01*
Y63894D01*
D02*
G37*
G36*
X159835Y100878D02*
X156973D01*
Y90535D01*
X159835D01*
Y100878D01*
D02*
G37*
G36*
X170276Y60490D02*
X168512D01*
Y57784D01*
X172399D01*
Y58366D01*
X172237Y59179D01*
X171777Y59868D01*
X171088Y60328D01*
X170276Y60490D01*
D02*
G37*
G36*
X185622Y61213D02*
X182858D01*
Y59531D01*
X185622D01*
Y61213D01*
D02*
G37*
G36*
X163697Y100878D02*
X160835D01*
Y90535D01*
X163697D01*
Y100878D01*
D02*
G37*
G36*
X159835Y112221D02*
X156973D01*
Y101878D01*
X159835D01*
Y112221D01*
D02*
G37*
G36*
X163697D02*
X160835D01*
Y101878D01*
X163697D01*
Y112221D01*
D02*
G37*
G36*
X167512Y60490D02*
X165748D01*
X164935Y60328D01*
X164246Y59868D01*
X163786Y59179D01*
X163625Y58366D01*
Y57784D01*
X167512D01*
Y60490D01*
D02*
G37*
G36*
Y56783D02*
X163625D01*
Y56201D01*
X163786Y55388D01*
X164246Y54699D01*
X164935Y54239D01*
X165748Y54077D01*
X167512D01*
Y56783D01*
D02*
G37*
G36*
X172399D02*
X168512D01*
Y54077D01*
X170276D01*
X171088Y54239D01*
X171777Y54699D01*
X172237Y55388D01*
X172399Y56201D01*
Y56783D01*
D02*
G37*
G36*
X177157Y56685D02*
X173270D01*
Y56102D01*
X173432Y55290D01*
X173892Y54601D01*
X174581Y54141D01*
X175394Y53979D01*
X177157D01*
Y56685D01*
D02*
G37*
G36*
X184547Y56744D02*
X184063D01*
X183366Y56605D01*
X182774Y56210D01*
X182492Y55787D01*
X182021Y55982D01*
X182045Y56102D01*
Y56685D01*
X178157D01*
Y53979D01*
X179921D01*
X180734Y54141D01*
X181423Y54601D01*
X181771Y55121D01*
X182242Y54926D01*
X182241Y54921D01*
Y54634D01*
X184547D01*
Y56744D01*
D02*
G37*
G36*
X179921Y60391D02*
X178157D01*
Y57685D01*
X182045D01*
Y58268D01*
X181883Y59080D01*
X181423Y59769D01*
X180734Y60229D01*
X179921Y60391D01*
D02*
G37*
G36*
X177157D02*
X175394D01*
X174581Y60229D01*
X173892Y59769D01*
X173432Y59080D01*
X173270Y58268D01*
Y57685D01*
X177157D01*
Y60391D01*
D02*
G37*
G36*
X6110Y15673D02*
Y12252D01*
X9531D01*
X9461Y12784D01*
X9063Y13745D01*
X8429Y14571D01*
X7604Y15205D01*
X6642Y15603D01*
X6110Y15673D01*
D02*
G37*
G36*
X95228Y15642D02*
X92921D01*
Y13532D01*
X93405D01*
X94103Y13671D01*
X94694Y14066D01*
X95089Y14657D01*
X95228Y15354D01*
Y15642D01*
D02*
G37*
G36*
X115292Y15947D02*
X112985D01*
Y15660D01*
X113124Y14963D01*
X113519Y14371D01*
X114111Y13976D01*
X114808Y13837D01*
X115292D01*
Y15947D01*
D02*
G37*
G36*
X112221Y14756D02*
X109653D01*
Y13075D01*
X112221D01*
Y14756D01*
D02*
G37*
G36*
X91921Y15642D02*
X89615D01*
Y15354D01*
X89753Y14657D01*
X90148Y14066D01*
X90740Y13671D01*
X91437Y13532D01*
X91921D01*
Y15642D01*
D02*
G37*
G36*
X15937Y23221D02*
X13630D01*
Y22933D01*
X13769Y22236D01*
X14164Y21645D01*
X14755Y21249D01*
X15453Y21111D01*
X15937D01*
Y23221D01*
D02*
G37*
G36*
X19244D02*
X16937D01*
Y21111D01*
X17421D01*
X18119Y21249D01*
X18710Y21645D01*
X19105Y22236D01*
X19244Y22933D01*
Y23221D01*
D02*
G37*
G36*
X118599Y15947D02*
X116292D01*
Y13837D01*
X116776D01*
X117474Y13976D01*
X118065Y14371D01*
X118460Y14963D01*
X118599Y15660D01*
Y15947D01*
D02*
G37*
G36*
X112221Y17437D02*
X109653D01*
Y15756D01*
X112221D01*
Y17437D01*
D02*
G37*
G36*
X185386Y26173D02*
X183080D01*
Y24063D01*
X183564D01*
X184261Y24202D01*
X184853Y24597D01*
X185248Y25188D01*
X185386Y25886D01*
Y26173D01*
D02*
G37*
G36*
X147736Y47082D02*
X145768D01*
X145077Y46944D01*
X144491Y46553D01*
X144099Y45967D01*
X143961Y45276D01*
Y43701D01*
X144099Y43009D01*
X144491Y42423D01*
X145077Y42032D01*
X145261Y41995D01*
Y41485D01*
X145070Y41447D01*
X144479Y41052D01*
X144084Y40461D01*
X143945Y39764D01*
Y39476D01*
X149559D01*
Y39764D01*
X149420Y40461D01*
X149025Y41052D01*
X148434Y41447D01*
X148243Y41485D01*
Y41995D01*
X148428Y42032D01*
X149014Y42423D01*
X149186Y42682D01*
X149939D01*
X150056Y42539D01*
X150224Y41695D01*
X150703Y40978D01*
X151419Y40500D01*
X152264Y40332D01*
X158563D01*
X159408Y40500D01*
X160124Y40978D01*
X160603Y41695D01*
X160771Y42539D01*
X160603Y43384D01*
X160124Y44100D01*
X159408Y44579D01*
X158563Y44747D01*
X155760D01*
X154742Y45766D01*
X154156Y46157D01*
X153465Y46295D01*
X149186D01*
X149014Y46553D01*
X148428Y46944D01*
X147736Y47082D01*
D02*
G37*
G36*
X146252Y38476D02*
X143945D01*
Y38189D01*
X144084Y37492D01*
X144479Y36900D01*
X145070Y36505D01*
X145768Y36367D01*
X146252D01*
Y38476D01*
D02*
G37*
G36*
X149559D02*
X147252D01*
Y36367D01*
X147736D01*
X148434Y36505D01*
X149025Y36900D01*
X149420Y37492D01*
X149559Y38189D01*
Y38476D01*
D02*
G37*
G36*
X177461Y44747D02*
X171161D01*
X170317Y44579D01*
X169967Y44346D01*
X168327D01*
X167636Y44208D01*
X167050Y43817D01*
X165963Y42730D01*
X165324Y42646D01*
X164654Y42368D01*
X164078Y41926D01*
X163636Y41350D01*
X163358Y40680D01*
X163264Y39961D01*
X163291Y39753D01*
X162842Y39333D01*
X162776Y39346D01*
X159757D01*
X159408Y39579D01*
X158563Y39747D01*
X152264D01*
X151419Y39579D01*
X150703Y39101D01*
X150224Y38384D01*
X150056Y37539D01*
X150224Y36694D01*
X150703Y35978D01*
X151419Y35500D01*
X152264Y35332D01*
X158563D01*
X159408Y35500D01*
X159757Y35733D01*
X162027D01*
X165287Y32473D01*
X165162Y32286D01*
X165024Y31594D01*
Y22559D01*
X164928Y22481D01*
X164258Y22584D01*
X164171Y22713D01*
X163913Y22886D01*
Y31004D01*
X163775Y31695D01*
X163384Y32281D01*
X162203Y33462D01*
X161617Y33854D01*
X160925Y33991D01*
X160197D01*
X160124Y34100D01*
X159408Y34579D01*
X158563Y34747D01*
X152264D01*
X151419Y34579D01*
X151070Y34346D01*
X149819D01*
X149798Y34451D01*
X149406Y35037D01*
X148820Y35429D01*
X148129Y35566D01*
X146160D01*
X145469Y35429D01*
X144883Y35037D01*
X144492Y34451D01*
X144354Y33760D01*
Y32185D01*
X144492Y31494D01*
X144883Y30908D01*
X145352Y30594D01*
X145442Y30170D01*
X145431Y30014D01*
X145237Y29858D01*
X143110D01*
Y30807D01*
X135630D01*
Y25689D01*
X137761D01*
Y15656D01*
X137305Y15352D01*
X136914Y14766D01*
X136776Y14075D01*
Y12500D01*
X136914Y11809D01*
X137305Y11223D01*
X137891Y10831D01*
X138076Y10794D01*
Y10285D01*
X137885Y10247D01*
X137294Y9852D01*
X136899Y9260D01*
X136760Y8563D01*
Y8276D01*
X142374D01*
Y8563D01*
X142235Y9260D01*
X141840Y9852D01*
X141249Y10247D01*
X141058Y10285D01*
Y10794D01*
X141243Y10831D01*
X141829Y11223D01*
X142220Y11809D01*
X142358Y12500D01*
Y14075D01*
X142220Y14766D01*
X141829Y15352D01*
X141373Y15656D01*
Y25689D01*
X143110D01*
Y26245D01*
X144439D01*
X144492Y25982D01*
X144883Y25396D01*
X145469Y25004D01*
X146160Y24867D01*
X148129D01*
X148820Y25004D01*
X149406Y25396D01*
X149632Y25733D01*
X151070D01*
X151419Y25500D01*
X152264Y25332D01*
X158563D01*
X159408Y25500D01*
X159800Y25762D01*
X160300Y25495D01*
Y22886D01*
X160042Y22713D01*
X159650Y22127D01*
X159513Y21436D01*
Y20413D01*
X153567Y14467D01*
X153068Y14500D01*
X152853Y14781D01*
X152093Y15364D01*
X151207Y15731D01*
X150256Y15856D01*
X149305Y15731D01*
X148419Y15364D01*
X147659Y14781D01*
X147075Y14020D01*
X146708Y13134D01*
X146583Y12183D01*
X146708Y11232D01*
X147075Y10347D01*
X147659Y9586D01*
X148419Y9002D01*
X149305Y8635D01*
X150256Y8510D01*
X151207Y8635D01*
X152093Y9002D01*
X152853Y9586D01*
X153437Y10347D01*
X153449Y10377D01*
X153838D01*
X154529Y10514D01*
X155115Y10906D01*
X161871Y17661D01*
X162894D01*
X163585Y17799D01*
X164171Y18190D01*
X164563Y18776D01*
X164608Y19001D01*
X165117D01*
X165162Y18776D01*
X165554Y18190D01*
X166140Y17799D01*
X166831Y17661D01*
X167854D01*
X174610Y10906D01*
X175196Y10514D01*
X175876Y10379D01*
X175961Y9952D01*
X176472Y9187D01*
X177237Y8676D01*
X178140Y8496D01*
X180797D01*
X181700Y8676D01*
X182465Y9187D01*
X182976Y9952D01*
X183156Y10854D01*
Y13512D01*
X182976Y14414D01*
X182465Y15179D01*
X181700Y15691D01*
X180797Y15870D01*
X178140D01*
X177237Y15691D01*
X176472Y15179D01*
X176280Y14891D01*
X175782Y14842D01*
X170212Y20413D01*
Y21436D01*
X170075Y22127D01*
X169683Y22713D01*
X169097Y23105D01*
X168637Y23196D01*
Y26315D01*
X168720Y26374D01*
X169399Y26251D01*
X169589Y25967D01*
X170310Y25485D01*
X171161Y25316D01*
X173811D01*
Y27539D01*
X174811D01*
Y25316D01*
X177461D01*
X178312Y25485D01*
X179033Y25967D01*
X179273Y26326D01*
X179773Y26174D01*
Y25886D01*
X179912Y25188D01*
X180307Y24597D01*
X180898Y24202D01*
X181596Y24063D01*
X182080D01*
Y26673D01*
X182580D01*
Y27173D01*
X185386D01*
Y27461D01*
X185248Y28158D01*
X184853Y28749D01*
X184261Y29144D01*
X184071Y29182D01*
Y29692D01*
X184255Y29729D01*
X184841Y30120D01*
X185233Y30706D01*
X185370Y31398D01*
Y32972D01*
X185233Y33664D01*
X184841Y34250D01*
X184255Y34641D01*
X183564Y34779D01*
X181596D01*
X180904Y34641D01*
X180318Y34250D01*
X180146Y33991D01*
X179095D01*
X179022Y34100D01*
X178306Y34579D01*
X177461Y34747D01*
X171161D01*
X170317Y34579D01*
X169967Y34346D01*
X168524D01*
X166176Y36694D01*
X166355Y37222D01*
X166763Y37276D01*
X167433Y37553D01*
X168009Y37995D01*
X168451Y38571D01*
X168728Y39241D01*
X168823Y39961D01*
X168771Y40359D01*
X169115Y40733D01*
X169967D01*
X170317Y40500D01*
X171161Y40332D01*
X177461D01*
X178306Y40500D01*
X179022Y40978D01*
X179500Y41695D01*
X179668Y42539D01*
X179500Y43384D01*
X179022Y44100D01*
X178306Y44579D01*
X177461Y44747D01*
D02*
G37*
G36*
X19776Y112787D02*
X17666D01*
Y112303D01*
X17805Y111606D01*
X18200Y111014D01*
X18791Y110619D01*
X19488Y110481D01*
X19776D01*
Y112787D01*
D02*
G37*
G36*
Y116094D02*
X19488D01*
X18791Y115955D01*
X18200Y115560D01*
X17805Y114969D01*
X17666Y114272D01*
Y113787D01*
X19776D01*
Y116094D01*
D02*
G37*
G36*
X277646Y138644D02*
Y135421D01*
X280868D01*
X280805Y135902D01*
X280427Y136815D01*
X279824Y137600D01*
X279040Y138202D01*
X278126Y138581D01*
X277646Y138644D01*
D02*
G37*
G36*
X276646D02*
X276165Y138581D01*
X275252Y138202D01*
X274467Y137600D01*
X273865Y136815D01*
X273486Y135902D01*
X273423Y135421D01*
X276646D01*
Y138644D01*
D02*
G37*
G36*
X266646D02*
X266165Y138581D01*
X265251Y138202D01*
X264467Y137600D01*
X263865Y136815D01*
X263487Y135902D01*
X263423Y135421D01*
X266646D01*
Y138644D01*
D02*
G37*
G36*
X267646D02*
Y135421D01*
X270868D01*
X270805Y135902D01*
X270427Y136815D01*
X269824Y137600D01*
X269040Y138202D01*
X268126Y138581D01*
X267646Y138644D01*
D02*
G37*
%LPD*%
D10*
X217126Y129232D02*
G03*
X216634Y128044I1188J-1188D01*
G01*
X223141Y121485D02*
G03*
X224213Y118898I3659J0D01*
G01*
X223141Y129840D02*
G03*
X222047Y132480I-3734J0D01*
G01*
D02*
G03*
X216582Y134744I-5465J-5465D01*
G01*
X212312Y134086D02*
G03*
X209433Y132169I3337J-8133D01*
G01*
X215650Y134744D02*
G03*
X212312Y134086I0J-8792D01*
G01*
X252535Y121087D02*
G03*
X245464Y124016I-7071J-7071D01*
G01*
X244094Y120768D02*
G03*
X243677Y121776I-1426J0D01*
G01*
X241437Y124016D02*
G03*
X236900Y122137I0J-6417D01*
G01*
X241831Y83729D02*
G03*
X242232Y83563I401J401D01*
G01*
X253740Y76476D02*
G03*
X253265Y76673I-475J-475D01*
G01*
X242957Y34493D02*
G03*
X243776Y34154I819J819D01*
G01*
X268209Y64173D02*
G03*
X274224Y66665I0J8507D01*
G01*
X261715Y64270D02*
G03*
X263099Y64173I1384J9904D01*
G01*
X256028Y67102D02*
G03*
X261715Y64270I7071J7071D01*
G01*
X254457Y61614D02*
G03*
X261071Y59114I6614J7500D01*
G01*
X254000Y62043D02*
G03*
X254457Y61614I7071J7071D01*
G01*
X255956Y89831D02*
G03*
X253740Y90748I-2216J-2220D01*
G01*
X255958Y89829D02*
G03*
X255956Y89831I-2218J-2218D01*
G01*
X274523Y91264D02*
G03*
X267452Y94193I-7071J-7071D01*
G01*
X254453Y97122D02*
G03*
X261524Y94193I7071J7071D01*
G01*
X266673Y102807D02*
G03*
X263744Y109878I-10000J0D01*
G01*
X264854Y41437D02*
G03*
X271925Y44366I0J10000D01*
G01*
X243209Y27165D02*
G03*
X249126Y24714I5918J5918D01*
G01*
X265907D02*
G03*
X272978Y27643I0J10000D01*
G01*
X259622Y38508D02*
G03*
X252551Y41437I-7071J-7071D01*
G01*
X209547Y86516D02*
X216732Y79331D01*
X209547Y55414D02*
X216732Y48228D01*
Y47504D02*
X223156D01*
X216732D02*
Y48228D01*
X199311Y96752D02*
Y101378D01*
X195965Y93405D02*
X199311Y96752D01*
X194390Y93405D02*
X195965D01*
X199311Y101378D02*
Y106398D01*
X196555Y109153D02*
X199311Y106398D01*
X192913Y109153D02*
X196555D01*
X216781Y119144D02*
X224061Y111864D01*
X216634Y119291D02*
Y128044D01*
X207382Y130118D02*
X209433Y132169D01*
X198228Y130118D02*
X207382D01*
X174901D02*
X198228D01*
Y129921D02*
Y130118D01*
X213681Y34252D02*
X215305Y32628D01*
X216634Y39549D02*
X222235D01*
X214272Y42779D02*
X216272Y40779D01*
X209646Y63413D02*
Y63780D01*
X216831Y55594D02*
X224213D01*
X209646Y70866D02*
Y71653D01*
X216831Y63216D02*
X217419Y62628D01*
X209646Y78740D02*
Y79331D01*
X209744Y87697D02*
X209856Y87585D01*
X217162Y86748D02*
X220181Y83729D01*
X209744Y95231D02*
Y95571D01*
X208957Y103185D02*
X216043Y96099D01*
X217251Y94613D02*
X221102Y90763D01*
X213681Y106102D02*
X216929Y102854D01*
X208858Y110925D02*
X211874Y107910D01*
X217381Y103306D02*
X222890Y97797D01*
X216634Y111140D02*
X222943Y104831D01*
X213090Y25972D02*
X213177D01*
X223141Y121485D02*
Y129840D01*
X215650Y134744D02*
X216582D01*
X206496Y129232D02*
X207382Y130118D01*
X240354Y125098D02*
X241437Y124016D01*
X238779D02*
X241437D01*
X244094Y120768D02*
X246161D01*
X241437Y124016D02*
X243677Y121776D01*
X236900Y122137D02*
X238779Y124016D01*
X233661Y118898D02*
X236900Y122137D01*
X233661Y83729D02*
X241831D01*
X242232Y83563D02*
X253740D01*
X243209Y76673D02*
X253265D01*
X233661Y34493D02*
X242957D01*
X243776Y34154D02*
X253740D01*
X242930Y55594D02*
X243209Y55315D01*
X243110Y55610D02*
X253839D01*
X242717Y48524D02*
X253839D01*
X242717Y48524D02*
X242717Y48524D01*
X242680Y48560D02*
X242717Y48524D01*
X263099Y64173D02*
X268209D01*
X243307Y69488D02*
X253642D01*
X256028Y67102D01*
X261071Y59114D02*
X266673D01*
X253642Y62402D02*
X254000Y62043D01*
X243110Y90748D02*
X253740D01*
X255958Y89829D02*
X266673Y79114D01*
X261524Y94193D02*
X267452D01*
X243110Y97835D02*
X253740D01*
X254453Y97122D01*
X266673Y99114D02*
Y102807D01*
X252535Y121087D02*
X263744Y109878D01*
X243406Y62402D02*
X244193Y61614D01*
X243110Y62697D02*
X243406Y62402D01*
X253150D01*
X233661Y69662D02*
X243035D01*
X243209Y69587D02*
X243307Y69488D01*
X243095Y90763D02*
X243110Y90748D01*
X265374Y79114D02*
X266673D01*
X233661Y97797D02*
X243110D01*
X242512Y104831D02*
X242701Y105020D01*
X253543D01*
X233661Y111864D02*
X242762D01*
X243004Y112106D01*
X253543D01*
X240354Y125098D02*
Y132480D01*
X209646Y70866D02*
X216732Y63780D01*
X209646Y78740D02*
X216732Y71653D01*
X216634Y31595D02*
X221315D01*
X224213Y34493D01*
X222235Y39549D02*
X224213Y41526D01*
X223156Y47504D02*
X224213Y48560D01*
X217419Y62628D02*
X224213D01*
X218340Y69662D02*
X224213D01*
X221586Y79322D02*
X224213Y76695D01*
X216634Y79322D02*
X221586D01*
X220181Y83729D02*
X224213D01*
X221102Y90763D02*
X224213D01*
X222890Y97797D02*
X224213D01*
X222943Y104831D02*
X224213D01*
X224061Y111864D02*
X224213D01*
X216732Y48228D02*
X216777Y48273D01*
X216679Y55413D02*
X216831D01*
Y62402D02*
Y63216D01*
X217126Y70866D02*
Y70875D01*
X216240Y79035D02*
X216437D01*
X217153Y87276D02*
X217421Y87008D01*
X216634Y87276D02*
X216893Y87017D01*
X216339Y110630D02*
X216634Y110925D01*
X216634Y119291D02*
X216929D01*
X233661Y27459D02*
X242915D01*
X243209Y27165D01*
X233661Y41526D02*
X242332D01*
X233661Y48560D02*
X242680D01*
X233661Y55594D02*
X242930D01*
X233661Y62628D02*
X243041D01*
X233661Y76695D02*
X243088D01*
X233661Y90763D02*
X243095D01*
X233661Y104831D02*
X242512D01*
X271925Y44366D02*
X276673Y49114D01*
X274224Y66665D02*
X276673Y69114D01*
X276673D01*
X274523Y91264D02*
X276673Y89114D01*
X249126Y24714D02*
X265907D01*
X272978Y27643D02*
X276240Y30906D01*
X259622Y38508D02*
X266240Y31890D01*
X242421Y41437D02*
X252551D01*
X264854D01*
X150256Y12183D02*
X153838D01*
X162107Y20452D01*
Y31004D01*
X160925Y32185D02*
X162107Y31004D01*
X155768Y32185D02*
X160925D01*
X155413Y32539D02*
X155768Y32185D01*
X147578Y32539D02*
X155413D01*
X147145Y32972D02*
X147578Y32539D01*
X147145Y27461D02*
X147223Y27539D01*
X155413D01*
X174665Y32185D02*
X182580D01*
X174311Y32539D02*
X174665Y32185D01*
X167618Y20452D02*
X175887Y12183D01*
X179469D01*
X167776Y32539D02*
X174311D01*
X166831Y31594D02*
X167776Y32539D01*
X166831Y21239D02*
Y31594D01*
X162776Y37539D02*
X167776Y32539D01*
X155413Y37539D02*
X162776D01*
X174311D02*
X182520D01*
X174311Y27539D02*
X181713D01*
X182580Y26673D01*
X166043Y39961D02*
Y40256D01*
X168327Y42539D02*
X174311D01*
X166043Y40256D02*
X168327Y42539D01*
X139567Y13287D02*
Y28051D01*
X146554D01*
X147145Y27461D01*
X174311Y25394D02*
Y27539D01*
X139370Y36909D02*
Y37205D01*
X167815Y123031D02*
X174901Y130118D01*
X277146Y124921D02*
Y134921D01*
X267146Y124921D02*
X277146D01*
X267146D02*
Y134921D01*
X111713Y138779D02*
X120768D01*
X105709Y144783D02*
X111713Y138779D01*
X99410Y145571D02*
X100197Y144783D01*
X106496Y133563D02*
X111713Y138779D01*
X106496Y132973D02*
Y133563D01*
X33563Y12402D02*
Y20669D01*
X83169Y13681D02*
X85630Y16142D01*
X92421D01*
X109153Y15256D02*
X114601D01*
X115792Y16447D01*
X109931Y21959D02*
X115792D01*
X109153Y22736D02*
X109931Y21959D01*
X115792D02*
Y31442D01*
X126083Y41732D01*
X134843D02*
X139370Y37205D01*
X126083Y41732D02*
X134843D01*
X108661Y90650D02*
X115792Y83519D01*
X146752Y44488D02*
X153465D01*
X155413Y42539D01*
X209547Y29515D02*
Y31595D01*
Y29515D02*
X213090Y25972D01*
X149213Y67815D02*
X153642D01*
X154724Y68898D01*
X160236D02*
X161221Y67913D01*
X168012D01*
Y70964D01*
X170669Y73622D01*
X176181Y69291D02*
Y73622D01*
Y69291D02*
X177657Y67815D01*
X185047Y48622D02*
X185335D01*
X190945Y54232D01*
Y45965D02*
Y48720D01*
X182520Y37539D02*
X190945Y45965D01*
X177657Y67815D02*
X180197Y70355D01*
Y77146D01*
X183563Y80512D01*
X190945Y54232D02*
Y62920D01*
X186122Y67743D02*
X190945Y62920D01*
X186122Y67743D02*
Y69193D01*
X191437Y68996D02*
X194980Y65453D01*
X191437Y68996D02*
Y80512D01*
X25787Y106595D02*
Y113287D01*
X20276Y103740D02*
X22835Y101181D01*
X20276Y103740D02*
Y106595D01*
X23819Y121063D02*
X28248Y125492D01*
X25787Y113287D02*
X31299Y118799D01*
Y121063D01*
X184547Y9154D02*
Y15157D01*
X174311Y25394D02*
X184547Y15157D01*
X183169Y7776D02*
X184547Y9154D01*
X176834Y7776D02*
X176856Y7754D01*
X182081D01*
X182103Y7776D01*
X183169D01*
X139567D02*
X148400D01*
X148421Y7754D01*
X152091D01*
X152112Y7776D01*
X176834D01*
X209547Y118227D02*
Y119291D01*
Y118227D02*
X211910Y115864D01*
X211951D01*
X213681Y114135D01*
Y114093D02*
Y114135D01*
Y114093D02*
X216634Y111140D01*
X208858Y110925D02*
Y110943D01*
X211874Y107910D02*
X211951D01*
X213681Y106180D01*
Y106102D02*
Y106180D01*
X216634Y87276D02*
Y88144D01*
X209547Y95231D02*
X212500Y92278D01*
Y92236D02*
Y92278D01*
Y92236D02*
X214230Y90506D01*
X214272D01*
X216634Y88144D01*
X209547Y86516D02*
Y87276D01*
Y62545D02*
Y63413D01*
Y62545D02*
X211910Y60183D01*
X211951D01*
X213681Y58453D01*
Y58411D02*
Y58453D01*
Y58411D02*
X216634Y55458D01*
X209547Y55414D02*
Y55458D01*
Y47504D02*
X212500Y44551D01*
Y44509D02*
Y44551D01*
Y44509D02*
X214230Y42779D01*
X214272D01*
X209547Y38386D02*
Y39549D01*
Y38386D02*
X211614Y36319D01*
X211951D01*
X213681Y34589D01*
Y34252D02*
Y34589D01*
X223624Y26870D02*
X224213Y27459D01*
X213177Y25972D02*
X214075Y26870D01*
X223624D01*
X18032Y147323D02*
Y148130D01*
X28032D01*
X18032Y137323D02*
Y147323D01*
Y137323D02*
X28032D01*
X23031Y142323D02*
X40748D01*
X43996Y145571D01*
X99410D01*
X19094Y31890D02*
X22638D01*
X32087D02*
X36811D01*
X47244Y21457D01*
X33071Y35630D02*
X38780D01*
X45768Y28642D01*
X16437Y23721D02*
X19094D01*
Y26226D01*
X20132Y27264D01*
X32480Y24213D02*
X32480Y24213D01*
X30118Y12599D02*
X32480D01*
X29232Y11713D02*
X30118Y12599D01*
X32382Y21850D02*
X32480Y21752D01*
X33563Y20669D01*
X32480Y12599D02*
Y21752D01*
Y24213D01*
X23524Y17520D02*
Y23720D01*
X23031Y24213D02*
X23524Y23720D01*
X22933Y16634D02*
Y21850D01*
X28543Y18012D02*
X29035Y17520D01*
X28543Y18012D02*
Y27264D01*
X31791D01*
X32480Y27953D01*
X20132Y27264D02*
X28543D01*
X28051Y17028D02*
Y24705D01*
X99705Y15256D02*
X103642D01*
X104724Y16339D01*
Y21358D01*
X99705Y22736D02*
X103347D01*
X104724Y21358D01*
X36574Y111990D02*
Y112179D01*
X25765Y101181D02*
X36574Y111990D01*
Y117691D02*
Y122088D01*
X33169Y125492D02*
X36574Y122088D01*
X28248Y125492D02*
X33169D01*
X40675Y132998D02*
X100336D01*
X33169Y125492D02*
X40675Y132998D01*
X22835Y101181D02*
X25765D01*
X16437Y29232D02*
X19094Y31890D01*
X5413Y31811D02*
X13858D01*
X16437Y29232D01*
X15354Y46850D02*
X36516D01*
X61713Y21654D02*
X92421D01*
X93504Y22736D01*
X99705D01*
X36516Y46850D02*
X61713Y21654D01*
X26890Y41811D02*
X33071Y35630D01*
X5669Y41811D02*
X26890D01*
X45866Y149705D02*
X46063Y149902D01*
X103839Y126476D02*
X105020Y125295D01*
X82382D02*
X105020D01*
X81201Y126476D02*
X82382Y125295D01*
X15551Y11713D02*
X23720D01*
X5610Y21654D02*
X15551Y11713D01*
X5610Y21654D02*
Y21752D01*
Y61752D02*
X13346D01*
X13681Y61417D01*
X19193D02*
X41535D01*
X65945Y37008D01*
X115202D01*
X115792Y37598D01*
Y31442D02*
Y37598D01*
Y83519D01*
X19094Y129921D02*
X27559D01*
X5512Y116339D02*
X19094Y129921D01*
X5512Y71850D02*
Y116339D01*
Y71850D02*
X5610Y71752D01*
Y41752D02*
X5669Y41811D01*
X22835Y73524D02*
Y101181D01*
X16929Y67618D02*
X22835Y73524D01*
X10335Y50197D02*
X14469Y54331D01*
X10335Y49795D02*
Y50197D01*
X7567Y47028D02*
X10335Y49795D01*
X7165Y47028D02*
X7567D01*
X5610Y45472D02*
X7165Y47028D01*
X5610Y41752D02*
Y45472D01*
D11*
X229724Y132480D02*
G03*
X229446Y133152I-950J0D01*
G01*
X247712Y135654D02*
G03*
X240641Y138583I-7071J-7071D01*
G01*
X262970Y120742D02*
G03*
X268315Y119193I5346J8451D01*
G01*
X261244Y122122D02*
G03*
X262970Y120742I7071J7071D01*
G01*
X283895Y119193D02*
G03*
X287697Y120768I0J5377D01*
G01*
X306111Y135039D02*
G03*
X299040Y132110I0J-10000D01*
G01*
X224016Y138583D02*
X240641D01*
X224566Y138033D02*
X229446Y133152D01*
X224016Y138583D02*
X224566Y138033D01*
X247712Y135654D02*
X261244Y122122D01*
X268315Y119193D02*
X283895D01*
X287697Y120768D02*
X299040Y132110D01*
X306111Y135039D02*
X325787D01*
X191437Y123031D02*
X199705D01*
X14173Y107185D02*
X20276Y113287D01*
X10335Y107185D02*
X14173D01*
D12*
X253740Y41240D02*
D03*
Y34154D02*
D03*
X243209Y34449D02*
D03*
Y27362D02*
D03*
X253543Y112106D02*
D03*
Y105020D02*
D03*
X243110Y104921D02*
D03*
Y97835D02*
D03*
X253740D02*
D03*
Y90748D02*
D03*
X243110Y90453D02*
D03*
Y83366D02*
D03*
X253740Y83563D02*
D03*
Y76476D02*
D03*
X243209Y76673D02*
D03*
Y69587D02*
D03*
X253642Y69488D02*
D03*
Y62402D02*
D03*
X243110Y62697D02*
D03*
Y55610D02*
D03*
X253839D02*
D03*
Y48524D02*
D03*
X243110Y48720D02*
D03*
Y41634D02*
D03*
D13*
X224213Y118898D02*
D03*
X233661D02*
D03*
X224213Y111864D02*
D03*
X233661D02*
D03*
X224213Y104831D02*
D03*
X233661D02*
D03*
X224213Y97797D02*
D03*
X233661D02*
D03*
X224213Y90763D02*
D03*
X233661D02*
D03*
X224213Y83729D02*
D03*
X233661D02*
D03*
X224213Y76695D02*
D03*
X233661D02*
D03*
X224213Y69662D02*
D03*
X233661D02*
D03*
X224213Y62628D02*
D03*
X233661D02*
D03*
X224213Y55594D02*
D03*
X233661D02*
D03*
X224213Y48560D02*
D03*
X233661D02*
D03*
X224213Y27459D02*
D03*
X233661D02*
D03*
X224213Y41526D02*
D03*
X233661D02*
D03*
X224213Y34493D02*
D03*
X233661D02*
D03*
D14*
X241437Y124016D02*
D03*
Y113386D02*
D03*
X177657Y57185D02*
D03*
Y67815D02*
D03*
X168012Y67913D02*
D03*
Y57284D02*
D03*
D15*
X229724Y132480D02*
D03*
X240354D02*
D03*
X206496Y129232D02*
D03*
X217126D02*
D03*
D16*
X160335Y101378D02*
D03*
X199311D02*
D03*
D17*
X167815Y80512D02*
D03*
X175689D02*
D03*
X183563D02*
D03*
X191437D02*
D03*
Y123031D02*
D03*
X183563D02*
D03*
X175689D02*
D03*
X167815D02*
D03*
D18*
X167618Y20452D02*
D03*
X162107D02*
D03*
X176181Y73622D02*
D03*
X170669D02*
D03*
X154724Y68898D02*
D03*
X160236D02*
D03*
X20276Y106595D02*
D03*
X25787D02*
D03*
X23720Y11713D02*
D03*
X29232D02*
D03*
X29035Y17520D02*
D03*
X23524D02*
D03*
X25787Y113287D02*
D03*
X20276D02*
D03*
X105847Y132998D02*
D03*
X100336D02*
D03*
X13484Y61417D02*
D03*
X18996D02*
D03*
D19*
X209547Y31595D02*
D03*
X216634D02*
D03*
Y119291D02*
D03*
X209547D02*
D03*
Y111140D02*
D03*
X216634D02*
D03*
Y103185D02*
D03*
X209547D02*
D03*
Y95231D02*
D03*
X216634D02*
D03*
Y87276D02*
D03*
X209547D02*
D03*
Y79322D02*
D03*
X216634D02*
D03*
Y71367D02*
D03*
X209547D02*
D03*
Y63413D02*
D03*
X216634D02*
D03*
Y55458D02*
D03*
X209547D02*
D03*
Y47504D02*
D03*
X216634D02*
D03*
Y39549D02*
D03*
X209547D02*
D03*
D20*
X146752Y38976D02*
D03*
Y44488D02*
D03*
X182580Y32185D02*
D03*
Y26673D02*
D03*
X190945Y54232D02*
D03*
Y48720D02*
D03*
X147145Y32972D02*
D03*
Y27461D02*
D03*
X185047Y48622D02*
D03*
Y54134D02*
D03*
X139567Y13287D02*
D03*
Y7776D02*
D03*
X92421Y21654D02*
D03*
Y16142D02*
D03*
X115792Y16447D02*
D03*
Y21959D02*
D03*
X36574Y117691D02*
D03*
Y112179D02*
D03*
X16437Y29232D02*
D03*
Y23721D02*
D03*
D21*
X155413Y42539D02*
D03*
Y37539D02*
D03*
Y32539D02*
D03*
Y27539D02*
D03*
X174311Y42539D02*
D03*
Y37539D02*
D03*
Y32539D02*
D03*
Y27539D02*
D03*
D22*
X109153Y22736D02*
D03*
Y15256D02*
D03*
X99705D02*
D03*
Y18996D02*
D03*
Y22736D02*
D03*
D23*
X100197Y144783D02*
D03*
X105709D02*
D03*
D24*
X139370Y36909D02*
D03*
Y28248D02*
D03*
D25*
X23031Y24213D02*
D03*
Y31693D02*
D03*
X32480D02*
D03*
Y27953D02*
D03*
Y24213D02*
D03*
D26*
X194980Y65453D02*
D03*
X186122Y61713D02*
D03*
Y69193D02*
D03*
D27*
X23819Y121063D02*
D03*
X31299D02*
D03*
X27559Y129921D02*
D03*
D28*
X150256Y12183D02*
D03*
D29*
X179469D02*
D03*
D30*
X23031Y142323D02*
D03*
X28032Y147323D02*
D03*
X18032D02*
D03*
Y137323D02*
D03*
X28032D02*
D03*
X272146Y129921D02*
D03*
X277146Y124921D02*
D03*
Y134921D02*
D03*
X267146D02*
D03*
Y124921D02*
D03*
D31*
X266240Y31890D02*
D03*
D32*
X276240D02*
D03*
X266673Y99114D02*
D03*
X276673D02*
D03*
X266673Y89114D02*
D03*
X276673D02*
D03*
X266673Y79114D02*
D03*
X276673D02*
D03*
X266673Y69114D02*
D03*
X276673D02*
D03*
X266673Y59114D02*
D03*
X276673D02*
D03*
X266673Y49114D02*
D03*
X5610Y51752D02*
D03*
Y61752D02*
D03*
Y41752D02*
D03*
Y31752D02*
D03*
Y21752D02*
D03*
Y11752D02*
D03*
X198228Y129921D02*
D03*
X224566Y138033D02*
D03*
X246161Y120768D02*
D03*
X199705Y123031D02*
D03*
X10335Y107185D02*
D03*
X16831Y47343D02*
D03*
X16929Y67618D02*
D03*
X14469Y54331D02*
D03*
D33*
X276673Y49114D02*
D03*
D34*
X5610Y71752D02*
D03*
D35*
X216240Y33563D02*
D03*
X216634Y41142D02*
D03*
X216777Y48273D02*
D03*
X216831Y55413D02*
D03*
Y62402D02*
D03*
X217126Y70866D02*
D03*
X216240Y79035D02*
D03*
X217421Y87008D02*
D03*
Y94784D02*
D03*
X216929Y102854D02*
D03*
X216339Y110630D02*
D03*
X216929Y119291D02*
D03*
X243209Y27165D02*
D03*
X243012Y34547D02*
D03*
X242421Y41437D02*
D03*
X242717Y48524D02*
D03*
X243209Y55315D02*
D03*
X243041Y62628D02*
D03*
X243035Y69662D02*
D03*
X243088Y76695D02*
D03*
X243042Y83729D02*
D03*
X243095Y90763D02*
D03*
X243209Y97638D02*
D03*
X242512Y104831D02*
D03*
X242762Y111864D02*
D03*
X166043Y39961D02*
D03*
X189075Y6890D02*
D03*
X183465Y6496D02*
D03*
X175000Y7185D02*
D03*
X163779Y7087D02*
D03*
X154232Y6890D02*
D03*
X144193Y6988D02*
D03*
X130709Y7480D02*
D03*
X131299Y16339D02*
D03*
Y25787D02*
D03*
X131201Y35827D02*
D03*
X131496Y48327D02*
D03*
X153150Y49508D02*
D03*
X175492Y49311D02*
D03*
X190157Y37303D02*
D03*
X189665Y28346D02*
D03*
X133957Y41887D02*
D03*
X158760Y114469D02*
D03*
X197244Y114567D02*
D03*
X197933Y88090D02*
D03*
X156988Y86713D02*
D03*
X179331Y86319D02*
D03*
X195276Y60532D02*
D03*
X157677Y64468D02*
D03*
X157776Y79035D02*
D03*
X120768Y138779D02*
D03*
X113484Y96457D02*
D03*
X130315Y96063D02*
D03*
X138583Y96260D02*
D03*
X143307Y100689D02*
D03*
X143898Y117717D02*
D03*
X143602Y132382D02*
D03*
Y142717D02*
D03*
X131791Y151476D02*
D03*
X123425D02*
D03*
X105709Y151181D02*
D03*
X105118Y137894D02*
D03*
X45768Y28642D02*
D03*
X47244Y21457D02*
D03*
X149213Y67815D02*
D03*
X213090Y25886D02*
D03*
X172933Y62795D02*
D03*
X338779Y154626D02*
D03*
X334744Y154823D02*
D03*
X331299D02*
D03*
X326575D02*
D03*
X325886Y149213D02*
D03*
X325787Y141732D02*
D03*
Y135039D02*
D03*
X332087Y137303D02*
D03*
X338976Y141339D02*
D03*
X338779Y148819D02*
D03*
X46063Y149902D02*
D03*
X46161Y140847D02*
D03*
X105020Y125295D02*
D03*
X81201Y126476D02*
D03*
D36*
X108661Y90650D02*
D03*
X110236Y68110D02*
D03*
X109449Y46555D02*
D03*
X17323Y17421D02*
D03*
X119783Y11909D02*
D03*
X76968Y16929D02*
D03*
X80315Y26378D02*
D03*
X110531Y28937D02*
D03*
M02*
