G04 Layer_Color=16711935*
%FSLAX25Y25*%
%MOIN*%
G70*
G01*
G75*
G04:AMPARAMS|DCode=57|XSize=66.93mil|YSize=55.12mil|CornerRadius=15.75mil|HoleSize=0mil|Usage=FLASHONLY|Rotation=180.000|XOffset=0mil|YOffset=0mil|HoleType=Round|Shape=RoundedRectangle|*
%AMROUNDEDRECTD57*
21,1,0.06693,0.02362,0,0,180.0*
21,1,0.03543,0.05512,0,0,180.0*
1,1,0.03150,-0.01772,0.01181*
1,1,0.03150,0.01772,0.01181*
1,1,0.03150,0.01772,-0.01181*
1,1,0.03150,-0.01772,-0.01181*
%
%ADD57ROUNDEDRECTD57*%
%ADD58R,0.04331X0.04331*%
G04:AMPARAMS|DCode=60|XSize=74.8mil|YSize=51.18mil|CornerRadius=14.76mil|HoleSize=0mil|Usage=FLASHONLY|Rotation=270.000|XOffset=0mil|YOffset=0mil|HoleType=Round|Shape=RoundedRectangle|*
%AMROUNDEDRECTD60*
21,1,0.07480,0.02165,0,0,270.0*
21,1,0.04528,0.05118,0,0,270.0*
1,1,0.02953,-0.01083,-0.02264*
1,1,0.02953,-0.01083,0.02264*
1,1,0.02953,0.01083,0.02264*
1,1,0.02953,0.01083,-0.02264*
%
%ADD60ROUNDEDRECTD60*%
G04:AMPARAMS|DCode=63|XSize=43.31mil|YSize=39.37mil|CornerRadius=11.81mil|HoleSize=0mil|Usage=FLASHONLY|Rotation=270.000|XOffset=0mil|YOffset=0mil|HoleType=Round|Shape=RoundedRectangle|*
%AMROUNDEDRECTD63*
21,1,0.04331,0.01575,0,0,270.0*
21,1,0.01969,0.03937,0,0,270.0*
1,1,0.02362,-0.00787,-0.00984*
1,1,0.02362,-0.00787,0.00984*
1,1,0.02362,0.00787,0.00984*
1,1,0.02362,0.00787,-0.00984*
%
%ADD63ROUNDEDRECTD63*%
G04:AMPARAMS|DCode=64|XSize=66.93mil|YSize=55.12mil|CornerRadius=15.75mil|HoleSize=0mil|Usage=FLASHONLY|Rotation=90.000|XOffset=0mil|YOffset=0mil|HoleType=Round|Shape=RoundedRectangle|*
%AMROUNDEDRECTD64*
21,1,0.06693,0.02362,0,0,90.0*
21,1,0.03543,0.05512,0,0,90.0*
1,1,0.03150,0.01181,0.01772*
1,1,0.03150,0.01181,-0.01772*
1,1,0.03150,-0.01181,-0.01772*
1,1,0.03150,-0.01181,0.01772*
%
%ADD64ROUNDEDRECTD64*%
G04:AMPARAMS|DCode=65|XSize=43.31mil|YSize=39.37mil|CornerRadius=11.81mil|HoleSize=0mil|Usage=FLASHONLY|Rotation=0.000|XOffset=0mil|YOffset=0mil|HoleType=Round|Shape=RoundedRectangle|*
%AMROUNDEDRECTD65*
21,1,0.04331,0.01575,0,0,0.0*
21,1,0.01969,0.03937,0,0,0.0*
1,1,0.02362,0.00984,-0.00787*
1,1,0.02362,-0.00984,-0.00787*
1,1,0.02362,-0.00984,0.00787*
1,1,0.02362,0.00984,0.00787*
%
%ADD65ROUNDEDRECTD65*%
%ADD68R,0.03937X0.04331*%
%ADD69R,0.06299X0.03937*%
%ADD73C,0.06102*%
G04:AMPARAMS|DCode=74|XSize=61.02mil|YSize=61.02mil|CornerRadius=17.22mil|HoleSize=0mil|Usage=FLASHONLY|Rotation=180.000|XOffset=0mil|YOffset=0mil|HoleType=Round|Shape=RoundedRectangle|*
%AMROUNDEDRECTD74*
21,1,0.06102,0.02658,0,0,180.0*
21,1,0.02658,0.06102,0,0,180.0*
1,1,0.03445,-0.01329,0.01329*
1,1,0.03445,0.01329,0.01329*
1,1,0.03445,0.01329,-0.01329*
1,1,0.03445,-0.01329,-0.01329*
%
%ADD74ROUNDEDRECTD74*%
%ADD75C,0.06299*%
G04:AMPARAMS|DCode=76|XSize=66.93mil|YSize=66.93mil|CornerRadius=18.7mil|HoleSize=0mil|Usage=FLASHONLY|Rotation=0.000|XOffset=0mil|YOffset=0mil|HoleType=Round|Shape=RoundedRectangle|*
%AMROUNDEDRECTD76*
21,1,0.06693,0.02953,0,0,0.0*
21,1,0.02953,0.06693,0,0,0.0*
1,1,0.03740,0.01476,-0.01476*
1,1,0.03740,-0.01476,-0.01476*
1,1,0.03740,-0.01476,0.01476*
1,1,0.03740,0.01476,0.01476*
%
%ADD76ROUNDEDRECTD76*%
%ADD77C,0.06693*%
G04:AMPARAMS|DCode=78|XSize=66.93mil|YSize=66.93mil|CornerRadius=18.7mil|HoleSize=0mil|Usage=FLASHONLY|Rotation=90.000|XOffset=0mil|YOffset=0mil|HoleType=Round|Shape=RoundedRectangle|*
%AMROUNDEDRECTD78*
21,1,0.06693,0.02953,0,0,90.0*
21,1,0.02953,0.06693,0,0,90.0*
1,1,0.03740,0.01476,0.01476*
1,1,0.03740,0.01476,-0.01476*
1,1,0.03740,-0.01476,-0.01476*
1,1,0.03740,-0.01476,0.01476*
%
%ADD78ROUNDEDRECTD78*%
%ADD79R,0.06693X0.06693*%
G04:AMPARAMS|DCode=80|XSize=139.76mil|YSize=94.49mil|CornerRadius=25.59mil|HoleSize=0mil|Usage=FLASHONLY|Rotation=90.000|XOffset=0mil|YOffset=0mil|HoleType=Round|Shape=RoundedRectangle|*
%AMROUNDEDRECTD80*
21,1,0.13976,0.04331,0,0,90.0*
21,1,0.08858,0.09449,0,0,90.0*
1,1,0.05118,0.02165,0.04429*
1,1,0.05118,0.02165,-0.04429*
1,1,0.05118,-0.02165,-0.04429*
1,1,0.05118,-0.02165,0.04429*
%
%ADD80ROUNDEDRECTD80*%
%ADD81R,0.05118X0.03150*%
%ADD82R,0.03937X0.06299*%
%ADD83R,0.04331X0.03937*%
G04:AMPARAMS|DCode=84|XSize=59.06mil|YSize=59.06mil|CornerRadius=16.73mil|HoleSize=0mil|Usage=FLASHONLY|Rotation=0.000|XOffset=0mil|YOffset=0mil|HoleType=Round|Shape=RoundedRectangle|*
%AMROUNDEDRECTD84*
21,1,0.05906,0.02559,0,0,0.0*
21,1,0.02559,0.05906,0,0,0.0*
1,1,0.03346,0.01280,-0.01280*
1,1,0.03346,-0.01280,-0.01280*
1,1,0.03346,-0.01280,0.01280*
1,1,0.03346,0.01280,0.01280*
%
%ADD84ROUNDEDRECTD84*%
G04:AMPARAMS|DCode=85|XSize=70.87mil|YSize=43.31mil|CornerRadius=12.8mil|HoleSize=0mil|Usage=FLASHONLY|Rotation=270.000|XOffset=0mil|YOffset=0mil|HoleType=Round|Shape=RoundedRectangle|*
%AMROUNDEDRECTD85*
21,1,0.07087,0.01772,0,0,270.0*
21,1,0.04528,0.04331,0,0,270.0*
1,1,0.02559,-0.00886,-0.02264*
1,1,0.02559,-0.00886,0.02264*
1,1,0.02559,0.00886,0.02264*
1,1,0.02559,0.00886,-0.02264*
%
%ADD85ROUNDEDRECTD85*%
%ADD86R,0.02756X0.02756*%
%ADD87R,0.03150X0.05118*%
G04:AMPARAMS|DCode=88|XSize=70.87mil|YSize=43.31mil|CornerRadius=12.8mil|HoleSize=0mil|Usage=FLASHONLY|Rotation=0.000|XOffset=0mil|YOffset=0mil|HoleType=Round|Shape=RoundedRectangle|*
%AMROUNDEDRECTD88*
21,1,0.07087,0.01772,0,0,0.0*
21,1,0.04528,0.04331,0,0,0.0*
1,1,0.02559,0.02264,-0.00886*
1,1,0.02559,-0.02264,-0.00886*
1,1,0.02559,-0.02264,0.00886*
1,1,0.02559,0.02264,0.00886*
%
%ADD88ROUNDEDRECTD88*%
G04:AMPARAMS|DCode=89|XSize=59.06mil|YSize=59.06mil|CornerRadius=16.73mil|HoleSize=0mil|Usage=FLASHONLY|Rotation=90.000|XOffset=0mil|YOffset=0mil|HoleType=Round|Shape=RoundedRectangle|*
%AMROUNDEDRECTD89*
21,1,0.05906,0.02559,0,0,90.0*
21,1,0.02559,0.05906,0,0,90.0*
1,1,0.03346,0.01280,0.01280*
1,1,0.03346,0.01280,-0.01280*
1,1,0.03346,-0.01280,-0.01280*
1,1,0.03346,-0.01280,0.01280*
%
%ADD89ROUNDEDRECTD89*%
G04:AMPARAMS|DCode=90|XSize=204.72mil|YSize=165.35mil|CornerRadius=43.31mil|HoleSize=0mil|Usage=FLASHONLY|Rotation=90.000|XOffset=0mil|YOffset=0mil|HoleType=Round|Shape=RoundedRectangle|*
%AMROUNDEDRECTD90*
21,1,0.20472,0.07874,0,0,90.0*
21,1,0.11811,0.16535,0,0,90.0*
1,1,0.08661,0.03937,0.05906*
1,1,0.08661,0.03937,-0.05906*
1,1,0.08661,-0.03937,-0.05906*
1,1,0.08661,-0.03937,0.05906*
%
%ADD90ROUNDEDRECTD90*%
G36*
X340256Y21987D02*
X340354Y21888D01*
Y1772D01*
X339999Y1420D01*
X323622Y1613D01*
Y27846D01*
X324033Y28130D01*
X340256Y21987D01*
D02*
G37*
G36*
X340748Y139862D02*
X340650Y139764D01*
X324276Y130705D01*
X323845Y130959D01*
X323787Y156142D01*
X324141Y156496D01*
X340748Y156496D01*
Y139862D01*
D02*
G37*
D57*
X243110Y27362D02*
D03*
Y34449D02*
D03*
X243110Y41634D02*
D03*
Y48720D02*
D03*
X253642Y55610D02*
D03*
Y48524D02*
D03*
X243110Y55610D02*
D03*
Y62697D02*
D03*
X253642Y69587D02*
D03*
Y62500D02*
D03*
X243110Y69587D02*
D03*
Y76673D02*
D03*
X253642Y83366D02*
D03*
Y76279D02*
D03*
X243110Y83661D02*
D03*
Y90748D02*
D03*
X253642Y97835D02*
D03*
Y90748D02*
D03*
X243110Y97736D02*
D03*
Y104823D02*
D03*
X253642Y112008D02*
D03*
Y104921D02*
D03*
X253642Y41339D02*
D03*
Y34252D02*
D03*
D58*
X224508Y118996D02*
D03*
X233957D02*
D03*
X224213Y111909D02*
D03*
X233661D02*
D03*
X224213Y104823D02*
D03*
X233661D02*
D03*
X224213Y97835D02*
D03*
X233661D02*
D03*
X224213Y91142D02*
D03*
X233661D02*
D03*
X224114Y83661D02*
D03*
X233563D02*
D03*
X224311Y76772D02*
D03*
X233760D02*
D03*
X224114Y69685D02*
D03*
X233563D02*
D03*
X224311Y62697D02*
D03*
X233760D02*
D03*
X224213Y55709D02*
D03*
X233661D02*
D03*
X224213Y48720D02*
D03*
X233661D02*
D03*
X224311Y41634D02*
D03*
X233760D02*
D03*
X224410Y33366D02*
D03*
X233858D02*
D03*
D60*
X206299Y130709D02*
D03*
X216929D02*
D03*
X242815Y121654D02*
D03*
X253445D02*
D03*
X223425Y128543D02*
D03*
X234055D02*
D03*
D63*
X143504Y38091D02*
D03*
X137992D02*
D03*
X127559Y117323D02*
D03*
X122047D02*
D03*
D64*
X216732Y111292D02*
D03*
X209646D02*
D03*
X216732Y31299D02*
D03*
X209646D02*
D03*
X216732Y39298D02*
D03*
X209646D02*
D03*
X216732Y55297D02*
D03*
X209646D02*
D03*
X216732Y63296D02*
D03*
X209646D02*
D03*
X216732Y79295D02*
D03*
X209646D02*
D03*
X216732Y71296D02*
D03*
X209646D02*
D03*
X216732Y87294D02*
D03*
X209646D02*
D03*
X216732Y95293D02*
D03*
X209646D02*
D03*
X216732Y103293D02*
D03*
X209646D02*
D03*
X216732Y119291D02*
D03*
X209646D02*
D03*
X216732Y47298D02*
D03*
X209646D02*
D03*
D65*
X184843Y24213D02*
D03*
Y18701D02*
D03*
X155315Y22835D02*
D03*
Y28346D02*
D03*
X114567Y130413D02*
D03*
Y124902D02*
D03*
D68*
X142028Y148327D02*
D03*
X147539D02*
D03*
D69*
X108760Y118307D02*
D03*
Y109646D02*
D03*
D73*
X150256Y12183D02*
D03*
D74*
X179469D02*
D03*
D75*
X23031Y142323D02*
D03*
X28032Y147323D02*
D03*
X18032D02*
D03*
Y137323D02*
D03*
X28032D02*
D03*
X272146Y129921D02*
D03*
X277146Y124921D02*
D03*
Y134921D02*
D03*
X267146D02*
D03*
Y124921D02*
D03*
D76*
X266240Y31890D02*
D03*
D77*
X276240D02*
D03*
X266673Y99114D02*
D03*
X276673D02*
D03*
X266673Y89114D02*
D03*
X276673D02*
D03*
X266673Y79114D02*
D03*
X276673D02*
D03*
X266673Y69114D02*
D03*
X276673D02*
D03*
X266673Y59114D02*
D03*
X276673D02*
D03*
X266673Y49114D02*
D03*
X5610Y51752D02*
D03*
Y61752D02*
D03*
Y41752D02*
D03*
Y31752D02*
D03*
Y21752D02*
D03*
Y11752D02*
D03*
D78*
X276673Y49114D02*
D03*
D79*
X5610Y71752D02*
D03*
D80*
X218701Y16535D02*
D03*
X193898D02*
D03*
D81*
X171260Y30174D02*
D03*
Y26434D02*
D03*
Y22694D02*
D03*
X161811D02*
D03*
Y30174D02*
D03*
D82*
X145571Y46260D02*
D03*
X136909D02*
D03*
D83*
X177559Y34449D02*
D03*
Y39961D02*
D03*
X178445Y18602D02*
D03*
Y24114D02*
D03*
X135728Y130509D02*
D03*
Y124998D02*
D03*
D84*
X143602Y20965D02*
D03*
D85*
X138130Y30531D02*
D03*
X149114Y30413D02*
D03*
D86*
X168701Y10531D02*
D03*
X160039D02*
D03*
D87*
X120857Y133514D02*
D03*
X124597D02*
D03*
X128337D02*
D03*
Y124065D02*
D03*
X120857D02*
D03*
D88*
X120374Y110433D02*
D03*
X120256Y99449D02*
D03*
D89*
X129823Y104921D02*
D03*
D90*
X57854Y139508D02*
D03*
X57776Y20059D02*
D03*
M02*
