G04 Layer_Color=32896*
%FSLAX25Y25*%
%MOIN*%
G70*
G01*
G75*
%ADD60C,0.00787*%
%ADD64C,0.00591*%
%ADD105R,0.02165X0.05118*%
G36*
X128060Y-82874D02*
X127597D01*
Y-81378D01*
X127593Y-81263D01*
X127585Y-81160D01*
X127572Y-81074D01*
X127560Y-81004D01*
X127548Y-80947D01*
X127535Y-80906D01*
X127531Y-80894D01*
X127527Y-80881D01*
X127523Y-80873D01*
X127490Y-80808D01*
X127449Y-80750D01*
X127408Y-80701D01*
X127363Y-80660D01*
X127326Y-80627D01*
X127294Y-80603D01*
X127273Y-80586D01*
X127265Y-80582D01*
X127195Y-80545D01*
X127126Y-80516D01*
X127060Y-80500D01*
X127003Y-80484D01*
X126949Y-80475D01*
X126908Y-80471D01*
X126875D01*
X126777Y-80480D01*
X126691Y-80496D01*
X126621Y-80521D01*
X126560Y-80549D01*
X126511Y-80582D01*
X126478Y-80607D01*
X126457Y-80623D01*
X126449Y-80631D01*
X126420Y-80664D01*
X126400Y-80697D01*
X126363Y-80779D01*
X126334Y-80861D01*
X126318Y-80947D01*
X126305Y-81021D01*
X126301Y-81054D01*
Y-81082D01*
X126297Y-81107D01*
Y-81123D01*
Y-81136D01*
Y-81140D01*
Y-82874D01*
X125834D01*
Y-81140D01*
Y-81066D01*
X125838Y-80996D01*
X125842Y-80931D01*
X125850Y-80873D01*
X125859Y-80816D01*
X125867Y-80767D01*
X125875Y-80721D01*
X125883Y-80681D01*
X125891Y-80644D01*
X125900Y-80611D01*
X125908Y-80586D01*
X125916Y-80562D01*
X125924Y-80545D01*
X125928Y-80533D01*
X125932Y-80529D01*
Y-80525D01*
X125973Y-80451D01*
X126023Y-80381D01*
X126080Y-80324D01*
X126129Y-80279D01*
X126178Y-80242D01*
X126219Y-80213D01*
X126236Y-80205D01*
X126248Y-80197D01*
X126252Y-80193D01*
X126256D01*
X126342Y-80152D01*
X126433Y-80123D01*
X126519Y-80098D01*
X126601Y-80086D01*
X126674Y-80078D01*
X126703Y-80074D01*
X126732Y-80070D01*
X126781D01*
X126871Y-80074D01*
X126957Y-80086D01*
X127039Y-80107D01*
X127117Y-80127D01*
X127187Y-80160D01*
X127257Y-80189D01*
X127318Y-80225D01*
X127372Y-80258D01*
X127425Y-80295D01*
X127470Y-80332D01*
X127507Y-80361D01*
X127540Y-80389D01*
X127564Y-80414D01*
X127581Y-80435D01*
X127593Y-80447D01*
X127597Y-80451D01*
Y-79090D01*
X128060D01*
Y-82874D01*
D02*
G37*
G36*
X114612Y-74259D02*
X114686Y-74263D01*
X114756Y-74275D01*
X114822Y-74287D01*
X114879Y-74304D01*
X114936Y-74324D01*
X114990Y-74345D01*
X115035Y-74365D01*
X115080Y-74386D01*
X115117Y-74406D01*
X115149Y-74423D01*
X115174Y-74443D01*
X115195Y-74455D01*
X115211Y-74468D01*
X115219Y-74472D01*
X115223Y-74476D01*
X115272Y-74521D01*
X115318Y-74566D01*
X115400Y-74669D01*
X115473Y-74771D01*
X115531Y-74874D01*
X115555Y-74923D01*
X115576Y-74964D01*
X115592Y-75005D01*
X115609Y-75038D01*
X115617Y-75066D01*
X115625Y-75091D01*
X115633Y-75103D01*
Y-75107D01*
X115658Y-75185D01*
X115678Y-75271D01*
X115711Y-75448D01*
X115736Y-75628D01*
X115744Y-75714D01*
X115752Y-75800D01*
X115756Y-75878D01*
X115760Y-75952D01*
X115764Y-76018D01*
Y-76075D01*
X115769Y-76120D01*
Y-76157D01*
Y-76178D01*
Y-76186D01*
X115764Y-76378D01*
X115752Y-76559D01*
X115736Y-76723D01*
X115711Y-76875D01*
X115682Y-77014D01*
X115650Y-77141D01*
X115617Y-77252D01*
X115580Y-77354D01*
X115547Y-77440D01*
X115514Y-77518D01*
X115482Y-77580D01*
X115453Y-77633D01*
X115428Y-77674D01*
X115412Y-77703D01*
X115400Y-77719D01*
X115395Y-77723D01*
X115334Y-77793D01*
X115268Y-77850D01*
X115199Y-77904D01*
X115129Y-77949D01*
X115059Y-77986D01*
X114986Y-78018D01*
X114916Y-78043D01*
X114850Y-78063D01*
X114785Y-78080D01*
X114727Y-78092D01*
X114674Y-78100D01*
X114629Y-78105D01*
X114592Y-78109D01*
X114563Y-78113D01*
X114539D01*
X114461Y-78109D01*
X114391Y-78105D01*
X114321Y-78092D01*
X114256Y-78080D01*
X114194Y-78059D01*
X114141Y-78043D01*
X114088Y-78022D01*
X114042Y-78002D01*
X113997Y-77982D01*
X113961Y-77961D01*
X113928Y-77940D01*
X113903Y-77924D01*
X113883Y-77912D01*
X113866Y-77899D01*
X113858Y-77895D01*
X113854Y-77891D01*
X113805Y-77846D01*
X113756Y-77801D01*
X113673Y-77699D01*
X113604Y-77596D01*
X113546Y-77494D01*
X113522Y-77444D01*
X113501Y-77399D01*
X113485Y-77362D01*
X113469Y-77325D01*
X113456Y-77301D01*
X113452Y-77276D01*
X113444Y-77264D01*
Y-77260D01*
X113419Y-77182D01*
X113399Y-77096D01*
X113362Y-76920D01*
X113337Y-76739D01*
X113329Y-76653D01*
X113321Y-76567D01*
X113317Y-76489D01*
X113313Y-76415D01*
X113309Y-76354D01*
X113304Y-76296D01*
Y-76251D01*
Y-76214D01*
Y-76194D01*
Y-76186D01*
Y-76083D01*
X113309Y-75985D01*
X113313Y-75895D01*
X113317Y-75809D01*
X113325Y-75731D01*
X113333Y-75657D01*
X113341Y-75591D01*
X113346Y-75530D01*
X113354Y-75476D01*
X113362Y-75431D01*
X113370Y-75390D01*
X113378Y-75358D01*
X113382Y-75329D01*
X113386Y-75312D01*
X113391Y-75300D01*
Y-75296D01*
X113423Y-75177D01*
X113464Y-75066D01*
X113501Y-74972D01*
X113538Y-74890D01*
X113559Y-74857D01*
X113571Y-74825D01*
X113587Y-74796D01*
X113600Y-74775D01*
X113612Y-74759D01*
X113616Y-74747D01*
X113624Y-74738D01*
Y-74734D01*
X113682Y-74652D01*
X113747Y-74578D01*
X113809Y-74517D01*
X113870Y-74468D01*
X113924Y-74427D01*
X113965Y-74402D01*
X113981Y-74390D01*
X113993Y-74382D01*
X114002Y-74378D01*
X114006D01*
X114096Y-74337D01*
X114186Y-74308D01*
X114276Y-74283D01*
X114358Y-74271D01*
X114432Y-74263D01*
X114461Y-74259D01*
X114489Y-74255D01*
X114539D01*
X114612Y-74259D01*
D02*
G37*
G36*
X117552D02*
X117626Y-74263D01*
X117696Y-74275D01*
X117761Y-74287D01*
X117819Y-74304D01*
X117876Y-74324D01*
X117929Y-74345D01*
X117974Y-74365D01*
X118019Y-74386D01*
X118056Y-74406D01*
X118089Y-74423D01*
X118114Y-74443D01*
X118134Y-74455D01*
X118151Y-74468D01*
X118159Y-74472D01*
X118163Y-74476D01*
X118212Y-74521D01*
X118257Y-74566D01*
X118339Y-74669D01*
X118413Y-74771D01*
X118471Y-74874D01*
X118495Y-74923D01*
X118516Y-74964D01*
X118532Y-75005D01*
X118548Y-75038D01*
X118557Y-75066D01*
X118565Y-75091D01*
X118573Y-75103D01*
Y-75107D01*
X118598Y-75185D01*
X118618Y-75271D01*
X118651Y-75448D01*
X118675Y-75628D01*
X118684Y-75714D01*
X118692Y-75800D01*
X118696Y-75878D01*
X118700Y-75952D01*
X118704Y-76018D01*
Y-76075D01*
X118708Y-76120D01*
Y-76157D01*
Y-76178D01*
Y-76186D01*
X118704Y-76378D01*
X118692Y-76559D01*
X118675Y-76723D01*
X118651Y-76875D01*
X118622Y-77014D01*
X118589Y-77141D01*
X118557Y-77252D01*
X118520Y-77354D01*
X118487Y-77440D01*
X118454Y-77518D01*
X118421Y-77580D01*
X118393Y-77633D01*
X118368Y-77674D01*
X118352Y-77703D01*
X118339Y-77719D01*
X118335Y-77723D01*
X118274Y-77793D01*
X118208Y-77850D01*
X118138Y-77904D01*
X118069Y-77949D01*
X117999Y-77986D01*
X117925Y-78018D01*
X117856Y-78043D01*
X117790Y-78063D01*
X117724Y-78080D01*
X117667Y-78092D01*
X117614Y-78100D01*
X117569Y-78105D01*
X117532Y-78109D01*
X117503Y-78113D01*
X117478D01*
X117400Y-78109D01*
X117331Y-78105D01*
X117261Y-78092D01*
X117195Y-78080D01*
X117134Y-78059D01*
X117081Y-78043D01*
X117027Y-78022D01*
X116982Y-78002D01*
X116937Y-77982D01*
X116900Y-77961D01*
X116867Y-77940D01*
X116843Y-77924D01*
X116822Y-77912D01*
X116806Y-77899D01*
X116798Y-77895D01*
X116794Y-77891D01*
X116744Y-77846D01*
X116695Y-77801D01*
X116613Y-77699D01*
X116543Y-77596D01*
X116486Y-77494D01*
X116462Y-77444D01*
X116441Y-77399D01*
X116425Y-77362D01*
X116408Y-77325D01*
X116396Y-77301D01*
X116392Y-77276D01*
X116384Y-77264D01*
Y-77260D01*
X116359Y-77182D01*
X116339Y-77096D01*
X116302Y-76920D01*
X116277Y-76739D01*
X116269Y-76653D01*
X116261Y-76567D01*
X116256Y-76489D01*
X116252Y-76415D01*
X116248Y-76354D01*
X116244Y-76296D01*
Y-76251D01*
Y-76214D01*
Y-76194D01*
Y-76186D01*
Y-76083D01*
X116248Y-75985D01*
X116252Y-75895D01*
X116256Y-75809D01*
X116265Y-75731D01*
X116273Y-75657D01*
X116281Y-75591D01*
X116285Y-75530D01*
X116293Y-75476D01*
X116302Y-75431D01*
X116310Y-75390D01*
X116318Y-75358D01*
X116322Y-75329D01*
X116326Y-75312D01*
X116330Y-75300D01*
Y-75296D01*
X116363Y-75177D01*
X116404Y-75066D01*
X116441Y-74972D01*
X116478Y-74890D01*
X116498Y-74857D01*
X116511Y-74825D01*
X116527Y-74796D01*
X116539Y-74775D01*
X116552Y-74759D01*
X116556Y-74747D01*
X116564Y-74738D01*
Y-74734D01*
X116621Y-74652D01*
X116687Y-74578D01*
X116748Y-74517D01*
X116810Y-74468D01*
X116863Y-74427D01*
X116904Y-74402D01*
X116921Y-74390D01*
X116933Y-74382D01*
X116941Y-74378D01*
X116945D01*
X117035Y-74337D01*
X117126Y-74308D01*
X117216Y-74283D01*
X117298Y-74271D01*
X117372Y-74263D01*
X117400Y-74259D01*
X117429Y-74255D01*
X117478D01*
X117552Y-74259D01*
D02*
G37*
G36*
X118208Y-80074D02*
X118327Y-80086D01*
X118433Y-80102D01*
X118483Y-80111D01*
X118524Y-80119D01*
X118565Y-80127D01*
X118602Y-80135D01*
X118630Y-80143D01*
X118655Y-80152D01*
X118675Y-80160D01*
X118692Y-80164D01*
X118700Y-80168D01*
X118704D01*
X118798Y-80209D01*
X118880Y-80254D01*
X118950Y-80299D01*
X119008Y-80344D01*
X119053Y-80385D01*
X119085Y-80418D01*
X119106Y-80439D01*
X119114Y-80443D01*
Y-80447D01*
X119163Y-80516D01*
X119204Y-80594D01*
X119237Y-80672D01*
X119266Y-80746D01*
X119286Y-80812D01*
X119295Y-80840D01*
X119303Y-80865D01*
X119307Y-80885D01*
X119311Y-80902D01*
X119315Y-80910D01*
Y-80914D01*
X118860Y-80976D01*
X118843Y-80922D01*
X118827Y-80873D01*
X118794Y-80791D01*
X118753Y-80717D01*
X118716Y-80664D01*
X118684Y-80623D01*
X118655Y-80590D01*
X118639Y-80574D01*
X118630Y-80570D01*
X118565Y-80533D01*
X118487Y-80504D01*
X118409Y-80484D01*
X118331Y-80467D01*
X118257Y-80459D01*
X118228D01*
X118200Y-80455D01*
X118147D01*
X118024Y-80463D01*
X117917Y-80480D01*
X117827Y-80504D01*
X117753Y-80533D01*
X117695Y-80566D01*
X117675Y-80578D01*
X117655Y-80590D01*
X117638Y-80598D01*
X117630Y-80607D01*
X117622Y-80615D01*
X117577Y-80664D01*
X117544Y-80726D01*
X117519Y-80791D01*
X117503Y-80857D01*
X117495Y-80918D01*
X117486Y-80967D01*
Y-80984D01*
Y-81000D01*
Y-81008D01*
Y-81013D01*
Y-81025D01*
Y-81041D01*
Y-81082D01*
X117490Y-81099D01*
Y-81115D01*
Y-81127D01*
Y-81132D01*
X117544Y-81148D01*
X117601Y-81164D01*
X117667Y-81181D01*
X117732Y-81197D01*
X117868Y-81226D01*
X118003Y-81250D01*
X118069Y-81259D01*
X118126Y-81267D01*
X118179Y-81275D01*
X118228Y-81283D01*
X118265Y-81287D01*
X118294Y-81291D01*
X118310Y-81296D01*
X118319D01*
X118417Y-81308D01*
X118499Y-81320D01*
X118573Y-81332D01*
X118630Y-81341D01*
X118675Y-81353D01*
X118708Y-81357D01*
X118725Y-81365D01*
X118733D01*
X118798Y-81386D01*
X118864Y-81410D01*
X118921Y-81435D01*
X118971Y-81459D01*
X119012Y-81480D01*
X119040Y-81501D01*
X119061Y-81513D01*
X119069Y-81517D01*
X119122Y-81558D01*
X119167Y-81599D01*
X119208Y-81644D01*
X119241Y-81685D01*
X119270Y-81726D01*
X119290Y-81755D01*
X119303Y-81775D01*
X119307Y-81783D01*
X119335Y-81849D01*
X119360Y-81911D01*
X119377Y-81972D01*
X119385Y-82029D01*
X119393Y-82079D01*
X119397Y-82120D01*
Y-82144D01*
Y-82148D01*
Y-82152D01*
X119393Y-82214D01*
X119385Y-82275D01*
X119377Y-82333D01*
X119360Y-82386D01*
X119319Y-82485D01*
X119274Y-82562D01*
X119254Y-82599D01*
X119233Y-82628D01*
X119212Y-82657D01*
X119192Y-82677D01*
X119176Y-82694D01*
X119167Y-82706D01*
X119159Y-82714D01*
X119155Y-82718D01*
X119106Y-82755D01*
X119057Y-82788D01*
X118999Y-82821D01*
X118946Y-82845D01*
X118831Y-82882D01*
X118716Y-82907D01*
X118667Y-82919D01*
X118618Y-82923D01*
X118573Y-82927D01*
X118536Y-82931D01*
X118507Y-82936D01*
X118462D01*
X118360Y-82931D01*
X118265Y-82923D01*
X118179Y-82907D01*
X118101Y-82890D01*
X118040Y-82874D01*
X118011Y-82866D01*
X117991Y-82858D01*
X117974Y-82854D01*
X117962Y-82849D01*
X117954Y-82845D01*
X117950D01*
X117859Y-82804D01*
X117769Y-82759D01*
X117687Y-82706D01*
X117609Y-82653D01*
X117544Y-82608D01*
X117519Y-82583D01*
X117495Y-82566D01*
X117474Y-82550D01*
X117462Y-82538D01*
X117454Y-82534D01*
X117449Y-82530D01*
X117441Y-82603D01*
X117429Y-82669D01*
X117413Y-82726D01*
X117396Y-82776D01*
X117384Y-82817D01*
X117372Y-82849D01*
X117363Y-82866D01*
X117359Y-82874D01*
X116876D01*
X116904Y-82817D01*
X116929Y-82755D01*
X116949Y-82702D01*
X116966Y-82653D01*
X116978Y-82608D01*
X116986Y-82575D01*
X116990Y-82554D01*
Y-82546D01*
X116994Y-82509D01*
X116999Y-82460D01*
X117003Y-82407D01*
X117007Y-82345D01*
X117011Y-82279D01*
Y-82210D01*
X117015Y-82070D01*
Y-82005D01*
X117019Y-81939D01*
Y-81882D01*
Y-81828D01*
Y-81788D01*
Y-81755D01*
Y-81734D01*
Y-81726D01*
Y-81107D01*
Y-81050D01*
Y-81000D01*
X117023Y-80955D01*
Y-80910D01*
X117027Y-80836D01*
X117031Y-80779D01*
X117035Y-80734D01*
X117040Y-80705D01*
X117044Y-80685D01*
Y-80681D01*
X117060Y-80611D01*
X117085Y-80549D01*
X117109Y-80496D01*
X117134Y-80451D01*
X117154Y-80414D01*
X117175Y-80385D01*
X117187Y-80369D01*
X117191Y-80365D01*
X117236Y-80320D01*
X117286Y-80279D01*
X117339Y-80242D01*
X117392Y-80213D01*
X117441Y-80189D01*
X117478Y-80172D01*
X117495Y-80164D01*
X117507Y-80160D01*
X117511Y-80156D01*
X117515D01*
X117601Y-80127D01*
X117695Y-80107D01*
X117790Y-80090D01*
X117880Y-80082D01*
X117958Y-80074D01*
X117995D01*
X118024Y-80070D01*
X118081D01*
X118208Y-80074D01*
D02*
G37*
G36*
X124104D02*
X124194Y-80082D01*
X124276Y-80098D01*
X124358Y-80119D01*
X124436Y-80139D01*
X124506Y-80168D01*
X124571Y-80193D01*
X124629Y-80221D01*
X124686Y-80250D01*
X124731Y-80279D01*
X124772Y-80307D01*
X124809Y-80328D01*
X124834Y-80348D01*
X124854Y-80365D01*
X124866Y-80373D01*
X124871Y-80377D01*
X124944Y-80451D01*
X125010Y-80529D01*
X125067Y-80615D01*
X125117Y-80705D01*
X125153Y-80799D01*
X125190Y-80894D01*
X125219Y-80988D01*
X125240Y-81078D01*
X125256Y-81164D01*
X125272Y-81242D01*
X125280Y-81316D01*
X125285Y-81382D01*
X125289Y-81431D01*
X125293Y-81472D01*
Y-81496D01*
Y-81501D01*
Y-81505D01*
X125289Y-81632D01*
X125276Y-81751D01*
X125260Y-81861D01*
X125240Y-81964D01*
X125211Y-82058D01*
X125182Y-82144D01*
X125149Y-82222D01*
X125117Y-82296D01*
X125084Y-82357D01*
X125051Y-82415D01*
X125022Y-82460D01*
X124994Y-82497D01*
X124973Y-82530D01*
X124957Y-82550D01*
X124944Y-82562D01*
X124940Y-82566D01*
X124871Y-82632D01*
X124797Y-82689D01*
X124723Y-82739D01*
X124645Y-82780D01*
X124567Y-82817D01*
X124489Y-82845D01*
X124415Y-82870D01*
X124342Y-82890D01*
X124272Y-82903D01*
X124210Y-82915D01*
X124153Y-82923D01*
X124104Y-82931D01*
X124063D01*
X124034Y-82936D01*
X124010D01*
X123878Y-82927D01*
X123755Y-82911D01*
X123645Y-82882D01*
X123591Y-82870D01*
X123546Y-82854D01*
X123501Y-82837D01*
X123464Y-82825D01*
X123431Y-82808D01*
X123403Y-82796D01*
X123378Y-82788D01*
X123362Y-82780D01*
X123354Y-82771D01*
X123349D01*
X123243Y-82702D01*
X123149Y-82628D01*
X123071Y-82550D01*
X123005Y-82472D01*
X122952Y-82407D01*
X122931Y-82374D01*
X122915Y-82349D01*
X122903Y-82329D01*
X122894Y-82312D01*
X122886Y-82304D01*
Y-82300D01*
X122857Y-82239D01*
X122833Y-82177D01*
X122792Y-82042D01*
X122763Y-81902D01*
X122747Y-81771D01*
X122739Y-81710D01*
X122734Y-81652D01*
X122730Y-81599D01*
Y-81554D01*
X122726Y-81517D01*
Y-81492D01*
Y-81472D01*
Y-81468D01*
X122730Y-81349D01*
X122743Y-81234D01*
X122759Y-81127D01*
X122784Y-81029D01*
X122808Y-80939D01*
X122841Y-80857D01*
X122874Y-80779D01*
X122907Y-80709D01*
X122939Y-80648D01*
X122972Y-80594D01*
X123005Y-80549D01*
X123030Y-80512D01*
X123054Y-80480D01*
X123071Y-80459D01*
X123083Y-80447D01*
X123087Y-80443D01*
X123157Y-80377D01*
X123231Y-80320D01*
X123304Y-80270D01*
X123382Y-80225D01*
X123460Y-80193D01*
X123534Y-80160D01*
X123612Y-80135D01*
X123681Y-80115D01*
X123751Y-80102D01*
X123813Y-80090D01*
X123866Y-80082D01*
X123915Y-80074D01*
X123956D01*
X123985Y-80070D01*
X124010D01*
X124104Y-80074D01*
D02*
G37*
G36*
X130360Y-79028D02*
X130492Y-79045D01*
X130606Y-79065D01*
X130660Y-79077D01*
X130709Y-79090D01*
X130754Y-79102D01*
X130795Y-79114D01*
X130832Y-79127D01*
X130861Y-79135D01*
X130881Y-79143D01*
X130902Y-79151D01*
X130910Y-79155D01*
X130914D01*
X131025Y-79209D01*
X131119Y-79270D01*
X131201Y-79332D01*
X131266Y-79393D01*
X131320Y-79451D01*
X131361Y-79496D01*
X131373Y-79512D01*
X131381Y-79524D01*
X131389Y-79532D01*
Y-79537D01*
X131443Y-79631D01*
X131484Y-79725D01*
X131508Y-79811D01*
X131529Y-79893D01*
X131541Y-79967D01*
X131545Y-79996D01*
Y-80020D01*
X131549Y-80041D01*
Y-80057D01*
Y-80066D01*
Y-80070D01*
X131545Y-80164D01*
X131529Y-80254D01*
X131508Y-80336D01*
X131484Y-80406D01*
X131459Y-80463D01*
X131439Y-80508D01*
X131430Y-80525D01*
X131422Y-80537D01*
X131418Y-80541D01*
Y-80545D01*
X131365Y-80619D01*
X131299Y-80689D01*
X131234Y-80746D01*
X131164Y-80799D01*
X131107Y-80840D01*
X131057Y-80869D01*
X131037Y-80877D01*
X131025Y-80885D01*
X131016Y-80894D01*
X131012D01*
X130971Y-80914D01*
X130922Y-80935D01*
X130869Y-80955D01*
X130811Y-80976D01*
X130693Y-81017D01*
X130570Y-81054D01*
X130512Y-81070D01*
X130463Y-81086D01*
X130414Y-81099D01*
X130369Y-81111D01*
X130336Y-81119D01*
X130307Y-81127D01*
X130291Y-81132D01*
X130287D01*
X130192Y-81152D01*
X130106Y-81177D01*
X130032Y-81193D01*
X129963Y-81213D01*
X129901Y-81230D01*
X129844Y-81242D01*
X129799Y-81259D01*
X129754Y-81271D01*
X129721Y-81279D01*
X129688Y-81291D01*
X129663Y-81300D01*
X129647Y-81304D01*
X129631Y-81308D01*
X129622Y-81312D01*
X129614Y-81316D01*
X129532Y-81353D01*
X129463Y-81390D01*
X129401Y-81427D01*
X129356Y-81459D01*
X129319Y-81492D01*
X129294Y-81517D01*
X129278Y-81533D01*
X129274Y-81537D01*
X129237Y-81587D01*
X129212Y-81640D01*
X129192Y-81693D01*
X129180Y-81742D01*
X129171Y-81783D01*
X129167Y-81820D01*
Y-81841D01*
Y-81845D01*
Y-81849D01*
X129171Y-81911D01*
X129184Y-81972D01*
X129204Y-82025D01*
X129221Y-82074D01*
X129241Y-82116D01*
X129262Y-82148D01*
X129274Y-82165D01*
X129278Y-82173D01*
X129323Y-82226D01*
X129372Y-82271D01*
X129430Y-82312D01*
X129483Y-82345D01*
X129532Y-82370D01*
X129569Y-82390D01*
X129586Y-82398D01*
X129598Y-82402D01*
X129602Y-82407D01*
X129606D01*
X129688Y-82435D01*
X129774Y-82456D01*
X129860Y-82468D01*
X129938Y-82476D01*
X130004Y-82485D01*
X130032D01*
X130057Y-82489D01*
X130106D01*
X130225Y-82485D01*
X130332Y-82472D01*
X130434Y-82452D01*
X130520Y-82431D01*
X130557Y-82423D01*
X130590Y-82415D01*
X130619Y-82402D01*
X130643Y-82394D01*
X130664Y-82386D01*
X130676Y-82382D01*
X130684Y-82378D01*
X130688D01*
X130779Y-82333D01*
X130857Y-82284D01*
X130922Y-82239D01*
X130975Y-82189D01*
X131016Y-82148D01*
X131045Y-82116D01*
X131066Y-82095D01*
X131070Y-82087D01*
X131111Y-82013D01*
X131143Y-81935D01*
X131168Y-81857D01*
X131189Y-81783D01*
X131205Y-81714D01*
X131209Y-81689D01*
X131213Y-81665D01*
X131217Y-81644D01*
X131221Y-81628D01*
Y-81619D01*
Y-81615D01*
X131693Y-81656D01*
X131689Y-81726D01*
X131681Y-81796D01*
X131656Y-81923D01*
X131623Y-82042D01*
X131607Y-82095D01*
X131586Y-82140D01*
X131570Y-82185D01*
X131549Y-82226D01*
X131533Y-82259D01*
X131517Y-82288D01*
X131504Y-82312D01*
X131496Y-82329D01*
X131492Y-82337D01*
X131488Y-82341D01*
X131410Y-82448D01*
X131320Y-82538D01*
X131230Y-82616D01*
X131143Y-82677D01*
X131066Y-82726D01*
X131033Y-82743D01*
X131004Y-82759D01*
X130980Y-82771D01*
X130963Y-82780D01*
X130951Y-82788D01*
X130947D01*
X130807Y-82837D01*
X130664Y-82874D01*
X130520Y-82899D01*
X130385Y-82915D01*
X130319Y-82923D01*
X130262Y-82927D01*
X130213Y-82931D01*
X130168D01*
X130131Y-82936D01*
X130082D01*
X129934Y-82927D01*
X129799Y-82911D01*
X129676Y-82890D01*
X129618Y-82874D01*
X129569Y-82862D01*
X129520Y-82849D01*
X129479Y-82833D01*
X129442Y-82821D01*
X129413Y-82812D01*
X129389Y-82800D01*
X129372Y-82796D01*
X129360Y-82788D01*
X129356D01*
X129241Y-82726D01*
X129143Y-82661D01*
X129057Y-82591D01*
X128987Y-82525D01*
X128929Y-82464D01*
X128893Y-82419D01*
X128876Y-82398D01*
X128868Y-82386D01*
X128860Y-82378D01*
Y-82374D01*
X128827Y-82325D01*
X128802Y-82271D01*
X128757Y-82173D01*
X128725Y-82079D01*
X128704Y-81993D01*
X128692Y-81915D01*
X128688Y-81886D01*
Y-81857D01*
X128683Y-81837D01*
Y-81820D01*
Y-81812D01*
Y-81808D01*
X128692Y-81697D01*
X128708Y-81595D01*
X128733Y-81505D01*
X128761Y-81427D01*
X128794Y-81361D01*
X128806Y-81332D01*
X128819Y-81312D01*
X128827Y-81296D01*
X128835Y-81283D01*
X128843Y-81275D01*
Y-81271D01*
X128876Y-81230D01*
X128909Y-81189D01*
X128987Y-81111D01*
X129065Y-81045D01*
X129147Y-80992D01*
X129217Y-80947D01*
X129249Y-80927D01*
X129278Y-80914D01*
X129298Y-80902D01*
X129315Y-80894D01*
X129327Y-80885D01*
X129331D01*
X129376Y-80865D01*
X129434Y-80844D01*
X129491Y-80824D01*
X129557Y-80804D01*
X129696Y-80767D01*
X129836Y-80730D01*
X129901Y-80709D01*
X129963Y-80697D01*
X130020Y-80681D01*
X130069Y-80672D01*
X130110Y-80660D01*
X130139Y-80652D01*
X130159Y-80648D01*
X130168D01*
X130278Y-80623D01*
X130377Y-80594D01*
X130463Y-80570D01*
X130545Y-80545D01*
X130615Y-80521D01*
X130676Y-80500D01*
X130729Y-80480D01*
X130774Y-80459D01*
X130811Y-80439D01*
X130844Y-80422D01*
X130869Y-80410D01*
X130889Y-80398D01*
X130906Y-80385D01*
X130914Y-80377D01*
X130922Y-80373D01*
X130971Y-80320D01*
X131004Y-80266D01*
X131029Y-80209D01*
X131049Y-80156D01*
X131057Y-80111D01*
X131061Y-80074D01*
X131066Y-80049D01*
Y-80045D01*
Y-80041D01*
X131061Y-79996D01*
X131057Y-79955D01*
X131033Y-79881D01*
X131000Y-79811D01*
X130963Y-79754D01*
X130926Y-79705D01*
X130893Y-79668D01*
X130869Y-79647D01*
X130865Y-79639D01*
X130861D01*
X130820Y-79610D01*
X130770Y-79582D01*
X130668Y-79541D01*
X130561Y-79512D01*
X130451Y-79492D01*
X130401Y-79483D01*
X130352Y-79479D01*
X130311Y-79475D01*
X130274D01*
X130242Y-79471D01*
X130123D01*
X130049Y-79479D01*
X129979Y-79487D01*
X129913Y-79500D01*
X129856Y-79512D01*
X129803Y-79528D01*
X129754Y-79545D01*
X129709Y-79561D01*
X129672Y-79582D01*
X129639Y-79598D01*
X129610Y-79615D01*
X129586Y-79627D01*
X129569Y-79639D01*
X129553Y-79647D01*
X129549Y-79651D01*
X129544Y-79655D01*
X129504Y-79692D01*
X129467Y-79729D01*
X129409Y-79815D01*
X129360Y-79906D01*
X129327Y-79992D01*
X129303Y-80070D01*
X129294Y-80102D01*
X129286Y-80135D01*
X129282Y-80160D01*
Y-80176D01*
X129278Y-80189D01*
Y-80193D01*
X128798Y-80156D01*
X128811Y-80033D01*
X128835Y-79922D01*
X128864Y-79820D01*
X128897Y-79733D01*
X128917Y-79697D01*
X128929Y-79660D01*
X128946Y-79631D01*
X128958Y-79606D01*
X128971Y-79586D01*
X128979Y-79574D01*
X128983Y-79565D01*
X128987Y-79561D01*
X129057Y-79467D01*
X129135Y-79389D01*
X129217Y-79319D01*
X129298Y-79262D01*
X129368Y-79221D01*
X129401Y-79204D01*
X129426Y-79188D01*
X129446Y-79176D01*
X129467Y-79172D01*
X129475Y-79163D01*
X129479D01*
X129602Y-79118D01*
X129729Y-79081D01*
X129856Y-79057D01*
X129971Y-79040D01*
X130024Y-79036D01*
X130069Y-79032D01*
X130114Y-79028D01*
X130151Y-79024D01*
X130221D01*
X130360Y-79028D01*
D02*
G37*
G36*
X115117Y-80074D02*
X115215Y-80090D01*
X115305Y-80111D01*
X115391Y-80139D01*
X115469Y-80176D01*
X115539Y-80213D01*
X115604Y-80254D01*
X115662Y-80295D01*
X115715Y-80340D01*
X115760Y-80381D01*
X115797Y-80418D01*
X115826Y-80455D01*
X115850Y-80484D01*
X115871Y-80504D01*
X115879Y-80521D01*
X115883Y-80525D01*
Y-80131D01*
X116302D01*
Y-82874D01*
X115838D01*
Y-81378D01*
X115834Y-81283D01*
X115830Y-81193D01*
X115818Y-81115D01*
X115805Y-81041D01*
X115789Y-80976D01*
X115773Y-80918D01*
X115752Y-80865D01*
X115732Y-80820D01*
X115711Y-80779D01*
X115691Y-80746D01*
X115674Y-80721D01*
X115658Y-80697D01*
X115646Y-80681D01*
X115633Y-80668D01*
X115629Y-80664D01*
X115625Y-80660D01*
X115584Y-80627D01*
X115539Y-80598D01*
X115453Y-80549D01*
X115367Y-80516D01*
X115289Y-80496D01*
X115219Y-80480D01*
X115186Y-80475D01*
X115162D01*
X115141Y-80471D01*
X115112D01*
X115043Y-80475D01*
X114981Y-80484D01*
X114928Y-80500D01*
X114879Y-80512D01*
X114842Y-80529D01*
X114813Y-80545D01*
X114793Y-80553D01*
X114789Y-80558D01*
X114739Y-80590D01*
X114698Y-80627D01*
X114666Y-80664D01*
X114641Y-80701D01*
X114620Y-80734D01*
X114608Y-80758D01*
X114600Y-80775D01*
X114596Y-80783D01*
X114575Y-80840D01*
X114563Y-80906D01*
X114551Y-80976D01*
X114547Y-81045D01*
X114543Y-81107D01*
X114539Y-81136D01*
Y-81160D01*
Y-81177D01*
Y-81193D01*
Y-81201D01*
Y-81205D01*
Y-82874D01*
X114075D01*
Y-81189D01*
Y-81132D01*
Y-81078D01*
X114079Y-81025D01*
Y-80980D01*
X114083Y-80939D01*
Y-80902D01*
X114087Y-80840D01*
X114096Y-80795D01*
X114100Y-80762D01*
X114104Y-80742D01*
Y-80738D01*
X114120Y-80664D01*
X114145Y-80598D01*
X114165Y-80541D01*
X114190Y-80492D01*
X114215Y-80451D01*
X114231Y-80418D01*
X114243Y-80402D01*
X114247Y-80393D01*
X114288Y-80340D01*
X114338Y-80295D01*
X114391Y-80258D01*
X114440Y-80221D01*
X114489Y-80197D01*
X114526Y-80176D01*
X114551Y-80164D01*
X114555Y-80160D01*
X114559D01*
X114637Y-80131D01*
X114715Y-80107D01*
X114793Y-80090D01*
X114862Y-80082D01*
X114924Y-80074D01*
X114948D01*
X114973Y-80070D01*
X115014D01*
X115117Y-80074D01*
D02*
G37*
G36*
X128134Y-75251D02*
X128237Y-75263D01*
X128327Y-75284D01*
X128417Y-75308D01*
X128499Y-75337D01*
X128577Y-75370D01*
X128647Y-75403D01*
X128708Y-75440D01*
X128766Y-75476D01*
X128815Y-75509D01*
X128860Y-75542D01*
X128893Y-75571D01*
X128921Y-75595D01*
X128942Y-75616D01*
X128954Y-75628D01*
X128958Y-75632D01*
X129020Y-75706D01*
X129073Y-75788D01*
X129122Y-75874D01*
X129163Y-75960D01*
X129196Y-76050D01*
X129225Y-76141D01*
X129249Y-76227D01*
X129266Y-76313D01*
X129282Y-76391D01*
X129290Y-76469D01*
X129299Y-76534D01*
X129307Y-76592D01*
Y-76641D01*
X129311Y-76678D01*
Y-76698D01*
Y-76706D01*
X129307Y-76829D01*
X129295Y-76944D01*
X129278Y-77051D01*
X129258Y-77149D01*
X129229Y-77244D01*
X129200Y-77330D01*
X129167Y-77407D01*
X129135Y-77477D01*
X129106Y-77539D01*
X129073Y-77592D01*
X129044Y-77637D01*
X129016Y-77674D01*
X128995Y-77707D01*
X128979Y-77727D01*
X128966Y-77740D01*
X128962Y-77744D01*
X128893Y-77809D01*
X128819Y-77867D01*
X128745Y-77916D01*
X128663Y-77957D01*
X128585Y-77994D01*
X128503Y-78022D01*
X128425Y-78047D01*
X128351Y-78068D01*
X128282Y-78080D01*
X128216Y-78092D01*
X128159Y-78100D01*
X128105Y-78109D01*
X128065D01*
X128032Y-78113D01*
X128007D01*
X127921Y-78109D01*
X127835Y-78105D01*
X127757Y-78092D01*
X127683Y-78076D01*
X127613Y-78059D01*
X127552Y-78039D01*
X127490Y-78018D01*
X127437Y-77998D01*
X127388Y-77977D01*
X127347Y-77957D01*
X127310Y-77936D01*
X127277Y-77920D01*
X127257Y-77904D01*
X127236Y-77891D01*
X127228Y-77887D01*
X127224Y-77883D01*
X127167Y-77838D01*
X127117Y-77789D01*
X127072Y-77736D01*
X127027Y-77682D01*
X126953Y-77571D01*
X126896Y-77469D01*
X126875Y-77420D01*
X126855Y-77375D01*
X126839Y-77334D01*
X126826Y-77297D01*
X126814Y-77268D01*
X126806Y-77248D01*
X126802Y-77231D01*
Y-77227D01*
X127286Y-77166D01*
X127327Y-77268D01*
X127376Y-77358D01*
X127425Y-77436D01*
X127470Y-77494D01*
X127511Y-77543D01*
X127544Y-77576D01*
X127564Y-77592D01*
X127568Y-77600D01*
X127573D01*
X127642Y-77645D01*
X127716Y-77674D01*
X127790Y-77699D01*
X127855Y-77715D01*
X127917Y-77723D01*
X127966Y-77727D01*
X127982Y-77731D01*
X128007D01*
X128069Y-77727D01*
X128130Y-77719D01*
X128188Y-77711D01*
X128241Y-77694D01*
X128339Y-77658D01*
X128421Y-77613D01*
X128458Y-77592D01*
X128491Y-77567D01*
X128516Y-77547D01*
X128540Y-77530D01*
X128557Y-77514D01*
X128569Y-77502D01*
X128577Y-77498D01*
X128581Y-77494D01*
X128622Y-77444D01*
X128659Y-77395D01*
X128688Y-77338D01*
X128716Y-77284D01*
X128761Y-77166D01*
X128794Y-77055D01*
X128807Y-77002D01*
X128815Y-76952D01*
X128823Y-76911D01*
X128827Y-76870D01*
X128831Y-76842D01*
X128835Y-76817D01*
Y-76801D01*
Y-76797D01*
X126789D01*
X126785Y-76743D01*
Y-76702D01*
Y-76682D01*
Y-76674D01*
X126789Y-76551D01*
X126802Y-76436D01*
X126818Y-76325D01*
X126839Y-76223D01*
X126867Y-76128D01*
X126896Y-76042D01*
X126929Y-75964D01*
X126957Y-75895D01*
X126990Y-75833D01*
X127023Y-75776D01*
X127052Y-75731D01*
X127081Y-75694D01*
X127101Y-75661D01*
X127117Y-75640D01*
X127130Y-75628D01*
X127134Y-75624D01*
X127199Y-75558D01*
X127273Y-75501D01*
X127347Y-75448D01*
X127421Y-75407D01*
X127495Y-75370D01*
X127573Y-75337D01*
X127642Y-75312D01*
X127712Y-75292D01*
X127778Y-75280D01*
X127839Y-75267D01*
X127892Y-75259D01*
X127942Y-75251D01*
X127978D01*
X128007Y-75247D01*
X128032D01*
X128134Y-75251D01*
D02*
G37*
G36*
X131049Y-78051D02*
X130606D01*
X129565Y-75308D01*
X130045D01*
X130656Y-76985D01*
X130697Y-77096D01*
X130729Y-77194D01*
X130758Y-77284D01*
X130783Y-77358D01*
X130803Y-77420D01*
X130812Y-77444D01*
X130816Y-77469D01*
X130820Y-77485D01*
X130824Y-77498D01*
X130828Y-77502D01*
Y-77506D01*
X130861Y-77399D01*
X130889Y-77297D01*
X130918Y-77202D01*
X130947Y-77121D01*
X130971Y-77051D01*
X130980Y-77022D01*
X130988Y-76998D01*
X130996Y-76977D01*
X131000Y-76965D01*
X131004Y-76956D01*
Y-76952D01*
X131595Y-75308D01*
X132087D01*
X131049Y-78051D01*
D02*
G37*
G36*
X103078Y-2318D02*
X103168Y-2330D01*
X103246Y-2347D01*
X103311Y-2367D01*
X103365Y-2387D01*
X103406Y-2404D01*
X103430Y-2416D01*
X103434Y-2420D01*
X103438D01*
X103508Y-2465D01*
X103570Y-2515D01*
X103627Y-2568D01*
X103676Y-2617D01*
X103717Y-2662D01*
X103750Y-2703D01*
X103767Y-2728D01*
X103775Y-2732D01*
Y-2375D01*
X104197D01*
Y-6168D01*
X103734D01*
Y-4835D01*
X103689Y-4888D01*
X103639Y-4938D01*
X103590Y-4983D01*
X103541Y-5016D01*
X103500Y-5044D01*
X103463Y-5069D01*
X103443Y-5081D01*
X103434Y-5085D01*
X103365Y-5118D01*
X103291Y-5139D01*
X103221Y-5155D01*
X103156Y-5167D01*
X103098Y-5175D01*
X103057Y-5180D01*
X103016D01*
X102955Y-5175D01*
X102897Y-5171D01*
X102787Y-5151D01*
X102684Y-5122D01*
X102594Y-5089D01*
X102553Y-5073D01*
X102516Y-5061D01*
X102487Y-5044D01*
X102459Y-5032D01*
X102438Y-5020D01*
X102422Y-5012D01*
X102413Y-5003D01*
X102409D01*
X102307Y-4930D01*
X102221Y-4848D01*
X102143Y-4761D01*
X102081Y-4675D01*
X102032Y-4602D01*
X102016Y-4569D01*
X101999Y-4540D01*
X101987Y-4519D01*
X101979Y-4503D01*
X101971Y-4491D01*
Y-4487D01*
X101921Y-4355D01*
X101885Y-4224D01*
X101856Y-4097D01*
X101839Y-3982D01*
X101831Y-3929D01*
X101827Y-3880D01*
X101823Y-3835D01*
Y-3798D01*
X101819Y-3769D01*
Y-3749D01*
Y-3732D01*
Y-3728D01*
X101823Y-3585D01*
X101839Y-3449D01*
X101864Y-3326D01*
X101876Y-3273D01*
X101889Y-3220D01*
X101901Y-3175D01*
X101913Y-3130D01*
X101926Y-3093D01*
X101938Y-3064D01*
X101946Y-3039D01*
X101954Y-3023D01*
X101958Y-3011D01*
Y-3007D01*
X102016Y-2892D01*
X102077Y-2789D01*
X102147Y-2703D01*
X102213Y-2629D01*
X102270Y-2572D01*
X102319Y-2531D01*
X102340Y-2519D01*
X102352Y-2506D01*
X102360Y-2498D01*
X102364D01*
X102413Y-2465D01*
X102467Y-2437D01*
X102573Y-2392D01*
X102676Y-2359D01*
X102774Y-2338D01*
X102819Y-2330D01*
X102856Y-2322D01*
X102893Y-2318D01*
X102926D01*
X102951Y-2314D01*
X102983D01*
X103078Y-2318D01*
D02*
G37*
G36*
X125268Y-75251D02*
X125326Y-75263D01*
X125375Y-75275D01*
X125420Y-75292D01*
X125453Y-75312D01*
X125481Y-75325D01*
X125498Y-75337D01*
X125506Y-75341D01*
X125531Y-75362D01*
X125559Y-75386D01*
X125609Y-75440D01*
X125658Y-75505D01*
X125703Y-75571D01*
X125744Y-75628D01*
X125773Y-75681D01*
X125785Y-75698D01*
X125793Y-75714D01*
X125801Y-75722D01*
Y-75308D01*
X126219D01*
Y-78051D01*
X125756D01*
Y-76616D01*
X125752Y-76510D01*
X125744Y-76407D01*
X125732Y-76317D01*
X125719Y-76235D01*
X125707Y-76169D01*
X125699Y-76141D01*
X125695Y-76116D01*
X125691Y-76100D01*
X125687Y-76087D01*
X125682Y-76079D01*
Y-76075D01*
X125658Y-76018D01*
X125633Y-75964D01*
X125604Y-75923D01*
X125576Y-75886D01*
X125551Y-75858D01*
X125531Y-75837D01*
X125514Y-75825D01*
X125510Y-75821D01*
X125461Y-75788D01*
X125416Y-75767D01*
X125371Y-75751D01*
X125326Y-75739D01*
X125289Y-75731D01*
X125260Y-75726D01*
X125235D01*
X125170Y-75731D01*
X125108Y-75743D01*
X125051Y-75759D01*
X125002Y-75776D01*
X124957Y-75796D01*
X124924Y-75813D01*
X124903Y-75825D01*
X124895Y-75829D01*
X124731Y-75398D01*
X124821Y-75349D01*
X124912Y-75312D01*
X124989Y-75284D01*
X125063Y-75267D01*
X125125Y-75255D01*
X125149Y-75251D01*
X125170D01*
X125186Y-75247D01*
X125211D01*
X125268Y-75251D01*
D02*
G37*
G36*
X119918Y-78051D02*
X119389D01*
Y-77522D01*
X119918D01*
Y-78051D01*
D02*
G37*
G36*
X123276Y-76719D02*
Y-77145D01*
X121627D01*
Y-78051D01*
X121164D01*
Y-77145D01*
X120652D01*
Y-76719D01*
X121164D01*
Y-74267D01*
X121546D01*
X123276Y-76719D01*
D02*
G37*
G36*
X124325Y-78051D02*
X123796D01*
Y-77522D01*
X124325D01*
Y-78051D01*
D02*
G37*
G36*
X118825Y-86660D02*
Y-87086D01*
X117177D01*
Y-87992D01*
X116714D01*
Y-87086D01*
X116201D01*
Y-86660D01*
X116714D01*
Y-84208D01*
X117095D01*
X118825Y-86660D01*
D02*
G37*
G36*
X140945Y-84655D02*
X139699D01*
Y-87992D01*
X139198D01*
Y-84655D01*
X137952D01*
Y-84208D01*
X140945D01*
Y-84655D01*
D02*
G37*
G36*
X136718Y-87996D02*
X136738Y-88045D01*
X136751Y-88082D01*
X136759Y-88103D01*
X136763Y-88111D01*
X136779Y-88160D01*
X136796Y-88205D01*
X136812Y-88246D01*
X136824Y-88283D01*
X136849Y-88345D01*
X136870Y-88390D01*
X136882Y-88423D01*
X136894Y-88443D01*
X136898Y-88455D01*
X136902Y-88459D01*
X136951Y-88521D01*
X136980Y-88546D01*
X137005Y-88566D01*
X137025Y-88582D01*
X137042Y-88595D01*
X137054Y-88599D01*
X137058Y-88603D01*
X137095Y-88619D01*
X137136Y-88632D01*
X137177Y-88644D01*
X137214Y-88648D01*
X137251Y-88652D01*
X137279Y-88656D01*
X137304D01*
X137345Y-88652D01*
X137390Y-88648D01*
X137435Y-88640D01*
X137476Y-88632D01*
X137513Y-88623D01*
X137542Y-88619D01*
X137558Y-88611D01*
X137566D01*
X137513Y-89046D01*
X137452Y-89066D01*
X137398Y-89079D01*
X137345Y-89091D01*
X137300Y-89095D01*
X137267Y-89099D01*
X137239Y-89103D01*
X137214D01*
X137132Y-89099D01*
X137062Y-89087D01*
X136997Y-89066D01*
X136939Y-89046D01*
X136894Y-89029D01*
X136861Y-89009D01*
X136841Y-88997D01*
X136833Y-88993D01*
X136775Y-88947D01*
X136722Y-88894D01*
X136673Y-88841D01*
X136632Y-88783D01*
X136599Y-88734D01*
X136570Y-88693D01*
X136562Y-88677D01*
X136554Y-88665D01*
X136550Y-88660D01*
Y-88656D01*
X136529Y-88623D01*
X136513Y-88582D01*
X136492Y-88537D01*
X136468Y-88488D01*
X136427Y-88386D01*
X136382Y-88283D01*
X136365Y-88234D01*
X136345Y-88189D01*
X136328Y-88148D01*
X136316Y-88111D01*
X136304Y-88078D01*
X136295Y-88058D01*
X136287Y-88041D01*
Y-88037D01*
X135246Y-85249D01*
X135709D01*
X136300Y-86852D01*
X136341Y-86967D01*
X136378Y-87078D01*
X136410Y-87184D01*
X136439Y-87279D01*
X136451Y-87320D01*
X136460Y-87357D01*
X136472Y-87393D01*
X136476Y-87422D01*
X136484Y-87443D01*
X136488Y-87459D01*
X136492Y-87471D01*
Y-87476D01*
X136525Y-87353D01*
X136558Y-87238D01*
X136595Y-87127D01*
X136624Y-87033D01*
X136640Y-86992D01*
X136652Y-86955D01*
X136664Y-86922D01*
X136673Y-86893D01*
X136681Y-86869D01*
X136689Y-86852D01*
X136693Y-86844D01*
Y-86840D01*
X137263Y-85249D01*
X137755D01*
X136718Y-87996D01*
D02*
G37*
G36*
X107956Y-87992D02*
X107493D01*
Y-85631D01*
X106382D01*
Y-85249D01*
X107956D01*
Y-87992D01*
D02*
G37*
G36*
X123389Y-84200D02*
X123462Y-84204D01*
X123532Y-84216D01*
X123598Y-84228D01*
X123655Y-84245D01*
X123713Y-84265D01*
X123766Y-84286D01*
X123811Y-84306D01*
X123856Y-84327D01*
X123893Y-84347D01*
X123926Y-84364D01*
X123950Y-84384D01*
X123971Y-84396D01*
X123987Y-84409D01*
X123995Y-84413D01*
X124000Y-84417D01*
X124049Y-84462D01*
X124094Y-84507D01*
X124176Y-84610D01*
X124250Y-84712D01*
X124307Y-84815D01*
X124332Y-84864D01*
X124352Y-84905D01*
X124369Y-84946D01*
X124385Y-84979D01*
X124393Y-85007D01*
X124401Y-85032D01*
X124410Y-85044D01*
Y-85048D01*
X124434Y-85126D01*
X124455Y-85212D01*
X124487Y-85389D01*
X124512Y-85569D01*
X124520Y-85655D01*
X124529Y-85741D01*
X124533Y-85819D01*
X124537Y-85893D01*
X124541Y-85958D01*
Y-86016D01*
X124545Y-86061D01*
Y-86098D01*
Y-86118D01*
Y-86127D01*
X124541Y-86319D01*
X124529Y-86500D01*
X124512Y-86664D01*
X124487Y-86815D01*
X124459Y-86955D01*
X124426Y-87082D01*
X124393Y-87193D01*
X124356Y-87295D01*
X124323Y-87381D01*
X124291Y-87459D01*
X124258Y-87521D01*
X124229Y-87574D01*
X124205Y-87615D01*
X124188Y-87644D01*
X124176Y-87660D01*
X124172Y-87664D01*
X124110Y-87734D01*
X124045Y-87791D01*
X123975Y-87845D01*
X123905Y-87890D01*
X123836Y-87927D01*
X123762Y-87959D01*
X123692Y-87984D01*
X123626Y-88004D01*
X123561Y-88021D01*
X123503Y-88033D01*
X123450Y-88041D01*
X123405Y-88045D01*
X123368Y-88050D01*
X123339Y-88054D01*
X123315D01*
X123237Y-88050D01*
X123167Y-88045D01*
X123098Y-88033D01*
X123032Y-88021D01*
X122970Y-88000D01*
X122917Y-87984D01*
X122864Y-87963D01*
X122819Y-87943D01*
X122774Y-87922D01*
X122737Y-87902D01*
X122704Y-87881D01*
X122679Y-87865D01*
X122659Y-87853D01*
X122643Y-87840D01*
X122634Y-87836D01*
X122630Y-87832D01*
X122581Y-87787D01*
X122532Y-87742D01*
X122450Y-87639D01*
X122380Y-87537D01*
X122323Y-87435D01*
X122298Y-87385D01*
X122278Y-87340D01*
X122261Y-87303D01*
X122245Y-87266D01*
X122232Y-87242D01*
X122228Y-87217D01*
X122220Y-87205D01*
Y-87201D01*
X122196Y-87123D01*
X122175Y-87037D01*
X122138Y-86861D01*
X122114Y-86680D01*
X122105Y-86594D01*
X122097Y-86508D01*
X122093Y-86430D01*
X122089Y-86356D01*
X122085Y-86295D01*
X122081Y-86237D01*
Y-86192D01*
Y-86155D01*
Y-86135D01*
Y-86127D01*
Y-86024D01*
X122085Y-85926D01*
X122089Y-85835D01*
X122093Y-85749D01*
X122101Y-85672D01*
X122109Y-85598D01*
X122118Y-85532D01*
X122122Y-85471D01*
X122130Y-85417D01*
X122138Y-85372D01*
X122146Y-85331D01*
X122155Y-85298D01*
X122159Y-85270D01*
X122163Y-85253D01*
X122167Y-85241D01*
Y-85237D01*
X122200Y-85118D01*
X122241Y-85007D01*
X122278Y-84913D01*
X122315Y-84831D01*
X122335Y-84798D01*
X122347Y-84765D01*
X122364Y-84737D01*
X122376Y-84716D01*
X122388Y-84700D01*
X122392Y-84688D01*
X122401Y-84679D01*
Y-84675D01*
X122458Y-84593D01*
X122524Y-84519D01*
X122585Y-84458D01*
X122647Y-84409D01*
X122700Y-84368D01*
X122741Y-84343D01*
X122757Y-84331D01*
X122770Y-84323D01*
X122778Y-84319D01*
X122782D01*
X122872Y-84277D01*
X122962Y-84249D01*
X123053Y-84224D01*
X123135Y-84212D01*
X123208Y-84204D01*
X123237Y-84200D01*
X123266Y-84196D01*
X123315D01*
X123389Y-84200D01*
D02*
G37*
G36*
X134623Y-87061D02*
Y-87123D01*
Y-87180D01*
X134627Y-87230D01*
Y-87275D01*
Y-87316D01*
X134631Y-87348D01*
Y-87377D01*
X134635Y-87402D01*
X134639Y-87422D01*
Y-87439D01*
X134643Y-87463D01*
X134647Y-87476D01*
Y-87480D01*
X134668Y-87521D01*
X134696Y-87549D01*
X134721Y-87570D01*
X134725Y-87574D01*
X134729D01*
X134754Y-87582D01*
X134787Y-87590D01*
X134856Y-87599D01*
X134885Y-87603D01*
X135135D01*
Y-87988D01*
X135057Y-87996D01*
X134988Y-88000D01*
X134926Y-88004D01*
X134869D01*
X134824Y-88008D01*
X134762D01*
X134668Y-88004D01*
X134590Y-87992D01*
X134520Y-87972D01*
X134463Y-87951D01*
X134422Y-87935D01*
X134389Y-87914D01*
X134373Y-87902D01*
X134364Y-87898D01*
X134315Y-87853D01*
X134278Y-87808D01*
X134250Y-87762D01*
X134225Y-87722D01*
X134209Y-87685D01*
X134200Y-87656D01*
X134192Y-87639D01*
Y-87631D01*
X134188Y-87599D01*
X134180Y-87562D01*
X134176Y-87516D01*
X134172Y-87467D01*
X134168Y-87365D01*
X134163Y-87258D01*
Y-87209D01*
X134159Y-87160D01*
Y-87115D01*
Y-87078D01*
Y-87045D01*
Y-87020D01*
Y-87004D01*
Y-87000D01*
Y-85631D01*
X132929D01*
Y-87992D01*
X132466D01*
Y-85249D01*
X134623D01*
Y-87061D01*
D02*
G37*
G36*
X105902Y-87992D02*
X105373D01*
Y-87463D01*
X105902D01*
Y-87992D01*
D02*
G37*
G36*
X120211Y-84290D02*
X120273Y-84380D01*
X120342Y-84466D01*
X120412Y-84540D01*
X120474Y-84610D01*
X120502Y-84634D01*
X120523Y-84659D01*
X120543Y-84679D01*
X120560Y-84692D01*
X120568Y-84700D01*
X120572Y-84704D01*
X120683Y-84798D01*
X120802Y-84880D01*
X120916Y-84958D01*
X121023Y-85024D01*
X121068Y-85048D01*
X121113Y-85073D01*
X121154Y-85097D01*
X121187Y-85114D01*
X121216Y-85126D01*
X121236Y-85138D01*
X121248Y-85143D01*
X121253Y-85147D01*
Y-85594D01*
X121171Y-85561D01*
X121084Y-85524D01*
X121002Y-85483D01*
X120929Y-85446D01*
X120863Y-85409D01*
X120834Y-85397D01*
X120810Y-85380D01*
X120789Y-85372D01*
X120777Y-85364D01*
X120769Y-85356D01*
X120765D01*
X120666Y-85294D01*
X120580Y-85237D01*
X120502Y-85184D01*
X120441Y-85134D01*
X120387Y-85093D01*
X120351Y-85065D01*
X120330Y-85044D01*
X120322Y-85036D01*
Y-87992D01*
X119859D01*
Y-84196D01*
X120158D01*
X120211Y-84290D01*
D02*
G37*
G36*
X126332Y-84200D02*
X126427Y-84208D01*
X126513Y-84220D01*
X126595Y-84241D01*
X126673Y-84261D01*
X126742Y-84286D01*
X126808Y-84310D01*
X126865Y-84335D01*
X126919Y-84364D01*
X126964Y-84388D01*
X127005Y-84413D01*
X127038Y-84433D01*
X127062Y-84454D01*
X127079Y-84466D01*
X127091Y-84474D01*
X127095Y-84478D01*
X127153Y-84532D01*
X127202Y-84593D01*
X127247Y-84655D01*
X127288Y-84724D01*
X127321Y-84790D01*
X127353Y-84856D01*
X127378Y-84925D01*
X127399Y-84987D01*
X127419Y-85048D01*
X127431Y-85106D01*
X127444Y-85159D01*
X127452Y-85204D01*
X127456Y-85241D01*
X127460Y-85266D01*
X127464Y-85282D01*
Y-85290D01*
X126988Y-85339D01*
X126984Y-85274D01*
X126980Y-85212D01*
X126956Y-85106D01*
X126923Y-85007D01*
X126907Y-84966D01*
X126886Y-84929D01*
X126870Y-84897D01*
X126849Y-84868D01*
X126833Y-84843D01*
X126820Y-84823D01*
X126804Y-84806D01*
X126796Y-84794D01*
X126792Y-84790D01*
X126788Y-84786D01*
X126747Y-84749D01*
X126706Y-84716D01*
X126661Y-84692D01*
X126615Y-84667D01*
X126525Y-84630D01*
X126439Y-84605D01*
X126365Y-84593D01*
X126332Y-84585D01*
X126304D01*
X126279Y-84581D01*
X126189D01*
X126132Y-84589D01*
X126029Y-84610D01*
X125943Y-84642D01*
X125865Y-84675D01*
X125808Y-84712D01*
X125783Y-84728D01*
X125763Y-84745D01*
X125746Y-84757D01*
X125734Y-84765D01*
X125730Y-84769D01*
X125726Y-84774D01*
X125689Y-84811D01*
X125660Y-84847D01*
X125631Y-84884D01*
X125611Y-84925D01*
X125574Y-85003D01*
X125549Y-85077D01*
X125537Y-85138D01*
X125529Y-85167D01*
Y-85192D01*
X125525Y-85208D01*
Y-85225D01*
Y-85233D01*
Y-85237D01*
X125529Y-85286D01*
X125533Y-85335D01*
X125558Y-85434D01*
X125594Y-85528D01*
X125636Y-85614D01*
X125677Y-85688D01*
X125693Y-85717D01*
X125713Y-85745D01*
X125726Y-85766D01*
X125738Y-85782D01*
X125742Y-85790D01*
X125746Y-85795D01*
X125791Y-85852D01*
X125845Y-85913D01*
X125906Y-85979D01*
X125972Y-86045D01*
X126107Y-86180D01*
X126246Y-86307D01*
X126312Y-86369D01*
X126378Y-86422D01*
X126435Y-86471D01*
X126484Y-86512D01*
X126525Y-86549D01*
X126554Y-86573D01*
X126574Y-86594D01*
X126583Y-86598D01*
X126656Y-86660D01*
X126722Y-86717D01*
X126788Y-86770D01*
X126845Y-86824D01*
X126902Y-86873D01*
X126952Y-86922D01*
X126997Y-86963D01*
X127038Y-87004D01*
X127075Y-87041D01*
X127103Y-87074D01*
X127132Y-87102D01*
X127153Y-87123D01*
X127173Y-87143D01*
X127185Y-87156D01*
X127189Y-87164D01*
X127193Y-87168D01*
X127267Y-87258D01*
X127329Y-87348D01*
X127382Y-87435D01*
X127423Y-87512D01*
X127456Y-87578D01*
X127468Y-87607D01*
X127480Y-87627D01*
X127489Y-87648D01*
X127493Y-87660D01*
X127497Y-87668D01*
Y-87672D01*
X127517Y-87730D01*
X127530Y-87787D01*
X127542Y-87840D01*
X127546Y-87890D01*
X127550Y-87931D01*
Y-87963D01*
Y-87984D01*
Y-87992D01*
X125045D01*
Y-87545D01*
X126911D01*
X126845Y-87455D01*
X126812Y-87414D01*
X126779Y-87377D01*
X126751Y-87344D01*
X126730Y-87320D01*
X126714Y-87303D01*
X126710Y-87299D01*
X126685Y-87275D01*
X126652Y-87242D01*
X126615Y-87209D01*
X126574Y-87172D01*
X126488Y-87090D01*
X126398Y-87012D01*
X126312Y-86938D01*
X126275Y-86906D01*
X126238Y-86877D01*
X126214Y-86852D01*
X126189Y-86836D01*
X126177Y-86824D01*
X126173Y-86819D01*
X126082Y-86742D01*
X125996Y-86668D01*
X125918Y-86602D01*
X125849Y-86537D01*
X125783Y-86479D01*
X125726Y-86422D01*
X125672Y-86373D01*
X125623Y-86327D01*
X125582Y-86291D01*
X125549Y-86254D01*
X125521Y-86225D01*
X125496Y-86200D01*
X125480Y-86180D01*
X125463Y-86168D01*
X125459Y-86159D01*
X125455Y-86155D01*
X125377Y-86065D01*
X125316Y-85983D01*
X125262Y-85905D01*
X125217Y-85835D01*
X125185Y-85778D01*
X125160Y-85733D01*
X125152Y-85717D01*
X125148Y-85704D01*
X125144Y-85700D01*
Y-85696D01*
X125111Y-85614D01*
X125090Y-85532D01*
X125074Y-85458D01*
X125062Y-85389D01*
X125053Y-85331D01*
X125049Y-85286D01*
Y-85270D01*
Y-85257D01*
Y-85253D01*
Y-85249D01*
X125053Y-85167D01*
X125062Y-85089D01*
X125078Y-85015D01*
X125098Y-84942D01*
X125123Y-84876D01*
X125152Y-84815D01*
X125180Y-84757D01*
X125209Y-84708D01*
X125238Y-84659D01*
X125267Y-84618D01*
X125295Y-84581D01*
X125320Y-84552D01*
X125340Y-84532D01*
X125357Y-84511D01*
X125365Y-84503D01*
X125369Y-84499D01*
X125431Y-84446D01*
X125496Y-84400D01*
X125566Y-84360D01*
X125640Y-84323D01*
X125709Y-84294D01*
X125783Y-84269D01*
X125853Y-84249D01*
X125923Y-84232D01*
X125984Y-84220D01*
X126046Y-84212D01*
X126099Y-84204D01*
X126144Y-84200D01*
X126181Y-84196D01*
X126234D01*
X126332Y-84200D01*
D02*
G37*
G36*
X120438Y-80451D02*
X120488Y-80389D01*
X120541Y-80336D01*
X120594Y-80291D01*
X120643Y-80250D01*
X120688Y-80217D01*
X120721Y-80197D01*
X120746Y-80180D01*
X120750Y-80176D01*
X120754D01*
X120828Y-80139D01*
X120906Y-80115D01*
X120980Y-80094D01*
X121049Y-80082D01*
X121107Y-80074D01*
X121156Y-80070D01*
X121258D01*
X121320Y-80078D01*
X121435Y-80098D01*
X121537Y-80127D01*
X121627Y-80160D01*
X121668Y-80176D01*
X121701Y-80193D01*
X121734Y-80209D01*
X121759Y-80221D01*
X121779Y-80234D01*
X121795Y-80242D01*
X121804Y-80246D01*
X121808Y-80250D01*
X121906Y-80324D01*
X121988Y-80406D01*
X122058Y-80488D01*
X122115Y-80574D01*
X122160Y-80648D01*
X122177Y-80681D01*
X122193Y-80705D01*
X122201Y-80730D01*
X122210Y-80746D01*
X122218Y-80758D01*
Y-80762D01*
X122263Y-80890D01*
X122296Y-81021D01*
X122320Y-81144D01*
X122337Y-81259D01*
X122341Y-81312D01*
X122345Y-81361D01*
X122349Y-81402D01*
Y-81439D01*
X122353Y-81468D01*
Y-81488D01*
Y-81505D01*
Y-81509D01*
X122345Y-81660D01*
X122328Y-81800D01*
X122320Y-81865D01*
X122308Y-81927D01*
X122292Y-81984D01*
X122279Y-82038D01*
X122267Y-82083D01*
X122251Y-82128D01*
X122238Y-82165D01*
X122230Y-82193D01*
X122218Y-82218D01*
X122214Y-82234D01*
X122205Y-82247D01*
Y-82251D01*
X122144Y-82366D01*
X122074Y-82468D01*
X122005Y-82554D01*
X121935Y-82624D01*
X121873Y-82681D01*
X121849Y-82702D01*
X121824Y-82722D01*
X121804Y-82735D01*
X121791Y-82747D01*
X121783Y-82751D01*
X121779Y-82755D01*
X121726Y-82788D01*
X121672Y-82812D01*
X121570Y-82858D01*
X121467Y-82890D01*
X121373Y-82911D01*
X121332Y-82919D01*
X121295Y-82927D01*
X121263Y-82931D01*
X121234D01*
X121209Y-82936D01*
X121176D01*
X121082Y-82931D01*
X120996Y-82919D01*
X120918Y-82899D01*
X120840Y-82870D01*
X120771Y-82841D01*
X120709Y-82808D01*
X120652Y-82771D01*
X120598Y-82731D01*
X120553Y-82694D01*
X120516Y-82657D01*
X120484Y-82624D01*
X120455Y-82591D01*
X120434Y-82566D01*
X120418Y-82546D01*
X120410Y-82534D01*
X120406Y-82530D01*
Y-82874D01*
X119975D01*
Y-79090D01*
X120438D01*
Y-80451D01*
D02*
G37*
G36*
X112573Y-84290D02*
X112634Y-84380D01*
X112704Y-84466D01*
X112774Y-84540D01*
X112835Y-84610D01*
X112864Y-84634D01*
X112884Y-84659D01*
X112905Y-84679D01*
X112921Y-84692D01*
X112930Y-84700D01*
X112934Y-84704D01*
X113044Y-84798D01*
X113163Y-84880D01*
X113278Y-84958D01*
X113385Y-85024D01*
X113430Y-85048D01*
X113475Y-85073D01*
X113516Y-85097D01*
X113549Y-85114D01*
X113577Y-85126D01*
X113598Y-85138D01*
X113610Y-85143D01*
X113614Y-85147D01*
Y-85594D01*
X113532Y-85561D01*
X113446Y-85524D01*
X113364Y-85483D01*
X113290Y-85446D01*
X113225Y-85409D01*
X113196Y-85397D01*
X113172Y-85380D01*
X113151Y-85372D01*
X113139Y-85364D01*
X113130Y-85356D01*
X113126D01*
X113028Y-85294D01*
X112942Y-85237D01*
X112864Y-85184D01*
X112803Y-85134D01*
X112749Y-85093D01*
X112712Y-85065D01*
X112692Y-85044D01*
X112684Y-85036D01*
Y-87992D01*
X112220D01*
Y-84196D01*
X112520D01*
X112573Y-84290D01*
D02*
G37*
G36*
X115783Y-86856D02*
X114352D01*
Y-86389D01*
X115783D01*
Y-86856D01*
D02*
G37*
G36*
X130732Y-85192D02*
X130851Y-85204D01*
X130957Y-85220D01*
X131007Y-85229D01*
X131047Y-85237D01*
X131088Y-85245D01*
X131125Y-85253D01*
X131154Y-85261D01*
X131179Y-85270D01*
X131199Y-85278D01*
X131216Y-85282D01*
X131224Y-85286D01*
X131228D01*
X131322Y-85327D01*
X131404Y-85372D01*
X131474Y-85417D01*
X131531Y-85462D01*
X131576Y-85503D01*
X131609Y-85536D01*
X131630Y-85557D01*
X131638Y-85561D01*
Y-85565D01*
X131687Y-85635D01*
X131728Y-85712D01*
X131761Y-85790D01*
X131790Y-85864D01*
X131810Y-85930D01*
X131818Y-85958D01*
X131826Y-85983D01*
X131831Y-86004D01*
X131835Y-86020D01*
X131839Y-86028D01*
Y-86032D01*
X131384Y-86094D01*
X131367Y-86041D01*
X131351Y-85991D01*
X131318Y-85909D01*
X131277Y-85835D01*
X131240Y-85782D01*
X131207Y-85741D01*
X131179Y-85708D01*
X131162Y-85692D01*
X131154Y-85688D01*
X131088Y-85651D01*
X131011Y-85622D01*
X130933Y-85602D01*
X130855Y-85585D01*
X130781Y-85577D01*
X130752D01*
X130724Y-85573D01*
X130670D01*
X130547Y-85581D01*
X130441Y-85598D01*
X130350Y-85622D01*
X130277Y-85651D01*
X130219Y-85684D01*
X130199Y-85696D01*
X130178Y-85708D01*
X130162Y-85717D01*
X130154Y-85725D01*
X130146Y-85733D01*
X130100Y-85782D01*
X130068Y-85844D01*
X130043Y-85909D01*
X130027Y-85975D01*
X130018Y-86036D01*
X130010Y-86086D01*
Y-86102D01*
Y-86118D01*
Y-86127D01*
Y-86131D01*
Y-86143D01*
Y-86159D01*
Y-86200D01*
X130014Y-86217D01*
Y-86233D01*
Y-86246D01*
Y-86250D01*
X130068Y-86266D01*
X130125Y-86282D01*
X130191Y-86299D01*
X130256Y-86315D01*
X130392Y-86344D01*
X130527Y-86369D01*
X130592Y-86377D01*
X130650Y-86385D01*
X130703Y-86393D01*
X130752Y-86401D01*
X130789Y-86405D01*
X130818Y-86409D01*
X130834Y-86414D01*
X130842D01*
X130941Y-86426D01*
X131023Y-86438D01*
X131097Y-86450D01*
X131154Y-86459D01*
X131199Y-86471D01*
X131232Y-86475D01*
X131248Y-86483D01*
X131257D01*
X131322Y-86504D01*
X131388Y-86528D01*
X131445Y-86553D01*
X131494Y-86578D01*
X131535Y-86598D01*
X131564Y-86619D01*
X131585Y-86631D01*
X131593Y-86635D01*
X131646Y-86676D01*
X131691Y-86717D01*
X131732Y-86762D01*
X131765Y-86803D01*
X131794Y-86844D01*
X131814Y-86873D01*
X131826Y-86893D01*
X131831Y-86901D01*
X131859Y-86967D01*
X131884Y-87029D01*
X131900Y-87090D01*
X131909Y-87147D01*
X131917Y-87197D01*
X131921Y-87238D01*
Y-87262D01*
Y-87266D01*
Y-87270D01*
X131917Y-87332D01*
X131909Y-87393D01*
X131900Y-87451D01*
X131884Y-87504D01*
X131843Y-87603D01*
X131798Y-87681D01*
X131777Y-87717D01*
X131757Y-87746D01*
X131736Y-87775D01*
X131716Y-87795D01*
X131699Y-87812D01*
X131691Y-87824D01*
X131683Y-87832D01*
X131679Y-87836D01*
X131630Y-87873D01*
X131580Y-87906D01*
X131523Y-87939D01*
X131470Y-87963D01*
X131355Y-88000D01*
X131240Y-88025D01*
X131191Y-88037D01*
X131142Y-88041D01*
X131097Y-88045D01*
X131060Y-88050D01*
X131031Y-88054D01*
X130986D01*
X130884Y-88050D01*
X130789Y-88041D01*
X130703Y-88025D01*
X130625Y-88008D01*
X130564Y-87992D01*
X130535Y-87984D01*
X130515Y-87976D01*
X130498Y-87972D01*
X130486Y-87967D01*
X130478Y-87963D01*
X130473D01*
X130383Y-87922D01*
X130293Y-87877D01*
X130211Y-87824D01*
X130133Y-87771D01*
X130068Y-87726D01*
X130043Y-87701D01*
X130018Y-87685D01*
X129998Y-87668D01*
X129986Y-87656D01*
X129977Y-87652D01*
X129973Y-87648D01*
X129965Y-87722D01*
X129953Y-87787D01*
X129936Y-87845D01*
X129920Y-87894D01*
X129908Y-87935D01*
X129895Y-87967D01*
X129887Y-87984D01*
X129883Y-87992D01*
X129399D01*
X129428Y-87935D01*
X129453Y-87873D01*
X129473Y-87820D01*
X129490Y-87771D01*
X129502Y-87726D01*
X129510Y-87693D01*
X129514Y-87672D01*
Y-87664D01*
X129518Y-87627D01*
X129522Y-87578D01*
X129526Y-87525D01*
X129531Y-87463D01*
X129535Y-87398D01*
Y-87328D01*
X129539Y-87189D01*
Y-87123D01*
X129543Y-87057D01*
Y-87000D01*
Y-86947D01*
Y-86906D01*
Y-86873D01*
Y-86852D01*
Y-86844D01*
Y-86225D01*
Y-86168D01*
Y-86118D01*
X129547Y-86073D01*
Y-86028D01*
X129551Y-85954D01*
X129555Y-85897D01*
X129559Y-85852D01*
X129563Y-85823D01*
X129567Y-85803D01*
Y-85799D01*
X129584Y-85729D01*
X129608Y-85667D01*
X129633Y-85614D01*
X129658Y-85569D01*
X129678Y-85532D01*
X129699Y-85503D01*
X129711Y-85487D01*
X129715Y-85483D01*
X129760Y-85438D01*
X129809Y-85397D01*
X129863Y-85360D01*
X129916Y-85331D01*
X129965Y-85307D01*
X130002Y-85290D01*
X130018Y-85282D01*
X130031Y-85278D01*
X130035Y-85274D01*
X130039D01*
X130125Y-85245D01*
X130219Y-85225D01*
X130314Y-85208D01*
X130404Y-85200D01*
X130482Y-85192D01*
X130519D01*
X130547Y-85188D01*
X130605D01*
X130732Y-85192D01*
D02*
G37*
G36*
X110945Y-86200D02*
X110511Y-86262D01*
X110470Y-86204D01*
X110424Y-86151D01*
X110375Y-86106D01*
X110334Y-86065D01*
X110293Y-86036D01*
X110260Y-86012D01*
X110240Y-86000D01*
X110232Y-85995D01*
X110162Y-85958D01*
X110092Y-85934D01*
X110023Y-85913D01*
X109957Y-85901D01*
X109904Y-85893D01*
X109859Y-85889D01*
X109822D01*
X109756Y-85893D01*
X109695Y-85897D01*
X109633Y-85909D01*
X109580Y-85926D01*
X109477Y-85963D01*
X109436Y-85983D01*
X109395Y-86004D01*
X109359Y-86028D01*
X109330Y-86049D01*
X109301Y-86069D01*
X109281Y-86086D01*
X109264Y-86102D01*
X109248Y-86114D01*
X109244Y-86118D01*
X109240Y-86123D01*
X109199Y-86168D01*
X109166Y-86217D01*
X109133Y-86266D01*
X109108Y-86315D01*
X109067Y-86422D01*
X109043Y-86520D01*
X109035Y-86569D01*
X109026Y-86610D01*
X109022Y-86651D01*
X109018Y-86684D01*
X109014Y-86713D01*
Y-86733D01*
Y-86746D01*
Y-86750D01*
X109018Y-86828D01*
X109022Y-86897D01*
X109035Y-86967D01*
X109051Y-87033D01*
X109067Y-87090D01*
X109088Y-87147D01*
X109108Y-87197D01*
X109129Y-87242D01*
X109153Y-87283D01*
X109174Y-87320D01*
X109195Y-87348D01*
X109211Y-87377D01*
X109227Y-87398D01*
X109240Y-87410D01*
X109244Y-87418D01*
X109248Y-87422D01*
X109293Y-87467D01*
X109338Y-87504D01*
X109383Y-87537D01*
X109432Y-87566D01*
X109482Y-87590D01*
X109527Y-87611D01*
X109617Y-87639D01*
X109695Y-87660D01*
X109728Y-87664D01*
X109756Y-87668D01*
X109781Y-87672D01*
X109814D01*
X109867Y-87668D01*
X109916Y-87664D01*
X110006Y-87644D01*
X110088Y-87615D01*
X110158Y-87582D01*
X110215Y-87553D01*
X110256Y-87525D01*
X110273Y-87512D01*
X110285Y-87504D01*
X110289Y-87496D01*
X110293D01*
X110326Y-87459D01*
X110359Y-87422D01*
X110412Y-87340D01*
X110457Y-87250D01*
X110490Y-87164D01*
X110511Y-87086D01*
X110523Y-87049D01*
X110527Y-87020D01*
X110531Y-86996D01*
X110535Y-86979D01*
X110539Y-86967D01*
Y-86963D01*
X111027Y-87000D01*
X111015Y-87086D01*
X110998Y-87172D01*
X110978Y-87250D01*
X110949Y-87324D01*
X110921Y-87389D01*
X110892Y-87455D01*
X110859Y-87512D01*
X110826Y-87562D01*
X110793Y-87611D01*
X110765Y-87652D01*
X110736Y-87685D01*
X110707Y-87713D01*
X110687Y-87738D01*
X110670Y-87754D01*
X110662Y-87762D01*
X110658Y-87767D01*
X110593Y-87816D01*
X110527Y-87861D01*
X110457Y-87898D01*
X110388Y-87931D01*
X110318Y-87959D01*
X110248Y-87984D01*
X110178Y-88004D01*
X110113Y-88017D01*
X110051Y-88029D01*
X109994Y-88037D01*
X109945Y-88045D01*
X109900Y-88050D01*
X109863Y-88054D01*
X109814D01*
X109699Y-88050D01*
X109592Y-88033D01*
X109490Y-88013D01*
X109395Y-87980D01*
X109305Y-87947D01*
X109223Y-87910D01*
X109149Y-87865D01*
X109084Y-87824D01*
X109022Y-87783D01*
X108969Y-87738D01*
X108924Y-87701D01*
X108887Y-87664D01*
X108858Y-87635D01*
X108838Y-87615D01*
X108826Y-87599D01*
X108821Y-87594D01*
X108768Y-87525D01*
X108723Y-87451D01*
X108682Y-87373D01*
X108649Y-87299D01*
X108621Y-87225D01*
X108596Y-87152D01*
X108575Y-87078D01*
X108559Y-87012D01*
X108547Y-86947D01*
X108538Y-86889D01*
X108530Y-86840D01*
X108526Y-86795D01*
X108522Y-86758D01*
Y-86733D01*
Y-86713D01*
Y-86709D01*
X108526Y-86610D01*
X108538Y-86516D01*
X108555Y-86426D01*
X108575Y-86344D01*
X108600Y-86262D01*
X108633Y-86192D01*
X108661Y-86123D01*
X108694Y-86061D01*
X108727Y-86008D01*
X108756Y-85963D01*
X108784Y-85918D01*
X108813Y-85885D01*
X108834Y-85860D01*
X108850Y-85840D01*
X108862Y-85827D01*
X108867Y-85823D01*
X108932Y-85762D01*
X109002Y-85708D01*
X109072Y-85663D01*
X109141Y-85622D01*
X109211Y-85589D01*
X109281Y-85561D01*
X109346Y-85540D01*
X109412Y-85520D01*
X109469Y-85508D01*
X109527Y-85495D01*
X109576Y-85491D01*
X109617Y-85483D01*
X109650D01*
X109678Y-85479D01*
X109699D01*
X109768Y-85483D01*
X109838Y-85487D01*
X109904Y-85499D01*
X109969Y-85516D01*
X110088Y-85553D01*
X110146Y-85577D01*
X110195Y-85598D01*
X110244Y-85618D01*
X110285Y-85643D01*
X110322Y-85663D01*
X110355Y-85680D01*
X110379Y-85696D01*
X110396Y-85704D01*
X110408Y-85712D01*
X110412Y-85717D01*
X110211Y-84700D01*
X108698D01*
Y-84257D01*
X110580D01*
X110945Y-86200D01*
D02*
G37*
G36*
X120384Y-2318D02*
X120474Y-2330D01*
X120552Y-2347D01*
X120617Y-2367D01*
X120671Y-2387D01*
X120712Y-2404D01*
X120736Y-2416D01*
X120740Y-2420D01*
X120745D01*
X120814Y-2465D01*
X120876Y-2515D01*
X120933Y-2568D01*
X120982Y-2617D01*
X121023Y-2662D01*
X121056Y-2703D01*
X121073Y-2728D01*
X121081Y-2732D01*
Y-2375D01*
X121503D01*
Y-6168D01*
X121040D01*
Y-4835D01*
X120995Y-4888D01*
X120946Y-4938D01*
X120896Y-4983D01*
X120847Y-5016D01*
X120806Y-5044D01*
X120769Y-5069D01*
X120749Y-5081D01*
X120740Y-5085D01*
X120671Y-5118D01*
X120597Y-5139D01*
X120527Y-5155D01*
X120462Y-5167D01*
X120404Y-5175D01*
X120363Y-5180D01*
X120322D01*
X120261Y-5175D01*
X120203Y-5171D01*
X120093Y-5151D01*
X119990Y-5122D01*
X119900Y-5089D01*
X119859Y-5073D01*
X119822Y-5061D01*
X119793Y-5044D01*
X119765Y-5032D01*
X119744Y-5020D01*
X119728Y-5012D01*
X119720Y-5003D01*
X119715D01*
X119613Y-4930D01*
X119527Y-4848D01*
X119449Y-4761D01*
X119387Y-4675D01*
X119338Y-4602D01*
X119322Y-4569D01*
X119306Y-4540D01*
X119293Y-4519D01*
X119285Y-4503D01*
X119277Y-4491D01*
Y-4487D01*
X119228Y-4355D01*
X119191Y-4224D01*
X119162Y-4097D01*
X119146Y-3982D01*
X119137Y-3929D01*
X119133Y-3880D01*
X119129Y-3835D01*
Y-3798D01*
X119125Y-3769D01*
Y-3749D01*
Y-3732D01*
Y-3728D01*
X119129Y-3585D01*
X119146Y-3449D01*
X119170Y-3326D01*
X119183Y-3273D01*
X119195Y-3220D01*
X119207Y-3175D01*
X119219Y-3130D01*
X119232Y-3093D01*
X119244Y-3064D01*
X119252Y-3039D01*
X119260Y-3023D01*
X119264Y-3011D01*
Y-3007D01*
X119322Y-2892D01*
X119383Y-2789D01*
X119453Y-2703D01*
X119519Y-2629D01*
X119576Y-2572D01*
X119625Y-2531D01*
X119646Y-2519D01*
X119658Y-2506D01*
X119666Y-2498D01*
X119670D01*
X119720Y-2465D01*
X119773Y-2437D01*
X119879Y-2392D01*
X119982Y-2359D01*
X120080Y-2338D01*
X120125Y-2330D01*
X120162Y-2322D01*
X120199Y-2318D01*
X120232D01*
X120257Y-2314D01*
X120290D01*
X120384Y-2318D01*
D02*
G37*
G36*
X131909Y-4118D02*
X131938Y-4191D01*
X131966Y-4261D01*
X131995Y-4323D01*
X132024Y-4376D01*
X132048Y-4429D01*
X132073Y-4470D01*
X132093Y-4511D01*
X132118Y-4544D01*
X132134Y-4573D01*
X132151Y-4593D01*
X132167Y-4614D01*
X132179Y-4630D01*
X132196Y-4651D01*
X132204Y-4655D01*
X132253Y-4692D01*
X132307Y-4720D01*
X132360Y-4741D01*
X132409Y-4753D01*
X132454Y-4761D01*
X132487Y-4770D01*
X132520D01*
X132602Y-4766D01*
X132680Y-4753D01*
X132749Y-4733D01*
X132815Y-4712D01*
X132868Y-4696D01*
X132905Y-4675D01*
X132922Y-4667D01*
X132934Y-4663D01*
X132938Y-4659D01*
X132942D01*
Y-5085D01*
X132844Y-5114D01*
X132749Y-5134D01*
X132671Y-5151D01*
X132602Y-5159D01*
X132544Y-5167D01*
X132503Y-5171D01*
X132471D01*
X132356Y-5163D01*
X132257Y-5147D01*
X132175Y-5118D01*
X132106Y-5085D01*
X132052Y-5057D01*
X132016Y-5028D01*
X131991Y-5012D01*
X131983Y-5003D01*
X131950Y-4966D01*
X131913Y-4921D01*
X131880Y-4872D01*
X131843Y-4819D01*
X131770Y-4700D01*
X131700Y-4577D01*
X131671Y-4519D01*
X131638Y-4466D01*
X131614Y-4413D01*
X131593Y-4372D01*
X131573Y-4335D01*
X131560Y-4306D01*
X131552Y-4286D01*
X131548Y-4282D01*
X130125Y-1334D01*
X130622D01*
X131704Y-3658D01*
X132938Y-1334D01*
X133442D01*
X131909Y-4118D01*
D02*
G37*
G36*
X115808Y-3982D02*
X114377D01*
Y-3515D01*
X115808D01*
Y-3982D01*
D02*
G37*
G36*
X106514Y-5118D02*
X106050D01*
Y-3851D01*
X105993Y-3855D01*
X105944Y-3864D01*
X105898Y-3876D01*
X105858Y-3892D01*
X105829Y-3909D01*
X105804Y-3921D01*
X105788Y-3929D01*
X105784Y-3933D01*
X105763Y-3950D01*
X105739Y-3970D01*
X105693Y-4019D01*
X105648Y-4077D01*
X105607Y-4134D01*
X105570Y-4187D01*
X105542Y-4233D01*
X105534Y-4249D01*
X105525Y-4261D01*
X105517Y-4269D01*
Y-4273D01*
X105017Y-5118D01*
X104505D01*
X105017Y-4269D01*
X105070Y-4183D01*
X105124Y-4109D01*
X105177Y-4040D01*
X105230Y-3982D01*
X105279Y-3929D01*
X105329Y-3884D01*
X105374Y-3843D01*
X105419Y-3810D01*
X105456Y-3786D01*
X105493Y-3761D01*
X105525Y-3745D01*
X105550Y-3732D01*
X105575Y-3724D01*
X105591Y-3716D01*
X105599Y-3712D01*
X105603D01*
X105542Y-3679D01*
X105484Y-3646D01*
X105439Y-3613D01*
X105402Y-3585D01*
X105374Y-3560D01*
X105353Y-3540D01*
X105341Y-3527D01*
X105337Y-3523D01*
X105304Y-3478D01*
X105267Y-3421D01*
X105234Y-3359D01*
X105206Y-3298D01*
X105177Y-3240D01*
X105156Y-3195D01*
X105152Y-3175D01*
X105144Y-3162D01*
X105140Y-3154D01*
Y-3150D01*
X105120Y-3101D01*
X105099Y-3056D01*
X105083Y-3015D01*
X105066Y-2978D01*
X105050Y-2949D01*
X105037Y-2921D01*
X105013Y-2875D01*
X104997Y-2847D01*
X104984Y-2826D01*
X104976Y-2818D01*
X104972Y-2814D01*
X104947Y-2793D01*
X104914Y-2781D01*
X104878Y-2769D01*
X104837Y-2765D01*
X104800Y-2761D01*
X104767Y-2757D01*
X104738D01*
X104607Y-2761D01*
Y-2375D01*
X104787D01*
X104861Y-2379D01*
X104923Y-2387D01*
X104972Y-2392D01*
X105009Y-2400D01*
X105037Y-2408D01*
X105054Y-2412D01*
X105058D01*
X105099Y-2428D01*
X105136Y-2449D01*
X105169Y-2474D01*
X105197Y-2494D01*
X105222Y-2519D01*
X105238Y-2535D01*
X105251Y-2547D01*
X105255Y-2551D01*
X105271Y-2572D01*
X105288Y-2601D01*
X105324Y-2662D01*
X105366Y-2732D01*
X105398Y-2806D01*
X105431Y-2871D01*
X105443Y-2904D01*
X105456Y-2929D01*
X105468Y-2949D01*
X105472Y-2966D01*
X105480Y-2978D01*
Y-2982D01*
X105513Y-3056D01*
X105542Y-3121D01*
X105566Y-3179D01*
X105595Y-3232D01*
X105616Y-3277D01*
X105640Y-3318D01*
X105657Y-3355D01*
X105677Y-3384D01*
X105693Y-3408D01*
X105706Y-3429D01*
X105718Y-3445D01*
X105726Y-3458D01*
X105739Y-3474D01*
X105743Y-3478D01*
X105780Y-3507D01*
X105829Y-3527D01*
X105878Y-3540D01*
X105927Y-3548D01*
X105976Y-3556D01*
X106013Y-3560D01*
X106050D01*
Y-2375D01*
X106514D01*
Y-5118D01*
D02*
G37*
G36*
X126686D02*
X125525D01*
X125423Y-5114D01*
X125324Y-5106D01*
X125238Y-5098D01*
X125156Y-5081D01*
X125082Y-5061D01*
X125013Y-5040D01*
X124951Y-5020D01*
X124898Y-4995D01*
X124849Y-4975D01*
X124808Y-4954D01*
X124775Y-4934D01*
X124746Y-4913D01*
X124726Y-4897D01*
X124709Y-4888D01*
X124701Y-4880D01*
X124697Y-4876D01*
X124652Y-4831D01*
X124611Y-4782D01*
X124574Y-4733D01*
X124545Y-4684D01*
X124521Y-4634D01*
X124500Y-4585D01*
X124467Y-4491D01*
X124455Y-4450D01*
X124447Y-4413D01*
X124443Y-4376D01*
X124439Y-4347D01*
X124435Y-4323D01*
Y-4306D01*
Y-4294D01*
Y-4290D01*
X124439Y-4216D01*
X124447Y-4151D01*
X124463Y-4085D01*
X124484Y-4028D01*
X124508Y-3974D01*
X124533Y-3921D01*
X124562Y-3876D01*
X124590Y-3835D01*
X124619Y-3798D01*
X124648Y-3765D01*
X124672Y-3736D01*
X124697Y-3716D01*
X124717Y-3700D01*
X124734Y-3683D01*
X124742Y-3679D01*
X124746Y-3675D01*
X124808Y-3634D01*
X124873Y-3601D01*
X124943Y-3568D01*
X125017Y-3544D01*
X125164Y-3503D01*
X125308Y-3478D01*
X125373Y-3470D01*
X125435Y-3462D01*
X125492Y-3458D01*
X125542Y-3453D01*
X125578Y-3449D01*
X126222D01*
Y-2375D01*
X126686D01*
Y-5118D01*
D02*
G37*
G36*
X140195Y-2757D02*
X139313D01*
Y-5118D01*
X138850D01*
Y-2757D01*
X137969D01*
Y-2375D01*
X140195D01*
Y-2757D01*
D02*
G37*
G36*
X146501Y-5118D02*
X146046D01*
Y-2806D01*
X145287Y-5118D01*
X144869D01*
X144061Y-2912D01*
Y-5118D01*
X143598D01*
Y-2375D01*
X144266D01*
X145062Y-4573D01*
X145783Y-2375D01*
X146501D01*
Y-5118D01*
D02*
G37*
G36*
X113824D02*
X113340D01*
Y-1895D01*
X112249Y-5118D01*
X111798D01*
X110691Y-1949D01*
Y-5118D01*
X110208D01*
Y-1334D01*
X110884D01*
X111794Y-3966D01*
X111819Y-4040D01*
X111844Y-4105D01*
X111864Y-4171D01*
X111884Y-4228D01*
X111901Y-4286D01*
X111917Y-4335D01*
X111934Y-4380D01*
X111946Y-4421D01*
X111958Y-4454D01*
X111967Y-4487D01*
X111975Y-4511D01*
X111983Y-4536D01*
X111987Y-4552D01*
X111991Y-4565D01*
X111995Y-4569D01*
Y-4573D01*
X112007Y-4536D01*
X112020Y-4495D01*
X112048Y-4409D01*
X112077Y-4315D01*
X112106Y-4224D01*
X112135Y-4142D01*
X112147Y-4105D01*
X112155Y-4077D01*
X112163Y-4052D01*
X112171Y-4032D01*
X112176Y-4019D01*
Y-4015D01*
X113074Y-1334D01*
X113824D01*
Y-5118D01*
D02*
G37*
G36*
X141864Y-2318D02*
X141966Y-2330D01*
X142056Y-2351D01*
X142147Y-2375D01*
X142229Y-2404D01*
X142306Y-2437D01*
X142376Y-2469D01*
X142438Y-2506D01*
X142495Y-2543D01*
X142544Y-2576D01*
X142589Y-2609D01*
X142622Y-2638D01*
X142651Y-2662D01*
X142671Y-2683D01*
X142684Y-2695D01*
X142688Y-2699D01*
X142749Y-2773D01*
X142803Y-2855D01*
X142852Y-2941D01*
X142893Y-3027D01*
X142926Y-3117D01*
X142954Y-3207D01*
X142979Y-3294D01*
X142995Y-3380D01*
X143012Y-3458D01*
X143020Y-3536D01*
X143028Y-3601D01*
X143036Y-3658D01*
Y-3708D01*
X143040Y-3745D01*
Y-3765D01*
Y-3773D01*
X143036Y-3896D01*
X143024Y-4011D01*
X143008Y-4118D01*
X142987Y-4216D01*
X142958Y-4310D01*
X142930Y-4397D01*
X142897Y-4474D01*
X142864Y-4544D01*
X142835Y-4606D01*
X142803Y-4659D01*
X142774Y-4704D01*
X142745Y-4741D01*
X142725Y-4774D01*
X142708Y-4794D01*
X142696Y-4806D01*
X142692Y-4811D01*
X142622Y-4876D01*
X142548Y-4934D01*
X142475Y-4983D01*
X142393Y-5024D01*
X142315Y-5061D01*
X142233Y-5089D01*
X142155Y-5114D01*
X142081Y-5134D01*
X142011Y-5147D01*
X141946Y-5159D01*
X141888Y-5167D01*
X141835Y-5175D01*
X141794D01*
X141761Y-5180D01*
X141737D01*
X141650Y-5175D01*
X141564Y-5171D01*
X141487Y-5159D01*
X141413Y-5143D01*
X141343Y-5126D01*
X141281Y-5106D01*
X141220Y-5085D01*
X141167Y-5065D01*
X141118Y-5044D01*
X141077Y-5024D01*
X141040Y-5003D01*
X141007Y-4987D01*
X140986Y-4970D01*
X140966Y-4958D01*
X140958Y-4954D01*
X140954Y-4950D01*
X140896Y-4905D01*
X140847Y-4856D01*
X140802Y-4802D01*
X140757Y-4749D01*
X140683Y-4638D01*
X140626Y-4536D01*
X140605Y-4487D01*
X140585Y-4442D01*
X140568Y-4401D01*
X140556Y-4364D01*
X140543Y-4335D01*
X140535Y-4315D01*
X140531Y-4298D01*
Y-4294D01*
X141015Y-4233D01*
X141056Y-4335D01*
X141105Y-4425D01*
X141154Y-4503D01*
X141200Y-4561D01*
X141241Y-4610D01*
X141273Y-4642D01*
X141294Y-4659D01*
X141298Y-4667D01*
X141302D01*
X141372Y-4712D01*
X141446Y-4741D01*
X141519Y-4766D01*
X141585Y-4782D01*
X141646Y-4790D01*
X141696Y-4794D01*
X141712Y-4798D01*
X141737D01*
X141798Y-4794D01*
X141860Y-4786D01*
X141917Y-4778D01*
X141970Y-4761D01*
X142069Y-4724D01*
X142151Y-4679D01*
X142188Y-4659D01*
X142220Y-4634D01*
X142245Y-4614D01*
X142270Y-4597D01*
X142286Y-4581D01*
X142298Y-4569D01*
X142306Y-4565D01*
X142311Y-4561D01*
X142352Y-4511D01*
X142388Y-4462D01*
X142417Y-4405D01*
X142446Y-4351D01*
X142491Y-4233D01*
X142524Y-4122D01*
X142536Y-4069D01*
X142544Y-4019D01*
X142552Y-3978D01*
X142557Y-3937D01*
X142561Y-3909D01*
X142565Y-3884D01*
Y-3868D01*
Y-3864D01*
X140519D01*
X140515Y-3810D01*
Y-3769D01*
Y-3749D01*
Y-3740D01*
X140519Y-3618D01*
X140531Y-3503D01*
X140548Y-3392D01*
X140568Y-3289D01*
X140597Y-3195D01*
X140626Y-3109D01*
X140658Y-3031D01*
X140687Y-2961D01*
X140720Y-2900D01*
X140753Y-2843D01*
X140781Y-2798D01*
X140810Y-2761D01*
X140831Y-2728D01*
X140847Y-2707D01*
X140859Y-2695D01*
X140863Y-2691D01*
X140929Y-2625D01*
X141003Y-2568D01*
X141077Y-2515D01*
X141150Y-2474D01*
X141224Y-2437D01*
X141302Y-2404D01*
X141372Y-2379D01*
X141441Y-2359D01*
X141507Y-2347D01*
X141569Y-2334D01*
X141622Y-2326D01*
X141671Y-2318D01*
X141708D01*
X141737Y-2314D01*
X141761D01*
X141864Y-2318D01*
D02*
G37*
G36*
X149469Y-5118D02*
X148973D01*
X147682Y-3039D01*
Y-5118D01*
X147218D01*
Y-2375D01*
X147714D01*
X149006Y-4470D01*
Y-2375D01*
X149469D01*
Y-5118D01*
D02*
G37*
G36*
X109461D02*
X108965D01*
X107674Y-3039D01*
Y-5118D01*
X107211D01*
Y-2375D01*
X107707D01*
X108998Y-4470D01*
Y-2375D01*
X109461D01*
Y-5118D01*
D02*
G37*
G36*
X117530Y-2318D02*
X117649Y-2330D01*
X117756Y-2347D01*
X117805Y-2355D01*
X117846Y-2363D01*
X117887Y-2371D01*
X117924Y-2379D01*
X117953Y-2387D01*
X117977Y-2396D01*
X117998Y-2404D01*
X118014Y-2408D01*
X118022Y-2412D01*
X118026D01*
X118121Y-2453D01*
X118203Y-2498D01*
X118272Y-2543D01*
X118330Y-2588D01*
X118375Y-2629D01*
X118408Y-2662D01*
X118428Y-2683D01*
X118436Y-2687D01*
Y-2691D01*
X118485Y-2761D01*
X118526Y-2839D01*
X118559Y-2916D01*
X118588Y-2990D01*
X118608Y-3056D01*
X118617Y-3084D01*
X118625Y-3109D01*
X118629Y-3130D01*
X118633Y-3146D01*
X118637Y-3154D01*
Y-3158D01*
X118182Y-3220D01*
X118166Y-3167D01*
X118149Y-3117D01*
X118116Y-3035D01*
X118076Y-2961D01*
X118039Y-2908D01*
X118006Y-2867D01*
X117977Y-2834D01*
X117961Y-2818D01*
X117953Y-2814D01*
X117887Y-2777D01*
X117809Y-2748D01*
X117731Y-2728D01*
X117653Y-2711D01*
X117579Y-2703D01*
X117551D01*
X117522Y-2699D01*
X117469D01*
X117346Y-2707D01*
X117239Y-2724D01*
X117149Y-2748D01*
X117075Y-2777D01*
X117018Y-2810D01*
X116997Y-2822D01*
X116977Y-2834D01*
X116960Y-2843D01*
X116952Y-2851D01*
X116944Y-2859D01*
X116899Y-2908D01*
X116866Y-2970D01*
X116841Y-3035D01*
X116825Y-3101D01*
X116817Y-3162D01*
X116809Y-3212D01*
Y-3228D01*
Y-3244D01*
Y-3253D01*
Y-3257D01*
Y-3269D01*
Y-3285D01*
Y-3326D01*
X116813Y-3343D01*
Y-3359D01*
Y-3371D01*
Y-3376D01*
X116866Y-3392D01*
X116923Y-3408D01*
X116989Y-3425D01*
X117055Y-3441D01*
X117190Y-3470D01*
X117325Y-3494D01*
X117391Y-3503D01*
X117448Y-3511D01*
X117501Y-3519D01*
X117551Y-3527D01*
X117588Y-3531D01*
X117616Y-3536D01*
X117633Y-3540D01*
X117641D01*
X117739Y-3552D01*
X117821Y-3564D01*
X117895Y-3576D01*
X117953Y-3585D01*
X117998Y-3597D01*
X118030Y-3601D01*
X118047Y-3609D01*
X118055D01*
X118121Y-3630D01*
X118186Y-3654D01*
X118244Y-3679D01*
X118293Y-3704D01*
X118334Y-3724D01*
X118362Y-3745D01*
X118383Y-3757D01*
X118391Y-3761D01*
X118445Y-3802D01*
X118490Y-3843D01*
X118531Y-3888D01*
X118563Y-3929D01*
X118592Y-3970D01*
X118613Y-3999D01*
X118625Y-4019D01*
X118629Y-4028D01*
X118658Y-4093D01*
X118682Y-4155D01*
X118699Y-4216D01*
X118707Y-4273D01*
X118715Y-4323D01*
X118719Y-4364D01*
Y-4388D01*
Y-4392D01*
Y-4397D01*
X118715Y-4458D01*
X118707Y-4519D01*
X118699Y-4577D01*
X118682Y-4630D01*
X118641Y-4729D01*
X118596Y-4806D01*
X118576Y-4843D01*
X118555Y-4872D01*
X118535Y-4901D01*
X118514Y-4921D01*
X118498Y-4938D01*
X118490Y-4950D01*
X118481Y-4958D01*
X118477Y-4962D01*
X118428Y-4999D01*
X118379Y-5032D01*
X118322Y-5065D01*
X118268Y-5089D01*
X118153Y-5126D01*
X118039Y-5151D01*
X117989Y-5163D01*
X117940Y-5167D01*
X117895Y-5171D01*
X117858Y-5175D01*
X117830Y-5180D01*
X117784D01*
X117682Y-5175D01*
X117588Y-5167D01*
X117501Y-5151D01*
X117424Y-5134D01*
X117362Y-5118D01*
X117333Y-5110D01*
X117313Y-5102D01*
X117297Y-5098D01*
X117284Y-5094D01*
X117276Y-5089D01*
X117272D01*
X117182Y-5048D01*
X117092Y-5003D01*
X117009Y-4950D01*
X116932Y-4897D01*
X116866Y-4852D01*
X116841Y-4827D01*
X116817Y-4811D01*
X116796Y-4794D01*
X116784Y-4782D01*
X116776Y-4778D01*
X116772Y-4774D01*
X116763Y-4848D01*
X116751Y-4913D01*
X116735Y-4970D01*
X116718Y-5020D01*
X116706Y-5061D01*
X116694Y-5094D01*
X116686Y-5110D01*
X116682Y-5118D01*
X116198D01*
X116226Y-5061D01*
X116251Y-4999D01*
X116271Y-4946D01*
X116288Y-4897D01*
X116300Y-4852D01*
X116308Y-4819D01*
X116313Y-4798D01*
Y-4790D01*
X116317Y-4753D01*
X116321Y-4704D01*
X116325Y-4651D01*
X116329Y-4589D01*
X116333Y-4524D01*
Y-4454D01*
X116337Y-4315D01*
Y-4249D01*
X116341Y-4183D01*
Y-4126D01*
Y-4073D01*
Y-4032D01*
Y-3999D01*
Y-3978D01*
Y-3970D01*
Y-3351D01*
Y-3294D01*
Y-3244D01*
X116345Y-3199D01*
Y-3154D01*
X116349Y-3080D01*
X116353Y-3023D01*
X116358Y-2978D01*
X116362Y-2949D01*
X116366Y-2929D01*
Y-2925D01*
X116382Y-2855D01*
X116407Y-2793D01*
X116431Y-2740D01*
X116456Y-2695D01*
X116477Y-2658D01*
X116497Y-2629D01*
X116509Y-2613D01*
X116513Y-2609D01*
X116559Y-2564D01*
X116608Y-2523D01*
X116661Y-2486D01*
X116714Y-2457D01*
X116763Y-2433D01*
X116800Y-2416D01*
X116817Y-2408D01*
X116829Y-2404D01*
X116833Y-2400D01*
X116837D01*
X116923Y-2371D01*
X117018Y-2351D01*
X117112Y-2334D01*
X117202Y-2326D01*
X117280Y-2318D01*
X117317D01*
X117346Y-2314D01*
X117403D01*
X117530Y-2318D01*
D02*
G37*
G36*
X151105D02*
X151175Y-2322D01*
X151302Y-2347D01*
X151417Y-2383D01*
X151519Y-2433D01*
X151613Y-2494D01*
X151696Y-2556D01*
X151765Y-2625D01*
X151827Y-2699D01*
X151876Y-2773D01*
X151921Y-2839D01*
X151954Y-2904D01*
X151982Y-2966D01*
X152003Y-3015D01*
X152015Y-3052D01*
X152023Y-3076D01*
X152028Y-3080D01*
Y-3084D01*
X151585Y-3158D01*
X151552Y-3076D01*
X151515Y-3007D01*
X151474Y-2945D01*
X151433Y-2892D01*
X151388Y-2847D01*
X151343Y-2810D01*
X151298Y-2777D01*
X151253Y-2752D01*
X151208Y-2732D01*
X151167Y-2720D01*
X151130Y-2707D01*
X151101Y-2703D01*
X151072Y-2699D01*
X151052Y-2695D01*
X151035D01*
X150966Y-2699D01*
X150900Y-2711D01*
X150847Y-2732D01*
X150798Y-2752D01*
X150761Y-2773D01*
X150736Y-2793D01*
X150716Y-2806D01*
X150712Y-2810D01*
X150671Y-2855D01*
X150638Y-2904D01*
X150617Y-2953D01*
X150601Y-3002D01*
X150593Y-3043D01*
X150584Y-3076D01*
Y-3101D01*
Y-3105D01*
Y-3109D01*
X150589Y-3167D01*
X150601Y-3216D01*
X150617Y-3261D01*
X150634Y-3298D01*
X150650Y-3331D01*
X150666Y-3351D01*
X150679Y-3367D01*
X150683Y-3371D01*
X150720Y-3404D01*
X150752Y-3433D01*
X150789Y-3453D01*
X150822Y-3470D01*
X150847Y-3482D01*
X150867Y-3490D01*
X150884Y-3494D01*
X150888D01*
X150908Y-3499D01*
X150937Y-3503D01*
X150994Y-3507D01*
X151060Y-3511D01*
X151126D01*
X151187Y-3515D01*
X151286D01*
Y-3880D01*
X151081D01*
X150998Y-3884D01*
X150929Y-3888D01*
X150871Y-3892D01*
X150830Y-3900D01*
X150802Y-3904D01*
X150785Y-3909D01*
X150781D01*
X150740Y-3925D01*
X150699Y-3946D01*
X150662Y-3966D01*
X150629Y-3995D01*
X150605Y-4015D01*
X150584Y-4036D01*
X150572Y-4052D01*
X150568Y-4056D01*
X150535Y-4101D01*
X150511Y-4151D01*
X150494Y-4196D01*
X150482Y-4241D01*
X150474Y-4278D01*
X150470Y-4306D01*
Y-4327D01*
Y-4335D01*
X150478Y-4409D01*
X150494Y-4474D01*
X150519Y-4536D01*
X150548Y-4585D01*
X150580Y-4622D01*
X150605Y-4651D01*
X150621Y-4667D01*
X150629Y-4675D01*
X150691Y-4720D01*
X150757Y-4749D01*
X150822Y-4774D01*
X150884Y-4790D01*
X150937Y-4798D01*
X150978Y-4802D01*
X150994Y-4806D01*
X151019D01*
X151105Y-4798D01*
X151187Y-4782D01*
X151257Y-4761D01*
X151318Y-4733D01*
X151372Y-4708D01*
X151409Y-4684D01*
X151433Y-4667D01*
X151437Y-4663D01*
X151441D01*
X151503Y-4606D01*
X151556Y-4540D01*
X151597Y-4470D01*
X151626Y-4405D01*
X151650Y-4343D01*
X151667Y-4298D01*
X151671Y-4278D01*
X151675Y-4265D01*
X151679Y-4257D01*
Y-4253D01*
X152114Y-4347D01*
X152097Y-4421D01*
X152077Y-4495D01*
X152052Y-4561D01*
X152023Y-4622D01*
X151995Y-4679D01*
X151958Y-4733D01*
X151880Y-4827D01*
X151798Y-4909D01*
X151704Y-4975D01*
X151609Y-5032D01*
X151515Y-5077D01*
X151421Y-5110D01*
X151331Y-5134D01*
X151249Y-5155D01*
X151175Y-5167D01*
X151113Y-5175D01*
X151089D01*
X151068Y-5180D01*
X151027D01*
X150941Y-5175D01*
X150859Y-5171D01*
X150781Y-5159D01*
X150707Y-5143D01*
X150642Y-5126D01*
X150580Y-5106D01*
X150523Y-5085D01*
X150474Y-5065D01*
X150429Y-5044D01*
X150388Y-5024D01*
X150355Y-5003D01*
X150326Y-4987D01*
X150306Y-4970D01*
X150289Y-4958D01*
X150281Y-4954D01*
X150277Y-4950D01*
X150228Y-4905D01*
X150187Y-4860D01*
X150150Y-4811D01*
X150121Y-4761D01*
X150092Y-4708D01*
X150072Y-4659D01*
X150039Y-4565D01*
X150027Y-4519D01*
X150019Y-4479D01*
X150014Y-4446D01*
X150010Y-4413D01*
X150006Y-4388D01*
Y-4368D01*
Y-4355D01*
Y-4351D01*
X150010Y-4265D01*
X150023Y-4191D01*
X150039Y-4122D01*
X150060Y-4064D01*
X150080Y-4015D01*
X150096Y-3978D01*
X150109Y-3958D01*
X150113Y-3950D01*
X150154Y-3888D01*
X150203Y-3831D01*
X150256Y-3782D01*
X150306Y-3740D01*
X150351Y-3708D01*
X150388Y-3683D01*
X150412Y-3667D01*
X150416Y-3663D01*
X150420D01*
X150363Y-3626D01*
X150314Y-3585D01*
X150269Y-3540D01*
X150232Y-3494D01*
X150199Y-3453D01*
X150170Y-3408D01*
X150150Y-3363D01*
X150133Y-3322D01*
X150109Y-3244D01*
X150101Y-3212D01*
X150096Y-3187D01*
X150092Y-3162D01*
Y-3146D01*
Y-3134D01*
Y-3130D01*
X150096Y-3068D01*
X150105Y-3011D01*
X150117Y-2953D01*
X150129Y-2900D01*
X150170Y-2802D01*
X150215Y-2720D01*
X150240Y-2683D01*
X150265Y-2650D01*
X150285Y-2621D01*
X150302Y-2597D01*
X150318Y-2580D01*
X150330Y-2568D01*
X150338Y-2560D01*
X150343Y-2556D01*
X150392Y-2515D01*
X150445Y-2474D01*
X150498Y-2445D01*
X150556Y-2416D01*
X150613Y-2392D01*
X150671Y-2371D01*
X150781Y-2342D01*
X150830Y-2334D01*
X150880Y-2326D01*
X150921Y-2322D01*
X150958Y-2318D01*
X150990Y-2314D01*
X151031D01*
X151105Y-2318D01*
D02*
G37*
G36*
X158010Y-1887D02*
Y-2080D01*
X158014Y-2265D01*
X158022Y-2441D01*
X158030Y-2609D01*
X158038Y-2769D01*
X158051Y-2921D01*
X158067Y-3068D01*
X158079Y-3207D01*
X158096Y-3339D01*
X158116Y-3462D01*
X158133Y-3576D01*
X158153Y-3687D01*
X158174Y-3794D01*
X158194Y-3888D01*
X158214Y-3978D01*
X158235Y-4064D01*
X158260Y-4142D01*
X158280Y-4216D01*
X158301Y-4282D01*
X158321Y-4343D01*
X158342Y-4397D01*
X158358Y-4446D01*
X158379Y-4491D01*
X158395Y-4532D01*
X158407Y-4565D01*
X158424Y-4593D01*
X158436Y-4618D01*
X158444Y-4638D01*
X158452Y-4651D01*
X158460Y-4663D01*
X158465Y-4667D01*
Y-4671D01*
X158760D01*
Y-6000D01*
X158313D01*
Y-5118D01*
X155812D01*
Y-6000D01*
X155365D01*
Y-4671D01*
X155701D01*
Y-1334D01*
X158010D01*
Y-1887D01*
D02*
G37*
G36*
X100241Y-2318D02*
X100331Y-2326D01*
X100413Y-2342D01*
X100495Y-2363D01*
X100573Y-2383D01*
X100642Y-2412D01*
X100708Y-2437D01*
X100765Y-2465D01*
X100823Y-2494D01*
X100868Y-2523D01*
X100909Y-2551D01*
X100946Y-2572D01*
X100970Y-2592D01*
X100991Y-2609D01*
X101003Y-2617D01*
X101007Y-2621D01*
X101081Y-2695D01*
X101147Y-2773D01*
X101204Y-2859D01*
X101253Y-2949D01*
X101290Y-3043D01*
X101327Y-3138D01*
X101356Y-3232D01*
X101376Y-3322D01*
X101393Y-3408D01*
X101409Y-3486D01*
X101417Y-3560D01*
X101421Y-3626D01*
X101425Y-3675D01*
X101429Y-3716D01*
Y-3740D01*
Y-3745D01*
Y-3749D01*
X101425Y-3876D01*
X101413Y-3995D01*
X101397Y-4105D01*
X101376Y-4208D01*
X101347Y-4302D01*
X101319Y-4388D01*
X101286Y-4466D01*
X101253Y-4540D01*
X101220Y-4602D01*
X101188Y-4659D01*
X101159Y-4704D01*
X101130Y-4741D01*
X101110Y-4774D01*
X101093Y-4794D01*
X101081Y-4806D01*
X101077Y-4811D01*
X101007Y-4876D01*
X100933Y-4934D01*
X100860Y-4983D01*
X100782Y-5024D01*
X100704Y-5061D01*
X100626Y-5089D01*
X100552Y-5114D01*
X100478Y-5134D01*
X100409Y-5147D01*
X100347Y-5159D01*
X100290Y-5167D01*
X100241Y-5175D01*
X100199D01*
X100171Y-5180D01*
X100146D01*
X100015Y-5171D01*
X99892Y-5155D01*
X99781Y-5126D01*
X99728Y-5114D01*
X99683Y-5098D01*
X99638Y-5081D01*
X99601Y-5069D01*
X99568Y-5052D01*
X99539Y-5040D01*
X99515Y-5032D01*
X99498Y-5024D01*
X99490Y-5016D01*
X99486D01*
X99379Y-4946D01*
X99285Y-4872D01*
X99207Y-4794D01*
X99142Y-4716D01*
X99088Y-4651D01*
X99068Y-4618D01*
X99051Y-4593D01*
X99039Y-4573D01*
X99031Y-4556D01*
X99023Y-4548D01*
Y-4544D01*
X98994Y-4483D01*
X98970Y-4421D01*
X98928Y-4286D01*
X98900Y-4146D01*
X98883Y-4015D01*
X98875Y-3954D01*
X98871Y-3896D01*
X98867Y-3843D01*
Y-3798D01*
X98863Y-3761D01*
Y-3736D01*
Y-3716D01*
Y-3712D01*
X98867Y-3593D01*
X98879Y-3478D01*
X98896Y-3371D01*
X98920Y-3273D01*
X98945Y-3183D01*
X98978Y-3101D01*
X99010Y-3023D01*
X99043Y-2953D01*
X99076Y-2892D01*
X99109Y-2839D01*
X99142Y-2793D01*
X99166Y-2757D01*
X99191Y-2724D01*
X99207Y-2703D01*
X99220Y-2691D01*
X99224Y-2687D01*
X99293Y-2621D01*
X99367Y-2564D01*
X99441Y-2515D01*
X99519Y-2469D01*
X99597Y-2437D01*
X99671Y-2404D01*
X99748Y-2379D01*
X99818Y-2359D01*
X99888Y-2347D01*
X99949Y-2334D01*
X100003Y-2326D01*
X100052Y-2318D01*
X100093D01*
X100122Y-2314D01*
X100146D01*
X100241Y-2318D01*
D02*
G37*
G36*
X136407D02*
X136497Y-2330D01*
X136575Y-2347D01*
X136640Y-2367D01*
X136694Y-2387D01*
X136735Y-2404D01*
X136759Y-2416D01*
X136763Y-2420D01*
X136767D01*
X136837Y-2465D01*
X136899Y-2515D01*
X136956Y-2568D01*
X137005Y-2617D01*
X137046Y-2662D01*
X137079Y-2703D01*
X137095Y-2728D01*
X137104Y-2732D01*
Y-2375D01*
X137526D01*
Y-6168D01*
X137063D01*
Y-4835D01*
X137018Y-4888D01*
X136968Y-4938D01*
X136919Y-4983D01*
X136870Y-5016D01*
X136829Y-5044D01*
X136792Y-5069D01*
X136772Y-5081D01*
X136763Y-5085D01*
X136694Y-5118D01*
X136620Y-5139D01*
X136550Y-5155D01*
X136485Y-5167D01*
X136427Y-5175D01*
X136386Y-5180D01*
X136345D01*
X136284Y-5175D01*
X136226Y-5171D01*
X136116Y-5151D01*
X136013Y-5122D01*
X135923Y-5089D01*
X135882Y-5073D01*
X135845Y-5061D01*
X135816Y-5044D01*
X135787Y-5032D01*
X135767Y-5020D01*
X135751Y-5012D01*
X135742Y-5003D01*
X135738D01*
X135636Y-4930D01*
X135550Y-4848D01*
X135472Y-4761D01*
X135410Y-4675D01*
X135361Y-4602D01*
X135345Y-4569D01*
X135328Y-4540D01*
X135316Y-4519D01*
X135308Y-4503D01*
X135300Y-4491D01*
Y-4487D01*
X135250Y-4355D01*
X135213Y-4224D01*
X135185Y-4097D01*
X135168Y-3982D01*
X135160Y-3929D01*
X135156Y-3880D01*
X135152Y-3835D01*
Y-3798D01*
X135148Y-3769D01*
Y-3749D01*
Y-3732D01*
Y-3728D01*
X135152Y-3585D01*
X135168Y-3449D01*
X135193Y-3326D01*
X135205Y-3273D01*
X135218Y-3220D01*
X135230Y-3175D01*
X135242Y-3130D01*
X135255Y-3093D01*
X135267Y-3064D01*
X135275Y-3039D01*
X135283Y-3023D01*
X135287Y-3011D01*
Y-3007D01*
X135345Y-2892D01*
X135406Y-2789D01*
X135476Y-2703D01*
X135541Y-2629D01*
X135599Y-2572D01*
X135648Y-2531D01*
X135669Y-2519D01*
X135681Y-2506D01*
X135689Y-2498D01*
X135693D01*
X135742Y-2465D01*
X135796Y-2437D01*
X135902Y-2392D01*
X136005Y-2359D01*
X136103Y-2338D01*
X136148Y-2330D01*
X136185Y-2322D01*
X136222Y-2318D01*
X136255D01*
X136279Y-2314D01*
X136312D01*
X136407Y-2318D01*
D02*
G37*
G36*
X129535Y-4187D02*
Y-4249D01*
Y-4306D01*
X129539Y-4355D01*
Y-4401D01*
Y-4442D01*
X129543Y-4474D01*
Y-4503D01*
X129547Y-4528D01*
X129551Y-4548D01*
Y-4565D01*
X129555Y-4589D01*
X129560Y-4602D01*
Y-4606D01*
X129580Y-4647D01*
X129609Y-4675D01*
X129633Y-4696D01*
X129638Y-4700D01*
X129642D01*
X129666Y-4708D01*
X129699Y-4716D01*
X129769Y-4724D01*
X129797Y-4729D01*
X130048D01*
Y-5114D01*
X129970Y-5122D01*
X129900Y-5126D01*
X129838Y-5130D01*
X129781D01*
X129736Y-5134D01*
X129674D01*
X129580Y-5130D01*
X129502Y-5118D01*
X129432Y-5098D01*
X129375Y-5077D01*
X129334Y-5061D01*
X129301Y-5040D01*
X129285Y-5028D01*
X129277Y-5024D01*
X129227Y-4979D01*
X129191Y-4934D01*
X129162Y-4888D01*
X129137Y-4848D01*
X129121Y-4811D01*
X129113Y-4782D01*
X129104Y-4766D01*
Y-4757D01*
X129100Y-4724D01*
X129092Y-4688D01*
X129088Y-4642D01*
X129084Y-4593D01*
X129080Y-4491D01*
X129076Y-4384D01*
Y-4335D01*
X129072Y-4286D01*
Y-4241D01*
Y-4204D01*
Y-4171D01*
Y-4146D01*
Y-4130D01*
Y-4126D01*
Y-2757D01*
X127842D01*
Y-5118D01*
X127378D01*
Y-2375D01*
X129535D01*
Y-4187D01*
D02*
G37*
G36*
X124172Y-2757D02*
X123291D01*
Y-5118D01*
X122827D01*
Y-2757D01*
X121946D01*
Y-2375D01*
X124172D01*
Y-2757D01*
D02*
G37*
G36*
X98313Y-5118D02*
X97850D01*
Y-3900D01*
X96563D01*
Y-5118D01*
X96100D01*
Y-2375D01*
X96563D01*
Y-3519D01*
X97850D01*
Y-2375D01*
X98313D01*
Y-5118D01*
D02*
G37*
G36*
X153815Y-2318D02*
X153905Y-2326D01*
X153987Y-2342D01*
X154069Y-2363D01*
X154147Y-2383D01*
X154217Y-2412D01*
X154283Y-2437D01*
X154340Y-2465D01*
X154397Y-2494D01*
X154443Y-2523D01*
X154483Y-2551D01*
X154520Y-2572D01*
X154545Y-2592D01*
X154566Y-2609D01*
X154578Y-2617D01*
X154582Y-2621D01*
X154656Y-2695D01*
X154721Y-2773D01*
X154779Y-2859D01*
X154828Y-2949D01*
X154865Y-3043D01*
X154902Y-3138D01*
X154930Y-3232D01*
X154951Y-3322D01*
X154967Y-3408D01*
X154984Y-3486D01*
X154992Y-3560D01*
X154996Y-3626D01*
X155000Y-3675D01*
X155004Y-3716D01*
Y-3740D01*
Y-3745D01*
Y-3749D01*
X155000Y-3876D01*
X154988Y-3995D01*
X154971Y-4105D01*
X154951Y-4208D01*
X154922Y-4302D01*
X154894Y-4388D01*
X154861Y-4466D01*
X154828Y-4540D01*
X154795Y-4602D01*
X154762Y-4659D01*
X154734Y-4704D01*
X154705Y-4741D01*
X154684Y-4774D01*
X154668Y-4794D01*
X154656Y-4806D01*
X154652Y-4811D01*
X154582Y-4876D01*
X154508Y-4934D01*
X154434Y-4983D01*
X154356Y-5024D01*
X154279Y-5061D01*
X154201Y-5089D01*
X154127Y-5114D01*
X154053Y-5134D01*
X153983Y-5147D01*
X153922Y-5159D01*
X153864Y-5167D01*
X153815Y-5175D01*
X153774D01*
X153745Y-5180D01*
X153721D01*
X153590Y-5171D01*
X153467Y-5155D01*
X153356Y-5126D01*
X153303Y-5114D01*
X153258Y-5098D01*
X153212Y-5081D01*
X153176Y-5069D01*
X153143Y-5052D01*
X153114Y-5040D01*
X153089Y-5032D01*
X153073Y-5024D01*
X153065Y-5016D01*
X153061D01*
X152954Y-4946D01*
X152860Y-4872D01*
X152782Y-4794D01*
X152716Y-4716D01*
X152663Y-4651D01*
X152643Y-4618D01*
X152626Y-4593D01*
X152614Y-4573D01*
X152606Y-4556D01*
X152597Y-4548D01*
Y-4544D01*
X152569Y-4483D01*
X152544Y-4421D01*
X152503Y-4286D01*
X152474Y-4146D01*
X152458Y-4015D01*
X152450Y-3954D01*
X152446Y-3896D01*
X152442Y-3843D01*
Y-3798D01*
X152438Y-3761D01*
Y-3736D01*
Y-3716D01*
Y-3712D01*
X152442Y-3593D01*
X152454Y-3478D01*
X152470Y-3371D01*
X152495Y-3273D01*
X152520Y-3183D01*
X152552Y-3101D01*
X152585Y-3023D01*
X152618Y-2953D01*
X152651Y-2892D01*
X152684Y-2839D01*
X152716Y-2793D01*
X152741Y-2757D01*
X152766Y-2724D01*
X152782Y-2703D01*
X152794Y-2691D01*
X152798Y-2687D01*
X152868Y-2621D01*
X152942Y-2564D01*
X153016Y-2515D01*
X153094Y-2469D01*
X153172Y-2437D01*
X153245Y-2404D01*
X153323Y-2379D01*
X153393Y-2359D01*
X153463Y-2347D01*
X153524Y-2334D01*
X153577Y-2326D01*
X153627Y-2318D01*
X153668D01*
X153696Y-2314D01*
X153721D01*
X153815Y-2318D01*
D02*
G37*
%LPC*%
G36*
X123348Y-84581D02*
X123319D01*
X123258Y-84585D01*
X123204Y-84593D01*
X123147Y-84610D01*
X123098Y-84630D01*
X123003Y-84679D01*
X122925Y-84733D01*
X122893Y-84761D01*
X122864Y-84790D01*
X122839Y-84819D01*
X122815Y-84839D01*
X122798Y-84860D01*
X122786Y-84876D01*
X122782Y-84884D01*
X122778Y-84888D01*
X122737Y-84954D01*
X122704Y-85028D01*
X122675Y-85118D01*
X122651Y-85212D01*
X122630Y-85311D01*
X122610Y-85413D01*
X122585Y-85622D01*
X122573Y-85721D01*
X122569Y-85815D01*
X122565Y-85901D01*
X122561Y-85975D01*
X122556Y-86041D01*
Y-86065D01*
Y-86086D01*
Y-86102D01*
Y-86114D01*
Y-86123D01*
Y-86127D01*
X122561Y-86295D01*
X122565Y-86446D01*
X122577Y-86586D01*
X122589Y-86713D01*
X122606Y-86828D01*
X122626Y-86926D01*
X122647Y-87016D01*
X122667Y-87094D01*
X122688Y-87160D01*
X122708Y-87217D01*
X122724Y-87266D01*
X122745Y-87303D01*
X122757Y-87332D01*
X122770Y-87348D01*
X122774Y-87361D01*
X122778Y-87365D01*
X122819Y-87418D01*
X122864Y-87467D01*
X122909Y-87508D01*
X122954Y-87541D01*
X122999Y-87574D01*
X123044Y-87599D01*
X123085Y-87619D01*
X123126Y-87635D01*
X123200Y-87656D01*
X123233Y-87664D01*
X123262Y-87668D01*
X123282D01*
X123303Y-87672D01*
X123315D01*
X123372Y-87668D01*
X123430Y-87660D01*
X123483Y-87644D01*
X123532Y-87623D01*
X123626Y-87578D01*
X123704Y-87521D01*
X123766Y-87463D01*
X123791Y-87439D01*
X123811Y-87418D01*
X123831Y-87398D01*
X123844Y-87381D01*
X123848Y-87373D01*
X123852Y-87369D01*
X123889Y-87303D01*
X123922Y-87225D01*
X123954Y-87139D01*
X123979Y-87045D01*
X124000Y-86942D01*
X124016Y-86840D01*
X124041Y-86631D01*
X124053Y-86532D01*
X124057Y-86438D01*
X124061Y-86352D01*
X124065Y-86278D01*
X124069Y-86217D01*
Y-86188D01*
Y-86168D01*
Y-86151D01*
Y-86139D01*
Y-86131D01*
Y-86127D01*
X124065Y-85958D01*
X124057Y-85807D01*
X124049Y-85663D01*
X124032Y-85536D01*
X124016Y-85421D01*
X123995Y-85315D01*
X123971Y-85225D01*
X123950Y-85143D01*
X123930Y-85069D01*
X123905Y-85011D01*
X123885Y-84962D01*
X123868Y-84921D01*
X123852Y-84888D01*
X123840Y-84868D01*
X123836Y-84856D01*
X123831Y-84851D01*
X123795Y-84802D01*
X123754Y-84761D01*
X123713Y-84724D01*
X123672Y-84696D01*
X123626Y-84667D01*
X123585Y-84646D01*
X123503Y-84614D01*
X123430Y-84593D01*
X123397Y-84589D01*
X123372Y-84585D01*
X123348Y-84581D01*
D02*
G37*
G36*
X130014Y-86615D02*
X130010D01*
X130014Y-86787D01*
X130018Y-86893D01*
X130027Y-86988D01*
X130039Y-87070D01*
X130051Y-87135D01*
X130063Y-87184D01*
X130076Y-87221D01*
X130084Y-87242D01*
X130088Y-87250D01*
X130129Y-87324D01*
X130178Y-87385D01*
X130227Y-87443D01*
X130277Y-87488D01*
X130326Y-87525D01*
X130363Y-87553D01*
X130387Y-87570D01*
X130392Y-87574D01*
X130396D01*
X130478Y-87611D01*
X130560Y-87639D01*
X130638Y-87660D01*
X130715Y-87672D01*
X130777Y-87681D01*
X130806Y-87685D01*
X130830Y-87689D01*
X130875D01*
X130970Y-87685D01*
X131052Y-87668D01*
X131125Y-87648D01*
X131183Y-87627D01*
X131228Y-87603D01*
X131261Y-87586D01*
X131277Y-87570D01*
X131285Y-87566D01*
X131330Y-87516D01*
X131367Y-87467D01*
X131392Y-87414D01*
X131408Y-87365D01*
X131416Y-87324D01*
X131421Y-87287D01*
X131425Y-87266D01*
Y-87258D01*
X131421Y-87213D01*
X131416Y-87172D01*
X131404Y-87135D01*
X131392Y-87102D01*
X131384Y-87074D01*
X131371Y-87053D01*
X131367Y-87041D01*
X131363Y-87037D01*
X131334Y-87000D01*
X131306Y-86971D01*
X131277Y-86947D01*
X131244Y-86922D01*
X131220Y-86906D01*
X131199Y-86893D01*
X131183Y-86889D01*
X131179Y-86885D01*
X131125Y-86865D01*
X131064Y-86848D01*
X130998Y-86832D01*
X130933Y-86819D01*
X130871Y-86807D01*
X130818Y-86799D01*
X130801Y-86795D01*
X130785Y-86791D01*
X130773D01*
X130678Y-86778D01*
X130592Y-86762D01*
X130515Y-86750D01*
X130441Y-86733D01*
X130371Y-86717D01*
X130309Y-86705D01*
X130252Y-86688D01*
X130199Y-86676D01*
X130158Y-86664D01*
X130117Y-86651D01*
X130084Y-86643D01*
X130059Y-86631D01*
X130039Y-86623D01*
X130023Y-86619D01*
X130014Y-86615D01*
D02*
G37*
G36*
X117177Y-84954D02*
Y-86660D01*
X118370D01*
X117177Y-84954D01*
D02*
G37*
G36*
X141794Y-2695D02*
X141761D01*
X141696Y-2699D01*
X141634Y-2707D01*
X141577Y-2720D01*
X141523Y-2736D01*
X141425Y-2781D01*
X141380Y-2806D01*
X141339Y-2830D01*
X141306Y-2855D01*
X141273Y-2880D01*
X141245Y-2904D01*
X141224Y-2925D01*
X141208Y-2941D01*
X141191Y-2953D01*
X141187Y-2961D01*
X141183Y-2966D01*
X141134Y-3035D01*
X141093Y-3117D01*
X141064Y-3203D01*
X141040Y-3289D01*
X141023Y-3363D01*
X141019Y-3396D01*
X141015Y-3425D01*
X141011Y-3449D01*
X141007Y-3466D01*
Y-3478D01*
Y-3482D01*
X142540D01*
X142532Y-3417D01*
X142524Y-3355D01*
X142495Y-3244D01*
X142454Y-3146D01*
X142434Y-3101D01*
X142413Y-3064D01*
X142393Y-3027D01*
X142372Y-2998D01*
X142352Y-2974D01*
X142335Y-2949D01*
X142323Y-2933D01*
X142311Y-2921D01*
X142306Y-2916D01*
X142302Y-2912D01*
X142261Y-2875D01*
X142216Y-2839D01*
X142171Y-2810D01*
X142126Y-2785D01*
X142032Y-2748D01*
X141950Y-2724D01*
X141872Y-2707D01*
X141843Y-2703D01*
X141814Y-2699D01*
X141794Y-2695D01*
D02*
G37*
G36*
X157526Y-1781D02*
X156201D01*
Y-4671D01*
X157952D01*
X157907Y-4569D01*
X157866Y-4458D01*
X157792Y-4228D01*
X157735Y-3999D01*
X157710Y-3888D01*
X157690Y-3782D01*
X157673Y-3683D01*
X157657Y-3589D01*
X157645Y-3507D01*
X157632Y-3437D01*
X157624Y-3380D01*
X157620Y-3335D01*
Y-3318D01*
X157616Y-3306D01*
Y-3302D01*
Y-3298D01*
X157599Y-3146D01*
X157587Y-2998D01*
X157575Y-2863D01*
X157563Y-2736D01*
X157554Y-2617D01*
X157546Y-2510D01*
X157542Y-2412D01*
X157538Y-2322D01*
X157534Y-2244D01*
X157530Y-2174D01*
Y-2113D01*
X157526Y-2064D01*
Y-2027D01*
Y-1998D01*
Y-1982D01*
Y-1977D01*
Y-1781D01*
D02*
G37*
G36*
X116813Y-3740D02*
X116809D01*
X116813Y-3913D01*
X116817Y-4019D01*
X116825Y-4114D01*
X116837Y-4196D01*
X116850Y-4261D01*
X116862Y-4310D01*
X116874Y-4347D01*
X116882Y-4368D01*
X116886Y-4376D01*
X116928Y-4450D01*
X116977Y-4511D01*
X117026Y-4569D01*
X117075Y-4614D01*
X117124Y-4651D01*
X117161Y-4679D01*
X117186Y-4696D01*
X117190Y-4700D01*
X117194D01*
X117276Y-4737D01*
X117358Y-4766D01*
X117436Y-4786D01*
X117514Y-4798D01*
X117575Y-4806D01*
X117604Y-4811D01*
X117629Y-4815D01*
X117674D01*
X117768Y-4811D01*
X117850Y-4794D01*
X117924Y-4774D01*
X117981Y-4753D01*
X118026Y-4729D01*
X118059Y-4712D01*
X118076Y-4696D01*
X118084Y-4692D01*
X118129Y-4642D01*
X118166Y-4593D01*
X118190Y-4540D01*
X118207Y-4491D01*
X118215Y-4450D01*
X118219Y-4413D01*
X118223Y-4392D01*
Y-4384D01*
X118219Y-4339D01*
X118215Y-4298D01*
X118203Y-4261D01*
X118190Y-4228D01*
X118182Y-4200D01*
X118170Y-4179D01*
X118166Y-4167D01*
X118162Y-4163D01*
X118133Y-4126D01*
X118104Y-4097D01*
X118076Y-4073D01*
X118043Y-4048D01*
X118018Y-4032D01*
X117998Y-4019D01*
X117981Y-4015D01*
X117977Y-4011D01*
X117924Y-3991D01*
X117862Y-3974D01*
X117797Y-3958D01*
X117731Y-3946D01*
X117670Y-3933D01*
X117616Y-3925D01*
X117600Y-3921D01*
X117584Y-3917D01*
X117571D01*
X117477Y-3904D01*
X117391Y-3888D01*
X117313Y-3876D01*
X117239Y-3859D01*
X117169Y-3843D01*
X117108Y-3831D01*
X117051Y-3814D01*
X116997Y-3802D01*
X116956Y-3790D01*
X116915Y-3777D01*
X116882Y-3769D01*
X116858Y-3757D01*
X116837Y-3749D01*
X116821Y-3745D01*
X116813Y-3740D01*
D02*
G37*
G36*
X100179Y-2699D02*
X100146D01*
X100085Y-2703D01*
X100023Y-2711D01*
X99966Y-2724D01*
X99913Y-2740D01*
X99814Y-2781D01*
X99728Y-2830D01*
X99695Y-2855D01*
X99662Y-2880D01*
X99638Y-2900D01*
X99613Y-2921D01*
X99597Y-2937D01*
X99585Y-2949D01*
X99576Y-2957D01*
X99572Y-2961D01*
X99531Y-3015D01*
X99494Y-3068D01*
X99466Y-3130D01*
X99437Y-3191D01*
X99412Y-3257D01*
X99396Y-3322D01*
X99367Y-3445D01*
X99359Y-3503D01*
X99351Y-3556D01*
X99347Y-3605D01*
X99343Y-3650D01*
X99339Y-3683D01*
Y-3712D01*
Y-3728D01*
Y-3732D01*
X99343Y-3831D01*
X99347Y-3921D01*
X99359Y-4007D01*
X99375Y-4085D01*
X99392Y-4159D01*
X99412Y-4224D01*
X99433Y-4286D01*
X99453Y-4335D01*
X99478Y-4384D01*
X99498Y-4425D01*
X99519Y-4458D01*
X99535Y-4487D01*
X99552Y-4507D01*
X99564Y-4524D01*
X99568Y-4532D01*
X99572Y-4536D01*
X99617Y-4581D01*
X99662Y-4622D01*
X99712Y-4659D01*
X99757Y-4688D01*
X99806Y-4712D01*
X99855Y-4733D01*
X99945Y-4766D01*
X100023Y-4786D01*
X100060Y-4790D01*
X100089Y-4794D01*
X100113Y-4798D01*
X100146D01*
X100212Y-4794D01*
X100269Y-4786D01*
X100331Y-4774D01*
X100384Y-4757D01*
X100482Y-4716D01*
X100564Y-4667D01*
X100601Y-4647D01*
X100634Y-4622D01*
X100659Y-4602D01*
X100683Y-4581D01*
X100700Y-4565D01*
X100712Y-4552D01*
X100720Y-4544D01*
X100724Y-4540D01*
X100765Y-4487D01*
X100798Y-4429D01*
X100831Y-4368D01*
X100856Y-4306D01*
X100897Y-4175D01*
X100925Y-4044D01*
X100933Y-3986D01*
X100942Y-3929D01*
X100946Y-3880D01*
X100950Y-3835D01*
X100954Y-3798D01*
Y-3773D01*
Y-3753D01*
Y-3749D01*
X100950Y-3654D01*
X100946Y-3564D01*
X100933Y-3482D01*
X100917Y-3404D01*
X100901Y-3335D01*
X100880Y-3269D01*
X100860Y-3212D01*
X100839Y-3158D01*
X100819Y-3113D01*
X100798Y-3072D01*
X100778Y-3039D01*
X100761Y-3011D01*
X100745Y-2990D01*
X100733Y-2974D01*
X100728Y-2966D01*
X100724Y-2961D01*
X100679Y-2916D01*
X100634Y-2875D01*
X100585Y-2839D01*
X100536Y-2810D01*
X100487Y-2785D01*
X100441Y-2765D01*
X100347Y-2732D01*
X100269Y-2711D01*
X100232Y-2707D01*
X100204Y-2703D01*
X100179Y-2699D01*
D02*
G37*
G36*
X103057Y-2679D02*
X103029D01*
X102975Y-2683D01*
X102922Y-2691D01*
X102869Y-2703D01*
X102819Y-2720D01*
X102733Y-2761D01*
X102659Y-2810D01*
X102598Y-2859D01*
X102569Y-2880D01*
X102549Y-2900D01*
X102532Y-2916D01*
X102520Y-2929D01*
X102516Y-2937D01*
X102512Y-2941D01*
X102475Y-2994D01*
X102438Y-3052D01*
X102409Y-3109D01*
X102385Y-3175D01*
X102348Y-3306D01*
X102323Y-3433D01*
X102311Y-3494D01*
X102307Y-3548D01*
X102303Y-3597D01*
X102299Y-3642D01*
X102295Y-3679D01*
Y-3704D01*
Y-3724D01*
Y-3728D01*
X102299Y-3827D01*
X102303Y-3921D01*
X102315Y-4007D01*
X102327Y-4085D01*
X102344Y-4159D01*
X102364Y-4228D01*
X102385Y-4286D01*
X102405Y-4339D01*
X102426Y-4388D01*
X102446Y-4429D01*
X102463Y-4462D01*
X102483Y-4491D01*
X102496Y-4511D01*
X102508Y-4528D01*
X102512Y-4536D01*
X102516Y-4540D01*
X102557Y-4585D01*
X102602Y-4626D01*
X102647Y-4659D01*
X102692Y-4688D01*
X102737Y-4712D01*
X102782Y-4737D01*
X102865Y-4766D01*
X102938Y-4786D01*
X102971Y-4790D01*
X102996Y-4794D01*
X103020Y-4798D01*
X103049D01*
X103106Y-4794D01*
X103160Y-4786D01*
X103209Y-4774D01*
X103258Y-4757D01*
X103344Y-4720D01*
X103422Y-4671D01*
X103484Y-4626D01*
X103508Y-4606D01*
X103529Y-4585D01*
X103545Y-4573D01*
X103557Y-4561D01*
X103561Y-4552D01*
X103566Y-4548D01*
X103603Y-4499D01*
X103635Y-4442D01*
X103664Y-4380D01*
X103689Y-4319D01*
X103726Y-4187D01*
X103750Y-4060D01*
X103762Y-4003D01*
X103767Y-3946D01*
X103771Y-3896D01*
X103775Y-3851D01*
X103779Y-3814D01*
Y-3790D01*
Y-3769D01*
Y-3765D01*
X103775Y-3667D01*
X103771Y-3576D01*
X103758Y-3494D01*
X103742Y-3417D01*
X103726Y-3343D01*
X103709Y-3277D01*
X103689Y-3216D01*
X103664Y-3162D01*
X103644Y-3113D01*
X103623Y-3072D01*
X103607Y-3039D01*
X103590Y-3011D01*
X103574Y-2986D01*
X103561Y-2970D01*
X103557Y-2961D01*
X103553Y-2957D01*
X103508Y-2908D01*
X103463Y-2867D01*
X103418Y-2826D01*
X103373Y-2798D01*
X103328Y-2769D01*
X103287Y-2748D01*
X103205Y-2711D01*
X103135Y-2695D01*
X103102Y-2687D01*
X103078Y-2683D01*
X103057Y-2679D01*
D02*
G37*
G36*
X114571Y-74640D02*
X114543D01*
X114481Y-74644D01*
X114428Y-74652D01*
X114371Y-74669D01*
X114321Y-74689D01*
X114227Y-74738D01*
X114149Y-74792D01*
X114116Y-74820D01*
X114088Y-74849D01*
X114063Y-74878D01*
X114038Y-74898D01*
X114022Y-74919D01*
X114010Y-74935D01*
X114006Y-74943D01*
X114002Y-74948D01*
X113961Y-75013D01*
X113928Y-75087D01*
X113899Y-75177D01*
X113874Y-75271D01*
X113854Y-75370D01*
X113833Y-75472D01*
X113809Y-75681D01*
X113796Y-75780D01*
X113792Y-75874D01*
X113788Y-75960D01*
X113784Y-76034D01*
X113780Y-76100D01*
Y-76124D01*
Y-76145D01*
Y-76161D01*
Y-76173D01*
Y-76182D01*
Y-76186D01*
X113784Y-76354D01*
X113788Y-76506D01*
X113801Y-76645D01*
X113813Y-76772D01*
X113829Y-76887D01*
X113850Y-76985D01*
X113870Y-77075D01*
X113891Y-77153D01*
X113911Y-77219D01*
X113932Y-77276D01*
X113948Y-77325D01*
X113969Y-77362D01*
X113981Y-77391D01*
X113993Y-77407D01*
X113997Y-77420D01*
X114002Y-77424D01*
X114042Y-77477D01*
X114088Y-77526D01*
X114133Y-77567D01*
X114178Y-77600D01*
X114223Y-77633D01*
X114268Y-77658D01*
X114309Y-77678D01*
X114350Y-77694D01*
X114424Y-77715D01*
X114457Y-77723D01*
X114485Y-77727D01*
X114506D01*
X114526Y-77731D01*
X114539D01*
X114596Y-77727D01*
X114653Y-77719D01*
X114707Y-77703D01*
X114756Y-77682D01*
X114850Y-77637D01*
X114928Y-77580D01*
X114990Y-77522D01*
X115014Y-77498D01*
X115035Y-77477D01*
X115055Y-77457D01*
X115068Y-77440D01*
X115072Y-77432D01*
X115076Y-77428D01*
X115113Y-77362D01*
X115145Y-77284D01*
X115178Y-77198D01*
X115203Y-77104D01*
X115223Y-77002D01*
X115240Y-76899D01*
X115264Y-76690D01*
X115277Y-76592D01*
X115281Y-76497D01*
X115285Y-76411D01*
X115289Y-76337D01*
X115293Y-76276D01*
Y-76247D01*
Y-76227D01*
Y-76210D01*
Y-76198D01*
Y-76190D01*
Y-76186D01*
X115289Y-76018D01*
X115281Y-75866D01*
X115272Y-75722D01*
X115256Y-75595D01*
X115240Y-75481D01*
X115219Y-75374D01*
X115195Y-75284D01*
X115174Y-75202D01*
X115154Y-75128D01*
X115129Y-75071D01*
X115109Y-75021D01*
X115092Y-74980D01*
X115076Y-74948D01*
X115063Y-74927D01*
X115059Y-74915D01*
X115055Y-74911D01*
X115018Y-74861D01*
X114977Y-74820D01*
X114936Y-74783D01*
X114895Y-74755D01*
X114850Y-74726D01*
X114809Y-74706D01*
X114727Y-74673D01*
X114653Y-74652D01*
X114621Y-74648D01*
X114596Y-74644D01*
X114571Y-74640D01*
D02*
G37*
G36*
X128065Y-75628D02*
X128032D01*
X127966Y-75632D01*
X127905Y-75640D01*
X127847Y-75653D01*
X127794Y-75669D01*
X127696Y-75714D01*
X127650Y-75739D01*
X127609Y-75763D01*
X127577Y-75788D01*
X127544Y-75813D01*
X127515Y-75837D01*
X127495Y-75858D01*
X127478Y-75874D01*
X127462Y-75886D01*
X127458Y-75895D01*
X127454Y-75899D01*
X127404Y-75968D01*
X127363Y-76050D01*
X127335Y-76136D01*
X127310Y-76223D01*
X127294Y-76296D01*
X127290Y-76329D01*
X127286Y-76358D01*
X127281Y-76382D01*
X127277Y-76399D01*
Y-76411D01*
Y-76415D01*
X128811D01*
X128803Y-76350D01*
X128794Y-76288D01*
X128766Y-76178D01*
X128725Y-76079D01*
X128704Y-76034D01*
X128684Y-75997D01*
X128663Y-75960D01*
X128643Y-75932D01*
X128622Y-75907D01*
X128606Y-75882D01*
X128593Y-75866D01*
X128581Y-75854D01*
X128577Y-75849D01*
X128573Y-75845D01*
X128532Y-75809D01*
X128487Y-75772D01*
X128442Y-75743D01*
X128397Y-75718D01*
X128302Y-75681D01*
X128220Y-75657D01*
X128142Y-75640D01*
X128114Y-75636D01*
X128085Y-75632D01*
X128065Y-75628D01*
D02*
G37*
G36*
X121627Y-75013D02*
Y-76719D01*
X122821D01*
X121627Y-75013D01*
D02*
G37*
G36*
X117511Y-74640D02*
X117482D01*
X117421Y-74644D01*
X117368Y-74652D01*
X117310Y-74669D01*
X117261Y-74689D01*
X117167Y-74738D01*
X117089Y-74792D01*
X117056Y-74820D01*
X117027Y-74849D01*
X117003Y-74878D01*
X116978Y-74898D01*
X116962Y-74919D01*
X116949Y-74935D01*
X116945Y-74943D01*
X116941Y-74948D01*
X116900Y-75013D01*
X116867Y-75087D01*
X116839Y-75177D01*
X116814Y-75271D01*
X116794Y-75370D01*
X116773Y-75472D01*
X116748Y-75681D01*
X116736Y-75780D01*
X116732Y-75874D01*
X116728Y-75960D01*
X116724Y-76034D01*
X116720Y-76100D01*
Y-76124D01*
Y-76145D01*
Y-76161D01*
Y-76173D01*
Y-76182D01*
Y-76186D01*
X116724Y-76354D01*
X116728Y-76506D01*
X116740Y-76645D01*
X116753Y-76772D01*
X116769Y-76887D01*
X116789Y-76985D01*
X116810Y-77075D01*
X116831Y-77153D01*
X116851Y-77219D01*
X116872Y-77276D01*
X116888Y-77325D01*
X116908Y-77362D01*
X116921Y-77391D01*
X116933Y-77407D01*
X116937Y-77420D01*
X116941Y-77424D01*
X116982Y-77477D01*
X117027Y-77526D01*
X117072Y-77567D01*
X117118Y-77600D01*
X117163Y-77633D01*
X117208Y-77658D01*
X117249Y-77678D01*
X117290Y-77694D01*
X117364Y-77715D01*
X117396Y-77723D01*
X117425Y-77727D01*
X117446D01*
X117466Y-77731D01*
X117478D01*
X117536Y-77727D01*
X117593Y-77719D01*
X117646Y-77703D01*
X117696Y-77682D01*
X117790Y-77637D01*
X117868Y-77580D01*
X117929Y-77522D01*
X117954Y-77498D01*
X117974Y-77477D01*
X117995Y-77457D01*
X118007Y-77440D01*
X118011Y-77432D01*
X118015Y-77428D01*
X118052Y-77362D01*
X118085Y-77284D01*
X118118Y-77198D01*
X118142Y-77104D01*
X118163Y-77002D01*
X118179Y-76899D01*
X118204Y-76690D01*
X118216Y-76592D01*
X118220Y-76497D01*
X118225Y-76411D01*
X118229Y-76337D01*
X118233Y-76276D01*
Y-76247D01*
Y-76227D01*
Y-76210D01*
Y-76198D01*
Y-76190D01*
Y-76186D01*
X118229Y-76018D01*
X118220Y-75866D01*
X118212Y-75722D01*
X118196Y-75595D01*
X118179Y-75481D01*
X118159Y-75374D01*
X118134Y-75284D01*
X118114Y-75202D01*
X118093Y-75128D01*
X118069Y-75071D01*
X118048Y-75021D01*
X118032Y-74980D01*
X118015Y-74948D01*
X118003Y-74927D01*
X117999Y-74915D01*
X117995Y-74911D01*
X117958Y-74861D01*
X117917Y-74820D01*
X117876Y-74783D01*
X117835Y-74755D01*
X117790Y-74726D01*
X117749Y-74706D01*
X117667Y-74673D01*
X117593Y-74652D01*
X117560Y-74648D01*
X117536Y-74644D01*
X117511Y-74640D01*
D02*
G37*
G36*
X136386Y-2679D02*
X136357D01*
X136304Y-2683D01*
X136251Y-2691D01*
X136197Y-2703D01*
X136148Y-2720D01*
X136062Y-2761D01*
X135988Y-2810D01*
X135927Y-2859D01*
X135898Y-2880D01*
X135878Y-2900D01*
X135861Y-2916D01*
X135849Y-2929D01*
X135845Y-2937D01*
X135841Y-2941D01*
X135804Y-2994D01*
X135767Y-3052D01*
X135738Y-3109D01*
X135714Y-3175D01*
X135677Y-3306D01*
X135652Y-3433D01*
X135640Y-3494D01*
X135636Y-3548D01*
X135632Y-3597D01*
X135628Y-3642D01*
X135624Y-3679D01*
Y-3704D01*
Y-3724D01*
Y-3728D01*
X135628Y-3827D01*
X135632Y-3921D01*
X135644Y-4007D01*
X135656Y-4085D01*
X135673Y-4159D01*
X135693Y-4228D01*
X135714Y-4286D01*
X135734Y-4339D01*
X135755Y-4388D01*
X135775Y-4429D01*
X135792Y-4462D01*
X135812Y-4491D01*
X135824Y-4511D01*
X135837Y-4528D01*
X135841Y-4536D01*
X135845Y-4540D01*
X135886Y-4585D01*
X135931Y-4626D01*
X135976Y-4659D01*
X136021Y-4688D01*
X136066Y-4712D01*
X136111Y-4737D01*
X136193Y-4766D01*
X136267Y-4786D01*
X136300Y-4790D01*
X136325Y-4794D01*
X136349Y-4798D01*
X136378D01*
X136435Y-4794D01*
X136489Y-4786D01*
X136538Y-4774D01*
X136587Y-4757D01*
X136673Y-4720D01*
X136751Y-4671D01*
X136812Y-4626D01*
X136837Y-4606D01*
X136858Y-4585D01*
X136874Y-4573D01*
X136886Y-4561D01*
X136890Y-4552D01*
X136895Y-4548D01*
X136931Y-4499D01*
X136964Y-4442D01*
X136993Y-4380D01*
X137018Y-4319D01*
X137054Y-4187D01*
X137079Y-4060D01*
X137091Y-4003D01*
X137095Y-3946D01*
X137100Y-3896D01*
X137104Y-3851D01*
X137108Y-3814D01*
Y-3790D01*
Y-3769D01*
Y-3765D01*
X137104Y-3667D01*
X137100Y-3576D01*
X137087Y-3494D01*
X137071Y-3417D01*
X137054Y-3343D01*
X137038Y-3277D01*
X137018Y-3216D01*
X136993Y-3162D01*
X136972Y-3113D01*
X136952Y-3072D01*
X136935Y-3039D01*
X136919Y-3011D01*
X136903Y-2986D01*
X136890Y-2970D01*
X136886Y-2961D01*
X136882Y-2957D01*
X136837Y-2908D01*
X136792Y-2867D01*
X136747Y-2826D01*
X136702Y-2798D01*
X136657Y-2769D01*
X136616Y-2748D01*
X136534Y-2711D01*
X136464Y-2695D01*
X136431Y-2687D01*
X136407Y-2683D01*
X136386Y-2679D01*
D02*
G37*
G36*
X153754Y-2699D02*
X153721D01*
X153659Y-2703D01*
X153598Y-2711D01*
X153541Y-2724D01*
X153487Y-2740D01*
X153389Y-2781D01*
X153303Y-2830D01*
X153270Y-2855D01*
X153237Y-2880D01*
X153212Y-2900D01*
X153188Y-2921D01*
X153172Y-2937D01*
X153159Y-2949D01*
X153151Y-2957D01*
X153147Y-2961D01*
X153106Y-3015D01*
X153069Y-3068D01*
X153040Y-3130D01*
X153012Y-3191D01*
X152987Y-3257D01*
X152971Y-3322D01*
X152942Y-3445D01*
X152934Y-3503D01*
X152926Y-3556D01*
X152921Y-3605D01*
X152917Y-3650D01*
X152913Y-3683D01*
Y-3712D01*
Y-3728D01*
Y-3732D01*
X152917Y-3831D01*
X152921Y-3921D01*
X152934Y-4007D01*
X152950Y-4085D01*
X152966Y-4159D01*
X152987Y-4224D01*
X153007Y-4286D01*
X153028Y-4335D01*
X153053Y-4384D01*
X153073Y-4425D01*
X153094Y-4458D01*
X153110Y-4487D01*
X153126Y-4507D01*
X153139Y-4524D01*
X153143Y-4532D01*
X153147Y-4536D01*
X153192Y-4581D01*
X153237Y-4622D01*
X153286Y-4659D01*
X153331Y-4688D01*
X153381Y-4712D01*
X153430Y-4733D01*
X153520Y-4766D01*
X153598Y-4786D01*
X153635Y-4790D01*
X153664Y-4794D01*
X153688Y-4798D01*
X153721D01*
X153787Y-4794D01*
X153844Y-4786D01*
X153905Y-4774D01*
X153959Y-4757D01*
X154057Y-4716D01*
X154139Y-4667D01*
X154176Y-4647D01*
X154209Y-4622D01*
X154233Y-4602D01*
X154258Y-4581D01*
X154274Y-4565D01*
X154287Y-4552D01*
X154295Y-4544D01*
X154299Y-4540D01*
X154340Y-4487D01*
X154373Y-4429D01*
X154406Y-4368D01*
X154430Y-4306D01*
X154471Y-4175D01*
X154500Y-4044D01*
X154508Y-3986D01*
X154516Y-3929D01*
X154520Y-3880D01*
X154525Y-3835D01*
X154529Y-3798D01*
Y-3773D01*
Y-3753D01*
Y-3749D01*
X154525Y-3654D01*
X154520Y-3564D01*
X154508Y-3482D01*
X154492Y-3404D01*
X154475Y-3335D01*
X154455Y-3269D01*
X154434Y-3212D01*
X154414Y-3158D01*
X154393Y-3113D01*
X154373Y-3072D01*
X154352Y-3039D01*
X154336Y-3011D01*
X154320Y-2990D01*
X154307Y-2974D01*
X154303Y-2966D01*
X154299Y-2961D01*
X154254Y-2916D01*
X154209Y-2875D01*
X154160Y-2839D01*
X154110Y-2810D01*
X154061Y-2785D01*
X154016Y-2765D01*
X153922Y-2732D01*
X153844Y-2711D01*
X153807Y-2707D01*
X153778Y-2703D01*
X153754Y-2699D01*
D02*
G37*
G36*
X126222Y-3831D02*
X125587D01*
X125509Y-3835D01*
X125439Y-3843D01*
X125373Y-3851D01*
X125316Y-3864D01*
X125267Y-3876D01*
X125222Y-3888D01*
X125185Y-3900D01*
X125152Y-3917D01*
X125123Y-3929D01*
X125099Y-3941D01*
X125082Y-3950D01*
X125070Y-3962D01*
X125062Y-3966D01*
X125054Y-3974D01*
X125004Y-4028D01*
X124972Y-4081D01*
X124947Y-4134D01*
X124927Y-4183D01*
X124918Y-4228D01*
X124914Y-4261D01*
X124910Y-4282D01*
Y-4286D01*
Y-4290D01*
Y-4331D01*
X124918Y-4372D01*
X124939Y-4442D01*
X124972Y-4499D01*
X125004Y-4544D01*
X125041Y-4581D01*
X125074Y-4610D01*
X125095Y-4626D01*
X125099Y-4630D01*
X125103D01*
X125140Y-4651D01*
X125185Y-4667D01*
X125279Y-4692D01*
X125386Y-4712D01*
X125488Y-4724D01*
X125538Y-4729D01*
X125583Y-4733D01*
X125628D01*
X125661Y-4737D01*
X126222D01*
Y-3831D01*
D02*
G37*
G36*
X120363Y-2679D02*
X120335D01*
X120281Y-2683D01*
X120228Y-2691D01*
X120175Y-2703D01*
X120125Y-2720D01*
X120039Y-2761D01*
X119966Y-2810D01*
X119904Y-2859D01*
X119875Y-2880D01*
X119855Y-2900D01*
X119839Y-2916D01*
X119826Y-2929D01*
X119822Y-2937D01*
X119818Y-2941D01*
X119781Y-2994D01*
X119744Y-3052D01*
X119715Y-3109D01*
X119691Y-3175D01*
X119654Y-3306D01*
X119629Y-3433D01*
X119617Y-3494D01*
X119613Y-3548D01*
X119609Y-3597D01*
X119605Y-3642D01*
X119601Y-3679D01*
Y-3704D01*
Y-3724D01*
Y-3728D01*
X119605Y-3827D01*
X119609Y-3921D01*
X119621Y-4007D01*
X119633Y-4085D01*
X119650Y-4159D01*
X119670Y-4228D01*
X119691Y-4286D01*
X119711Y-4339D01*
X119732Y-4388D01*
X119752Y-4429D01*
X119769Y-4462D01*
X119789Y-4491D01*
X119802Y-4511D01*
X119814Y-4528D01*
X119818Y-4536D01*
X119822Y-4540D01*
X119863Y-4585D01*
X119908Y-4626D01*
X119953Y-4659D01*
X119998Y-4688D01*
X120044Y-4712D01*
X120089Y-4737D01*
X120171Y-4766D01*
X120244Y-4786D01*
X120277Y-4790D01*
X120302Y-4794D01*
X120326Y-4798D01*
X120355D01*
X120413Y-4794D01*
X120466Y-4786D01*
X120515Y-4774D01*
X120564Y-4757D01*
X120650Y-4720D01*
X120728Y-4671D01*
X120790Y-4626D01*
X120814Y-4606D01*
X120835Y-4585D01*
X120851Y-4573D01*
X120863Y-4561D01*
X120868Y-4552D01*
X120872Y-4548D01*
X120909Y-4499D01*
X120941Y-4442D01*
X120970Y-4380D01*
X120995Y-4319D01*
X121032Y-4187D01*
X121056Y-4060D01*
X121069Y-4003D01*
X121073Y-3946D01*
X121077Y-3896D01*
X121081Y-3851D01*
X121085Y-3814D01*
Y-3790D01*
Y-3769D01*
Y-3765D01*
X121081Y-3667D01*
X121077Y-3576D01*
X121064Y-3494D01*
X121048Y-3417D01*
X121032Y-3343D01*
X121015Y-3277D01*
X120995Y-3216D01*
X120970Y-3162D01*
X120950Y-3113D01*
X120929Y-3072D01*
X120913Y-3039D01*
X120896Y-3011D01*
X120880Y-2986D01*
X120868Y-2970D01*
X120863Y-2961D01*
X120859Y-2957D01*
X120814Y-2908D01*
X120769Y-2867D01*
X120724Y-2826D01*
X120679Y-2798D01*
X120634Y-2769D01*
X120593Y-2748D01*
X120511Y-2711D01*
X120441Y-2695D01*
X120408Y-2687D01*
X120384Y-2683D01*
X120363Y-2679D01*
D02*
G37*
G36*
X124042Y-80455D02*
X124010D01*
X123948Y-80459D01*
X123887Y-80467D01*
X123829Y-80480D01*
X123776Y-80496D01*
X123677Y-80537D01*
X123591Y-80586D01*
X123558Y-80611D01*
X123526Y-80635D01*
X123501Y-80656D01*
X123477Y-80676D01*
X123460Y-80693D01*
X123448Y-80705D01*
X123440Y-80713D01*
X123435Y-80717D01*
X123395Y-80771D01*
X123358Y-80824D01*
X123329Y-80885D01*
X123300Y-80947D01*
X123276Y-81013D01*
X123259Y-81078D01*
X123231Y-81201D01*
X123222Y-81259D01*
X123214Y-81312D01*
X123210Y-81361D01*
X123206Y-81406D01*
X123202Y-81439D01*
Y-81468D01*
Y-81484D01*
Y-81488D01*
X123206Y-81587D01*
X123210Y-81677D01*
X123222Y-81763D01*
X123239Y-81841D01*
X123255Y-81915D01*
X123276Y-81980D01*
X123296Y-82042D01*
X123317Y-82091D01*
X123341Y-82140D01*
X123362Y-82181D01*
X123382Y-82214D01*
X123399Y-82243D01*
X123415Y-82263D01*
X123427Y-82279D01*
X123431Y-82288D01*
X123435Y-82292D01*
X123481Y-82337D01*
X123526Y-82378D01*
X123575Y-82415D01*
X123620Y-82443D01*
X123669Y-82468D01*
X123718Y-82489D01*
X123809Y-82521D01*
X123887Y-82542D01*
X123923Y-82546D01*
X123952Y-82550D01*
X123977Y-82554D01*
X124010D01*
X124075Y-82550D01*
X124133Y-82542D01*
X124194Y-82530D01*
X124247Y-82513D01*
X124346Y-82472D01*
X124428Y-82423D01*
X124465Y-82402D01*
X124497Y-82378D01*
X124522Y-82357D01*
X124547Y-82337D01*
X124563Y-82320D01*
X124575Y-82308D01*
X124583Y-82300D01*
X124588Y-82296D01*
X124629Y-82243D01*
X124661Y-82185D01*
X124694Y-82124D01*
X124719Y-82062D01*
X124760Y-81931D01*
X124788Y-81800D01*
X124797Y-81742D01*
X124805Y-81685D01*
X124809Y-81636D01*
X124813Y-81591D01*
X124817Y-81554D01*
Y-81529D01*
Y-81509D01*
Y-81505D01*
X124813Y-81410D01*
X124809Y-81320D01*
X124797Y-81238D01*
X124780Y-81160D01*
X124764Y-81090D01*
X124743Y-81025D01*
X124723Y-80967D01*
X124702Y-80914D01*
X124682Y-80869D01*
X124661Y-80828D01*
X124641Y-80795D01*
X124625Y-80767D01*
X124608Y-80746D01*
X124596Y-80730D01*
X124592Y-80721D01*
X124588Y-80717D01*
X124542Y-80672D01*
X124497Y-80631D01*
X124448Y-80594D01*
X124399Y-80566D01*
X124350Y-80541D01*
X124305Y-80521D01*
X124210Y-80488D01*
X124133Y-80467D01*
X124096Y-80463D01*
X124067Y-80459D01*
X124042Y-80455D01*
D02*
G37*
G36*
X121180D02*
X121152D01*
X121094Y-80459D01*
X121037Y-80467D01*
X120984Y-80480D01*
X120934Y-80496D01*
X120840Y-80541D01*
X120762Y-80586D01*
X120701Y-80635D01*
X120676Y-80660D01*
X120652Y-80681D01*
X120635Y-80697D01*
X120623Y-80709D01*
X120619Y-80717D01*
X120615Y-80721D01*
X120574Y-80775D01*
X120541Y-80832D01*
X120512Y-80894D01*
X120488Y-80959D01*
X120447Y-81099D01*
X120422Y-81230D01*
X120410Y-81296D01*
X120406Y-81353D01*
X120402Y-81406D01*
X120397Y-81455D01*
X120393Y-81492D01*
Y-81521D01*
Y-81537D01*
Y-81546D01*
X120397Y-81640D01*
X120402Y-81726D01*
X120414Y-81808D01*
X120426Y-81882D01*
X120442Y-81947D01*
X120463Y-82013D01*
X120484Y-82070D01*
X120500Y-82120D01*
X120520Y-82165D01*
X120541Y-82202D01*
X120561Y-82234D01*
X120578Y-82259D01*
X120590Y-82284D01*
X120602Y-82296D01*
X120607Y-82304D01*
X120611Y-82308D01*
X120652Y-82353D01*
X120693Y-82390D01*
X120738Y-82423D01*
X120783Y-82452D01*
X120824Y-82472D01*
X120869Y-82493D01*
X120951Y-82521D01*
X121021Y-82542D01*
X121053Y-82546D01*
X121078Y-82550D01*
X121103Y-82554D01*
X121131D01*
X121189Y-82550D01*
X121242Y-82542D01*
X121291Y-82530D01*
X121340Y-82513D01*
X121431Y-82472D01*
X121509Y-82423D01*
X121570Y-82378D01*
X121595Y-82357D01*
X121615Y-82337D01*
X121632Y-82320D01*
X121648Y-82308D01*
X121652Y-82300D01*
X121656Y-82296D01*
X121693Y-82243D01*
X121730Y-82185D01*
X121759Y-82124D01*
X121783Y-82062D01*
X121824Y-81931D01*
X121849Y-81804D01*
X121857Y-81742D01*
X121865Y-81689D01*
X121869Y-81640D01*
X121873Y-81595D01*
X121878Y-81558D01*
Y-81533D01*
Y-81513D01*
Y-81509D01*
X121873Y-81410D01*
X121869Y-81316D01*
X121857Y-81234D01*
X121845Y-81152D01*
X121828Y-81082D01*
X121812Y-81017D01*
X121795Y-80955D01*
X121775Y-80906D01*
X121755Y-80857D01*
X121738Y-80820D01*
X121722Y-80783D01*
X121705Y-80758D01*
X121693Y-80738D01*
X121681Y-80721D01*
X121677Y-80713D01*
X121672Y-80709D01*
X121632Y-80664D01*
X121590Y-80627D01*
X121545Y-80590D01*
X121504Y-80562D01*
X121459Y-80537D01*
X121414Y-80516D01*
X121332Y-80488D01*
X121263Y-80467D01*
X121230Y-80463D01*
X121205Y-80459D01*
X121180Y-80455D01*
D02*
G37*
G36*
X117490Y-81496D02*
X117486D01*
X117490Y-81669D01*
X117495Y-81775D01*
X117503Y-81870D01*
X117515Y-81951D01*
X117527Y-82017D01*
X117540Y-82066D01*
X117552Y-82103D01*
X117560Y-82124D01*
X117564Y-82132D01*
X117605Y-82206D01*
X117655Y-82267D01*
X117704Y-82325D01*
X117753Y-82370D01*
X117802Y-82407D01*
X117839Y-82435D01*
X117864Y-82452D01*
X117868Y-82456D01*
X117872D01*
X117954Y-82493D01*
X118036Y-82521D01*
X118114Y-82542D01*
X118192Y-82554D01*
X118253Y-82562D01*
X118282Y-82566D01*
X118306Y-82571D01*
X118351D01*
X118446Y-82566D01*
X118528Y-82550D01*
X118602Y-82530D01*
X118659Y-82509D01*
X118704Y-82485D01*
X118737Y-82468D01*
X118753Y-82452D01*
X118762Y-82448D01*
X118807Y-82398D01*
X118843Y-82349D01*
X118868Y-82296D01*
X118885Y-82247D01*
X118893Y-82206D01*
X118897Y-82169D01*
X118901Y-82148D01*
Y-82140D01*
X118897Y-82095D01*
X118893Y-82054D01*
X118880Y-82017D01*
X118868Y-81984D01*
X118860Y-81956D01*
X118848Y-81935D01*
X118843Y-81923D01*
X118839Y-81919D01*
X118811Y-81882D01*
X118782Y-81853D01*
X118753Y-81828D01*
X118720Y-81804D01*
X118696Y-81788D01*
X118675Y-81775D01*
X118659Y-81771D01*
X118655Y-81767D01*
X118602Y-81747D01*
X118540Y-81730D01*
X118474Y-81714D01*
X118409Y-81701D01*
X118347Y-81689D01*
X118294Y-81681D01*
X118278Y-81677D01*
X118261Y-81673D01*
X118249D01*
X118155Y-81660D01*
X118069Y-81644D01*
X117991Y-81632D01*
X117917Y-81615D01*
X117847Y-81599D01*
X117786Y-81587D01*
X117728Y-81570D01*
X117675Y-81558D01*
X117634Y-81546D01*
X117593Y-81533D01*
X117560Y-81525D01*
X117536Y-81513D01*
X117515Y-81505D01*
X117499Y-81501D01*
X117490Y-81496D01*
D02*
G37*
%LPD*%
D60*
X52369Y-42897D02*
X52432Y-42959D01*
X52557Y-43084D02*
X52619Y-43147D01*
X52244Y-42772D02*
X52369Y-42897D01*
X52619Y-43147D02*
X52744Y-43272D01*
X66744D02*
Y-35272D01*
X52744Y-43272D02*
X66744D01*
X52432Y-42959D02*
X52557Y-43084D01*
X52244Y-42772D02*
Y-35272D01*
X66744D01*
X9646Y-45079D02*
X15157D01*
X9646Y-39961D02*
X15157D01*
X9646Y-45079D02*
Y-39961D01*
X64272Y-49114D02*
Y-45178D01*
X62304D01*
X61648Y-45834D01*
Y-47146D01*
X62304Y-47802D01*
X64272D01*
X62960D02*
X61648Y-49114D01*
X60336D02*
X59024D01*
X59680D01*
Y-45178D01*
X60336Y-45834D01*
X57056Y-48458D02*
X56400Y-49114D01*
X55088D01*
X54432Y-48458D01*
Y-45834D01*
X55088Y-45178D01*
X56400D01*
X57056Y-45834D01*
Y-46490D01*
X56400Y-47146D01*
X54432D01*
D64*
X20703Y-50755D02*
X21162Y-50296D01*
X22080D01*
X22539Y-50755D01*
Y-52592D01*
X22080Y-53051D01*
X21162D01*
X20703Y-52592D01*
X17948Y-53051D02*
X19784D01*
X17948Y-51214D01*
Y-50755D01*
X18407Y-50296D01*
X19325D01*
X19784Y-50755D01*
X17029Y-53051D02*
X16111D01*
X16570D01*
Y-50296D01*
X17029Y-50755D01*
X81759Y-34219D02*
X81300Y-33759D01*
Y-32841D01*
X81759Y-32382D01*
X83596D01*
X84055Y-32841D01*
Y-33759D01*
X83596Y-34219D01*
X84055Y-36974D02*
Y-35137D01*
X82218Y-36974D01*
X81759D01*
X81300Y-36514D01*
Y-35596D01*
X81759Y-35137D01*
Y-37892D02*
X81300Y-38351D01*
Y-39269D01*
X81759Y-39729D01*
X83596D01*
X84055Y-39269D01*
Y-38351D01*
X83596Y-37892D01*
X81759D01*
X54137Y-51080D02*
X51381D01*
Y-52458D01*
X51841Y-52917D01*
X52759D01*
X53218Y-52458D01*
Y-51080D01*
Y-51998D02*
X54137Y-52917D01*
Y-55672D02*
Y-53835D01*
X52300Y-55672D01*
X51841D01*
X51381Y-55213D01*
Y-54294D01*
X51841Y-53835D01*
X54137Y-56590D02*
Y-57508D01*
Y-57049D01*
X51381D01*
X51841Y-56590D01*
X17618Y-34843D02*
Y-37598D01*
X15781D01*
X13026Y-34843D02*
X14863D01*
Y-37598D01*
X13026D01*
X14863Y-36221D02*
X13945D01*
X12108Y-34843D02*
Y-37598D01*
X10731D01*
X10271Y-37139D01*
Y-35303D01*
X10731Y-34843D01*
X12108D01*
X9353Y-37598D02*
X8435D01*
X8894D01*
Y-34843D01*
X9353Y-35303D01*
X33957Y-58661D02*
X31202D01*
Y-60039D01*
X31661Y-60498D01*
X32579D01*
X33038Y-60039D01*
Y-58661D01*
Y-59580D02*
X33957Y-60498D01*
X31661Y-61416D02*
X31202Y-61876D01*
Y-62794D01*
X31661Y-63253D01*
X32120D01*
X32579Y-62794D01*
Y-62335D01*
Y-62794D01*
X33038Y-63253D01*
X33498D01*
X33957Y-62794D01*
Y-61876D01*
X33498Y-61416D01*
D105*
X10728Y-42520D02*
D03*
M02*
