G04 Layer_Physical_Order=1*
G04 Layer_Color=255*
%FSLAX25Y25*%
%MOIN*%
G70*
G01*
G75*
%ADD10R,0.18110X0.16929*%
%ADD11R,0.06299X0.07874*%
%ADD12R,0.07480X0.10236*%
%ADD13R,0.02953X0.07087*%
%ADD14R,0.02362X0.01969*%
%ADD15R,0.01969X0.02362*%
%ADD16R,0.04724X0.02362*%
%ADD17R,0.07480X0.09350*%
%ADD18R,0.07480X0.04626*%
%ADD19R,0.07874X0.05807*%
%ADD20R,0.08268X0.05807*%
%ADD21R,0.05433X0.01772*%
%ADD22R,0.03543X0.03543*%
%ADD23R,0.08071X0.08071*%
%ADD24O,0.00787X0.03543*%
%ADD25O,0.03543X0.00787*%
%ADD26R,0.02165X0.03937*%
%ADD27R,0.00984X0.04331*%
%ADD28R,0.04500X0.04500*%
%ADD29R,0.03937X0.14961*%
%ADD30R,0.06693X0.04331*%
%ADD31R,0.03150X0.03543*%
%ADD32R,0.03543X0.03150*%
%ADD33R,0.04331X0.01575*%
%ADD34R,0.05118X0.02362*%
%ADD35R,0.05118X0.02756*%
%ADD36R,0.02756X0.03543*%
%ADD37R,0.02362X0.04528*%
%ADD38R,0.02559X0.04331*%
%ADD39R,0.22441X0.22441*%
%ADD40O,0.03543X0.00984*%
%ADD41O,0.00984X0.03543*%
%ADD42R,0.04331X0.06693*%
%ADD43C,0.01181*%
%ADD44C,0.01575*%
%ADD45C,0.00984*%
%ADD46C,0.01969*%
%ADD47R,0.07480X0.06890*%
%ADD48R,0.13780X0.06496*%
G04:AMPARAMS|DCode=49|XSize=59.06mil|YSize=59.06mil|CornerRadius=0mil|HoleSize=0mil|Usage=FLASHONLY|Rotation=90.000|XOffset=0mil|YOffset=0mil|HoleType=Round|Shape=Octagon|*
%AMOCTAGOND49*
4,1,8,0.01476,0.02953,-0.01476,0.02953,-0.02953,0.01476,-0.02953,-0.01476,-0.01476,-0.02953,0.01476,-0.02953,0.02953,-0.01476,0.02953,0.01476,0.01476,0.02953,0.0*
%
%ADD49OCTAGOND49*%

%ADD50R,0.15748X0.07874*%
%ADD51C,0.03937*%
%ADD52R,0.09055X0.07087*%
%ADD53C,0.04724*%
%ADD54C,0.06693*%
%ADD55C,0.01969*%
%ADD56C,0.02756*%
G36*
X8309Y-49483D02*
X9055Y-49631D01*
Y-53150D01*
X8733Y-53516D01*
X7480D01*
Y-52953D01*
X1279D01*
X926Y-52599D01*
X936Y-49409D01*
X7480D01*
X7480Y-49409D01*
Y-49409D01*
X7980Y-49263D01*
X8309Y-49483D01*
D02*
G37*
G36*
X113118Y-4543D02*
X114799D01*
Y-4543D01*
X114941Y-4331D01*
X118792D01*
X119291Y-4830D01*
Y-7579D01*
X123228D01*
Y-5832D01*
X128298D01*
X131176Y-8710D01*
Y-11949D01*
X130919Y-12120D01*
X130441Y-12836D01*
X130272Y-13681D01*
X130441Y-14526D01*
X130919Y-15242D01*
X131635Y-15721D01*
X132480Y-15889D01*
X133235Y-15739D01*
X133735Y-16003D01*
Y-18456D01*
X123082Y-29109D01*
X115707D01*
X115444Y-28609D01*
X115594Y-27854D01*
X115426Y-27009D01*
X114947Y-26293D01*
X114231Y-25815D01*
X113386Y-25647D01*
X112970Y-25729D01*
X112794Y-25554D01*
X112560Y-25398D01*
X112712Y-24898D01*
X114681D01*
Y-23216D01*
X112697D01*
Y-22217D01*
X114681D01*
Y-21901D01*
X115143Y-21710D01*
X115357Y-21924D01*
X115643Y-22352D01*
X116099Y-22656D01*
X116637Y-22763D01*
X123652D01*
X124189Y-22656D01*
X124645Y-22352D01*
X126032Y-20965D01*
X127461D01*
Y-15846D01*
X126969D01*
Y-10335D01*
X123031D01*
Y-15846D01*
X122736D01*
Y-19953D01*
X121949D01*
Y-15846D01*
X120891D01*
Y-15453D01*
X120792Y-14954D01*
X120509Y-14530D01*
X119488Y-13509D01*
Y-10335D01*
X115551D01*
Y-12869D01*
X110101D01*
X109910Y-12408D01*
X110155Y-12163D01*
X110390Y-11811D01*
X111201D01*
Y-8268D01*
X110315D01*
Y-4993D01*
X110437Y-4543D01*
X112118D01*
Y-2559D01*
X113118D01*
Y-4543D01*
D02*
G37*
G36*
X149409Y-5315D02*
X152542D01*
X152729Y-5752D01*
X152440Y-6102D01*
X149409D01*
Y-10827D01*
X149686D01*
X149705Y-11319D01*
X149705D01*
Y-15920D01*
X147489D01*
X145061Y-13492D01*
X145121Y-13189D01*
X144953Y-12344D01*
X144474Y-11628D01*
X144218Y-11456D01*
Y-6594D01*
X144193Y-6469D01*
Y-4257D01*
X149409D01*
Y-5315D01*
D02*
G37*
G36*
X45365Y-13850D02*
X45374Y-14075D01*
X45374Y-14075D01*
Y-22343D01*
X47115D01*
Y-22933D01*
X45374D01*
Y-34154D01*
X39862D01*
Y-22933D01*
X40157Y-22555D01*
X40862D01*
Y-18709D01*
X37697D01*
Y-17709D01*
X40862D01*
Y-13862D01*
X41246Y-13583D01*
X45125D01*
X45365Y-13850D01*
D02*
G37*
G36*
X12244Y-15748D02*
Y-18307D01*
Y-22425D01*
X12032D01*
Y-23811D01*
X15748D01*
X19465D01*
Y-22425D01*
X19252D01*
Y-20497D01*
X20271D01*
X20479Y-20706D01*
X20903Y-20989D01*
X21402Y-21088D01*
X25398D01*
Y-22335D01*
X27579D01*
Y-22835D01*
X28079D01*
Y-24819D01*
X29760D01*
Y-24819D01*
X29902Y-24606D01*
X30487D01*
Y-25787D01*
X29724D01*
Y-30607D01*
X29338Y-30925D01*
X29037Y-30865D01*
X28192Y-31033D01*
X27476Y-31511D01*
X26997Y-32228D01*
X26829Y-33073D01*
X26997Y-33917D01*
X27402Y-34524D01*
X27228Y-35024D01*
X25772D01*
Y-35236D01*
X24545D01*
X24354Y-34774D01*
X25234Y-33895D01*
X25516Y-33472D01*
X25616Y-32972D01*
Y-31693D01*
X26378D01*
Y-25787D01*
X22244D01*
Y-31693D01*
X23006D01*
Y-32432D01*
X20498Y-34941D01*
X17618D01*
Y-39048D01*
X16256D01*
Y-38000D01*
X13878D01*
X11500D01*
Y-39332D01*
X11443Y-39370D01*
X8465D01*
Y-44488D01*
X13189D01*
Y-41858D01*
X15747D01*
X16224Y-41913D01*
X16224Y-42358D01*
Y-44579D01*
X24917D01*
Y-41913D01*
X23367D01*
X23170Y-41443D01*
X23452Y-41142D01*
X25772D01*
Y-41354D01*
X27551D01*
Y-38189D01*
X28551D01*
Y-41354D01*
X30331D01*
Y-41142D01*
X31049D01*
X31210Y-41452D01*
X30913Y-41913D01*
X30323D01*
Y-45079D01*
Y-48244D01*
X33836D01*
X34103Y-48744D01*
X34022Y-48866D01*
X33914Y-49409D01*
X34022Y-49953D01*
X34330Y-50414D01*
X34752Y-50696D01*
X34749Y-54107D01*
X33957D01*
Y-52756D01*
X25689D01*
Y-54103D01*
X24705D01*
Y-52756D01*
X16437D01*
X16437Y-52756D01*
Y-52756D01*
X16029Y-52538D01*
X15748Y-52257D01*
Y-49213D01*
X11177D01*
X10910Y-48713D01*
X11194Y-48288D01*
X11362Y-47443D01*
X11194Y-46598D01*
X10715Y-45882D01*
X9999Y-45404D01*
X9154Y-45235D01*
X8309Y-45404D01*
X7980Y-45623D01*
X7480Y-45472D01*
Y-45472D01*
X7480Y-45472D01*
X1302D01*
X949Y-45118D01*
X975Y-36482D01*
X2704D01*
X3033Y-36982D01*
X2910Y-37598D01*
X3078Y-38443D01*
X3364Y-38870D01*
X3096Y-39370D01*
X2953D01*
Y-44488D01*
X7677D01*
Y-39370D01*
X6921D01*
Y-38798D01*
X7158Y-38443D01*
X7326Y-37598D01*
X7203Y-36982D01*
X7532Y-36482D01*
X10055D01*
Y-32939D01*
X13870D01*
Y-29035D01*
X14370D01*
Y-28535D01*
X19504D01*
Y-25132D01*
X19465D01*
Y-24811D01*
X15748D01*
X12032D01*
Y-25132D01*
X10055D01*
Y-23039D01*
X5315D01*
Y-22039D01*
X10055D01*
Y-19226D01*
X10055D01*
Y-19160D01*
X10055D01*
Y-16346D01*
X5315D01*
Y-15347D01*
X10055D01*
Y-13254D01*
X12244D01*
Y-15748D01*
D02*
G37*
G36*
X117175Y-42655D02*
X117598Y-42938D01*
X118097Y-43037D01*
X135877D01*
X141510Y-48670D01*
Y-52204D01*
X141010Y-52471D01*
X140263Y-52323D01*
X139418Y-52491D01*
X138702Y-52969D01*
X138223Y-53685D01*
X138055Y-54530D01*
X138223Y-55375D01*
X138441Y-55701D01*
X138173Y-56201D01*
X137795D01*
Y-61319D01*
X141510D01*
Y-78200D01*
X141364Y-78347D01*
X138287D01*
Y-83071D01*
X142864D01*
X143174Y-83571D01*
X143137Y-83646D01*
X141347D01*
Y-86221D01*
Y-88795D01*
X143618D01*
Y-87713D01*
X145071D01*
Y-85728D01*
X145571D01*
Y-85228D01*
X147752D01*
Y-83744D01*
X147539Y-83332D01*
X147539Y-80020D01*
X145644D01*
X145411Y-79786D01*
X144987Y-79503D01*
X144624Y-79431D01*
X144360Y-78989D01*
X144349Y-78953D01*
X144513Y-78642D01*
X147944D01*
X147979Y-78694D01*
X149083Y-79799D01*
Y-81988D01*
X148721D01*
Y-85532D01*
X152657D01*
Y-81988D01*
X152295D01*
Y-79134D01*
X152295Y-79134D01*
X152172Y-78519D01*
X151824Y-77999D01*
X151824Y-77999D01*
X151719Y-77893D01*
X151926Y-77393D01*
X153642D01*
Y-81890D01*
X161516D01*
Y-73456D01*
X163016D01*
X165059Y-75499D01*
Y-81890D01*
X170484D01*
X170559Y-82390D01*
X169735Y-83022D01*
X169038Y-83930D01*
X168600Y-84987D01*
X168517Y-85622D01*
X172835D01*
Y-86622D01*
X168517D01*
X168600Y-87257D01*
X169038Y-88314D01*
X169540Y-88968D01*
X169294Y-89468D01*
X135630D01*
Y-84153D01*
X131362D01*
X131045Y-83767D01*
X131046Y-83760D01*
X130878Y-82915D01*
X130400Y-82199D01*
X129683Y-81720D01*
X128839Y-81552D01*
X127994Y-81720D01*
X127277Y-82199D01*
X126799Y-82915D01*
X126631Y-83760D01*
X126799Y-84605D01*
X127277Y-85321D01*
X127362Y-85378D01*
Y-86387D01*
X124228D01*
Y-85539D01*
X122244D01*
Y-84539D01*
X124228D01*
Y-82858D01*
X124228Y-82858D01*
X124228D01*
X124549Y-82513D01*
X127420Y-79642D01*
X130996D01*
Y-76476D01*
X131496D01*
Y-75976D01*
X135843D01*
Y-73343D01*
X137614D01*
Y-71071D01*
X135039D01*
Y-70071D01*
X137614D01*
Y-67799D01*
X135585D01*
X135153Y-67634D01*
X135153Y-67299D01*
Y-65559D01*
X132382D01*
X129610D01*
Y-67512D01*
X129610Y-67634D01*
X129316Y-68012D01*
X128562D01*
X128543Y-67520D01*
X128543D01*
Y-62795D01*
X123425D01*
Y-65370D01*
X123335Y-65431D01*
X122835Y-65163D01*
Y-60440D01*
X123335Y-60123D01*
X123425Y-60166D01*
Y-62008D01*
X128543D01*
Y-60852D01*
X129823D01*
Y-61909D01*
X134941D01*
Y-57185D01*
X129823D01*
Y-58243D01*
X128543D01*
Y-57284D01*
X125397D01*
X125268Y-56635D01*
X124790Y-55919D01*
X124073Y-55441D01*
X123228Y-55273D01*
X122383Y-55441D01*
X121667Y-55919D01*
X121189Y-56635D01*
X121021Y-57480D01*
X121189Y-58325D01*
X121667Y-59041D01*
X121676Y-59047D01*
X121524Y-59547D01*
X119405D01*
Y-57882D01*
X115059D01*
Y-57382D01*
X114559D01*
Y-54079D01*
X114487Y-53716D01*
X114679Y-53637D01*
X115337Y-53132D01*
X115842Y-52474D01*
X116159Y-51708D01*
X116267Y-50886D01*
X116159Y-50064D01*
X115842Y-49297D01*
X115451Y-48788D01*
X115363Y-48562D01*
X115507Y-48140D01*
X115927Y-47817D01*
X116432Y-47159D01*
X116750Y-46393D01*
X116858Y-45571D01*
X116750Y-44749D01*
X116432Y-43982D01*
X115927Y-43325D01*
X115269Y-42820D01*
X114503Y-42502D01*
X113681Y-42394D01*
X112859Y-42502D01*
X112575Y-42620D01*
X111978Y-42022D01*
X112169Y-41561D01*
X116081D01*
X117175Y-42655D01*
D02*
G37*
G36*
X45374Y-38287D02*
D01*
Y-39469D01*
X45374Y-39469D01*
X45374D01*
X45207Y-39908D01*
X42907Y-42209D01*
X39891D01*
X39869Y-42102D01*
X39521Y-41581D01*
X38210Y-40270D01*
X38091Y-40151D01*
D01*
X38023Y-40083D01*
Y-39469D01*
X39862D01*
Y-38287D01*
Y-37598D01*
X45374D01*
Y-38287D01*
D02*
G37*
G36*
X89882Y-8243D02*
X87008D01*
Y-7239D01*
X87221Y-6827D01*
X87221Y-6557D01*
Y-5146D01*
X83252D01*
Y-6827D01*
X83465Y-7239D01*
Y-8243D01*
X81693D01*
Y-1870D01*
X72638D01*
Y-13588D01*
X71954Y-14272D01*
X70329D01*
X69917Y-14059D01*
X69917Y-14059D01*
X69917Y-14059D01*
X68236D01*
Y-16043D01*
X67236D01*
Y-14059D01*
X66317D01*
X64961Y-12702D01*
Y-1870D01*
X55905D01*
Y-13681D01*
X62249D01*
X64168Y-15599D01*
Y-17476D01*
X64267Y-17975D01*
X64550Y-18398D01*
X65184Y-19033D01*
X65607Y-19316D01*
X66107Y-19415D01*
X69961D01*
X70460Y-19316D01*
X70883Y-19033D01*
X72101Y-17815D01*
X73996D01*
Y-15920D01*
X74241Y-15675D01*
X75840D01*
X76077Y-16175D01*
X75858Y-16702D01*
X75764Y-17421D01*
X75858Y-18141D01*
X76117Y-18766D01*
X75986Y-19133D01*
X75920Y-19266D01*
X75232D01*
X74733Y-19366D01*
X74309Y-19648D01*
X73707Y-20251D01*
X55049D01*
X54981Y-20206D01*
X54137Y-20037D01*
X53292Y-20206D01*
X52575Y-20684D01*
X52097Y-21400D01*
X51929Y-22245D01*
X52097Y-23090D01*
X52575Y-23806D01*
X53292Y-24285D01*
X54137Y-24453D01*
X54825Y-24316D01*
X55386Y-24570D01*
X55443Y-24862D01*
X55922Y-25578D01*
X56638Y-26057D01*
X57483Y-26225D01*
X58328Y-26057D01*
X58553Y-25906D01*
X59015Y-26098D01*
X59082Y-26435D01*
X59561Y-27152D01*
X60034Y-27468D01*
X59947Y-27937D01*
X59760Y-27937D01*
X59760Y-27937D01*
X59760Y-27937D01*
X58276D01*
Y-30118D01*
X57276D01*
Y-27937D01*
X55791D01*
Y-30250D01*
X55291Y-30584D01*
X55050Y-30484D01*
X54331Y-30390D01*
X53611Y-30484D01*
X52941Y-30762D01*
X52365Y-31204D01*
X51923Y-31780D01*
X51646Y-32450D01*
X51551Y-33169D01*
X51646Y-33889D01*
X51923Y-34559D01*
X52365Y-35135D01*
X52941Y-35577D01*
X53611Y-35854D01*
X53971Y-35902D01*
X53938Y-36402D01*
X52937D01*
Y-38476D01*
X55709D01*
Y-38976D01*
X56209D01*
Y-41551D01*
X58480D01*
Y-41551D01*
X58661Y-41339D01*
X63779D01*
Y-36614D01*
X62483D01*
X62214Y-36211D01*
X61516Y-35513D01*
Y-34413D01*
X62016Y-34333D01*
X62414Y-34732D01*
X62837Y-35014D01*
X63337Y-35114D01*
X67126D01*
Y-37205D01*
X70669D01*
Y-33268D01*
X69561D01*
X69180Y-32887D01*
X68757Y-32604D01*
X68258Y-32504D01*
X68206D01*
X67997Y-32004D01*
X68236Y-31428D01*
X68331Y-30709D01*
X68236Y-29989D01*
X67958Y-29319D01*
X67842Y-29167D01*
X68088Y-28667D01*
X76428D01*
X77129Y-29367D01*
X77552Y-29650D01*
X77701Y-29680D01*
X78053Y-29874D01*
X78059Y-30250D01*
X78026Y-30413D01*
X78125Y-30913D01*
X78408Y-31336D01*
Y-31459D01*
X78125Y-31883D01*
X78026Y-32382D01*
X78125Y-32881D01*
X78408Y-33304D01*
Y-33428D01*
X78125Y-33851D01*
X78026Y-34350D01*
X78125Y-34850D01*
X78408Y-35273D01*
Y-35396D01*
X78125Y-35820D01*
X78026Y-36319D01*
X78125Y-36818D01*
X78408Y-37241D01*
Y-37365D01*
X78125Y-37788D01*
X78026Y-38287D01*
X78125Y-38787D01*
X78285Y-39026D01*
X78255Y-39180D01*
X77937Y-39656D01*
X77880Y-39725D01*
X77404Y-39830D01*
X76165Y-38592D01*
Y-37270D01*
X76378Y-36858D01*
X76378Y-36588D01*
Y-35177D01*
X72409D01*
Y-36858D01*
X72622Y-37270D01*
Y-37820D01*
X72268Y-38173D01*
X71366D01*
Y-40354D01*
X70366D01*
Y-38173D01*
X68882D01*
Y-38173D01*
X68701Y-38386D01*
X65158D01*
Y-42323D01*
X66244D01*
X66400Y-42556D01*
X69095Y-45250D01*
Y-47293D01*
X69095D01*
Y-49159D01*
X69010Y-49255D01*
X68594Y-49504D01*
X67917Y-49369D01*
X67072Y-49538D01*
X66356Y-50016D01*
X65877Y-50732D01*
X65709Y-51577D01*
X65877Y-52422D01*
X66356Y-53139D01*
X67072Y-53617D01*
X67917Y-53785D01*
X68382Y-53693D01*
X68432Y-53732D01*
X71457D01*
Y-54232D01*
X71957D01*
Y-57004D01*
X73006D01*
Y-57874D01*
X68799D01*
Y-59342D01*
X68799Y-59842D01*
X62894D01*
Y-62992D01*
X68799D01*
X68799Y-63492D01*
Y-64961D01*
X74705D01*
X74902Y-65379D01*
Y-65945D01*
X24767D01*
X24576Y-65483D01*
X25394Y-64665D01*
Y-60925D01*
X25152Y-60684D01*
X25295Y-60120D01*
X25873Y-59733D01*
X26352Y-59017D01*
X26423Y-58661D01*
X33957D01*
Y-57070D01*
X34360Y-56998D01*
X34747Y-57343D01*
X34744Y-60039D01*
X34547Y-62205D01*
X39494Y-62175D01*
X39862Y-62248D01*
X40254Y-62170D01*
X41404Y-62163D01*
X41831Y-62248D01*
X42284Y-62157D01*
X43314Y-62151D01*
X43799Y-62248D01*
X44315Y-62145D01*
X45224Y-62140D01*
X45768Y-62248D01*
X46312Y-62140D01*
X46340Y-62120D01*
X53839Y-61992D01*
Y-58268D01*
X58366D01*
X58563Y-58465D01*
Y-58465D01*
X63681D01*
Y-53740D01*
X58563D01*
X58366Y-53543D01*
Y-53543D01*
X56384D01*
X56133Y-53082D01*
X56336Y-52756D01*
X58145D01*
X58563Y-52953D01*
Y-52953D01*
X58563Y-52953D01*
X63681D01*
Y-48228D01*
X62527D01*
Y-46850D01*
X63779D01*
Y-42126D01*
X58661D01*
Y-42126D01*
X58268Y-42126D01*
Y-42126D01*
X53150D01*
Y-42537D01*
X52650Y-42744D01*
X52114Y-42209D01*
X52043Y-42122D01*
X52101Y-41831D01*
X51933Y-40986D01*
X51455Y-40270D01*
X50978Y-39951D01*
X50886Y-39469D01*
X50886D01*
X50886Y-39469D01*
Y-22933D01*
X50326D01*
Y-22343D01*
X51279D01*
Y-18098D01*
X51635Y-17847D01*
X51780Y-17801D01*
X52562Y-17957D01*
X53407Y-17788D01*
X54123Y-17310D01*
X54601Y-16594D01*
X54769Y-15749D01*
X54601Y-14904D01*
X54123Y-14188D01*
X53407Y-13709D01*
X52562Y-13541D01*
X52367Y-13580D01*
X51942Y-13155D01*
X52013Y-12796D01*
X51845Y-11951D01*
X51367Y-11235D01*
X50651Y-10756D01*
X50224Y-10671D01*
Y-8086D01*
X50125Y-7587D01*
X49842Y-7164D01*
X46457Y-3778D01*
Y-2165D01*
X40157D01*
Y-6102D01*
Y-9788D01*
X40058Y-9900D01*
X39658Y-10133D01*
X38978Y-9997D01*
X38133Y-10166D01*
X38043Y-10226D01*
X37614Y-9911D01*
Y-8374D01*
X34252D01*
Y-7374D01*
X37614D01*
Y-5693D01*
X37402D01*
Y-2165D01*
X31102D01*
Y-2829D01*
X30603Y-2929D01*
X30180Y-3211D01*
X24139Y-9252D01*
X21063D01*
Y-12967D01*
X19504D01*
Y-9850D01*
X14567D01*
Y-9350D01*
X14067D01*
Y-5447D01*
X10055D01*
Y-1904D01*
X5815D01*
Y-7579D01*
X4815D01*
Y-1904D01*
X1434D01*
X1081Y-1550D01*
X1083Y-1083D01*
X1123Y-984D01*
X89882D01*
Y-8243D01*
D02*
G37*
G36*
X163787Y-9239D02*
X164422Y-9156D01*
X165479Y-8718D01*
X166387Y-8021D01*
X166899Y-7355D01*
X167398Y-7525D01*
X167323Y-28543D01*
X175886D01*
X175973Y-82421D01*
X175473Y-82668D01*
X175027Y-82325D01*
X173969Y-81888D01*
X172933Y-81751D01*
Y-72441D01*
X166542D01*
X164877Y-70776D01*
X164919Y-70528D01*
X165059Y-70276D01*
X172933D01*
Y-51772D01*
X153248D01*
Y-70245D01*
X150370D01*
X148599Y-68474D01*
X148790Y-68012D01*
X151476D01*
Y-62106D01*
X147275D01*
Y-61319D01*
X148031D01*
Y-56201D01*
X144120D01*
Y-48130D01*
X144020Y-47631D01*
X143737Y-47207D01*
X137340Y-40810D01*
X136917Y-40527D01*
X136417Y-40428D01*
X124177D01*
X123986Y-39966D01*
X126722Y-37230D01*
X140159D01*
X140659Y-37130D01*
X141082Y-36848D01*
X143836Y-34094D01*
X144119Y-33670D01*
X144218Y-33171D01*
Y-28642D01*
X144193Y-28516D01*
Y-25689D01*
X140469D01*
Y-25476D01*
X139476D01*
Y-28642D01*
X138476D01*
Y-25476D01*
X137484D01*
Y-25689D01*
X133760D01*
Y-28516D01*
X133735Y-28642D01*
Y-30063D01*
X132720Y-31077D01*
X125456D01*
X125265Y-30615D01*
X135962Y-19918D01*
X136245Y-19495D01*
X136344Y-18996D01*
Y-9547D01*
X137484D01*
Y-9760D01*
X138476D01*
Y-6594D01*
X139476D01*
Y-9760D01*
X140469D01*
Y-9547D01*
X141609D01*
Y-11456D01*
X141352Y-11628D01*
X140874Y-12344D01*
X140706Y-13189D01*
X140874Y-14034D01*
X141352Y-14750D01*
X142069Y-15229D01*
X142913Y-15397D01*
X143216Y-15337D01*
X146026Y-18147D01*
X146450Y-18430D01*
X146949Y-18529D01*
X149705D01*
Y-23130D01*
X153230D01*
X153339Y-23239D01*
Y-23917D01*
X152776D01*
Y-27461D01*
X156567D01*
X157067Y-27461D01*
X157213Y-27461D01*
X161004D01*
Y-23917D01*
X160165D01*
Y-23343D01*
X162000D01*
Y-20965D01*
Y-18587D01*
X160856D01*
X160649Y-18087D01*
X163086Y-15650D01*
X165847D01*
Y-11319D01*
X159153D01*
Y-15608D01*
X157766Y-16996D01*
X157462Y-17451D01*
X157355Y-17989D01*
Y-23476D01*
X156855Y-23917D01*
X156649D01*
X156149Y-23719D01*
Y-23130D01*
X156398D01*
Y-19390D01*
Y-15650D01*
Y-11319D01*
X154547D01*
X154528Y-10827D01*
X154528D01*
Y-7991D01*
X155132Y-7386D01*
X155595Y-7577D01*
Y-9839D01*
X157079D01*
Y-7658D01*
X158079D01*
Y-9839D01*
X159563D01*
Y-7985D01*
X160036Y-7824D01*
X160187Y-8021D01*
X161095Y-8718D01*
X162153Y-9156D01*
X162787Y-9239D01*
Y-4921D01*
X163787D01*
Y-9239D01*
D02*
G37*
G36*
X105787Y-8055D02*
X105441D01*
Y-10039D01*
X104441D01*
Y-8055D01*
X102760D01*
Y-8055D01*
X102252D01*
Y-10039D01*
X101252D01*
Y-8055D01*
X99571D01*
Y-8055D01*
X99429Y-8268D01*
X97731D01*
X94410Y-4946D01*
Y-984D01*
X105787D01*
Y-8055D01*
D02*
G37*
%LPC*%
G36*
X119405Y-54216D02*
X115559D01*
Y-56882D01*
X119405D01*
Y-54216D01*
D02*
G37*
G36*
X29323Y-45579D02*
X25476D01*
Y-48244D01*
X29323D01*
Y-45579D01*
D02*
G37*
G36*
X20071D02*
X16224D01*
Y-48244D01*
X20071D01*
Y-45579D01*
D02*
G37*
G36*
X24917D02*
X21071D01*
Y-48244D01*
X24917D01*
Y-45579D01*
D02*
G37*
G36*
X140347Y-83646D02*
X138075D01*
Y-85720D01*
X140347D01*
Y-83646D01*
D02*
G37*
G36*
X147752Y-86228D02*
X146071D01*
Y-87713D01*
X147752D01*
Y-86228D01*
D02*
G37*
G36*
X140347Y-86721D02*
X138075D01*
Y-88795D01*
X140347D01*
Y-86721D01*
D02*
G37*
G36*
X135843Y-76976D02*
X131996D01*
Y-79642D01*
X135843D01*
Y-76976D01*
D02*
G37*
G36*
X70957Y-54732D02*
X68882D01*
Y-57004D01*
X70957D01*
Y-54732D01*
D02*
G37*
G36*
X135153Y-62484D02*
X132882D01*
Y-64559D01*
X135153D01*
Y-62484D01*
D02*
G37*
G36*
X131882D02*
X129610D01*
Y-64559D01*
X131882D01*
Y-62484D01*
D02*
G37*
G36*
X166059Y-18587D02*
X163000D01*
Y-20464D01*
X166059D01*
Y-18587D01*
D02*
G37*
G36*
Y-21464D02*
X163000D01*
Y-23343D01*
X166059D01*
Y-21464D01*
D02*
G37*
G36*
X27079Y-23335D02*
X25398D01*
Y-24819D01*
X27079D01*
Y-23335D01*
D02*
G37*
G36*
X87221Y-2465D02*
X85736D01*
Y-4146D01*
X87221D01*
Y-2465D01*
D02*
G37*
G36*
X84736D02*
X83252D01*
Y-4146D01*
X84736D01*
Y-2465D01*
D02*
G37*
G36*
X19504Y-5447D02*
X15067D01*
Y-8850D01*
X19504D01*
Y-5447D01*
D02*
G37*
G36*
Y-29535D02*
X14870D01*
Y-32939D01*
X19504D01*
Y-29535D01*
D02*
G37*
G36*
X13378Y-34728D02*
X11500D01*
Y-37000D01*
X13378D01*
Y-34728D01*
D02*
G37*
G36*
X55209Y-39476D02*
X52937D01*
Y-41551D01*
X55209D01*
Y-39476D01*
D02*
G37*
G36*
X29323Y-41913D02*
X25476D01*
Y-44579D01*
X29323D01*
Y-41913D01*
D02*
G37*
G36*
X76378Y-32496D02*
X74894D01*
Y-34177D01*
X76378D01*
Y-32496D01*
D02*
G37*
G36*
X73894D02*
X72409D01*
Y-34177D01*
X73894D01*
Y-32496D01*
D02*
G37*
G36*
X16256Y-34728D02*
X14378D01*
Y-37000D01*
X16256D01*
Y-34728D01*
D02*
G37*
%LPD*%
D10*
X163091Y-61024D02*
D03*
D11*
X168996Y-77165D02*
D03*
X157579D02*
D03*
D12*
X77165Y-7776D02*
D03*
X60433D02*
D03*
D13*
X92146Y-4528D02*
D03*
X108051D02*
D03*
D14*
X112618Y-2559D02*
D03*
X116909D02*
D03*
X101752Y-10039D02*
D03*
X97461D02*
D03*
X109232Y-10039D02*
D03*
X104941D02*
D03*
X103957Y-48819D02*
D03*
X108248D02*
D03*
X134468Y-2264D02*
D03*
X138760D02*
D03*
X72027Y-16043D02*
D03*
X67736D02*
D03*
X31870Y-22835D02*
D03*
X27579D02*
D03*
X159035Y-25689D02*
D03*
X154744D02*
D03*
X86732Y-13386D02*
D03*
X91024D02*
D03*
X145571Y-81791D02*
D03*
Y-85728D02*
D03*
X150689Y-83760D02*
D03*
D15*
X74394Y-34677D02*
D03*
Y-38969D02*
D03*
X112697Y-18425D02*
D03*
Y-22716D02*
D03*
X85236Y-8937D02*
D03*
Y-4646D02*
D03*
X157579Y-3366D02*
D03*
Y-7658D02*
D03*
X61713Y-30118D02*
D03*
X57776D02*
D03*
X59744Y-35236D02*
D03*
X118307Y-85039D02*
D03*
X122244D02*
D03*
X120276Y-79921D02*
D03*
X68898Y-35236D02*
D03*
X70866Y-40354D02*
D03*
X66929D02*
D03*
D16*
X34252Y-4134D02*
D03*
Y-7874D02*
D03*
Y-11614D02*
D03*
X43307D02*
D03*
Y-7874D02*
D03*
Y-4134D02*
D03*
D17*
X5315Y-30807D02*
D03*
Y-7579D02*
D03*
D18*
Y-15846D02*
D03*
Y-22539D02*
D03*
D19*
X14567Y-9350D02*
D03*
D20*
X14370Y-29035D02*
D03*
D21*
X15748Y-14075D02*
D03*
Y-24311D02*
D03*
Y-21752D02*
D03*
Y-16634D02*
D03*
Y-19193D02*
D03*
D22*
X106693Y-59646D02*
D03*
Y-69095D02*
D03*
D23*
X43799Y-52362D02*
D03*
D24*
X39862Y-45276D02*
D03*
X41831D02*
D03*
X43799D02*
D03*
X45768D02*
D03*
X47736D02*
D03*
Y-59449D02*
D03*
X45768D02*
D03*
X43799D02*
D03*
X41831D02*
D03*
X39862D02*
D03*
D25*
X50886Y-49409D02*
D03*
Y-55315D02*
D03*
X36713D02*
D03*
Y-49409D02*
D03*
D26*
X107480Y-75394D02*
D03*
X114370D02*
D03*
Y-87205D02*
D03*
X107480D02*
D03*
D27*
X142913Y-6594D02*
D03*
X140945D02*
D03*
X138976D02*
D03*
X137008D02*
D03*
X135039D02*
D03*
Y-28642D02*
D03*
X137008D02*
D03*
X138976D02*
D03*
X140945D02*
D03*
X142913D02*
D03*
D28*
X99213Y-59571D02*
D03*
Y-69571D02*
D03*
X90945Y-69661D02*
D03*
Y-59661D02*
D03*
D29*
X37106Y-31201D02*
D03*
X48130D02*
D03*
D30*
X147343Y-65059D02*
D03*
Y-75689D02*
D03*
X115059Y-68012D02*
D03*
Y-57382D02*
D03*
X29823Y-55709D02*
D03*
Y-45079D02*
D03*
X20571Y-55709D02*
D03*
Y-45079D02*
D03*
X131496Y-87106D02*
D03*
Y-76476D02*
D03*
D31*
X140157Y-58760D02*
D03*
X145669D02*
D03*
X135039Y-70571D02*
D03*
X129527D02*
D03*
X85335Y-52067D02*
D03*
X90847D02*
D03*
X76968Y-49852D02*
D03*
X71457D02*
D03*
X119587Y-18406D02*
D03*
X125098D02*
D03*
X76968Y-54232D02*
D03*
X71457D02*
D03*
X5315Y-41929D02*
D03*
X10827D02*
D03*
X76968Y-45472D02*
D03*
X71457D02*
D03*
D32*
X140847Y-86221D02*
D03*
Y-80709D02*
D03*
X151969Y-8465D02*
D03*
Y-2953D02*
D03*
X123721Y-70571D02*
D03*
Y-76083D02*
D03*
X125984Y-59646D02*
D03*
Y-65158D02*
D03*
X132382Y-59547D02*
D03*
Y-65059D02*
D03*
X23622Y-17126D02*
D03*
Y-11614D02*
D03*
X28839D02*
D03*
Y-17126D02*
D03*
X84842Y-64272D02*
D03*
Y-58760D02*
D03*
X77461Y-58661D02*
D03*
Y-64173D02*
D03*
X61122Y-56102D02*
D03*
Y-50591D02*
D03*
X61221Y-38976D02*
D03*
Y-44488D02*
D03*
X55807Y-55905D02*
D03*
Y-50394D02*
D03*
X55709Y-44488D02*
D03*
Y-38976D02*
D03*
D33*
X71752Y-63386D02*
D03*
Y-59449D02*
D03*
X65847Y-61417D02*
D03*
D34*
X4134Y-47441D02*
D03*
Y-54921D02*
D03*
X12402Y-51181D02*
D03*
D35*
X162500Y-13484D02*
D03*
Y-20965D02*
D03*
X153051D02*
D03*
Y-17224D02*
D03*
Y-13484D02*
D03*
D36*
X19783Y-37500D02*
D03*
X13878D02*
D03*
D37*
X117520Y-13386D02*
D03*
X125000D02*
D03*
X121260Y-4528D02*
D03*
D38*
X24311Y-38189D02*
D03*
X28051D02*
D03*
X31791D02*
D03*
Y-28740D02*
D03*
X24311D02*
D03*
D39*
X94587Y-31398D02*
D03*
D40*
X108563Y-20571D02*
D03*
Y-22539D02*
D03*
Y-24508D02*
D03*
Y-26476D02*
D03*
Y-28445D02*
D03*
Y-30413D02*
D03*
Y-32382D02*
D03*
Y-34350D02*
D03*
Y-36319D02*
D03*
Y-38287D02*
D03*
Y-40256D02*
D03*
Y-42224D02*
D03*
X80610D02*
D03*
Y-40256D02*
D03*
Y-38287D02*
D03*
Y-36319D02*
D03*
Y-34350D02*
D03*
Y-32382D02*
D03*
Y-30413D02*
D03*
Y-28445D02*
D03*
Y-26476D02*
D03*
Y-24508D02*
D03*
Y-22539D02*
D03*
Y-20571D02*
D03*
D41*
X105413Y-45374D02*
D03*
X103445D02*
D03*
X101476D02*
D03*
X99508D02*
D03*
X97539D02*
D03*
X95571D02*
D03*
X93602D02*
D03*
X91634D02*
D03*
X89665D02*
D03*
X87697D02*
D03*
X85728D02*
D03*
X83760D02*
D03*
Y-17421D02*
D03*
X85728D02*
D03*
X87697D02*
D03*
X89665D02*
D03*
X91634D02*
D03*
X93602D02*
D03*
X95571D02*
D03*
X97539D02*
D03*
X99508D02*
D03*
X101476D02*
D03*
X103445D02*
D03*
X105413D02*
D03*
D42*
X48327Y-18209D02*
D03*
X37697D02*
D03*
D43*
X140551Y-58366D02*
Y-54242D01*
X140157Y-58760D02*
X140551Y-58366D01*
X140263Y-54530D02*
X140551Y-54242D01*
X27579Y-30588D02*
Y-22835D01*
X26478Y-31689D02*
X27579Y-30588D01*
X27977Y-35631D02*
X28051D01*
X26478Y-34133D02*
Y-31689D01*
Y-34133D02*
X27977Y-35631D01*
X28051Y-38189D02*
Y-35631D01*
X152559Y-20965D02*
X152805Y-21211D01*
X154744Y-25689D02*
Y-22658D01*
X153051Y-20965D02*
X154744Y-22658D01*
X158760Y-25413D02*
Y-17989D01*
Y-25413D02*
X159035Y-25689D01*
X68214Y-51279D02*
X69488D01*
X67917Y-51577D02*
X68214Y-51279D01*
X76673Y-63386D02*
X77461Y-64173D01*
X71752Y-63386D02*
X76673D01*
X79429Y-64173D02*
X84842Y-58760D01*
X79331Y-64173D02*
X79429D01*
X13878Y-29921D02*
X14764Y-29035D01*
X15748Y-27657D02*
Y-24311D01*
X5315Y-15846D02*
Y-7579D01*
Y-22539D02*
Y-15846D01*
X12795Y-7579D02*
X14567Y-9350D01*
X5315Y-7579D02*
X12795D01*
X5315Y-22539D02*
X7087Y-24311D01*
Y-29035D02*
Y-24311D01*
Y-29035D02*
X14370D01*
X12303Y-40453D02*
X22047D01*
X10827Y-41929D02*
X12303Y-40453D01*
X29823Y-55512D02*
X36516D01*
X4134Y-54921D02*
X12202D01*
X17913Y-59055D02*
X21654Y-62795D01*
X16336Y-59055D02*
X17913D01*
X12202Y-54921D02*
X16336Y-59055D01*
X34252Y-7874D02*
X38976D01*
X157579Y-8465D02*
X161122Y-4921D01*
X157579Y-15551D02*
Y-8465D01*
X55807Y-49409D02*
X55807Y-49409D01*
X54137Y-51080D02*
X55807Y-49409D01*
X54137Y-51873D02*
Y-51080D01*
X53647Y-52362D02*
X54137Y-51873D01*
X50886Y-49409D02*
X55807D01*
X162500Y-14249D02*
Y-13484D01*
X162992D01*
X158760Y-17989D02*
X162500Y-14249D01*
X123652Y-21358D02*
X125098Y-19912D01*
Y-18406D01*
X116637Y-21358D02*
X123652D01*
X43799Y-43303D02*
X47785Y-39317D01*
Y-37978D01*
X43799Y-45276D02*
Y-43303D01*
X152559Y-7972D02*
X157579Y-2953D01*
X152559Y-13484D02*
Y-7972D01*
X13878Y-37500D02*
Y-29921D01*
X22047Y-40453D02*
X24311Y-38189D01*
X27461Y-38780D02*
X28051Y-38189D01*
X64961Y-53445D02*
X65059Y-53347D01*
X61122Y-50591D02*
Y-44488D01*
X61024Y-44390D02*
X61122Y-44488D01*
X56004Y-44390D02*
X61024D01*
X48622D02*
X56004D01*
X47736Y-45276D02*
X48622Y-44390D01*
X123721Y-67421D02*
X125984Y-65158D01*
X123721Y-70571D02*
Y-67421D01*
X61221Y-38976D02*
Y-37205D01*
X59547Y-35531D02*
X61221Y-37205D01*
X69488Y-51279D02*
X71555Y-49213D01*
D44*
X145669Y-67815D02*
Y-58760D01*
X149705Y-71850D02*
X163681D01*
X145669Y-67815D02*
X149705Y-71850D01*
X145079Y-86221D02*
X145571Y-85728D01*
X140847Y-86221D02*
X145079D01*
X163681Y-71850D02*
X168996Y-77165D01*
X114370Y-87992D02*
X130610D01*
X155905Y-75787D02*
X157874Y-77756D01*
X149114Y-75787D02*
X155905D01*
X149114Y-77559D02*
Y-75787D01*
Y-77559D02*
X150689Y-79134D01*
Y-83760D02*
Y-79134D01*
X114370Y-87992D02*
Y-87205D01*
X96260Y-79921D02*
X97638Y-78543D01*
Y-69669D01*
X97630Y-69661D02*
X97638Y-69669D01*
X90945Y-69661D02*
X97630D01*
X86335Y-64272D02*
X90945Y-59661D01*
X84842Y-64272D02*
X86335D01*
X119291Y-2559D02*
X121260Y-4528D01*
X116909Y-2559D02*
X119291D01*
X36417Y-40748D02*
Y-30906D01*
X48327Y-17028D02*
Y-15214D01*
X47050Y-13937D02*
Y-8861D01*
Y-13937D02*
X48327Y-15214D01*
X46063Y-7874D02*
X47050Y-8861D01*
X43307Y-7874D02*
X46063D01*
X18209Y-55709D02*
X20571D01*
X29626D02*
X29823Y-55512D01*
X20571Y-55709D02*
X29626D01*
X12402Y-51181D02*
X16929Y-55709D01*
X5118Y-37598D02*
X5315Y-37795D01*
Y-41240D02*
Y-37795D01*
X3150Y-59744D02*
X8957D01*
X36417Y-40748D02*
X38386Y-42717D01*
X48720Y-31201D02*
Y-18602D01*
X125000Y-18287D02*
Y-13386D01*
X130610Y-87992D02*
X131496Y-87106D01*
X107480Y-75394D02*
Y-68701D01*
X48327Y-18209D02*
X50787Y-15749D01*
X52562D01*
D45*
X57874Y-32972D02*
X62500D01*
X55216Y-34547D02*
X56299D01*
X57874Y-32972D01*
X144488Y-80709D02*
X145571Y-81791D01*
X140847Y-80709D02*
X144488D01*
X140847D02*
X142815Y-78740D01*
Y-48130D01*
X136417Y-41732D02*
X142815Y-48130D01*
X118097Y-41732D02*
X136417D01*
X116621Y-40256D02*
X118097Y-41732D01*
X108563Y-40256D02*
X116621D01*
X108563Y-38287D02*
X116880D01*
X118750Y-40157D01*
X119291Y-36319D02*
X120669Y-37697D01*
X108563Y-36319D02*
X119291D01*
X140159Y-35925D02*
X142913Y-33171D01*
X126181Y-35925D02*
X140159D01*
X142913Y-33171D02*
Y-28642D01*
X121949Y-40157D02*
X126181Y-35925D01*
X118750Y-40157D02*
X121949D01*
X108563Y-42224D02*
X110335D01*
X109252Y-47815D02*
Y-45177D01*
X110335Y-42224D02*
X113681Y-45571D01*
X115650Y-81496D02*
X115650D01*
X108563Y-32382D02*
X133261D01*
X108563Y-34350D02*
X134843D01*
X73425Y-35531D02*
X74653D01*
X76461Y-37339D01*
Y-38505D02*
Y-37339D01*
Y-38505D02*
X78211Y-40256D01*
X80610D01*
X74394Y-39094D02*
X74823D01*
X77953Y-42224D02*
X80610D01*
X74823Y-39094D02*
X77953Y-42224D01*
X74394Y-39094D02*
Y-38969D01*
X74311Y-39051D02*
X74394Y-38969D01*
X74311Y-41741D02*
Y-39051D01*
X92699Y-11201D02*
X95571Y-14073D01*
X84247Y-11201D02*
X92699D01*
X81077Y-14370D02*
X84247Y-11201D01*
X73701Y-14370D02*
X81077D01*
X93272Y-9547D02*
X97539Y-13815D01*
X80413Y-9547D02*
X93272D01*
X77953Y-7087D02*
X80413Y-9547D01*
X102327Y-50886D02*
X113091D01*
X101476Y-50035D02*
Y-45374D01*
Y-50035D02*
X102327Y-50886D01*
X49316Y-59449D02*
X50888Y-57877D01*
X47736Y-59449D02*
X49316D01*
X29037Y-33073D02*
X30236D01*
X31791Y-31517D01*
X19783Y-37500D02*
X24311Y-32972D01*
Y-28740D01*
X31791Y-31517D02*
Y-28740D01*
X49806Y-12796D02*
Y-12205D01*
X105413Y-46579D02*
Y-45374D01*
Y-46579D02*
X107653Y-48819D01*
X108248D01*
X109252Y-47815D01*
X82139Y-48290D02*
X84351D01*
X74410Y-59449D02*
X76673D01*
X71752D02*
X74410D01*
X74311Y-59350D02*
X74410Y-59449D01*
X76673D02*
X77461Y-58661D01*
X81791Y-54921D02*
X92870D01*
X77658D02*
X81791D01*
Y-59208D02*
Y-54921D01*
X79582Y-61417D02*
X81791Y-59208D01*
X65847Y-61417D02*
X79582D01*
X76968Y-54232D02*
X77658Y-54921D01*
X65472Y-17476D02*
Y-15059D01*
X62795Y-12382D02*
Y-10138D01*
Y-12382D02*
X65472Y-15059D01*
X72027Y-16043D02*
X73701Y-14370D01*
X69961Y-18110D02*
X72027Y-16043D01*
X66107Y-18110D02*
X69961D01*
X65472Y-17476D02*
X66107Y-18110D01*
X83108Y-14567D02*
X88349D01*
X89457Y-15619D02*
X89665Y-15827D01*
X89272Y-15619D02*
X89457D01*
X89272D02*
Y-15489D01*
X88349Y-14567D02*
X89272Y-15489D01*
X80253Y-17421D02*
X83108Y-14567D01*
X78543Y-17421D02*
X80253D01*
X95571D02*
Y-14073D01*
X97539Y-17421D02*
Y-13815D01*
X92146Y-4528D02*
X99508Y-11890D01*
Y-17421D02*
Y-11890D01*
X108051Y-8858D02*
Y-4528D01*
X104170Y-12599D02*
X107873D01*
X108051Y-8858D02*
X109232Y-10039D01*
Y-11240D02*
Y-10039D01*
X107873Y-12599D02*
X109232Y-11240D01*
X91634Y-28445D02*
Y-17421D01*
X91516Y-13976D02*
X91634Y-14095D01*
Y-17421D02*
Y-14095D01*
X89665Y-17421D02*
Y-15827D01*
X101476Y-17421D02*
Y-15157D01*
X101611D02*
X104170Y-12599D01*
X101476Y-15157D02*
X101611D01*
X138760Y-2264D02*
X138976Y-2480D01*
Y-6594D02*
Y-2480D01*
X134468Y-2264D02*
X135039Y-2835D01*
Y-6594D02*
Y-2835D01*
X108563Y-22539D02*
X113091D01*
X113704Y-18425D02*
X116637Y-21358D01*
X112697Y-18425D02*
X113704D01*
X108563Y-20571D02*
X110551D01*
X108667Y-17225D02*
X111497D01*
X112697Y-18425D01*
X110551Y-20571D02*
X112697Y-18425D01*
X104822Y-14174D02*
X116731D01*
X117520Y-13386D01*
X103445Y-15551D02*
X104822Y-14174D01*
X103445Y-48307D02*
X103957Y-48819D01*
X103445Y-48307D02*
Y-45374D01*
X43307Y-4134D02*
X44967D01*
X48920Y-8086D01*
Y-11319D02*
Y-8086D01*
Y-11319D02*
X49806Y-12205D01*
X77067Y-49213D02*
X79921Y-52067D01*
X85335D01*
X4136Y-47443D02*
X9154D01*
X23622Y-11614D02*
X31102Y-4134D01*
X34252D01*
X39569Y-11614D02*
X43307D01*
X38978Y-12205D02*
X39569Y-11614D01*
X75232Y-20571D02*
X80610D01*
X103445Y-17421D02*
Y-15551D01*
X85335Y-52067D02*
X87697Y-49705D01*
X89665Y-50886D02*
Y-45374D01*
Y-50886D02*
X90847Y-52067D01*
X91634Y-47977D02*
Y-45374D01*
X92870Y-54921D02*
X93504Y-54287D01*
Y-49847D01*
X91634Y-47977D02*
X93504Y-49847D01*
X98974Y-52911D02*
X99508Y-52378D01*
Y-45374D01*
X96560Y-50094D02*
X97539Y-49114D01*
X96560Y-50593D02*
Y-50094D01*
X97539Y-49114D02*
Y-45374D01*
X90256Y-35728D02*
X94587Y-31398D01*
X85925Y-40059D02*
X90256Y-35728D01*
X85728Y-40256D02*
X85925Y-40059D01*
X80610Y-40256D02*
X85728D01*
X91634Y-28445D02*
X94587Y-31398D01*
X103248Y-22736D02*
X103445Y-22539D01*
X98917Y-27067D02*
X103248Y-22736D01*
X103445Y-22539D02*
X108563D01*
X103445Y-45374D02*
Y-40256D01*
X97539Y-28445D02*
X108563D01*
X94587Y-31398D02*
X97539Y-28445D01*
X98917Y-27067D01*
X111872Y-26476D02*
X112364Y-26969D01*
X112500D01*
X113386Y-27854D01*
X108563Y-26476D02*
X111872D01*
X140945Y-32087D02*
Y-28642D01*
X135039Y-6594D02*
X137008D01*
X138976Y-16634D02*
Y-6594D01*
X138091Y-17520D02*
X138976Y-16634D01*
Y-28642D02*
Y-18406D01*
X138091Y-17520D02*
X138976Y-18406D01*
X47785Y-37978D02*
Y-37549D01*
X108563Y-30413D02*
X123622D01*
X135039Y-18996D01*
Y-6594D01*
X119587Y-18406D02*
Y-15453D01*
X117520Y-13386D02*
X119587Y-15453D01*
X45768Y-45276D02*
Y-43701D01*
X47441Y-42028D01*
X49696D01*
X49893Y-41831D01*
X39862Y-45276D02*
Y-44193D01*
X38386Y-42717D02*
X39862Y-44193D01*
X41831Y-45276D02*
Y-41437D01*
X40846Y-49409D02*
X41634Y-50197D01*
X36713Y-49409D02*
X40846D01*
X39862Y-59449D02*
Y-56299D01*
X41634Y-54528D01*
X41831Y-59449D02*
Y-54331D01*
X43799Y-59449D02*
Y-56496D01*
X43799Y-56496D02*
X43799Y-56496D01*
X43799Y-52362D02*
X43799Y-52362D01*
X43799Y-56496D02*
Y-52756D01*
Y-52362D01*
X41831Y-54331D02*
X43799Y-52362D01*
Y-52756D02*
X45079Y-54035D01*
X45768Y-59449D02*
Y-54724D01*
X45965Y-54528D01*
X140945Y-6594D02*
Y-4232D01*
X142224Y-2953D01*
X151969D01*
X142913Y-13189D02*
Y-6594D01*
Y-13189D02*
X146949Y-17224D01*
X152559D01*
X121260Y-4528D02*
X128839D01*
X132480Y-8169D01*
Y-13681D02*
Y-8169D01*
X85728Y-46912D02*
Y-45374D01*
X84351Y-48290D02*
X85728Y-46912D01*
X87697Y-49705D02*
Y-45374D01*
X134843Y-34350D02*
X137008Y-32185D01*
Y-28642D01*
X133261Y-32382D02*
X135039Y-30603D01*
Y-28642D01*
X16142Y-14272D02*
Y-14075D01*
Y-16634D02*
X23130D01*
X16142Y-19193D02*
X20811D01*
X21402Y-19783D01*
X25842D01*
X28500Y-17126D01*
X28839D01*
Y-11614D02*
X34252D01*
X31988Y-23228D02*
Y-14272D01*
X31693Y-23524D02*
X31988Y-23228D01*
X16142Y-14272D02*
X31988D01*
X31791Y-28740D02*
Y-23622D01*
X31693Y-23524D02*
X31791Y-23622D01*
X74248Y-21555D02*
X75232Y-20571D01*
X74900Y-23130D02*
X75490Y-22539D01*
X80610D01*
X78642Y-26476D02*
X80610D01*
X76870Y-24705D02*
X78642Y-26476D01*
X78051Y-28445D02*
X80610D01*
X76968Y-27362D02*
X78051Y-28445D01*
X74311Y-41741D02*
X74831Y-41221D01*
X74311Y-59350D02*
Y-41741D01*
X77362Y-45374D02*
X83760D01*
X71260Y-40354D02*
Y-37697D01*
X73425Y-35531D01*
X63337Y-33809D02*
X68258D01*
X69291Y-34843D01*
X62500Y-32972D02*
X63337Y-33809D01*
X60335Y-55315D02*
X61122Y-56102D01*
X50886Y-55315D02*
X60335D01*
X67323Y-41634D02*
Y-40354D01*
Y-41634D02*
X71457Y-45768D01*
X128839Y-84449D02*
Y-83760D01*
Y-84449D02*
X131496Y-87106D01*
X123228Y-57480D02*
X125295Y-59547D01*
X132382D01*
X126575Y-73524D02*
X129527Y-70571D01*
X126575Y-78642D02*
Y-73524D01*
X122835Y-82382D02*
X126575Y-78642D01*
X118405Y-82382D02*
X122835D01*
X117913Y-82874D02*
X118405Y-82382D01*
X117815Y-82874D02*
X117913D01*
X115650Y-81496D02*
X118110Y-83957D01*
Y-85433D02*
Y-83957D01*
X61516Y-30413D02*
X64567Y-27362D01*
X76968D01*
X58566Y-24017D02*
X59453Y-23130D01*
X74900D01*
X54137Y-22245D02*
X54826Y-21555D01*
X74248D01*
X57483Y-24017D02*
X58566D01*
X61122Y-25591D02*
X62008Y-24705D01*
X76870D01*
D46*
X107480Y-87205D02*
Y-83465D01*
X120276Y-79921D02*
X123721Y-76476D01*
Y-76083D01*
X120079Y-79921D02*
X120276D01*
X116535Y-76378D02*
X120079Y-79921D01*
X114567Y-76378D02*
X116535D01*
X107480Y-83465D02*
X114567Y-76378D01*
X99213Y-59571D02*
X105193D01*
X106496Y-59449D02*
X115059Y-68012D01*
D47*
X37894Y-18504D02*
D03*
D48*
X24114Y-47047D02*
D03*
D49*
X21654Y-62795D02*
D03*
X13878Y-62697D02*
D03*
D50*
X96260Y-79921D02*
D03*
D51*
X65551Y-30709D02*
D03*
X54331Y-33169D02*
D03*
X108667Y-17225D02*
D03*
X78543Y-17421D02*
D03*
D52*
X5709Y-62303D02*
D03*
D53*
X113091Y-50886D02*
D03*
X113681Y-45571D02*
D03*
D54*
X172835Y-86122D02*
D03*
X163287Y-4921D02*
D03*
D55*
X45965Y-54528D02*
D03*
X41634D02*
D03*
X45965Y-50197D02*
D03*
X41634D02*
D03*
D56*
X140263Y-54530D02*
D03*
X120669Y-37697D02*
D03*
X109252Y-45177D02*
D03*
X150787Y-53839D02*
D03*
X128839Y-83760D02*
D03*
X115650Y-81496D02*
D03*
X50888Y-57877D02*
D03*
X42520Y-19783D02*
D03*
X42618Y-16043D02*
D03*
X29037Y-33073D02*
D03*
X33565Y-40848D02*
D03*
X14567Y-9350D02*
D03*
X49806Y-12796D02*
D03*
X51968Y-9252D02*
D03*
X67917Y-51577D02*
D03*
X73228Y-19094D02*
D03*
X64961Y-53445D02*
D03*
X67126Y-45866D02*
D03*
X127657Y-39272D02*
D03*
X120177Y-52264D02*
D03*
X82336Y-48684D02*
D03*
X5315Y-15748D02*
D03*
Y-22539D02*
D03*
X14665Y-30315D02*
D03*
X33366Y-45866D02*
D03*
X15256Y-47736D02*
D03*
X25492Y-42815D02*
D03*
X24312Y-58172D02*
D03*
X130118Y-29429D02*
D03*
X4429Y-50886D02*
D03*
X20079Y-50197D02*
D03*
X30512Y-50098D02*
D03*
X24705Y-50197D02*
D03*
X9154Y-47443D02*
D03*
X5118Y-37598D02*
D03*
X38978Y-12205D02*
D03*
X42421Y-28937D02*
D03*
X34843Y-17815D02*
D03*
X98974Y-52911D02*
D03*
X96560Y-50593D02*
D03*
X131004Y-17717D02*
D03*
X54137Y-51873D02*
D03*
X151279Y-27461D02*
D03*
X145669Y-27559D02*
D03*
X53248Y-28346D02*
D03*
X112598Y-11417D02*
D03*
X52067Y-2559D02*
D03*
X99606Y-7185D02*
D03*
X69390Y-3740D02*
D03*
X42323Y-32382D02*
D03*
X113386Y-27854D02*
D03*
X15157Y-2953D02*
D03*
X157677Y-31398D02*
D03*
X117913Y-48819D02*
D03*
X164764Y-87008D02*
D03*
X144980Y-20866D02*
D03*
X146752Y-8268D02*
D03*
X42224Y-41043D02*
D03*
X117323Y-7677D02*
D03*
X139829Y-32776D02*
D03*
X138091Y-17520D02*
D03*
X157579Y-15551D02*
D03*
X26083Y-2657D02*
D03*
X38976Y-7874D02*
D03*
X49893Y-41831D02*
D03*
X43898Y-39272D02*
D03*
X9350Y-36909D02*
D03*
X41339Y-38583D02*
D03*
X132480Y-13681D02*
D03*
X142913Y-13189D02*
D03*
X85925Y-40059D02*
D03*
Y-35728D02*
D03*
Y-31398D02*
D03*
Y-27067D02*
D03*
Y-22736D02*
D03*
X90256Y-40059D02*
D03*
Y-35728D02*
D03*
Y-31398D02*
D03*
Y-27067D02*
D03*
Y-22736D02*
D03*
X94587Y-40059D02*
D03*
Y-35728D02*
D03*
Y-31398D02*
D03*
Y-27067D02*
D03*
Y-22736D02*
D03*
X98917Y-40059D02*
D03*
Y-35728D02*
D03*
Y-31398D02*
D03*
Y-27067D02*
D03*
Y-22736D02*
D03*
X103248Y-40059D02*
D03*
Y-35728D02*
D03*
Y-31398D02*
D03*
Y-27067D02*
D03*
Y-22736D02*
D03*
X74311Y-41741D02*
D03*
X57579Y-60728D02*
D03*
X136713Y-76181D02*
D03*
X138386Y-65158D02*
D03*
X123228Y-57480D02*
D03*
X72244Y-35925D02*
D03*
X54137Y-22245D02*
D03*
X57483Y-24017D02*
D03*
X61122Y-25591D02*
D03*
X52562Y-15749D02*
D03*
X148622Y-32874D02*
D03*
M02*
