G04 Layer_Color=16711935*
%FSLAX25Y25*%
%MOIN*%
G70*
G01*
G75*
%ADD43C,0.01181*%
%ADD44C,0.01575*%
%ADD45C,0.00984*%
%ADD53C,0.04724*%
%ADD63C,0.01000*%
%ADD69R,0.03150X0.02756*%
%ADD70R,0.02756X0.03150*%
%ADD87R,0.04331X0.03937*%
G04:AMPARAMS|DCode=97|XSize=66.93mil|YSize=66.93mil|CornerRadius=0mil|HoleSize=0mil|Usage=FLASHONLY|Rotation=90.000|XOffset=0mil|YOffset=0mil|HoleType=Round|Shape=Octagon|*
%AMOCTAGOND97*
4,1,8,0.01673,0.03347,-0.01673,0.03347,-0.03347,0.01673,-0.03347,-0.01673,-0.01673,-0.03347,0.01673,-0.03347,0.03347,-0.01673,0.03347,0.01673,0.01673,0.03347,0.0*
%
%ADD97OCTAGOND97*%

%ADD98R,0.16535X0.08661*%
%ADD99R,0.09843X0.07874*%
%ADD100C,0.05512*%
%ADD101C,0.07480*%
%ADD102R,0.03937X0.06299*%
%ADD103R,0.07677X0.06693*%
%ADD104R,0.04724X0.06693*%
D43*
X162500Y-57284D02*
X165256Y-54921D01*
X163681Y-53740D02*
X165256Y-54921D01*
X162500Y-57284D02*
X163681Y-53740D01*
X162500Y-57284D02*
X164075Y-54921D01*
X164469Y-62795D02*
X167224Y-60433D01*
X165650Y-59252D02*
X167224Y-60433D01*
X164469Y-62795D02*
X165650Y-59252D01*
X164469Y-62795D02*
X166043Y-60433D01*
D44*
X161319Y-88386D02*
Y-84842D01*
X158012Y-88386D02*
Y-84842D01*
X154705Y-88386D02*
Y-84842D01*
X151398Y-88386D02*
Y-84842D01*
X148091Y-88386D02*
Y-84842D01*
X144783Y-88386D02*
Y-84842D01*
X163287Y-82480D02*
X166831D01*
X163287Y-79173D02*
X166831D01*
X163287Y-75866D02*
X166831D01*
X163287Y-72559D02*
X166831D01*
X163287Y-69252D02*
X166831D01*
X163287Y-65945D02*
X166831D01*
X139272Y-82480D02*
X142815D01*
X139272Y-79173D02*
X142815D01*
X139272Y-75866D02*
X142815D01*
X139272Y-72559D02*
X142815D01*
X139272Y-69252D02*
X142815D01*
X139272Y-65945D02*
X142815D01*
X161319Y-63583D02*
Y-60039D01*
X158012Y-63583D02*
Y-60039D01*
X154705Y-63583D02*
Y-60039D01*
X151398Y-63583D02*
Y-60039D01*
X148091Y-63583D02*
Y-60039D01*
X144783Y-63583D02*
Y-60039D01*
D45*
X143209Y-84449D02*
Y-63976D01*
Y-84449D02*
X162894D01*
Y-63976D01*
X143209D02*
X162894D01*
X151476Y-74213D02*
X156201D01*
Y-80118D02*
Y-74213D01*
X151476Y-80118D02*
X156201D01*
X151476D02*
Y-74213D01*
Y-76575D02*
X153051D01*
Y-74213D01*
X144783D02*
X149508D01*
Y-80118D02*
Y-74213D01*
X144783Y-80118D02*
X149508D01*
X144783D02*
Y-74213D01*
Y-76575D02*
X146358D01*
Y-74213D01*
X151476Y-66339D02*
X156201D01*
Y-72244D02*
Y-66339D01*
X151476Y-72244D02*
X156201D01*
X151476D02*
Y-66339D01*
Y-68701D02*
X153051D01*
Y-66339D01*
X146358Y-68701D02*
Y-66339D01*
X144783Y-68701D02*
X146358D01*
X144783Y-72244D02*
Y-66339D01*
Y-72244D02*
X149508D01*
Y-66339D01*
X144783D02*
X149508D01*
D53*
X65551Y-30709D02*
D03*
X54331Y-33169D02*
D03*
D63*
X168403Y-50584D02*
G03*
X173559Y-44281I-3841J8402D01*
G01*
X168403Y-50584D02*
G03*
X163681Y-55709I2627J-7159D01*
G01*
X170372Y-56096D02*
G03*
X175528Y-49793I-3841J8402D01*
G01*
X170372Y-56096D02*
G03*
X165650Y-61221I2627J-7159D01*
G01*
D69*
X21732Y-55709D02*
D03*
X17441D02*
D03*
D70*
X78642Y-38760D02*
D03*
Y-34468D02*
D03*
D87*
X27854Y-63976D02*
D03*
Y-58465D02*
D03*
X58268Y-57284D02*
D03*
Y-51772D02*
D03*
D97*
X21654Y-62795D02*
D03*
X13878Y-62697D02*
D03*
D98*
X96260Y-79921D02*
D03*
D99*
X5709Y-62303D02*
D03*
D100*
X113091Y-50886D02*
D03*
X113681Y-45571D02*
D03*
D101*
X172835Y-86122D02*
D03*
X163287Y-4921D02*
D03*
D102*
X55413Y-39272D02*
D03*
X64075D02*
D03*
D103*
X5020Y-42520D02*
D03*
X19783D02*
D03*
D104*
X58858Y-6496D02*
D03*
Y-30118D02*
D03*
X73425D02*
D03*
Y-6496D02*
D03*
X7185D02*
D03*
Y-30118D02*
D03*
X21752D02*
D03*
Y-6496D02*
D03*
X33022D02*
D03*
Y-30118D02*
D03*
X47589D02*
D03*
Y-6496D02*
D03*
M02*
