M48
;Layer_Color=9474304
;FILE_FORMAT=2:5
INCH,LZ
;TYPE=PLATED
T1F00S00C0.01181
T2F00S00C0.01575
T3F00S00C0.01968
T4F00S00C0.03150
T5F00S00C0.03543
%
T01
X0024312Y-0058172
X0024705Y-0050197
X0020079
X0030512Y-0050098
X0033366Y-0045866
X0033565Y-0040848
X0042224Y-0041043
X0041339Y-0038583
X0043898Y-0039272
X0042323Y-0032382
X0042421Y-0028937
X0053248Y-0028346
X0049893Y-0041831
X0045965Y-0050197
Y-0054528
X0041634
Y-0050197
X0054137Y-0051873
X0050888Y-0057877
X0057579Y-0060728
X0064961Y-0053445
X0067917Y-0051577
X0067126Y-0045866
X0074311Y-0041741
X0072244Y-0035925
X0085925Y-0035728
Y-0040059
X0090256
Y-0035728
Y-0031398
X0085925
Y-0027067
X0090256
X0094587
Y-0031398
Y-0035728
Y-0040059
X0098917
Y-0035728
Y-0031398
Y-0027067
X0103248
Y-0031398
Y-0035728
Y-0040059
X0109252Y-0045177
X0117913Y-0048819
X0120177Y-0052264
X0123228Y-005748
X0140263Y-005453
X0150787Y-0053839
X0148622Y-0032874
X0151279Y-0027461
X0145669Y-0027559
X0139829Y-0032776
X0130118Y-0029429
X0127657Y-0039272
X0120669Y-0037697
X0113386Y-0027854
X0098974Y-0052911
X009656Y-0050593
X0082336Y-0048684
X0025492Y-0042815
X0029037Y-0033073
X0157677Y-0031398
X0138386Y-0065158
X0136713Y-0076181
X0128839Y-008376
X011565Y-0081496
X0164764Y-0087008
X0015256Y-0047736
X0009154Y-0047443
X0004429Y-0050886
X0005118Y-0037598
X000935Y-0036909
X0014665Y-0030315
X0005315Y-0022539
Y-0015748
X0014567Y-000935
X0015157Y-0002953
X0026083Y-0002657
X0038976Y-0007874
X0038978Y-0012205
X0042618Y-0016043
X004252Y-0019783
X0034843Y-0017815
X0052562Y-0015749
X0049806Y-0012796
X0051968Y-0009252
X0052067Y-0002559
X006939Y-000374
X0073228Y-0019094
X0085925Y-0022736
X0090256
X0094587
X0098917
X0103248
X0099606Y-0007185
X0112598Y-0011417
X0117323Y-0007677
X013248Y-0013681
X0131004Y-0017717
X0138091Y-001752
X0142913Y-0013189
X0146752Y-0008268
X014498Y-0020866
X0157579Y-0015551
X0061122Y-0025591
X0057483Y-0024017
X0054137Y-0022245
T02
X0078543Y-0017421
X0108667Y-0017225
T03
X0054331Y-0033169
X0065551Y-0030709
T04
X0021654Y-0062795
X009626Y-0079921
X0113091Y-0050886
X0113681Y-0045571
X0013878Y-0062697
T05
X0172835Y-0086122
X0005709Y-0062303
X0163287Y-0004921
M30
