G04 Layer_Color=32896*
%FSLAX25Y25*%
%MOIN*%
G70*
G01*
G75*
%ADD28C,0.00984*%
%ADD29C,0.00787*%
%ADD30C,0.00606*%
D28*
X24409Y6201D02*
G03*
X24409Y6201I-492J0D01*
G01*
D29*
X22736Y9843D02*
Y13386D01*
X19587D02*
X22736D01*
X10925Y9843D02*
Y13386D01*
X14075D01*
X17913Y-13189D02*
X21063D01*
X17913Y-7283D02*
X21063D01*
D30*
X9220Y17159D02*
Y19258D01*
X9745Y19782D01*
X10794D01*
X11319Y19258D01*
Y17159D01*
X10794Y16634D01*
X9745D01*
X10269Y17683D02*
X9220Y16634D01*
X9745D02*
X9220Y17159D01*
X8170Y16634D02*
X7121D01*
X7645D01*
Y19782D01*
X8170Y19258D01*
X8432Y-8794D02*
X8957Y-8269D01*
X10007D01*
X10531Y-8794D01*
Y-10892D01*
X10007Y-11417D01*
X8957D01*
X8432Y-10892D01*
X5284Y-11417D02*
X7383D01*
X5284Y-9318D01*
Y-8794D01*
X5809Y-8269D01*
X6858D01*
X7383Y-8794D01*
X11024Y-689D02*
Y2460D01*
X9449D01*
X8925Y1935D01*
Y885D01*
X9449Y361D01*
X11024D01*
X9974D02*
X8925Y-689D01*
X6301D02*
Y2460D01*
X7875Y885D01*
X5776D01*
X31988Y-5906D02*
Y-2757D01*
X30414D01*
X29889Y-3282D01*
Y-4331D01*
X30414Y-4856D01*
X31988D01*
X30939D02*
X29889Y-5906D01*
X28840D02*
X27790D01*
X28315D01*
Y-2757D01*
X28840Y-3282D01*
M02*
