G04 Layer_Color=65535*
%FSLAX25Y25*%
%MOIN*%
G70*
G01*
G75*
%ADD27C,0.00394*%
%ADD28C,0.00984*%
%ADD29C,0.00787*%
%ADD30C,0.00606*%
%ADD31C,0.01000*%
D27*
X10927Y-7327D02*
G03*
X10927Y15292I-12063J11309D01*
G01*
X-14199D02*
G03*
X-14199Y-7327I12063J-11309D01*
G01*
X-19636Y27232D02*
X-14136D01*
X-19636Y-19268D02*
X-14136D01*
X-19636Y3982D02*
Y27232D01*
Y-19268D02*
Y3982D01*
X10864Y-19268D02*
X16364D01*
X10864Y27232D02*
X16364D01*
Y3982D02*
Y27232D01*
Y-19268D02*
Y3982D01*
X-14136Y-19268D02*
Y27232D01*
X10864Y-19268D02*
Y27232D01*
X-14136D02*
X-12136D01*
X8864D02*
X10864D01*
X8864Y-19268D02*
X10864D01*
X-14136D02*
X-12136D01*
D28*
X-33268Y12106D02*
G03*
X-33268Y12106I-492J0D01*
G01*
X28740Y-11220D02*
G03*
X28740Y-11220I-492J0D01*
G01*
X32874Y24705D02*
G03*
X32874Y24705I-492J0D01*
G01*
X-25295Y-8563D02*
G03*
X-25295Y-8563I-492J0D01*
G01*
X35630Y7972D02*
G03*
X35630Y7972I-492J0D01*
G01*
D29*
X-39272Y-1476D02*
Y9547D01*
X-39272Y-1476D02*
X-28248D01*
Y9547D01*
X-39272Y9547D02*
X-28248D01*
X26575Y3347D02*
Y6496D01*
X32480Y3347D02*
Y6496D01*
X22736Y-24803D02*
Y-13780D01*
X22736Y-24803D02*
X33760D01*
Y-13780D01*
X22736Y-13780D02*
X33760D01*
X26870Y11122D02*
Y22146D01*
X26870Y11122D02*
X37894D01*
Y22146D01*
X26870Y22146D02*
X37894D01*
X-31299Y-11122D02*
X-20276D01*
X-20276Y-22146D02*
Y-11122D01*
X-31299Y-22146D02*
X-20276D01*
X-31299Y-22146D02*
Y-11122D01*
X29626Y5413D02*
X40650D01*
X40650Y-5610D02*
Y5413D01*
X29626Y-5610D02*
X40650D01*
X29626Y-5610D02*
Y5413D01*
D30*
X29855Y16797D02*
X29330Y17322D01*
X28281D01*
X27756Y16797D01*
Y14698D01*
X28281Y14173D01*
X29330D01*
X29855Y14698D01*
X30904Y14173D02*
X31954D01*
X31429D01*
Y17322D01*
X30904Y16797D01*
D31*
X-7776Y33661D02*
Y37597D01*
X-5808D01*
X-5152Y36941D01*
Y35629D01*
X-5808Y34973D01*
X-7776D01*
X-3840Y36285D02*
Y34317D01*
X-3184Y33661D01*
X-1216D01*
Y36285D01*
X96Y33661D02*
Y36285D01*
X752D01*
X1408Y35629D01*
Y33661D01*
Y35629D01*
X2064Y36285D01*
X2720Y35629D01*
Y33661D01*
X4032Y32350D02*
Y36285D01*
X5999D01*
X6656Y35629D01*
Y34317D01*
X5999Y33661D01*
X4032D01*
X26870Y23786D02*
X27526Y23130D01*
X28838D01*
X29494Y23786D01*
Y26410D01*
X28838Y27066D01*
X27526D01*
X26870Y26410D01*
Y25754D01*
X27526Y25098D01*
X29494D01*
X-12598Y-29134D02*
X-11287D01*
X-11942D01*
Y-25198D01*
X-12598Y-25854D01*
M02*
