G04 Layer_Color=8388736*
%FSLAX25Y25*%
%MOIN*%
G70*
G01*
G75*
%ADD10C,0.01575*%
%ADD48C,0.01181*%
%ADD49C,0.01000*%
%ADD50C,0.00984*%
G04:AMPARAMS|DCode=57|XSize=66.93mil|YSize=55.12mil|CornerRadius=15.75mil|HoleSize=0mil|Usage=FLASHONLY|Rotation=180.000|XOffset=0mil|YOffset=0mil|HoleType=Round|Shape=RoundedRectangle|*
%AMROUNDEDRECTD57*
21,1,0.06693,0.02362,0,0,180.0*
21,1,0.03543,0.05512,0,0,180.0*
1,1,0.03150,-0.01772,0.01181*
1,1,0.03150,0.01772,0.01181*
1,1,0.03150,0.01772,-0.01181*
1,1,0.03150,-0.01772,-0.01181*
%
%ADD57ROUNDEDRECTD57*%
%ADD58R,0.04331X0.04331*%
G04:AMPARAMS|DCode=59|XSize=74.8mil|YSize=51.18mil|CornerRadius=14.76mil|HoleSize=0mil|Usage=FLASHONLY|Rotation=180.000|XOffset=0mil|YOffset=0mil|HoleType=Round|Shape=RoundedRectangle|*
%AMROUNDEDRECTD59*
21,1,0.07480,0.02165,0,0,180.0*
21,1,0.04528,0.05118,0,0,180.0*
1,1,0.02953,-0.02264,0.01083*
1,1,0.02953,0.02264,0.01083*
1,1,0.02953,0.02264,-0.01083*
1,1,0.02953,-0.02264,-0.01083*
%
%ADD59ROUNDEDRECTD59*%
G04:AMPARAMS|DCode=60|XSize=74.8mil|YSize=51.18mil|CornerRadius=14.76mil|HoleSize=0mil|Usage=FLASHONLY|Rotation=270.000|XOffset=0mil|YOffset=0mil|HoleType=Round|Shape=RoundedRectangle|*
%AMROUNDEDRECTD60*
21,1,0.07480,0.02165,0,0,270.0*
21,1,0.04528,0.05118,0,0,270.0*
1,1,0.02953,-0.01083,-0.02264*
1,1,0.02953,-0.01083,0.02264*
1,1,0.02953,0.01083,0.02264*
1,1,0.02953,0.01083,-0.02264*
%
%ADD60ROUNDEDRECTD60*%
%ADD61R,0.05512X0.20472*%
%ADD62R,0.05512X0.06102*%
G04:AMPARAMS|DCode=63|XSize=43.31mil|YSize=39.37mil|CornerRadius=11.81mil|HoleSize=0mil|Usage=FLASHONLY|Rotation=270.000|XOffset=0mil|YOffset=0mil|HoleType=Round|Shape=RoundedRectangle|*
%AMROUNDEDRECTD63*
21,1,0.04331,0.01575,0,0,270.0*
21,1,0.01969,0.03937,0,0,270.0*
1,1,0.02362,-0.00787,-0.00984*
1,1,0.02362,-0.00787,0.00984*
1,1,0.02362,0.00787,0.00984*
1,1,0.02362,0.00787,-0.00984*
%
%ADD63ROUNDEDRECTD63*%
G04:AMPARAMS|DCode=64|XSize=66.93mil|YSize=55.12mil|CornerRadius=15.75mil|HoleSize=0mil|Usage=FLASHONLY|Rotation=90.000|XOffset=0mil|YOffset=0mil|HoleType=Round|Shape=RoundedRectangle|*
%AMROUNDEDRECTD64*
21,1,0.06693,0.02362,0,0,90.0*
21,1,0.03543,0.05512,0,0,90.0*
1,1,0.03150,0.01181,0.01772*
1,1,0.03150,0.01181,-0.01772*
1,1,0.03150,-0.01181,-0.01772*
1,1,0.03150,-0.01181,0.01772*
%
%ADD64ROUNDEDRECTD64*%
G04:AMPARAMS|DCode=65|XSize=43.31mil|YSize=39.37mil|CornerRadius=11.81mil|HoleSize=0mil|Usage=FLASHONLY|Rotation=0.000|XOffset=0mil|YOffset=0mil|HoleType=Round|Shape=RoundedRectangle|*
%AMROUNDEDRECTD65*
21,1,0.04331,0.01575,0,0,0.0*
21,1,0.01969,0.03937,0,0,0.0*
1,1,0.02362,0.00984,-0.00787*
1,1,0.02362,-0.00984,-0.00787*
1,1,0.02362,-0.00984,0.00787*
1,1,0.02362,0.00984,0.00787*
%
%ADD65ROUNDEDRECTD65*%
%ADD66O,0.09449X0.03150*%
%ADD67R,0.04921X0.03150*%
%ADD68R,0.03937X0.04331*%
%ADD69R,0.06299X0.03937*%
%ADD70R,0.05118X0.03347*%
%ADD71R,0.05315X0.03150*%
%ADD72R,0.03150X0.05315*%
%ADD73C,0.06102*%
G04:AMPARAMS|DCode=74|XSize=61.02mil|YSize=61.02mil|CornerRadius=17.22mil|HoleSize=0mil|Usage=FLASHONLY|Rotation=180.000|XOffset=0mil|YOffset=0mil|HoleType=Round|Shape=RoundedRectangle|*
%AMROUNDEDRECTD74*
21,1,0.06102,0.02658,0,0,180.0*
21,1,0.02658,0.06102,0,0,180.0*
1,1,0.03445,-0.01329,0.01329*
1,1,0.03445,0.01329,0.01329*
1,1,0.03445,0.01329,-0.01329*
1,1,0.03445,-0.01329,-0.01329*
%
%ADD74ROUNDEDRECTD74*%
%ADD75C,0.06299*%
G04:AMPARAMS|DCode=76|XSize=66.93mil|YSize=66.93mil|CornerRadius=18.7mil|HoleSize=0mil|Usage=FLASHONLY|Rotation=0.000|XOffset=0mil|YOffset=0mil|HoleType=Round|Shape=RoundedRectangle|*
%AMROUNDEDRECTD76*
21,1,0.06693,0.02953,0,0,0.0*
21,1,0.02953,0.06693,0,0,0.0*
1,1,0.03740,0.01476,-0.01476*
1,1,0.03740,-0.01476,-0.01476*
1,1,0.03740,-0.01476,0.01476*
1,1,0.03740,0.01476,0.01476*
%
%ADD76ROUNDEDRECTD76*%
%ADD77C,0.06693*%
G04:AMPARAMS|DCode=78|XSize=66.93mil|YSize=66.93mil|CornerRadius=18.7mil|HoleSize=0mil|Usage=FLASHONLY|Rotation=90.000|XOffset=0mil|YOffset=0mil|HoleType=Round|Shape=RoundedRectangle|*
%AMROUNDEDRECTD78*
21,1,0.06693,0.02953,0,0,90.0*
21,1,0.02953,0.06693,0,0,90.0*
1,1,0.03740,0.01476,0.01476*
1,1,0.03740,0.01476,-0.01476*
1,1,0.03740,-0.01476,-0.01476*
1,1,0.03740,-0.01476,0.01476*
%
%ADD78ROUNDEDRECTD78*%
%ADD79R,0.06693X0.06693*%
G36*
X340256Y22305D02*
X340354Y22206D01*
Y2089D01*
X339999Y1738D01*
X323622Y1931D01*
Y28164D01*
X324033Y28448D01*
X340256Y22305D01*
D02*
G37*
G36*
X340748Y139862D02*
X340650Y139764D01*
X324276Y130705D01*
X323845Y130959D01*
X323787Y156142D01*
X324141Y156496D01*
X340748Y156496D01*
Y139862D01*
D02*
G37*
D10*
X48524Y65059D02*
Y68602D01*
X51831Y65059D02*
Y68602D01*
X55138Y65059D02*
Y68602D01*
X58445Y65059D02*
Y68602D01*
X61752Y65059D02*
Y68602D01*
X65059Y65059D02*
Y68602D01*
X43012Y70965D02*
X46555D01*
X43012Y74272D02*
X46555D01*
X43012Y77579D02*
X46555D01*
X43012Y80886D02*
X46555D01*
X43012Y84193D02*
X46555D01*
X43012Y87500D02*
X46555D01*
X67028Y70965D02*
X70571D01*
X67028Y74272D02*
X70571D01*
X67028Y77579D02*
X70571D01*
X67028Y80886D02*
X70571D01*
X67028Y84193D02*
X70571D01*
X67028Y87500D02*
X70571D01*
X48524Y89862D02*
Y93405D01*
X51831Y89862D02*
Y93405D01*
X55138Y89862D02*
Y93405D01*
X58445Y89862D02*
Y93405D01*
X61752Y89862D02*
Y93405D01*
X65059Y89862D02*
Y93405D01*
D48*
X44587Y98524D02*
X47343Y96161D01*
X44587Y98524D02*
X46161Y99705D01*
X47343Y96161D01*
X45768Y98524D02*
X47343Y96161D01*
X42618Y93012D02*
X45374Y90650D01*
X42618Y93012D02*
X44193Y94193D01*
X45374Y90650D01*
X43799Y93012D02*
X45374Y90650D01*
D49*
X36283Y109164D02*
G03*
X41439Y102861I8997J2099D01*
G01*
X46161Y97736D02*
G03*
X41439Y102861I-7349J-2034D01*
G01*
X34315Y103652D02*
G03*
X39471Y97349I8997J2099D01*
G01*
X44193Y92224D02*
G03*
X39471Y97349I-7349J-2034D01*
G01*
D50*
X66634Y68996D02*
Y89468D01*
X46949Y68996D02*
X66634D01*
X46949D02*
Y89468D01*
X66634D01*
X53642Y79232D02*
X58366D01*
X53642Y73327D02*
Y79232D01*
Y73327D02*
X58366D01*
Y79232D01*
X56791Y76870D02*
X58366D01*
X56791D02*
Y79232D01*
X60335D02*
X65059D01*
X60335Y73327D02*
Y79232D01*
Y73327D02*
X65059D01*
Y79232D01*
X63484Y76870D02*
X65059D01*
X63484D02*
Y79232D01*
X53642Y87106D02*
X58366D01*
X53642Y81201D02*
Y87106D01*
Y81201D02*
X58366D01*
Y87106D01*
X56791Y84744D02*
X58366D01*
X56791D02*
Y87106D01*
X63484Y84744D02*
Y87106D01*
Y84744D02*
X65059D01*
Y81201D02*
Y87106D01*
X60335Y81201D02*
X65059D01*
X60335D02*
Y87106D01*
X65059D01*
D57*
X253740Y41240D02*
D03*
Y34154D02*
D03*
X243209Y34449D02*
D03*
Y27362D02*
D03*
X253543Y112106D02*
D03*
Y105020D02*
D03*
X243110Y104921D02*
D03*
Y97835D02*
D03*
X253740D02*
D03*
Y90748D02*
D03*
X243110Y90453D02*
D03*
Y83366D02*
D03*
X253740Y83563D02*
D03*
Y76476D02*
D03*
X243209Y76673D02*
D03*
Y69587D02*
D03*
X253642Y69488D02*
D03*
Y62402D02*
D03*
X243110Y62697D02*
D03*
Y55610D02*
D03*
X253839D02*
D03*
Y48524D02*
D03*
X243110Y48720D02*
D03*
Y41634D02*
D03*
D58*
X224213Y118898D02*
D03*
X233661D02*
D03*
X224213Y111864D02*
D03*
X233661D02*
D03*
X224213Y104831D02*
D03*
X233661D02*
D03*
X224213Y97797D02*
D03*
X233661D02*
D03*
X224213Y90763D02*
D03*
X233661D02*
D03*
X224213Y83729D02*
D03*
X233661D02*
D03*
X224213Y76695D02*
D03*
X233661D02*
D03*
X224213Y69662D02*
D03*
X233661D02*
D03*
X224213Y62628D02*
D03*
X233661D02*
D03*
X224213Y55594D02*
D03*
X233661D02*
D03*
X224213Y48560D02*
D03*
X233661D02*
D03*
X224213Y27459D02*
D03*
X233661D02*
D03*
X224213Y41526D02*
D03*
X233661D02*
D03*
X224213Y34493D02*
D03*
X233661D02*
D03*
D59*
X241437Y124016D02*
D03*
Y113386D02*
D03*
X177657Y57185D02*
D03*
Y67815D02*
D03*
X168012Y67913D02*
D03*
Y57284D02*
D03*
D60*
X229724Y132480D02*
D03*
X240354D02*
D03*
X206496Y129232D02*
D03*
X217126D02*
D03*
D61*
X160335Y101378D02*
D03*
X199311D02*
D03*
D62*
X167815Y80512D02*
D03*
X175689D02*
D03*
X183563D02*
D03*
X191437D02*
D03*
Y123031D02*
D03*
X183563D02*
D03*
X175689D02*
D03*
X167815D02*
D03*
D63*
X167618Y20452D02*
D03*
X162107D02*
D03*
X176181Y73622D02*
D03*
X170669D02*
D03*
X154724Y68898D02*
D03*
X160236D02*
D03*
X20276Y106595D02*
D03*
X25787D02*
D03*
X23720Y11713D02*
D03*
X29232D02*
D03*
X29035Y17520D02*
D03*
X23524D02*
D03*
X25787Y113287D02*
D03*
X20276D02*
D03*
X105847Y132998D02*
D03*
X100336D02*
D03*
X13484Y61417D02*
D03*
X18996D02*
D03*
D64*
X209547Y31595D02*
D03*
X216634D02*
D03*
Y119291D02*
D03*
X209547D02*
D03*
Y111140D02*
D03*
X216634D02*
D03*
Y103185D02*
D03*
X209547D02*
D03*
Y95231D02*
D03*
X216634D02*
D03*
Y87276D02*
D03*
X209547D02*
D03*
Y79322D02*
D03*
X216634D02*
D03*
Y71367D02*
D03*
X209547D02*
D03*
Y63413D02*
D03*
X216634D02*
D03*
Y55458D02*
D03*
X209547D02*
D03*
Y47504D02*
D03*
X216634D02*
D03*
Y39549D02*
D03*
X209547D02*
D03*
D65*
X146752Y38976D02*
D03*
Y44488D02*
D03*
X182580Y32185D02*
D03*
Y26673D02*
D03*
X190945Y54232D02*
D03*
Y48720D02*
D03*
X147145Y32972D02*
D03*
Y27461D02*
D03*
X185047Y48622D02*
D03*
Y54134D02*
D03*
X139567Y13287D02*
D03*
Y7776D02*
D03*
X92421Y21654D02*
D03*
Y16142D02*
D03*
X115792Y16447D02*
D03*
Y21959D02*
D03*
X36574Y117691D02*
D03*
Y112179D02*
D03*
X16437Y29232D02*
D03*
Y23721D02*
D03*
D66*
X155413Y42539D02*
D03*
Y37539D02*
D03*
Y32539D02*
D03*
Y27539D02*
D03*
X174311Y42539D02*
D03*
Y37539D02*
D03*
Y32539D02*
D03*
Y27539D02*
D03*
D67*
X109153Y22736D02*
D03*
Y15256D02*
D03*
X99705D02*
D03*
Y18996D02*
D03*
Y22736D02*
D03*
D68*
X100197Y144783D02*
D03*
X105709D02*
D03*
D69*
X139370Y36909D02*
D03*
Y28248D02*
D03*
D70*
X23031Y24213D02*
D03*
Y31693D02*
D03*
X32480D02*
D03*
Y27953D02*
D03*
Y24213D02*
D03*
D71*
X194980Y65453D02*
D03*
X186122Y61713D02*
D03*
Y69193D02*
D03*
D72*
X23819Y121063D02*
D03*
X31299D02*
D03*
X27559Y129921D02*
D03*
D73*
X150256Y12183D02*
D03*
D74*
X179469D02*
D03*
D75*
X23031Y142323D02*
D03*
X28032Y147323D02*
D03*
X18032D02*
D03*
Y137323D02*
D03*
X28032D02*
D03*
X272146Y129921D02*
D03*
X277146Y124921D02*
D03*
Y134921D02*
D03*
X267146D02*
D03*
Y124921D02*
D03*
D76*
X266240Y31890D02*
D03*
D77*
X276240D02*
D03*
X266673Y99114D02*
D03*
X276673D02*
D03*
X266673Y89114D02*
D03*
X276673D02*
D03*
X266673Y79114D02*
D03*
X276673D02*
D03*
X266673Y69114D02*
D03*
X276673D02*
D03*
X266673Y59114D02*
D03*
X276673D02*
D03*
X266673Y49114D02*
D03*
X5610Y51752D02*
D03*
Y61752D02*
D03*
Y41752D02*
D03*
Y31752D02*
D03*
Y21752D02*
D03*
Y11752D02*
D03*
D78*
X276673Y49114D02*
D03*
D79*
X5610Y71752D02*
D03*
M02*
