G04 Layer_Color=8388736*
%FSLAX25Y25*%
%MOIN*%
G70*
G01*
G75*
%ADD74R,0.18323X0.03319*%
%ADD75R,0.17716X0.05118*%
G04:AMPARAMS|DCode=76|XSize=43.31mil|YSize=39.37mil|CornerRadius=11.81mil|HoleSize=0mil|Usage=FLASHONLY|Rotation=180.000|XOffset=0mil|YOffset=0mil|HoleType=Round|Shape=RoundedRectangle|*
%AMROUNDEDRECTD76*
21,1,0.04331,0.01575,0,0,180.0*
21,1,0.01969,0.03937,0,0,180.0*
1,1,0.02362,-0.00984,0.00787*
1,1,0.02362,0.00984,0.00787*
1,1,0.02362,0.00984,-0.00787*
1,1,0.02362,-0.00984,-0.00787*
%
%ADD76ROUNDEDRECTD76*%
G04:AMPARAMS|DCode=77|XSize=27.56mil|YSize=31.5mil|CornerRadius=8.86mil|HoleSize=0mil|Usage=FLASHONLY|Rotation=180.000|XOffset=0mil|YOffset=0mil|HoleType=Round|Shape=RoundedRectangle|*
%AMROUNDEDRECTD77*
21,1,0.02756,0.01378,0,0,180.0*
21,1,0.00984,0.03150,0,0,180.0*
1,1,0.01772,-0.00492,0.00689*
1,1,0.01772,0.00492,0.00689*
1,1,0.01772,0.00492,-0.00689*
1,1,0.01772,-0.00492,-0.00689*
%
%ADD77ROUNDEDRECTD77*%
G04:AMPARAMS|DCode=78|XSize=78.74mil|YSize=47.24mil|CornerRadius=13.78mil|HoleSize=0mil|Usage=FLASHONLY|Rotation=270.000|XOffset=0mil|YOffset=0mil|HoleType=Round|Shape=RoundedRectangle|*
%AMROUNDEDRECTD78*
21,1,0.07874,0.01969,0,0,270.0*
21,1,0.05118,0.04724,0,0,270.0*
1,1,0.02756,-0.00984,-0.02559*
1,1,0.02756,-0.00984,0.02559*
1,1,0.02756,0.00984,0.02559*
1,1,0.02756,0.00984,-0.02559*
%
%ADD78ROUNDEDRECTD78*%
G04:AMPARAMS|DCode=79|XSize=27.56mil|YSize=31.5mil|CornerRadius=8.86mil|HoleSize=0mil|Usage=FLASHONLY|Rotation=270.000|XOffset=0mil|YOffset=0mil|HoleType=Round|Shape=RoundedRectangle|*
%AMROUNDEDRECTD79*
21,1,0.02756,0.01378,0,0,270.0*
21,1,0.00984,0.03150,0,0,270.0*
1,1,0.01772,-0.00689,-0.00492*
1,1,0.01772,-0.00689,0.00492*
1,1,0.01772,0.00689,0.00492*
1,1,0.01772,0.00689,-0.00492*
%
%ADD79ROUNDEDRECTD79*%
G04:AMPARAMS|DCode=80|XSize=43.31mil|YSize=39.37mil|CornerRadius=11.81mil|HoleSize=0mil|Usage=FLASHONLY|Rotation=90.000|XOffset=0mil|YOffset=0mil|HoleType=Round|Shape=RoundedRectangle|*
%AMROUNDEDRECTD80*
21,1,0.04331,0.01575,0,0,90.0*
21,1,0.01969,0.03937,0,0,90.0*
1,1,0.02362,0.00787,0.00984*
1,1,0.02362,0.00787,-0.00984*
1,1,0.02362,-0.00787,-0.00984*
1,1,0.02362,-0.00787,0.00984*
%
%ADD80ROUNDEDRECTD80*%
G04:AMPARAMS|DCode=81|XSize=51.18mil|YSize=17.72mil|CornerRadius=6.4mil|HoleSize=0mil|Usage=FLASHONLY|Rotation=270.000|XOffset=0mil|YOffset=0mil|HoleType=Round|Shape=RoundedRectangle|*
%AMROUNDEDRECTD81*
21,1,0.05118,0.00492,0,0,270.0*
21,1,0.03839,0.01772,0,0,270.0*
1,1,0.01280,-0.00246,-0.01919*
1,1,0.01280,-0.00246,0.01919*
1,1,0.01280,0.00246,0.01919*
1,1,0.01280,0.00246,-0.01919*
%
%ADD81ROUNDEDRECTD81*%
%ADD82R,0.04331X0.03937*%
%ADD83R,0.03937X0.04331*%
G04:AMPARAMS|DCode=84|XSize=74.8mil|YSize=51.18mil|CornerRadius=14.76mil|HoleSize=0mil|Usage=FLASHONLY|Rotation=180.000|XOffset=0mil|YOffset=0mil|HoleType=Round|Shape=RoundedRectangle|*
%AMROUNDEDRECTD84*
21,1,0.07480,0.02165,0,0,180.0*
21,1,0.04528,0.05118,0,0,180.0*
1,1,0.02953,-0.02264,0.01083*
1,1,0.02953,0.02264,0.01083*
1,1,0.02953,0.02264,-0.01083*
1,1,0.02953,-0.02264,-0.01083*
%
%ADD84ROUNDEDRECTD84*%
G04:AMPARAMS|DCode=85|XSize=74.8mil|YSize=51.18mil|CornerRadius=14.76mil|HoleSize=0mil|Usage=FLASHONLY|Rotation=270.000|XOffset=0mil|YOffset=0mil|HoleType=Round|Shape=RoundedRectangle|*
%AMROUNDEDRECTD85*
21,1,0.07480,0.02165,0,0,270.0*
21,1,0.04528,0.05118,0,0,270.0*
1,1,0.02953,-0.01083,-0.02264*
1,1,0.02953,-0.01083,0.02264*
1,1,0.02953,0.01083,0.02264*
1,1,0.02953,0.01083,-0.02264*
%
%ADD85ROUNDEDRECTD85*%
G04:AMPARAMS|DCode=86|XSize=23.62mil|YSize=51.18mil|CornerRadius=7.87mil|HoleSize=0mil|Usage=FLASHONLY|Rotation=270.000|XOffset=0mil|YOffset=0mil|HoleType=Round|Shape=RoundedRectangle|*
%AMROUNDEDRECTD86*
21,1,0.02362,0.03543,0,0,270.0*
21,1,0.00787,0.05118,0,0,270.0*
1,1,0.01575,-0.01772,-0.00394*
1,1,0.01575,-0.01772,0.00394*
1,1,0.01575,0.01772,0.00394*
1,1,0.01575,0.01772,-0.00394*
%
%ADD86ROUNDEDRECTD86*%
%ADD87O,0.01772X0.04331*%
%ADD88O,0.04331X0.01772*%
%ADD89R,0.23228X0.23228*%
G04:AMPARAMS|DCode=90|XSize=33.47mil|YSize=51.18mil|CornerRadius=10.34mil|HoleSize=0mil|Usage=FLASHONLY|Rotation=180.000|XOffset=0mil|YOffset=0mil|HoleType=Round|Shape=RoundedRectangle|*
%AMROUNDEDRECTD90*
21,1,0.03347,0.03051,0,0,180.0*
21,1,0.01280,0.05118,0,0,180.0*
1,1,0.02067,-0.00640,0.01526*
1,1,0.02067,0.00640,0.01526*
1,1,0.02067,0.00640,-0.01526*
1,1,0.02067,-0.00640,-0.01526*
%
%ADD90ROUNDEDRECTD90*%
G04:AMPARAMS|DCode=91|XSize=35.43mil|YSize=59.06mil|CornerRadius=10.83mil|HoleSize=0mil|Usage=FLASHONLY|Rotation=90.000|XOffset=0mil|YOffset=0mil|HoleType=Round|Shape=RoundedRectangle|*
%AMROUNDEDRECTD91*
21,1,0.03543,0.03740,0,0,90.0*
21,1,0.01378,0.05906,0,0,90.0*
1,1,0.02165,0.01870,0.00689*
1,1,0.02165,0.01870,-0.00689*
1,1,0.02165,-0.01870,-0.00689*
1,1,0.02165,-0.01870,0.00689*
%
%ADD91ROUNDEDRECTD91*%
G04:AMPARAMS|DCode=92|XSize=43.31mil|YSize=35.43mil|CornerRadius=10.83mil|HoleSize=0mil|Usage=FLASHONLY|Rotation=90.000|XOffset=0mil|YOffset=0mil|HoleType=Round|Shape=RoundedRectangle|*
%AMROUNDEDRECTD92*
21,1,0.04331,0.01378,0,0,90.0*
21,1,0.02165,0.03543,0,0,90.0*
1,1,0.02165,0.00689,0.01083*
1,1,0.02165,0.00689,-0.01083*
1,1,0.02165,-0.00689,-0.01083*
1,1,0.02165,-0.00689,0.01083*
%
%ADD92ROUNDEDRECTD92*%
%ADD93O,0.04724X0.15748*%
G04:AMPARAMS|DCode=94|XSize=47.24mil|YSize=157.48mil|CornerRadius=13.78mil|HoleSize=0mil|Usage=FLASHONLY|Rotation=0.000|XOffset=0mil|YOffset=0mil|HoleType=Round|Shape=RoundedRectangle|*
%AMROUNDEDRECTD94*
21,1,0.04724,0.12992,0,0,0.0*
21,1,0.01969,0.15748,0,0,0.0*
1,1,0.02756,0.00984,-0.06496*
1,1,0.02756,-0.00984,-0.06496*
1,1,0.02756,-0.00984,0.06496*
1,1,0.02756,0.00984,0.06496*
%
%ADD94ROUNDEDRECTD94*%
G04:AMPARAMS|DCode=95|XSize=52.87mil|YSize=52.87mil|CornerRadius=15.19mil|HoleSize=0mil|Usage=FLASHONLY|Rotation=270.000|XOffset=0mil|YOffset=0mil|HoleType=Round|Shape=RoundedRectangle|*
%AMROUNDEDRECTD95*
21,1,0.05287,0.02250,0,0,270.0*
21,1,0.02250,0.05287,0,0,270.0*
1,1,0.03037,-0.01125,-0.01125*
1,1,0.03037,-0.01125,0.01125*
1,1,0.03037,0.01125,0.01125*
1,1,0.03037,0.01125,-0.01125*
%
%ADD95ROUNDEDRECTD95*%
G04:AMPARAMS|DCode=96|XSize=47.24mil|YSize=31.5mil|CornerRadius=9.84mil|HoleSize=0mil|Usage=FLASHONLY|Rotation=90.000|XOffset=0mil|YOffset=0mil|HoleType=Round|Shape=RoundedRectangle|*
%AMROUNDEDRECTD96*
21,1,0.04724,0.01181,0,0,90.0*
21,1,0.02756,0.03150,0,0,90.0*
1,1,0.01969,0.00591,0.01378*
1,1,0.01969,0.00591,-0.01378*
1,1,0.01969,-0.00591,-0.01378*
1,1,0.01969,-0.00591,0.01378*
%
%ADD96ROUNDEDRECTD96*%
%ADD97R,0.18898X0.17716*%
G04:AMPARAMS|DCode=98|XSize=86.61mil|YSize=70.87mil|CornerRadius=19.69mil|HoleSize=0mil|Usage=FLASHONLY|Rotation=270.000|XOffset=0mil|YOffset=0mil|HoleType=Round|Shape=RoundedRectangle|*
%AMROUNDEDRECTD98*
21,1,0.08661,0.03150,0,0,270.0*
21,1,0.04724,0.07087,0,0,270.0*
1,1,0.03937,-0.01575,-0.02362*
1,1,0.03937,-0.01575,0.02362*
1,1,0.03937,0.01575,0.02362*
1,1,0.03937,0.01575,-0.02362*
%
%ADD98ROUNDEDRECTD98*%
%ADD99R,0.08858X0.08858*%
%ADD100O,0.01575X0.04331*%
%ADD101O,0.04331X0.01575*%
G04:AMPARAMS|DCode=102|XSize=43.31mil|YSize=43.31mil|CornerRadius=12.8mil|HoleSize=0mil|Usage=FLASHONLY|Rotation=0.000|XOffset=0mil|YOffset=0mil|HoleType=Round|Shape=RoundedRectangle|*
%AMROUNDEDRECTD102*
21,1,0.04331,0.01772,0,0,0.0*
21,1,0.01772,0.04331,0,0,0.0*
1,1,0.02559,0.00886,-0.00886*
1,1,0.02559,-0.00886,-0.00886*
1,1,0.02559,-0.00886,0.00886*
1,1,0.02559,0.00886,0.00886*
%
%ADD102ROUNDEDRECTD102*%
G04:AMPARAMS|DCode=103|XSize=101.38mil|YSize=82.68mil|CornerRadius=22.64mil|HoleSize=0mil|Usage=FLASHONLY|Rotation=270.000|XOffset=0mil|YOffset=0mil|HoleType=Round|Shape=RoundedRectangle|*
%AMROUNDEDRECTD103*
21,1,0.10138,0.03740,0,0,270.0*
21,1,0.05610,0.08268,0,0,270.0*
1,1,0.04528,-0.01870,-0.02805*
1,1,0.04528,-0.01870,0.02805*
1,1,0.04528,0.01870,0.02805*
1,1,0.04528,0.01870,-0.02805*
%
%ADD103ROUNDEDRECTD103*%
G04:AMPARAMS|DCode=104|XSize=54.13mil|YSize=82.68mil|CornerRadius=15.5mil|HoleSize=0mil|Usage=FLASHONLY|Rotation=270.000|XOffset=0mil|YOffset=0mil|HoleType=Round|Shape=RoundedRectangle|*
%AMROUNDEDRECTD104*
21,1,0.05413,0.05167,0,0,270.0*
21,1,0.02313,0.08268,0,0,270.0*
1,1,0.03100,-0.02584,-0.01157*
1,1,0.03100,-0.02584,0.01157*
1,1,0.03100,0.02584,0.01157*
1,1,0.03100,0.02584,-0.01157*
%
%ADD104ROUNDEDRECTD104*%
G04:AMPARAMS|DCode=105|XSize=65.94mil|YSize=86.61mil|CornerRadius=18.46mil|HoleSize=0mil|Usage=FLASHONLY|Rotation=270.000|XOffset=0mil|YOffset=0mil|HoleType=Round|Shape=RoundedRectangle|*
%AMROUNDEDRECTD105*
21,1,0.06594,0.04971,0,0,270.0*
21,1,0.02904,0.08661,0,0,270.0*
1,1,0.03691,-0.02485,-0.01452*
1,1,0.03691,-0.02485,0.01452*
1,1,0.03691,0.02485,0.01452*
1,1,0.03691,0.02485,-0.01452*
%
%ADD105ROUNDEDRECTD105*%
G04:AMPARAMS|DCode=106|XSize=65.94mil|YSize=90.55mil|CornerRadius=18.46mil|HoleSize=0mil|Usage=FLASHONLY|Rotation=270.000|XOffset=0mil|YOffset=0mil|HoleType=Round|Shape=RoundedRectangle|*
%AMROUNDEDRECTD106*
21,1,0.06594,0.05364,0,0,270.0*
21,1,0.02904,0.09055,0,0,270.0*
1,1,0.03691,-0.02682,-0.01452*
1,1,0.03691,-0.02682,0.01452*
1,1,0.03691,0.02682,0.01452*
1,1,0.03691,0.02682,-0.01452*
%
%ADD106ROUNDEDRECTD106*%
G04:AMPARAMS|DCode=107|XSize=25.59mil|YSize=62.21mil|CornerRadius=8.37mil|HoleSize=0mil|Usage=FLASHONLY|Rotation=90.000|XOffset=0mil|YOffset=0mil|HoleType=Round|Shape=RoundedRectangle|*
%AMROUNDEDRECTD107*
21,1,0.02559,0.04547,0,0,90.0*
21,1,0.00886,0.06221,0,0,90.0*
1,1,0.01673,0.02274,0.00443*
1,1,0.01673,0.02274,-0.00443*
1,1,0.01673,-0.02274,-0.00443*
1,1,0.01673,-0.02274,0.00443*
%
%ADD107ROUNDEDRECTD107*%
G04:AMPARAMS|DCode=108|XSize=31.5mil|YSize=55.12mil|CornerRadius=9.84mil|HoleSize=0mil|Usage=FLASHONLY|Rotation=90.000|XOffset=0mil|YOffset=0mil|HoleType=Round|Shape=RoundedRectangle|*
%AMROUNDEDRECTD108*
21,1,0.03150,0.03543,0,0,90.0*
21,1,0.01181,0.05512,0,0,90.0*
1,1,0.01969,0.01772,0.00591*
1,1,0.01969,0.01772,-0.00591*
1,1,0.01969,-0.01772,-0.00591*
1,1,0.01969,-0.01772,0.00591*
%
%ADD108ROUNDEDRECTD108*%
G04:AMPARAMS|DCode=109|XSize=29.53mil|YSize=66.93mil|CornerRadius=9.35mil|HoleSize=0mil|Usage=FLASHONLY|Rotation=0.000|XOffset=0mil|YOffset=0mil|HoleType=Round|Shape=RoundedRectangle|*
%AMROUNDEDRECTD109*
21,1,0.02953,0.04823,0,0,0.0*
21,1,0.01083,0.06693,0,0,0.0*
1,1,0.01870,0.00541,-0.02411*
1,1,0.01870,-0.00541,-0.02411*
1,1,0.01870,-0.00541,0.02411*
1,1,0.01870,0.00541,0.02411*
%
%ADD109ROUNDEDRECTD109*%
G04:AMPARAMS|DCode=110|XSize=82.68mil|YSize=110.24mil|CornerRadius=22.64mil|HoleSize=0mil|Usage=FLASHONLY|Rotation=180.000|XOffset=0mil|YOffset=0mil|HoleType=Round|Shape=RoundedRectangle|*
%AMROUNDEDRECTD110*
21,1,0.08268,0.06496,0,0,180.0*
21,1,0.03740,0.11024,0,0,180.0*
1,1,0.04528,-0.01870,0.03248*
1,1,0.04528,0.01870,0.03248*
1,1,0.04528,0.01870,-0.03248*
1,1,0.04528,-0.01870,-0.03248*
%
%ADD110ROUNDEDRECTD110*%
%ADD111O,0.32283X0.13780*%
%ADD112R,0.02756X0.03150*%
%ADD113R,0.05906X0.03150*%
G04:AMPARAMS|DCode=114|XSize=98.43mil|YSize=78.74mil|CornerRadius=21.65mil|HoleSize=0mil|Usage=FLASHONLY|Rotation=180.000|XOffset=0mil|YOffset=0mil|HoleType=Round|Shape=RoundedRectangle|*
%AMROUNDEDRECTD114*
21,1,0.09843,0.03543,0,0,180.0*
21,1,0.05512,0.07874,0,0,180.0*
1,1,0.04331,-0.02756,0.01772*
1,1,0.04331,0.02756,0.01772*
1,1,0.04331,0.02756,-0.01772*
1,1,0.04331,-0.02756,-0.01772*
%
%ADD114ROUNDEDRECTD114*%
G04:AMPARAMS|DCode=115|XSize=98.43mil|YSize=59.06mil|CornerRadius=16.73mil|HoleSize=0mil|Usage=FLASHONLY|Rotation=180.000|XOffset=0mil|YOffset=0mil|HoleType=Round|Shape=RoundedRectangle|*
%AMROUNDEDRECTD115*
21,1,0.09843,0.02559,0,0,180.0*
21,1,0.06496,0.05906,0,0,180.0*
1,1,0.03346,-0.03248,0.01280*
1,1,0.03346,0.03248,0.01280*
1,1,0.03346,0.03248,-0.01280*
1,1,0.03346,-0.03248,-0.01280*
%
%ADD115ROUNDEDRECTD115*%
%ADD116C,0.04724*%
G04:AMPARAMS|DCode=117|XSize=66.93mil|YSize=66.93mil|CornerRadius=18.7mil|HoleSize=0mil|Usage=FLASHONLY|Rotation=90.000|XOffset=0mil|YOffset=0mil|HoleType=Round|Shape=RoundedRectangle|*
%AMROUNDEDRECTD117*
21,1,0.06693,0.02953,0,0,90.0*
21,1,0.02953,0.06693,0,0,90.0*
1,1,0.03740,0.01476,0.01476*
1,1,0.03740,0.01476,-0.01476*
1,1,0.03740,-0.01476,-0.01476*
1,1,0.03740,-0.01476,0.01476*
%
%ADD117ROUNDEDRECTD117*%
%ADD118C,0.07480*%
%ADD119O,0.05512X0.04724*%
D74*
X15149Y-84167D02*
D03*
D75*
X14862Y-60236D02*
D03*
D76*
X136500Y-63244D02*
D03*
Y-68756D02*
D03*
X61122Y-45256D02*
D03*
Y-39744D02*
D03*
X55709Y-39744D02*
D03*
Y-45256D02*
D03*
X142250Y-73994D02*
D03*
Y-79506D02*
D03*
X125000Y-63494D02*
D03*
Y-69006D02*
D03*
X130750Y-63488D02*
D03*
Y-69000D02*
D03*
X55807Y-50591D02*
D03*
Y-56102D02*
D03*
X61122Y-50591D02*
D03*
Y-56102D02*
D03*
X29000Y-16831D02*
D03*
Y-11319D02*
D03*
X23500D02*
D03*
Y-16831D02*
D03*
X153750Y-2634D02*
D03*
Y-8146D02*
D03*
X150500Y-52494D02*
D03*
Y-58006D02*
D03*
X142250Y-69006D02*
D03*
Y-63494D02*
D03*
D77*
X159000Y-8146D02*
D03*
Y-3854D02*
D03*
X68250Y-36632D02*
D03*
X70218Y-41750D02*
D03*
X66281D02*
D03*
X123500Y-79118D02*
D03*
X121531Y-74000D02*
D03*
X125469D02*
D03*
X61468Y-30250D02*
D03*
X57531D02*
D03*
X59500Y-35368D02*
D03*
X150031Y-87250D02*
D03*
X153969D02*
D03*
X152000Y-82132D02*
D03*
X133250Y-79118D02*
D03*
X131281Y-74000D02*
D03*
X135219D02*
D03*
X85000Y-8146D02*
D03*
Y-3854D02*
D03*
X52500Y-8146D02*
D03*
Y-3854D02*
D03*
X126750Y-2604D02*
D03*
Y-6896D02*
D03*
X112750Y-17604D02*
D03*
Y-21896D02*
D03*
X75000Y-34854D02*
D03*
Y-39146D02*
D03*
X126750Y-15146D02*
D03*
Y-10854D02*
D03*
D78*
X99705Y-9449D02*
D03*
X109547D02*
D03*
D79*
X110610Y-4232D02*
D03*
X106319D02*
D03*
X157646Y-26000D02*
D03*
X153354D02*
D03*
X86854Y-13250D02*
D03*
X91146D02*
D03*
X165646Y-26000D02*
D03*
X161354D02*
D03*
X31791Y-22750D02*
D03*
X27500D02*
D03*
X104104Y-49750D02*
D03*
X108396D02*
D03*
X102736Y-4232D02*
D03*
X98445D02*
D03*
D80*
X72494Y-46250D02*
D03*
X78006D02*
D03*
X9941Y-39469D02*
D03*
X4429D02*
D03*
X114665Y-57480D02*
D03*
X109153D02*
D03*
X83858Y-56299D02*
D03*
X78347D02*
D03*
X106693Y-65256D02*
D03*
X101181D02*
D03*
X120866Y-14272D02*
D03*
X115354D02*
D03*
X72494Y-51500D02*
D03*
X78006D02*
D03*
X126006Y-35000D02*
D03*
X120494D02*
D03*
X132256Y-40500D02*
D03*
X126744D02*
D03*
X132994Y-35000D02*
D03*
X138506D02*
D03*
X90506Y-51500D02*
D03*
X84994D02*
D03*
X145506Y-86750D02*
D03*
X139994D02*
D03*
D81*
X143280Y-4963D02*
D03*
X141311D02*
D03*
X139342D02*
D03*
X137374D02*
D03*
X135406D02*
D03*
Y-27010D02*
D03*
X137374D02*
D03*
X139342D02*
D03*
X141311D02*
D03*
X143280D02*
D03*
D82*
X29823Y-46358D02*
D03*
Y-51870D02*
D03*
D83*
X24705Y-46555D02*
D03*
X19193D02*
D03*
D84*
X150500Y-76815D02*
D03*
Y-66185D02*
D03*
X93307Y-74410D02*
D03*
Y-85039D02*
D03*
D85*
X130815Y-86000D02*
D03*
X120185D02*
D03*
X37250Y-18250D02*
D03*
X47880D02*
D03*
D86*
X96752Y-56004D02*
D03*
X102657Y-54035D02*
D03*
Y-57973D02*
D03*
D87*
X105413Y-17421D02*
D03*
X103445D02*
D03*
X101476D02*
D03*
X99508D02*
D03*
X97539D02*
D03*
X95571D02*
D03*
X93602D02*
D03*
X91634D02*
D03*
X89665D02*
D03*
X87697D02*
D03*
X85728D02*
D03*
X83760D02*
D03*
Y-45374D02*
D03*
X85728D02*
D03*
X87697D02*
D03*
X89665D02*
D03*
X91634D02*
D03*
X93602D02*
D03*
X95571D02*
D03*
X97539D02*
D03*
X99508D02*
D03*
X101476D02*
D03*
X103445D02*
D03*
X105413D02*
D03*
D88*
X80610Y-20571D02*
D03*
Y-22539D02*
D03*
Y-24508D02*
D03*
Y-26476D02*
D03*
Y-28445D02*
D03*
Y-30413D02*
D03*
Y-32382D02*
D03*
Y-34350D02*
D03*
Y-36319D02*
D03*
Y-38287D02*
D03*
Y-40256D02*
D03*
Y-42224D02*
D03*
X108563D02*
D03*
Y-40256D02*
D03*
Y-38287D02*
D03*
Y-36319D02*
D03*
Y-34350D02*
D03*
Y-32382D02*
D03*
Y-30413D02*
D03*
Y-28445D02*
D03*
Y-26476D02*
D03*
Y-24508D02*
D03*
Y-22539D02*
D03*
Y-20571D02*
D03*
D89*
X94587Y-31398D02*
D03*
D90*
X24311Y-29528D02*
D03*
X31791D02*
D03*
Y-38976D02*
D03*
X28051D02*
D03*
X24311D02*
D03*
D91*
X154776Y-13510D02*
D03*
Y-17250D02*
D03*
Y-20990D02*
D03*
X164224D02*
D03*
Y-13510D02*
D03*
D92*
X13878Y-37303D02*
D03*
X19783D02*
D03*
D93*
X38583Y-31201D02*
D03*
D94*
X49606D02*
D03*
D95*
X84768Y-65158D02*
D03*
X94768D02*
D03*
X84917Y-84842D02*
D03*
X74917D02*
D03*
D96*
X107480Y-75394D02*
D03*
X114370D02*
D03*
Y-87205D02*
D03*
X107480D02*
D03*
D97*
X165305Y-60805D02*
D03*
D98*
X171211Y-76947D02*
D03*
X159793D02*
D03*
D99*
X43012Y-48130D02*
D03*
D100*
X39075Y-41043D02*
D03*
X41043D02*
D03*
X43012D02*
D03*
X44980D02*
D03*
X46949D02*
D03*
Y-55216D02*
D03*
X44980D02*
D03*
X43012D02*
D03*
X41043D02*
D03*
X39075D02*
D03*
D101*
X50098Y-45177D02*
D03*
Y-51083D02*
D03*
X35925D02*
D03*
Y-45177D02*
D03*
D102*
X101279Y-85433D02*
D03*
Y-75984D02*
D03*
D103*
X5315Y-30807D02*
D03*
Y-7579D02*
D03*
D104*
Y-15846D02*
D03*
Y-22539D02*
D03*
D105*
X14567Y-9350D02*
D03*
D106*
X14370Y-29035D02*
D03*
D107*
X15748Y-14075D02*
D03*
Y-24311D02*
D03*
Y-21752D02*
D03*
Y-16634D02*
D03*
Y-19193D02*
D03*
D108*
X35750Y-3839D02*
D03*
Y-7579D02*
D03*
Y-11319D02*
D03*
X44805D02*
D03*
Y-7579D02*
D03*
Y-3839D02*
D03*
D109*
X139000Y-57750D02*
D03*
X135260Y-50270D02*
D03*
X142740D02*
D03*
D110*
X77165Y-7776D02*
D03*
X60433D02*
D03*
D111*
X66122Y-72028D02*
D03*
D112*
X116535Y-10236D02*
D03*
X120473D02*
D03*
X118504Y-5118D02*
D03*
D113*
X12687Y-47911D02*
D03*
X4420Y-51651D02*
D03*
Y-44171D02*
D03*
D114*
X10638Y-58358D02*
D03*
D115*
X10039Y-86319D02*
D03*
D116*
X54500Y-33750D02*
D03*
X65000D02*
D03*
D117*
X19488Y-53937D02*
D03*
D118*
X165750Y-4250D02*
D03*
X171500Y-85888D02*
D03*
D119*
X114500Y-43500D02*
D03*
X114567Y-50689D02*
D03*
M02*
