M48
;Layer_Color=9474304
;FILE_FORMAT=2:5
INCH,LZ
;TYPE=PLATED
T1F00S00C0.01181
T2F00S00C0.01378
T3F00S00C0.01732
T4F00S00C0.01968
T5F00S00C0.03150
T6F00S00C0.03543
%
T01
X01745Y-007125
X01725Y-00475
Y-00425
Y-00375
Y-00325
X01675
X01625
X01575
X0157646Y-002875
X0165646
X01525Y-00325
X01475
Y-00375
Y-00425
X014025Y-00405
X013625Y-00405
X0138056Y-00485
X01388Y-0052
X013175Y-00525
X012775
X0124748Y-0051754
X012275Y-0054
X0120866Y-0049606
X01187Y-0046
X010875Y-0045374
X01045Y-004925
X00955Y-0049
X00975Y-00515
X0098917Y-0040059
X0103248
Y-0035728
Y-0031398
Y-0027067
X0098917
Y-0031398
Y-0035728
X0094587
Y-0031398
Y-0027067
X0090256
Y-0031398
Y-0035728
Y-0040059
X0094587
X0085925
Y-0035728
Y-0031398
Y-0027067
X0077Y-003125
X0078Y-004025
X0076002Y-004275
X0073Y-00425
X00725Y-0037
X006575Y-0029777
X006125Y-0027
X00555Y-0026
X0054232Y-0029921
X0043484Y-0027
X0045573Y-0037699
X0045177Y-0045965
Y-0050295
X0040846
Y-0045965
X0033169Y-0042126
X0032283Y-0034941
X0029035Y-003
X0026969Y-0045374
X0027165Y-0048327
X0023819Y-0050403
X002372Y-0060335
X0030906Y-0056791
X0035039Y-0057284
X0035531Y-0054035
X0049313Y-0057286
X005265Y-005915
X0053349Y-0048723
X0064Y-0048
X0069Y-004875
X00815Y-0050864
X0094095Y-0071063
X0098524Y-0070276
X0114Y-0065
X0118
X012145Y-00662
X012125Y-0071
X011835Y-00734
X011865Y-00761
X012835
X012825Y-00727
X012775Y-006625
X013375Y-0066
X01345Y-00595
X012925
X012775Y-00485
X013175
X01295Y-00362
X014Y-003125
X011275Y-0028445
X011625Y-008375
X0111Y-008725
X012625Y-0086
Y-00828
X013575Y-008275
X0139
X014275Y-008325
X014875Y-008395
Y-00812
X015505
X0157Y-008725
X0153934Y-0070057
X0154Y-006225
X015425Y-005575
X01575Y-00475
X01625
X01675
X014225Y-005975
X013875Y-0072
X013825Y-0076
X013575Y-00865
X0024213Y-0087697
X0018602Y-0087598
X0021358Y-008435
X0006053Y-0049461
X0004823Y-0039862
X0005315Y-0022539
Y-0015846
X0011Y-0014075
Y-0024311
X002075Y-00227
X002405
X0031791Y-002
X003275Y-001675
X003225Y-0014
X002625
Y-00083
X00289Y-0007
X00249Y-00023
X00205Y-0014
X00415Y-001825
X00434Y-001685
X005225Y-0017
X005675Y-0018
X0058712Y-0018457
X0061714Y-0017229
X0065Y-00165
X00715Y-001725
X0076
X008075
X0085925Y-0022736
X0090256
X0094587
X0098917
X0103248
X0108667Y-0017225
X0104237Y-001063
X0092618Y-0012303
X0091634Y-0002264
X0087894Y-0002165
X0082Y-0002
X00695
X006645
X00665Y-00065
X006925
X005525Y-0002
X004975
X00403Y-00051
X0054Y-0023
X005675Y-002125
X0095571Y-0002264
X0113681
X011379Y-0006766
X012125Y-000325
X012375
X012995Y-000695
X013Y-0010854
X013065Y-001515
Y-00189
X01267
Y-00229
X013065
X01285Y-00255
X0139342Y-0023223
X014375Y-00215
Y-00165
X013875
X0139342Y-000925
X014328Y-0010854
X0148Y-001075
Y-0005
X01325Y-00055
X01595Y-001155
Y-001525
Y-001925
X01625Y-001715
X0165646Y-001675
X016775Y-000925
X016275
X0115065Y-0024214
T02
X0067326Y-0051971
T03
X015025Y-00495
T04
X00545Y-003375
X0065
X01145Y-00435
X0114567Y-0050689
T05
X0019488Y-0053937
X0010638Y-0058358
X0010039Y-0086319
T06
X01715Y-0085888
X016575Y-000425
M30
