G04 Layer_Physical_Order=2*
G04 Layer_Color=16711680*
%FSLAX25Y25*%
%MOIN*%
G70*
G01*
G75*
%ADD10C,0.01969*%
G04:AMPARAMS|DCode=11|XSize=35.43mil|YSize=31.5mil|CornerRadius=7.87mil|HoleSize=0mil|Usage=FLASHONLY|Rotation=180.000|XOffset=0mil|YOffset=0mil|HoleType=Round|Shape=RoundedRectangle|*
%AMROUNDEDRECTD11*
21,1,0.03543,0.01575,0,0,180.0*
21,1,0.01969,0.03150,0,0,180.0*
1,1,0.01575,-0.00984,0.00787*
1,1,0.01575,0.00984,0.00787*
1,1,0.01575,0.00984,-0.00787*
1,1,0.01575,-0.00984,-0.00787*
%
%ADD11ROUNDEDRECTD11*%
G04:AMPARAMS|DCode=12|XSize=19.69mil|YSize=23.62mil|CornerRadius=4.92mil|HoleSize=0mil|Usage=FLASHONLY|Rotation=180.000|XOffset=0mil|YOffset=0mil|HoleType=Round|Shape=RoundedRectangle|*
%AMROUNDEDRECTD12*
21,1,0.01969,0.01378,0,0,180.0*
21,1,0.00984,0.02362,0,0,180.0*
1,1,0.00984,-0.00492,0.00689*
1,1,0.00984,0.00492,0.00689*
1,1,0.00984,0.00492,-0.00689*
1,1,0.00984,-0.00492,-0.00689*
%
%ADD12ROUNDEDRECTD12*%
G04:AMPARAMS|DCode=15|XSize=35.43mil|YSize=31.5mil|CornerRadius=7.87mil|HoleSize=0mil|Usage=FLASHONLY|Rotation=90.000|XOffset=0mil|YOffset=0mil|HoleType=Round|Shape=RoundedRectangle|*
%AMROUNDEDRECTD15*
21,1,0.03543,0.01575,0,0,90.0*
21,1,0.01969,0.03150,0,0,90.0*
1,1,0.01575,0.00787,0.00984*
1,1,0.01575,0.00787,-0.00984*
1,1,0.01575,-0.00787,-0.00984*
1,1,0.01575,-0.00787,0.00984*
%
%ADD15ROUNDEDRECTD15*%
%ADD18R,0.03150X0.03543*%
%ADD47R,0.01969X0.02362*%
%ADD49C,0.00984*%
%ADD50C,0.00787*%
%ADD51C,0.01181*%
%ADD52C,0.01575*%
%ADD53C,0.01772*%
G04:AMPARAMS|DCode=58|XSize=90.55mil|YSize=70.87mil|CornerRadius=17.72mil|HoleSize=0mil|Usage=FLASHONLY|Rotation=180.000|XOffset=0mil|YOffset=0mil|HoleType=Round|Shape=RoundedRectangle|*
%AMROUNDEDRECTD58*
21,1,0.09055,0.03543,0,0,180.0*
21,1,0.05512,0.07087,0,0,180.0*
1,1,0.03543,-0.02756,0.01772*
1,1,0.03543,0.02756,0.01772*
1,1,0.03543,0.02756,-0.01772*
1,1,0.03543,-0.02756,-0.01772*
%
%ADD58ROUNDEDRECTD58*%
G04:AMPARAMS|DCode=59|XSize=90.55mil|YSize=51.18mil|CornerRadius=12.8mil|HoleSize=0mil|Usage=FLASHONLY|Rotation=180.000|XOffset=0mil|YOffset=0mil|HoleType=Round|Shape=RoundedRectangle|*
%AMROUNDEDRECTD59*
21,1,0.09055,0.02559,0,0,180.0*
21,1,0.06496,0.05118,0,0,180.0*
1,1,0.02559,-0.03248,0.01280*
1,1,0.02559,0.03248,0.01280*
1,1,0.02559,0.03248,-0.01280*
1,1,0.02559,-0.03248,-0.01280*
%
%ADD59ROUNDEDRECTD59*%
%ADD60C,0.03937*%
G04:AMPARAMS|DCode=61|XSize=59.06mil|YSize=59.06mil|CornerRadius=14.76mil|HoleSize=0mil|Usage=FLASHONLY|Rotation=90.000|XOffset=0mil|YOffset=0mil|HoleType=Round|Shape=RoundedRectangle|*
%AMROUNDEDRECTD61*
21,1,0.05906,0.02953,0,0,90.0*
21,1,0.02953,0.05906,0,0,90.0*
1,1,0.02953,0.01476,0.01476*
1,1,0.02953,0.01476,-0.01476*
1,1,0.02953,-0.01476,-0.01476*
1,1,0.02953,-0.01476,0.01476*
%
%ADD61ROUNDEDRECTD61*%
%ADD62C,0.06693*%
%ADD63O,0.04724X0.03937*%
%ADD64C,0.02402*%
%ADD65C,0.03150*%
%ADD66C,0.02756*%
G04:AMPARAMS|DCode=67|XSize=59.06mil|YSize=39.37mil|CornerRadius=9.84mil|HoleSize=0mil|Usage=FLASHONLY|Rotation=270.000|XOffset=0mil|YOffset=0mil|HoleType=Round|Shape=RoundedRectangle|*
%AMROUNDEDRECTD67*
21,1,0.05906,0.01969,0,0,270.0*
21,1,0.03937,0.03937,0,0,270.0*
1,1,0.01969,-0.00984,-0.01969*
1,1,0.01969,-0.00984,0.01969*
1,1,0.01969,0.00984,0.01969*
1,1,0.01969,0.00984,-0.01969*
%
%ADD67ROUNDEDRECTD67*%
G04:AMPARAMS|DCode=68|XSize=59.06mil|YSize=68.9mil|CornerRadius=14.76mil|HoleSize=0mil|Usage=FLASHONLY|Rotation=270.000|XOffset=0mil|YOffset=0mil|HoleType=Round|Shape=RoundedRectangle|*
%AMROUNDEDRECTD68*
21,1,0.05906,0.03937,0,0,270.0*
21,1,0.02953,0.06890,0,0,270.0*
1,1,0.02953,-0.01969,-0.01476*
1,1,0.02953,-0.01969,0.01476*
1,1,0.02953,0.01969,0.01476*
1,1,0.02953,0.01969,-0.01476*
%
%ADD68ROUNDEDRECTD68*%
G04:AMPARAMS|DCode=69|XSize=31.5mil|YSize=55.12mil|CornerRadius=7.87mil|HoleSize=0mil|Usage=FLASHONLY|Rotation=180.000|XOffset=0mil|YOffset=0mil|HoleType=Round|Shape=RoundedRectangle|*
%AMROUNDEDRECTD69*
21,1,0.03150,0.03937,0,0,180.0*
21,1,0.01575,0.05512,0,0,180.0*
1,1,0.01575,-0.00787,0.01969*
1,1,0.01575,0.00787,0.01969*
1,1,0.01575,0.00787,-0.01969*
1,1,0.01575,-0.00787,-0.01969*
%
%ADD69ROUNDEDRECTD69*%
G36*
X162379Y-1503D02*
X161953Y-2058D01*
X161515Y-3115D01*
X161432Y-3750D01*
X165750D01*
Y-4250D01*
X166250D01*
Y-8568D01*
X166885Y-8485D01*
X167942Y-8047D01*
X168850Y-7350D01*
X169023Y-7124D01*
X169497Y-7285D01*
Y-27067D01*
X169573Y-27451D01*
X169790Y-27777D01*
X170116Y-27994D01*
X170500Y-28071D01*
X176162D01*
Y-84479D01*
X175662Y-84578D01*
X175297Y-83696D01*
X174600Y-82788D01*
X173692Y-82092D01*
X172635Y-81654D01*
X172000Y-81570D01*
Y-85888D01*
X171500D01*
Y-86388D01*
X167182D01*
X167265Y-87023D01*
X167703Y-88080D01*
X168400Y-88988D01*
X168512Y-89074D01*
X168351Y-89548D01*
X94587D01*
X94587Y-89548D01*
X15305D01*
X15061Y-89048D01*
X15435Y-88488D01*
X15612Y-87598D01*
Y-86819D01*
X10039D01*
Y-86319D01*
X9539D01*
Y-82715D01*
X6791D01*
X6424Y-82788D01*
X5988Y-82508D01*
X6257Y-82185D01*
X24565D01*
X26751Y-84371D01*
X27077Y-84589D01*
X27362Y-84645D01*
X27657Y-84941D01*
X39961D01*
X40305Y-84596D01*
X40345Y-84589D01*
X40670Y-84371D01*
X45415Y-79626D01*
X49311D01*
X49508Y-79823D01*
Y-65551D01*
X48917Y-64961D01*
X45907D01*
X41261Y-60314D01*
X40935Y-60097D01*
X40551Y-60020D01*
X27559D01*
X27175Y-60097D01*
X26849Y-60314D01*
X24978Y-62186D01*
X15940D01*
X15694Y-61686D01*
X15815Y-61528D01*
X16094Y-60853D01*
X16189Y-60130D01*
Y-58858D01*
X10638D01*
Y-58358D01*
X10138D01*
Y-53791D01*
X7882D01*
X7158Y-53886D01*
X6484Y-54166D01*
X5905Y-54610D01*
X5461Y-55189D01*
X5342Y-55476D01*
X4842Y-55376D01*
Y-54429D01*
X4766Y-54045D01*
X4548Y-53720D01*
X4223Y-53502D01*
X3839Y-53426D01*
X1003D01*
Y-52772D01*
X1961D01*
Y-50000D01*
Y-47228D01*
X1003D01*
Y-45838D01*
X1503Y-45684D01*
X2168Y-46128D01*
X3051Y-46304D01*
X6988D01*
X7871Y-46128D01*
X8620Y-45628D01*
X9121Y-44879D01*
X9296Y-43996D01*
Y-41043D01*
X9121Y-40160D01*
X8620Y-39411D01*
X7871Y-38911D01*
X6988Y-38735D01*
X6461D01*
X6256Y-38429D01*
X5599Y-37989D01*
X4823Y-37835D01*
X4047Y-37989D01*
X3389Y-38429D01*
X3185Y-38735D01*
X3051D01*
X2168Y-38911D01*
X1503Y-39355D01*
X1003Y-39202D01*
Y-1003D01*
X162132D01*
X162379Y-1503D01*
D02*
G37*
%LPC*%
G36*
X14000Y-33947D02*
X13713D01*
Y-36253D01*
X15822D01*
Y-35769D01*
X15684Y-35072D01*
X15289Y-34481D01*
X14697Y-34086D01*
X14000Y-33947D01*
D02*
G37*
G36*
X6500Y-31000D02*
X3993D01*
Y-32469D01*
X4147Y-33243D01*
X4585Y-33899D01*
X5241Y-34338D01*
X6016Y-34492D01*
X6500D01*
Y-31000D01*
D02*
G37*
G36*
X15822Y-37253D02*
X13713D01*
Y-39560D01*
X14000D01*
X14697Y-39421D01*
X15289Y-39026D01*
X15684Y-38435D01*
X15822Y-37738D01*
Y-37253D01*
D02*
G37*
G36*
X12713Y-33947D02*
X12425D01*
X11728Y-34086D01*
X11136Y-34481D01*
X10741Y-35072D01*
X10603Y-35769D01*
Y-36253D01*
X12713D01*
Y-33947D01*
D02*
G37*
G36*
X165646Y-14723D02*
X164870Y-14877D01*
X164212Y-15317D01*
X163773Y-15974D01*
X163619Y-16750D01*
X163773Y-17526D01*
X164212Y-18183D01*
X164241Y-18202D01*
Y-27298D01*
X164212Y-27317D01*
X163773Y-27974D01*
X163619Y-28750D01*
X163773Y-29526D01*
X164212Y-30183D01*
X164870Y-30623D01*
X165646Y-30777D01*
X166421Y-30623D01*
X167079Y-30183D01*
X167518Y-29526D01*
X167673Y-28750D01*
X167518Y-27974D01*
X167079Y-27317D01*
X167051Y-27298D01*
Y-18202D01*
X167079Y-18183D01*
X167518Y-17526D01*
X167673Y-16750D01*
X167518Y-15974D01*
X167079Y-15317D01*
X166421Y-14877D01*
X165646Y-14723D01*
D02*
G37*
G36*
X6500Y-26508D02*
X6016D01*
X5241Y-26662D01*
X4585Y-27101D01*
X4147Y-27757D01*
X3993Y-28532D01*
Y-30000D01*
X6500D01*
Y-26508D01*
D02*
G37*
G36*
X128500Y-23473D02*
X127724Y-23627D01*
X127067Y-24067D01*
X126627Y-24724D01*
X126473Y-25500D01*
X126627Y-26276D01*
X127067Y-26933D01*
X127724Y-27373D01*
X128500Y-27527D01*
X129276Y-27373D01*
X129933Y-26933D01*
X130019Y-26805D01*
X134771D01*
X138253Y-30286D01*
X138127Y-30474D01*
X137973Y-31250D01*
X138127Y-32026D01*
X138567Y-32683D01*
X139224Y-33123D01*
X140000Y-33277D01*
X140776Y-33123D01*
X141433Y-32683D01*
X141873Y-32026D01*
X142027Y-31250D01*
X141873Y-30474D01*
X141433Y-29817D01*
X141174Y-29644D01*
X140922Y-29267D01*
X136233Y-24577D01*
X135810Y-24295D01*
X135311Y-24195D01*
X130019D01*
X129933Y-24067D01*
X129276Y-23627D01*
X128500Y-23473D01*
D02*
G37*
G36*
X10007Y-31000D02*
X7500D01*
Y-34492D01*
X7984D01*
X8759Y-34338D01*
X9415Y-33899D01*
X9853Y-33243D01*
X10007Y-32469D01*
Y-31000D01*
D02*
G37*
G36*
X76433Y-30618D02*
X73925D01*
Y-34110D01*
X74409D01*
X75184Y-33956D01*
X75840Y-33517D01*
X76279Y-32861D01*
X76433Y-32087D01*
Y-30618D01*
D02*
G37*
G36*
X12713Y-37253D02*
X10603D01*
Y-37738D01*
X10741Y-38435D01*
X11136Y-39026D01*
X11728Y-39421D01*
X12425Y-39560D01*
X12713D01*
Y-37253D01*
D02*
G37*
G36*
X171000Y-81570D02*
X170365Y-81654D01*
X169308Y-82092D01*
X168400Y-82788D01*
X167703Y-83696D01*
X167265Y-84754D01*
X167182Y-85388D01*
X171000D01*
Y-81570D01*
D02*
G37*
G36*
X55300Y-56612D02*
X52993D01*
Y-56899D01*
X53132Y-57597D01*
X53527Y-58188D01*
X54118Y-58583D01*
X54816Y-58722D01*
X55300D01*
Y-56612D01*
D02*
G37*
G36*
X13287Y-82715D02*
X10539D01*
Y-85819D01*
X15612D01*
Y-85039D01*
X15435Y-84150D01*
X14931Y-83396D01*
X14177Y-82892D01*
X13287Y-82715D01*
D02*
G37*
G36*
X32972Y-49477D02*
X31398D01*
X30783Y-49599D01*
X30262Y-49947D01*
X29914Y-50468D01*
X29792Y-51083D01*
Y-53051D01*
X29914Y-53666D01*
X30262Y-54187D01*
X30783Y-54535D01*
X31398Y-54657D01*
X32972D01*
X33587Y-54535D01*
X34108Y-54187D01*
X34456Y-53666D01*
X34460Y-53644D01*
X34690Y-53490D01*
X35125Y-53055D01*
X36075D01*
X46063Y-63043D01*
X46617Y-63413D01*
X47270Y-63543D01*
X53132D01*
X57320Y-67731D01*
X57873Y-68101D01*
X58526Y-68230D01*
X106982D01*
X113957Y-75206D01*
Y-83163D01*
X114087Y-83816D01*
X114299Y-84133D01*
X114377Y-84526D01*
X114817Y-85183D01*
X115474Y-85623D01*
X116250Y-85777D01*
X117026Y-85623D01*
X117683Y-85183D01*
X118123Y-84526D01*
X118277Y-83750D01*
X118123Y-82974D01*
X117683Y-82317D01*
X117369Y-82107D01*
Y-74499D01*
X117239Y-73847D01*
X116870Y-73293D01*
X108895Y-65318D01*
X108341Y-64948D01*
X107688Y-64818D01*
X59233D01*
X55045Y-60630D01*
X54491Y-60260D01*
X53839Y-60131D01*
X47976D01*
X37988Y-50143D01*
X37435Y-49773D01*
X36782Y-49643D01*
X34419D01*
X33828Y-49760D01*
X33587Y-49599D01*
X32972Y-49477D01*
D02*
G37*
G36*
X58607Y-56612D02*
X56300D01*
Y-58722D01*
X56784D01*
X57482Y-58583D01*
X58073Y-58188D01*
X58468Y-57597D01*
X58607Y-56899D01*
Y-56612D01*
D02*
G37*
G36*
X136250Y-38473D02*
X135474Y-38627D01*
X134817Y-39067D01*
X134377Y-39724D01*
X134223Y-40500D01*
X134377Y-41276D01*
X134817Y-41933D01*
X135474Y-42373D01*
X136250Y-42527D01*
X136402Y-42497D01*
X136752Y-42847D01*
Y-46981D01*
X136623Y-47067D01*
X136184Y-47724D01*
X136029Y-48500D01*
X136184Y-49276D01*
X136623Y-49933D01*
X137281Y-50373D01*
X138056Y-50527D01*
X138832Y-50373D01*
X139490Y-49933D01*
X139929Y-49276D01*
X140084Y-48500D01*
X139929Y-47724D01*
X139490Y-47067D01*
X139361Y-46981D01*
Y-42306D01*
X139262Y-41807D01*
X138979Y-41384D01*
X138247Y-40652D01*
X138277Y-40500D01*
X138123Y-39724D01*
X137683Y-39067D01*
X137026Y-38627D01*
X136250Y-38473D01*
D02*
G37*
G36*
X114894Y-40720D02*
X114106D01*
X113387Y-40815D01*
X112716Y-41093D01*
X112141Y-41535D01*
X111699Y-42110D01*
X111421Y-42781D01*
X111327Y-43500D01*
X111421Y-44219D01*
X111699Y-44890D01*
X112141Y-45465D01*
X112716Y-45907D01*
X113387Y-46185D01*
X114106Y-46280D01*
X114894D01*
X115613Y-46185D01*
X116284Y-45907D01*
X116859Y-45465D01*
X117301Y-44890D01*
X117579Y-44219D01*
X117673Y-43500D01*
X117579Y-42781D01*
X117301Y-42110D01*
X116859Y-41535D01*
X116284Y-41093D01*
X115613Y-40815D01*
X114894Y-40720D01*
D02*
G37*
G36*
X55300Y-53502D02*
X54816D01*
X54118Y-53641D01*
X53527Y-54036D01*
X53132Y-54627D01*
X52993Y-55324D01*
Y-55612D01*
X55300D01*
Y-53502D01*
D02*
G37*
G36*
X56784D02*
X56300D01*
Y-55612D01*
X58607D01*
Y-55324D01*
X58468Y-54627D01*
X58073Y-54036D01*
X57482Y-53641D01*
X56784Y-53502D01*
D02*
G37*
G36*
X7984Y-26508D02*
X7500D01*
Y-30000D01*
X10007D01*
Y-28532D01*
X9853Y-27757D01*
X9415Y-27101D01*
X8759Y-26662D01*
X7984Y-26508D01*
D02*
G37*
G36*
X165250Y-4750D02*
X161432D01*
X161515Y-5385D01*
X161953Y-6442D01*
X162650Y-7350D01*
X163558Y-8047D01*
X164615Y-8485D01*
X165250Y-8568D01*
Y-4750D01*
D02*
G37*
G36*
X6500Y-2886D02*
X6016D01*
X5241Y-3040D01*
X4585Y-3479D01*
X4147Y-4135D01*
X3993Y-4909D01*
Y-6378D01*
X6500D01*
Y-2886D01*
D02*
G37*
G36*
X34006Y-2721D02*
X32037D01*
X31346Y-2859D01*
X30760Y-3250D01*
X30369Y-3836D01*
X30231Y-4528D01*
Y-8465D01*
X30369Y-9156D01*
X30760Y-9742D01*
X31346Y-10133D01*
X32037Y-10271D01*
X34006D01*
X34697Y-10133D01*
X35283Y-9742D01*
X35675Y-9156D01*
X35812Y-8465D01*
Y-4528D01*
X35675Y-3836D01*
X35283Y-3250D01*
X34697Y-2859D01*
X34006Y-2721D01*
D02*
G37*
G36*
X47089Y-6996D02*
X44581D01*
Y-8465D01*
X44735Y-9239D01*
X45174Y-9895D01*
X45830Y-10334D01*
X46604Y-10488D01*
X47089D01*
Y-6996D01*
D02*
G37*
G36*
X50596D02*
X48089D01*
Y-10488D01*
X48573D01*
X49347Y-10334D01*
X50003Y-9895D01*
X50442Y-9239D01*
X50596Y-8465D01*
Y-6996D01*
D02*
G37*
G36*
X47089Y-2504D02*
X46604D01*
X45830Y-2658D01*
X45174Y-3097D01*
X44735Y-3753D01*
X44581Y-4528D01*
Y-5996D01*
X47089D01*
Y-2504D01*
D02*
G37*
G36*
X48573D02*
X48089D01*
Y-5996D01*
X50596D01*
Y-4528D01*
X50442Y-3753D01*
X50003Y-3097D01*
X49347Y-2658D01*
X48573Y-2504D01*
D02*
G37*
G36*
X74409D02*
X73925D01*
Y-5996D01*
X76433D01*
Y-4528D01*
X76279Y-3753D01*
X75840Y-3097D01*
X75184Y-2658D01*
X74409Y-2504D01*
D02*
G37*
G36*
X7984Y-2886D02*
X7500D01*
Y-6378D01*
X10007D01*
Y-4909D01*
X9853Y-4135D01*
X9415Y-3479D01*
X8759Y-3040D01*
X7984Y-2886D01*
D02*
G37*
G36*
X72925Y-2504D02*
X72441D01*
X71667Y-2658D01*
X71010Y-3097D01*
X70572Y-3753D01*
X70418Y-4528D01*
Y-5996D01*
X72925D01*
Y-2504D01*
D02*
G37*
G36*
X22551Y-3103D02*
X20583D01*
X19891Y-3241D01*
X19305Y-3632D01*
X18914Y-4218D01*
X18776Y-4909D01*
Y-8846D01*
X18914Y-9538D01*
X19305Y-10124D01*
X19891Y-10515D01*
X20583Y-10653D01*
X22551D01*
X23242Y-10515D01*
X23829Y-10124D01*
X24220Y-9538D01*
X24358Y-8846D01*
Y-4909D01*
X24220Y-4218D01*
X23829Y-3632D01*
X23242Y-3241D01*
X22551Y-3103D01*
D02*
G37*
G36*
X11000Y-12048D02*
X10224Y-12202D01*
X9567Y-12641D01*
X9127Y-13299D01*
X8973Y-14075D01*
X9127Y-14851D01*
X9567Y-15508D01*
X10224Y-15948D01*
X11000Y-16102D01*
X11776Y-15948D01*
X12025Y-15781D01*
X14868D01*
X17544Y-18456D01*
X18097Y-18826D01*
X18750Y-18956D01*
X28335D01*
X29860Y-20481D01*
X29919Y-20776D01*
X30358Y-21433D01*
X31016Y-21873D01*
X31791Y-22027D01*
X32567Y-21873D01*
X33225Y-21433D01*
X33664Y-20776D01*
X33819Y-20000D01*
X33664Y-19224D01*
X33225Y-18567D01*
X32567Y-18127D01*
X32273Y-18069D01*
X30248Y-16044D01*
X29694Y-15674D01*
X29041Y-15544D01*
X19457D01*
X16781Y-12868D01*
X16228Y-12499D01*
X15575Y-12369D01*
X12025D01*
X11776Y-12202D01*
X11000Y-12048D01*
D02*
G37*
G36*
X59842Y-2721D02*
X57874D01*
X57183Y-2859D01*
X56597Y-3250D01*
X56205Y-3836D01*
X56068Y-4528D01*
Y-8465D01*
X56172Y-8990D01*
X55873Y-9490D01*
X54846D01*
X54347Y-9589D01*
X53924Y-9872D01*
X43784Y-20012D01*
X40250D01*
X39750Y-20112D01*
X39327Y-20394D01*
X37026Y-22695D01*
X25993D01*
X25493Y-22795D01*
X25070Y-23077D01*
X24202Y-23945D01*
X19508D01*
X19009Y-24045D01*
X18585Y-24328D01*
X17077Y-25835D01*
X16795Y-26259D01*
X16695Y-26758D01*
Y-34793D01*
X16454Y-35155D01*
X16331Y-35769D01*
Y-37738D01*
X16454Y-38352D01*
X16802Y-38873D01*
Y-38998D01*
X16183Y-39411D01*
X15683Y-40160D01*
X15549Y-40834D01*
X14997Y-40944D01*
X14443Y-41313D01*
X10486Y-45271D01*
X10469Y-45274D01*
X10173Y-45472D01*
X9646D01*
Y-45914D01*
X8119Y-47441D01*
X6928D01*
X6898Y-47421D01*
X6053Y-47253D01*
X5535Y-47356D01*
X5035Y-47228D01*
Y-47228D01*
X2961D01*
Y-50000D01*
Y-52772D01*
X5035D01*
Y-52406D01*
X5535Y-52097D01*
X5610Y-52135D01*
Y-52559D01*
X10335D01*
Y-50050D01*
X10976Y-49409D01*
X13083D01*
X13189Y-49409D01*
Y-49409D01*
X13583D01*
Y-49409D01*
X15828D01*
X16318Y-49899D01*
X16126Y-50361D01*
X13780D01*
X13127Y-50491D01*
X12977Y-50591D01*
X11614D01*
Y-53791D01*
X11138D01*
Y-57858D01*
X16189D01*
Y-57520D01*
X16689Y-57252D01*
X17129Y-57546D01*
X18012Y-57722D01*
X20965D01*
X21848Y-57546D01*
X22597Y-57046D01*
X23097Y-56297D01*
X23273Y-55413D01*
Y-52896D01*
X23659Y-52579D01*
X23819Y-52611D01*
X23828Y-52609D01*
X24280Y-52964D01*
Y-53051D01*
X24402Y-53666D01*
X24750Y-54187D01*
X25271Y-54535D01*
X25886Y-54657D01*
X27461D01*
X28075Y-54535D01*
X28596Y-54187D01*
X28944Y-53666D01*
X29066Y-53051D01*
Y-51083D01*
X28944Y-50468D01*
X28596Y-49947D01*
X28075Y-49599D01*
X27461Y-49477D01*
X25886D01*
X25814Y-49491D01*
X25380Y-48842D01*
X24664Y-48364D01*
X23819Y-48195D01*
X22974Y-48364D01*
X22936Y-48389D01*
X18781D01*
X17364Y-46972D01*
X17376Y-46708D01*
X17815Y-46304D01*
X21752D01*
X22635Y-46128D01*
X23384Y-45628D01*
X23884Y-44879D01*
X24060Y-43996D01*
Y-42456D01*
X26250D01*
X26903Y-42326D01*
X27456Y-41956D01*
X30059Y-39354D01*
X30437Y-39279D01*
X30958Y-38931D01*
X31306Y-38410D01*
X31429Y-37795D01*
Y-35827D01*
X31306Y-35212D01*
X30958Y-34691D01*
X30741Y-34547D01*
Y-33953D01*
X31241Y-33685D01*
X31346Y-33755D01*
X32037Y-33893D01*
X33029D01*
X33296Y-34393D01*
X33240Y-34477D01*
X33124Y-35059D01*
Y-35248D01*
X35138D01*
Y-36248D01*
X33124D01*
Y-36437D01*
X33240Y-37019D01*
X33570Y-37513D01*
X33888Y-37725D01*
X33930Y-38254D01*
X33916Y-38299D01*
X33723Y-38428D01*
X33440Y-38851D01*
X33341Y-39350D01*
Y-39542D01*
X32914Y-39969D01*
X32324Y-40086D01*
X31608Y-40565D01*
X31130Y-41281D01*
X30961Y-42126D01*
X31130Y-42971D01*
X31608Y-43687D01*
X32324Y-44166D01*
X33169Y-44334D01*
X34014Y-44166D01*
X34730Y-43687D01*
X35209Y-42971D01*
X35326Y-42382D01*
X35686Y-42022D01*
X36129Y-41934D01*
X36552Y-41651D01*
X36835Y-41228D01*
X36935Y-40728D01*
Y-40229D01*
X40629Y-36535D01*
X43191D01*
X43497Y-37035D01*
X43365Y-37699D01*
X43533Y-38544D01*
X44012Y-39260D01*
X44728Y-39738D01*
X45573Y-39906D01*
X46323Y-39757D01*
X48500Y-41935D01*
Y-55240D01*
X48469Y-55247D01*
X47752Y-55725D01*
X47274Y-56441D01*
X47106Y-57286D01*
X47274Y-58131D01*
X47752Y-58847D01*
X48469Y-59326D01*
X49313Y-59494D01*
X50158Y-59326D01*
X50875Y-58847D01*
X51353Y-58131D01*
X51521Y-57286D01*
X51353Y-56441D01*
X50909Y-55777D01*
Y-49869D01*
X51409Y-49717D01*
X51788Y-50284D01*
X52504Y-50763D01*
X53139Y-50889D01*
X53210Y-50960D01*
Y-51387D01*
X53332Y-52002D01*
X53680Y-52523D01*
X54201Y-52871D01*
X54816Y-52993D01*
X56784D01*
X57399Y-52871D01*
X57920Y-52523D01*
X58268Y-52002D01*
X58390Y-51387D01*
Y-49813D01*
X58268Y-49198D01*
X57920Y-48677D01*
X57399Y-48329D01*
X56784Y-48207D01*
X55454D01*
X55389Y-47878D01*
X55054Y-47377D01*
X55316Y-46877D01*
X64272D01*
X64986Y-47591D01*
Y-51036D01*
X65045Y-51331D01*
X64918Y-51971D01*
X65101Y-52893D01*
X65623Y-53674D01*
X66404Y-54196D01*
X67321Y-54378D01*
X75665Y-62722D01*
X76218Y-63092D01*
X76871Y-63222D01*
X123435D01*
X124088Y-63092D01*
X124641Y-62722D01*
X130471Y-56893D01*
X139413D01*
X140066Y-56763D01*
X140619Y-56393D01*
X145806Y-51206D01*
X148551D01*
X149328Y-51725D01*
X150250Y-51908D01*
X151172Y-51725D01*
X151953Y-51203D01*
X152475Y-50422D01*
X152658Y-49500D01*
X152475Y-48578D01*
X151953Y-47797D01*
X151172Y-47275D01*
X150250Y-47091D01*
X149328Y-47275D01*
X148551Y-47794D01*
X145099D01*
X144447Y-47924D01*
X143893Y-48294D01*
X138706Y-53481D01*
X129764D01*
X129111Y-53610D01*
X128558Y-53980D01*
X122728Y-59810D01*
X77578D01*
X69734Y-51966D01*
X69551Y-51049D01*
X69029Y-50268D01*
X68248Y-49746D01*
X67796Y-49656D01*
Y-47010D01*
X67689Y-46472D01*
X67385Y-46016D01*
X66405Y-45036D01*
Y-43350D01*
X66905Y-43301D01*
X66977Y-43665D01*
X67260Y-44088D01*
X72655Y-49483D01*
X73079Y-49766D01*
X73578Y-49866D01*
X79220D01*
X79572Y-50366D01*
X79473Y-50864D01*
X79627Y-51640D01*
X80067Y-52298D01*
X80724Y-52737D01*
X81500Y-52891D01*
X81652Y-52861D01*
X83506Y-54715D01*
X83930Y-54998D01*
X84429Y-55098D01*
X119707D01*
X120206Y-54998D01*
X120630Y-54715D01*
X122333Y-53012D01*
X123198D01*
X123315Y-53187D01*
X123973Y-53626D01*
X124748Y-53781D01*
X125524Y-53626D01*
X126182Y-53187D01*
X126621Y-52529D01*
X126776Y-51754D01*
X126621Y-50978D01*
X126182Y-50320D01*
X125524Y-49881D01*
X124748Y-49726D01*
X123973Y-49881D01*
X123315Y-50320D01*
X123260Y-50402D01*
X121793D01*
X121294Y-50502D01*
X120870Y-50785D01*
X119167Y-52488D01*
X117612D01*
X117405Y-51988D01*
X117646Y-51408D01*
X117740Y-50689D01*
X117646Y-49970D01*
X117368Y-49299D01*
X116926Y-48724D01*
X116350Y-48282D01*
X115680Y-48004D01*
X114961Y-47909D01*
X114173D01*
X113454Y-48004D01*
X112783Y-48282D01*
X112208Y-48724D01*
X111766Y-49299D01*
X111488Y-49970D01*
X111394Y-50689D01*
X111488Y-51408D01*
X111729Y-51988D01*
X111522Y-52488D01*
X99786D01*
X99430Y-51988D01*
X99527Y-51500D01*
X99373Y-50724D01*
X98933Y-50067D01*
X98276Y-49627D01*
X97926Y-49558D01*
X97527Y-49000D01*
X97373Y-48224D01*
X96933Y-47567D01*
X96276Y-47127D01*
X95500Y-46973D01*
X94724Y-47127D01*
X94067Y-47567D01*
X93627Y-48224D01*
X93473Y-49000D01*
X93060Y-49320D01*
X87515D01*
X84183Y-45987D01*
X83759Y-45704D01*
X83260Y-45605D01*
X74707D01*
X71071Y-41969D01*
Y-39397D01*
X71055Y-39312D01*
Y-34077D01*
X71496Y-33841D01*
X71667Y-33956D01*
X72441Y-34110D01*
X72925D01*
Y-30118D01*
Y-26127D01*
X72441D01*
X71667Y-26281D01*
X71496Y-26395D01*
X71055Y-26159D01*
Y-22000D01*
X70955Y-21501D01*
X70673Y-21078D01*
X66872Y-17277D01*
X66873Y-17276D01*
X67027Y-16500D01*
X66873Y-15724D01*
X66460Y-15106D01*
X66505Y-14910D01*
X66644Y-14606D01*
X75835D01*
X78285Y-17056D01*
X78288Y-17299D01*
X77816Y-17777D01*
X76478D01*
Y-19535D01*
X75007Y-21007D01*
X74702Y-21462D01*
X74595Y-22000D01*
Y-25654D01*
X74538Y-25799D01*
X74160Y-26127D01*
X73925D01*
Y-29618D01*
X76433D01*
Y-28822D01*
X76894Y-28631D01*
X77986Y-29723D01*
Y-34152D01*
X74375Y-37763D01*
X74070Y-38219D01*
X73963Y-38757D01*
Y-41237D01*
X74070Y-41774D01*
X74166Y-41918D01*
X74129Y-41974D01*
X73974Y-42750D01*
X74129Y-43526D01*
X74568Y-44183D01*
X75226Y-44623D01*
X76002Y-44777D01*
X76348Y-44708D01*
X76385Y-44733D01*
X77000Y-44856D01*
X105961D01*
X106783Y-45678D01*
X106877Y-46150D01*
X107317Y-46807D01*
X107974Y-47247D01*
X108750Y-47401D01*
X109526Y-47247D01*
X110183Y-46807D01*
X110623Y-46150D01*
X110777Y-45374D01*
X110623Y-44598D01*
X110183Y-43941D01*
X109526Y-43501D01*
X109054Y-43407D01*
X107761Y-42115D01*
X107240Y-41767D01*
X106626Y-41644D01*
X106626Y-41644D01*
X77654D01*
X77435Y-41317D01*
X77171Y-41140D01*
X76995Y-40877D01*
X76773Y-40655D01*
Y-39339D01*
X80385Y-35727D01*
X80689Y-35271D01*
X80796Y-34734D01*
Y-29141D01*
X80689Y-28603D01*
X80385Y-28148D01*
X78918Y-26680D01*
X79109Y-26219D01*
X80234D01*
Y-24537D01*
X78250D01*
Y-23537D01*
X80234D01*
Y-21856D01*
X80234D01*
X80022Y-21714D01*
Y-19965D01*
X80566Y-19421D01*
X80750Y-19458D01*
X81595Y-19290D01*
X82311Y-18811D01*
X82790Y-18095D01*
X82942Y-17329D01*
X90623Y-9648D01*
X105802D01*
X107061Y-10907D01*
Y-15731D01*
X106627Y-16380D01*
X106459Y-17225D01*
X106627Y-18070D01*
X107106Y-18786D01*
X107822Y-19265D01*
X108667Y-19433D01*
X109332Y-19301D01*
X109832Y-19606D01*
Y-20286D01*
X109932Y-20785D01*
X110214Y-21208D01*
X113068Y-24062D01*
X113038Y-24214D01*
X113192Y-24990D01*
X113631Y-25647D01*
X114289Y-26087D01*
X115065Y-26241D01*
X115840Y-26087D01*
X116498Y-25647D01*
X116937Y-24990D01*
X117092Y-24214D01*
X116937Y-23438D01*
X116498Y-22780D01*
X115840Y-22341D01*
X115065Y-22187D01*
X114913Y-22217D01*
X112441Y-19746D01*
Y-10054D01*
X112342Y-9554D01*
X112059Y-9131D01*
X108168Y-5240D01*
X107745Y-4957D01*
X107246Y-4858D01*
X89179D01*
X88680Y-4957D01*
X88257Y-5240D01*
X84007Y-9490D01*
X76666D01*
X76328Y-8990D01*
X76433Y-8465D01*
Y-6996D01*
X73425D01*
X70418D01*
Y-8465D01*
X70522Y-8990D01*
X70184Y-9490D01*
X61844D01*
X61544Y-8990D01*
X61649Y-8465D01*
Y-4528D01*
X61511Y-3836D01*
X61120Y-3250D01*
X60534Y-2859D01*
X59842Y-2721D01*
D02*
G37*
G36*
X6500Y-7378D02*
X3993D01*
Y-8846D01*
X4147Y-9621D01*
X4585Y-10277D01*
X5241Y-10716D01*
X6016Y-10870D01*
X6500D01*
Y-7378D01*
D02*
G37*
G36*
X143280Y-8827D02*
X142504Y-8981D01*
X141846Y-9421D01*
X141407Y-10079D01*
X141254Y-10845D01*
X137832D01*
X136848Y-9861D01*
X136392Y-9556D01*
X135854Y-9449D01*
X131452D01*
X131433Y-9421D01*
X130776Y-8981D01*
X130000Y-8827D01*
X129224Y-8981D01*
X128567Y-9421D01*
X128127Y-10079D01*
X127973Y-10854D01*
X128127Y-11630D01*
X128567Y-12288D01*
X129224Y-12727D01*
X130000Y-12881D01*
X130776Y-12727D01*
X131433Y-12288D01*
X131452Y-12259D01*
X135272D01*
X136257Y-13243D01*
X136712Y-13548D01*
X137250Y-13655D01*
X141884D01*
X142421Y-13548D01*
X142877Y-13243D01*
X143246Y-12875D01*
X143280Y-12881D01*
X144055Y-12727D01*
X144713Y-12288D01*
X145152Y-11630D01*
X145307Y-10854D01*
X145152Y-10079D01*
X144713Y-9421D01*
X144055Y-8981D01*
X143280Y-8827D01*
D02*
G37*
G36*
X10007Y-7378D02*
X7500D01*
Y-10870D01*
X7984D01*
X8759Y-10716D01*
X9415Y-10277D01*
X9853Y-9621D01*
X10007Y-8846D01*
Y-7378D01*
D02*
G37*
%LPD*%
G36*
X30454Y-27330D02*
X30369Y-27458D01*
X30291Y-27847D01*
X29874Y-28090D01*
X29757Y-28115D01*
X29746Y-28114D01*
X29035Y-27973D01*
X28260Y-28127D01*
X27602Y-28567D01*
X27163Y-29224D01*
X27008Y-30000D01*
X27163Y-30776D01*
X27329Y-31025D01*
Y-34547D01*
X27113Y-34691D01*
X26765Y-35212D01*
X26642Y-35827D01*
Y-37795D01*
X26667Y-37920D01*
X26336Y-38252D01*
X25875Y-38005D01*
X25917Y-37795D01*
Y-35827D01*
X25795Y-35212D01*
X25446Y-34691D01*
X24926Y-34343D01*
X24311Y-34221D01*
X24017D01*
X23874Y-33860D01*
X23845Y-33721D01*
X24220Y-33160D01*
X24358Y-32469D01*
Y-29721D01*
X27189Y-26889D01*
X30219D01*
X30454Y-27330D01*
D02*
G37*
G36*
X63495Y-14910D02*
X63496Y-14913D01*
X63182Y-15398D01*
X62701Y-15497D01*
X62490Y-15356D01*
X61714Y-15202D01*
X60938Y-15356D01*
X60280Y-15796D01*
X59841Y-16453D01*
X59687Y-17229D01*
X59841Y-18005D01*
X60280Y-18662D01*
X60938Y-19102D01*
X61024Y-19119D01*
X61827Y-19922D01*
X62251Y-20205D01*
X62750Y-20305D01*
X63760D01*
X66861Y-23406D01*
Y-31139D01*
X66413Y-31360D01*
X66390Y-31343D01*
X65719Y-31065D01*
X65000Y-30970D01*
X64281Y-31065D01*
X63610Y-31343D01*
X63034Y-31784D01*
X62593Y-32360D01*
X62315Y-33031D01*
X62220Y-33750D01*
X62315Y-34469D01*
X62593Y-35140D01*
X62962Y-35622D01*
X63077Y-36146D01*
X62729Y-36667D01*
X62607Y-37282D01*
Y-41219D01*
X62729Y-41833D01*
X63077Y-42354D01*
X63595Y-42700D01*
Y-44067D01*
X53732D01*
X52694Y-43030D01*
Y-39782D01*
X52587Y-39244D01*
X52282Y-38789D01*
X48103Y-34610D01*
X48311Y-34110D01*
X48573D01*
X49347Y-33956D01*
X50003Y-33517D01*
X50442Y-32861D01*
X50596Y-32087D01*
Y-30618D01*
X47589D01*
X44581D01*
Y-32087D01*
X44735Y-32861D01*
X44979Y-33225D01*
X44711Y-33725D01*
X40047D01*
X39509Y-33832D01*
X39053Y-34137D01*
X37613Y-35577D01*
X37151Y-35386D01*
Y-35059D01*
X37036Y-34477D01*
X36706Y-33983D01*
X36212Y-33654D01*
X35752Y-33562D01*
X35557Y-33255D01*
X35501Y-33038D01*
X35675Y-32778D01*
X35812Y-32087D01*
Y-29173D01*
X35930Y-29055D01*
X38297D01*
X38797Y-28955D01*
X39220Y-28673D01*
X42102Y-25790D01*
X45636D01*
X46136Y-25691D01*
X46559Y-25408D01*
X47662Y-24305D01*
X52481D01*
X52567Y-24433D01*
X53224Y-24873D01*
X54000Y-25027D01*
X54776Y-24873D01*
X55433Y-24433D01*
X55873Y-23776D01*
X56002Y-23128D01*
X56750Y-23277D01*
X57526Y-23123D01*
X58183Y-22683D01*
X58623Y-22026D01*
X58777Y-21250D01*
X58623Y-20474D01*
X58183Y-19817D01*
X57526Y-19377D01*
X56750Y-19223D01*
X55974Y-19377D01*
X55618Y-19615D01*
X55449Y-19502D01*
X54950Y-19402D01*
X53452D01*
X53300Y-18902D01*
X53811Y-18561D01*
X54290Y-17845D01*
X54458Y-17000D01*
X54310Y-16259D01*
X55964Y-14606D01*
X63357D01*
X63495Y-14910D01*
D02*
G37*
%LPC*%
G36*
X47089Y-26127D02*
X46604D01*
X45830Y-26281D01*
X45174Y-26719D01*
X44735Y-27375D01*
X44581Y-28150D01*
Y-29618D01*
X47089D01*
Y-26127D01*
D02*
G37*
G36*
X48573D02*
X48089D01*
Y-29618D01*
X50596D01*
Y-28150D01*
X50442Y-27375D01*
X50003Y-26719D01*
X49347Y-26281D01*
X48573Y-26127D01*
D02*
G37*
G36*
X61250Y-24973D02*
X60474Y-25127D01*
X59817Y-25567D01*
X59377Y-26224D01*
X59354Y-26343D01*
X57874D01*
X57183Y-26481D01*
X56597Y-26872D01*
X56205Y-27458D01*
X56068Y-28150D01*
Y-30875D01*
X55568Y-31209D01*
X55219Y-31065D01*
X54500Y-30970D01*
X53781Y-31065D01*
X53110Y-31343D01*
X52535Y-31784D01*
X52093Y-32360D01*
X51815Y-33031D01*
X51720Y-33750D01*
X51815Y-34469D01*
X52093Y-35140D01*
X52535Y-35715D01*
X53110Y-36157D01*
X53656Y-36383D01*
X53801Y-36483D01*
X54008Y-36969D01*
X53945Y-37282D01*
Y-41219D01*
X54068Y-41833D01*
X54416Y-42354D01*
X54937Y-42702D01*
X55551Y-42824D01*
X57126D01*
X57740Y-42702D01*
X58261Y-42354D01*
X58609Y-41833D01*
X58732Y-41219D01*
Y-37282D01*
X58609Y-36667D01*
X58261Y-36146D01*
X57740Y-35798D01*
X57126Y-35676D01*
X57032D01*
X56880Y-35176D01*
X56907Y-35140D01*
X57185Y-34469D01*
X57229Y-34137D01*
X57635Y-33845D01*
X57874Y-33893D01*
X59842D01*
X60534Y-33755D01*
X61120Y-33364D01*
X61511Y-32778D01*
X61649Y-32087D01*
Y-28948D01*
X62026Y-28873D01*
X62683Y-28433D01*
X63123Y-27776D01*
X63277Y-27000D01*
X63123Y-26224D01*
X62683Y-25567D01*
X62026Y-25127D01*
X61250Y-24973D01*
D02*
G37*
%LPD*%
D10*
X166000Y-82000D02*
X171500Y-85888D01*
X171000Y-87000D02*
X171500Y-85888D01*
X161000Y-87000D02*
X171500Y-85888D01*
X165750Y-4250D02*
X166000Y-8500D01*
X161000Y-3500D02*
X165750Y-4250D01*
D11*
X55800Y-50600D02*
D03*
Y-56112D02*
D03*
D12*
X35138Y-40039D02*
D03*
Y-35748D02*
D03*
D15*
X13213Y-36753D02*
D03*
X18724D02*
D03*
X26673Y-52067D02*
D03*
X32185D02*
D03*
X23524Y-36811D02*
D03*
X29035D02*
D03*
D18*
X7972Y-50000D02*
D03*
X2461D02*
D03*
D47*
X78250Y-24037D02*
D03*
Y-19746D02*
D03*
X11417Y-47441D02*
D03*
X15354D02*
D03*
X13386Y-52559D02*
D03*
D49*
X89179Y-6163D02*
X107246D01*
X84548Y-10794D02*
X89179Y-6163D01*
X111137Y-20286D02*
Y-10054D01*
X107246Y-6163D02*
X111137Y-10054D01*
X54846Y-10794D02*
X84548D01*
X111137Y-20286D02*
X115065Y-24214D01*
X44324Y-21317D02*
X54846Y-10794D01*
X68183Y-43166D02*
X73578Y-48561D01*
X69767Y-42510D02*
X74167Y-46909D01*
X119707Y-53793D02*
X121793Y-51707D01*
X24743Y-25250D02*
X25993Y-24000D01*
X19508Y-25250D02*
X24743D01*
X21733Y-30500D02*
X26649Y-25584D01*
X21567Y-30500D02*
X21733D01*
X26649Y-25584D02*
X38223D01*
X25993Y-24000D02*
X37567D01*
X54500Y-33750D02*
X55500Y-34750D01*
Y-38411D02*
Y-34750D01*
Y-38411D02*
X56339Y-39250D01*
X58858Y-30118D02*
Y-29392D01*
X61250Y-27000D01*
X33022Y-30118D02*
X35390Y-27750D01*
X138056Y-48500D02*
Y-42306D01*
X136250Y-40500D02*
X138056Y-42306D01*
X18724Y-36753D02*
X23466D01*
X23524Y-36811D01*
X18000Y-36029D02*
X18724Y-36753D01*
X18000Y-36029D02*
Y-26758D01*
X128500Y-25500D02*
X135311D01*
X61500Y-17750D02*
X62750Y-19000D01*
X64300D01*
X64750Y-17000D02*
X65000Y-16750D01*
Y-16500D01*
X95250Y-49000D02*
X95500D01*
X135311Y-25500D02*
X140000Y-30189D01*
Y-31250D02*
Y-30189D01*
X61500Y-17750D02*
X61714Y-17536D01*
Y-17229D01*
X18000Y-26758D02*
X19508Y-25250D01*
X47122Y-23000D02*
X54000D01*
X35390Y-27750D02*
X38297D01*
X56425Y-20925D02*
X56750Y-21250D01*
X52832Y-20925D02*
X53050Y-20707D01*
X54950D01*
X55168Y-20925D01*
X56425D01*
X64750Y-17000D02*
X69750Y-22000D01*
X64300Y-19000D02*
X68166Y-22866D01*
X124748Y-51767D02*
X125033Y-52052D01*
X124748Y-51767D02*
Y-51754D01*
X123700Y-51707D02*
X123709Y-51717D01*
X124758D01*
X121793Y-51707D02*
X123700D01*
X68183Y-43166D02*
Y-40053D01*
X68166Y-40036D02*
X68183Y-40053D01*
X68166Y-40036D02*
Y-22866D01*
X69767Y-42510D02*
Y-39397D01*
X69750Y-39380D02*
X69767Y-39397D01*
X69750Y-39380D02*
Y-22000D01*
X46956Y-20925D02*
X52832D01*
X81500Y-50864D02*
X81636Y-51000D01*
X81818Y-51182D01*
X84429Y-53793D01*
X119707D01*
X73578Y-48561D02*
X82671D01*
X86319Y-52209D01*
X96791D01*
X97500Y-51500D01*
X74167Y-46909D02*
X83260D01*
X86975Y-50624D01*
X93876D01*
X95500Y-49000D01*
X37567Y-24000D02*
X40250Y-21317D01*
X38223Y-25584D02*
X40906Y-22901D01*
X38297Y-27750D02*
X41562Y-24485D01*
X45636D02*
X47122Y-23000D01*
X40250Y-21317D02*
X44324D01*
X40906Y-22901D02*
X44980D01*
X46956Y-20925D01*
X41562Y-24485D02*
X45636D01*
D50*
X49313Y-57286D02*
X49705Y-56895D01*
X45671Y-37403D02*
X49705Y-41437D01*
Y-56895D02*
Y-41437D01*
X8011Y-46466D02*
X9458Y-45019D01*
Y-44676D01*
X11319Y-42815D01*
X2461Y-50000D02*
X2657D01*
X10138Y-57480D01*
X2165Y-50000D02*
X2461D01*
X2657D02*
X2664D01*
X10138Y-57480D02*
Y-53150D01*
X10335Y-52953D01*
Y-52559D01*
X2664Y-50000D02*
Y-48518D01*
X4715Y-46466D01*
X8011D01*
D51*
X76000Y-22000D02*
X80750Y-17250D01*
X127403Y-52500D02*
X127750D01*
X125744Y-54158D02*
X127403Y-52500D01*
X122908Y-54158D02*
X125744D01*
X122750Y-54000D02*
X122908Y-54158D01*
X54888Y-51512D02*
X55800Y-50600D01*
X165646Y-28750D02*
Y-16750D01*
X137250Y-12250D02*
X141884D01*
X135854Y-10854D02*
X137250Y-12250D01*
X130000Y-10854D02*
X135854D01*
X141884Y-12250D02*
X143280Y-10854D01*
X75368Y-41237D02*
Y-38757D01*
X76002Y-42750D02*
Y-41870D01*
X75368Y-41237D02*
X76002Y-41870D01*
X79391Y-34734D02*
Y-29141D01*
X75368Y-38757D02*
X79391Y-34734D01*
X76000Y-25750D02*
X79391Y-29141D01*
X76000Y-25750D02*
Y-22000D01*
X66391Y-51036D02*
X67326Y-51971D01*
X66391Y-51036D02*
Y-47010D01*
X65000Y-45200D02*
Y-39250D01*
X40047Y-35130D02*
X46637D01*
X51289Y-43612D02*
Y-39782D01*
X46637Y-35130D02*
X51289Y-39782D01*
X35138Y-40039D02*
X40047Y-35130D01*
X51289Y-43612D02*
X53150Y-45472D01*
X64728D01*
X65000Y-45200D01*
X64791Y-45409D02*
X64791D01*
X66391Y-47010D01*
X53155Y-48917D02*
X53349Y-48723D01*
X54837Y-50600D02*
X55800D01*
X53155Y-48917D02*
X54837Y-50600D01*
X18199Y-49794D02*
X23209D01*
X15256Y-46850D02*
X18199Y-49794D01*
X24892Y-51476D02*
X27165D01*
X23819Y-50403D02*
X24892Y-51476D01*
X23209Y-49794D02*
X23819Y-50403D01*
D52*
X89958Y-8042D02*
X106467D01*
X80750Y-17250D02*
X89958Y-8042D01*
X108667Y-17225D02*
Y-10242D01*
X106467Y-8042D02*
X108667Y-10242D01*
X80750Y-17250D02*
Y-17250D01*
X76500Y-13000D02*
X80750Y-17250D01*
X77000Y-43250D02*
X106626D01*
X108750Y-45374D01*
X52250Y-17000D02*
Y-16049D01*
X55299Y-13000D01*
X76500D01*
D53*
X123435Y-61516D02*
X129764Y-55187D01*
X76871Y-61516D02*
X123435D01*
X129764Y-55187D02*
X139413D01*
X115663Y-83163D02*
X116250Y-83750D01*
X115663Y-83163D02*
Y-74499D01*
X35138Y-40157D02*
Y-40039D01*
X33169Y-42126D02*
X35138Y-40157D01*
X65000Y-33750D02*
X65500Y-34250D01*
Y-38750D02*
Y-34250D01*
X65000Y-39250D02*
X65500Y-38750D01*
X18750Y-17250D02*
X29041D01*
X15575Y-14075D02*
X18750Y-17250D01*
X11000Y-14075D02*
X15575D01*
X29041Y-17250D02*
X31791Y-20000D01*
X29035Y-36811D02*
Y-30000D01*
Y-37965D02*
Y-36811D01*
X26250Y-40750D02*
X29035Y-37965D01*
X21553Y-40750D02*
X26250D01*
X19783Y-42520D02*
X21553Y-40750D01*
X58526Y-66524D02*
X107688D01*
X53839Y-61837D02*
X58526Y-66524D01*
X107688D02*
X115663Y-74499D01*
X47270Y-61837D02*
X53839D01*
X67326Y-51971D02*
X76871Y-61516D01*
X139413Y-55187D02*
X145099Y-49500D01*
X150250D01*
X13213Y-40921D02*
Y-36753D01*
X36782Y-51349D02*
X47270Y-61837D01*
X34419Y-51349D02*
X36782D01*
X32677Y-51476D02*
X33484Y-52283D01*
X34419Y-51349D01*
X11319Y-42815D02*
X13213Y-40921D01*
X11122Y-46850D02*
X11319D01*
X15650Y-42520D02*
X19783D01*
X13780Y-52067D02*
X17913D01*
X6592Y-50000D02*
X7972D01*
X11319Y-46850D02*
X15650Y-42520D01*
X6053Y-49461D02*
X6592Y-50000D01*
X6053Y-49461D02*
Y-49461D01*
X17913Y-52067D02*
X19685Y-53839D01*
X7972Y-50000D02*
X11122Y-46850D01*
D58*
X10638Y-58358D02*
D03*
D59*
X10039Y-86319D02*
D03*
D60*
X54500Y-33750D02*
D03*
X65000D02*
D03*
D61*
X19488Y-53937D02*
D03*
D62*
X165750Y-4250D02*
D03*
X171500Y-85888D02*
D03*
D63*
X114500Y-43500D02*
D03*
X114567Y-50689D02*
D03*
D64*
X91634Y-2264D02*
D03*
X104237Y-10630D02*
D03*
X92618Y-12303D02*
D03*
X115065Y-24214D02*
D03*
X113790Y-6766D02*
D03*
X81500Y-50864D02*
D03*
X27165Y-48327D02*
D03*
X104500Y-49250D02*
D03*
X118000Y-65000D02*
D03*
X114000D02*
D03*
X122750Y-54000D02*
D03*
X73000Y-42500D02*
D03*
X5315Y-22539D02*
D03*
Y-15846D02*
D03*
X11000Y-24311D02*
D03*
X129500Y-36200D02*
D03*
X82000Y-2000D02*
D03*
X69500D02*
D03*
X66450D02*
D03*
X66500Y-6500D02*
D03*
X157500Y-47500D02*
D03*
X162500D02*
D03*
X167500D02*
D03*
X172500D02*
D03*
Y-32500D02*
D03*
X167500D02*
D03*
X162500D02*
D03*
X157500D02*
D03*
X152500D02*
D03*
X172500Y-37500D02*
D03*
Y-42500D02*
D03*
X147500D02*
D03*
Y-37500D02*
D03*
Y-32500D02*
D03*
X20500Y-14000D02*
D03*
X26250D02*
D03*
X18602Y-87598D02*
D03*
X98524Y-70276D02*
D03*
X35039Y-57284D02*
D03*
X23720Y-60335D02*
D03*
X127750Y-52500D02*
D03*
X131750D02*
D03*
X159500Y-11550D02*
D03*
X130650Y-18900D02*
D03*
X26250Y-8300D02*
D03*
X20750Y-22700D02*
D03*
X61250Y-27000D02*
D03*
X77000Y-31250D02*
D03*
X132500Y-5500D02*
D03*
X120866Y-49606D02*
D03*
X127750Y-48500D02*
D03*
X174500Y-71250D02*
D03*
X154250Y-55750D02*
D03*
X154000Y-62250D02*
D03*
X153934Y-70057D02*
D03*
X54232Y-29921D02*
D03*
X155050Y-81200D02*
D03*
X148750D02*
D03*
Y-83950D02*
D03*
X126250Y-82800D02*
D03*
X111000Y-87250D02*
D03*
X142750Y-83250D02*
D03*
X139000Y-82750D02*
D03*
X126250Y-86000D02*
D03*
X121450Y-66200D02*
D03*
X159500Y-19250D02*
D03*
Y-15250D02*
D03*
X167750Y-9250D02*
D03*
X162750D02*
D03*
X32750Y-16750D02*
D03*
X52650Y-59150D02*
D03*
X131750Y-48500D02*
D03*
X134500Y-59500D02*
D03*
X129250D02*
D03*
X138800Y-52000D02*
D03*
X126700Y-22900D02*
D03*
Y-18900D02*
D03*
X87894Y-2165D02*
D03*
X95571Y-2264D02*
D03*
X121250Y-3250D02*
D03*
X123750D02*
D03*
X140250Y-40500D02*
D03*
X118350Y-73400D02*
D03*
X72500Y-37000D02*
D03*
X118700Y-46000D02*
D03*
X138056Y-48500D02*
D03*
X133750Y-66000D02*
D03*
X127750Y-66250D02*
D03*
X138250Y-76000D02*
D03*
X138750Y-72000D02*
D03*
X94095Y-71063D02*
D03*
X32283Y-34941D02*
D03*
X113681Y-2264D02*
D03*
X143750Y-21500D02*
D03*
Y-16500D02*
D03*
X138750D02*
D03*
X148000Y-10750D02*
D03*
Y-5000D02*
D03*
X165646Y-16750D02*
D03*
Y-28750D02*
D03*
X157646D02*
D03*
X31791Y-20000D02*
D03*
X32250Y-14000D02*
D03*
X11000Y-14075D02*
D03*
X29035Y-30000D02*
D03*
X139342Y-23223D02*
D03*
Y-9250D02*
D03*
X162500Y-17150D02*
D03*
X40300Y-5100D02*
D03*
X49750Y-2000D02*
D03*
X128250Y-72700D02*
D03*
X118650Y-76100D02*
D03*
X24900Y-2300D02*
D03*
X76000Y-17250D02*
D03*
X71500D02*
D03*
X128350Y-76100D02*
D03*
X142250Y-59750D02*
D03*
X157000Y-87250D02*
D03*
X116250Y-83750D02*
D03*
X135750Y-86500D02*
D03*
Y-82750D02*
D03*
X136250Y-40500D02*
D03*
X108750Y-45374D02*
D03*
X41500Y-18250D02*
D03*
X43400Y-16850D02*
D03*
X30906Y-56791D02*
D03*
X24050Y-22700D02*
D03*
X28900Y-7000D02*
D03*
X55250Y-2000D02*
D03*
X130000Y-10854D02*
D03*
X143280D02*
D03*
X129950Y-6950D02*
D03*
X130650Y-15150D02*
D03*
X69250Y-6500D02*
D03*
X130650Y-22900D02*
D03*
X128500Y-25500D02*
D03*
X54000Y-23000D02*
D03*
X55500Y-26000D02*
D03*
X65000Y-16500D02*
D03*
X69000Y-48750D02*
D03*
X64000Y-48000D02*
D03*
X95500Y-49000D02*
D03*
X97500Y-51500D02*
D03*
X140000Y-31250D02*
D03*
X121250Y-71000D02*
D03*
X58712Y-18457D02*
D03*
X56750Y-21250D02*
D03*
Y-18000D02*
D03*
X61714Y-17229D02*
D03*
X65750Y-29777D02*
D03*
X112750Y-28445D02*
D03*
X76002Y-42750D02*
D03*
X78000Y-40250D02*
D03*
X124748Y-51754D02*
D03*
X45177Y-50295D02*
D03*
X40846D02*
D03*
X45177Y-45965D02*
D03*
X40846D02*
D03*
X43484Y-27000D02*
D03*
X24213Y-87697D02*
D03*
X21358Y-84350D02*
D03*
X4823Y-39862D02*
D03*
X35531Y-54035D02*
D03*
X26969Y-45374D02*
D03*
D65*
X67326Y-51971D02*
D03*
X150250Y-49500D02*
D03*
D66*
X33169Y-42126D02*
D03*
X45573Y-37699D02*
D03*
X49313Y-57286D02*
D03*
X103248Y-22736D02*
D03*
Y-27067D02*
D03*
Y-31398D02*
D03*
Y-35728D02*
D03*
Y-40059D02*
D03*
X98917Y-22736D02*
D03*
Y-27067D02*
D03*
Y-31398D02*
D03*
Y-35728D02*
D03*
Y-40059D02*
D03*
X94587Y-22736D02*
D03*
Y-27067D02*
D03*
Y-31398D02*
D03*
Y-35728D02*
D03*
Y-40059D02*
D03*
X90256Y-22736D02*
D03*
Y-27067D02*
D03*
Y-31398D02*
D03*
Y-35728D02*
D03*
Y-40059D02*
D03*
X85925Y-22736D02*
D03*
Y-27067D02*
D03*
Y-31398D02*
D03*
Y-35728D02*
D03*
Y-40059D02*
D03*
X80750Y-17250D02*
D03*
X108667Y-17225D02*
D03*
X52250Y-17000D02*
D03*
X53349Y-48723D02*
D03*
X6053Y-49461D02*
D03*
X23819Y-50403D02*
D03*
D67*
X33022Y-6496D02*
D03*
Y-30118D02*
D03*
X47589D02*
D03*
Y-6496D02*
D03*
X58858D02*
D03*
Y-30118D02*
D03*
X73425D02*
D03*
Y-6496D02*
D03*
X21567Y-30500D02*
D03*
Y-6878D02*
D03*
X7000D02*
D03*
Y-30500D02*
D03*
D68*
X5020Y-42520D02*
D03*
X19783D02*
D03*
D69*
X56339Y-39250D02*
D03*
X65000D02*
D03*
M02*
