G04 Layer_Physical_Order=1*
G04 Layer_Color=255*
%FSLAX25Y25*%
%MOIN*%
G70*
G01*
G75*
%ADD10C,0.01969*%
G04:AMPARAMS|DCode=11|XSize=35.43mil|YSize=31.5mil|CornerRadius=7.87mil|HoleSize=0mil|Usage=FLASHONLY|Rotation=180.000|XOffset=0mil|YOffset=0mil|HoleType=Round|Shape=RoundedRectangle|*
%AMROUNDEDRECTD11*
21,1,0.03543,0.01575,0,0,180.0*
21,1,0.01969,0.03150,0,0,180.0*
1,1,0.01575,-0.00984,0.00787*
1,1,0.01575,0.00984,0.00787*
1,1,0.01575,0.00984,-0.00787*
1,1,0.01575,-0.00984,-0.00787*
%
%ADD11ROUNDEDRECTD11*%
G04:AMPARAMS|DCode=12|XSize=19.69mil|YSize=23.62mil|CornerRadius=4.92mil|HoleSize=0mil|Usage=FLASHONLY|Rotation=180.000|XOffset=0mil|YOffset=0mil|HoleType=Round|Shape=RoundedRectangle|*
%AMROUNDEDRECTD12*
21,1,0.01969,0.01378,0,0,180.0*
21,1,0.00984,0.02362,0,0,180.0*
1,1,0.00984,-0.00492,0.00689*
1,1,0.00984,0.00492,0.00689*
1,1,0.00984,0.00492,-0.00689*
1,1,0.00984,-0.00492,-0.00689*
%
%ADD12ROUNDEDRECTD12*%
G04:AMPARAMS|DCode=13|XSize=70.87mil|YSize=39.37mil|CornerRadius=9.84mil|HoleSize=0mil|Usage=FLASHONLY|Rotation=270.000|XOffset=0mil|YOffset=0mil|HoleType=Round|Shape=RoundedRectangle|*
%AMROUNDEDRECTD13*
21,1,0.07087,0.01969,0,0,270.0*
21,1,0.05118,0.03937,0,0,270.0*
1,1,0.01969,-0.00984,-0.02559*
1,1,0.01969,-0.00984,0.02559*
1,1,0.01969,0.00984,0.02559*
1,1,0.01969,0.00984,-0.02559*
%
%ADD13ROUNDEDRECTD13*%
G04:AMPARAMS|DCode=14|XSize=19.69mil|YSize=23.62mil|CornerRadius=4.92mil|HoleSize=0mil|Usage=FLASHONLY|Rotation=270.000|XOffset=0mil|YOffset=0mil|HoleType=Round|Shape=RoundedRectangle|*
%AMROUNDEDRECTD14*
21,1,0.01969,0.01378,0,0,270.0*
21,1,0.00984,0.02362,0,0,270.0*
1,1,0.00984,-0.00689,-0.00492*
1,1,0.00984,-0.00689,0.00492*
1,1,0.00984,0.00689,0.00492*
1,1,0.00984,0.00689,-0.00492*
%
%ADD14ROUNDEDRECTD14*%
G04:AMPARAMS|DCode=15|XSize=35.43mil|YSize=31.5mil|CornerRadius=7.87mil|HoleSize=0mil|Usage=FLASHONLY|Rotation=90.000|XOffset=0mil|YOffset=0mil|HoleType=Round|Shape=RoundedRectangle|*
%AMROUNDEDRECTD15*
21,1,0.03543,0.01575,0,0,90.0*
21,1,0.01969,0.03150,0,0,90.0*
1,1,0.01575,0.00787,0.00984*
1,1,0.01575,0.00787,-0.00984*
1,1,0.01575,-0.00787,-0.00984*
1,1,0.01575,-0.00787,0.00984*
%
%ADD15ROUNDEDRECTD15*%
G04:AMPARAMS|DCode=16|XSize=43.31mil|YSize=9.84mil|CornerRadius=2.46mil|HoleSize=0mil|Usage=FLASHONLY|Rotation=270.000|XOffset=0mil|YOffset=0mil|HoleType=Round|Shape=RoundedRectangle|*
%AMROUNDEDRECTD16*
21,1,0.04331,0.00492,0,0,270.0*
21,1,0.03839,0.00984,0,0,270.0*
1,1,0.00492,-0.00246,-0.01919*
1,1,0.00492,-0.00246,0.01919*
1,1,0.00492,0.00246,0.01919*
1,1,0.00492,0.00246,-0.01919*
%
%ADD16ROUNDEDRECTD16*%
%ADD17R,0.03543X0.03150*%
%ADD18R,0.03150X0.03543*%
G04:AMPARAMS|DCode=19|XSize=66.93mil|YSize=43.31mil|CornerRadius=10.83mil|HoleSize=0mil|Usage=FLASHONLY|Rotation=180.000|XOffset=0mil|YOffset=0mil|HoleType=Round|Shape=RoundedRectangle|*
%AMROUNDEDRECTD19*
21,1,0.06693,0.02165,0,0,180.0*
21,1,0.04528,0.04331,0,0,180.0*
1,1,0.02165,-0.02264,0.01083*
1,1,0.02165,0.02264,0.01083*
1,1,0.02165,0.02264,-0.01083*
1,1,0.02165,-0.02264,-0.01083*
%
%ADD19ROUNDEDRECTD19*%
G04:AMPARAMS|DCode=20|XSize=66.93mil|YSize=43.31mil|CornerRadius=10.83mil|HoleSize=0mil|Usage=FLASHONLY|Rotation=270.000|XOffset=0mil|YOffset=0mil|HoleType=Round|Shape=RoundedRectangle|*
%AMROUNDEDRECTD20*
21,1,0.06693,0.02165,0,0,270.0*
21,1,0.04528,0.04331,0,0,270.0*
1,1,0.02165,-0.01083,-0.02264*
1,1,0.02165,-0.01083,0.02264*
1,1,0.02165,0.01083,0.02264*
1,1,0.02165,0.01083,-0.02264*
%
%ADD20ROUNDEDRECTD20*%
G04:AMPARAMS|DCode=21|XSize=15.75mil|YSize=43.31mil|CornerRadius=3.94mil|HoleSize=0mil|Usage=FLASHONLY|Rotation=270.000|XOffset=0mil|YOffset=0mil|HoleType=Round|Shape=RoundedRectangle|*
%AMROUNDEDRECTD21*
21,1,0.01575,0.03543,0,0,270.0*
21,1,0.00787,0.04331,0,0,270.0*
1,1,0.00787,-0.01772,-0.00394*
1,1,0.00787,-0.01772,0.00394*
1,1,0.00787,0.01772,0.00394*
1,1,0.00787,0.01772,-0.00394*
%
%ADD21ROUNDEDRECTD21*%
%ADD22O,0.00984X0.03543*%
%ADD23O,0.03543X0.00984*%
%ADD24R,0.22441X0.22441*%
G04:AMPARAMS|DCode=25|XSize=25.59mil|YSize=43.31mil|CornerRadius=6.4mil|HoleSize=0mil|Usage=FLASHONLY|Rotation=180.000|XOffset=0mil|YOffset=0mil|HoleType=Round|Shape=RoundedRectangle|*
%AMROUNDEDRECTD25*
21,1,0.02559,0.03051,0,0,180.0*
21,1,0.01280,0.04331,0,0,180.0*
1,1,0.01280,-0.00640,0.01526*
1,1,0.01280,0.00640,0.01526*
1,1,0.01280,0.00640,-0.01526*
1,1,0.01280,-0.00640,-0.01526*
%
%ADD25ROUNDEDRECTD25*%
G04:AMPARAMS|DCode=26|XSize=27.56mil|YSize=51.18mil|CornerRadius=6.89mil|HoleSize=0mil|Usage=FLASHONLY|Rotation=90.000|XOffset=0mil|YOffset=0mil|HoleType=Round|Shape=RoundedRectangle|*
%AMROUNDEDRECTD26*
21,1,0.02756,0.03740,0,0,90.0*
21,1,0.01378,0.05118,0,0,90.0*
1,1,0.01378,0.01870,0.00689*
1,1,0.01378,0.01870,-0.00689*
1,1,0.01378,-0.01870,-0.00689*
1,1,0.01378,-0.01870,0.00689*
%
%ADD26ROUNDEDRECTD26*%
G04:AMPARAMS|DCode=27|XSize=35.43mil|YSize=27.56mil|CornerRadius=6.89mil|HoleSize=0mil|Usage=FLASHONLY|Rotation=90.000|XOffset=0mil|YOffset=0mil|HoleType=Round|Shape=RoundedRectangle|*
%AMROUNDEDRECTD27*
21,1,0.03543,0.01378,0,0,90.0*
21,1,0.02165,0.02756,0,0,90.0*
1,1,0.01378,0.00689,0.01083*
1,1,0.01378,0.00689,-0.01083*
1,1,0.01378,-0.00689,-0.01083*
1,1,0.01378,-0.00689,0.01083*
%
%ADD27ROUNDEDRECTD27*%
%ADD28O,0.03937X0.14961*%
G04:AMPARAMS|DCode=29|XSize=39.37mil|YSize=149.61mil|CornerRadius=9.84mil|HoleSize=0mil|Usage=FLASHONLY|Rotation=0.000|XOffset=0mil|YOffset=0mil|HoleType=Round|Shape=RoundedRectangle|*
%AMROUNDEDRECTD29*
21,1,0.03937,0.12992,0,0,0.0*
21,1,0.01969,0.14961,0,0,0.0*
1,1,0.01969,0.00984,-0.06496*
1,1,0.01969,-0.00984,-0.06496*
1,1,0.01969,-0.00984,0.06496*
1,1,0.01969,0.00984,0.06496*
%
%ADD29ROUNDEDRECTD29*%
G04:AMPARAMS|DCode=30|XSize=45mil|YSize=45mil|CornerRadius=11.25mil|HoleSize=0mil|Usage=FLASHONLY|Rotation=270.000|XOffset=0mil|YOffset=0mil|HoleType=Round|Shape=RoundedRectangle|*
%AMROUNDEDRECTD30*
21,1,0.04500,0.02250,0,0,270.0*
21,1,0.02250,0.04500,0,0,270.0*
1,1,0.02250,-0.01125,-0.01125*
1,1,0.02250,-0.01125,0.01125*
1,1,0.02250,0.01125,0.01125*
1,1,0.02250,0.01125,-0.01125*
%
%ADD30ROUNDEDRECTD30*%
G04:AMPARAMS|DCode=31|XSize=39.37mil|YSize=23.62mil|CornerRadius=5.91mil|HoleSize=0mil|Usage=FLASHONLY|Rotation=90.000|XOffset=0mil|YOffset=0mil|HoleType=Round|Shape=RoundedRectangle|*
%AMROUNDEDRECTD31*
21,1,0.03937,0.01181,0,0,90.0*
21,1,0.02756,0.02362,0,0,90.0*
1,1,0.01181,0.00591,0.01378*
1,1,0.01181,0.00591,-0.01378*
1,1,0.01181,-0.00591,-0.01378*
1,1,0.01181,-0.00591,0.01378*
%
%ADD31ROUNDEDRECTD31*%
%ADD32R,0.18110X0.16929*%
G04:AMPARAMS|DCode=33|XSize=78.74mil|YSize=62.99mil|CornerRadius=15.75mil|HoleSize=0mil|Usage=FLASHONLY|Rotation=270.000|XOffset=0mil|YOffset=0mil|HoleType=Round|Shape=RoundedRectangle|*
%AMROUNDEDRECTD33*
21,1,0.07874,0.03150,0,0,270.0*
21,1,0.04724,0.06299,0,0,270.0*
1,1,0.03150,-0.01575,-0.02362*
1,1,0.03150,-0.01575,0.02362*
1,1,0.03150,0.01575,0.02362*
1,1,0.03150,0.01575,-0.02362*
%
%ADD33ROUNDEDRECTD33*%
%ADD34R,0.08071X0.08071*%
%ADD35O,0.00787X0.03543*%
%ADD36O,0.03543X0.00787*%
G04:AMPARAMS|DCode=37|XSize=35.43mil|YSize=35.43mil|CornerRadius=8.86mil|HoleSize=0mil|Usage=FLASHONLY|Rotation=0.000|XOffset=0mil|YOffset=0mil|HoleType=Round|Shape=RoundedRectangle|*
%AMROUNDEDRECTD37*
21,1,0.03543,0.01772,0,0,0.0*
21,1,0.01772,0.03543,0,0,0.0*
1,1,0.01772,0.00886,-0.00886*
1,1,0.01772,-0.00886,-0.00886*
1,1,0.01772,-0.00886,0.00886*
1,1,0.01772,0.00886,0.00886*
%
%ADD37ROUNDEDRECTD37*%
G04:AMPARAMS|DCode=38|XSize=93.5mil|YSize=74.8mil|CornerRadius=18.7mil|HoleSize=0mil|Usage=FLASHONLY|Rotation=270.000|XOffset=0mil|YOffset=0mil|HoleType=Round|Shape=RoundedRectangle|*
%AMROUNDEDRECTD38*
21,1,0.09350,0.03740,0,0,270.0*
21,1,0.05610,0.07480,0,0,270.0*
1,1,0.03740,-0.01870,-0.02805*
1,1,0.03740,-0.01870,0.02805*
1,1,0.03740,0.01870,0.02805*
1,1,0.03740,0.01870,-0.02805*
%
%ADD38ROUNDEDRECTD38*%
G04:AMPARAMS|DCode=39|XSize=46.26mil|YSize=74.8mil|CornerRadius=11.57mil|HoleSize=0mil|Usage=FLASHONLY|Rotation=270.000|XOffset=0mil|YOffset=0mil|HoleType=Round|Shape=RoundedRectangle|*
%AMROUNDEDRECTD39*
21,1,0.04626,0.05167,0,0,270.0*
21,1,0.02313,0.07480,0,0,270.0*
1,1,0.02313,-0.02584,-0.01157*
1,1,0.02313,-0.02584,0.01157*
1,1,0.02313,0.02584,0.01157*
1,1,0.02313,0.02584,-0.01157*
%
%ADD39ROUNDEDRECTD39*%
G04:AMPARAMS|DCode=40|XSize=58.07mil|YSize=78.74mil|CornerRadius=14.52mil|HoleSize=0mil|Usage=FLASHONLY|Rotation=270.000|XOffset=0mil|YOffset=0mil|HoleType=Round|Shape=RoundedRectangle|*
%AMROUNDEDRECTD40*
21,1,0.05807,0.04971,0,0,270.0*
21,1,0.02904,0.07874,0,0,270.0*
1,1,0.02904,-0.02485,-0.01452*
1,1,0.02904,-0.02485,0.01452*
1,1,0.02904,0.02485,0.01452*
1,1,0.02904,0.02485,-0.01452*
%
%ADD40ROUNDEDRECTD40*%
G04:AMPARAMS|DCode=41|XSize=58.07mil|YSize=82.68mil|CornerRadius=14.52mil|HoleSize=0mil|Usage=FLASHONLY|Rotation=270.000|XOffset=0mil|YOffset=0mil|HoleType=Round|Shape=RoundedRectangle|*
%AMROUNDEDRECTD41*
21,1,0.05807,0.05364,0,0,270.0*
21,1,0.02904,0.08268,0,0,270.0*
1,1,0.02904,-0.02682,-0.01452*
1,1,0.02904,-0.02682,0.01452*
1,1,0.02904,0.02682,0.01452*
1,1,0.02904,0.02682,-0.01452*
%
%ADD41ROUNDEDRECTD41*%
G04:AMPARAMS|DCode=42|XSize=17.72mil|YSize=54.33mil|CornerRadius=4.43mil|HoleSize=0mil|Usage=FLASHONLY|Rotation=90.000|XOffset=0mil|YOffset=0mil|HoleType=Round|Shape=RoundedRectangle|*
%AMROUNDEDRECTD42*
21,1,0.01772,0.04547,0,0,90.0*
21,1,0.00886,0.05433,0,0,90.0*
1,1,0.00886,0.02274,0.00443*
1,1,0.00886,0.02274,-0.00443*
1,1,0.00886,-0.02274,-0.00443*
1,1,0.00886,-0.02274,0.00443*
%
%ADD42ROUNDEDRECTD42*%
G04:AMPARAMS|DCode=43|XSize=23.62mil|YSize=47.24mil|CornerRadius=5.91mil|HoleSize=0mil|Usage=FLASHONLY|Rotation=90.000|XOffset=0mil|YOffset=0mil|HoleType=Round|Shape=RoundedRectangle|*
%AMROUNDEDRECTD43*
21,1,0.02362,0.03543,0,0,90.0*
21,1,0.01181,0.04724,0,0,90.0*
1,1,0.01181,0.01772,0.00591*
1,1,0.01181,0.01772,-0.00591*
1,1,0.01181,-0.01772,-0.00591*
1,1,0.01181,-0.01772,0.00591*
%
%ADD43ROUNDEDRECTD43*%
G04:AMPARAMS|DCode=44|XSize=21.65mil|YSize=59.06mil|CornerRadius=5.41mil|HoleSize=0mil|Usage=FLASHONLY|Rotation=0.000|XOffset=0mil|YOffset=0mil|HoleType=Round|Shape=RoundedRectangle|*
%AMROUNDEDRECTD44*
21,1,0.02165,0.04823,0,0,0.0*
21,1,0.01083,0.05906,0,0,0.0*
1,1,0.01083,0.00541,-0.02411*
1,1,0.01083,-0.00541,-0.02411*
1,1,0.01083,-0.00541,0.02411*
1,1,0.01083,0.00541,0.02411*
%
%ADD44ROUNDEDRECTD44*%
G04:AMPARAMS|DCode=45|XSize=74.8mil|YSize=102.36mil|CornerRadius=18.7mil|HoleSize=0mil|Usage=FLASHONLY|Rotation=180.000|XOffset=0mil|YOffset=0mil|HoleType=Round|Shape=RoundedRectangle|*
%AMROUNDEDRECTD45*
21,1,0.07480,0.06496,0,0,180.0*
21,1,0.03740,0.10236,0,0,180.0*
1,1,0.03740,-0.01870,0.03248*
1,1,0.03740,0.01870,0.03248*
1,1,0.03740,0.01870,-0.03248*
1,1,0.03740,-0.01870,-0.03248*
%
%ADD45ROUNDEDRECTD45*%
%ADD46O,0.31496X0.12992*%
%ADD47R,0.01969X0.02362*%
%ADD48R,0.05118X0.02362*%
%ADD49C,0.00984*%
%ADD50C,0.00787*%
%ADD51C,0.01181*%
%ADD52C,0.01575*%
%ADD53C,0.01772*%
%ADD54C,0.01378*%
%ADD55R,0.04250X0.05000*%
%ADD56R,0.11713X0.04528*%
%ADD57R,0.12598X0.05906*%
G04:AMPARAMS|DCode=58|XSize=90.55mil|YSize=70.87mil|CornerRadius=17.72mil|HoleSize=0mil|Usage=FLASHONLY|Rotation=180.000|XOffset=0mil|YOffset=0mil|HoleType=Round|Shape=RoundedRectangle|*
%AMROUNDEDRECTD58*
21,1,0.09055,0.03543,0,0,180.0*
21,1,0.05512,0.07087,0,0,180.0*
1,1,0.03543,-0.02756,0.01772*
1,1,0.03543,0.02756,0.01772*
1,1,0.03543,0.02756,-0.01772*
1,1,0.03543,-0.02756,-0.01772*
%
%ADD58ROUNDEDRECTD58*%
G04:AMPARAMS|DCode=59|XSize=90.55mil|YSize=51.18mil|CornerRadius=12.8mil|HoleSize=0mil|Usage=FLASHONLY|Rotation=180.000|XOffset=0mil|YOffset=0mil|HoleType=Round|Shape=RoundedRectangle|*
%AMROUNDEDRECTD59*
21,1,0.09055,0.02559,0,0,180.0*
21,1,0.06496,0.05118,0,0,180.0*
1,1,0.02559,-0.03248,0.01280*
1,1,0.02559,0.03248,0.01280*
1,1,0.02559,0.03248,-0.01280*
1,1,0.02559,-0.03248,-0.01280*
%
%ADD59ROUNDEDRECTD59*%
%ADD60C,0.03937*%
G04:AMPARAMS|DCode=61|XSize=59.06mil|YSize=59.06mil|CornerRadius=14.76mil|HoleSize=0mil|Usage=FLASHONLY|Rotation=90.000|XOffset=0mil|YOffset=0mil|HoleType=Round|Shape=RoundedRectangle|*
%AMROUNDEDRECTD61*
21,1,0.05906,0.02953,0,0,90.0*
21,1,0.02953,0.05906,0,0,90.0*
1,1,0.02953,0.01476,0.01476*
1,1,0.02953,0.01476,-0.01476*
1,1,0.02953,-0.01476,-0.01476*
1,1,0.02953,-0.01476,0.01476*
%
%ADD61ROUNDEDRECTD61*%
%ADD62C,0.06693*%
%ADD63O,0.04724X0.03937*%
%ADD64C,0.02402*%
%ADD65C,0.03150*%
%ADD66C,0.02756*%
G36*
X12049Y-16097D02*
X12220Y-16252D01*
Y-17077D01*
X12315Y-17557D01*
X12554Y-17913D01*
X12315Y-18270D01*
X12220Y-18750D01*
Y-19636D01*
X12315Y-20116D01*
X12554Y-20472D01*
X12315Y-20829D01*
X12220Y-21309D01*
Y-22195D01*
X12315Y-22675D01*
X12426Y-22840D01*
X12115Y-23305D01*
X12015Y-23811D01*
X15748D01*
X19481D01*
X19381Y-23305D01*
X19070Y-22840D01*
X19181Y-22675D01*
X19276Y-22195D01*
Y-21309D01*
X19218Y-21019D01*
X19506Y-20603D01*
X19971Y-20566D01*
X20577Y-21172D01*
X21001Y-21455D01*
X21500Y-21555D01*
X24931D01*
X25330Y-22055D01*
X25291Y-22250D01*
X27500D01*
Y-22750D01*
X28000D01*
Y-24764D01*
X28189D01*
X28771Y-24648D01*
X29265Y-24318D01*
X29896Y-24262D01*
X30085Y-24435D01*
Y-27029D01*
X29807Y-27445D01*
X29774Y-27610D01*
X29227Y-28011D01*
X29035Y-27973D01*
X28260Y-28127D01*
X27602Y-28567D01*
X27163Y-29224D01*
X27008Y-30000D01*
X27163Y-30776D01*
X27602Y-31433D01*
X28260Y-31873D01*
X29035Y-32027D01*
X29811Y-31873D01*
X29930Y-31794D01*
X30123Y-32082D01*
X30595Y-32398D01*
X31152Y-32508D01*
X32431D01*
X32988Y-32398D01*
X33460Y-32082D01*
X33775Y-31610D01*
X33886Y-31053D01*
Y-28002D01*
X33775Y-27445D01*
X33497Y-27029D01*
Y-24023D01*
X33686Y-23741D01*
X33785Y-23242D01*
Y-22258D01*
X33686Y-21759D01*
X33497Y-21477D01*
Y-21323D01*
X33661Y-21153D01*
X34203Y-21312D01*
X34205Y-21326D01*
X34666Y-22015D01*
X35355Y-22476D01*
X36167Y-22637D01*
X37442D01*
X37542Y-23137D01*
X37193Y-23282D01*
X36617Y-23723D01*
X36175Y-24299D01*
X35898Y-24970D01*
X35803Y-25689D01*
Y-36713D01*
X35898Y-37432D01*
X36175Y-38102D01*
X36617Y-38678D01*
X37193Y-39120D01*
X37469Y-39234D01*
Y-41043D01*
X37591Y-41658D01*
X37649Y-41744D01*
X37382Y-42244D01*
X37205D01*
Y-43756D01*
X36425D01*
Y-45177D01*
Y-46598D01*
X37205D01*
X37205Y-49878D01*
X36603D01*
X36463Y-49785D01*
X35925Y-49678D01*
X32382D01*
Y-49508D01*
X29479D01*
X29390Y-49433D01*
X29574Y-48933D01*
X32594D01*
Y-46858D01*
X29823D01*
Y-45858D01*
X32594D01*
Y-45024D01*
X32917Y-44776D01*
X33171Y-44951D01*
X33126Y-45177D01*
X33234Y-45721D01*
X33542Y-46182D01*
X34003Y-46490D01*
X34547Y-46598D01*
X35425D01*
Y-45177D01*
Y-43756D01*
X35286D01*
X35018Y-43256D01*
X35209Y-42971D01*
X35377Y-42126D01*
X35209Y-41281D01*
X34730Y-40565D01*
X34014Y-40086D01*
X33886Y-40061D01*
Y-37451D01*
X33775Y-36894D01*
X33460Y-36422D01*
X32988Y-36107D01*
X32431Y-35996D01*
X31152D01*
X30595Y-36107D01*
X30123Y-36422D01*
X29701Y-36153D01*
X29331Y-35906D01*
X28691Y-35779D01*
X28551D01*
Y-38976D01*
X27551D01*
Y-35779D01*
X27411D01*
X26772Y-35906D01*
X26402Y-36153D01*
X25980Y-36422D01*
X25508Y-36107D01*
X24951Y-35996D01*
X23671D01*
X23114Y-36107D01*
X22642Y-36422D01*
X22478Y-36668D01*
X21978Y-36516D01*
Y-36220D01*
X21863Y-35644D01*
X21853Y-35629D01*
Y-35242D01*
X24587Y-32508D01*
X24951D01*
X25508Y-32398D01*
X25980Y-32082D01*
X26295Y-31610D01*
X26406Y-31053D01*
Y-28002D01*
X26295Y-27445D01*
X25980Y-26973D01*
X25508Y-26658D01*
X24951Y-26547D01*
X23671D01*
X23114Y-26658D01*
X22642Y-26973D01*
X22327Y-27445D01*
X22216Y-28002D01*
Y-31053D01*
X22239Y-31166D01*
X19625Y-33780D01*
X19343Y-34203D01*
X19243Y-34702D01*
Y-34715D01*
X19094D01*
X18519Y-34830D01*
X18030Y-35156D01*
X17704Y-35644D01*
X17589Y-36220D01*
Y-38386D01*
X17623Y-38557D01*
X17213Y-39057D01*
X16665D01*
X16255Y-38557D01*
X16289Y-38386D01*
Y-37803D01*
X13878D01*
Y-37303D01*
X13378D01*
Y-34498D01*
X13189D01*
X12530Y-34629D01*
X11971Y-35003D01*
X11598Y-35561D01*
X11467Y-36220D01*
Y-36528D01*
X10967Y-36926D01*
X10728Y-36879D01*
X9154D01*
X8539Y-37001D01*
X8018Y-37349D01*
X7670Y-37870D01*
X7548Y-38484D01*
Y-40453D01*
X7670Y-41067D01*
X8018Y-41588D01*
X8539Y-41936D01*
X8926Y-42013D01*
X9109Y-42538D01*
X8228Y-43419D01*
X7766Y-43227D01*
Y-42202D01*
X6332D01*
X6181Y-41702D01*
X6352Y-41588D01*
X6700Y-41067D01*
X6822Y-40453D01*
Y-40002D01*
X6850Y-39862D01*
X6822Y-39722D01*
Y-38484D01*
X6700Y-37870D01*
X6352Y-37349D01*
X5831Y-37001D01*
X5912Y-36507D01*
X7185D01*
X7934Y-36408D01*
X8632Y-36119D01*
X9232Y-35659D01*
X9692Y-35060D01*
X9981Y-34361D01*
X10080Y-33612D01*
Y-32892D01*
X10521Y-32656D01*
X10731Y-32797D01*
X11688Y-32987D01*
X13870D01*
Y-29035D01*
X14370D01*
Y-28535D01*
X19552D01*
Y-27584D01*
X19362Y-26627D01*
X18884Y-25913D01*
X19062Y-25794D01*
X19381Y-25317D01*
X19481Y-24811D01*
X15748D01*
X11956D01*
X11732Y-25084D01*
X11688D01*
X10731Y-25274D01*
X9920Y-25816D01*
X9446Y-25786D01*
X9453Y-25251D01*
X9930Y-24537D01*
X10097Y-23696D01*
Y-23039D01*
X5315D01*
Y-22039D01*
X10097D01*
Y-21383D01*
X9930Y-20541D01*
X9453Y-19828D01*
X8918Y-19471D01*
X8917Y-19468D01*
Y-18918D01*
X8918Y-18915D01*
X9453Y-18558D01*
X9930Y-17844D01*
X10097Y-17003D01*
Y-16418D01*
X10597Y-16022D01*
X11000Y-16102D01*
X11776Y-15948D01*
X12049Y-16097D01*
D02*
G37*
G36*
X167227Y-76390D02*
Y-79309D01*
X167411Y-80231D01*
X167933Y-81012D01*
X168714Y-81534D01*
X169142Y-81619D01*
X169230Y-81868D01*
X169235Y-82148D01*
X168400Y-82788D01*
X167703Y-83696D01*
X167265Y-84754D01*
X167182Y-85388D01*
X171500D01*
Y-86388D01*
X167182D01*
X167265Y-87023D01*
X167703Y-88080D01*
X168400Y-88988D01*
X168512Y-89074D01*
X168351Y-89548D01*
X155639D01*
X155487Y-89048D01*
X155536Y-89015D01*
X155866Y-88521D01*
X155982Y-87939D01*
Y-87750D01*
X153969D01*
Y-87250D01*
X153469D01*
Y-85041D01*
X152894Y-85155D01*
X152401Y-85485D01*
X152158Y-85849D01*
X151701Y-85887D01*
X151594Y-85860D01*
X151446Y-85638D01*
X151023Y-85356D01*
X150524Y-85256D01*
X149539D01*
X149040Y-85356D01*
X148617Y-85638D01*
X148412Y-85945D01*
X147899D01*
Y-85766D01*
X147777Y-85151D01*
X147429Y-84630D01*
X146908Y-84282D01*
X146805Y-84262D01*
Y-79791D01*
X147305Y-79524D01*
X147507Y-79659D01*
X148236Y-79804D01*
X150294D01*
Y-80987D01*
X150203Y-81443D01*
Y-82821D01*
X150303Y-83320D01*
X150585Y-83743D01*
X151009Y-84026D01*
X151508Y-84126D01*
X152492D01*
X152991Y-84026D01*
X153415Y-83743D01*
X153697Y-83320D01*
X153797Y-82821D01*
Y-81443D01*
X153706Y-80987D01*
Y-79517D01*
X154112Y-79246D01*
X154525Y-78627D01*
X154546Y-78521D01*
X155810D01*
Y-79309D01*
X155993Y-80231D01*
X156516Y-81012D01*
X157297Y-81534D01*
X158219Y-81717D01*
X161368D01*
X162290Y-81534D01*
X163071Y-81012D01*
X163593Y-80231D01*
X163777Y-79309D01*
Y-74585D01*
X163633Y-73864D01*
X163971Y-73444D01*
X164269Y-73432D01*
X167227Y-76390D01*
D02*
G37*
G36*
X32916Y-5594D02*
X32795Y-5897D01*
X32480Y-6368D01*
X32357Y-6988D01*
Y-7079D01*
X35750D01*
Y-8079D01*
X32357D01*
Y-8169D01*
X32480Y-8790D01*
X32795Y-9261D01*
X32916Y-9563D01*
X32612Y-10014D01*
X31487D01*
X31468Y-9917D01*
X31120Y-9396D01*
X30599Y-9048D01*
X29984Y-8926D01*
X28016D01*
X27401Y-9048D01*
X26880Y-9396D01*
X26532Y-9917D01*
X26505Y-10055D01*
X25995D01*
X25968Y-9917D01*
X25620Y-9396D01*
X25099Y-9048D01*
X24805Y-8990D01*
Y-8040D01*
X27702Y-5143D01*
X32612D01*
X32916Y-5594D01*
D02*
G37*
G36*
X104933Y-6053D02*
X105048Y-6130D01*
X105630Y-6246D01*
X106491D01*
X106808Y-6632D01*
X106757Y-6890D01*
Y-9509D01*
X104597Y-11669D01*
X103464D01*
X102995Y-11762D01*
X102954Y-11762D01*
X102495Y-11480D01*
Y-6890D01*
X102444Y-6632D01*
X102761Y-6246D01*
X103425D01*
X104007Y-6130D01*
X104122Y-6053D01*
X104527Y-5816D01*
X104933Y-6053D01*
D02*
G37*
G36*
X123077Y-46672D02*
X123501Y-46955D01*
X124000Y-47055D01*
X133102D01*
X133424Y-47555D01*
X133364Y-47858D01*
Y-52681D01*
X133467Y-53199D01*
X133760Y-53639D01*
X134200Y-53933D01*
X134719Y-54036D01*
X135801D01*
X136320Y-53933D01*
X136759Y-53639D01*
X137053Y-53199D01*
X137156Y-52681D01*
Y-50845D01*
X137656Y-50447D01*
X138056Y-50527D01*
X138832Y-50373D01*
X139490Y-49933D01*
X139929Y-49276D01*
X140084Y-48500D01*
X139929Y-47724D01*
X139816Y-47555D01*
X140083Y-47055D01*
X140582D01*
X140904Y-47555D01*
X140844Y-47858D01*
Y-52681D01*
X140947Y-53199D01*
X141241Y-53639D01*
X141680Y-53933D01*
X142199Y-54036D01*
X143281D01*
X143695Y-53953D01*
X144195Y-54224D01*
Y-60644D01*
X143695Y-60976D01*
X143234Y-60884D01*
X142750D01*
Y-63494D01*
X141750D01*
Y-60884D01*
X141266D01*
X141222Y-60893D01*
X141186Y-60875D01*
X140837Y-60460D01*
X140896Y-60161D01*
Y-55339D01*
X140793Y-54820D01*
X140499Y-54381D01*
X140060Y-54087D01*
X139541Y-53984D01*
X138459D01*
X137940Y-54087D01*
X137501Y-54381D01*
X137207Y-54820D01*
X137104Y-55339D01*
Y-60161D01*
X137142Y-60351D01*
X136766Y-60851D01*
X135516D01*
X134901Y-60973D01*
X134380Y-61321D01*
X134032Y-61842D01*
X133964Y-62184D01*
X133237D01*
X133218Y-62086D01*
X132870Y-61565D01*
X132349Y-61217D01*
X131734Y-61095D01*
X129766D01*
X129151Y-61217D01*
X128630Y-61565D01*
X128282Y-62086D01*
X128263Y-62184D01*
X127486D01*
X127468Y-62092D01*
X127120Y-61571D01*
X126599Y-61223D01*
X126347Y-61173D01*
Y-52939D01*
X126621Y-52529D01*
X126776Y-51754D01*
X126621Y-50978D01*
X126182Y-50320D01*
X125524Y-49881D01*
X124748Y-49726D01*
X123973Y-49881D01*
X123315Y-50320D01*
X122876Y-50978D01*
X122721Y-51754D01*
X122876Y-52529D01*
X123315Y-53187D01*
X123738Y-53470D01*
Y-61156D01*
X123401Y-61223D01*
X122880Y-61571D01*
X122532Y-62092D01*
X122410Y-62707D01*
Y-64281D01*
X122532Y-64896D01*
X122880Y-65417D01*
X123401Y-65765D01*
X124016Y-65887D01*
X125984D01*
X126599Y-65765D01*
X127120Y-65417D01*
X127468Y-64896D01*
X127488Y-64793D01*
X128263D01*
X128282Y-64890D01*
X128630Y-65411D01*
X129151Y-65759D01*
X129766Y-65881D01*
X131734D01*
X132349Y-65759D01*
X132870Y-65411D01*
X133218Y-64890D01*
X133237Y-64793D01*
X134130D01*
X134380Y-65167D01*
X134901Y-65515D01*
X135516Y-65637D01*
X137484D01*
X137698Y-65992D01*
X137674Y-66035D01*
X137311Y-66363D01*
X135516D01*
X134901Y-66485D01*
X134380Y-66833D01*
X134032Y-67354D01*
X133964Y-67698D01*
X133454D01*
X133418Y-67515D01*
X133023Y-66924D01*
X132432Y-66529D01*
X131734Y-66390D01*
X131250D01*
Y-69000D01*
X130250D01*
Y-66390D01*
X129766D01*
X129068Y-66529D01*
X128477Y-66924D01*
X128082Y-67515D01*
X128021Y-67822D01*
X127511D01*
X127468Y-67604D01*
X127120Y-67083D01*
X126599Y-66735D01*
X125984Y-66613D01*
X124016D01*
X123401Y-66735D01*
X122880Y-67083D01*
X122532Y-67604D01*
X122410Y-68218D01*
Y-69793D01*
X122532Y-70408D01*
X122880Y-70929D01*
X123401Y-71277D01*
X124016Y-71399D01*
X124064D01*
Y-72254D01*
X123795Y-72504D01*
X123239Y-72445D01*
X123099Y-72235D01*
X122606Y-71905D01*
X122031Y-71791D01*
Y-74000D01*
Y-76209D01*
X122606Y-76095D01*
X123099Y-75765D01*
X123342Y-75401D01*
X123799Y-75363D01*
X123906Y-75390D01*
X124054Y-75612D01*
X124477Y-75894D01*
X124976Y-75994D01*
X125961D01*
X126460Y-75894D01*
X126883Y-75612D01*
X127166Y-75188D01*
X127265Y-74689D01*
Y-73311D01*
X127166Y-72812D01*
X126883Y-72388D01*
X126874Y-72382D01*
Y-71093D01*
X127120Y-70929D01*
X127468Y-70408D01*
X127512Y-70183D01*
X128022D01*
X128082Y-70485D01*
X128477Y-71076D01*
X129068Y-71471D01*
X129753Y-71607D01*
X129774Y-71640D01*
X129901Y-72110D01*
X129714Y-72235D01*
X129384Y-72729D01*
X129268Y-73311D01*
Y-73500D01*
X131281D01*
Y-74000D01*
X131781D01*
Y-76209D01*
X132356Y-76095D01*
X132849Y-75765D01*
X133092Y-75401D01*
X133549Y-75363D01*
X133656Y-75390D01*
X133804Y-75612D01*
X134227Y-75894D01*
X134726Y-75994D01*
X135711D01*
X136210Y-75894D01*
X136633Y-75612D01*
X136916Y-75188D01*
X137015Y-74689D01*
Y-73311D01*
X136916Y-72812D01*
X136633Y-72388D01*
X136624Y-72382D01*
Y-71149D01*
X137484D01*
X138099Y-71027D01*
X138620Y-70679D01*
X138968Y-70158D01*
X139090Y-69543D01*
Y-68923D01*
X139590Y-68656D01*
X139660Y-68703D01*
Y-69793D01*
X139782Y-70408D01*
X140130Y-70929D01*
X140578Y-71228D01*
X140618Y-71500D01*
X140578Y-71772D01*
X140130Y-72071D01*
X139782Y-72592D01*
X139660Y-73207D01*
Y-74782D01*
X139782Y-75396D01*
X140130Y-75917D01*
X140651Y-76265D01*
X141266Y-76387D01*
X143234D01*
X143559Y-76323D01*
X143997Y-76649D01*
Y-76850D01*
X143559Y-77177D01*
X143234Y-77113D01*
X141266D01*
X140651Y-77235D01*
X140536Y-77312D01*
X134373D01*
X134241Y-77224D01*
X133742Y-77125D01*
X132758D01*
X132259Y-77224D01*
X132127Y-77312D01*
X124623D01*
X124491Y-77224D01*
X123992Y-77125D01*
X123008D01*
X122509Y-77224D01*
X122377Y-77312D01*
X116768D01*
X116358Y-76812D01*
X116366Y-76772D01*
Y-74016D01*
X116259Y-73478D01*
X115954Y-73022D01*
X115498Y-72718D01*
X114961Y-72611D01*
X113779D01*
X113242Y-72718D01*
X112786Y-73022D01*
X112481Y-73478D01*
X112375Y-74016D01*
Y-76772D01*
X112466Y-77230D01*
X111747Y-77949D01*
X111323Y-77666D01*
X111331Y-77645D01*
X111446Y-76772D01*
Y-74016D01*
X111331Y-73142D01*
X110994Y-72328D01*
X110458Y-71629D01*
X109758Y-71093D01*
X108944Y-70755D01*
X108071Y-70640D01*
X106890D01*
X106016Y-70755D01*
X105202Y-71093D01*
X104503Y-71629D01*
X104357Y-71820D01*
X103767D01*
X103116Y-71550D01*
X102165Y-71425D01*
X100394D01*
X99443Y-71550D01*
X98557Y-71917D01*
X97984Y-72357D01*
X97966Y-72364D01*
X97439Y-72298D01*
X97357Y-72252D01*
X97072Y-71825D01*
X96384Y-71365D01*
X95571Y-71203D01*
X92971D01*
X92944Y-70091D01*
X93315Y-69757D01*
X93643Y-69800D01*
X95893D01*
X96803Y-69680D01*
X97651Y-69328D01*
X98380Y-68770D01*
X98496Y-68754D01*
X98805Y-68991D01*
X99572Y-69309D01*
X100394Y-69417D01*
X101969D01*
X102791Y-69309D01*
X103557Y-68991D01*
X104215Y-68486D01*
X104720Y-67829D01*
X104727Y-67811D01*
X105205Y-67666D01*
X105291Y-67724D01*
X105905Y-67846D01*
X107480D01*
X108095Y-67724D01*
X108616Y-67375D01*
X108964Y-66855D01*
X109086Y-66240D01*
Y-64272D01*
X108964Y-63657D01*
X108616Y-63136D01*
X108095Y-62788D01*
X107998Y-62769D01*
Y-62008D01*
X107898Y-61509D01*
X107615Y-61085D01*
X105468Y-58938D01*
X105542Y-58827D01*
X105633Y-58366D01*
Y-57579D01*
X105855Y-57309D01*
X106761D01*
Y-58464D01*
X106883Y-59079D01*
X107231Y-59600D01*
X107752Y-59948D01*
X108366Y-60070D01*
X109941D01*
X110555Y-59948D01*
X111076Y-59600D01*
X111424Y-59079D01*
X111547Y-58464D01*
Y-56496D01*
X111458Y-56053D01*
X111733Y-55653D01*
X111810Y-55596D01*
X112141Y-56067D01*
X112056Y-56496D01*
Y-56980D01*
X114665D01*
X117275D01*
Y-56496D01*
X117137Y-55799D01*
X116809Y-55309D01*
X116838Y-55241D01*
X117261Y-54958D01*
X118944Y-53275D01*
X119227Y-52852D01*
X119326Y-52353D01*
Y-49421D01*
X119227Y-48922D01*
X118944Y-48499D01*
X116963Y-46518D01*
X116613Y-46284D01*
X116513Y-45871D01*
X116509Y-45831D01*
X116524Y-45723D01*
X116859Y-45465D01*
X117301Y-44890D01*
X117579Y-44219D01*
X117673Y-43500D01*
X117579Y-42781D01*
X117301Y-42110D01*
X117223Y-42009D01*
X117445Y-41561D01*
X117965D01*
X123077Y-46672D01*
D02*
G37*
G36*
X78045Y-24413D02*
X78026Y-24508D01*
X78059Y-24672D01*
X77680Y-25172D01*
X68473D01*
X68261Y-24960D01*
X67838Y-24677D01*
X67339Y-24578D01*
X64148D01*
X63649Y-24677D01*
X63226Y-24960D01*
X62645Y-25541D01*
X62026Y-25127D01*
X61250Y-24973D01*
X60474Y-25127D01*
X59817Y-25567D01*
X59377Y-26224D01*
X59223Y-27000D01*
X59377Y-27776D01*
X59784Y-28384D01*
X59754Y-28488D01*
X59721Y-28517D01*
X59099Y-28485D01*
X58606Y-28155D01*
X58031Y-28041D01*
Y-30250D01*
X57531D01*
Y-30750D01*
X55445D01*
X55431Y-30768D01*
X55082Y-31029D01*
X55028Y-31040D01*
X54500Y-30970D01*
X53781Y-31065D01*
X53110Y-31343D01*
X52897Y-31506D01*
X52397Y-31260D01*
Y-24921D01*
X52848Y-24647D01*
X52880Y-24643D01*
X53224Y-24873D01*
X54000Y-25027D01*
X54776Y-24873D01*
X54828Y-24838D01*
X55753D01*
X55800Y-24848D01*
X57700D01*
X58199Y-24748D01*
X58212Y-24739D01*
X58216Y-24739D01*
X58639Y-24456D01*
X59182Y-23913D01*
X77635D01*
X78045Y-24413D01*
D02*
G37*
G36*
X78996Y-15978D02*
X78710Y-16405D01*
X78542Y-17250D01*
X78710Y-18095D01*
X79167Y-18778D01*
X79129Y-18970D01*
X79008Y-19291D01*
X77436Y-19445D01*
X62875D01*
X62723Y-18945D01*
X63147Y-18662D01*
X63343Y-18369D01*
X64012Y-18231D01*
X64224Y-18373D01*
X64410Y-18410D01*
X64478Y-18455D01*
X64978Y-18555D01*
X65477Y-18455D01*
X65526Y-18422D01*
X65776Y-18373D01*
X66433Y-17933D01*
X66873Y-17276D01*
X67027Y-16500D01*
X66923Y-15978D01*
X67264Y-15478D01*
X78728D01*
X78996Y-15978D01*
D02*
G37*
G36*
X59687Y-17229D02*
X59841Y-18005D01*
X60280Y-18662D01*
X60704Y-18945D01*
X60553Y-19445D01*
X57628D01*
X57526Y-19377D01*
X56750Y-19223D01*
X55974Y-19377D01*
X55317Y-19817D01*
X54877Y-20474D01*
X54748Y-21122D01*
X54000Y-20973D01*
X53224Y-21127D01*
X52567Y-21567D01*
X52127Y-22224D01*
X51991Y-22908D01*
X51704Y-23103D01*
X51499Y-23181D01*
X51282Y-23036D01*
X50591Y-22898D01*
X49936D01*
Y-22112D01*
X50311Y-21862D01*
X50724Y-21243D01*
X50869Y-20514D01*
Y-19212D01*
X51310Y-18976D01*
X51405Y-19040D01*
X52250Y-19208D01*
X53095Y-19040D01*
X53811Y-18561D01*
X54290Y-17845D01*
X54388Y-17348D01*
X54529Y-16982D01*
X54943Y-16875D01*
X59291D01*
X59687Y-17229D01*
D02*
G37*
G36*
X26751Y-84371D02*
X27077Y-84589D01*
X27362Y-84645D01*
X27657Y-84941D01*
X39961D01*
X48969Y-89059D01*
X48863Y-89548D01*
X15305D01*
X15061Y-89048D01*
X15435Y-88488D01*
X15612Y-87598D01*
Y-86819D01*
X10039D01*
Y-86319D01*
X9539D01*
Y-82715D01*
X6791D01*
X6424Y-82788D01*
X5988Y-82508D01*
X6257Y-82185D01*
X24565D01*
X26751Y-84371D01*
D02*
G37*
G36*
X141975Y-32773D02*
Y-41430D01*
X140710Y-42695D01*
X137443D01*
X137291Y-42195D01*
X137683Y-41933D01*
X138123Y-41276D01*
X138277Y-40500D01*
X138247Y-40348D01*
X139428Y-39167D01*
X139711Y-38743D01*
X139811Y-38244D01*
Y-37487D01*
X139908Y-37468D01*
X140429Y-37120D01*
X140777Y-36599D01*
X140899Y-35984D01*
Y-34016D01*
X140777Y-33401D01*
X141063Y-32930D01*
X141433Y-32683D01*
X141475Y-32621D01*
X141975Y-32773D01*
D02*
G37*
G36*
X66354Y-28983D02*
X66435Y-29037D01*
X66765Y-29367D01*
X67188Y-29650D01*
X67687Y-29750D01*
X77680D01*
X78059Y-30250D01*
X78026Y-30413D01*
X78125Y-30913D01*
X78408Y-31336D01*
Y-31459D01*
X78125Y-31883D01*
X78026Y-32382D01*
X78125Y-32881D01*
X78408Y-33304D01*
Y-33428D01*
X78125Y-33851D01*
X78026Y-34350D01*
X78125Y-34850D01*
X78408Y-35273D01*
Y-35396D01*
X78125Y-35820D01*
X78026Y-36319D01*
X78125Y-36818D01*
X78188Y-36911D01*
X78378Y-37303D01*
X78188Y-37695D01*
X78125Y-37788D01*
X78026Y-38287D01*
X78125Y-38787D01*
X78285Y-39026D01*
X78255Y-39180D01*
X77925Y-39674D01*
X77909Y-39756D01*
X80610D01*
Y-40756D01*
X77777D01*
X77574Y-41074D01*
X77182Y-41148D01*
X76887Y-40950D01*
X76728Y-40591D01*
X76687Y-40349D01*
X76697Y-40334D01*
X76797Y-39835D01*
Y-38457D01*
X76697Y-37958D01*
X76415Y-37534D01*
X76222Y-37406D01*
X76207Y-37360D01*
X76249Y-36832D01*
X76568Y-36619D01*
X76898Y-36125D01*
X77013Y-35543D01*
Y-35354D01*
X72987D01*
Y-35543D01*
X73102Y-36125D01*
X73432Y-36619D01*
X73750Y-36832D01*
X73793Y-37360D01*
X73778Y-37406D01*
X73585Y-37534D01*
X73303Y-37958D01*
X73203Y-38457D01*
Y-39835D01*
X73303Y-40334D01*
X73445Y-40548D01*
Y-41000D01*
X73545Y-41499D01*
X73827Y-41923D01*
X74087Y-42182D01*
X73974Y-42750D01*
X74023Y-42991D01*
X73956Y-43091D01*
X73856Y-43591D01*
X73676Y-43739D01*
X73282Y-43660D01*
X72291D01*
X72023Y-43160D01*
X72116Y-43021D01*
X72232Y-42439D01*
Y-42250D01*
X70218D01*
Y-41750D01*
X69718D01*
Y-39541D01*
X69144Y-39656D01*
X68651Y-39985D01*
X68408Y-40349D01*
X67951Y-40387D01*
X67844Y-40360D01*
X67696Y-40139D01*
X67273Y-39856D01*
X66774Y-39756D01*
X65789D01*
X65290Y-39856D01*
X64867Y-40139D01*
X64584Y-40562D01*
X64485Y-41061D01*
Y-42439D01*
X64584Y-42938D01*
X64867Y-43361D01*
X65290Y-43644D01*
X65789Y-43744D01*
X65899D01*
X67327Y-45173D01*
X67751Y-45455D01*
X68250Y-45555D01*
X69954D01*
X70101Y-45702D01*
Y-47234D01*
X70223Y-47849D01*
X70571Y-48370D01*
X70912Y-48597D01*
X70912Y-49153D01*
X70571Y-49380D01*
X70223Y-49901D01*
X70151Y-50265D01*
X69025D01*
X68248Y-49746D01*
X67326Y-49563D01*
X66404Y-49746D01*
X65623Y-50268D01*
X65101Y-51049D01*
X64918Y-51971D01*
X65101Y-52893D01*
X65623Y-53674D01*
X66404Y-54196D01*
X67326Y-54379D01*
X68248Y-54196D01*
X69025Y-53677D01*
X70657D01*
X71092Y-53968D01*
X71707Y-54090D01*
X73282D01*
X73896Y-53968D01*
X74101Y-53831D01*
X74239Y-54036D01*
X75953Y-55751D01*
Y-57284D01*
X76076Y-57898D01*
X76424Y-58419D01*
X76945Y-58767D01*
X77559Y-58889D01*
X79134D01*
X79748Y-58767D01*
X80269Y-58419D01*
X80617Y-57898D01*
X80739Y-57284D01*
Y-55315D01*
X80725Y-55243D01*
X81099Y-54773D01*
X81106D01*
X81480Y-55243D01*
X81465Y-55315D01*
Y-57284D01*
X81587Y-57898D01*
X81936Y-58419D01*
X82456Y-58767D01*
X83071Y-58889D01*
X84646D01*
X85260Y-58767D01*
X85781Y-58419D01*
X86129Y-57898D01*
X86188Y-57604D01*
X91093D01*
X92385Y-58895D01*
X92808Y-59178D01*
X93307Y-59277D01*
X100123D01*
X100425Y-59479D01*
X100886Y-59570D01*
X102410D01*
X104302Y-61462D01*
X103972Y-61839D01*
X103557Y-61520D01*
X102791Y-61203D01*
X101969Y-61095D01*
X100394D01*
X99572Y-61203D01*
X98805Y-61520D01*
X98715Y-61589D01*
X98380Y-61545D01*
X97651Y-60986D01*
X96803Y-60635D01*
X95893Y-60515D01*
X93643D01*
X92732Y-60635D01*
X92539Y-60715D01*
X87965Y-60374D01*
X87200D01*
X86906Y-60251D01*
X85893Y-60118D01*
X83643D01*
X82630Y-60251D01*
X82335Y-60374D01*
X41320D01*
X41261Y-60314D01*
X40935Y-60097D01*
X40551Y-60020D01*
X27559D01*
X27175Y-60097D01*
X26849Y-60314D01*
X24978Y-62186D01*
X15940D01*
X15694Y-61686D01*
X15815Y-61528D01*
X16094Y-60853D01*
X16189Y-60130D01*
Y-58858D01*
X10638D01*
Y-57858D01*
X16189D01*
Y-57520D01*
X16689Y-57252D01*
X17129Y-57546D01*
X18012Y-57722D01*
X20965D01*
X21848Y-57546D01*
X22597Y-57046D01*
X23097Y-56297D01*
X23273Y-55413D01*
Y-52896D01*
X23659Y-52579D01*
X23819Y-52611D01*
X24664Y-52443D01*
X25039Y-52192D01*
X27264D01*
Y-54232D01*
X32382D01*
Y-52488D01*
X35925D01*
X36463Y-52381D01*
X36603Y-52287D01*
X36851D01*
X37205Y-52640D01*
X37205Y-53494D01*
X37371D01*
X37654Y-53839D01*
Y-54716D01*
X39075D01*
Y-55216D01*
X39575D01*
Y-57916D01*
X39619Y-57907D01*
X40059Y-57613D01*
X40499Y-57907D01*
X40543Y-57916D01*
Y-55216D01*
X41543D01*
Y-57916D01*
X41587Y-57907D01*
X42028Y-57613D01*
X42468Y-57907D01*
X42512Y-57916D01*
Y-55216D01*
X43512D01*
Y-57916D01*
X43556Y-57907D01*
X43996Y-57613D01*
X44436Y-57907D01*
X44480Y-57916D01*
Y-55216D01*
X45480D01*
Y-57916D01*
X45524Y-57907D01*
X45985Y-57599D01*
X46488Y-57707D01*
X46949Y-57799D01*
X47198Y-57749D01*
X47274Y-58131D01*
X47752Y-58847D01*
X48469Y-59326D01*
X49313Y-59494D01*
X50158Y-59326D01*
X50875Y-58847D01*
X51353Y-58131D01*
X51521Y-57286D01*
X51353Y-56441D01*
X50875Y-55725D01*
X50158Y-55247D01*
X49421Y-55100D01*
X48686Y-54365D01*
X48562Y-54282D01*
X48483Y-53983D01*
X48705Y-53494D01*
X48705D01*
Y-52300D01*
X48720Y-52287D01*
X49458D01*
X53217Y-56046D01*
Y-56890D01*
X53339Y-57504D01*
X53688Y-58025D01*
X54208Y-58373D01*
X54823Y-58495D01*
X56791D01*
X57406Y-58373D01*
X57927Y-58025D01*
X58187Y-57636D01*
X58280Y-57610D01*
X58649D01*
X58742Y-57636D01*
X59002Y-58025D01*
X59523Y-58373D01*
X60138Y-58495D01*
X62106D01*
X62721Y-58373D01*
X63242Y-58025D01*
X63590Y-57504D01*
X63712Y-56890D01*
Y-55315D01*
X63590Y-54700D01*
X63242Y-54180D01*
X62721Y-53831D01*
X62106Y-53709D01*
X60138D01*
X59523Y-53831D01*
X59002Y-54180D01*
X58742Y-54569D01*
X58649Y-54595D01*
X58280D01*
X58187Y-54569D01*
X57927Y-54180D01*
X57406Y-53832D01*
X56791Y-53709D01*
X54823D01*
X54612Y-53751D01*
X54238Y-53377D01*
X54484Y-52916D01*
X54823Y-52984D01*
X56791D01*
X57406Y-52861D01*
X57927Y-52513D01*
X58187Y-52124D01*
X58280Y-52098D01*
X58649D01*
X58742Y-52124D01*
X59002Y-52513D01*
X59523Y-52861D01*
X60138Y-52984D01*
X62106D01*
X62721Y-52861D01*
X63242Y-52513D01*
X63590Y-51992D01*
X63712Y-51378D01*
Y-49803D01*
X63590Y-49189D01*
X63242Y-48668D01*
X62721Y-48320D01*
X62527Y-48281D01*
Y-47565D01*
X62721Y-47527D01*
X63242Y-47179D01*
X63590Y-46658D01*
X63712Y-46043D01*
Y-44469D01*
X63590Y-43854D01*
X63242Y-43333D01*
X62721Y-42985D01*
X62106Y-42863D01*
X60138D01*
X59523Y-42985D01*
X59002Y-43333D01*
X58656Y-43851D01*
X58174D01*
X57828Y-43333D01*
X57307Y-42985D01*
X56693Y-42863D01*
X55777D01*
X55771Y-42854D01*
X56039Y-42354D01*
X56693D01*
X57390Y-42215D01*
X57982Y-41820D01*
X58242Y-41430D01*
X58803Y-41389D01*
X58821Y-41395D01*
X59002Y-41667D01*
X59523Y-42015D01*
X60138Y-42137D01*
X62106D01*
X62721Y-42015D01*
X63242Y-41667D01*
X63590Y-41146D01*
X63712Y-40532D01*
Y-38957D01*
X63709Y-38941D01*
X64026Y-38555D01*
X67402D01*
X67758Y-38625D01*
X68742D01*
X69241Y-38526D01*
X69665Y-38243D01*
X69947Y-37820D01*
X70047Y-37321D01*
Y-35943D01*
X69947Y-35444D01*
X69665Y-35020D01*
X69241Y-34738D01*
X68742Y-34638D01*
X68147D01*
X68110Y-34625D01*
X67727Y-34151D01*
X67780Y-33750D01*
X67685Y-33031D01*
X67407Y-32360D01*
X66966Y-31784D01*
X66390Y-31343D01*
X65719Y-31065D01*
X65000Y-30970D01*
X64281Y-31065D01*
X64035Y-31167D01*
X63471Y-30882D01*
X63423Y-30693D01*
X64380Y-29736D01*
X64407Y-29696D01*
X64542Y-29561D01*
X64622Y-29507D01*
X65358Y-28771D01*
X66142D01*
X66354Y-28983D01*
D02*
G37*
G36*
X114917Y-80787D02*
X115608Y-80924D01*
X115733Y-80900D01*
X115858Y-80924D01*
X122377D01*
X122509Y-81012D01*
X123008Y-81112D01*
X123992D01*
X124491Y-81012D01*
X124623Y-80924D01*
X132127D01*
X132259Y-81012D01*
X132758Y-81112D01*
X133742D01*
X134241Y-81012D01*
X134373Y-80924D01*
X139794D01*
X140130Y-81429D01*
X140651Y-81777D01*
X141266Y-81899D01*
X143234D01*
X143695Y-81807D01*
X144195Y-82101D01*
Y-84264D01*
X144104Y-84282D01*
X143583Y-84630D01*
X143235Y-85151D01*
X143113Y-85766D01*
Y-87734D01*
X143235Y-88349D01*
X143583Y-88870D01*
X143850Y-89048D01*
X143698Y-89548D01*
X142185D01*
X142033Y-89048D01*
X142070Y-89023D01*
X142465Y-88432D01*
X142604Y-87734D01*
Y-87250D01*
X139994D01*
X137384D01*
Y-87734D01*
X137523Y-88432D01*
X137918Y-89023D01*
X137955Y-89048D01*
X137803Y-89548D01*
X134120D01*
X133864Y-89135D01*
X133865Y-89048D01*
X134021Y-88264D01*
Y-86500D01*
X130815D01*
X127609D01*
Y-88264D01*
X127765Y-89048D01*
X127766Y-89135D01*
X127510Y-89548D01*
X123189D01*
X122954Y-89107D01*
X123029Y-88993D01*
X123174Y-88264D01*
Y-83736D01*
X123029Y-83007D01*
X122616Y-82388D01*
X121997Y-81975D01*
X121268Y-81830D01*
X119102D01*
X118373Y-81975D01*
X118308Y-82018D01*
X117935Y-81944D01*
X117125D01*
X117026Y-81877D01*
X116250Y-81723D01*
X115474Y-81877D01*
X114817Y-82317D01*
X114377Y-82974D01*
X114354Y-83092D01*
X113093Y-84353D01*
X112701Y-84939D01*
X112695Y-84970D01*
X112481Y-85289D01*
X112375Y-85827D01*
Y-88583D01*
X112467Y-89048D01*
X112292Y-89474D01*
X112253Y-89548D01*
X109597D01*
X109558Y-89474D01*
X109383Y-89048D01*
X109476Y-88583D01*
Y-85827D01*
X109393Y-85411D01*
X114378Y-80427D01*
X114917Y-80787D01*
D02*
G37*
G36*
X162379Y-1503D02*
X161953Y-2058D01*
X161515Y-3115D01*
X161510Y-3157D01*
X161013Y-3165D01*
X160898Y-2583D01*
X160568Y-2090D01*
X160074Y-1760D01*
X159500Y-1646D01*
Y-3854D01*
X159000D01*
Y-4354D01*
X156986D01*
Y-4543D01*
X157102Y-5125D01*
X157432Y-5619D01*
X157750Y-5832D01*
X157793Y-6360D01*
X157778Y-6406D01*
X157585Y-6534D01*
X157447Y-6741D01*
X156216D01*
X155870Y-6223D01*
X155349Y-5875D01*
X154734Y-5753D01*
X152766D01*
X152151Y-5875D01*
X151630Y-6223D01*
X151282Y-6744D01*
X151160Y-7358D01*
Y-8933D01*
X151282Y-9548D01*
X151630Y-10068D01*
X152151Y-10417D01*
X152345Y-10455D01*
Y-11427D01*
X152330Y-11430D01*
X151841Y-11756D01*
X151515Y-12245D01*
X151400Y-12821D01*
Y-14199D01*
X151515Y-14775D01*
X151671Y-15009D01*
X151800Y-15380D01*
X151671Y-15751D01*
X151608Y-15845D01*
X150357D01*
X145292Y-10779D01*
X145152Y-10079D01*
X144713Y-9421D01*
X144584Y-9335D01*
Y-5213D01*
X144579Y-5188D01*
Y-3043D01*
X144775Y-2805D01*
X151160D01*
Y-3421D01*
X151282Y-4036D01*
X151630Y-4557D01*
X152151Y-4905D01*
X152766Y-5027D01*
X154734D01*
X155349Y-4905D01*
X155870Y-4557D01*
X156218Y-4036D01*
X156340Y-3421D01*
Y-1846D01*
X156272Y-1503D01*
X156621Y-1003D01*
X162132D01*
X162379Y-1503D01*
D02*
G37*
G36*
X166250Y-8568D02*
X166885Y-8485D01*
X167942Y-8047D01*
X168850Y-7350D01*
X169023Y-7124D01*
X169497Y-7285D01*
Y-27067D01*
X169573Y-27451D01*
X169790Y-27777D01*
X170116Y-27994D01*
X170500Y-28071D01*
X176162D01*
Y-84479D01*
X175662Y-84578D01*
X175297Y-83696D01*
X174600Y-82788D01*
X173692Y-82092D01*
X173583Y-82047D01*
X173632Y-81549D01*
X173707Y-81534D01*
X174488Y-81012D01*
X175011Y-80231D01*
X175194Y-79309D01*
Y-74585D01*
X175011Y-73663D01*
X174488Y-72882D01*
X173707Y-72360D01*
X172785Y-72176D01*
X169636D01*
X168714Y-72360D01*
X168299Y-72637D01*
X166220Y-70557D01*
X166427Y-70057D01*
X175148D01*
Y-51553D01*
X155463D01*
Y-70057D01*
X155463Y-70057D01*
X155463D01*
X155505Y-70557D01*
X155024Y-71038D01*
X153527D01*
X152206Y-69716D01*
Y-69174D01*
X152764D01*
X153493Y-69029D01*
X154112Y-68616D01*
X154525Y-67997D01*
X154671Y-67268D01*
Y-65102D01*
X154525Y-64373D01*
X154112Y-63754D01*
X153493Y-63341D01*
X152764Y-63196D01*
X152206D01*
Y-60205D01*
X152620Y-59929D01*
X152968Y-59408D01*
X153090Y-58793D01*
Y-57218D01*
X152968Y-56604D01*
X152620Y-56083D01*
X152099Y-55735D01*
X151484Y-55613D01*
X149516D01*
X148901Y-55735D01*
X148380Y-56083D01*
X148032Y-56604D01*
X147910Y-57218D01*
Y-58793D01*
X148032Y-59408D01*
X148380Y-59929D01*
X148794Y-60205D01*
Y-63196D01*
X148236D01*
X147507Y-63341D01*
X147305Y-63476D01*
X146805Y-63209D01*
Y-47250D01*
X146705Y-46751D01*
X146423Y-46327D01*
X144922Y-44827D01*
X144499Y-44545D01*
X144000Y-44445D01*
X143303D01*
X143112Y-43984D01*
X144202Y-42893D01*
X144485Y-42470D01*
X144584Y-41971D01*
Y-27260D01*
X144579Y-27236D01*
Y-25091D01*
X144499Y-24687D01*
X144271Y-24345D01*
X143929Y-24117D01*
X143526Y-24037D01*
X143034D01*
X142630Y-24117D01*
X142295Y-24341D01*
X141960Y-24117D01*
X141557Y-24037D01*
X141065D01*
X140662Y-24117D01*
X140506Y-24221D01*
X140487Y-24192D01*
X140075Y-23917D01*
X139843Y-23871D01*
Y-27010D01*
X138843D01*
Y-23871D01*
X138610Y-23917D01*
X138198Y-24192D01*
X138179Y-24221D01*
X138023Y-24117D01*
X137620Y-24037D01*
X137128D01*
X136725Y-24117D01*
X136390Y-24341D01*
X136055Y-24117D01*
X135652Y-24037D01*
X135160D01*
X134805Y-23746D01*
Y-20790D01*
X136328Y-19267D01*
X136611Y-18844D01*
X136710Y-18345D01*
Y-8362D01*
X137128Y-7936D01*
X137620D01*
X138023Y-7855D01*
X138179Y-7751D01*
X138198Y-7780D01*
X138610Y-8056D01*
X138843Y-8102D01*
Y-4963D01*
X139843D01*
Y-8102D01*
X140075Y-8056D01*
X140487Y-7780D01*
X140506Y-7751D01*
X140662Y-7855D01*
X141065Y-7936D01*
X141557D01*
X141975Y-8362D01*
Y-9335D01*
X141846Y-9421D01*
X141407Y-10079D01*
X141252Y-10854D01*
X141407Y-11630D01*
X141846Y-12288D01*
X142504Y-12727D01*
X143280Y-12881D01*
X143397Y-12858D01*
X148782Y-18244D01*
X149238Y-18548D01*
X149522Y-18605D01*
Y-24345D01*
X149629Y-24883D01*
X149934Y-25339D01*
X151429Y-26834D01*
X151460Y-26991D01*
X151743Y-27415D01*
X152166Y-27697D01*
X152665Y-27797D01*
X154043D01*
X154543Y-27697D01*
X154966Y-27415D01*
X155094Y-27222D01*
X155140Y-27207D01*
X155668Y-27250D01*
X155881Y-27568D01*
X156375Y-27898D01*
X156957Y-28014D01*
X157146D01*
Y-26000D01*
X158146D01*
Y-28014D01*
X158335D01*
X158917Y-27898D01*
X159410Y-27568D01*
X160000Y-27586D01*
X160166Y-27697D01*
X160665Y-27797D01*
X162043D01*
X162543Y-27697D01*
X162966Y-27415D01*
X163243Y-26999D01*
X163288Y-26991D01*
X163712D01*
X163757Y-26999D01*
X164034Y-27415D01*
X164112Y-27467D01*
X163773Y-27974D01*
X163619Y-28750D01*
X163773Y-29526D01*
X164212Y-30183D01*
X164870Y-30623D01*
X165646Y-30777D01*
X166421Y-30623D01*
X167079Y-30183D01*
X167518Y-29526D01*
X167673Y-28750D01*
X167518Y-27974D01*
X167179Y-27467D01*
X167257Y-27415D01*
X167540Y-26991D01*
X167639Y-26492D01*
Y-25508D01*
X167540Y-25009D01*
X167257Y-24585D01*
X166834Y-24303D01*
X166335Y-24203D01*
X164957D01*
X164457Y-24303D01*
X164034Y-24585D01*
X163757Y-25001D01*
X163712Y-25009D01*
X163288D01*
X163243Y-25001D01*
X162966Y-24585D01*
X162666Y-24385D01*
X162652Y-24317D01*
X162375Y-23901D01*
X162412Y-23742D01*
X162595Y-23401D01*
X163724D01*
Y-21490D01*
X160632D01*
Y-21498D01*
X160252Y-21752D01*
X160143Y-21772D01*
X160038Y-21702D01*
X159500Y-21595D01*
X158936D01*
X158151Y-20810D01*
Y-20301D01*
X158036Y-19725D01*
X157880Y-19491D01*
X157751Y-19120D01*
X157880Y-18749D01*
X158036Y-18515D01*
X158151Y-17939D01*
Y-16561D01*
X158036Y-15985D01*
X157880Y-15751D01*
X157751Y-15380D01*
X157880Y-15009D01*
X158036Y-14775D01*
X158151Y-14199D01*
Y-12821D01*
X158036Y-12245D01*
X157710Y-11756D01*
X157222Y-11430D01*
X156646Y-11316D01*
X155155D01*
Y-10455D01*
X155349Y-10417D01*
X155870Y-10068D01*
X156216Y-9551D01*
X157447D01*
X157585Y-9757D01*
X158009Y-10040D01*
X158508Y-10139D01*
X159492D01*
X159991Y-10040D01*
X160415Y-9757D01*
X160697Y-9334D01*
X160797Y-8835D01*
Y-7457D01*
X160697Y-6957D01*
X160415Y-6534D01*
X160222Y-6406D01*
X160207Y-6360D01*
X160250Y-5832D01*
X160568Y-5619D01*
X160898Y-5125D01*
X160945Y-4886D01*
X161452Y-4902D01*
X161515Y-5385D01*
X161953Y-6442D01*
X162650Y-7350D01*
X163558Y-8047D01*
X164615Y-8485D01*
X165250Y-8568D01*
Y-4250D01*
X166250D01*
Y-8568D01*
D02*
G37*
G36*
X125035Y-1503D02*
X124953Y-1915D01*
Y-3293D01*
X125053Y-3793D01*
X125335Y-4216D01*
X125528Y-4344D01*
X125543Y-4390D01*
X125503Y-4889D01*
X125077Y-5109D01*
X124617Y-4649D01*
X124616Y-4648D01*
X124160Y-4343D01*
X123623Y-4236D01*
X120276D01*
Y-3150D01*
X116732D01*
Y-7087D01*
X120276D01*
Y-7046D01*
X123040D01*
X123170Y-7176D01*
Y-8680D01*
X123277Y-9217D01*
X123582Y-9673D01*
X124953Y-11045D01*
Y-11543D01*
X125053Y-12043D01*
X125335Y-12466D01*
X125528Y-12594D01*
X125543Y-12640D01*
X125501Y-13168D01*
X125182Y-13381D01*
X124852Y-13874D01*
X124736Y-14457D01*
Y-14646D01*
X126750D01*
X128763D01*
Y-14457D01*
X128648Y-13874D01*
X128318Y-13381D01*
X128000Y-13168D01*
X127957Y-12640D01*
X127972Y-12594D01*
X128123Y-12494D01*
X128567Y-12288D01*
X129224Y-12727D01*
X130000Y-12881D01*
X130776Y-12727D01*
X131433Y-12288D01*
X131873Y-11630D01*
X132027Y-10854D01*
X131873Y-10079D01*
X131433Y-9421D01*
X130776Y-8981D01*
X130000Y-8827D01*
X129224Y-8981D01*
X128662Y-9357D01*
X128258Y-9173D01*
X128281Y-8685D01*
X128318Y-8660D01*
X128648Y-8167D01*
X128763Y-7585D01*
Y-7396D01*
X126750D01*
Y-6396D01*
X128763D01*
Y-6207D01*
X128648Y-5624D01*
X128318Y-5131D01*
X128000Y-4918D01*
X127957Y-4390D01*
X127972Y-4344D01*
X128165Y-4216D01*
X128370Y-3909D01*
X134064D01*
X134101Y-3946D01*
Y-5213D01*
Y-17804D01*
X132578Y-19328D01*
X132295Y-19751D01*
X132195Y-20250D01*
Y-26710D01*
X131960Y-26945D01*
X130527D01*
X130260Y-26445D01*
X130373Y-26276D01*
X130527Y-25500D01*
X130373Y-24724D01*
X129933Y-24067D01*
X129276Y-23627D01*
X128500Y-23473D01*
X127724Y-23627D01*
X127067Y-24067D01*
X126627Y-24724D01*
X126532Y-25202D01*
X117351D01*
X116995Y-24702D01*
X117092Y-24214D01*
X116937Y-23438D01*
X116498Y-22780D01*
X115840Y-22341D01*
X115065Y-22187D01*
X114763Y-21939D01*
Y-21207D01*
X114648Y-20625D01*
X114318Y-20131D01*
X114186Y-20043D01*
X114129Y-19473D01*
X114384Y-19210D01*
X117533D01*
X117534Y-19210D01*
X118148Y-19088D01*
X118669Y-18740D01*
X120547Y-16861D01*
X121653D01*
X122268Y-16739D01*
X122789Y-16391D01*
X123137Y-15870D01*
X123259Y-15256D01*
Y-13287D01*
X123137Y-12673D01*
X122789Y-12152D01*
X122268Y-11804D01*
X122244Y-11799D01*
Y-8268D01*
X118701D01*
Y-8268D01*
X118307D01*
Y-8268D01*
X114764D01*
Y-11682D01*
X114567D01*
X113953Y-11804D01*
X113432Y-12152D01*
X113084Y-12673D01*
X112968Y-13253D01*
X112361D01*
X112125Y-12812D01*
X112200Y-12699D01*
X112338Y-12008D01*
Y-6890D01*
X112200Y-6199D01*
X111952Y-5827D01*
X112222Y-5647D01*
X112504Y-5224D01*
X112604Y-4724D01*
Y-3740D01*
X112504Y-3241D01*
X112222Y-2818D01*
X111798Y-2535D01*
X111299Y-2435D01*
X109921D01*
X109422Y-2535D01*
X108999Y-2818D01*
X108870Y-3010D01*
X108824Y-3025D01*
X108296Y-2983D01*
X108084Y-2664D01*
X107590Y-2335D01*
X107008Y-2219D01*
X106819D01*
Y-4232D01*
X105819D01*
Y-2219D01*
X105630D01*
X105048Y-2335D01*
X104554Y-2664D01*
X104501D01*
X104007Y-2335D01*
X103425Y-2219D01*
X103236D01*
Y-4232D01*
X102236D01*
Y-2219D01*
X102047D01*
X101465Y-2335D01*
X100971Y-2664D01*
X100759Y-2983D01*
X100231Y-3025D01*
X100185Y-3010D01*
X100056Y-2818D01*
X99633Y-2535D01*
X99134Y-2435D01*
X97756D01*
X97257Y-2535D01*
X96833Y-2818D01*
X96551Y-3241D01*
X96451Y-3740D01*
Y-4724D01*
X96551Y-5224D01*
X96833Y-5647D01*
X97219Y-5904D01*
Y-5948D01*
X97052Y-6199D01*
X96914Y-6890D01*
Y-7506D01*
X96452Y-7698D01*
X95978Y-7223D01*
X95554Y-6940D01*
X95055Y-6841D01*
X86620D01*
X86415Y-6534D01*
X86222Y-6406D01*
X86207Y-6360D01*
X86250Y-5832D01*
X86568Y-5619D01*
X86898Y-5125D01*
X87014Y-4543D01*
Y-4354D01*
X82986D01*
Y-4543D01*
X83102Y-5125D01*
X83432Y-5619D01*
X83750Y-5832D01*
X83793Y-6360D01*
X83778Y-6406D01*
X83585Y-6534D01*
X83380Y-6841D01*
X81716D01*
Y-4528D01*
X81625Y-3834D01*
X81357Y-3187D01*
X80931Y-2632D01*
X80376Y-2206D01*
X79729Y-1939D01*
X79035Y-1847D01*
X75295D01*
X74602Y-1939D01*
X73955Y-2206D01*
X73400Y-2632D01*
X72974Y-3187D01*
X72706Y-3834D01*
X72615Y-4528D01*
Y-11024D01*
X72706Y-11717D01*
X72974Y-12364D01*
X73017Y-12420D01*
X72796Y-12869D01*
X65964D01*
X64869Y-11774D01*
X64892Y-11717D01*
X64983Y-11024D01*
Y-4528D01*
X64892Y-3834D01*
X64624Y-3187D01*
X64198Y-2632D01*
X63643Y-2206D01*
X62997Y-1939D01*
X62303Y-1847D01*
X58563D01*
X57869Y-1939D01*
X57223Y-2206D01*
X56668Y-2632D01*
X56242Y-3187D01*
X55974Y-3834D01*
X55883Y-4528D01*
Y-6841D01*
X54120D01*
X53915Y-6534D01*
X53722Y-6406D01*
X53707Y-6360D01*
X53750Y-5832D01*
X54068Y-5619D01*
X54398Y-5125D01*
X54514Y-4543D01*
Y-4354D01*
X52500D01*
X50214D01*
X49986Y-4423D01*
X49922Y-4327D01*
X48511Y-2916D01*
X48088Y-2633D01*
X47783Y-2573D01*
X47570Y-2255D01*
X47114Y-1950D01*
X46577Y-1843D01*
X43033D01*
X42496Y-1950D01*
X42040Y-2255D01*
X41736Y-2710D01*
X41629Y-3248D01*
Y-4429D01*
X41736Y-4967D01*
X42040Y-5423D01*
X41851Y-5881D01*
X41673Y-6073D01*
X41671D01*
X41095Y-6188D01*
X40607Y-6514D01*
X39643Y-7478D01*
X39143Y-7271D01*
Y-6988D01*
X39020Y-6368D01*
X38705Y-5897D01*
X38515Y-5423D01*
X38820Y-4967D01*
X38927Y-4429D01*
Y-3248D01*
X38820Y-2710D01*
X38515Y-2255D01*
X38059Y-1950D01*
X37522Y-1843D01*
X33978D01*
X33441Y-1950D01*
X32985Y-2255D01*
X32798Y-2534D01*
X27161D01*
X26662Y-2633D01*
X26239Y-2916D01*
X22578Y-6577D01*
X22295Y-7001D01*
X22195Y-7500D01*
Y-8990D01*
X21901Y-9048D01*
X21380Y-9396D01*
X21032Y-9917D01*
X20910Y-10531D01*
Y-12106D01*
X21032Y-12721D01*
X21380Y-13242D01*
X21901Y-13590D01*
X22516Y-13712D01*
X24484D01*
X25099Y-13590D01*
X25620Y-13242D01*
X25968Y-12721D01*
X25995Y-12583D01*
X26505D01*
X26532Y-12721D01*
X26880Y-13242D01*
X27401Y-13590D01*
X28016Y-13712D01*
X29984D01*
X30599Y-13590D01*
X31120Y-13242D01*
X31468Y-12721D01*
X31487Y-12623D01*
X32798D01*
X32985Y-12903D01*
X33441Y-13207D01*
X33978Y-13314D01*
X37522D01*
X38059Y-13207D01*
X38143Y-13151D01*
X38666Y-13326D01*
X38703Y-13427D01*
X38333Y-13863D01*
X37750D01*
Y-17750D01*
X40456D01*
Y-15986D01*
X40404Y-15725D01*
X40855Y-15428D01*
X41174Y-15641D01*
X41750Y-15755D01*
X44627D01*
X44890Y-16019D01*
Y-20514D01*
X45036Y-21243D01*
X45449Y-21862D01*
X46068Y-22275D01*
X46324Y-22326D01*
Y-31201D01*
X46336Y-31262D01*
X43080Y-34517D01*
X42797Y-34940D01*
X42797Y-34942D01*
X42160Y-35579D01*
X41899Y-35970D01*
X41862Y-36155D01*
X41362Y-36106D01*
Y-25689D01*
X41268Y-24970D01*
X40990Y-24299D01*
X40548Y-23723D01*
X39972Y-23282D01*
X39302Y-23004D01*
X39151Y-22984D01*
X39135Y-22478D01*
X39145Y-22476D01*
X39834Y-22015D01*
X40295Y-21326D01*
X40456Y-20514D01*
Y-18750D01*
X37250D01*
X34044D01*
Y-18892D01*
X33544Y-19044D01*
X33225Y-18567D01*
X32567Y-18127D01*
X31791Y-17973D01*
X31590Y-17503D01*
Y-16043D01*
X31468Y-15429D01*
X31120Y-14908D01*
X30599Y-14560D01*
X29984Y-14438D01*
X28016D01*
X27401Y-14560D01*
X26880Y-14908D01*
X26532Y-15429D01*
X26505Y-15567D01*
X25995D01*
X25968Y-15429D01*
X25620Y-14908D01*
X25099Y-14560D01*
X24484Y-14438D01*
X22516D01*
X21901Y-14560D01*
X21380Y-14908D01*
X21099Y-15329D01*
X19515D01*
X19214Y-14829D01*
X19276Y-14518D01*
Y-13632D01*
X19181Y-13152D01*
X19078Y-12999D01*
X18820Y-12570D01*
X19362Y-11759D01*
X19552Y-10802D01*
Y-9850D01*
X14567D01*
Y-9350D01*
X14067D01*
Y-5399D01*
X12082D01*
X11125Y-5589D01*
X10580Y-5953D01*
X10080Y-5686D01*
Y-4774D01*
X9981Y-4024D01*
X9692Y-3326D01*
X9232Y-2727D01*
X8632Y-2267D01*
X7934Y-1977D01*
X7185Y-1879D01*
X5815D01*
Y-7579D01*
X4815D01*
Y-1879D01*
X3445D01*
X2696Y-1977D01*
X1997Y-2267D01*
X1503Y-2646D01*
X1003Y-2486D01*
Y-1003D01*
X124773D01*
X125035Y-1503D01*
D02*
G37*
%LPC*%
G36*
X150250Y-47091D02*
X149328Y-47275D01*
X148547Y-47797D01*
X148025Y-48578D01*
X147842Y-49500D01*
X148025Y-50422D01*
X148253Y-50763D01*
X148032Y-51092D01*
X147910Y-51707D01*
Y-53281D01*
X148032Y-53896D01*
X148380Y-54417D01*
X148901Y-54765D01*
X149516Y-54887D01*
X151484D01*
X152099Y-54765D01*
X152620Y-54417D01*
X152968Y-53896D01*
X153090Y-53281D01*
Y-51707D01*
X152968Y-51092D01*
X152620Y-50571D01*
X152487Y-50483D01*
X152475Y-50422D01*
X152658Y-49500D01*
X152475Y-48578D01*
X151953Y-47797D01*
X151172Y-47275D01*
X150250Y-47091D01*
D02*
G37*
G36*
X38575Y-55717D02*
X37654D01*
Y-56595D01*
X37762Y-57138D01*
X38070Y-57599D01*
X38531Y-57907D01*
X38575Y-57916D01*
Y-55717D01*
D02*
G37*
G36*
X114165Y-57980D02*
X112056D01*
Y-58464D01*
X112194Y-59162D01*
X112589Y-59753D01*
X113180Y-60148D01*
X113878Y-60287D01*
X114165D01*
Y-57980D01*
D02*
G37*
G36*
X117275D02*
X115165D01*
Y-60287D01*
X115453D01*
X116150Y-60148D01*
X116741Y-59753D01*
X117137Y-59162D01*
X117275Y-58464D01*
Y-57980D01*
D02*
G37*
G36*
X121031Y-71791D02*
X120457Y-71905D01*
X119964Y-72235D01*
X119634Y-72729D01*
X119518Y-73311D01*
Y-73500D01*
X121031D01*
Y-71791D01*
D02*
G37*
G36*
X140781Y-83943D02*
X140494D01*
Y-86250D01*
X142604D01*
Y-85766D01*
X142465Y-85068D01*
X142070Y-84477D01*
X141479Y-84082D01*
X140781Y-83943D01*
D02*
G37*
G36*
X13287Y-82715D02*
X10539D01*
Y-85819D01*
X15612D01*
Y-85039D01*
X15435Y-84150D01*
X14931Y-83396D01*
X14177Y-82892D01*
X13287Y-82715D01*
D02*
G37*
G36*
X154469Y-85041D02*
Y-86750D01*
X155982D01*
Y-86561D01*
X155866Y-85979D01*
X155536Y-85485D01*
X155043Y-85155D01*
X154469Y-85041D01*
D02*
G37*
G36*
X139494Y-83943D02*
X139207D01*
X138509Y-84082D01*
X137918Y-84477D01*
X137523Y-85068D01*
X137384Y-85766D01*
Y-86250D01*
X139494D01*
Y-83943D01*
D02*
G37*
G36*
X121031Y-74500D02*
X119518D01*
Y-74689D01*
X119634Y-75271D01*
X119964Y-75765D01*
X120457Y-76095D01*
X121031Y-76209D01*
Y-74500D01*
D02*
G37*
G36*
X130781D02*
X129268D01*
Y-74689D01*
X129384Y-75271D01*
X129714Y-75765D01*
X130207Y-76095D01*
X130781Y-76209D01*
Y-74500D01*
D02*
G37*
G36*
X130315Y-81613D02*
X129732D01*
X128920Y-81774D01*
X128231Y-82235D01*
X127770Y-82924D01*
X127609Y-83736D01*
Y-85500D01*
X130315D01*
Y-81613D01*
D02*
G37*
G36*
X131898D02*
X131315D01*
Y-85500D01*
X134021D01*
Y-83736D01*
X133860Y-82924D01*
X133399Y-82235D01*
X132710Y-81774D01*
X131898Y-81613D01*
D02*
G37*
G36*
X128763Y-15646D02*
X127250D01*
Y-17354D01*
X127824Y-17240D01*
X128318Y-16910D01*
X128648Y-16417D01*
X128763Y-15835D01*
Y-15646D01*
D02*
G37*
G36*
X17052Y-5399D02*
X15067D01*
Y-8850D01*
X19552D01*
Y-7899D01*
X19362Y-6942D01*
X18820Y-6131D01*
X18009Y-5589D01*
X17052Y-5399D01*
D02*
G37*
G36*
X36750Y-13863D02*
X36167D01*
X35355Y-14024D01*
X34666Y-14485D01*
X34205Y-15174D01*
X34044Y-15986D01*
Y-17750D01*
X36750D01*
Y-13863D01*
D02*
G37*
G36*
X126250Y-15646D02*
X124736D01*
Y-15835D01*
X124852Y-16417D01*
X125182Y-16910D01*
X125676Y-17240D01*
X126250Y-17354D01*
Y-15646D01*
D02*
G37*
G36*
X84500Y-1646D02*
X83926Y-1760D01*
X83432Y-2090D01*
X83102Y-2583D01*
X82986Y-3165D01*
Y-3354D01*
X84500D01*
Y-1646D01*
D02*
G37*
G36*
X52000Y-1646D02*
X51426Y-1760D01*
X50932Y-2090D01*
X50602Y-2583D01*
X50486Y-3165D01*
Y-3354D01*
X52000D01*
Y-1646D01*
D02*
G37*
G36*
X53000Y-1646D02*
Y-3354D01*
X54514D01*
Y-3165D01*
X54398Y-2583D01*
X54068Y-2090D01*
X53574Y-1760D01*
X53000Y-1646D01*
D02*
G37*
G36*
X85500Y-1646D02*
Y-3354D01*
X87014D01*
Y-3165D01*
X86898Y-2583D01*
X86568Y-2090D01*
X86074Y-1760D01*
X85500Y-1646D01*
D02*
G37*
G36*
X158500Y-1646D02*
X157926Y-1760D01*
X157432Y-2090D01*
X157102Y-2583D01*
X156986Y-3165D01*
Y-3354D01*
X158500D01*
Y-1646D01*
D02*
G37*
G36*
X74500Y-32646D02*
X73926Y-32760D01*
X73432Y-33090D01*
X73102Y-33583D01*
X72987Y-34165D01*
Y-34354D01*
X74500D01*
Y-32646D01*
D02*
G37*
G36*
X75500D02*
Y-34354D01*
X77013D01*
Y-34165D01*
X76898Y-33583D01*
X76568Y-33090D01*
X76074Y-32760D01*
X75500Y-32646D01*
D02*
G37*
G36*
X70718Y-39541D02*
Y-41250D01*
X72232D01*
Y-41061D01*
X72116Y-40479D01*
X71786Y-39985D01*
X71293Y-39656D01*
X70718Y-39541D01*
D02*
G37*
G36*
X14567Y-34498D02*
X14378D01*
Y-36803D01*
X16289D01*
Y-36220D01*
X16158Y-35561D01*
X15785Y-35003D01*
X15226Y-34629D01*
X14567Y-34498D01*
D02*
G37*
G36*
X19552Y-29535D02*
X14870D01*
Y-32987D01*
X17052D01*
X18009Y-32797D01*
X18820Y-32255D01*
X19362Y-31444D01*
X19552Y-30487D01*
Y-29535D01*
D02*
G37*
G36*
X167817Y-21490D02*
X164724D01*
Y-23401D01*
X166095D01*
X166753Y-23270D01*
X167312Y-22897D01*
X167685Y-22338D01*
X167817Y-21679D01*
Y-21490D01*
D02*
G37*
G36*
X166095Y-11316D02*
X162354D01*
X161778Y-11430D01*
X161290Y-11756D01*
X160964Y-12245D01*
X160849Y-12821D01*
Y-14199D01*
X160964Y-14775D01*
X161290Y-15263D01*
X161778Y-15589D01*
X162354Y-15704D01*
X163398D01*
X163727Y-16204D01*
X163619Y-16750D01*
X163773Y-17526D01*
X164143Y-18079D01*
X163973Y-18579D01*
X162354D01*
X161695Y-18710D01*
X161137Y-19083D01*
X160763Y-19642D01*
X160632Y-20301D01*
Y-20490D01*
X164224D01*
X167817D01*
Y-20301D01*
X167685Y-19642D01*
X167312Y-19083D01*
X166972Y-18856D01*
X166940Y-18276D01*
X167079Y-18183D01*
X167518Y-17526D01*
X167673Y-16750D01*
X167518Y-15974D01*
X167357Y-15732D01*
X167159Y-15263D01*
X167485Y-14775D01*
X167600Y-14199D01*
Y-12821D01*
X167485Y-12245D01*
X167159Y-11756D01*
X166671Y-11430D01*
X166095Y-11316D01*
D02*
G37*
G36*
X57032Y-28041D02*
X56457Y-28155D01*
X55964Y-28485D01*
X55634Y-28979D01*
X55518Y-29561D01*
Y-29750D01*
X57032D01*
Y-28041D01*
D02*
G37*
G36*
X27000Y-23250D02*
X25291D01*
X25405Y-23824D01*
X25735Y-24318D01*
X26229Y-24648D01*
X26811Y-24764D01*
X27000D01*
Y-23250D01*
D02*
G37*
%LPD*%
D10*
X74917Y-79610D02*
G03*
X72850Y-77543I-2067J0D01*
G01*
X48130Y-31201D02*
Y-18500D01*
X166000Y-82000D02*
X171500Y-85888D01*
X161051Y-87000D02*
X171500Y-85888D01*
X171000Y-87000D02*
X171500Y-85888D01*
X165750Y-4250D02*
X166000Y-8500D01*
X24599Y-1999D02*
X24900Y-2300D01*
X116250Y-83750D02*
X117935D01*
X114370Y-85630D02*
X116250Y-83750D01*
X114370Y-87205D02*
Y-85630D01*
X107480Y-87205D02*
Y-84770D01*
X114370Y-77880D01*
X117935Y-83750D02*
X120185Y-86000D01*
X123500Y-79118D02*
X133250D01*
X115858D02*
X123500D01*
X114370Y-77880D02*
X115608Y-79118D01*
X133250D02*
X141362D01*
X141750Y-79506D01*
X114370Y-77880D02*
Y-75394D01*
X159000Y-3854D02*
X159396Y-4250D01*
X165750D01*
X93701Y-85433D02*
X101279D01*
X93307Y-85039D02*
X93701Y-85433D01*
X85114Y-85039D02*
X93307D01*
X84917Y-84842D02*
X85114Y-85039D01*
X77898Y-72028D02*
X84768Y-65158D01*
X66122Y-72028D02*
X67335D01*
X77898D01*
X74917Y-84842D02*
Y-79610D01*
X67335Y-72028D02*
X72850Y-77543D01*
D11*
X136500Y-63244D02*
D03*
Y-68756D02*
D03*
X61122Y-45256D02*
D03*
Y-39744D02*
D03*
X55709Y-39744D02*
D03*
Y-45256D02*
D03*
X142250Y-73994D02*
D03*
Y-79506D02*
D03*
X125000Y-63494D02*
D03*
Y-69006D02*
D03*
X130750Y-63488D02*
D03*
Y-69000D02*
D03*
X55807Y-50591D02*
D03*
Y-56102D02*
D03*
X61122Y-50591D02*
D03*
Y-56102D02*
D03*
X29000Y-16831D02*
D03*
Y-11319D02*
D03*
X23500D02*
D03*
Y-16831D02*
D03*
X153750Y-2634D02*
D03*
Y-8146D02*
D03*
X150500Y-52494D02*
D03*
Y-58006D02*
D03*
X142250Y-69006D02*
D03*
Y-63494D02*
D03*
D12*
X159000Y-8146D02*
D03*
Y-3854D02*
D03*
X68250Y-36632D02*
D03*
X70218Y-41750D02*
D03*
X66281D02*
D03*
X123500Y-79118D02*
D03*
X121531Y-74000D02*
D03*
X125469D02*
D03*
X61468Y-30250D02*
D03*
X57531D02*
D03*
X59500Y-35368D02*
D03*
X150031Y-87250D02*
D03*
X153969D02*
D03*
X152000Y-82132D02*
D03*
X133250Y-79118D02*
D03*
X131281Y-74000D02*
D03*
X135219D02*
D03*
X85000Y-8146D02*
D03*
Y-3854D02*
D03*
X52500Y-8146D02*
D03*
Y-3854D02*
D03*
X126750Y-2604D02*
D03*
Y-6896D02*
D03*
X112750Y-17604D02*
D03*
Y-21896D02*
D03*
X75000Y-34854D02*
D03*
Y-39146D02*
D03*
X126750Y-15146D02*
D03*
Y-10854D02*
D03*
D13*
X99705Y-9449D02*
D03*
X109547D02*
D03*
D14*
X110610Y-4232D02*
D03*
X106319D02*
D03*
X157646Y-26000D02*
D03*
X153354D02*
D03*
X86854Y-13250D02*
D03*
X91146D02*
D03*
X165646Y-26000D02*
D03*
X161354D02*
D03*
X31791Y-22750D02*
D03*
X27500D02*
D03*
X104104Y-49750D02*
D03*
X108396D02*
D03*
X102736Y-4232D02*
D03*
X98445D02*
D03*
D15*
X72494Y-46250D02*
D03*
X78006D02*
D03*
X9941Y-39469D02*
D03*
X4429D02*
D03*
X114665Y-57480D02*
D03*
X109153D02*
D03*
X83858Y-56299D02*
D03*
X78347D02*
D03*
X106693Y-65256D02*
D03*
X101181D02*
D03*
X120866Y-14272D02*
D03*
X115354D02*
D03*
X72494Y-51500D02*
D03*
X78006D02*
D03*
X126006Y-35000D02*
D03*
X120494D02*
D03*
X132256Y-40500D02*
D03*
X126744D02*
D03*
X132994Y-35000D02*
D03*
X138506D02*
D03*
X90506Y-51500D02*
D03*
X84994D02*
D03*
X145506Y-86750D02*
D03*
X139994D02*
D03*
D16*
X143280Y-4963D02*
D03*
X141311D02*
D03*
X139342D02*
D03*
X137374D02*
D03*
X135406D02*
D03*
Y-27010D02*
D03*
X137374D02*
D03*
X139342D02*
D03*
X141311D02*
D03*
X143280D02*
D03*
D17*
X29823Y-46358D02*
D03*
Y-51870D02*
D03*
D18*
X24705Y-46555D02*
D03*
X19193D02*
D03*
D19*
X150500Y-76815D02*
D03*
Y-66185D02*
D03*
X93307Y-74410D02*
D03*
Y-85039D02*
D03*
D20*
X130815Y-86000D02*
D03*
X120185D02*
D03*
X37250Y-18250D02*
D03*
X47880D02*
D03*
D21*
X96752Y-56004D02*
D03*
X102657Y-54035D02*
D03*
Y-57973D02*
D03*
D22*
X105413Y-17421D02*
D03*
X103445D02*
D03*
X101476D02*
D03*
X99508D02*
D03*
X97539D02*
D03*
X95571D02*
D03*
X93602D02*
D03*
X91634D02*
D03*
X89665D02*
D03*
X87697D02*
D03*
X85728D02*
D03*
X83760D02*
D03*
Y-45374D02*
D03*
X85728D02*
D03*
X87697D02*
D03*
X89665D02*
D03*
X91634D02*
D03*
X93602D02*
D03*
X95571D02*
D03*
X97539D02*
D03*
X99508D02*
D03*
X101476D02*
D03*
X103445D02*
D03*
X105413D02*
D03*
D23*
X80610Y-20571D02*
D03*
Y-22539D02*
D03*
Y-24508D02*
D03*
Y-26476D02*
D03*
Y-28445D02*
D03*
Y-30413D02*
D03*
Y-32382D02*
D03*
Y-34350D02*
D03*
Y-36319D02*
D03*
Y-38287D02*
D03*
Y-40256D02*
D03*
Y-42224D02*
D03*
X108563D02*
D03*
Y-40256D02*
D03*
Y-38287D02*
D03*
Y-36319D02*
D03*
Y-34350D02*
D03*
Y-32382D02*
D03*
Y-30413D02*
D03*
Y-28445D02*
D03*
Y-26476D02*
D03*
Y-24508D02*
D03*
Y-22539D02*
D03*
Y-20571D02*
D03*
D24*
X94587Y-31398D02*
D03*
D25*
X24311Y-29528D02*
D03*
X31791D02*
D03*
Y-38976D02*
D03*
X28051D02*
D03*
X24311D02*
D03*
D26*
X154776Y-13510D02*
D03*
Y-17250D02*
D03*
Y-20990D02*
D03*
X164224D02*
D03*
Y-13510D02*
D03*
D27*
X13878Y-37303D02*
D03*
X19783D02*
D03*
D28*
X38583Y-31201D02*
D03*
D29*
X49606D02*
D03*
D30*
X84768Y-65158D02*
D03*
X94768D02*
D03*
X84917Y-84842D02*
D03*
X74917D02*
D03*
D31*
X107480Y-75394D02*
D03*
X114370D02*
D03*
Y-87205D02*
D03*
X107480D02*
D03*
D32*
X165305Y-60805D02*
D03*
D33*
X171211Y-76947D02*
D03*
X159793D02*
D03*
D34*
X43012Y-48130D02*
D03*
D35*
X39075Y-41043D02*
D03*
X41043D02*
D03*
X43012D02*
D03*
X44980D02*
D03*
X46949D02*
D03*
Y-55216D02*
D03*
X44980D02*
D03*
X43012D02*
D03*
X41043D02*
D03*
X39075D02*
D03*
D36*
X50098Y-45177D02*
D03*
Y-51083D02*
D03*
X35925D02*
D03*
Y-45177D02*
D03*
D37*
X101279Y-85433D02*
D03*
Y-75984D02*
D03*
D38*
X5315Y-30807D02*
D03*
Y-7579D02*
D03*
D39*
Y-15846D02*
D03*
Y-22539D02*
D03*
D40*
X14567Y-9350D02*
D03*
D41*
X14370Y-29035D02*
D03*
D42*
X15748Y-14075D02*
D03*
Y-24311D02*
D03*
Y-21752D02*
D03*
Y-16634D02*
D03*
Y-19193D02*
D03*
D43*
X35750Y-3839D02*
D03*
Y-7579D02*
D03*
Y-11319D02*
D03*
X44805D02*
D03*
Y-7579D02*
D03*
Y-3839D02*
D03*
D44*
X139000Y-57750D02*
D03*
X135260Y-50270D02*
D03*
X142740D02*
D03*
D45*
X77165Y-7776D02*
D03*
X60433D02*
D03*
D46*
X66122Y-72028D02*
D03*
D47*
X116535Y-10236D02*
D03*
X120473D02*
D03*
X118504Y-5118D02*
D03*
D48*
X12687Y-47911D02*
D03*
X4420Y-51651D02*
D03*
Y-44171D02*
D03*
D49*
X114742Y-24508D02*
X115065Y-24185D01*
X84250Y-13000D02*
X87104D01*
X89665Y-15561D01*
X105137Y-12973D02*
X108662Y-9449D01*
X109547D01*
X104757Y-14558D02*
X115068D01*
X103445Y-15870D02*
X104757Y-14558D01*
X115068D02*
X115354Y-14272D01*
X103445Y-17421D02*
Y-15870D01*
X103464Y-12973D02*
X105137D01*
X101476Y-14961D02*
X103464Y-12973D01*
X65423Y-14173D02*
X79035D01*
X95060Y-13560D02*
X95571Y-14071D01*
X95060Y-13560D02*
Y-10391D01*
X94399Y-9730D02*
X95060Y-10391D01*
X86837Y-9730D02*
X94399D01*
X86148Y-10419D02*
X86837Y-9730D01*
X83829Y-10419D02*
X86148D01*
X80262Y-13986D02*
X83829Y-10419D01*
X79223Y-13986D02*
X80262D01*
X79035Y-14173D02*
X79223Y-13986D01*
X96644Y-12894D02*
X97539Y-13789D01*
X96644Y-12894D02*
Y-9735D01*
X95055Y-8146D02*
X96644Y-9735D01*
X85000Y-8146D02*
X95055D01*
X115989Y-21896D02*
X116138Y-22044D01*
X112750Y-21896D02*
X115989D01*
X114173Y-20472D02*
X116339D01*
X112750Y-21896D02*
X114173Y-20472D01*
X127493Y-26507D02*
X128500Y-25500D01*
X113700Y-26152D02*
X114055Y-26507D01*
X127493D01*
X115065Y-24214D02*
Y-24185D01*
X111800Y-26152D02*
X113700D01*
X108563Y-24508D02*
X114742D01*
X116535Y-13091D02*
Y-10236D01*
X115354Y-14272D02*
X116535Y-13091D01*
X109547Y-9449D02*
X110610Y-8386D01*
Y-4232D01*
X101476Y-17421D02*
Y-14961D01*
X98524Y-8071D02*
Y-4409D01*
Y-8071D02*
X99508Y-9055D01*
Y-17421D02*
Y-9055D01*
X76002Y-42750D02*
X76209Y-42543D01*
X80292D01*
X80610Y-42224D01*
X75161Y-43591D02*
X76002Y-42750D01*
X81500Y-50864D02*
Y-50000D01*
X83793Y-51700D02*
X84994D01*
X83793Y-51814D02*
Y-51700D01*
X82450Y-53157D02*
X83793Y-51814D01*
X80512Y-53157D02*
X82450D01*
X78855Y-51500D02*
X80512Y-53157D01*
X78006Y-51500D02*
X78855D01*
X84994Y-51700D02*
X87697Y-48997D01*
X61122Y-56102D02*
X61122Y-56102D01*
X55807Y-56102D02*
X61122D01*
X50098Y-51083D02*
X55118Y-56102D01*
X55807D01*
X99508Y-50492D02*
Y-45374D01*
X74750Y-41000D02*
X76000Y-42250D01*
X129500Y-34000D02*
X131994D01*
X131794Y-36200D02*
X132994Y-35000D01*
X129500Y-36200D02*
X131794D01*
X127206D02*
X129500D01*
X126006Y-35000D02*
X127206Y-36200D01*
X127006Y-34000D02*
X129500D01*
X97539Y-28445D02*
X108563D01*
X124750Y-44000D02*
X141250D01*
X115368Y-32382D02*
X117750Y-30000D01*
X108563Y-32382D02*
X115368D01*
X118750Y-31750D02*
X135624D01*
X116150Y-34350D02*
X118750Y-31750D01*
X108563Y-34350D02*
X116150D01*
X118250Y-35000D02*
X120494D01*
X116931Y-36319D02*
X118250Y-35000D01*
X108563Y-36319D02*
X116931D01*
X124000Y-45750D02*
X144000D01*
X118506Y-40256D02*
X124000Y-45750D01*
X108563Y-40256D02*
X118506D01*
X119037Y-38287D02*
X124750Y-44000D01*
X108563Y-38287D02*
X119037D01*
X123750Y-40500D02*
X126744D01*
X120494Y-37244D02*
X123750Y-40500D01*
X120494Y-37244D02*
Y-35000D01*
X20548Y-34702D02*
X23671Y-31579D01*
Y-29380D01*
X24311Y-28740D01*
X20548Y-36735D02*
Y-34702D01*
X19783Y-37500D02*
X20548Y-36735D01*
X77500Y-20750D02*
X79332Y-20571D01*
X79335Y-20571D02*
X80610D01*
X55500Y-32750D02*
X60939D01*
X54500Y-33750D02*
X55500Y-32750D01*
X63500Y-37250D02*
X67632D01*
X61750Y-35500D02*
X63500Y-37250D01*
X61750Y-35500D02*
Y-33561D01*
X67632Y-37250D02*
X68250Y-36632D01*
X60433Y-9183D02*
Y-7776D01*
X130250Y-70700D02*
Y-69000D01*
Y-70700D02*
X131281Y-71732D01*
Y-74000D02*
Y-71732D01*
X128250Y-72700D02*
X130250Y-70700D01*
X145506Y-86750D02*
X146006Y-87250D01*
X145500Y-86500D02*
Y-47250D01*
X144000Y-45750D02*
X145500Y-47250D01*
X68250Y-44250D02*
X70494D01*
X72494Y-46250D01*
X78882Y-45374D02*
X83760D01*
X78006Y-46250D02*
X78882Y-45374D01*
X66281Y-42281D02*
X68250Y-44250D01*
X66281Y-42281D02*
Y-41750D01*
X74750Y-41000D02*
Y-39146D01*
X60939Y-32750D02*
X61750Y-33561D01*
X80750Y-17250D02*
Y-16500D01*
X50500Y-11500D02*
X52750D01*
X49750Y-13250D02*
X52250D01*
X97539Y-17421D02*
Y-13789D01*
X95571Y-17421D02*
Y-14071D01*
X91634Y-28445D02*
Y-17421D01*
Y-13488D01*
X91146Y-13000D02*
X91634Y-13488D01*
X77535Y-8146D02*
X85000D01*
X77165Y-7776D02*
X77535Y-8146D01*
X60063Y-8146D02*
X60433Y-7776D01*
X52500Y-8146D02*
X60063D01*
X135110Y-48500D02*
X138056D01*
X135110Y-50460D02*
Y-48500D01*
X143280Y-10854D02*
X143380D01*
X97539Y-48211D02*
Y-45374D01*
X133500Y-20250D02*
X135406Y-18345D01*
Y-5213D01*
X139342Y-27260D02*
Y-23223D01*
X142250Y-1500D02*
X152506D01*
X141311Y-2439D02*
X142250Y-1500D01*
X141311Y-5213D02*
Y-2439D01*
X139342Y-9250D02*
Y-5213D01*
X152506Y-1500D02*
X153750Y-2744D01*
X47819Y-11319D02*
X49750Y-13250D01*
X44805Y-11319D02*
X47819D01*
X49000Y-10000D02*
X50500Y-11500D01*
X49000Y-10000D02*
Y-5250D01*
X47589Y-3839D02*
X49000Y-5250D01*
X44805Y-3839D02*
X47589D01*
X23500Y-7500D02*
X27161Y-3839D01*
X35750D01*
X15748Y-19193D02*
X20443D01*
X23303Y-16634D02*
X23500Y-16831D01*
X15748Y-16634D02*
X23303D01*
X29000Y-11319D02*
X35750D01*
X23500D02*
Y-7500D01*
X97539Y-28445D02*
X98917Y-27067D01*
X94587Y-31398D02*
X97539Y-28445D01*
X103445Y-45374D02*
Y-40256D01*
Y-22539D02*
X108563D01*
X98917Y-27067D02*
X103248Y-22736D01*
X103445Y-22539D01*
X91634Y-28445D02*
X94587Y-31398D01*
X80610Y-40256D02*
X85728D01*
X85925Y-40059D01*
X90256Y-35728D01*
X94587Y-31398D01*
X137374Y-30000D02*
Y-27260D01*
X142250Y-73994D02*
Y-69006D01*
X142250Y-69006D01*
X146006Y-87250D02*
X150031D01*
X132256Y-40500D02*
X136250D01*
X138506Y-38244D01*
Y-35000D01*
X113224Y-42224D02*
X114500Y-43500D01*
X108563Y-42224D02*
X113224D01*
X105413Y-45374D02*
X108750D01*
X89665Y-51160D02*
Y-45374D01*
Y-51160D02*
X90506Y-52000D01*
X135406Y-5213D02*
X137374D01*
X135406Y-29344D02*
Y-27260D01*
X25715Y-20250D02*
X28839Y-17126D01*
X20443Y-19193D02*
X21500Y-20250D01*
X25715D01*
X108667Y-17225D02*
X111989D01*
X108563Y-22539D02*
X112108D01*
X112697Y-21950D01*
X108563Y-20571D02*
X108667Y-20467D01*
Y-17225D01*
X135406Y-5213D02*
Y-3405D01*
X134604Y-2604D02*
X135406Y-3405D01*
X126750Y-2604D02*
X134604D01*
X143280Y-10854D02*
Y-5213D01*
X135624Y-31750D02*
X137374Y-30000D01*
X89665Y-17421D02*
Y-15561D01*
X101476Y-50780D02*
Y-45374D01*
Y-50780D02*
X102697Y-52000D01*
X108396Y-49750D02*
X108750Y-49396D01*
X133500Y-27250D02*
Y-20250D01*
X132500Y-28250D02*
X133500Y-27250D01*
X141250Y-44000D02*
X143280Y-41971D01*
X134750Y-30000D02*
X135406Y-29344D01*
X143280Y-41971D02*
Y-27260D01*
X117750Y-30000D02*
X134750D01*
X116750Y-28250D02*
X132500D01*
X80750Y-16500D02*
X84250Y-13000D01*
X80541Y-22608D02*
X80610Y-22539D01*
X61468Y-30250D02*
X62021D01*
X61250Y-27000D02*
X63044D01*
X60433Y-9183D02*
X65423Y-14173D01*
X64978Y-17250D02*
X65000Y-17228D01*
Y-16500D01*
X63784Y-16056D02*
Y-16054D01*
Y-16056D02*
X64978Y-17250D01*
X103445Y-48195D02*
Y-45374D01*
Y-48195D02*
X104500Y-49250D01*
X96750Y-49000D02*
X97539Y-48211D01*
X95500Y-49000D02*
X96750D01*
X91634Y-48212D02*
Y-45374D01*
X98500Y-51500D02*
X99508Y-50492D01*
X97500Y-51500D02*
X98500D01*
X140000Y-31250D02*
Y-30647D01*
X141311Y-29336D02*
Y-27260D01*
X140000Y-30647D02*
X141311Y-29336D01*
X57250Y-20750D02*
X77500D01*
X58642Y-22608D02*
X80541D01*
X56750Y-21250D02*
X57250Y-20750D01*
X61715Y-13986D02*
X63784Y-16054D01*
X61714Y-17229D02*
Y-17214D01*
X60070Y-15570D02*
X61714Y-17214D01*
X54570Y-15570D02*
X60070D01*
X52750Y-11500D02*
X55236Y-13986D01*
X61715D01*
X52250Y-13250D02*
X54570Y-15570D01*
X67339Y-25882D02*
X67933Y-26476D01*
X80610D01*
X63044Y-27000D02*
X63220Y-26824D01*
Y-26810D01*
X64148Y-25882D01*
X67339D01*
X62021Y-30250D02*
X63457Y-28814D01*
Y-28800D01*
X67687Y-28445D02*
X80610D01*
X63457Y-28800D02*
X63673Y-28584D01*
X63700D01*
X64804Y-27480D01*
Y-27466D01*
X66682D01*
X67277Y-28061D01*
X67303D01*
X67687Y-28445D01*
X87697Y-48997D02*
Y-45374D01*
X92072Y-48636D02*
X93173Y-49737D01*
X92058Y-48636D02*
X92072D01*
X91634Y-48212D02*
X92058Y-48636D01*
X85728Y-46926D02*
Y-45374D01*
X81500Y-50000D02*
X82864Y-48636D01*
X84018D01*
X85728Y-46926D01*
X124750Y-63488D02*
X125043Y-63195D01*
X124750Y-63488D02*
X130750D01*
X135750D01*
X139364Y-66120D02*
X142250Y-69006D01*
X139000Y-57750D02*
X139364Y-58114D01*
Y-66120D02*
Y-58114D01*
X108563Y-28445D02*
X112750D01*
X108563Y-30413D02*
X110926D01*
X111250Y-30738D01*
X114262D01*
X116750Y-28250D01*
X57717Y-23534D02*
X58642Y-22608D01*
X54000Y-23000D02*
X54533Y-23534D01*
X55791D01*
X55800Y-23543D01*
X57700D01*
X57709Y-23534D01*
X57717D01*
X124748Y-51754D02*
X125043Y-52048D01*
Y-63195D02*
Y-52048D01*
X108563Y-26476D02*
X111476D01*
X111800Y-26152D01*
X78347Y-56299D02*
X78347Y-56299D01*
X75161Y-53114D02*
X78347Y-56299D01*
X75161Y-53114D02*
Y-43591D01*
X93173Y-53803D02*
X95472Y-56102D01*
X93173Y-53803D02*
Y-49737D01*
X106693Y-65256D02*
Y-62008D01*
X102657Y-57973D02*
X106693Y-62008D01*
X83858Y-56299D02*
X91634D01*
X93307Y-57973D01*
X102657D01*
X96752Y-56004D02*
X107677D01*
X109153Y-57480D01*
X113256Y-52000D02*
X114567Y-50689D01*
X102697Y-52000D02*
X113256D01*
X116041Y-47441D02*
X118021Y-49421D01*
X108750Y-47441D02*
X116041D01*
X102657Y-54035D02*
X116339D01*
X108750Y-49396D02*
Y-47441D01*
Y-45374D01*
X118021Y-52353D02*
Y-49421D01*
X116339Y-54035D02*
X118021Y-52353D01*
X44003Y-35440D02*
X48242Y-31201D01*
X111989Y-17225D02*
X112559Y-17795D01*
D50*
X102736Y-6279D02*
X104232Y-7776D01*
X104237Y-10630D02*
Y-8765D01*
X104232Y-8760D02*
X104237Y-8765D01*
Y-10630D02*
Y-7781D01*
X104232Y-7776D02*
X104237Y-7781D01*
X104035Y-8563D02*
X104232Y-8760D01*
X104035Y-8563D02*
X106319Y-6279D01*
Y-4232D01*
X102736Y-6279D02*
Y-4232D01*
X29823Y-45177D02*
X35925D01*
X44980Y-50492D02*
X45177Y-50295D01*
X44980Y-55216D02*
Y-50492D01*
X41831Y-50000D02*
Y-45965D01*
X41043Y-50492D02*
X43012Y-52461D01*
X40846Y-50295D02*
X41043Y-50492D01*
Y-55216D02*
Y-50492D01*
X39075Y-52067D02*
X40846Y-50295D01*
X39075Y-55216D02*
Y-52067D01*
X43012Y-55216D02*
Y-52461D01*
X40846Y-45965D02*
X41043Y-45768D01*
Y-41043D01*
X40059Y-45177D02*
X40846Y-45965D01*
X35925Y-45177D02*
X40059D01*
X43012Y-41043D02*
Y-36431D01*
X44980Y-41043D02*
Y-38095D01*
X45671Y-37403D01*
X46949Y-55216D02*
X47835D01*
X49606Y-56988D01*
X49313Y-57281D02*
X49606Y-56988D01*
X49313Y-57286D02*
Y-57281D01*
X43012Y-36431D02*
X44003Y-35440D01*
X124695Y-13091D02*
X126750Y-15146D01*
X124409Y-13091D02*
X124695D01*
X26969Y-48130D02*
Y-45374D01*
Y-48130D02*
X27165Y-48327D01*
D51*
X124575Y-8680D02*
X126750Y-10854D01*
X119027Y-5641D02*
X123623D01*
X124575Y-8680D02*
Y-6594D01*
X118504Y-5118D02*
X119027Y-5641D01*
X123623Y-5642D02*
Y-5641D01*
Y-5642D02*
X124575Y-6594D01*
X126750Y-6896D02*
Y-6250D01*
X123750Y-3250D02*
X126750Y-6250D01*
X22038Y-40462D02*
X24311Y-38189D01*
X135219Y-74000D02*
Y-69532D01*
X135750Y-69000D01*
X125469Y-74000D02*
Y-69718D01*
X124750Y-69000D02*
X125469Y-69718D01*
X59500Y-36250D02*
X61122Y-37872D01*
X59500Y-36250D02*
Y-35368D01*
X153750Y-12484D02*
X154776Y-13510D01*
X153750Y-12484D02*
Y-8146D01*
X159000D01*
X61122Y-39744D02*
Y-37872D01*
X55709Y-45256D02*
X55709Y-45256D01*
X61122D01*
X61122Y-45256D01*
Y-50591D02*
Y-45256D01*
X165646Y-16750D02*
Y-14931D01*
Y-28750D02*
Y-26000D01*
X164224Y-13510D02*
X165646Y-14931D01*
X143380Y-10854D02*
X149776Y-17250D01*
X159500Y-23000D02*
X161354Y-24854D01*
X158354Y-23000D02*
X159500D01*
X156344Y-20990D02*
X158354Y-23000D01*
X161354Y-26000D02*
Y-24854D01*
X154776Y-20990D02*
X156344D01*
X126750Y-10854D02*
X130000D01*
X150927Y-24345D02*
X152581Y-26000D01*
X153354D01*
X151026Y-18422D02*
X152131D01*
X153000Y-17552D01*
Y-17250D01*
X150927Y-18521D02*
X151026Y-18422D01*
X150927Y-24345D02*
Y-18521D01*
X149776Y-17250D02*
X153000D01*
X48242Y-31201D02*
X49705D01*
X46949Y-41043D02*
X48980D01*
X51076Y-43139D01*
X53592D01*
X55709Y-45256D01*
X53396Y-48676D02*
Y-48474D01*
X53349Y-48723D02*
X53396Y-48676D01*
X50098Y-45177D02*
X53396Y-48474D01*
X9941Y-39469D02*
X10935Y-40462D01*
X22038D01*
X9941Y-38484D02*
X10433Y-38976D01*
X12598Y-47302D02*
X18839D01*
X19587Y-46555D01*
X8849Y-49914D02*
Y-47911D01*
Y-49914D02*
X8917Y-49982D01*
X29823Y-51083D02*
X35925D01*
X28740Y-50787D02*
X29823Y-51870D01*
X23819Y-50787D02*
X28740D01*
X19587Y-46555D02*
X23819Y-50787D01*
Y-50403D01*
D52*
X117534Y-17604D02*
X120817Y-14321D01*
X120177Y-13681D02*
X120473Y-13386D01*
Y-10236D01*
X112559Y-17795D02*
X112750D01*
Y-17604D02*
X117534D01*
X113790Y-7161D02*
Y-6766D01*
X38583Y-31201D02*
X39075Y-31693D01*
Y-41043D02*
Y-31693D01*
X129500Y-36200D02*
Y-34000D01*
X5315Y-7579D02*
Y-5696D01*
X47880Y-18250D02*
X49130Y-17000D01*
X52250D01*
X101870Y-75394D02*
X107480D01*
X101279Y-75984D02*
X101870Y-75394D01*
X94768Y-65158D02*
X101083D01*
X101181Y-65256D01*
X93307Y-74410D02*
X94390D01*
X98524Y-70276D01*
X94095Y-73622D02*
Y-71063D01*
X93307Y-74410D02*
X94095Y-73622D01*
X55709Y-39744D02*
X58465Y-42500D01*
X59031D01*
X9731Y-57480D02*
X10138D01*
D53*
X67326Y-51971D02*
X72023D01*
X72494Y-51500D01*
X32677Y-42618D02*
X33169Y-42126D01*
X29823Y-42618D02*
X32677D01*
X11000Y-24311D02*
X15748D01*
X5315Y-15846D02*
X8946D01*
X11000Y-17900D01*
X5315Y-22539D02*
X10989D01*
X5315Y-30807D02*
X7087Y-29035D01*
X14370D01*
X7132Y-9396D02*
X14567D01*
X5315Y-7579D02*
X7132Y-9396D01*
X5315Y-30807D02*
Y-22539D01*
Y-15846D02*
Y-7579D01*
X150500Y-65935D02*
Y-59581D01*
X152000Y-82132D02*
Y-78315D01*
X150500Y-76815D02*
X152000Y-78315D01*
X150500Y-76815D02*
X158661D01*
X160293Y-78447D01*
X31791Y-22750D02*
Y-20000D01*
X11000Y-14075D02*
X15748D01*
X31791Y-28740D02*
Y-22750D01*
X30531Y-30000D02*
X31791Y-28740D01*
X29035Y-30000D02*
X30531D01*
X14567Y-9396D02*
X19946D01*
X11000Y-24311D02*
Y-17900D01*
X170197Y-76947D02*
X171711D01*
X150500Y-52494D02*
Y-49750D01*
X150250Y-49500D02*
X150500Y-49750D01*
X150500Y-70423D02*
Y-66185D01*
Y-70423D02*
X152821Y-72744D01*
X155731D01*
X156951Y-71524D02*
X164774D01*
X150500Y-65935D02*
X150625Y-66060D01*
X155731Y-72744D02*
X156951Y-71524D01*
X164774D02*
X170197Y-76947D01*
X5315Y-33596D02*
Y-30807D01*
X29813Y-42628D02*
X29823Y-42618D01*
X19587Y-54528D02*
Y-53839D01*
X17421Y-42726D02*
X17520Y-42628D01*
X29813D01*
X11333Y-42726D02*
X17421D01*
X8553Y-45506D02*
X11333Y-42726D01*
X8553Y-47911D02*
Y-45506D01*
X10067Y-51132D02*
X16880D01*
X8917Y-49982D02*
X10067Y-51132D01*
X16880D02*
X19587Y-53839D01*
X8553Y-47911D02*
X8642Y-48000D01*
X6053Y-50017D02*
Y-49461D01*
X4420Y-51651D02*
X6053Y-50017D01*
D54*
X47880Y-18250D02*
Y-16880D01*
X45250Y-14250D02*
X47880Y-16880D01*
X41750Y-14250D02*
X45250D01*
X40250Y-12750D02*
X41750Y-14250D01*
X40250Y-12750D02*
Y-9000D01*
X41671Y-7579D01*
X44805D01*
D55*
X117125Y-86250D02*
D03*
D56*
X11860Y-59842D02*
D03*
D57*
X12008Y-85335D02*
D03*
D58*
X10638Y-58358D02*
D03*
D59*
X10039Y-86319D02*
D03*
D60*
X54500Y-33750D02*
D03*
X65000D02*
D03*
D61*
X19488Y-53937D02*
D03*
D62*
X165750Y-4250D02*
D03*
X171500Y-85888D02*
D03*
D63*
X114500Y-43500D02*
D03*
X114567Y-50689D02*
D03*
D64*
X91634Y-2264D02*
D03*
X104237Y-10630D02*
D03*
X92618Y-12303D02*
D03*
X115065Y-24214D02*
D03*
X113790Y-6766D02*
D03*
X81500Y-50864D02*
D03*
X27165Y-48327D02*
D03*
X104500Y-49250D02*
D03*
X118000Y-65000D02*
D03*
X114000D02*
D03*
X122750Y-54000D02*
D03*
X73000Y-42500D02*
D03*
X5315Y-22539D02*
D03*
Y-15846D02*
D03*
X11000Y-24311D02*
D03*
X129500Y-36200D02*
D03*
X82000Y-2000D02*
D03*
X69500D02*
D03*
X66450D02*
D03*
X66500Y-6500D02*
D03*
X157500Y-47500D02*
D03*
X162500D02*
D03*
X167500D02*
D03*
X172500D02*
D03*
Y-32500D02*
D03*
X167500D02*
D03*
X162500D02*
D03*
X157500D02*
D03*
X152500D02*
D03*
X172500Y-37500D02*
D03*
Y-42500D02*
D03*
X147500D02*
D03*
Y-37500D02*
D03*
Y-32500D02*
D03*
X20500Y-14000D02*
D03*
X26250D02*
D03*
X18602Y-87598D02*
D03*
X98524Y-70276D02*
D03*
X35039Y-57284D02*
D03*
X23720Y-60335D02*
D03*
X127750Y-52500D02*
D03*
X131750D02*
D03*
X159500Y-11550D02*
D03*
X130650Y-18900D02*
D03*
X26250Y-8300D02*
D03*
X20750Y-22700D02*
D03*
X61250Y-27000D02*
D03*
X77000Y-31250D02*
D03*
X132500Y-5500D02*
D03*
X120866Y-49606D02*
D03*
X127750Y-48500D02*
D03*
X174500Y-71250D02*
D03*
X154250Y-55750D02*
D03*
X154000Y-62250D02*
D03*
X153934Y-70057D02*
D03*
X54232Y-29921D02*
D03*
X155050Y-81200D02*
D03*
X148750D02*
D03*
Y-83950D02*
D03*
X126250Y-82800D02*
D03*
X111000Y-87250D02*
D03*
X142750Y-83250D02*
D03*
X139000Y-82750D02*
D03*
X126250Y-86000D02*
D03*
X121450Y-66200D02*
D03*
X159500Y-19250D02*
D03*
Y-15250D02*
D03*
X167750Y-9250D02*
D03*
X162750D02*
D03*
X32750Y-16750D02*
D03*
X52650Y-59150D02*
D03*
X131750Y-48500D02*
D03*
X134500Y-59500D02*
D03*
X129250D02*
D03*
X138800Y-52000D02*
D03*
X126700Y-22900D02*
D03*
Y-18900D02*
D03*
X87894Y-2165D02*
D03*
X95571Y-2264D02*
D03*
X121250Y-3250D02*
D03*
X123750D02*
D03*
X140250Y-40500D02*
D03*
X118350Y-73400D02*
D03*
X72500Y-37000D02*
D03*
X118700Y-46000D02*
D03*
X138056Y-48500D02*
D03*
X133750Y-66000D02*
D03*
X127750Y-66250D02*
D03*
X138250Y-76000D02*
D03*
X138750Y-72000D02*
D03*
X94095Y-71063D02*
D03*
X32283Y-34941D02*
D03*
X113681Y-2264D02*
D03*
X143750Y-21500D02*
D03*
Y-16500D02*
D03*
X138750D02*
D03*
X148000Y-10750D02*
D03*
Y-5000D02*
D03*
X165646Y-16750D02*
D03*
Y-28750D02*
D03*
X157646D02*
D03*
X31791Y-20000D02*
D03*
X32250Y-14000D02*
D03*
X11000Y-14075D02*
D03*
X29035Y-30000D02*
D03*
X139342Y-23223D02*
D03*
Y-9250D02*
D03*
X162500Y-17150D02*
D03*
X40300Y-5100D02*
D03*
X49750Y-2000D02*
D03*
X128250Y-72700D02*
D03*
X118650Y-76100D02*
D03*
X24900Y-2300D02*
D03*
X76000Y-17250D02*
D03*
X71500D02*
D03*
X128350Y-76100D02*
D03*
X142250Y-59750D02*
D03*
X157000Y-87250D02*
D03*
X116250Y-83750D02*
D03*
X135750Y-86500D02*
D03*
Y-82750D02*
D03*
X136250Y-40500D02*
D03*
X108750Y-45374D02*
D03*
X41500Y-18250D02*
D03*
X43400Y-16850D02*
D03*
X30906Y-56791D02*
D03*
X24050Y-22700D02*
D03*
X28900Y-7000D02*
D03*
X55250Y-2000D02*
D03*
X130000Y-10854D02*
D03*
X143280D02*
D03*
X129950Y-6950D02*
D03*
X130650Y-15150D02*
D03*
X69250Y-6500D02*
D03*
X130650Y-22900D02*
D03*
X128500Y-25500D02*
D03*
X54000Y-23000D02*
D03*
X55500Y-26000D02*
D03*
X65000Y-16500D02*
D03*
X69000Y-48750D02*
D03*
X64000Y-48000D02*
D03*
X95500Y-49000D02*
D03*
X97500Y-51500D02*
D03*
X140000Y-31250D02*
D03*
X121250Y-71000D02*
D03*
X58712Y-18457D02*
D03*
X56750Y-21250D02*
D03*
Y-18000D02*
D03*
X61714Y-17229D02*
D03*
X65750Y-29777D02*
D03*
X112750Y-28445D02*
D03*
X76002Y-42750D02*
D03*
X78000Y-40250D02*
D03*
X124748Y-51754D02*
D03*
X45177Y-50295D02*
D03*
X40846D02*
D03*
X45177Y-45965D02*
D03*
X40846D02*
D03*
X43484Y-27000D02*
D03*
X24213Y-87697D02*
D03*
X21358Y-84350D02*
D03*
X4823Y-39862D02*
D03*
X35531Y-54035D02*
D03*
X26969Y-45374D02*
D03*
D65*
X67326Y-51971D02*
D03*
X150250Y-49500D02*
D03*
D66*
X33169Y-42126D02*
D03*
X45573Y-37699D02*
D03*
X49313Y-57286D02*
D03*
X103248Y-22736D02*
D03*
Y-27067D02*
D03*
Y-31398D02*
D03*
Y-35728D02*
D03*
Y-40059D02*
D03*
X98917Y-22736D02*
D03*
Y-27067D02*
D03*
Y-31398D02*
D03*
Y-35728D02*
D03*
Y-40059D02*
D03*
X94587Y-22736D02*
D03*
Y-27067D02*
D03*
Y-31398D02*
D03*
Y-35728D02*
D03*
Y-40059D02*
D03*
X90256Y-22736D02*
D03*
Y-27067D02*
D03*
Y-31398D02*
D03*
Y-35728D02*
D03*
Y-40059D02*
D03*
X85925Y-22736D02*
D03*
Y-27067D02*
D03*
Y-31398D02*
D03*
Y-35728D02*
D03*
Y-40059D02*
D03*
X80750Y-17250D02*
D03*
X108667Y-17225D02*
D03*
X52250Y-17000D02*
D03*
X53349Y-48723D02*
D03*
X6053Y-49461D02*
D03*
X23819Y-50403D02*
D03*
M02*
