G04 Layer_Color=65535*
%FSLAX25Y25*%
%MOIN*%
G70*
G01*
G75*
%ADD49C,0.00984*%
%ADD50C,0.00787*%
%ADD70C,0.00394*%
%ADD71C,0.00606*%
%ADD72C,0.01000*%
%ADD73C,0.00591*%
D49*
X103150Y-60925D02*
G03*
X103150Y-60925I-492J0D01*
G01*
X109055Y-14272D02*
G03*
X109055Y-14272I-492J0D01*
G01*
X21358Y-38976D02*
G03*
X21358Y-38976I-492J0D01*
G01*
X155268Y-9967D02*
G03*
X155268Y-9967I-492J0D01*
G01*
X33268Y-55610D02*
G03*
X33268Y-55610I-492J0D01*
G01*
X36242Y-492D02*
G03*
X36242Y-492I-492J0D01*
G01*
X146480Y-50270D02*
G03*
X146480Y-50270I-492J0D01*
G01*
X4912Y-40824D02*
G03*
X4912Y-40824I-492J0D01*
G01*
X57087Y-14665D02*
X80709D01*
X56890Y-14469D02*
X57087Y-14665D01*
X56890Y-14469D02*
Y-13681D01*
X80709Y-14665D02*
Y-13681D01*
X57087Y-886D02*
X80709D01*
X57087Y-2067D02*
Y-886D01*
X80709Y-1870D02*
Y-886D01*
X49705Y-79626D02*
X49744Y-79587D01*
X45256Y-79626D02*
X49705D01*
X40335Y-84547D02*
X45256Y-79626D01*
X27146Y-84547D02*
X40335D01*
X24429Y-81831D02*
X27146Y-84547D01*
X5610Y-81831D02*
X24429D01*
X3917Y-83524D02*
X5610Y-81831D01*
X3917Y-90571D02*
Y-83524D01*
X335Y-90571D02*
X3917D01*
X45492Y-64902D02*
X49744D01*
X40768Y-60177D02*
X45492Y-64902D01*
X27303Y-60177D02*
X40768D01*
X26201Y-61279D02*
X27303Y-60177D01*
X24154Y-63327D02*
X26201Y-61279D01*
X5650Y-63327D02*
X24154D01*
X3878Y-61555D02*
X5650Y-63327D01*
X3878Y-61555D02*
Y-54350D01*
X374D02*
X3878D01*
D50*
X147547Y-73075D02*
Y-69925D01*
X153453Y-73075D02*
Y-69925D01*
X123925Y-88953D02*
X127075D01*
X123925Y-83047D02*
X127075D01*
X40990Y-15297D02*
X44140D01*
X40990Y-21203D02*
X44140D01*
X97933Y-53642D02*
Y-52461D01*
X99114D01*
X97933Y-59547D02*
Y-58366D01*
Y-59547D02*
X99114D01*
X109153Y-45965D02*
Y-44291D01*
X107480Y-45965D02*
X109153D01*
X80020D02*
Y-44291D01*
Y-45965D02*
X81693D01*
X80020Y-18504D02*
Y-16831D01*
X81693D01*
X109153Y-18504D02*
Y-16831D01*
X107480D02*
X109153D01*
X21949Y-33268D02*
X34154D01*
X21949Y-35236D02*
X34154D01*
Y-33268D01*
X21949Y-35236D02*
Y-33268D01*
X96260Y-81299D02*
Y-78150D01*
X90354Y-81299D02*
Y-78150D01*
X158909Y-11148D02*
X160091D01*
X158909Y-23352D02*
X160091D01*
X158909D02*
Y-11148D01*
X160091Y-23352D02*
Y-11148D01*
X16043Y-35925D02*
X17618D01*
X16043Y-38681D02*
X17618D01*
X35236Y-55905D02*
X37106D01*
X35236D02*
Y-53051D01*
X48917Y-55905D02*
X50787D01*
Y-53051D01*
Y-43209D02*
Y-40354D01*
X48917D02*
X50787D01*
X35236D02*
X37106D01*
X35236Y-43209D02*
Y-40354D01*
X133095Y-56766D02*
X136343D01*
X133095D02*
Y-54797D01*
X141657Y-56766D02*
X144905D01*
Y-54797D01*
X11309Y-53817D02*
Y-50667D01*
X8553Y-53817D02*
X11309D01*
Y-45155D02*
Y-42006D01*
X8553D02*
X11309D01*
D70*
X139272Y-63779D02*
Y-61910D01*
X137402Y-60728D02*
X139272Y-61910D01*
X124508Y-60728D02*
X137402D01*
X122244D02*
X124508D01*
X122244Y-62697D02*
Y-60728D01*
Y-62697D02*
Y-60630D01*
X109646D02*
X122244D01*
X109449D02*
X109646D01*
X109449Y-62402D02*
Y-60630D01*
X129894Y-14411D02*
X149185D01*
X129894Y-17955D02*
X149185D01*
D71*
X129500Y-25829D02*
Y-6144D01*
X149185Y-25829D02*
Y-6144D01*
D72*
X145248Y-21498D02*
X147610D01*
X146035Y-19923D02*
X147610Y-21498D01*
X146035Y-22679D02*
Y-19923D01*
Y-22679D02*
X147216Y-21498D01*
X141705D02*
X147216D01*
X156496Y-46163D02*
Y-48787D01*
X157808Y-50098D01*
X159120Y-48787D01*
Y-46163D01*
X160432Y-50098D02*
X161744D01*
X161088D01*
Y-47475D01*
X160432D01*
X163712Y-46163D02*
Y-50098D01*
X165679D01*
X166335Y-49442D01*
Y-48787D01*
Y-48131D01*
X165679Y-47475D01*
X163712D01*
X167647D02*
Y-50098D01*
Y-48787D01*
X168303Y-48131D01*
X168959Y-47475D01*
X169615D01*
X172239Y-50098D02*
X173551D01*
X174207Y-49442D01*
Y-48131D01*
X173551Y-47475D01*
X172239D01*
X171583Y-48131D01*
Y-49442D01*
X172239Y-50098D01*
D73*
X121457Y-69784D02*
X118702D01*
Y-68406D01*
X119161Y-67947D01*
X120079D01*
X120538Y-68406D01*
Y-69784D01*
Y-68865D02*
X121457Y-67947D01*
Y-65192D02*
Y-67028D01*
X119620Y-65192D01*
X119161D01*
X118702Y-65651D01*
Y-66569D01*
X119161Y-67028D01*
X120998Y-64273D02*
X121457Y-63814D01*
Y-62896D01*
X120998Y-62437D01*
X119161D01*
X118702Y-62896D01*
Y-63814D01*
X119161Y-64273D01*
X119620D01*
X120079Y-63814D01*
Y-62437D01*
X162467Y-8728D02*
X162007Y-8269D01*
X161089D01*
X160630Y-8728D01*
Y-10564D01*
X161089Y-11024D01*
X162007D01*
X162467Y-10564D01*
X165222Y-8269D02*
X164303Y-8728D01*
X163385Y-9646D01*
Y-10564D01*
X163844Y-11024D01*
X164762D01*
X165222Y-10564D01*
Y-10105D01*
X164762Y-9646D01*
X163385D01*
X113648Y-1051D02*
X113189Y-591D01*
X112270D01*
X111811Y-1051D01*
Y-2887D01*
X112270Y-3347D01*
X113189D01*
X113648Y-2887D01*
X114566Y-3347D02*
X115484D01*
X115025D01*
Y-591D01*
X114566Y-1051D01*
X116862Y-591D02*
X118699D01*
Y-1051D01*
X116862Y-2887D01*
Y-3347D01*
X153638Y-28568D02*
X153179Y-28109D01*
X152260D01*
X151801Y-28568D01*
Y-30405D01*
X152260Y-30864D01*
X153179D01*
X153638Y-30405D01*
X156393Y-30864D02*
X154556D01*
X156393Y-29027D01*
Y-28568D01*
X155934Y-28109D01*
X155015D01*
X154556Y-28568D01*
X159148Y-28109D02*
X157311D01*
Y-29487D01*
X158229Y-29027D01*
X158689D01*
X159148Y-29487D01*
Y-30405D01*
X158689Y-30864D01*
X157770D01*
X157311Y-30405D01*
X147250Y-48250D02*
Y-45495D01*
X148627D01*
X149087Y-45954D01*
Y-46872D01*
X148627Y-47332D01*
X147250D01*
X148168D02*
X149087Y-48250D01*
X151842D02*
X150005D01*
X151842Y-46413D01*
Y-45954D01*
X151383Y-45495D01*
X150464D01*
X150005Y-45954D01*
X154597Y-45495D02*
X152760D01*
Y-46872D01*
X153678Y-46413D01*
X154138D01*
X154597Y-46872D01*
Y-47791D01*
X154138Y-48250D01*
X153219D01*
X152760Y-47791D01*
X69616Y-33291D02*
Y-31454D01*
X69157Y-30995D01*
X68239D01*
X67780Y-31454D01*
Y-33291D01*
X68239Y-33750D01*
X69157D01*
X68698Y-32832D02*
X69616Y-33750D01*
X69157D02*
X69616Y-33291D01*
X72371Y-30995D02*
X70535D01*
Y-32372D01*
X71453Y-31913D01*
X71912D01*
X72371Y-32372D01*
Y-33291D01*
X71912Y-33750D01*
X70994D01*
X70535Y-33291D01*
X93173Y-51476D02*
Y-48721D01*
X94550D01*
X95009Y-49180D01*
Y-50099D01*
X94550Y-50558D01*
X93173D01*
X94091D02*
X95009Y-51476D01*
X95928D02*
X96846D01*
X96387D01*
Y-48721D01*
X95928Y-49180D01*
X100060Y-51476D02*
X98224D01*
X100060Y-49640D01*
Y-49180D01*
X99601Y-48721D01*
X98683D01*
X98224Y-49180D01*
X42323Y-30808D02*
Y-33563D01*
X44159D01*
X45078D02*
X45996D01*
X45537D01*
Y-30808D01*
X45078Y-31267D01*
X88648Y-9121D02*
X88188Y-8662D01*
X87270D01*
X86811Y-9121D01*
Y-10958D01*
X87270Y-11417D01*
X88188D01*
X88648Y-10958D01*
X89566Y-11417D02*
X90484D01*
X90025D01*
Y-8662D01*
X89566Y-9121D01*
X93239Y-11417D02*
Y-8662D01*
X91862Y-10040D01*
X93699D01*
X163973Y-15824D02*
Y-18120D01*
X164432Y-18579D01*
X165350D01*
X165810Y-18120D01*
Y-15824D01*
X168565Y-18579D02*
X166728D01*
X168565Y-16742D01*
Y-16283D01*
X168105Y-15824D01*
X167187D01*
X166728Y-16283D01*
X144579Y-3421D02*
Y-666D01*
X145957D01*
X146416Y-1125D01*
Y-2044D01*
X145957Y-2503D01*
X144579D01*
X145498D02*
X146416Y-3421D01*
X147334D02*
X148253D01*
X147793D01*
Y-666D01*
X147334Y-1125D01*
X151467Y-666D02*
X149630D01*
Y-2044D01*
X150549Y-1585D01*
X151008D01*
X151467Y-2044D01*
Y-2962D01*
X151008Y-3421D01*
X150089D01*
X149630Y-2962D01*
X163270Y-28625D02*
X162811Y-28166D01*
X161892D01*
X161433Y-28625D01*
Y-30462D01*
X161892Y-30921D01*
X162811D01*
X163270Y-30462D01*
X166025Y-28166D02*
X164188D01*
Y-29544D01*
X165106Y-29085D01*
X165566D01*
X166025Y-29544D01*
Y-30462D01*
X165566Y-30921D01*
X164647D01*
X164188Y-30462D01*
X86187Y-78314D02*
X85728Y-77855D01*
X84810D01*
X84350Y-78314D01*
Y-80151D01*
X84810Y-80610D01*
X85728D01*
X86187Y-80151D01*
X88942Y-80610D02*
X87105D01*
X88942Y-78774D01*
Y-78314D01*
X88483Y-77855D01*
X87565D01*
X87105Y-78314D01*
X143812Y-34303D02*
X143352Y-33844D01*
X142434D01*
X141975Y-34303D01*
Y-36140D01*
X142434Y-36599D01*
X143352D01*
X143812Y-36140D01*
X144730Y-34303D02*
X145189Y-33844D01*
X146107D01*
X146567Y-34303D01*
Y-34762D01*
X146107Y-35221D01*
X145648D01*
X146107D01*
X146567Y-35680D01*
Y-36140D01*
X146107Y-36599D01*
X145189D01*
X144730Y-36140D01*
X118766Y-79561D02*
Y-77724D01*
X118307Y-77265D01*
X117388D01*
X116929Y-77724D01*
Y-79561D01*
X117388Y-80020D01*
X118307D01*
X117848Y-79101D02*
X118766Y-80020D01*
X118307D02*
X118766Y-79561D01*
X121521Y-80020D02*
X119684D01*
X121521Y-78183D01*
Y-77724D01*
X121062Y-77265D01*
X120143D01*
X119684Y-77724D01*
X127165Y-45965D02*
Y-43210D01*
X128543D01*
X129002Y-43669D01*
Y-44587D01*
X128543Y-45046D01*
X127165D01*
X128084D02*
X129002Y-45965D01*
X131757Y-43210D02*
X130839Y-43669D01*
X129920Y-44587D01*
Y-45505D01*
X130379Y-45965D01*
X131298D01*
X131757Y-45505D01*
Y-45046D01*
X131298Y-44587D01*
X129920D01*
X112992Y-36417D02*
Y-33662D01*
X114370D01*
X114829Y-34122D01*
Y-35040D01*
X114370Y-35499D01*
X112992D01*
X113910D02*
X114829Y-36417D01*
X115747Y-33662D02*
X117584D01*
Y-34122D01*
X115747Y-35958D01*
Y-36417D01*
X108465Y-78938D02*
X111088D01*
X109776D01*
Y-82874D01*
X112400D02*
X113712D01*
X113056D01*
Y-78938D01*
X112400Y-79594D01*
X24419Y-8555D02*
X21664D01*
Y-7178D01*
X22123Y-6718D01*
X23041D01*
X23501Y-7178D01*
Y-8555D01*
Y-7637D02*
X24419Y-6718D01*
X23960Y-5800D02*
X24419Y-5341D01*
Y-4423D01*
X23960Y-3963D01*
X22123D01*
X21664Y-4423D01*
Y-5341D01*
X22123Y-5800D01*
X22582D01*
X23041Y-5341D01*
Y-3963D01*
X21223Y-22431D02*
X20763Y-21971D01*
X19845D01*
X19386Y-22431D01*
Y-24267D01*
X19845Y-24726D01*
X20763D01*
X21223Y-24267D01*
X22141Y-24726D02*
X23059D01*
X22600D01*
Y-21971D01*
X22141Y-22431D01*
X24437Y-24726D02*
X25355D01*
X24896D01*
Y-21971D01*
X24437Y-22431D01*
X42913Y-58564D02*
Y-60860D01*
X43373Y-61319D01*
X44291D01*
X44750Y-60860D01*
Y-58564D01*
X47505D02*
X45668D01*
Y-59941D01*
X46587Y-59482D01*
X47046D01*
X47505Y-59941D01*
Y-60860D01*
X47046Y-61319D01*
X46128D01*
X45668Y-60860D01*
X13378Y-34498D02*
Y-31743D01*
X14755D01*
X15215Y-32203D01*
Y-33121D01*
X14755Y-33580D01*
X13378D01*
X14296D02*
X15215Y-34498D01*
X16133D02*
X17051D01*
X16592D01*
Y-31743D01*
X16133Y-32203D01*
X18429D02*
X18888Y-31743D01*
X19806D01*
X20266Y-32203D01*
Y-32662D01*
X19806Y-33121D01*
X19347D01*
X19806D01*
X20266Y-33580D01*
Y-34039D01*
X19806Y-34498D01*
X18888D01*
X18429Y-34039D01*
X122014Y-7808D02*
Y-5972D01*
X121555Y-5513D01*
X120636D01*
X120177Y-5972D01*
Y-7808D01*
X120636Y-8268D01*
X121555D01*
X121096Y-7349D02*
X122014Y-8268D01*
X121555D02*
X122014Y-7808D01*
X122932Y-5972D02*
X123391Y-5513D01*
X124310D01*
X124769Y-5972D01*
Y-6431D01*
X124310Y-6890D01*
X123851D01*
X124310D01*
X124769Y-7349D01*
Y-7808D01*
X124310Y-8268D01*
X123391D01*
X122932Y-7808D01*
X87074Y-6037D02*
X86615Y-6497D01*
Y-7415D01*
X87074Y-7874D01*
X88911D01*
X89370Y-7415D01*
Y-6497D01*
X88911Y-6037D01*
X87074Y-5119D02*
X86615Y-4660D01*
Y-3742D01*
X87074Y-3282D01*
X87533D01*
X87993Y-3742D01*
X88452Y-3282D01*
X88911D01*
X89370Y-3742D01*
Y-4660D01*
X88911Y-5119D01*
X88452D01*
X87993Y-4660D01*
X87533Y-5119D01*
X87074D01*
X87993Y-4660D02*
Y-3742D01*
X52329Y-11090D02*
X51870Y-10631D01*
X50951D01*
X50492Y-11090D01*
Y-12927D01*
X50951Y-13386D01*
X51870D01*
X52329Y-12927D01*
X53247Y-10631D02*
X55084D01*
Y-11090D01*
X53247Y-12927D01*
Y-13386D01*
X130206Y-1613D02*
X129747Y-1154D01*
X128829D01*
X128370Y-1613D01*
Y-3450D01*
X128829Y-3909D01*
X129747D01*
X130206Y-3450D01*
X132502Y-3909D02*
Y-1154D01*
X131125Y-2531D01*
X132961D01*
X89927Y-59909D02*
X89468Y-59450D01*
X88550D01*
X88090Y-59909D01*
Y-61746D01*
X88550Y-62205D01*
X89468D01*
X89927Y-61746D01*
X90846Y-62205D02*
X91764D01*
X91305D01*
Y-59450D01*
X90846Y-59909D01*
X107152Y-52232D02*
X106693Y-51772D01*
X105774D01*
X105315Y-52232D01*
Y-54068D01*
X105774Y-54528D01*
X106693D01*
X107152Y-54068D01*
X108070Y-54528D02*
X108988D01*
X108529D01*
Y-51772D01*
X108070Y-52232D01*
X112203Y-51772D02*
X110366D01*
Y-53150D01*
X111284Y-52691D01*
X111743D01*
X112203Y-53150D01*
Y-54068D01*
X111743Y-54528D01*
X110825D01*
X110366Y-54068D01*
X111966Y-28901D02*
X111507Y-29360D01*
Y-30279D01*
X111966Y-30738D01*
X113803D01*
X114262Y-30279D01*
Y-29360D01*
X113803Y-28901D01*
X114262Y-27983D02*
Y-27064D01*
Y-27524D01*
X111507D01*
X111966Y-27983D01*
X111507Y-23850D02*
X111966Y-24769D01*
X112885Y-25687D01*
X113803D01*
X114262Y-25228D01*
Y-24309D01*
X113803Y-23850D01*
X113344D01*
X112885Y-24309D01*
Y-25687D01*
X119750Y-42652D02*
X118373D01*
X117913Y-43111D01*
Y-44029D01*
X118373Y-44488D01*
X119750D01*
X120668D02*
X121587D01*
X121128D01*
Y-41733D01*
X120668D01*
X122964Y-44488D02*
Y-41733D01*
Y-43570D02*
X124342Y-42652D01*
X122964Y-43570D02*
X124342Y-44488D01*
X118021Y-52353D02*
X118940D01*
X118480D01*
Y-50516D01*
X118021D01*
X120776Y-52353D02*
X121695D01*
X122154Y-51894D01*
Y-50975D01*
X121695Y-50516D01*
X120776D01*
X120317Y-50975D01*
Y-51894D01*
X120776Y-52353D01*
X64272Y-52854D02*
Y-50099D01*
X65649D01*
X66108Y-50559D01*
Y-51477D01*
X65649Y-51936D01*
X64272D01*
X65190D02*
X66108Y-52854D01*
X67027D02*
X67945D01*
X67486D01*
Y-50099D01*
X67027Y-50559D01*
X69323Y-52854D02*
X70241D01*
X69782D01*
Y-50099D01*
X69323Y-50559D01*
X30279Y-8563D02*
X27525D01*
Y-7186D01*
X27984Y-6726D01*
X28902D01*
X29361Y-7186D01*
Y-8563D01*
Y-7645D02*
X30279Y-6726D01*
Y-5808D02*
Y-4890D01*
Y-5349D01*
X27525D01*
X27984Y-5808D01*
Y-3512D02*
X27525Y-3053D01*
Y-2135D01*
X27984Y-1675D01*
X29820D01*
X30279Y-2135D01*
Y-3053D01*
X29820Y-3512D01*
X27984D01*
X115748Y-19685D02*
Y-16930D01*
X117125D01*
X117585Y-17389D01*
Y-18307D01*
X117125Y-18767D01*
X115748D01*
X116666D02*
X117585Y-19685D01*
X118503Y-17389D02*
X118962Y-16930D01*
X119881D01*
X120340Y-17389D01*
Y-17848D01*
X119881Y-18307D01*
X120340Y-18767D01*
Y-19226D01*
X119881Y-19685D01*
X118962D01*
X118503Y-19226D01*
Y-18767D01*
X118962Y-18307D01*
X118503Y-17848D01*
Y-17389D01*
X118962Y-18307D02*
X119881D01*
X101772Y-70472D02*
Y-67717D01*
X103149D01*
X103608Y-68177D01*
Y-69095D01*
X103149Y-69554D01*
X101772D01*
X102690D02*
X103608Y-70472D01*
X105904D02*
Y-67717D01*
X104527Y-69095D01*
X106363D01*
X78445Y-82087D02*
Y-79332D01*
X79822D01*
X80282Y-79791D01*
Y-80709D01*
X79822Y-81168D01*
X78445D01*
X79363D02*
X80282Y-82087D01*
X81200D02*
X82118D01*
X81659D01*
Y-79332D01*
X81200Y-79791D01*
X38802Y-12008D02*
X41098D01*
X41557Y-11549D01*
Y-10630D01*
X41098Y-10171D01*
X38802D01*
X39261Y-9253D02*
X38802Y-8794D01*
Y-7875D01*
X39261Y-7416D01*
X39720D01*
X40180Y-7875D01*
Y-8335D01*
Y-7875D01*
X40639Y-7416D01*
X41098D01*
X41557Y-7875D01*
Y-8794D01*
X41098Y-9253D01*
X26280Y-30787D02*
X28576D01*
X29035Y-30328D01*
Y-29410D01*
X28576Y-28951D01*
X26280D01*
X29035Y-26655D02*
X26280D01*
X27658Y-28032D01*
Y-26196D01*
X66831Y-9745D02*
X68667D01*
Y-10204D01*
X66831Y-12041D01*
Y-12500D01*
X68667D01*
X69586D02*
X70504D01*
X70045D01*
Y-9745D01*
X69586Y-10204D01*
X73819Y-19981D02*
Y-22277D01*
X74278Y-22736D01*
X75196D01*
X75656Y-22277D01*
Y-19981D01*
X76574Y-22736D02*
X77492D01*
X77033D01*
Y-19981D01*
X76574Y-20440D01*
X94569Y-60176D02*
Y-58339D01*
X94110Y-57880D01*
X93191D01*
X92732Y-58339D01*
Y-60176D01*
X93191Y-60635D01*
X94110D01*
X93651Y-59717D02*
X94569Y-60635D01*
X94110D02*
X94569Y-60176D01*
X95487Y-60635D02*
X96406D01*
X95947D01*
Y-57880D01*
X95487Y-58339D01*
X27722Y-41995D02*
X27263Y-41536D01*
X26345D01*
X25886Y-41995D01*
Y-43832D01*
X26345Y-44291D01*
X27263D01*
X27722Y-43832D01*
X28641Y-44291D02*
X29559D01*
X29100D01*
Y-41536D01*
X28641Y-41995D01*
X30937D02*
X31396Y-41536D01*
X32314D01*
X32773Y-41995D01*
Y-43832D01*
X32314Y-44291D01*
X31396D01*
X30937Y-43832D01*
Y-41995D01*
X21226Y-41799D02*
X20767Y-41339D01*
X19849D01*
X19390Y-41799D01*
Y-43635D01*
X19849Y-44094D01*
X20767D01*
X21226Y-43635D01*
X22145D02*
X22604Y-44094D01*
X23522D01*
X23981Y-43635D01*
Y-41799D01*
X23522Y-41339D01*
X22604D01*
X22145Y-41799D01*
Y-42258D01*
X22604Y-42717D01*
X23981D01*
X54337Y-18204D02*
X53878Y-17745D01*
X52959D01*
X52500Y-18204D01*
Y-20041D01*
X52959Y-20500D01*
X53878D01*
X54337Y-20041D01*
X55255Y-20500D02*
X56173D01*
X55714D01*
Y-17745D01*
X55255Y-18204D01*
X59387Y-20500D02*
X57551D01*
X59387Y-18663D01*
Y-18204D01*
X58928Y-17745D01*
X58010D01*
X57551Y-18204D01*
X78740Y-61811D02*
Y-59056D01*
X80118D01*
X80577Y-59515D01*
Y-60434D01*
X80118Y-60893D01*
X78740D01*
X79659D02*
X80577Y-61811D01*
X83332D02*
X81495D01*
X83332Y-59974D01*
Y-59515D01*
X82873Y-59056D01*
X81954D01*
X81495Y-59515D01*
X117815Y-59055D02*
Y-56300D01*
X119193D01*
X119652Y-56759D01*
Y-57678D01*
X119193Y-58137D01*
X117815D01*
X118733D02*
X119652Y-59055D01*
X122407Y-56300D02*
X120570D01*
Y-57678D01*
X121488Y-57218D01*
X121948D01*
X122407Y-57678D01*
Y-58596D01*
X121948Y-59055D01*
X121029D01*
X120570Y-58596D01*
X136843Y-84415D02*
X137302Y-83956D01*
Y-83038D01*
X136843Y-82579D01*
X135006D01*
X134547Y-83038D01*
Y-83956D01*
X135006Y-84415D01*
X134547Y-85334D02*
Y-86252D01*
Y-85793D01*
X137302D01*
X136843Y-85334D01*
Y-87630D02*
X137302Y-88089D01*
Y-89007D01*
X136843Y-89466D01*
X136384D01*
X135925Y-89007D01*
Y-88548D01*
Y-89007D01*
X135466Y-89466D01*
X135006D01*
X134547Y-89007D01*
Y-88089D01*
X135006Y-87630D01*
X60827Y-61713D02*
Y-58958D01*
X62204D01*
X62664Y-59417D01*
Y-60335D01*
X62204Y-60794D01*
X60827D01*
X61745D02*
X62664Y-61713D01*
X63582D02*
X64500D01*
X64041D01*
Y-58958D01*
X63582Y-59417D01*
X67714Y-58958D02*
X66796Y-59417D01*
X65878Y-60335D01*
Y-61253D01*
X66337Y-61713D01*
X67255D01*
X67714Y-61253D01*
Y-60794D01*
X67255Y-60335D01*
X65878D01*
X51476Y-61614D02*
Y-58859D01*
X52854D01*
X53313Y-59318D01*
Y-60237D01*
X52854Y-60696D01*
X51476D01*
X52395D02*
X53313Y-61614D01*
X54231D02*
X55150D01*
X54691D01*
Y-58859D01*
X54231Y-59318D01*
X56527D02*
X56986Y-58859D01*
X57905D01*
X58364Y-59318D01*
Y-59777D01*
X57905Y-60237D01*
X58364Y-60696D01*
Y-61155D01*
X57905Y-61614D01*
X56986D01*
X56527Y-61155D01*
Y-60696D01*
X56986Y-60237D01*
X56527Y-59777D01*
Y-59318D01*
X56986Y-60237D02*
X57905D01*
X103347Y-83268D02*
X106102D01*
Y-81890D01*
X105643Y-81431D01*
X103806D01*
X103347Y-81890D01*
Y-83268D01*
X106102Y-78676D02*
Y-80513D01*
X104266Y-78676D01*
X103806D01*
X103347Y-79135D01*
Y-80054D01*
X103806Y-80513D01*
X58876Y-27822D02*
Y-25986D01*
X58417Y-25526D01*
X57499D01*
X57039Y-25986D01*
Y-27822D01*
X57499Y-28282D01*
X58417D01*
X57958Y-27363D02*
X58876Y-28282D01*
X58417D02*
X58876Y-27822D01*
X61172Y-28282D02*
Y-25526D01*
X59794Y-26904D01*
X61631D01*
X13451Y-1773D02*
X12532D01*
X12992D01*
Y-4068D01*
X12532Y-4528D01*
X12073D01*
X11614Y-4068D01*
X14369Y-4528D02*
X15288D01*
X14828D01*
Y-1773D01*
X14369Y-2232D01*
X91634Y-5217D02*
X93471D01*
Y-5677D01*
X91634Y-7513D01*
Y-7972D01*
X93471D01*
X96226D02*
X94389D01*
X96226Y-6136D01*
Y-5677D01*
X95766Y-5217D01*
X94848D01*
X94389Y-5677D01*
X91502Y-1346D02*
X91043Y-887D01*
X90124D01*
X89665Y-1346D01*
Y-3183D01*
X90124Y-3642D01*
X91043D01*
X91502Y-3183D01*
X92420Y-3642D02*
X93339D01*
X92879D01*
Y-887D01*
X92420Y-1346D01*
X94716D02*
X95175Y-887D01*
X96094D01*
X96553Y-1346D01*
Y-1805D01*
X96094Y-2264D01*
X96553Y-2723D01*
Y-3183D01*
X96094Y-3642D01*
X95175D01*
X94716Y-3183D01*
Y-2723D01*
X95175Y-2264D01*
X94716Y-1805D01*
Y-1346D01*
X95175Y-2264D02*
X96094D01*
X12392Y-42637D02*
Y-45392D01*
X13770D01*
X14229Y-44933D01*
Y-43096D01*
X13770Y-42637D01*
X12392D01*
X15147Y-45392D02*
X16066D01*
X15606D01*
Y-42637D01*
X15147Y-43096D01*
X74181Y-30348D02*
X73721Y-30808D01*
Y-31726D01*
X74181Y-32185D01*
X76017D01*
X76476Y-31726D01*
Y-30808D01*
X76017Y-30348D01*
X76476Y-29430D02*
Y-28512D01*
Y-28971D01*
X73721D01*
X74181Y-29430D01*
X76017Y-27134D02*
X76476Y-26675D01*
Y-25757D01*
X76017Y-25297D01*
X74181D01*
X73721Y-25757D01*
Y-26675D01*
X74181Y-27134D01*
X74640D01*
X75099Y-26675D01*
Y-25297D01*
X125558Y-22868D02*
X125099Y-23327D01*
Y-24246D01*
X125558Y-24705D01*
X127395D01*
X127854Y-24246D01*
Y-23327D01*
X127395Y-22868D01*
X127854Y-20113D02*
Y-21950D01*
X126018Y-20113D01*
X125558D01*
X125099Y-20572D01*
Y-21490D01*
X125558Y-21950D01*
X127854Y-17358D02*
Y-19195D01*
X126018Y-17358D01*
X125558D01*
X125099Y-17817D01*
Y-18735D01*
X125558Y-19195D01*
X117421Y-69980D02*
X114666D01*
Y-68603D01*
X115125Y-68144D01*
X116044D01*
X116503Y-68603D01*
Y-69980D01*
Y-69062D02*
X117421Y-68144D01*
Y-65389D02*
Y-67225D01*
X115585Y-65389D01*
X115125D01*
X114666Y-65848D01*
Y-66766D01*
X115125Y-67225D01*
X117421Y-62634D02*
Y-64470D01*
X115585Y-62634D01*
X115125D01*
X114666Y-63093D01*
Y-64011D01*
X115125Y-64470D01*
X148889Y-61045D02*
X148430Y-60586D01*
X147511D01*
X147052Y-61045D01*
Y-62882D01*
X147511Y-63341D01*
X148430D01*
X148889Y-62882D01*
X151644Y-63341D02*
X149807D01*
X151644Y-61504D01*
Y-61045D01*
X151185Y-60586D01*
X150266D01*
X149807Y-61045D01*
X152562D02*
X153021Y-60586D01*
X153940D01*
X154399Y-61045D01*
Y-61504D01*
X153940Y-61963D01*
X153481D01*
X153940D01*
X154399Y-62423D01*
Y-62882D01*
X153940Y-63341D01*
X153021D01*
X152562Y-62882D01*
X157373Y-85026D02*
Y-83189D01*
X156914Y-82730D01*
X155996D01*
X155536Y-83189D01*
Y-85026D01*
X155996Y-85485D01*
X156914D01*
X156455Y-84567D02*
X157373Y-85485D01*
X156914D02*
X157373Y-85026D01*
X160128Y-82730D02*
X159210Y-83189D01*
X158291Y-84108D01*
Y-85026D01*
X158751Y-85485D01*
X159669D01*
X160128Y-85026D01*
Y-84567D01*
X159669Y-84108D01*
X158291D01*
X138976Y-84350D02*
Y-81595D01*
X140354D01*
X140813Y-82055D01*
Y-82973D01*
X140354Y-83432D01*
X138976D01*
X139895D02*
X140813Y-84350D01*
X143568D02*
X141731D01*
X143568Y-82514D01*
Y-82055D01*
X143109Y-81595D01*
X142191D01*
X141731Y-82055D01*
X145864Y-84350D02*
Y-81595D01*
X144486Y-82973D01*
X146323D01*
X136909Y-44194D02*
Y-46949D01*
X138287D01*
X138746Y-46490D01*
Y-44653D01*
X138287Y-44194D01*
X136909D01*
X141042Y-46949D02*
Y-44194D01*
X139664Y-45571D01*
X141501D01*
X141186Y-60875D02*
Y-58120D01*
X142563D01*
X143023Y-58579D01*
Y-59498D01*
X142563Y-59957D01*
X141186D01*
X142104D02*
X143023Y-60875D01*
X143941Y-58579D02*
X144400Y-58120D01*
X145318D01*
X145777Y-58579D01*
Y-59039D01*
X145318Y-59498D01*
X144859D01*
X145318D01*
X145777Y-59957D01*
Y-60416D01*
X145318Y-60875D01*
X144400D01*
X143941Y-60416D01*
X128805Y-79954D02*
Y-78118D01*
X128346Y-77658D01*
X127428D01*
X126969Y-78118D01*
Y-79954D01*
X127428Y-80413D01*
X128346D01*
X127887Y-79495D02*
X128805Y-80413D01*
X128346D02*
X128805Y-79954D01*
X129724Y-77658D02*
X131560D01*
Y-78118D01*
X129724Y-79954D01*
Y-80413D01*
X46915Y-83925D02*
X46259Y-83269D01*
X44947D01*
X44291Y-83925D01*
Y-84581D01*
X44947Y-85237D01*
X46259D01*
X46915Y-85893D01*
Y-86549D01*
X46259Y-87205D01*
X44947D01*
X44291Y-86549D01*
X50195Y-87205D02*
X48883D01*
X48227Y-86549D01*
Y-85237D01*
X48883Y-84581D01*
X50195D01*
X50851Y-85237D01*
Y-85893D01*
X48227D01*
X52163Y-87205D02*
Y-84581D01*
X54131D01*
X54787Y-85237D01*
Y-87205D01*
X56099D02*
X58066D01*
X58722Y-86549D01*
X58066Y-85893D01*
X56754D01*
X56099Y-85237D01*
X56754Y-84581D01*
X58722D01*
X60690Y-87205D02*
X62002D01*
X62658Y-86549D01*
Y-85237D01*
X62002Y-84581D01*
X60690D01*
X60034Y-85237D01*
Y-86549D01*
X60690Y-87205D01*
X63970Y-84581D02*
Y-87205D01*
Y-85893D01*
X64626Y-85237D01*
X65282Y-84581D01*
X65938D01*
X113287Y-69980D02*
X110532D01*
Y-68603D01*
X110992Y-68144D01*
X111910D01*
X112369Y-68603D01*
Y-69980D01*
Y-69062D02*
X113287Y-68144D01*
X110992Y-67225D02*
X110532Y-66766D01*
Y-65848D01*
X110992Y-65389D01*
X111451D01*
X111910Y-65848D01*
Y-66307D01*
Y-65848D01*
X112369Y-65389D01*
X112828D01*
X113287Y-65848D01*
Y-66766D01*
X112828Y-67225D01*
X110992Y-64470D02*
X110532Y-64011D01*
Y-63093D01*
X110992Y-62634D01*
X112828D01*
X113287Y-63093D01*
Y-64011D01*
X112828Y-64470D01*
X110992D01*
M02*
