G04 Layer_Physical_Order=1*
G04 Layer_Color=255*
%FSLAX25Y25*%
%MOIN*%
G70*
G01*
G75*
G04:AMPARAMS|DCode=10|XSize=51.18mil|YSize=51.18mil|CornerRadius=12.8mil|HoleSize=0mil|Usage=FLASHONLY|Rotation=0.000|XOffset=0mil|YOffset=0mil|HoleType=Round|Shape=RoundedRectangle|*
%AMROUNDEDRECTD10*
21,1,0.05118,0.02559,0,0,0.0*
21,1,0.02559,0.05118,0,0,0.0*
1,1,0.02559,0.01280,-0.01280*
1,1,0.02559,-0.01280,-0.01280*
1,1,0.02559,-0.01280,0.01280*
1,1,0.02559,0.01280,0.01280*
%
%ADD10ROUNDEDRECTD10*%
G04:AMPARAMS|DCode=11|XSize=62.99mil|YSize=35.43mil|CornerRadius=8.86mil|HoleSize=0mil|Usage=FLASHONLY|Rotation=90.000|XOffset=0mil|YOffset=0mil|HoleType=Round|Shape=RoundedRectangle|*
%AMROUNDEDRECTD11*
21,1,0.06299,0.01772,0,0,90.0*
21,1,0.04528,0.03543,0,0,90.0*
1,1,0.01772,0.00886,0.02264*
1,1,0.01772,0.00886,-0.02264*
1,1,0.01772,-0.00886,-0.02264*
1,1,0.01772,-0.00886,0.02264*
%
%ADD11ROUNDEDRECTD11*%
%ADD12R,0.02362X0.04331*%
%ADD13R,0.03150X0.05512*%
%ADD14R,0.03150X0.03543*%
%ADD15R,0.03543X0.03150*%
G04:AMPARAMS|DCode=16|XSize=35.43mil|YSize=31.5mil|CornerRadius=7.87mil|HoleSize=0mil|Usage=FLASHONLY|Rotation=270.000|XOffset=0mil|YOffset=0mil|HoleType=Round|Shape=RoundedRectangle|*
%AMROUNDEDRECTD16*
21,1,0.03543,0.01575,0,0,270.0*
21,1,0.01969,0.03150,0,0,270.0*
1,1,0.01575,-0.00787,-0.00984*
1,1,0.01575,-0.00787,0.00984*
1,1,0.01575,0.00787,0.00984*
1,1,0.01575,0.00787,-0.00984*
%
%ADD16ROUNDEDRECTD16*%
%ADD17R,0.04331X0.06693*%
G04:AMPARAMS|DCode=18|XSize=35.43mil|YSize=31.5mil|CornerRadius=7.87mil|HoleSize=0mil|Usage=FLASHONLY|Rotation=180.000|XOffset=0mil|YOffset=0mil|HoleType=Round|Shape=RoundedRectangle|*
%AMROUNDEDRECTD18*
21,1,0.03543,0.01575,0,0,180.0*
21,1,0.01969,0.03150,0,0,180.0*
1,1,0.01575,-0.00984,0.00787*
1,1,0.01575,0.00984,0.00787*
1,1,0.01575,0.00984,-0.00787*
1,1,0.01575,-0.00984,-0.00787*
%
%ADD18ROUNDEDRECTD18*%
%ADD19R,0.02362X0.04134*%
%ADD20R,0.04724X0.02362*%
%ADD21R,0.00984X0.01417*%
%ADD22R,0.04331X0.02362*%
G04:AMPARAMS|DCode=23|XSize=62.99mil|YSize=35.43mil|CornerRadius=8.86mil|HoleSize=0mil|Usage=FLASHONLY|Rotation=0.000|XOffset=0mil|YOffset=0mil|HoleType=Round|Shape=RoundedRectangle|*
%AMROUNDEDRECTD23*
21,1,0.06299,0.01772,0,0,0.0*
21,1,0.04528,0.03543,0,0,0.0*
1,1,0.01772,0.02264,-0.00886*
1,1,0.01772,-0.02264,-0.00886*
1,1,0.01772,-0.02264,0.00886*
1,1,0.01772,0.02264,0.00886*
%
%ADD23ROUNDEDRECTD23*%
G04:AMPARAMS|DCode=24|XSize=51.18mil|YSize=51.18mil|CornerRadius=12.8mil|HoleSize=0mil|Usage=FLASHONLY|Rotation=270.000|XOffset=0mil|YOffset=0mil|HoleType=Round|Shape=RoundedRectangle|*
%AMROUNDEDRECTD24*
21,1,0.05118,0.02559,0,0,270.0*
21,1,0.02559,0.05118,0,0,270.0*
1,1,0.02559,-0.01280,-0.01280*
1,1,0.02559,-0.01280,0.01280*
1,1,0.02559,0.01280,0.01280*
1,1,0.02559,0.01280,-0.01280*
%
%ADD24ROUNDEDRECTD24*%
%ADD25R,0.01417X0.00984*%
%ADD26R,0.07480X0.09350*%
%ADD27R,0.07480X0.04626*%
%ADD28R,0.07874X0.05807*%
%ADD29R,0.08268X0.05807*%
%ADD30R,0.05433X0.01772*%
G04:AMPARAMS|DCode=31|XSize=236.22mil|YSize=47.24mil|CornerRadius=11.81mil|HoleSize=0mil|Usage=FLASHONLY|Rotation=0.000|XOffset=0mil|YOffset=0mil|HoleType=Round|Shape=RoundedRectangle|*
%AMROUNDEDRECTD31*
21,1,0.23622,0.02362,0,0,0.0*
21,1,0.21260,0.04724,0,0,0.0*
1,1,0.02362,0.10630,-0.01181*
1,1,0.02362,-0.10630,-0.01181*
1,1,0.02362,-0.10630,0.01181*
1,1,0.02362,0.10630,0.01181*
%
%ADD31ROUNDEDRECTD31*%
%ADD32C,0.00984*%
%ADD33C,0.01575*%
%ADD34C,0.01181*%
%ADD35C,0.03150*%
%ADD36C,0.01969*%
%ADD37C,0.02362*%
G36*
X47146Y34646D02*
Y28864D01*
X46325D01*
X46267Y29158D01*
X45919Y29679D01*
X45398Y30027D01*
X44783Y30149D01*
X43209D01*
X42594Y30027D01*
X42073Y29679D01*
X41725Y29158D01*
X41603Y28543D01*
Y26575D01*
X41725Y25960D01*
X42073Y25439D01*
X42594Y25091D01*
X42691Y25072D01*
Y24213D01*
X42791Y23713D01*
X43074Y23290D01*
X43110Y23254D01*
Y21038D01*
X41400Y19328D01*
X41118Y18905D01*
X41018Y18406D01*
Y11614D01*
X39986D01*
Y12598D01*
X39886Y13098D01*
X39604Y13521D01*
X39567Y13558D01*
Y16224D01*
X39779D01*
Y17906D01*
X36614D01*
Y18905D01*
X39779D01*
Y20587D01*
X39567D01*
Y24114D01*
X33661D01*
X33366Y24492D01*
Y25098D01*
X30190D01*
X30003Y25535D01*
X30292Y25886D01*
X33366D01*
Y30610D01*
X28248D01*
Y27534D01*
X27627Y26913D01*
X27165Y27104D01*
Y33086D01*
X27271Y33244D01*
X27393Y33858D01*
X27393Y33858D01*
Y34941D01*
X46768D01*
X47146Y34646D01*
D02*
G37*
G36*
X25787Y30934D02*
Y25210D01*
X24373Y23795D01*
X24239Y23595D01*
X23686Y23964D01*
X22835Y24133D01*
X12705D01*
Y20728D01*
X11705D01*
Y24133D01*
X4626D01*
Y27540D01*
X22835D01*
X23603Y27693D01*
X24254Y28128D01*
X24689Y28779D01*
X24842Y29547D01*
Y30642D01*
X25326Y31126D01*
X25787Y30934D01*
D02*
G37*
G36*
X103725Y39673D02*
X108465D01*
Y38673D01*
X103725D01*
Y35860D01*
X103725D01*
Y35793D01*
X103725D01*
Y32980D01*
X108465D01*
Y31980D01*
X103725D01*
Y29888D01*
X101535D01*
Y34154D01*
Y39059D01*
X101748D01*
Y40445D01*
X98032D01*
Y41445D01*
X101748D01*
Y41766D01*
X103725D01*
Y39673D01*
D02*
G37*
G36*
X58156Y40144D02*
X58839Y39687D01*
X59646Y39527D01*
X62205D01*
X63011Y39687D01*
X63695Y40144D01*
X63747Y40221D01*
X64247Y40069D01*
Y36319D01*
X55608D01*
X55446Y36516D01*
Y38287D01*
X55316Y38940D01*
X54947Y39494D01*
X54393Y39864D01*
X53740Y39993D01*
X50941D01*
X50814Y40124D01*
X51025Y40624D01*
X57834D01*
X58156Y40144D01*
D02*
G37*
G36*
X20068Y47107D02*
X19920Y46886D01*
X19737Y45965D01*
X19920Y45043D01*
X20194Y44633D01*
X19927Y44133D01*
X12705D01*
Y40728D01*
Y37323D01*
X22835D01*
X23686Y37493D01*
X23741Y37530D01*
X24182Y37294D01*
Y34523D01*
X23452Y33794D01*
X22835Y33917D01*
X4626D01*
Y37323D01*
X11705D01*
Y40728D01*
Y44133D01*
X4626D01*
Y47540D01*
X19756D01*
X20068Y47107D01*
D02*
G37*
G36*
X55807Y34646D02*
Y27559D01*
X59935D01*
X60202Y27059D01*
X59999Y26755D01*
X59869Y26102D01*
Y21575D01*
X59990Y20965D01*
X59697Y20636D01*
X59654Y20596D01*
X54611D01*
X54213Y21096D01*
X54285Y21457D01*
Y23221D01*
X51476D01*
Y24220D01*
X54285D01*
Y25984D01*
X54139Y26720D01*
X53722Y27344D01*
X53098Y27761D01*
X52362Y27907D01*
X51870D01*
Y34646D01*
X52302Y34810D01*
X53740D01*
X54393Y34940D01*
X54395Y34941D01*
X55429D01*
X55807Y34646D01*
D02*
G37*
G36*
X25787Y16522D02*
Y1411D01*
X22717D01*
X22586Y1638D01*
X22510Y1911D01*
X22836Y2398D01*
X22966Y3051D01*
Y7579D01*
X22836Y8232D01*
X22466Y8785D01*
X21913Y9155D01*
X21679Y9201D01*
Y13066D01*
X25326Y16713D01*
X25787Y16522D01*
D02*
G37*
G36*
X11634Y16911D02*
X11630Y16823D01*
X11475Y16043D01*
Y13484D01*
X11519Y13265D01*
X8467Y10214D01*
X8185Y9791D01*
X8085Y9291D01*
Y9083D01*
X7851Y9037D01*
X7298Y8667D01*
X6928Y8113D01*
X6798Y7461D01*
Y2933D01*
X6928Y2280D01*
X7175Y1911D01*
X6939Y1411D01*
X4626D01*
Y17323D01*
X11377D01*
X11634Y16911D01*
D02*
G37*
G36*
X27896Y23461D02*
X28248Y23229D01*
Y20374D01*
X29709D01*
X30004Y19996D01*
X30004Y19874D01*
Y18787D01*
X31496D01*
Y17787D01*
X30004D01*
Y16888D01*
X30004Y16579D01*
X30217Y16167D01*
Y15106D01*
X30191Y14980D01*
X30217Y14854D01*
Y13484D01*
X32776D01*
Y13676D01*
X33661D01*
Y13010D01*
X32943Y12530D01*
X32421Y11749D01*
X32237Y10827D01*
X32421Y9905D01*
X32943Y9124D01*
X33724Y8602D01*
X34646Y8418D01*
X34997Y8488D01*
X35424Y8062D01*
X35880Y7757D01*
X36319Y7670D01*
Y6496D01*
X36319D01*
X36586Y5996D01*
X36410Y5733D01*
X36288Y5118D01*
Y3150D01*
X36410Y2535D01*
X36758Y2014D01*
X36913Y1911D01*
X36761Y1411D01*
X27165D01*
Y22898D01*
X27748Y23480D01*
X27896Y23461D01*
D02*
G37*
G36*
X86683Y34419D02*
X87464Y33897D01*
X88386Y33714D01*
X89307Y33897D01*
X90089Y34419D01*
X90355Y34817D01*
X94094D01*
X94390Y34575D01*
Y29888D01*
X94276D01*
Y26484D01*
X99213D01*
Y25984D01*
X99713D01*
Y22081D01*
X103725D01*
Y18538D01*
X107965D01*
Y24213D01*
X108965D01*
Y18538D01*
X111493D01*
Y1411D01*
X95669D01*
Y22081D01*
X98713D01*
Y25484D01*
X94276D01*
Y22081D01*
X94390D01*
Y1411D01*
X46113D01*
X45961Y1911D01*
X46116Y2014D01*
X46464Y2535D01*
X46586Y3150D01*
Y5118D01*
X46464Y5733D01*
X46288Y5996D01*
X46555Y6496D01*
X46555D01*
Y11614D01*
X43627D01*
Y12697D01*
X49016D01*
Y13361D01*
X53601D01*
Y12992D01*
X53762Y12186D01*
X54219Y11502D01*
X54902Y11045D01*
X54932Y11039D01*
X55162Y10484D01*
X55013Y10260D01*
X54890Y9646D01*
Y7677D01*
X55013Y7063D01*
X55361Y6542D01*
X55882Y6194D01*
X56496Y6072D01*
X58071D01*
X58685Y6194D01*
X59206Y6542D01*
X59554Y7063D01*
X59676Y7677D01*
Y9646D01*
X59554Y10260D01*
X59300Y10640D01*
X59213Y10797D01*
X59393Y11258D01*
X59758Y11502D01*
X60215Y12186D01*
X60375Y12992D01*
Y15551D01*
X60215Y16358D01*
X59758Y17041D01*
X59091Y17487D01*
X59081Y17534D01*
X59175Y17987D01*
X60215D01*
X60656Y18075D01*
X60777Y18042D01*
X61156Y17780D01*
Y10971D01*
X60873Y10781D01*
X60524Y10260D01*
X60402Y9646D01*
Y7677D01*
X60524Y7063D01*
X60873Y6542D01*
X61393Y6194D01*
X62008Y6072D01*
X63583D01*
X64197Y6194D01*
X64718Y6542D01*
X65066Y7063D01*
X65188Y7677D01*
Y9646D01*
X65066Y10260D01*
X64718Y10781D01*
X64197Y11129D01*
X63765Y11215D01*
Y19952D01*
X63999Y19999D01*
X64553Y20369D01*
X64923Y20922D01*
X65052Y21575D01*
Y26102D01*
X64923Y26755D01*
X64553Y27309D01*
X63999Y27678D01*
X63346Y27808D01*
X61575D01*
X61032Y27700D01*
X60672Y27897D01*
X60532Y28019D01*
Y29798D01*
X74680D01*
X74947Y29298D01*
X74786Y29057D01*
X74647Y28359D01*
Y27875D01*
X77257D01*
Y27375D01*
X77757D01*
Y24568D01*
X78044D01*
X78742Y24707D01*
X79333Y25102D01*
X79728Y25693D01*
X79867Y26391D01*
Y27133D01*
X80367Y27400D01*
X80375Y27395D01*
Y26391D01*
X80498Y25776D01*
X80846Y25255D01*
X81367Y24907D01*
X81981Y24785D01*
X83525D01*
X83565Y24779D01*
X84077Y24379D01*
X84195Y23784D01*
X84298Y23630D01*
X84031Y23130D01*
X80852D01*
Y19193D01*
Y15453D01*
Y11713D01*
X87151D01*
X87493Y11354D01*
Y10741D01*
X87493D01*
X87474Y10249D01*
X85229D01*
Y5131D01*
X89954D01*
Y8207D01*
X90974Y9228D01*
X91257Y9651D01*
X91357Y10151D01*
Y10741D01*
X92611D01*
Y15465D01*
X87828D01*
X87498Y15966D01*
X87563Y16117D01*
X88858D01*
X89357Y16216D01*
X89413Y16253D01*
X92611D01*
Y20977D01*
X91357D01*
Y25111D01*
X91257Y25610D01*
X90974Y26033D01*
X88133Y28875D01*
X87709Y29158D01*
X87210Y29257D01*
X84850D01*
X84691Y29495D01*
X84171Y29843D01*
X83556Y29965D01*
X82024D01*
X79964Y32025D01*
X79540Y32308D01*
X79041Y32407D01*
X66856D01*
Y34941D01*
X86334D01*
X86683Y34419D01*
D02*
G37*
G36*
X21784Y16861D02*
X19452Y14529D01*
X19169Y14106D01*
X19069Y13607D01*
Y9201D01*
X18835Y9155D01*
X18282Y8785D01*
X17912Y8232D01*
X17782Y7579D01*
Y3051D01*
X17912Y2398D01*
X18238Y1911D01*
X18162Y1638D01*
X18031Y1411D01*
X11841D01*
X11605Y1911D01*
X11852Y2280D01*
X11982Y2933D01*
Y7461D01*
X11852Y8113D01*
X11482Y8667D01*
X11287Y8797D01*
X11238Y9295D01*
X12180Y10237D01*
X12722Y10072D01*
X12834Y9511D01*
X13356Y8730D01*
X14137Y8208D01*
X15059Y8025D01*
X15981Y8208D01*
X16762Y8730D01*
X17284Y9511D01*
X17468Y10433D01*
X17284Y11355D01*
X17378Y11824D01*
X17632Y11994D01*
X18089Y12678D01*
X18249Y13484D01*
Y16043D01*
X18094Y16823D01*
X18091Y16911D01*
X18347Y17323D01*
X21592D01*
X21784Y16861D01*
D02*
G37*
G36*
X111493Y53116D02*
X108965D01*
Y47441D01*
X107965D01*
Y53116D01*
X103725D01*
Y49573D01*
X99910D01*
Y45669D01*
X99410D01*
Y45169D01*
X94276D01*
Y43242D01*
X93835Y43006D01*
X93737Y43072D01*
X92815Y43255D01*
X91893Y43072D01*
X91112Y42549D01*
X90885Y42210D01*
X90385Y42362D01*
Y43363D01*
X92458Y45436D01*
X92741Y45859D01*
X92840Y46358D01*
Y49212D01*
X93239Y49478D01*
X93761Y50259D01*
X93944Y51181D01*
X93761Y52103D01*
X93239Y52884D01*
X92840Y53150D01*
Y55020D01*
X92741Y55519D01*
X92458Y55942D01*
X91929Y56471D01*
Y61614D01*
X91929D01*
Y69390D01*
X91929D01*
X92028Y69849D01*
X111493D01*
Y53116D01*
D02*
G37*
G36*
X25787Y65325D02*
X24652Y64189D01*
X24304Y63668D01*
X24182Y63054D01*
X24182Y63054D01*
Y53907D01*
X23741Y53671D01*
X23603Y53764D01*
X22835Y53917D01*
X4626D01*
Y69849D01*
X25787D01*
Y65325D01*
D02*
G37*
G36*
X65551Y58366D02*
X64370D01*
Y51279D01*
X65428D01*
Y50197D01*
X65527Y49698D01*
X65551Y49661D01*
Y46924D01*
X64629Y46001D01*
X64346Y45578D01*
X64109Y45496D01*
X63820Y45496D01*
X63695Y45683D01*
X63011Y46140D01*
X62205Y46300D01*
X59646D01*
X58839Y46140D01*
X58156Y45683D01*
X57699Y44999D01*
X57538Y44193D01*
Y43234D01*
X46033D01*
X45988Y43225D01*
X45602Y43542D01*
Y44783D01*
X45480Y45398D01*
X45131Y45919D01*
X45075Y45957D01*
X45226Y46457D01*
X46161D01*
Y48105D01*
X47388D01*
Y47500D01*
X47518Y46847D01*
X47888Y46294D01*
X48442Y45924D01*
X49095Y45794D01*
X53622D01*
X54275Y45924D01*
X54828Y46294D01*
X55198Y46847D01*
X55328Y47500D01*
Y49272D01*
X55198Y49924D01*
X54828Y50478D01*
X54275Y50848D01*
X53622Y50978D01*
X51812D01*
X51660Y51478D01*
X52021Y51719D01*
X52369Y52240D01*
X52389Y52337D01*
X55512D01*
X55709Y52176D01*
Y51279D01*
X60433D01*
Y58366D01*
X55709D01*
Y55684D01*
X54971Y54946D01*
X52389D01*
X52369Y55044D01*
X52021Y55564D01*
X51500Y55913D01*
X50886Y56035D01*
X48917D01*
X48303Y55913D01*
X47782Y55564D01*
X47434Y55044D01*
X47312Y54429D01*
Y52854D01*
X47434Y52240D01*
X47782Y51719D01*
X48104Y51504D01*
X48204Y50960D01*
X48188Y50892D01*
X48019Y50714D01*
X46161D01*
Y52362D01*
X42224D01*
Y52362D01*
X41859Y52211D01*
X40096Y53974D01*
X39672Y54256D01*
X39173Y54356D01*
X34920D01*
X34421Y54256D01*
X33997Y53974D01*
X33717Y53693D01*
X33366Y53839D01*
Y53839D01*
X28248D01*
X28248Y49247D01*
X28035Y48835D01*
X28036Y48702D01*
Y46760D01*
X33579D01*
Y48702D01*
X33579Y48835D01*
X33366Y49247D01*
X33366Y49335D01*
Y50176D01*
X33844Y50271D01*
X34244Y50538D01*
X34464Y50493D01*
X34744Y50377D01*
Y46457D01*
X35408D01*
Y45307D01*
X35304Y44783D01*
Y42815D01*
X35356Y42553D01*
X34969Y42053D01*
X33366D01*
Y43110D01*
X28248D01*
Y38386D01*
X33366D01*
Y39443D01*
X38519D01*
X39909Y38054D01*
X40332Y37771D01*
X40831Y37672D01*
X47507D01*
Y36516D01*
X47345Y36319D01*
X27393D01*
Y62389D01*
X27786Y62782D01*
X28248Y62590D01*
Y60138D01*
X29502D01*
Y59350D01*
X28248D01*
Y54626D01*
X33366D01*
Y55684D01*
X34843D01*
X35342Y55783D01*
X35525Y55905D01*
X38272D01*
Y55693D01*
X39953D01*
Y58858D01*
X40953D01*
Y55693D01*
X42634D01*
Y55905D01*
X46161D01*
Y61811D01*
X45498D01*
Y66437D01*
X45398Y66936D01*
X45115Y67360D01*
X45079Y67396D01*
Y69849D01*
X65551D01*
Y58366D01*
D02*
G37*
G36*
X86024Y69390D02*
X86024D01*
Y61122D01*
X86024D01*
Y53347D01*
X89624D01*
X89764Y53037D01*
X89807Y52846D01*
X89310Y52103D01*
X89127Y51181D01*
X89145Y51091D01*
X88973Y50919D01*
X88705Y50740D01*
X88295D01*
Y48130D01*
X87795D01*
Y47630D01*
X84989D01*
Y47343D01*
X85127Y46645D01*
X85522Y46054D01*
X86114Y45659D01*
X86811Y45520D01*
X87554D01*
X87821Y45020D01*
X87815Y45011D01*
X86811D01*
X86197Y44889D01*
X85676Y44541D01*
X85328Y44020D01*
X85205Y43406D01*
Y41988D01*
X84046D01*
Y43538D01*
X80518D01*
Y43751D01*
X78837D01*
Y40684D01*
X77837D01*
Y43751D01*
X76156D01*
Y43538D01*
X72628D01*
Y37829D01*
X73871D01*
X74625Y37076D01*
X74433Y36614D01*
X66856D01*
Y39799D01*
X67356Y40178D01*
X67716Y40107D01*
X68201D01*
Y42717D01*
X68701D01*
Y43216D01*
X71507D01*
Y43504D01*
X71369Y44201D01*
X70974Y44793D01*
X70382Y45188D01*
X69685Y45326D01*
X68943D01*
X68675Y45826D01*
X68681Y45835D01*
X69685D01*
X70300Y45957D01*
X70820Y46306D01*
X71169Y46826D01*
X71188Y46924D01*
X72693D01*
X73192Y47023D01*
X73574Y47278D01*
X76565D01*
X76565Y52987D01*
X77004Y53134D01*
X77846D01*
Y56980D01*
X75181D01*
Y53487D01*
X75181Y53134D01*
X74742Y52987D01*
X72628D01*
Y50009D01*
X72153Y49533D01*
X71188D01*
X71169Y49630D01*
X70820Y50151D01*
X70300Y50499D01*
X69685Y50621D01*
X68153D01*
X68037Y50737D01*
Y51279D01*
X69095D01*
Y58366D01*
X66535D01*
Y69849D01*
X74783D01*
X75181Y69602D01*
X75181Y69349D01*
Y65756D01*
X78347D01*
X81512D01*
Y69349D01*
X81512Y69602D01*
X81910Y69849D01*
X85925D01*
X86024Y69390D01*
D02*
G37*
%LPC*%
G36*
X41094Y27059D02*
X38984D01*
Y24752D01*
X39272D01*
X39969Y24891D01*
X40560Y25286D01*
X40955Y25877D01*
X41094Y26575D01*
Y27059D01*
D02*
G37*
G36*
X37984D02*
X35874D01*
Y26575D01*
X36013Y25877D01*
X36408Y25286D01*
X36999Y24891D01*
X37697Y24752D01*
X37984D01*
Y27059D01*
D02*
G37*
G36*
Y30366D02*
X37697D01*
X36999Y30227D01*
X36408Y29832D01*
X36013Y29241D01*
X35874Y28543D01*
Y28059D01*
X37984D01*
Y30366D01*
D02*
G37*
G36*
X39272D02*
X38984D01*
Y28059D01*
X41094D01*
Y28543D01*
X40955Y29241D01*
X40560Y29832D01*
X39969Y30227D01*
X39272Y30366D01*
D02*
G37*
G36*
X71450Y24619D02*
X66332D01*
Y19895D01*
X68698D01*
X68743Y19820D01*
X68460Y19320D01*
X66119D01*
Y17245D01*
X68891D01*
Y16745D01*
X69391D01*
Y14170D01*
X71662D01*
X71797Y13726D01*
Y12376D01*
X70527Y11107D01*
X70244Y10684D01*
X70158Y10249D01*
X69087D01*
Y5131D01*
X73812D01*
Y10249D01*
X73812D01*
X73679Y10569D01*
X74823Y11713D01*
X78096D01*
Y15240D01*
X78309D01*
Y16921D01*
X74946D01*
Y17921D01*
X78309D01*
Y19602D01*
X78096D01*
Y23130D01*
X71797D01*
X71450Y23486D01*
Y24619D01*
D02*
G37*
G36*
X76461Y10462D02*
X74387D01*
Y8190D01*
X76461D01*
Y10462D01*
D02*
G37*
G36*
X68391Y16245D02*
X66119D01*
Y14170D01*
X68391D01*
Y16245D01*
D02*
G37*
G36*
X79536Y10462D02*
X77461D01*
Y7690D01*
Y4918D01*
X79505D01*
Y4918D01*
X81580D01*
Y7690D01*
Y10462D01*
X79536D01*
Y10462D01*
D02*
G37*
G36*
X84654Y7190D02*
X82580D01*
Y4918D01*
X84654D01*
Y7190D01*
D02*
G37*
G36*
Y10462D02*
X82580D01*
Y8190D01*
X84654D01*
Y10462D01*
D02*
G37*
G36*
X76461Y7190D02*
X74387D01*
Y4918D01*
X76461D01*
Y7190D01*
D02*
G37*
G36*
X76757Y26875D02*
X74647D01*
Y26391D01*
X74786Y25693D01*
X75181Y25102D01*
X75772Y24707D01*
X76469Y24568D01*
X76757D01*
Y26875D01*
D02*
G37*
G36*
X98910Y49573D02*
X94276D01*
Y46169D01*
X98910D01*
Y49573D01*
D02*
G37*
G36*
X49402Y58654D02*
X47095D01*
Y58366D01*
X47234Y57669D01*
X47629Y57077D01*
X48220Y56682D01*
X48917Y56544D01*
X49402D01*
Y58654D01*
D02*
G37*
G36*
X52708D02*
X50402D01*
Y56544D01*
X50886D01*
X51583Y56682D01*
X52175Y57077D01*
X52570Y57669D01*
X52708Y58366D01*
Y58654D01*
D02*
G37*
G36*
X49402Y61763D02*
X48917D01*
X48220Y61625D01*
X47629Y61230D01*
X47234Y60638D01*
X47095Y59941D01*
Y59654D01*
X49402D01*
Y61763D01*
D02*
G37*
G36*
X50886D02*
X50402D01*
Y59654D01*
X52708D01*
Y59941D01*
X52570Y60638D01*
X52175Y61230D01*
X51583Y61625D01*
X50886Y61763D01*
D02*
G37*
G36*
X30307Y45760D02*
X28036D01*
Y43685D01*
X30307D01*
Y45760D01*
D02*
G37*
G36*
X33579D02*
X31307D01*
Y43685D01*
X33579D01*
Y45760D01*
D02*
G37*
G36*
X81512Y64756D02*
X78347D01*
X75181D01*
Y60909D01*
X75181D01*
Y57980D01*
X78347D01*
X81512D01*
Y61827D01*
X81512D01*
Y64756D01*
D02*
G37*
G36*
X71507Y42217D02*
X69201D01*
Y40107D01*
X69685D01*
X70382Y40245D01*
X70974Y40641D01*
X71369Y41232D01*
X71507Y41929D01*
Y42217D01*
D02*
G37*
G36*
X87295Y50740D02*
X86811D01*
X86114Y50601D01*
X85522Y50206D01*
X85127Y49615D01*
X84989Y48917D01*
Y48630D01*
X87295D01*
Y50740D01*
D02*
G37*
G36*
X84258Y49632D02*
X82577D01*
Y47065D01*
X84258D01*
Y49632D01*
D02*
G37*
G36*
X81577D02*
X79896D01*
Y47065D01*
X81577D01*
Y49632D01*
D02*
G37*
G36*
X81512Y56980D02*
X78847D01*
Y53134D01*
X79896D01*
Y50632D01*
X81577D01*
Y53199D01*
X81512D01*
Y56980D01*
D02*
G37*
G36*
X84258Y53199D02*
X82577D01*
Y50632D01*
X84258D01*
Y53199D01*
D02*
G37*
%LPD*%
D10*
X14862Y14764D02*
D03*
X56988Y14272D02*
D03*
D11*
X9390Y5197D02*
D03*
X20374Y5315D02*
D03*
X51476Y23720D02*
D03*
X62461Y23839D02*
D03*
D12*
X44193Y49409D02*
D03*
X36713D02*
D03*
Y58858D02*
D03*
X40453D02*
D03*
X44193D02*
D03*
D13*
X49508Y31102D02*
D03*
X58169D02*
D03*
X58071Y54823D02*
D03*
X66732D02*
D03*
D14*
X82080Y7690D02*
D03*
X87591D02*
D03*
X76961Y7690D02*
D03*
X71450D02*
D03*
X38681Y9055D02*
D03*
X44193D02*
D03*
X42717Y67913D02*
D03*
X37205D02*
D03*
D15*
X90052Y13103D02*
D03*
Y18615D02*
D03*
X68891Y16745D02*
D03*
Y22257D02*
D03*
X30807Y22736D02*
D03*
Y28248D02*
D03*
X30807Y40748D02*
D03*
Y46260D02*
D03*
Y62500D02*
D03*
Y68012D02*
D03*
Y51476D02*
D03*
Y56988D02*
D03*
D16*
X82769Y27375D02*
D03*
X77257D02*
D03*
X62795Y8661D02*
D03*
X57284D02*
D03*
X44193Y4134D02*
D03*
X38681D02*
D03*
X43996Y27559D02*
D03*
X38484D02*
D03*
X43209Y43799D02*
D03*
X37697D02*
D03*
D17*
X88976Y65256D02*
D03*
X78347D02*
D03*
X88976Y57480D02*
D03*
X78347D02*
D03*
D18*
X87795Y42618D02*
D03*
Y48130D02*
D03*
X68701Y42717D02*
D03*
Y48228D02*
D03*
X49902Y53642D02*
D03*
Y59154D02*
D03*
D19*
X74597Y50132D02*
D03*
X82077D02*
D03*
Y40684D02*
D03*
X78337D02*
D03*
X74597D02*
D03*
D20*
X84001Y21161D02*
D03*
Y17421D02*
D03*
Y13681D02*
D03*
X74946D02*
D03*
Y17421D02*
D03*
Y21161D02*
D03*
D21*
X31496Y18287D02*
D03*
Y14980D02*
D03*
D22*
X46063Y22146D02*
D03*
Y14665D02*
D03*
X36614D02*
D03*
Y18406D02*
D03*
Y22146D02*
D03*
D23*
X51476Y37402D02*
D03*
X51358Y48386D02*
D03*
D24*
X60925Y42913D02*
D03*
D25*
X39547Y63878D02*
D03*
X36240D02*
D03*
D26*
X108465Y47441D02*
D03*
Y24213D02*
D03*
D27*
Y32480D02*
D03*
Y39173D02*
D03*
D28*
X99213Y25984D02*
D03*
D29*
X99410Y45669D02*
D03*
D30*
X98032Y30709D02*
D03*
Y40945D02*
D03*
Y38386D02*
D03*
Y33268D02*
D03*
Y35827D02*
D03*
D31*
X12205Y20728D02*
D03*
Y30728D02*
D03*
Y40728D02*
D03*
Y50728D02*
D03*
D32*
X88976Y57579D02*
X91535Y55020D01*
X84256Y21161D02*
X87110Y24016D01*
X91535Y51181D02*
Y55020D01*
Y46358D02*
Y51181D01*
X72693Y48228D02*
X74597Y50132D01*
X68701Y48228D02*
X72693D01*
X22146Y45965D02*
Y47146D01*
X25295Y18528D02*
Y22873D01*
X20374Y13607D02*
X25295Y18528D01*
X20374Y5315D02*
Y13607D01*
X68891Y22257D02*
X70380Y20768D01*
X71362D01*
X71450Y10184D02*
X74946Y13681D01*
X71450Y7690D02*
Y10184D01*
X77257Y24482D02*
X78785Y22954D01*
Y19139D02*
Y22954D01*
X77067Y17421D02*
X78785Y19139D01*
X77257Y24482D02*
Y27375D01*
X14862Y10630D02*
X15059Y10433D01*
X14862Y10630D02*
Y14764D01*
X9390Y9291D02*
X14862Y14764D01*
X9390Y5197D02*
Y9291D01*
X55512Y53642D02*
X57480Y55610D01*
X42323Y18406D02*
X46063Y22146D01*
X31496Y18287D02*
X36496D01*
X36614Y18406D01*
X31496Y14980D02*
X36299D01*
X36614Y14665D01*
X43996Y24213D02*
Y27559D01*
Y24213D02*
X46063Y22146D01*
X42323Y10925D02*
Y18406D01*
X44193Y4134D02*
Y8661D01*
X42323Y10925D02*
X44193Y9055D01*
X36614Y14665D02*
X38681Y12598D01*
Y9055D02*
Y12598D01*
Y4134D02*
Y9055D01*
X30807Y56988D02*
Y62500D01*
X36240Y59331D02*
Y63878D01*
Y59331D02*
X36713Y58858D01*
X34843Y56988D02*
X36713Y58858D01*
X30807Y56988D02*
X34843D01*
X30807Y51476D02*
X33345D01*
X34920Y53051D01*
X39173D01*
X43209Y48425D02*
X44193Y49409D01*
X43209Y43799D02*
Y48425D01*
X37697Y43406D02*
Y43799D01*
X30807Y22736D02*
X31398Y22146D01*
X36614D01*
X90052Y13103D02*
Y13681D01*
Y10151D02*
Y13103D01*
X87591Y7690D02*
X90052Y10151D01*
X76961Y7690D02*
X82080D01*
X76961Y7690D02*
X76961Y7690D01*
X76961Y7690D02*
X78785Y9514D01*
X76679Y17421D02*
X77762Y16339D01*
X77920D01*
X78785Y15474D01*
Y9514D02*
Y15474D01*
X84001Y17421D02*
X88858D01*
X90052Y18615D01*
X43996Y27559D02*
X48524D01*
X49508Y28543D01*
X74946Y17421D02*
X76679D01*
X77067D01*
X82077Y40684D02*
X85861D01*
X87795Y42618D01*
X82077Y38869D02*
Y40684D01*
X80251Y37042D02*
X82077Y38869D01*
X76504Y37042D02*
X80251D01*
X74597Y38949D02*
X76504Y37042D01*
X74597Y38949D02*
Y40684D01*
X37697Y43799D02*
X38514D01*
X41565Y40748D01*
X59941Y41929D02*
X60925Y42913D01*
X44193Y49409D02*
X50335D01*
X51358Y48386D01*
X49902Y38976D02*
X51476Y37402D01*
X49902Y49843D02*
Y53642D01*
Y49843D02*
X50335Y49409D01*
X49902Y53642D02*
X55512D01*
X39547Y63878D02*
X40453Y62972D01*
Y58858D02*
Y62972D01*
X97638Y38780D02*
X98032Y38386D01*
X42717Y67913D02*
X44193Y66437D01*
Y58858D02*
Y66437D01*
X38386Y66732D02*
X38780D01*
X37992Y67126D02*
X38386Y66732D01*
X84001Y13681D02*
X90052D01*
X46063Y22146D02*
X48917Y19291D01*
X60215D01*
X62461Y21537D01*
X56595Y14665D02*
X56988Y14272D01*
X46063Y14665D02*
X56595D01*
X57284Y8661D02*
Y13976D01*
X56988Y14272D02*
X57284Y13976D01*
X62461Y8996D02*
X62795Y8661D01*
X62461Y8996D02*
Y21537D01*
Y23839D01*
X66732Y50197D02*
Y54823D01*
Y50197D02*
X68701Y48228D01*
X88976Y57579D02*
Y65256D01*
X87795Y42618D02*
X91535Y46358D01*
X98032Y33268D02*
Y35827D01*
X97638Y36220D02*
X98032Y35827D01*
X94193Y36220D02*
X97638D01*
X41565Y40748D02*
X44852D01*
X46033Y41929D01*
X59941D01*
X40831Y38976D02*
X49902D01*
X36713Y44783D02*
X37697Y43799D01*
X36713Y44783D02*
Y49409D01*
X30807Y40748D02*
X39060D01*
X40831Y38976D01*
X39173Y53051D02*
X42815Y49409D01*
X44193D01*
X88386Y36122D02*
X94094D01*
X94193Y36220D01*
X14862Y50728D02*
X18563D01*
X82769Y27375D02*
X83346Y27953D01*
X87210D01*
X90052Y25111D01*
Y18615D02*
Y25111D01*
X86420Y24706D02*
X87110Y24016D01*
X84001Y21161D02*
X84256D01*
X79041Y31102D02*
X82769Y27375D01*
X65551Y45079D02*
X68701Y48228D01*
X65551Y31201D02*
Y45079D01*
X65453Y31102D02*
X65551Y31201D01*
X58169Y31102D02*
X65453D01*
X79041D01*
X87795Y41829D02*
Y42618D01*
X93404Y36220D02*
X94193D01*
X87795Y41829D02*
X93404Y36220D01*
X92815Y40097D02*
Y40846D01*
Y40097D02*
X94132Y38780D01*
X97638D01*
X18563Y50728D02*
X22146Y47146D01*
X98032Y40945D02*
Y44291D01*
X99410Y45669D01*
X106595Y33465D02*
X106791Y33268D01*
X27147Y24724D02*
X27283D01*
X25295Y22873D02*
X27147Y24724D01*
X27283D02*
X30807Y28248D01*
D33*
X25787Y33858D02*
Y63054D01*
X30745Y68012D02*
X30807D01*
X12205Y30728D02*
X22658D01*
X25787Y33858D01*
Y63054D02*
X30745Y68012D01*
D34*
X34646Y10827D02*
X36417Y9055D01*
X38681D01*
D35*
X91535Y51181D02*
D03*
X71054Y52101D02*
D03*
X22146Y45965D02*
D03*
X71362Y20768D02*
D03*
X15059Y10433D02*
D03*
X38780Y66732D02*
D03*
X88386Y36122D02*
D03*
X34646Y10827D02*
D03*
X86420Y24706D02*
D03*
X92815Y40846D02*
D03*
X106595Y33465D02*
D03*
D36*
X83268Y65059D02*
D03*
X83661Y56791D02*
D03*
X73425Y58760D02*
D03*
X73228Y65354D02*
D03*
D37*
X61910Y50591D02*
D03*
X34154Y43504D02*
D03*
X83169Y33366D02*
D03*
X29134Y32480D02*
D03*
X41437Y54527D02*
D03*
X53347Y59350D02*
D03*
X64075Y59842D02*
D03*
X64272Y67520D02*
D03*
X50984D02*
D03*
X53839Y56201D02*
D03*
X45866Y54429D02*
D03*
X62795Y38091D02*
D03*
X35728Y37992D02*
D03*
X68504Y33563D02*
D03*
X68012Y28445D02*
D03*
X28543Y3051D02*
D03*
X48031Y3347D02*
D03*
X59744Y3445D02*
D03*
X79626Y3051D02*
D03*
X92618Y2953D02*
D03*
X92716Y33465D02*
D03*
X79527Y17323D02*
D03*
X56791Y22146D02*
D03*
X65059Y17421D02*
D03*
X44193Y32677D02*
D03*
X28445Y19094D02*
D03*
X15551Y45965D02*
D03*
X15157Y35630D02*
D03*
X15354Y25984D02*
D03*
M02*
