G04 Layer_Color=8388736*
%FSLAX25Y25*%
%MOIN*%
G70*
G01*
G75*
%ADD42R,0.14665X0.16339*%
G04:AMPARAMS|DCode=43|XSize=59.06mil|YSize=59.06mil|CornerRadius=16.73mil|HoleSize=0mil|Usage=FLASHONLY|Rotation=0.000|XOffset=0mil|YOffset=0mil|HoleType=Round|Shape=RoundedRectangle|*
%AMROUNDEDRECTD43*
21,1,0.05906,0.02559,0,0,0.0*
21,1,0.02559,0.05906,0,0,0.0*
1,1,0.03346,0.01280,-0.01280*
1,1,0.03346,-0.01280,-0.01280*
1,1,0.03346,-0.01280,0.01280*
1,1,0.03346,0.01280,0.01280*
%
%ADD43ROUNDEDRECTD43*%
G04:AMPARAMS|DCode=44|XSize=70.87mil|YSize=43.31mil|CornerRadius=12.8mil|HoleSize=0mil|Usage=FLASHONLY|Rotation=90.000|XOffset=0mil|YOffset=0mil|HoleType=Round|Shape=RoundedRectangle|*
%AMROUNDEDRECTD44*
21,1,0.07087,0.01772,0,0,90.0*
21,1,0.04528,0.04331,0,0,90.0*
1,1,0.02559,0.00886,0.02264*
1,1,0.02559,0.00886,-0.02264*
1,1,0.02559,-0.00886,-0.02264*
1,1,0.02559,-0.00886,0.02264*
%
%ADD44ROUNDEDRECTD44*%
%ADD45R,0.03150X0.05118*%
%ADD46R,0.03937X0.06299*%
%ADD47R,0.03937X0.04331*%
%ADD48R,0.04331X0.03937*%
G04:AMPARAMS|DCode=49|XSize=43.31mil|YSize=39.37mil|CornerRadius=11.81mil|HoleSize=0mil|Usage=FLASHONLY|Rotation=270.000|XOffset=0mil|YOffset=0mil|HoleType=Round|Shape=RoundedRectangle|*
%AMROUNDEDRECTD49*
21,1,0.04331,0.01575,0,0,270.0*
21,1,0.01969,0.03937,0,0,270.0*
1,1,0.02362,-0.00787,-0.00984*
1,1,0.02362,-0.00787,0.00984*
1,1,0.02362,0.00787,0.00984*
1,1,0.02362,0.00787,-0.00984*
%
%ADD49ROUNDEDRECTD49*%
%ADD50R,0.05118X0.07480*%
G04:AMPARAMS|DCode=51|XSize=43.31mil|YSize=39.37mil|CornerRadius=11.81mil|HoleSize=0mil|Usage=FLASHONLY|Rotation=180.000|XOffset=0mil|YOffset=0mil|HoleType=Round|Shape=RoundedRectangle|*
%AMROUNDEDRECTD51*
21,1,0.04331,0.01575,0,0,180.0*
21,1,0.01969,0.03937,0,0,180.0*
1,1,0.02362,-0.00984,0.00787*
1,1,0.02362,0.00984,0.00787*
1,1,0.02362,0.00984,-0.00787*
1,1,0.02362,-0.00984,-0.00787*
%
%ADD51ROUNDEDRECTD51*%
%ADD52R,0.03150X0.04921*%
%ADD53R,0.05512X0.03150*%
%ADD54R,0.01772X0.02205*%
%ADD55R,0.05118X0.03150*%
G04:AMPARAMS|DCode=56|XSize=70.87mil|YSize=43.31mil|CornerRadius=12.8mil|HoleSize=0mil|Usage=FLASHONLY|Rotation=0.000|XOffset=0mil|YOffset=0mil|HoleType=Round|Shape=RoundedRectangle|*
%AMROUNDEDRECTD56*
21,1,0.07087,0.01772,0,0,0.0*
21,1,0.04528,0.04331,0,0,0.0*
1,1,0.02559,0.02264,-0.00886*
1,1,0.02559,-0.02264,-0.00886*
1,1,0.02559,-0.02264,0.00886*
1,1,0.02559,0.02264,0.00886*
%
%ADD56ROUNDEDRECTD56*%
G04:AMPARAMS|DCode=57|XSize=59.06mil|YSize=59.06mil|CornerRadius=16.73mil|HoleSize=0mil|Usage=FLASHONLY|Rotation=270.000|XOffset=0mil|YOffset=0mil|HoleType=Round|Shape=RoundedRectangle|*
%AMROUNDEDRECTD57*
21,1,0.05906,0.02559,0,0,270.0*
21,1,0.02559,0.05906,0,0,270.0*
1,1,0.03346,-0.01280,-0.01280*
1,1,0.03346,-0.01280,0.01280*
1,1,0.03346,0.01280,0.01280*
1,1,0.03346,0.01280,-0.01280*
%
%ADD57ROUNDEDRECTD57*%
%ADD58R,0.02205X0.01772*%
%ADD59R,0.08268X0.10138*%
%ADD60R,0.08268X0.05413*%
%ADD61R,0.08661X0.06594*%
%ADD62R,0.09055X0.06594*%
%ADD63R,0.06221X0.02559*%
G04:AMPARAMS|DCode=64|XSize=244.1mil|YSize=55.12mil|CornerRadius=15.75mil|HoleSize=0mil|Usage=FLASHONLY|Rotation=0.000|XOffset=0mil|YOffset=0mil|HoleType=Round|Shape=RoundedRectangle|*
%AMROUNDEDRECTD64*
21,1,0.24410,0.02362,0,0,0.0*
21,1,0.21260,0.05512,0,0,0.0*
1,1,0.03150,0.10630,-0.01181*
1,1,0.03150,-0.10630,-0.01181*
1,1,0.03150,-0.10630,0.01181*
1,1,0.03150,0.10630,0.01181*
%
%ADD64ROUNDEDRECTD64*%
D42*
X104183Y9646D02*
D03*
Y62106D02*
D03*
D43*
X14862Y14764D02*
D03*
X56988Y14272D02*
D03*
D44*
X9390Y5197D02*
D03*
X20374Y5315D02*
D03*
X51476Y23720D02*
D03*
X62461Y23839D02*
D03*
D45*
X44193Y49409D02*
D03*
X36713D02*
D03*
Y58858D02*
D03*
X40453D02*
D03*
X44193D02*
D03*
D46*
X49508Y31102D02*
D03*
X58169D02*
D03*
X58071Y54823D02*
D03*
X66732D02*
D03*
D47*
X82080Y7690D02*
D03*
X87591D02*
D03*
X76961Y7690D02*
D03*
X71450D02*
D03*
X38681Y9055D02*
D03*
X44193D02*
D03*
X42717Y67913D02*
D03*
X37205D02*
D03*
D48*
X90052Y13103D02*
D03*
Y18615D02*
D03*
X68891Y16745D02*
D03*
Y22257D02*
D03*
X30807Y22736D02*
D03*
Y28248D02*
D03*
X30807Y40748D02*
D03*
Y46260D02*
D03*
Y62500D02*
D03*
Y68012D02*
D03*
Y51476D02*
D03*
Y56988D02*
D03*
D49*
X82769Y27375D02*
D03*
X77257D02*
D03*
X62795Y8661D02*
D03*
X57284D02*
D03*
X44193Y4134D02*
D03*
X38681D02*
D03*
X43996Y27559D02*
D03*
X38484D02*
D03*
X43209Y43799D02*
D03*
X37697D02*
D03*
D50*
X88976Y65256D02*
D03*
X78347D02*
D03*
X88976Y57480D02*
D03*
X78347D02*
D03*
D51*
X87795Y42618D02*
D03*
Y48130D02*
D03*
X68701Y42717D02*
D03*
Y48228D02*
D03*
X49902Y53642D02*
D03*
Y59154D02*
D03*
D52*
X74597Y50132D02*
D03*
X82077D02*
D03*
Y40684D02*
D03*
X78337D02*
D03*
X74597D02*
D03*
D53*
X84001Y21161D02*
D03*
Y17421D02*
D03*
Y13681D02*
D03*
X74946D02*
D03*
Y17421D02*
D03*
Y21161D02*
D03*
D54*
X31496Y18287D02*
D03*
Y14980D02*
D03*
D55*
X46063Y22146D02*
D03*
Y14665D02*
D03*
X36614D02*
D03*
Y18406D02*
D03*
Y22146D02*
D03*
D56*
X51476Y37402D02*
D03*
X51358Y48386D02*
D03*
D57*
X60925Y42913D02*
D03*
D58*
X39547Y63878D02*
D03*
X36240D02*
D03*
D59*
X108465Y47441D02*
D03*
Y24213D02*
D03*
D60*
Y32480D02*
D03*
Y39173D02*
D03*
D61*
X99213Y25984D02*
D03*
D62*
X99410Y45669D02*
D03*
D63*
X98032Y30709D02*
D03*
Y40945D02*
D03*
Y38386D02*
D03*
Y33268D02*
D03*
Y35827D02*
D03*
D64*
X12205Y20728D02*
D03*
Y30728D02*
D03*
Y40728D02*
D03*
Y50728D02*
D03*
M02*
