G04 Layer_Color=65535*
%FSLAX25Y25*%
%MOIN*%
G70*
G01*
G75*
%ADD32C,0.00984*%
%ADD38C,0.00394*%
%ADD39C,0.00787*%
%ADD40C,0.00606*%
%ADD41C,0.01000*%
D32*
X48031Y58858D02*
G03*
X48031Y58858I-492J0D01*
G01*
X71743Y40684D02*
G03*
X71743Y40684I-492J0D01*
G01*
X75439Y24508D02*
G03*
X75439Y24508I-492J0D01*
G01*
X37106Y25492D02*
G03*
X37106Y25492I-492J0D01*
G01*
D38*
X29626Y14980D02*
G03*
X29626Y14980I-197J0D01*
G01*
X36437Y65945D02*
G03*
X36437Y65945I-197J0D01*
G01*
D39*
X34547Y53150D02*
X46358D01*
X34547Y55118D02*
X46358D01*
X34547Y53150D02*
Y55118D01*
X46358Y53150D02*
Y55118D01*
X46464Y34727D02*
X46526Y34790D01*
X46651Y34915D02*
X46714Y34977D01*
X46339Y34602D02*
X46464Y34727D01*
X46714Y34977D02*
X46839Y35102D01*
X60839Y27102D02*
Y35102D01*
X46839D02*
X60839D01*
X46526Y34790D02*
X46651Y34915D01*
X46339Y27102D02*
Y34602D01*
Y27102D02*
X60839D01*
X82087Y62303D02*
X85236D01*
X82087Y68209D02*
X85236D01*
X72235Y46589D02*
X84439D01*
X72235Y44227D02*
X84439D01*
Y46589D01*
X72235Y44227D02*
Y46589D01*
X42323Y12500D02*
Y24311D01*
X40354Y12500D02*
Y24311D01*
Y12500D02*
X42323D01*
X40354Y24311D02*
X42323D01*
X55027Y58448D02*
X55089Y58510D01*
X55214Y58635D02*
X55277Y58698D01*
X54902Y58323D02*
X55027Y58448D01*
X55277Y58698D02*
X55402Y58823D01*
X69402Y50823D02*
Y58823D01*
X55402D02*
X69402D01*
X55089Y58510D02*
X55214Y58635D01*
X54902Y50823D02*
Y58323D01*
Y50823D02*
X69402D01*
X82087Y54527D02*
X85236D01*
X82087Y60433D02*
X85236D01*
D40*
X71687Y65977D02*
X71162Y65452D01*
Y64403D01*
X71687Y63878D01*
X73786D01*
X74311Y64403D01*
Y65452D01*
X73786Y65977D01*
X74311Y67027D02*
Y68076D01*
Y67551D01*
X71162D01*
X71687Y67027D01*
X72179Y56036D02*
X71655Y55511D01*
Y54462D01*
X72179Y53937D01*
X74278D01*
X74803Y54462D01*
Y55511D01*
X74278Y56036D01*
X74803Y59185D02*
Y57086D01*
X72704Y59185D01*
X72179D01*
X71655Y58660D01*
Y57610D01*
X72179Y57086D01*
X30052Y4986D02*
X29527Y5511D01*
X28477D01*
X27953Y4986D01*
Y2887D01*
X28477Y2362D01*
X29527D01*
X30052Y2887D01*
X31101Y4986D02*
X31626Y5511D01*
X32676D01*
X33200Y4986D01*
Y4461D01*
X32676Y3937D01*
X32151D01*
X32676D01*
X33200Y3412D01*
Y2887D01*
X32676Y2362D01*
X31626D01*
X31101Y2887D01*
X34250Y4986D02*
X34775Y5511D01*
X35824D01*
X36349Y4986D01*
Y2887D01*
X35824Y2362D01*
X34775D01*
X34250Y2887D01*
Y4986D01*
X39698Y33825D02*
X39173Y34349D01*
X38123D01*
X37598Y33825D01*
Y31726D01*
X38123Y31201D01*
X39173D01*
X39698Y31726D01*
X40747Y33825D02*
X41272Y34349D01*
X42321D01*
X42846Y33825D01*
Y33300D01*
X42321Y32775D01*
X41796D01*
X42321D01*
X42846Y32250D01*
Y31726D01*
X42321Y31201D01*
X41272D01*
X40747Y31726D01*
X43896Y31201D02*
X44945D01*
X44420D01*
Y34349D01*
X43896Y33825D01*
X39009Y39730D02*
X38484Y40255D01*
X37434D01*
X36909Y39730D01*
Y37631D01*
X37434Y37106D01*
X38484D01*
X39009Y37631D01*
X40058Y39730D02*
X40583Y40255D01*
X41632D01*
X42157Y39730D01*
Y39205D01*
X41632Y38681D01*
X41108D01*
X41632D01*
X42157Y38156D01*
Y37631D01*
X41632Y37106D01*
X40583D01*
X40058Y37631D01*
X44781Y37106D02*
Y40255D01*
X43207Y38681D01*
X45306D01*
X48851Y64140D02*
X48326Y64664D01*
X47277D01*
X46752Y64140D01*
Y62041D01*
X47277Y61516D01*
X48326D01*
X48851Y62041D01*
X49900Y64140D02*
X50425Y64664D01*
X51475D01*
X52000Y64140D01*
Y63615D01*
X51475Y63090D01*
X50950D01*
X51475D01*
X52000Y62565D01*
Y62041D01*
X51475Y61516D01*
X50425D01*
X49900Y62041D01*
X55148Y64664D02*
X53049D01*
Y63090D01*
X54099Y63615D01*
X54623D01*
X55148Y63090D01*
Y62041D01*
X54623Y61516D01*
X53574D01*
X53049Y62041D01*
X87434Y29691D02*
X86909Y30215D01*
X85859D01*
X85335Y29691D01*
Y27592D01*
X85859Y27067D01*
X86909D01*
X87434Y27592D01*
X90057Y27067D02*
Y30215D01*
X88483Y28641D01*
X90582D01*
X91632Y27067D02*
X92681D01*
X92157D01*
Y30215D01*
X91632Y29691D01*
X91274Y42650D02*
X90749Y42125D01*
Y41076D01*
X91274Y40551D01*
X93373D01*
X93898Y41076D01*
Y42125D01*
X93373Y42650D01*
X93898Y45274D02*
X90749D01*
X92323Y43700D01*
Y45799D01*
X93898Y48947D02*
Y46848D01*
X91799Y48947D01*
X91274D01*
X90749Y48423D01*
Y47373D01*
X91274Y46848D01*
X30021Y8465D02*
X33169D01*
Y10039D01*
X32645Y10564D01*
X30545D01*
X30021Y10039D01*
Y8465D01*
X33169Y11613D02*
Y12663D01*
Y12138D01*
X30021D01*
X30545Y11613D01*
X100131Y21259D02*
X99081D01*
X99606D01*
Y18635D01*
X99081Y18110D01*
X98556D01*
X98032Y18635D01*
X101180Y18110D02*
X102230D01*
X101705D01*
Y21259D01*
X101180Y20734D01*
X56201Y39566D02*
Y36417D01*
X58300D01*
X59349Y39566D02*
X61448Y36417D01*
Y39566D02*
X59349Y36417D01*
X62498D02*
X63547D01*
X63023D01*
Y39566D01*
X62498Y39041D01*
X58071Y63582D02*
Y60433D01*
X60170D01*
X61219Y63582D02*
X63319Y60433D01*
Y63582D02*
X61219Y60433D01*
X66467D02*
X64368D01*
X66467Y62532D01*
Y63057D01*
X65942Y63582D01*
X64893D01*
X64368Y63057D01*
X28642Y30906D02*
Y34054D01*
X30216D01*
X30741Y33529D01*
Y32480D01*
X30216Y31955D01*
X28642D01*
X29691D02*
X30741Y30906D01*
X31790D02*
X32840D01*
X32315D01*
Y34054D01*
X31790Y33529D01*
X53543Y13287D02*
X50395D01*
Y14862D01*
X50920Y15386D01*
X51969D01*
X52494Y14862D01*
Y13287D01*
Y14337D02*
X53543Y15386D01*
X50920Y16436D02*
X50395Y16961D01*
Y18010D01*
X50920Y18535D01*
X51444D01*
X51969Y18010D01*
Y17485D01*
Y18010D01*
X52494Y18535D01*
X53018D01*
X53543Y18010D01*
Y16961D01*
X53018Y16436D01*
X69784Y9055D02*
X66635D01*
Y10629D01*
X67160Y11154D01*
X68209D01*
X68734Y10629D01*
Y9055D01*
Y10105D02*
X69784Y11154D01*
X66635Y14303D02*
Y12204D01*
X68209D01*
X67684Y13253D01*
Y13778D01*
X68209Y14303D01*
X69259D01*
X69784Y13778D01*
Y12729D01*
X69259Y12204D01*
X94390Y4918D02*
X91241D01*
Y6493D01*
X91766Y7017D01*
X92816D01*
X93340Y6493D01*
Y4918D01*
Y5968D02*
X94390Y7017D01*
X91241Y10166D02*
X91766Y9116D01*
X92816Y8067D01*
X93865D01*
X94390Y8592D01*
Y9641D01*
X93865Y10166D01*
X93340D01*
X92816Y9641D01*
Y8067D01*
X46752Y7283D02*
Y10432D01*
X48326D01*
X48851Y9907D01*
Y8858D01*
X48326Y8333D01*
X46752D01*
X47802D02*
X48851Y7283D01*
X49900Y10432D02*
X52000D01*
Y9907D01*
X49900Y7808D01*
Y7283D01*
X71358Y1772D02*
Y4920D01*
X72933D01*
X73457Y4395D01*
Y3346D01*
X72933Y2821D01*
X71358D01*
X72408D02*
X73457Y1772D01*
X74507Y4395D02*
X75032Y4920D01*
X76081D01*
X76606Y4395D01*
Y3871D01*
X76081Y3346D01*
X76606Y2821D01*
Y2296D01*
X76081Y1772D01*
X75032D01*
X74507Y2296D01*
Y2821D01*
X75032Y3346D01*
X74507Y3871D01*
Y4395D01*
X75032Y3346D02*
X76081D01*
X82677Y1476D02*
Y4625D01*
X84251D01*
X84776Y4100D01*
Y3051D01*
X84251Y2526D01*
X82677D01*
X83727D02*
X84776Y1476D01*
X85826Y2001D02*
X86351Y1476D01*
X87400D01*
X87925Y2001D01*
Y4100D01*
X87400Y4625D01*
X86351D01*
X85826Y4100D01*
Y3575D01*
X86351Y3051D01*
X87925D01*
X18504Y56693D02*
Y59842D01*
X20078D01*
X20603Y59317D01*
Y58267D01*
X20078Y57742D01*
X18504D01*
X19554D02*
X20603Y56693D01*
X21653D02*
X22702D01*
X22177D01*
Y59842D01*
X21653Y59317D01*
X24276D02*
X24801Y59842D01*
X25851D01*
X26375Y59317D01*
Y57218D01*
X25851Y56693D01*
X24801D01*
X24276Y57218D01*
Y59317D01*
X28642Y35236D02*
Y38385D01*
X30216D01*
X30741Y37860D01*
Y36810D01*
X30216Y36286D01*
X28642D01*
X29691D02*
X30741Y35236D01*
X31790D02*
X32840D01*
X32315D01*
Y38385D01*
X31790Y37860D01*
X34414Y35236D02*
X35464D01*
X34939D01*
Y38385D01*
X34414Y37860D01*
X45768Y66535D02*
Y69684D01*
X47342D01*
X47867Y69159D01*
Y68110D01*
X47342Y67585D01*
X45768D01*
X46817D02*
X47867Y66535D01*
X48916D02*
X49966D01*
X49441D01*
Y69684D01*
X48916Y69159D01*
X53639Y66535D02*
X51540D01*
X53639Y68634D01*
Y69159D01*
X53114Y69684D01*
X52065D01*
X51540Y69159D01*
X57480Y46260D02*
Y49408D01*
X59055D01*
X59579Y48884D01*
Y47834D01*
X59055Y47309D01*
X57480D01*
X58530D02*
X59579Y46260D01*
X60629D02*
X61678D01*
X61154D01*
Y49408D01*
X60629Y48884D01*
X63253D02*
X63778Y49408D01*
X64827D01*
X65352Y48884D01*
Y48359D01*
X64827Y47834D01*
X64302D01*
X64827D01*
X65352Y47309D01*
Y46785D01*
X64827Y46260D01*
X63778D01*
X63253Y46785D01*
X19291Y63976D02*
Y67125D01*
X20866D01*
X21390Y66600D01*
Y65551D01*
X20866Y65026D01*
X19291D01*
X20341D02*
X21390Y63976D01*
X22440D02*
X23489D01*
X22965D01*
Y67125D01*
X22440Y66600D01*
X27163Y67125D02*
X26113Y66600D01*
X25064Y65551D01*
Y64501D01*
X25589Y63976D01*
X26638D01*
X27163Y64501D01*
Y65026D01*
X26638Y65551D01*
X25064D01*
X87697Y24999D02*
Y22375D01*
X88222Y21850D01*
X89271D01*
X89796Y22375D01*
Y24999D01*
X90845Y24474D02*
X91370Y24999D01*
X92420D01*
X92945Y24474D01*
Y23949D01*
X92420Y23425D01*
X91895D01*
X92420D01*
X92945Y22900D01*
Y22375D01*
X92420Y21850D01*
X91370D01*
X90845Y22375D01*
X75394Y37105D02*
Y34481D01*
X75919Y33957D01*
X76968D01*
X77493Y34481D01*
Y37105D01*
X80117Y33957D02*
Y37105D01*
X78542Y35531D01*
X80641D01*
D41*
X10692Y10728D02*
X6693D01*
X10692Y14727D01*
Y15727D01*
X9692Y16726D01*
X7693D01*
X6693Y15727D01*
X6299Y59821D02*
X7299Y60821D01*
X9298D01*
X10298Y59821D01*
Y58822D01*
X9298Y57822D01*
X10298Y56822D01*
Y55822D01*
X9298Y54823D01*
X7299D01*
X6299Y55822D01*
Y56822D01*
X7299Y57822D01*
X6299Y58822D01*
Y59821D01*
X7299Y57822D02*
X9298D01*
M02*
