G04 Layer_Physical_Order=2*
G04 Layer_Color=16711680*
%FSLAX25Y25*%
%MOIN*%
G70*
G01*
G75*
%ADD17R,0.04331X0.06693*%
G04:AMPARAMS|DCode=31|XSize=236.22mil|YSize=47.24mil|CornerRadius=11.81mil|HoleSize=0mil|Usage=FLASHONLY|Rotation=0.000|XOffset=0mil|YOffset=0mil|HoleType=Round|Shape=RoundedRectangle|*
%AMROUNDEDRECTD31*
21,1,0.23622,0.02362,0,0,0.0*
21,1,0.21260,0.04724,0,0,0.0*
1,1,0.02362,0.10630,-0.01181*
1,1,0.02362,-0.10630,-0.01181*
1,1,0.02362,-0.10630,0.01181*
1,1,0.02362,0.10630,0.01181*
%
%ADD31ROUNDEDRECTD31*%
%ADD32C,0.00984*%
%ADD34C,0.01181*%
%ADD35C,0.03150*%
%ADD36C,0.01969*%
%ADD37C,0.02362*%
G36*
X76211Y49503D02*
X76020Y49041D01*
X66535D01*
Y58525D01*
X66997Y58717D01*
X76211Y49503D01*
D02*
G37*
G36*
X25787Y52402D02*
X25760Y52343D01*
X25287Y52007D01*
X25157Y52033D01*
X24817D01*
X24689Y52678D01*
X24254Y53329D01*
X23603Y53764D01*
X22835Y53917D01*
X4626D01*
Y69849D01*
X25787D01*
Y52402D01*
D02*
G37*
G36*
X111493Y1411D02*
X95669D01*
Y36614D01*
X90696D01*
X90611Y37044D01*
X90089Y37825D01*
X89307Y38347D01*
X88386Y38530D01*
X87916Y38437D01*
X87273Y39080D01*
X87464Y39542D01*
X90846D01*
X91112Y39143D01*
X91893Y38621D01*
X92815Y38438D01*
X93737Y38621D01*
X94518Y39143D01*
X95040Y39925D01*
X95223Y40846D01*
X95040Y41768D01*
X94518Y42549D01*
X93737Y43072D01*
X92815Y43255D01*
X91893Y43072D01*
X91112Y42549D01*
X90846Y42151D01*
X87253D01*
X77716Y51688D01*
X77908Y52150D01*
X77945D01*
Y55996D01*
X75279D01*
Y54778D01*
X74818Y54586D01*
X66535Y62869D01*
Y69849D01*
X111493D01*
Y1411D01*
D02*
G37*
G36*
X82142Y37076D02*
X81950Y36614D01*
X66535D01*
Y44660D01*
X74558D01*
X82142Y37076D01*
D02*
G37*
G36*
X65551Y40059D02*
Y36319D01*
X27421D01*
X27068Y36673D01*
X27090Y44660D01*
X65551D01*
Y40059D01*
D02*
G37*
G36*
X20063Y47099D02*
X19920Y46886D01*
X19737Y45965D01*
X19920Y45043D01*
X20194Y44633D01*
X19927Y44133D01*
X12705D01*
Y41228D01*
X25058D01*
Y41909D01*
X24889Y42761D01*
X24407Y43482D01*
X24005Y43750D01*
X23944Y44239D01*
X24314Y44660D01*
X25787D01*
Y17010D01*
X25326Y16819D01*
X24233Y17912D01*
X24254Y18128D01*
X24689Y18779D01*
X24842Y19547D01*
Y21910D01*
X24689Y22678D01*
X24254Y23329D01*
X23603Y23764D01*
X22835Y23916D01*
X4626D01*
Y27540D01*
X22835D01*
X23603Y27693D01*
X24254Y28128D01*
X24689Y28779D01*
X24842Y29547D01*
Y31909D01*
X24689Y32678D01*
X24254Y33329D01*
X23603Y33764D01*
X22835Y33917D01*
X4626D01*
Y37323D01*
X11705D01*
Y40728D01*
Y44133D01*
X4626D01*
Y47540D01*
X19827D01*
X20063Y47099D01*
D02*
G37*
G36*
X25787Y12383D02*
Y11738D01*
X17028D01*
X16762Y12136D01*
X15981Y12658D01*
X15059Y12842D01*
X14137Y12658D01*
X13356Y12136D01*
X12834Y11355D01*
X12651Y10433D01*
X12834Y9511D01*
X13356Y8730D01*
X14137Y8208D01*
X15059Y8025D01*
X15981Y8208D01*
X16762Y8730D01*
X17028Y9128D01*
X25787D01*
Y1411D01*
X4626D01*
Y17540D01*
X20630D01*
X25787Y12383D01*
D02*
G37*
G36*
X94390Y1411D02*
X27165D01*
Y7849D01*
X27627Y8040D01*
X28618Y7050D01*
X29041Y6767D01*
X29540Y6668D01*
X62500D01*
X62999Y6767D01*
X63423Y7050D01*
X72284Y15912D01*
X72567Y16335D01*
X72666Y16834D01*
Y18798D01*
X73065Y19065D01*
X73587Y19846D01*
X73770Y20768D01*
X73587Y21689D01*
X73065Y22471D01*
X72283Y22993D01*
X71362Y23176D01*
X70440Y22993D01*
X69659Y22471D01*
X69137Y21689D01*
X68953Y20768D01*
X69137Y19846D01*
X69659Y19065D01*
X70057Y18798D01*
Y17375D01*
X61960Y9277D01*
X36981D01*
X36746Y9718D01*
X36871Y9905D01*
X37054Y10827D01*
X36871Y11749D01*
X36349Y12530D01*
X35567Y13052D01*
X34646Y13235D01*
X33724Y13052D01*
X32943Y12530D01*
X32743Y12232D01*
X29913D01*
X27165Y14979D01*
Y34941D01*
X84227D01*
Y34940D01*
X84326Y34440D01*
X84609Y34017D01*
X85116Y33511D01*
Y26675D01*
X84717Y26409D01*
X84195Y25628D01*
X84012Y24706D01*
X84195Y23784D01*
X84717Y23003D01*
X85498Y22481D01*
X86420Y22297D01*
X87342Y22481D01*
X88123Y23003D01*
X88645Y23784D01*
X88829Y24706D01*
X88645Y25628D01*
X88123Y26409D01*
X87725Y26675D01*
Y33451D01*
X88111Y33768D01*
X88386Y33714D01*
X89307Y33897D01*
X90089Y34419D01*
X90438Y34941D01*
X94390D01*
Y1411D01*
D02*
G37*
G36*
X65551Y64506D02*
X65089Y64315D01*
X63423Y65982D01*
X62999Y66264D01*
X62500Y66364D01*
X41491D01*
X41188Y66732D01*
X41005Y67654D01*
X40483Y68435D01*
X39701Y68958D01*
X38780Y69141D01*
X37858Y68958D01*
X37077Y68435D01*
X36554Y67654D01*
X36371Y66732D01*
X36554Y65811D01*
X37077Y65029D01*
X37858Y64507D01*
X38780Y64324D01*
X39250Y64417D01*
X39530Y64137D01*
X39954Y63854D01*
X40453Y63754D01*
X61960D01*
X65551Y60163D01*
Y49041D01*
X28690D01*
X27107Y50624D01*
X27160Y69849D01*
X65551D01*
Y64506D01*
D02*
G37*
%LPC*%
G36*
X78043Y69218D02*
X75378D01*
Y65371D01*
X78043D01*
Y69218D01*
D02*
G37*
G36*
X81709D02*
X79043D01*
Y65371D01*
X81709D01*
Y69218D01*
D02*
G37*
G36*
Y64371D02*
X78543D01*
X75378D01*
Y60843D01*
X75279D01*
Y56996D01*
X78445D01*
X81610D01*
Y60525D01*
X81709D01*
Y64371D01*
D02*
G37*
G36*
X92126Y69005D02*
X86221D01*
Y60738D01*
X86122Y60630D01*
X86122D01*
Y52362D01*
X88928D01*
X89262Y51862D01*
X89127Y51181D01*
X89310Y50259D01*
X89832Y49478D01*
X90614Y48956D01*
X91535Y48773D01*
X92457Y48956D01*
X93239Y49478D01*
X93761Y50259D01*
X93944Y51181D01*
X93761Y52103D01*
X93239Y52884D01*
X92840Y53150D01*
Y54035D01*
X92741Y54535D01*
X92458Y54958D01*
X92027Y55388D01*
Y60630D01*
X92126Y60738D01*
X92126D01*
Y69005D01*
D02*
G37*
G36*
X81610Y55996D02*
X78945D01*
Y52150D01*
X81610D01*
Y55996D01*
D02*
G37*
G36*
X25058Y40228D02*
X12705D01*
Y37323D01*
X22835D01*
X23686Y37493D01*
X24407Y37975D01*
X24889Y38696D01*
X25058Y39547D01*
Y40228D01*
D02*
G37*
%LPD*%
D17*
X78543Y64871D02*
D03*
X89173D02*
D03*
X78445Y56496D02*
D03*
X89075D02*
D03*
D31*
X12205Y20728D02*
D03*
Y30728D02*
D03*
Y40728D02*
D03*
Y50728D02*
D03*
D32*
X89075Y56496D02*
X89173Y56595D01*
Y64871D01*
X89075Y56496D02*
X91535Y54035D01*
Y51181D02*
Y54035D01*
X86713Y40846D02*
X92815D01*
X62500Y65059D02*
X86713Y40846D01*
X40453Y65059D02*
X62500D01*
X61910Y50591D02*
X62333D01*
X63844Y52101D01*
X71054D01*
X28150Y47736D02*
X76772D01*
X25157Y50728D02*
X28150Y47736D01*
X12205Y50728D02*
X25157D01*
X76772Y47736D02*
X88386Y36122D01*
X85532Y34940D02*
X86420Y34051D01*
X85532Y34940D02*
Y35531D01*
X86420Y24706D02*
Y34051D01*
X75098Y45965D02*
X85532Y35531D01*
X22146Y45965D02*
X75098D01*
X71362Y16834D02*
Y20768D01*
X62500Y7972D02*
X71362Y16834D01*
X29540Y7972D02*
X62500D01*
X27080Y10433D02*
X29540Y7972D01*
X15059Y10433D02*
X27080D01*
X25984Y35630D02*
X29134Y32480D01*
X38780Y66732D02*
X40453Y65059D01*
X15157Y35630D02*
X25984D01*
X92716Y33465D02*
X106595D01*
D34*
X14862Y20728D02*
X19429D01*
X29331Y10827D02*
X34646D01*
X19429Y20728D02*
X29331Y10827D01*
D35*
X91535Y51181D02*
D03*
X71054Y52101D02*
D03*
X22146Y45965D02*
D03*
X71362Y20768D02*
D03*
X15059Y10433D02*
D03*
X38780Y66732D02*
D03*
X88386Y36122D02*
D03*
X34646Y10827D02*
D03*
X86420Y24706D02*
D03*
X92815Y40846D02*
D03*
X106595Y33465D02*
D03*
D36*
X83268Y65059D02*
D03*
X83661Y56791D02*
D03*
X73425Y58760D02*
D03*
X73228Y65354D02*
D03*
D37*
X61910Y50591D02*
D03*
X34154Y43504D02*
D03*
X83169Y33366D02*
D03*
X29134Y32480D02*
D03*
X41437Y54527D02*
D03*
X53347Y59350D02*
D03*
X64075Y59842D02*
D03*
X64272Y67520D02*
D03*
X50984D02*
D03*
X53839Y56201D02*
D03*
X45866Y54429D02*
D03*
X62795Y38091D02*
D03*
X35728Y37992D02*
D03*
X68504Y33563D02*
D03*
X68012Y28445D02*
D03*
X28543Y3051D02*
D03*
X48031Y3347D02*
D03*
X59744Y3445D02*
D03*
X79626Y3051D02*
D03*
X92618Y2953D02*
D03*
X92716Y33465D02*
D03*
X79527Y17323D02*
D03*
X56791Y22146D02*
D03*
X65059Y17421D02*
D03*
X44193Y32677D02*
D03*
X28445Y19094D02*
D03*
X15551Y45965D02*
D03*
X15157Y35630D02*
D03*
X15354Y25984D02*
D03*
M02*
