M48
;Layer_Color=9474304
;FILE_FORMAT=2:5
INCH,LZ
;TYPE=PLATED
T1F00S00C0.01181
%
T01
X0015059Y0010433
X0015354Y0025984
X0015157Y003563
X0015551Y0045965
X0022146
X0034154Y0043504
X0035728Y0037992
X0029134Y003248
X0028445Y0019094
X0034646Y0010827
X0028543Y0003051
X0048031Y0003347
X0059744Y0003445
X0065059Y0017421
X0071362Y0020768
X0068012Y0028445
X0068504Y0033563
X0062795Y0038091
X006191Y0050591
X0071054Y0052101
X0073425Y005876
X0073228Y0065354
X0083268Y0065059
X0083661Y0056791
X0091535Y0051181
X0092815Y0040846
X0092716Y0033465
X0088386Y0036122
X0083169Y0033366
X008642Y0024706
X0079527Y0017323
X0079626Y0003051
X0092618Y0002953
X0106595Y0033465
X0056791Y0022146
X0044193Y0032677
X0045866Y0054429
X0041437Y0054527
X0053839Y0056201
X0053347Y005935
X0050984Y006752
X003878Y0066732
X0064272Y006752
X0064075Y0059842
M30
