G04 Layer_Physical_Order=2*
G04 Layer_Color=16711680*
%FSLAX25Y25*%
%MOIN*%
G70*
G01*
G75*
%ADD10C,0.01575*%
G04:AMPARAMS|DCode=11|XSize=35.43mil|YSize=31.5mil|CornerRadius=7.87mil|HoleSize=0mil|Usage=FLASHONLY|Rotation=0.000|XOffset=0mil|YOffset=0mil|HoleType=Round|Shape=RoundedRectangle|*
%AMROUNDEDRECTD11*
21,1,0.03543,0.01575,0,0,0.0*
21,1,0.01969,0.03150,0,0,0.0*
1,1,0.01575,0.00984,-0.00787*
1,1,0.01575,-0.00984,-0.00787*
1,1,0.01575,-0.00984,0.00787*
1,1,0.01575,0.00984,0.00787*
%
%ADD11ROUNDEDRECTD11*%
G04:AMPARAMS|DCode=12|XSize=35.43mil|YSize=31.5mil|CornerRadius=7.87mil|HoleSize=0mil|Usage=FLASHONLY|Rotation=90.000|XOffset=0mil|YOffset=0mil|HoleType=Round|Shape=RoundedRectangle|*
%AMROUNDEDRECTD12*
21,1,0.03543,0.01575,0,0,90.0*
21,1,0.01969,0.03150,0,0,90.0*
1,1,0.01575,0.00787,0.00984*
1,1,0.01575,0.00787,-0.00984*
1,1,0.01575,-0.00787,-0.00984*
1,1,0.01575,-0.00787,0.00984*
%
%ADD12ROUNDEDRECTD12*%
%ADD16R,0.03543X0.03543*%
%ADD17R,0.05512X0.03150*%
%ADD18R,0.03150X0.03543*%
G04:AMPARAMS|DCode=21|XSize=66.93mil|YSize=43.31mil|CornerRadius=10.83mil|HoleSize=0mil|Usage=FLASHONLY|Rotation=270.000|XOffset=0mil|YOffset=0mil|HoleType=Round|Shape=RoundedRectangle|*
%AMROUNDEDRECTD21*
21,1,0.06693,0.02165,0,0,270.0*
21,1,0.04528,0.04331,0,0,270.0*
1,1,0.02165,-0.01083,-0.02264*
1,1,0.02165,-0.01083,0.02264*
1,1,0.02165,0.01083,0.02264*
1,1,0.02165,0.01083,-0.02264*
%
%ADD21ROUNDEDRECTD21*%
%ADD26C,0.03150*%
%ADD27R,0.05906X0.05906*%
%ADD28C,0.05906*%
G04:AMPARAMS|DCode=29|XSize=59.06mil|YSize=59.06mil|CornerRadius=14.76mil|HoleSize=0mil|Usage=FLASHONLY|Rotation=90.000|XOffset=0mil|YOffset=0mil|HoleType=Round|Shape=RoundedRectangle|*
%AMROUNDEDRECTD29*
21,1,0.05906,0.02953,0,0,90.0*
21,1,0.02953,0.05906,0,0,90.0*
1,1,0.02953,0.01476,0.01476*
1,1,0.02953,0.01476,-0.01476*
1,1,0.02953,-0.01476,-0.01476*
1,1,0.02953,-0.01476,0.01476*
%
%ADD29ROUNDEDRECTD29*%
G04:AMPARAMS|DCode=30|XSize=59.06mil|YSize=59.06mil|CornerRadius=14.76mil|HoleSize=0mil|Usage=FLASHONLY|Rotation=0.000|XOffset=0mil|YOffset=0mil|HoleType=Round|Shape=RoundedRectangle|*
%AMROUNDEDRECTD30*
21,1,0.05906,0.02953,0,0,0.0*
21,1,0.02953,0.05906,0,0,0.0*
1,1,0.02953,0.01476,-0.01476*
1,1,0.02953,-0.01476,-0.01476*
1,1,0.02953,-0.01476,0.01476*
1,1,0.02953,0.01476,0.01476*
%
%ADD30ROUNDEDRECTD30*%
%ADD31C,0.05512*%
G04:AMPARAMS|DCode=32|XSize=53.15mil|YSize=53.15mil|CornerRadius=13.29mil|HoleSize=0mil|Usage=FLASHONLY|Rotation=180.000|XOffset=0mil|YOffset=0mil|HoleType=Round|Shape=RoundedRectangle|*
%AMROUNDEDRECTD32*
21,1,0.05315,0.02658,0,0,180.0*
21,1,0.02658,0.05315,0,0,180.0*
1,1,0.02658,-0.01329,0.01329*
1,1,0.02658,0.01329,0.01329*
1,1,0.02658,0.01329,-0.01329*
1,1,0.02658,-0.01329,-0.01329*
%
%ADD32ROUNDEDRECTD32*%
%ADD33C,0.05315*%
%ADD34C,0.03543*%
%ADD35C,0.03937*%
G04:AMPARAMS|DCode=36|XSize=196.85mil|YSize=157.48mil|CornerRadius=39.37mil|HoleSize=0mil|Usage=FLASHONLY|Rotation=90.000|XOffset=0mil|YOffset=0mil|HoleType=Round|Shape=RoundedRectangle|*
%AMROUNDEDRECTD36*
21,1,0.19685,0.07874,0,0,90.0*
21,1,0.11811,0.15748,0,0,90.0*
1,1,0.07874,0.03937,0.05906*
1,1,0.07874,0.03937,-0.05906*
1,1,0.07874,-0.03937,-0.05906*
1,1,0.07874,-0.03937,0.05906*
%
%ADD36ROUNDEDRECTD36*%
G04:AMPARAMS|DCode=37|XSize=51.18mil|YSize=51.18mil|CornerRadius=12.8mil|HoleSize=0mil|Usage=FLASHONLY|Rotation=90.000|XOffset=0mil|YOffset=0mil|HoleType=Round|Shape=RoundedRectangle|*
%AMROUNDEDRECTD37*
21,1,0.05118,0.02559,0,0,90.0*
21,1,0.02559,0.05118,0,0,90.0*
1,1,0.02559,0.01280,0.01280*
1,1,0.02559,0.01280,-0.01280*
1,1,0.02559,-0.01280,-0.01280*
1,1,0.02559,-0.01280,0.01280*
%
%ADD37ROUNDEDRECTD37*%
G04:AMPARAMS|DCode=38|XSize=62.99mil|YSize=35.43mil|CornerRadius=8.86mil|HoleSize=0mil|Usage=FLASHONLY|Rotation=0.000|XOffset=0mil|YOffset=0mil|HoleType=Round|Shape=RoundedRectangle|*
%AMROUNDEDRECTD38*
21,1,0.06299,0.01772,0,0,0.0*
21,1,0.04528,0.03543,0,0,0.0*
1,1,0.01772,0.02264,-0.00886*
1,1,0.01772,-0.02264,-0.00886*
1,1,0.01772,-0.02264,0.00886*
1,1,0.01772,0.02264,0.00886*
%
%ADD38ROUNDEDRECTD38*%
%ADD39R,0.03543X0.03150*%
%ADD40R,0.02362X0.04331*%
%ADD41R,0.01969X0.01969*%
G04:AMPARAMS|DCode=42|XSize=62.99mil|YSize=35.43mil|CornerRadius=8.86mil|HoleSize=0mil|Usage=FLASHONLY|Rotation=270.000|XOffset=0mil|YOffset=0mil|HoleType=Round|Shape=RoundedRectangle|*
%AMROUNDEDRECTD42*
21,1,0.06299,0.01772,0,0,270.0*
21,1,0.04528,0.03543,0,0,270.0*
1,1,0.01772,-0.00886,-0.02264*
1,1,0.01772,-0.00886,0.02264*
1,1,0.01772,0.00886,0.02264*
1,1,0.01772,0.00886,-0.02264*
%
%ADD42ROUNDEDRECTD42*%
G04:AMPARAMS|DCode=43|XSize=51.18mil|YSize=51.18mil|CornerRadius=12.8mil|HoleSize=0mil|Usage=FLASHONLY|Rotation=0.000|XOffset=0mil|YOffset=0mil|HoleType=Round|Shape=RoundedRectangle|*
%AMROUNDEDRECTD43*
21,1,0.05118,0.02559,0,0,0.0*
21,1,0.02559,0.05118,0,0,0.0*
1,1,0.02559,0.01280,-0.01280*
1,1,0.02559,-0.01280,-0.01280*
1,1,0.02559,-0.01280,0.01280*
1,1,0.02559,0.01280,0.01280*
%
%ADD43ROUNDEDRECTD43*%
%ADD44R,0.03150X0.05512*%
%ADD45R,0.04331X0.02362*%
G04:AMPARAMS|DCode=46|XSize=131.89mil|YSize=86.61mil|CornerRadius=21.65mil|HoleSize=0mil|Usage=FLASHONLY|Rotation=90.000|XOffset=0mil|YOffset=0mil|HoleType=Round|Shape=RoundedRectangle|*
%AMROUNDEDRECTD46*
21,1,0.13189,0.04331,0,0,90.0*
21,1,0.08858,0.08661,0,0,90.0*
1,1,0.04331,0.02165,0.04429*
1,1,0.04331,0.02165,-0.04429*
1,1,0.04331,-0.02165,-0.04429*
1,1,0.04331,-0.02165,0.04429*
%
%ADD46ROUNDEDRECTD46*%
G04:AMPARAMS|DCode=47|XSize=59.06mil|YSize=47.24mil|CornerRadius=11.81mil|HoleSize=0mil|Usage=FLASHONLY|Rotation=0.000|XOffset=0mil|YOffset=0mil|HoleType=Round|Shape=RoundedRectangle|*
%AMROUNDEDRECTD47*
21,1,0.05906,0.02362,0,0,0.0*
21,1,0.03543,0.04724,0,0,0.0*
1,1,0.02362,0.01772,-0.01181*
1,1,0.02362,-0.01772,-0.01181*
1,1,0.02362,-0.01772,0.01181*
1,1,0.02362,0.01772,0.01181*
%
%ADD47ROUNDEDRECTD47*%
%ADD48C,0.01181*%
G36*
X340748Y139862D02*
X340650Y139764D01*
X324276Y130705D01*
X323845Y130959D01*
X323787Y156142D01*
X324141Y156496D01*
X340748Y156496D01*
Y139862D01*
D02*
G37*
G36*
X198917Y117363D02*
Y56693D01*
X195571Y53347D01*
X165256D01*
X156102Y62500D01*
Y115453D01*
X158268Y117618D01*
X198563Y117716D01*
X198917Y117363D01*
D02*
G37*
G36*
X198130Y46358D02*
Y23914D01*
X197681Y23693D01*
X197651Y23716D01*
X196885Y24033D01*
X196063Y24141D01*
X191732D01*
X190910Y24033D01*
X190144Y23716D01*
X189486Y23211D01*
X189198Y22835D01*
X188560Y22766D01*
X187633Y23693D01*
Y25000D01*
X187496Y25691D01*
X187104Y26277D01*
X186518Y26669D01*
X185827Y26806D01*
X183858D01*
X183167Y26669D01*
X182581Y26277D01*
X182209Y25720D01*
X181201D01*
Y26673D01*
X175689D01*
Y25548D01*
X175243Y25250D01*
X175243Y25249D01*
X174887Y24894D01*
X174425Y25085D01*
Y25934D01*
X171260D01*
Y26934D01*
X174425D01*
Y28616D01*
X174409D01*
Y30770D01*
X175530Y31890D01*
X180315D01*
Y36902D01*
X180315Y37008D01*
Y37402D01*
X180315Y37508D01*
Y42520D01*
X174803D01*
Y41767D01*
X168131D01*
X168009Y41926D01*
X167433Y42368D01*
X166763Y42646D01*
X166043Y42740D01*
X165324Y42646D01*
X164654Y42368D01*
X164078Y41926D01*
X163636Y41350D01*
X163358Y40680D01*
X163264Y39961D01*
X163358Y39241D01*
X163636Y38571D01*
X164078Y37995D01*
X164654Y37553D01*
X165324Y37276D01*
X166043Y37181D01*
X166763Y37276D01*
X167433Y37553D01*
X168009Y37995D01*
X168131Y38154D01*
X174803D01*
Y37508D01*
X174803Y37402D01*
Y37008D01*
X174803Y36902D01*
Y36091D01*
X174257Y35726D01*
X170871Y32340D01*
X168110D01*
Y28616D01*
X168095D01*
Y26705D01*
X167595Y26553D01*
X167376Y26881D01*
X167376Y26881D01*
X164961Y29296D01*
Y32340D01*
X158661D01*
Y31780D01*
X157143D01*
X157143Y31780D01*
X156529Y31658D01*
X156008Y31310D01*
X155638Y30940D01*
X154331D01*
X153639Y30803D01*
X153053Y30411D01*
X152662Y29825D01*
X152524Y29134D01*
Y28095D01*
X152407Y28020D01*
X152255Y28060D01*
X151923Y28304D01*
Y29913D01*
X149114D01*
X146306D01*
Y28150D01*
X146415Y27598D01*
X146107Y27098D01*
X143834D01*
X140922Y30010D01*
Y32795D01*
X140777Y33525D01*
X140364Y34143D01*
X139745Y34557D01*
X139736Y34559D01*
Y35614D01*
X140057Y35829D01*
X140448Y36415D01*
X140485Y36600D01*
X140995D01*
X141033Y36409D01*
X141428Y35818D01*
X142019Y35423D01*
X142717Y35284D01*
X143004D01*
Y38091D01*
X143504D01*
Y38591D01*
X146114D01*
Y39075D01*
X145975Y39772D01*
X145580Y40363D01*
X144989Y40759D01*
X144291Y40897D01*
X143723D01*
X143532Y41359D01*
X144692Y42520D01*
X148130D01*
Y50000D01*
X143012D01*
Y45381D01*
X139840Y42209D01*
X139469Y42545D01*
Y50000D01*
X134351D01*
Y46255D01*
X132679Y44584D01*
X132400Y44166D01*
X131991Y43852D01*
X131549Y43277D01*
X131272Y42606D01*
X131177Y41887D01*
X131272Y41167D01*
X131549Y40497D01*
X131991Y39921D01*
X132567Y39479D01*
X133237Y39202D01*
X133957Y39107D01*
X134676Y39202D01*
X134935Y39309D01*
X135151Y39200D01*
X135398Y38960D01*
Y37106D01*
X135536Y36415D01*
X135927Y35829D01*
X136513Y35438D01*
X136524Y35435D01*
Y34559D01*
X136514Y34557D01*
X135896Y34143D01*
X135483Y33525D01*
X135337Y32795D01*
Y28268D01*
X135483Y27538D01*
X135896Y26919D01*
X136514Y26506D01*
X137244Y26361D01*
X139016D01*
X139745Y26506D01*
X139829Y26562D01*
X141526Y24865D01*
X141360Y24323D01*
X140691Y23876D01*
X140190Y23127D01*
X140015Y22244D01*
Y19685D01*
X140190Y18802D01*
X140691Y18053D01*
X141440Y17553D01*
X142323Y17377D01*
X144882D01*
X145765Y17553D01*
X146514Y18053D01*
X147014Y18802D01*
X147190Y19685D01*
Y21028D01*
X152881D01*
X153053Y20770D01*
X153639Y20378D01*
X154331Y20241D01*
X156299D01*
X156990Y20378D01*
X157576Y20770D01*
X157749Y21028D01*
X158661D01*
Y20529D01*
X164635D01*
Y12992D01*
X164635Y12992D01*
X164757Y12378D01*
X165105Y11857D01*
X166732Y10229D01*
Y8563D01*
X170669D01*
Y12500D01*
X169003D01*
X167846Y13657D01*
Y16997D01*
X175689D01*
Y16043D01*
X176865D01*
X177017Y15543D01*
X176472Y15179D01*
X175961Y14414D01*
X175782Y13512D01*
Y10854D01*
X175961Y9952D01*
X176472Y9187D01*
X177237Y8676D01*
X178140Y8496D01*
X180797D01*
X181700Y8676D01*
X182465Y9187D01*
X182976Y9952D01*
X183156Y10854D01*
Y13512D01*
X182976Y14414D01*
X182465Y15179D01*
X181700Y15691D01*
X181566Y15717D01*
X181201Y16043D01*
X181201Y16300D01*
Y16997D01*
X182340D01*
X182581Y16636D01*
X183167Y16244D01*
X183858Y16107D01*
X185827D01*
X186518Y16244D01*
X187104Y16636D01*
X187496Y17222D01*
X187633Y17913D01*
Y18498D01*
X188095Y18689D01*
X188555Y18229D01*
Y12106D01*
X188664Y11284D01*
X188981Y10518D01*
X189486Y9860D01*
X190144Y9355D01*
X190910Y9038D01*
X191732Y8929D01*
X196063D01*
X196885Y9038D01*
X197651Y9355D01*
X197681Y9378D01*
X198130Y9157D01*
Y5118D01*
X196910Y3898D01*
X129807Y5093D01*
X129528Y49902D01*
X131595Y51968D01*
X192520D01*
X198130Y46358D01*
D02*
G37*
G36*
X340256Y21987D02*
X340354Y21888D01*
Y1772D01*
X339999Y1420D01*
X328313Y1558D01*
X323622Y1641D01*
Y27846D01*
X324033Y28130D01*
X340256Y21987D01*
D02*
G37*
G36*
X283563Y152362D02*
X283853Y131360D01*
X283502Y131004D01*
X278810D01*
X278710Y131504D01*
X279040Y131641D01*
X279824Y132243D01*
X280427Y133027D01*
X280805Y133941D01*
X280868Y134421D01*
X277146D01*
Y134921D01*
X276646D01*
Y138644D01*
X276165Y138581D01*
X275252Y138202D01*
X274581Y137688D01*
X274158Y137789D01*
X274038Y137862D01*
X273954Y138082D01*
X273954D01*
X273808Y139929D01*
X273376Y141731D01*
X272667Y143443D01*
X271699Y145023D01*
X270495Y146432D01*
X270494Y146431D01*
X268872Y148053D01*
X268873Y148054D01*
X267464Y149258D01*
X265884Y150226D01*
X264172Y150935D01*
X262370Y151367D01*
X260523Y151513D01*
Y151511D01*
X150866D01*
X150832Y151504D01*
X149597Y151383D01*
X148608Y151083D01*
X144980D01*
Y151083D01*
X144980D01*
X144980Y151083D01*
X144587D01*
X144587D01*
Y151083D01*
X139469D01*
Y150133D01*
X135138D01*
X134447Y149996D01*
X133861Y149604D01*
X133469Y149018D01*
X133331Y148327D01*
Y135594D01*
X132945Y135276D01*
X132724Y135320D01*
X130502D01*
Y136664D01*
X126778D01*
Y136679D01*
X125097D01*
Y133514D01*
X124097D01*
Y136679D01*
X123260D01*
X123014Y137179D01*
X123175Y137390D01*
X123453Y138060D01*
X123547Y138779D01*
X123453Y139499D01*
X123175Y140169D01*
X122733Y140745D01*
X122158Y141187D01*
X121487Y141464D01*
X120768Y141559D01*
X120048Y141464D01*
X119378Y141187D01*
X118802Y140745D01*
X118360Y140169D01*
X118083Y139499D01*
X117988Y138779D01*
X118083Y138060D01*
X118360Y137390D01*
X118572Y137114D01*
X118691Y136664D01*
X118691Y136664D01*
X118691D01*
X118691Y136664D01*
Y130364D01*
X122416D01*
Y130349D01*
X123997D01*
X124148Y129849D01*
X123959Y129722D01*
X121452Y127215D01*
X118691D01*
Y126708D01*
X117001D01*
X116829Y126966D01*
X116243Y127358D01*
X116058Y127395D01*
Y127904D01*
X116249Y127942D01*
X116840Y128337D01*
X117235Y128929D01*
X117374Y129626D01*
Y129913D01*
X111760D01*
Y129626D01*
X111899Y128929D01*
X112294Y128337D01*
X112885Y127942D01*
X113076Y127904D01*
Y127395D01*
X112891Y127358D01*
X112305Y126966D01*
X111914Y126380D01*
X111776Y125689D01*
Y124666D01*
X107977Y120866D01*
X105020D01*
Y115748D01*
X112500D01*
Y120280D01*
X114528Y122308D01*
X115551D01*
X115909Y122379D01*
X116155Y121918D01*
X113979Y119742D01*
X113587Y119156D01*
X113450Y118465D01*
Y104449D01*
X113587Y103758D01*
X113979Y103172D01*
X116207Y100944D01*
X116085Y100335D01*
Y98563D01*
X116231Y97833D01*
X116644Y97215D01*
X117262Y96801D01*
X117992Y96656D01*
X122520D01*
X123249Y96801D01*
X123868Y97215D01*
X124281Y97833D01*
X124426Y98563D01*
Y100335D01*
X124281Y101064D01*
X123868Y101683D01*
X123249Y102096D01*
X122520Y102241D01*
X120018D01*
X117062Y105197D01*
Y107424D01*
X117562Y107734D01*
X118110Y107624D01*
X119874D01*
Y110433D01*
Y113242D01*
X118110D01*
X117562Y113133D01*
X117062Y113442D01*
Y117716D01*
X118588Y119242D01*
X119050Y119051D01*
Y118612D01*
X119188Y117921D01*
X119454Y117523D01*
Y116339D01*
X119591Y115647D01*
X119983Y115061D01*
X120569Y114670D01*
X121260Y114532D01*
X122835D01*
X123526Y114670D01*
X124112Y115061D01*
X124504Y115647D01*
X124548Y115872D01*
X125058D01*
X125103Y115647D01*
X125494Y115061D01*
X125753Y114889D01*
Y107185D01*
X125890Y106494D01*
X126235Y105977D01*
Y103642D01*
X126411Y102758D01*
X126911Y102010D01*
X127660Y101509D01*
X128543Y101334D01*
X131102D01*
X131986Y101509D01*
X132735Y102010D01*
X133235Y102758D01*
X133411Y103642D01*
Y106201D01*
X133235Y107084D01*
X132735Y107833D01*
X131986Y108333D01*
X131102Y108509D01*
X129365D01*
Y114889D01*
X129624Y115061D01*
X130015Y115647D01*
X130023Y115684D01*
X130307Y115779D01*
X130559Y115819D01*
X131100Y115457D01*
X131791Y115320D01*
X133366D01*
X134057Y115457D01*
X134643Y115849D01*
X135035Y116435D01*
X135080Y116660D01*
X135590D01*
X135634Y116435D01*
X136026Y115849D01*
X136612Y115457D01*
X137303Y115320D01*
X138878D01*
X139569Y115457D01*
X140155Y115849D01*
X140547Y116435D01*
X140684Y117126D01*
Y119095D01*
X140547Y119786D01*
X140155Y120372D01*
X140110Y120973D01*
X140549Y121412D01*
X140940Y121998D01*
X141078Y122689D01*
Y127306D01*
X140940Y127998D01*
X140549Y128584D01*
X138484Y130648D01*
Y133069D01*
X136944D01*
Y146520D01*
X139469D01*
Y145571D01*
X141800D01*
D01*
X144587D01*
Y145571D01*
X144587D01*
X144980D01*
X144980Y145571D01*
X144980D01*
Y145571D01*
X150098D01*
Y147803D01*
X150113Y147809D01*
X150837Y147904D01*
X150866Y147898D01*
X260523D01*
X260605Y147915D01*
X262126Y147765D01*
X263668Y147297D01*
X265089Y146538D01*
X266271Y145568D01*
X266317Y145499D01*
X267939Y143876D01*
X268009Y143830D01*
X268979Y142648D01*
X269738Y141227D01*
X270206Y139685D01*
X270356Y138164D01*
X270339Y138082D01*
Y137707D01*
X269866Y137546D01*
X269824Y137600D01*
X269040Y138202D01*
X268126Y138581D01*
X267646Y138644D01*
Y134921D01*
X267146D01*
Y134421D01*
X263423D01*
X263487Y133941D01*
X263865Y133027D01*
X263943Y132926D01*
X263566Y132596D01*
X253937Y142224D01*
X145177D01*
Y99902D01*
X139764Y94488D01*
X110566D01*
Y107087D01*
X112500D01*
Y112205D01*
X105020D01*
Y107087D01*
X106954D01*
Y94488D01*
X103543D01*
Y152657D01*
X142357Y153734D01*
X145177Y153248D01*
X262064Y155901D01*
X279705Y156220D01*
X283563Y152362D01*
D02*
G37*
%LPC*%
G36*
X162024Y12516D02*
X160539D01*
Y11032D01*
X162024D01*
Y12516D01*
D02*
G37*
G36*
X148614Y34600D02*
X148228D01*
X147493Y34454D01*
X146869Y34037D01*
X146452Y33413D01*
X146306Y32677D01*
Y30913D01*
X148614D01*
Y34600D01*
D02*
G37*
G36*
X162024Y10031D02*
X160539D01*
Y8547D01*
X162024D01*
Y10031D01*
D02*
G37*
G36*
X159539D02*
X158055D01*
Y8547D01*
X159539D01*
Y10031D01*
D02*
G37*
G36*
Y12516D02*
X158055D01*
Y11032D01*
X159539D01*
Y12516D01*
D02*
G37*
G36*
X150256Y15856D02*
X149305Y15731D01*
X148419Y15364D01*
X147659Y14781D01*
X147075Y14020D01*
X146708Y13134D01*
X146583Y12183D01*
X146708Y11232D01*
X147075Y10347D01*
X147659Y9586D01*
X148419Y9002D01*
X149305Y8635D01*
X150256Y8510D01*
X151207Y8635D01*
X152093Y9002D01*
X152853Y9586D01*
X153437Y10347D01*
X153804Y11232D01*
X153929Y12183D01*
X153804Y13134D01*
X153437Y14020D01*
X152853Y14781D01*
X152093Y15364D01*
X151207Y15731D01*
X150256Y15856D01*
D02*
G37*
G36*
X146114Y37591D02*
X144004D01*
Y35284D01*
X144291D01*
X144989Y35423D01*
X145580Y35818D01*
X145975Y36409D01*
X146114Y37106D01*
Y37591D01*
D02*
G37*
G36*
X150000Y34600D02*
X149614D01*
Y30913D01*
X151923D01*
Y32677D01*
X151776Y33413D01*
X151360Y34037D01*
X150736Y34454D01*
X150000Y34600D01*
D02*
G37*
G36*
X115551Y133023D02*
X115067D01*
Y130913D01*
X117374D01*
Y131201D01*
X117235Y131898D01*
X116840Y132489D01*
X116249Y132885D01*
X115551Y133023D01*
D02*
G37*
G36*
X114067D02*
X113583D01*
X112885Y132885D01*
X112294Y132489D01*
X111899Y131898D01*
X111760Y131201D01*
Y130913D01*
X114067D01*
Y133023D01*
D02*
G37*
G36*
X277646Y138644D02*
Y135421D01*
X280868D01*
X280805Y135902D01*
X280427Y136815D01*
X279824Y137600D01*
X279040Y138202D01*
X278126Y138581D01*
X277646Y138644D01*
D02*
G37*
G36*
X266646D02*
X266165Y138581D01*
X265251Y138202D01*
X264467Y137600D01*
X263865Y136815D01*
X263487Y135902D01*
X263423Y135421D01*
X266646D01*
Y138644D01*
D02*
G37*
G36*
X122638Y113242D02*
X120874D01*
Y110933D01*
X124561D01*
Y111319D01*
X124414Y112055D01*
X123997Y112679D01*
X123374Y113095D01*
X122638Y113242D01*
D02*
G37*
G36*
X124561Y109933D02*
X120874D01*
Y107624D01*
X122638D01*
X123374Y107771D01*
X123997Y108188D01*
X124414Y108811D01*
X124561Y109547D01*
Y109933D01*
D02*
G37*
%LPD*%
D10*
X150866Y149705D02*
G03*
X147539Y148327I0J-4705D01*
G01*
X267594Y146776D02*
G03*
X260523Y149705I-7071J-7071D01*
G01*
X272146Y138082D02*
G03*
X269217Y145153I-10000J0D01*
G01*
X265723Y48720D02*
G03*
X266673Y49114I0J1344D01*
G01*
X253543Y55709D02*
G03*
X256870Y54331I3327J3327D01*
G01*
X267748D02*
G03*
X274819Y57260I0J10000D01*
G01*
X261945Y73843D02*
G03*
X254874Y76772I-7071J-7071D01*
G01*
X254535Y84154D02*
G03*
X253347Y83661I0J-1680D01*
G01*
X274563Y81225D02*
G03*
X267492Y84154I-7071J-7071D01*
G01*
X254842Y104823D02*
G03*
X253642Y104921I-1200J-7267D01*
G01*
X258862Y102752D02*
G03*
X258859Y102755I-4665J-4659D01*
G01*
X260731Y98973D02*
G03*
X258862Y102752I-6534J-880D01*
G01*
X254842Y104823D02*
G03*
X253642Y104921I-1200J-7267D01*
G01*
X260790Y98093D02*
G03*
X258859Y102755I-6593J0D01*
G01*
X258850Y102764D02*
G03*
X253642Y104921I-5208J-5208D01*
G01*
X260728Y99201D02*
G03*
X263657Y92130I10000J0D01*
G01*
X276673Y99114D02*
G03*
X276116Y100458I-1901J0D01*
G01*
X267496Y109079D02*
G03*
X260425Y112008I-7071J-7071D01*
G01*
X18032Y137323D02*
Y147323D01*
Y137323D02*
X28032D01*
Y147028D01*
X135728Y130509D02*
X136068D01*
X139272Y127306D01*
Y122689D02*
Y127306D01*
X138091Y121508D02*
X139272Y122689D01*
X138091Y118110D02*
Y121508D01*
X132579Y121848D02*
X135728Y124998D01*
X132579Y118110D02*
Y121848D01*
X127559Y107185D02*
X129823Y104921D01*
X127559Y107185D02*
Y117421D01*
X120857Y118612D02*
Y124065D01*
Y118612D02*
X122047Y117421D01*
X127559D02*
X128337Y118199D01*
Y124065D01*
X125236Y128445D02*
X131398D01*
X120857Y124065D02*
X125236Y128445D01*
X135138Y131100D02*
Y148327D01*
X132724Y133514D02*
X135138Y131100D01*
X135728Y130509D01*
X142027Y148327D02*
X142028Y148327D01*
X135138Y148327D02*
X142027D01*
X119980Y67815D02*
X149213D01*
X69311Y17146D02*
X119980Y67815D01*
X57933Y17146D02*
X69311D01*
X109449Y46555D02*
X111221Y48327D01*
X131496D01*
X110236Y68110D02*
X121161Y79035D01*
X157776D01*
X213989Y26870D02*
X216929D01*
X57854Y139449D02*
Y142618D01*
X65059D02*
X81201Y126476D01*
X57854Y142618D02*
X65059D01*
X57933Y17146D02*
X61398Y13681D01*
X83169D01*
X108760Y90748D02*
Y109646D01*
X108661Y90650D02*
X108760Y90748D01*
X46437Y28642D02*
X53622Y21457D01*
X57933Y17146D01*
X47244Y21457D02*
X53622D01*
X45768Y28642D02*
X46437D01*
X46161Y140847D02*
X56083D01*
X57854Y142618D01*
X46063Y149902D02*
X50571D01*
X57854Y142618D01*
X267146Y124921D02*
Y134921D01*
Y124921D02*
X277146D01*
Y134921D01*
X120857Y133514D02*
Y138779D01*
X120768D02*
X120857D01*
X108760Y119095D02*
X114567Y124902D01*
X108760Y118307D02*
Y119095D01*
X120020Y124902D02*
X120857Y124065D01*
X114567Y124902D02*
X120020D01*
X115256Y118465D02*
X120857Y124065D01*
X115256Y104449D02*
Y118465D01*
Y104449D02*
X120256Y99449D01*
X131398Y128445D02*
X134845Y124998D01*
X135728D01*
X128337Y133514D02*
X132724D01*
X150866Y149705D02*
X260523D01*
X267594Y146776D02*
X269217Y145153D01*
X272146Y129921D02*
Y138082D01*
X133957Y43307D02*
X136909Y46260D01*
X133957Y41887D02*
Y43307D01*
X166043Y39961D02*
X166339Y39665D01*
X166634Y39961D01*
X177559D01*
X149114Y30413D02*
Y32480D01*
X161671Y22835D02*
X161811Y22694D01*
X155315Y22835D02*
X161671D01*
X145472D02*
X155315D01*
X143602Y20965D02*
X145472Y22835D01*
X175534Y34449D02*
X177559D01*
X171260Y30174D02*
X175534Y34449D01*
X221654Y16535D02*
X232480Y27362D01*
X218701Y16535D02*
X221654D01*
X232480Y27362D02*
X243110D01*
X242914Y48720D02*
X265723D01*
X233661Y55709D02*
X253543D01*
X256870Y54331D02*
X267748D01*
X274819Y57260D02*
X276673Y59114D01*
X243110Y76772D02*
X254874D01*
X261945Y73843D02*
X266673Y69114D01*
X254535Y84154D02*
X267492D01*
X274563Y81225D02*
X276673Y79114D01*
X242520Y104823D02*
X254842D01*
X258850Y102764D02*
X258859Y102755D01*
X258850Y102764D02*
X258850Y102764D01*
X263657Y92130D02*
X266673Y89114D01*
X267496Y109079D02*
X276116Y100458D01*
X253642Y112008D02*
X260425D01*
X233563Y83661D02*
X243110D01*
X233957Y128445D02*
X234055Y128543D01*
X233957Y118996D02*
Y128445D01*
Y118996D02*
X240157D01*
X253445Y121654D02*
X253642Y121457D01*
Y112008D02*
Y121457D01*
X242868Y111909D02*
X253543D01*
X233661D02*
X242762D01*
Y111864D02*
X242868D01*
X233661Y104823D02*
X242520D01*
X242520Y104823D01*
X242512Y104831D02*
X242520Y104823D01*
X243209Y97835D02*
X253642D01*
X233661D02*
X243110D01*
Y97736D02*
X243209Y97638D01*
X243110Y91142D02*
X253248D01*
X233661D02*
X243095D01*
X243042Y83729D02*
X243110Y83661D01*
X233760Y76772D02*
X243088D01*
Y76695D02*
X243110Y76673D01*
Y69685D02*
X253543D01*
X233563D02*
X243035D01*
Y69662D02*
X243110Y69587D01*
X243110Y62697D02*
X253445D01*
X233760D02*
X243041D01*
Y62628D02*
X243110Y62697D01*
X243209Y55315D02*
Y55512D01*
X233661Y48720D02*
X242717D01*
Y48524D02*
X242914D01*
X233760Y41634D02*
X242421D01*
Y41437D02*
X242914D01*
X243110Y34350D02*
X253544D01*
X233858D02*
X243012D01*
Y34547D02*
X243110Y34449D01*
X243209Y27165D02*
Y27264D01*
X216929Y119291D02*
X217224Y118996D01*
X224508D01*
X216339Y110630D02*
X217618Y111909D01*
X224213D01*
X216929Y102854D02*
X218898Y104823D01*
X224213D01*
X217421Y94685D02*
X220571Y97835D01*
X217421Y94685D02*
Y94784D01*
X220571Y97835D02*
X224213D01*
X217421Y87008D02*
X221555Y91142D01*
X224213D01*
X216240Y79035D02*
X220866Y83661D01*
X224114D01*
X217126Y70866D02*
X223031Y76772D01*
X224311D01*
X216831Y62402D02*
X224114Y69685D01*
X216831Y55413D02*
X217028D01*
X224311Y62697D01*
X216777Y48273D02*
X224213Y55709D01*
X216634Y41142D02*
X224213Y48720D01*
X216240Y33563D02*
X224311Y41634D01*
X216929Y26870D02*
X224410Y34350D01*
X253543Y111909D02*
X253642Y112008D01*
X253642Y97835D02*
X253642Y97835D01*
X243110Y83661D02*
X253347D01*
X253543Y69685D02*
X253642Y69587D01*
X243110Y41634D02*
X253347D01*
X253642Y41339D01*
X253544Y34350D02*
X253642Y34252D01*
D11*
X114567Y124902D02*
D03*
Y130413D02*
D03*
X155315Y28346D02*
D03*
Y22835D02*
D03*
X184843Y18701D02*
D03*
Y24213D02*
D03*
D12*
X138091Y118110D02*
D03*
X132579D02*
D03*
X122047Y117323D02*
D03*
X127559D02*
D03*
X137992Y38091D02*
D03*
X143504D02*
D03*
D16*
X233858Y34350D02*
D03*
X224410D02*
D03*
X233760Y41634D02*
D03*
X224311D02*
D03*
X233661Y48720D02*
D03*
X224213D02*
D03*
X233661Y55709D02*
D03*
X224213D02*
D03*
X233760Y62697D02*
D03*
X224311D02*
D03*
X233563Y69685D02*
D03*
X224114D02*
D03*
X233760Y76772D02*
D03*
X224311D02*
D03*
X233563Y83661D02*
D03*
X224114D02*
D03*
X233661Y91142D02*
D03*
X224213D02*
D03*
X233661Y97835D02*
D03*
X224213D02*
D03*
X233661Y104823D02*
D03*
X224213D02*
D03*
X233661Y111909D02*
D03*
X224213D02*
D03*
X233957Y118996D02*
D03*
X224508D02*
D03*
D17*
X108760Y109646D02*
D03*
Y118307D02*
D03*
D18*
X147539Y148327D02*
D03*
X142028D02*
D03*
D21*
X234055Y128543D02*
D03*
X223425D02*
D03*
X253445Y121654D02*
D03*
X242815D02*
D03*
D26*
X261910Y117815D02*
X288484D01*
X316240Y145571D02*
X330217D01*
X288484Y117815D02*
X316240Y145571D01*
X260433Y119291D02*
X261910Y117815D01*
X260433Y119291D02*
Y126279D01*
X256398Y130315D02*
X260433Y126279D01*
X242618Y130315D02*
X256398D01*
X237303Y135630D02*
X242618Y130315D01*
X230512Y135630D02*
X237303D01*
X223425Y128543D02*
X230512Y135630D01*
X199705Y123031D02*
X205216Y128543D01*
X223425D01*
D27*
X10335Y119882D02*
D03*
X83169Y13681D02*
D03*
X8563Y17126D02*
D03*
D28*
X10335Y129882D02*
D03*
X266673Y49114D02*
D03*
X276673Y59114D02*
D03*
X266673D02*
D03*
X276673Y69114D02*
D03*
X266673D02*
D03*
X276673Y79114D02*
D03*
X266673D02*
D03*
X276673Y89114D02*
D03*
X266673D02*
D03*
X276673Y99114D02*
D03*
X266673D02*
D03*
X83169Y23681D02*
D03*
X8563Y27126D02*
D03*
Y37126D02*
D03*
X276240Y31890D02*
D03*
X199705Y123031D02*
D03*
D29*
X276673Y49114D02*
D03*
D30*
X266240Y31890D02*
D03*
D31*
X267146Y124921D02*
D03*
Y134921D02*
D03*
X277146D02*
D03*
Y124921D02*
D03*
X272146Y129921D02*
D03*
X28032Y137323D02*
D03*
X18032D02*
D03*
Y147323D02*
D03*
X28032D02*
D03*
X23031Y142323D02*
D03*
D32*
X179469Y12183D02*
D03*
D33*
X150256D02*
D03*
D34*
X338779Y148819D02*
D03*
X338976Y141339D02*
D03*
X332087Y137303D02*
D03*
X325787Y135039D02*
D03*
Y141732D02*
D03*
X325886Y149213D02*
D03*
X326575Y154823D02*
D03*
X331299D02*
D03*
X334744D02*
D03*
X338779Y154626D02*
D03*
X172933Y62795D02*
D03*
X213090Y25886D02*
D03*
X81201Y126476D02*
D03*
X149213Y67815D02*
D03*
X47244Y21457D02*
D03*
X45768Y28642D02*
D03*
X46161Y140847D02*
D03*
X46063Y149902D02*
D03*
X105020Y125295D02*
D03*
X105118Y137894D02*
D03*
X105709Y151181D02*
D03*
X123425Y151476D02*
D03*
X131791D02*
D03*
X143602Y142717D02*
D03*
Y132382D02*
D03*
X143898Y117717D02*
D03*
X143307Y100689D02*
D03*
X138583Y96260D02*
D03*
X130315Y96063D02*
D03*
X113484Y96457D02*
D03*
X120768Y138779D02*
D03*
X157776Y79035D02*
D03*
X157677Y64468D02*
D03*
X195276Y60532D02*
D03*
X179331Y86319D02*
D03*
X179232Y100984D02*
D03*
X156988Y86713D02*
D03*
X197933Y88090D02*
D03*
X197244Y114567D02*
D03*
X158760Y114469D02*
D03*
X133957Y41887D02*
D03*
X189665Y28346D02*
D03*
X190157Y37303D02*
D03*
X175492Y49311D02*
D03*
X153150Y49508D02*
D03*
X131496Y48327D02*
D03*
X131201Y35827D02*
D03*
X131299Y25787D02*
D03*
Y16339D02*
D03*
X130709Y7480D02*
D03*
X144193Y6988D02*
D03*
X154232Y6890D02*
D03*
X163779Y7087D02*
D03*
X175000Y7185D02*
D03*
X183465Y6496D02*
D03*
X189075Y6890D02*
D03*
X166043Y39961D02*
D03*
X240157Y118996D02*
D03*
X242762Y111864D02*
D03*
X242512Y104831D02*
D03*
X243209Y97638D02*
D03*
X243095Y90763D02*
D03*
X243042Y83729D02*
D03*
X243088Y76695D02*
D03*
X243035Y69662D02*
D03*
X243041Y62628D02*
D03*
X243209Y55315D02*
D03*
X242717Y48524D02*
D03*
X242421Y41437D02*
D03*
X243012Y34547D02*
D03*
X243209Y27165D02*
D03*
X216929Y119291D02*
D03*
X216339Y110630D02*
D03*
X216929Y102854D02*
D03*
X217421Y94784D02*
D03*
Y87008D02*
D03*
X216240Y79035D02*
D03*
X217126Y70866D02*
D03*
X216831Y62402D02*
D03*
Y55413D02*
D03*
X216777Y48273D02*
D03*
X216634Y41142D02*
D03*
X216240Y33563D02*
D03*
D35*
X109449Y46555D02*
D03*
X110236Y68110D02*
D03*
X108661Y90650D02*
D03*
D36*
X57776Y20059D02*
D03*
X57854Y139508D02*
D03*
D37*
X129823Y104921D02*
D03*
D38*
X120256Y99449D02*
D03*
X120374Y110433D02*
D03*
D39*
X135728Y124998D02*
D03*
Y130509D02*
D03*
X178445Y24114D02*
D03*
Y18602D02*
D03*
X177559Y39961D02*
D03*
Y34449D02*
D03*
D40*
X120857Y124065D02*
D03*
X128337D02*
D03*
Y133514D02*
D03*
X124597D02*
D03*
X120857D02*
D03*
D41*
X160039Y10531D02*
D03*
X168701D02*
D03*
D42*
X149114Y30413D02*
D03*
X138130Y30531D02*
D03*
D43*
X143602Y20965D02*
D03*
D44*
X136909Y46260D02*
D03*
X145571D02*
D03*
D45*
X161811Y30174D02*
D03*
Y22694D02*
D03*
X171260D02*
D03*
Y26434D02*
D03*
Y30174D02*
D03*
D46*
X193898Y16535D02*
D03*
X218701D02*
D03*
D47*
X253642Y34252D02*
D03*
Y41339D02*
D03*
X253642Y104921D02*
D03*
Y112008D02*
D03*
X243110Y104823D02*
D03*
Y97736D02*
D03*
X253642Y90748D02*
D03*
Y97835D02*
D03*
X243110Y90748D02*
D03*
Y83661D02*
D03*
X253642Y76279D02*
D03*
Y83366D02*
D03*
X243110Y76673D02*
D03*
Y69587D02*
D03*
X253642Y62500D02*
D03*
Y69587D02*
D03*
X243110Y62697D02*
D03*
Y55610D02*
D03*
X253642Y48524D02*
D03*
Y55610D02*
D03*
X243110Y48720D02*
D03*
Y41634D02*
D03*
X243110Y34449D02*
D03*
Y27362D02*
D03*
D48*
X166240Y12992D02*
Y25745D01*
X166960Y18602D02*
X178445D01*
X166240Y12992D02*
X168701Y10531D01*
X161811Y30174D02*
X166240Y25745D01*
X152461Y25492D02*
X155315Y28346D01*
X143169Y25492D02*
X152461D01*
X192520Y16535D02*
X193898D01*
X184843Y24213D02*
X192520Y16535D01*
X178445Y18602D02*
X184744D01*
X184843Y18701D01*
X178445Y24114D02*
X184744D01*
X176378D02*
X178445D01*
X184744D02*
X184843Y24213D01*
X174958Y22694D02*
X176378Y24114D01*
X171260Y22694D02*
X174958D01*
X157143Y30174D02*
X161811D01*
X155315Y28346D02*
X157143Y30174D01*
X138130Y30531D02*
X143169Y25492D01*
X138130Y30531D02*
Y37953D01*
X145571Y45669D02*
Y46260D01*
X137992Y38091D02*
X145571Y45669D01*
M02*
