G04 Layer_Color=16711935*
%FSLAX25Y25*%
%MOIN*%
G70*
G01*
G75*
G04:AMPARAMS|DCode=56|XSize=43.31mil|YSize=39.37mil|CornerRadius=11.81mil|HoleSize=0mil|Usage=FLASHONLY|Rotation=0.000|XOffset=0mil|YOffset=0mil|HoleType=Round|Shape=RoundedRectangle|*
%AMROUNDEDRECTD56*
21,1,0.04331,0.01575,0,0,0.0*
21,1,0.01969,0.03937,0,0,0.0*
1,1,0.02362,0.00984,-0.00787*
1,1,0.02362,-0.00984,-0.00787*
1,1,0.02362,-0.00984,0.00787*
1,1,0.02362,0.00984,0.00787*
%
%ADD56ROUNDEDRECTD56*%
G04:AMPARAMS|DCode=57|XSize=43.31mil|YSize=39.37mil|CornerRadius=11.81mil|HoleSize=0mil|Usage=FLASHONLY|Rotation=90.000|XOffset=0mil|YOffset=0mil|HoleType=Round|Shape=RoundedRectangle|*
%AMROUNDEDRECTD57*
21,1,0.04331,0.01575,0,0,90.0*
21,1,0.01969,0.03937,0,0,90.0*
1,1,0.02362,0.00787,0.00984*
1,1,0.02362,0.00787,-0.00984*
1,1,0.02362,-0.00787,-0.00984*
1,1,0.02362,-0.00787,0.00984*
%
%ADD57ROUNDEDRECTD57*%
%ADD61R,0.04331X0.04331*%
%ADD62R,0.06299X0.03937*%
%ADD63R,0.03937X0.04331*%
G04:AMPARAMS|DCode=66|XSize=74.8mil|YSize=51.18mil|CornerRadius=14.76mil|HoleSize=0mil|Usage=FLASHONLY|Rotation=270.000|XOffset=0mil|YOffset=0mil|HoleType=Round|Shape=RoundedRectangle|*
%AMROUNDEDRECTD66*
21,1,0.07480,0.02165,0,0,270.0*
21,1,0.04528,0.05118,0,0,270.0*
1,1,0.02953,-0.01083,-0.02264*
1,1,0.02953,-0.01083,0.02264*
1,1,0.02953,0.01083,0.02264*
1,1,0.02953,0.01083,-0.02264*
%
%ADD66ROUNDEDRECTD66*%
%ADD71R,0.06693X0.06693*%
%ADD72C,0.06693*%
G04:AMPARAMS|DCode=73|XSize=66.93mil|YSize=66.93mil|CornerRadius=18.7mil|HoleSize=0mil|Usage=FLASHONLY|Rotation=90.000|XOffset=0mil|YOffset=0mil|HoleType=Round|Shape=RoundedRectangle|*
%AMROUNDEDRECTD73*
21,1,0.06693,0.02953,0,0,90.0*
21,1,0.02953,0.06693,0,0,90.0*
1,1,0.03740,0.01476,0.01476*
1,1,0.03740,0.01476,-0.01476*
1,1,0.03740,-0.01476,-0.01476*
1,1,0.03740,-0.01476,0.01476*
%
%ADD73ROUNDEDRECTD73*%
G04:AMPARAMS|DCode=74|XSize=66.93mil|YSize=66.93mil|CornerRadius=18.7mil|HoleSize=0mil|Usage=FLASHONLY|Rotation=0.000|XOffset=0mil|YOffset=0mil|HoleType=Round|Shape=RoundedRectangle|*
%AMROUNDEDRECTD74*
21,1,0.06693,0.02953,0,0,0.0*
21,1,0.02953,0.06693,0,0,0.0*
1,1,0.03740,0.01476,-0.01476*
1,1,0.03740,-0.01476,-0.01476*
1,1,0.03740,-0.01476,0.01476*
1,1,0.03740,0.01476,0.01476*
%
%ADD74ROUNDEDRECTD74*%
%ADD75C,0.06299*%
G04:AMPARAMS|DCode=76|XSize=61.02mil|YSize=61.02mil|CornerRadius=17.22mil|HoleSize=0mil|Usage=FLASHONLY|Rotation=180.000|XOffset=0mil|YOffset=0mil|HoleType=Round|Shape=RoundedRectangle|*
%AMROUNDEDRECTD76*
21,1,0.06102,0.02658,0,0,180.0*
21,1,0.02658,0.06102,0,0,180.0*
1,1,0.03445,-0.01329,0.01329*
1,1,0.03445,0.01329,0.01329*
1,1,0.03445,0.01329,-0.01329*
1,1,0.03445,-0.01329,-0.01329*
%
%ADD76ROUNDEDRECTD76*%
%ADD77C,0.06102*%
G04:AMPARAMS|DCode=78|XSize=204.72mil|YSize=165.35mil|CornerRadius=43.31mil|HoleSize=0mil|Usage=FLASHONLY|Rotation=90.000|XOffset=0mil|YOffset=0mil|HoleType=Round|Shape=RoundedRectangle|*
%AMROUNDEDRECTD78*
21,1,0.20472,0.07874,0,0,90.0*
21,1,0.11811,0.16535,0,0,90.0*
1,1,0.08661,0.03937,0.05906*
1,1,0.08661,0.03937,-0.05906*
1,1,0.08661,-0.03937,-0.05906*
1,1,0.08661,-0.03937,0.05906*
%
%ADD78ROUNDEDRECTD78*%
G04:AMPARAMS|DCode=79|XSize=59.06mil|YSize=59.06mil|CornerRadius=16.73mil|HoleSize=0mil|Usage=FLASHONLY|Rotation=90.000|XOffset=0mil|YOffset=0mil|HoleType=Round|Shape=RoundedRectangle|*
%AMROUNDEDRECTD79*
21,1,0.05906,0.02559,0,0,90.0*
21,1,0.02559,0.05906,0,0,90.0*
1,1,0.03346,0.01280,0.01280*
1,1,0.03346,0.01280,-0.01280*
1,1,0.03346,-0.01280,-0.01280*
1,1,0.03346,-0.01280,0.01280*
%
%ADD79ROUNDEDRECTD79*%
G04:AMPARAMS|DCode=80|XSize=70.87mil|YSize=43.31mil|CornerRadius=12.8mil|HoleSize=0mil|Usage=FLASHONLY|Rotation=0.000|XOffset=0mil|YOffset=0mil|HoleType=Round|Shape=RoundedRectangle|*
%AMROUNDEDRECTD80*
21,1,0.07087,0.01772,0,0,0.0*
21,1,0.04528,0.04331,0,0,0.0*
1,1,0.02559,0.02264,-0.00886*
1,1,0.02559,-0.02264,-0.00886*
1,1,0.02559,-0.02264,0.00886*
1,1,0.02559,0.02264,0.00886*
%
%ADD80ROUNDEDRECTD80*%
%ADD81R,0.04331X0.03937*%
%ADD82R,0.03150X0.05118*%
%ADD83R,0.02756X0.02756*%
G04:AMPARAMS|DCode=84|XSize=70.87mil|YSize=43.31mil|CornerRadius=12.8mil|HoleSize=0mil|Usage=FLASHONLY|Rotation=270.000|XOffset=0mil|YOffset=0mil|HoleType=Round|Shape=RoundedRectangle|*
%AMROUNDEDRECTD84*
21,1,0.07087,0.01772,0,0,270.0*
21,1,0.04528,0.04331,0,0,270.0*
1,1,0.02559,-0.00886,-0.02264*
1,1,0.02559,-0.00886,0.02264*
1,1,0.02559,0.00886,0.02264*
1,1,0.02559,0.00886,-0.02264*
%
%ADD84ROUNDEDRECTD84*%
G04:AMPARAMS|DCode=85|XSize=59.06mil|YSize=59.06mil|CornerRadius=16.73mil|HoleSize=0mil|Usage=FLASHONLY|Rotation=0.000|XOffset=0mil|YOffset=0mil|HoleType=Round|Shape=RoundedRectangle|*
%AMROUNDEDRECTD85*
21,1,0.05906,0.02559,0,0,0.0*
21,1,0.02559,0.05906,0,0,0.0*
1,1,0.03346,0.01280,-0.01280*
1,1,0.03346,-0.01280,-0.01280*
1,1,0.03346,-0.01280,0.01280*
1,1,0.03346,0.01280,0.01280*
%
%ADD85ROUNDEDRECTD85*%
%ADD86R,0.03937X0.06299*%
%ADD87R,0.05118X0.03150*%
G04:AMPARAMS|DCode=88|XSize=139.76mil|YSize=94.49mil|CornerRadius=25.59mil|HoleSize=0mil|Usage=FLASHONLY|Rotation=90.000|XOffset=0mil|YOffset=0mil|HoleType=Round|Shape=RoundedRectangle|*
%AMROUNDEDRECTD88*
21,1,0.13976,0.04331,0,0,90.0*
21,1,0.08858,0.09449,0,0,90.0*
1,1,0.05118,0.02165,0.04429*
1,1,0.05118,0.02165,-0.04429*
1,1,0.05118,-0.02165,-0.04429*
1,1,0.05118,-0.02165,0.04429*
%
%ADD88ROUNDEDRECTD88*%
G04:AMPARAMS|DCode=89|XSize=66.93mil|YSize=55.12mil|CornerRadius=15.75mil|HoleSize=0mil|Usage=FLASHONLY|Rotation=0.000|XOffset=0mil|YOffset=0mil|HoleType=Round|Shape=RoundedRectangle|*
%AMROUNDEDRECTD89*
21,1,0.06693,0.02362,0,0,0.0*
21,1,0.03543,0.05512,0,0,0.0*
1,1,0.03150,0.01772,-0.01181*
1,1,0.03150,-0.01772,-0.01181*
1,1,0.03150,-0.01772,0.01181*
1,1,0.03150,0.01772,0.01181*
%
%ADD89ROUNDEDRECTD89*%
G36*
X340256Y21987D02*
X340354Y21888D01*
Y1772D01*
X339999Y1420D01*
X323622Y1613D01*
Y27846D01*
X324033Y28130D01*
X340256Y21987D01*
D02*
G37*
G36*
X340748Y139862D02*
X340650Y139764D01*
X324276Y130705D01*
X323845Y130959D01*
X323787Y156142D01*
X324141Y156496D01*
X340748Y156496D01*
Y139862D01*
D02*
G37*
D56*
X114567Y124902D02*
D03*
Y130413D02*
D03*
X155315Y28346D02*
D03*
Y22835D02*
D03*
X184843Y18701D02*
D03*
Y24213D02*
D03*
D57*
X138091Y118110D02*
D03*
X132579D02*
D03*
X122047Y117323D02*
D03*
X127559D02*
D03*
X137992Y38091D02*
D03*
X143504D02*
D03*
D61*
X233858Y34350D02*
D03*
X224410D02*
D03*
X233760Y41634D02*
D03*
X224311D02*
D03*
X233661Y48720D02*
D03*
X224213D02*
D03*
X233661Y55709D02*
D03*
X224213D02*
D03*
X233760Y62697D02*
D03*
X224311D02*
D03*
X233563Y69685D02*
D03*
X224114D02*
D03*
X233760Y76772D02*
D03*
X224311D02*
D03*
X233563Y83661D02*
D03*
X224114D02*
D03*
X233661Y91142D02*
D03*
X224213D02*
D03*
X233661Y97835D02*
D03*
X224213D02*
D03*
X233661Y104823D02*
D03*
X224213D02*
D03*
X233661Y111909D02*
D03*
X224213D02*
D03*
X233957Y118996D02*
D03*
X224508D02*
D03*
D62*
X108760Y109646D02*
D03*
Y118307D02*
D03*
D63*
X147539Y148327D02*
D03*
X142028D02*
D03*
D66*
X234055Y128543D02*
D03*
X223425D02*
D03*
X253445Y121654D02*
D03*
X242815D02*
D03*
D71*
X10335Y119882D02*
D03*
X83169Y13681D02*
D03*
X8563Y17126D02*
D03*
D72*
X10335Y129882D02*
D03*
X266673Y49114D02*
D03*
X276673Y59114D02*
D03*
X266673D02*
D03*
X276673Y69114D02*
D03*
X266673D02*
D03*
X276673Y79114D02*
D03*
X266673D02*
D03*
X276673Y89114D02*
D03*
X266673D02*
D03*
X276673Y99114D02*
D03*
X266673D02*
D03*
X83169Y23681D02*
D03*
X8563Y27126D02*
D03*
Y37126D02*
D03*
X276240Y31890D02*
D03*
D73*
X276673Y49114D02*
D03*
D74*
X266240Y31890D02*
D03*
D75*
X267146Y124921D02*
D03*
Y134921D02*
D03*
X277146D02*
D03*
Y124921D02*
D03*
X272146Y129921D02*
D03*
X28032Y137323D02*
D03*
X18032D02*
D03*
Y147323D02*
D03*
X28032D02*
D03*
X23031Y142323D02*
D03*
D76*
X179469Y12183D02*
D03*
D77*
X150256D02*
D03*
D78*
X57776Y20059D02*
D03*
X57854Y139508D02*
D03*
D79*
X129823Y104921D02*
D03*
D80*
X120256Y99449D02*
D03*
X120374Y110433D02*
D03*
D81*
X135728Y124998D02*
D03*
Y130509D02*
D03*
X178445Y24114D02*
D03*
Y18602D02*
D03*
X177559Y39961D02*
D03*
Y34449D02*
D03*
D82*
X120857Y124065D02*
D03*
X128337D02*
D03*
Y133514D02*
D03*
X124597D02*
D03*
X120857D02*
D03*
D83*
X160039Y10531D02*
D03*
X168701D02*
D03*
D84*
X149114Y30413D02*
D03*
X138130Y30531D02*
D03*
D85*
X143602Y20965D02*
D03*
D86*
X136909Y46260D02*
D03*
X145571D02*
D03*
D87*
X161811Y30174D02*
D03*
Y22694D02*
D03*
X171260D02*
D03*
Y26434D02*
D03*
Y30174D02*
D03*
D88*
X193898Y16535D02*
D03*
X218701D02*
D03*
D89*
X253642Y34252D02*
D03*
Y41339D02*
D03*
X253642Y104921D02*
D03*
Y112008D02*
D03*
X243110Y104823D02*
D03*
Y97736D02*
D03*
X253642Y90748D02*
D03*
Y97835D02*
D03*
X243110Y90748D02*
D03*
Y83661D02*
D03*
X253642Y76279D02*
D03*
Y83366D02*
D03*
X243110Y76673D02*
D03*
Y69587D02*
D03*
X253642Y62500D02*
D03*
Y69587D02*
D03*
X243110Y62697D02*
D03*
Y55610D02*
D03*
X253642Y48524D02*
D03*
Y55610D02*
D03*
X243110Y48720D02*
D03*
Y41634D02*
D03*
X243110Y34449D02*
D03*
Y27362D02*
D03*
M02*
