G04 Layer_Color=32896*
%FSLAX25Y25*%
%MOIN*%
G70*
G01*
G75*
%ADD49C,0.00984*%
%ADD50C,0.01000*%
%ADD51C,0.00787*%
%ADD52C,0.00394*%
%ADD53C,0.00591*%
%ADD90C,0.03937*%
D49*
X118002Y133514D02*
G03*
X118002Y133514I-492J0D01*
G01*
X171752Y33521D02*
G03*
X171752Y33521I-492J0D01*
G01*
D50*
X57310Y36870D02*
Y40869D01*
X59309Y38869D02*
X55311D01*
X60860Y61398D02*
X54862D01*
Y65396D01*
X60860Y67396D02*
Y69395D01*
Y68395D01*
X54862D01*
Y67396D01*
Y69395D01*
Y72394D02*
X60860D01*
Y75393D01*
X59861Y76393D01*
X57861D01*
X56862Y75393D01*
Y72394D01*
Y74393D02*
X54862Y76393D01*
Y82391D02*
Y78392D01*
X58861Y82391D01*
X59861D01*
X60860Y81391D01*
Y79392D01*
X59861Y78392D01*
X54862Y87389D02*
X60860D01*
X57861Y84390D01*
Y88389D01*
X59861Y90388D02*
X60860Y91388D01*
Y93387D01*
X59861Y94387D01*
X58861D01*
X57861Y93387D01*
Y92388D01*
Y93387D01*
X56862Y94387D01*
X55862D01*
X54862Y93387D01*
Y91388D01*
X55862Y90388D01*
X59861Y96386D02*
X60860Y97386D01*
Y99385D01*
X59861Y100385D01*
X55862D01*
X54862Y99385D01*
Y97386D01*
X55862Y96386D01*
X59861D01*
D51*
X112760Y106976D02*
Y121476D01*
X105260D02*
X112760D01*
X104947Y121164D02*
X105072Y121289D01*
X104760Y106976D02*
Y120976D01*
Y106976D02*
X112760D01*
X104760Y120976D02*
X104885Y121101D01*
X105135Y121351D02*
X105260Y121476D01*
X104885Y121101D02*
X104947Y121164D01*
X105072Y121289D02*
X105135Y121351D01*
X118691Y127805D02*
X130502D01*
X118691Y129774D02*
X130502D01*
Y127805D02*
Y129774D01*
X118691Y127805D02*
Y129774D01*
X166496Y8169D02*
Y12894D01*
X134240Y42260D02*
X148740D01*
Y49760D01*
X148428Y50072D02*
X148553Y49947D01*
X134240Y50260D02*
X148240D01*
X134240Y42260D02*
Y50260D01*
X148240D02*
X148365Y50135D01*
X148615Y49885D02*
X148740Y49760D01*
X148365Y50135D02*
X148428Y50072D01*
X148553Y49947D02*
X148615Y49885D01*
X165551Y20529D02*
Y32340D01*
X167520Y20529D02*
Y32340D01*
X165551Y20529D02*
X167520D01*
X165551Y32340D02*
X167520D01*
X199803Y10335D02*
X212795D01*
X199803Y22736D02*
X212795D01*
X227165Y131496D02*
X230315D01*
X227165Y125590D02*
X230315D01*
X246555Y124606D02*
X249705D01*
X246555Y118701D02*
X249705D01*
D52*
X230787Y32106D02*
Y36870D01*
X230689Y39390D02*
Y44154D01*
X230591Y46476D02*
Y51240D01*
Y53465D02*
Y58228D01*
X230689Y60453D02*
Y65216D01*
X230492Y67441D02*
Y72205D01*
X230689Y74528D02*
Y79291D01*
X230492Y81417D02*
Y86181D01*
X230591Y88898D02*
Y93661D01*
Y95591D02*
Y100354D01*
Y102579D02*
Y107343D01*
Y109665D02*
Y114429D01*
X230886Y116752D02*
Y121516D01*
X161102Y8051D02*
Y8878D01*
Y8051D02*
X161142Y8012D01*
X162047D01*
X161063Y12146D02*
Y13012D01*
X161929D01*
D53*
X148228Y141535D02*
Y144487D01*
X146752D01*
X146260Y143995D01*
Y143011D01*
X146752Y142519D01*
X148228D01*
X147244D02*
X146260Y141535D01*
X145276D02*
X144293D01*
X144785D01*
Y144487D01*
X145276Y143995D01*
X140849Y144487D02*
X141833Y143995D01*
X142817Y143011D01*
Y142027D01*
X142325Y141535D01*
X141341D01*
X140849Y142027D01*
Y142519D01*
X141341Y143011D01*
X142817D01*
X137107Y114468D02*
X137599Y114960D01*
X138583D01*
X139075Y114468D01*
Y112500D01*
X138583Y112008D01*
X137599D01*
X137107Y112500D01*
X136123Y114468D02*
X135631Y114960D01*
X134647D01*
X134155Y114468D01*
Y113976D01*
X134647Y113484D01*
X135139D01*
X134647D01*
X134155Y112992D01*
Y112500D01*
X134647Y112008D01*
X135631D01*
X136123Y112500D01*
X133171Y114960D02*
X131203D01*
Y114468D01*
X133171Y112500D01*
Y112008D01*
X169535Y18831D02*
Y15879D01*
X168059D01*
X167567Y16371D01*
Y18338D01*
X168059Y18831D01*
X169535D01*
X164615Y15879D02*
X166583D01*
X164615Y17847D01*
Y18338D01*
X165107Y18831D01*
X166091D01*
X166583Y18338D01*
X163631Y16371D02*
X163139Y15879D01*
X162155D01*
X161663Y16371D01*
Y18338D01*
X162155Y18831D01*
X163139D01*
X163631Y18338D01*
Y17847D01*
X163139Y17355D01*
X161663D01*
X229430Y135728D02*
X229922Y136220D01*
X230906D01*
X231398Y135728D01*
Y133760D01*
X230906Y133268D01*
X229922D01*
X229430Y133760D01*
X228446Y133268D02*
X227462D01*
X227954D01*
Y136220D01*
X228446Y135728D01*
X224510Y133268D02*
Y136220D01*
X225986Y134744D01*
X224018D01*
X250296Y130019D02*
X250788Y130511D01*
X251772D01*
X252264Y130019D01*
Y128051D01*
X251772Y127559D01*
X250788D01*
X250296Y128051D01*
X249312Y127559D02*
X248328D01*
X248820D01*
Y130511D01*
X249312Y130019D01*
X244884Y130511D02*
X246852D01*
Y129035D01*
X245868Y129527D01*
X245376D01*
X244884Y129035D01*
Y128051D01*
X245376Y127559D01*
X246360D01*
X246852Y128051D01*
X259253Y110532D02*
X258761Y111024D01*
Y112008D01*
X259253Y112500D01*
X261221D01*
X261713Y112008D01*
Y111024D01*
X261221Y110532D01*
X261713Y109548D02*
Y108564D01*
Y109056D01*
X258761D01*
X259253Y109548D01*
X258761Y105121D02*
X259253Y106104D01*
X260237Y107088D01*
X261221D01*
X261713Y106596D01*
Y105612D01*
X261221Y105121D01*
X260729D01*
X260237Y105612D01*
Y107088D01*
X245178Y112302D02*
X245670Y112794D01*
X246654D01*
X247146Y112302D01*
Y110335D01*
X246654Y109843D01*
X245670D01*
X245178Y110335D01*
X244194Y109843D02*
X243210D01*
X243702D01*
Y112794D01*
X244194Y112302D01*
X241734Y112794D02*
X239766D01*
Y112302D01*
X241734Y110335D01*
Y109843D01*
X259056Y96851D02*
X258564Y97343D01*
Y98327D01*
X259056Y98819D01*
X261024D01*
X261516Y98327D01*
Y97343D01*
X261024Y96851D01*
X261516Y95867D02*
Y94883D01*
Y95375D01*
X258564D01*
X259056Y95867D01*
Y93407D02*
X258564Y92915D01*
Y91931D01*
X259056Y91439D01*
X259548D01*
X260040Y91931D01*
X260532Y91439D01*
X261024D01*
X261516Y91931D01*
Y92915D01*
X261024Y93407D01*
X260532D01*
X260040Y92915D01*
X259548Y93407D01*
X259056D01*
X260040Y92915D02*
Y91931D01*
X244981Y23227D02*
X245473Y23720D01*
X246457D01*
X246949Y23227D01*
Y21260D01*
X246457Y20768D01*
X245473D01*
X244981Y21260D01*
X243997Y20768D02*
X243013D01*
X243505D01*
Y23720D01*
X243997Y23227D01*
X241537Y21260D02*
X241045Y20768D01*
X240061D01*
X239569Y21260D01*
Y23227D01*
X240061Y23720D01*
X241045D01*
X241537Y23227D01*
Y22736D01*
X241045Y22244D01*
X239569D01*
X259351Y83072D02*
X258859Y83564D01*
Y84547D01*
X259351Y85039D01*
X261319D01*
X261811Y84547D01*
Y83564D01*
X261319Y83072D01*
X261811Y80120D02*
Y82088D01*
X259843Y80120D01*
X259351D01*
X258859Y80612D01*
Y81596D01*
X259351Y82088D01*
Y79136D02*
X258859Y78644D01*
Y77660D01*
X259351Y77168D01*
X261319D01*
X261811Y77660D01*
Y78644D01*
X261319Y79136D01*
X259351D01*
X244981Y18380D02*
X245473Y18872D01*
X246457D01*
X246949Y18380D01*
Y16412D01*
X246457Y15920D01*
X245473D01*
X244981Y16412D01*
X242029Y15920D02*
X243997D01*
X242029Y17888D01*
Y18380D01*
X242521Y18872D01*
X243505D01*
X243997Y18380D01*
X241045Y15920D02*
X240061D01*
X240553D01*
Y18872D01*
X241045Y18380D01*
X259253Y68308D02*
X258761Y68800D01*
Y69784D01*
X259253Y70276D01*
X261221D01*
X261713Y69784D01*
Y68800D01*
X261221Y68308D01*
X261713Y65356D02*
Y67324D01*
X259745Y65356D01*
X259253D01*
X258761Y65848D01*
Y66832D01*
X259253Y67324D01*
X261713Y62404D02*
Y64372D01*
X259745Y62404D01*
X259253D01*
X258761Y62896D01*
Y63880D01*
X259253Y64372D01*
X244981Y13533D02*
X245473Y14025D01*
X246457D01*
X246949Y13533D01*
Y11565D01*
X246457Y11073D01*
X245473D01*
X244981Y11565D01*
X242029Y11073D02*
X243997D01*
X242029Y13041D01*
Y13533D01*
X242521Y14025D01*
X243505D01*
X243997Y13533D01*
X241045D02*
X240553Y14025D01*
X239569D01*
X239077Y13533D01*
Y13041D01*
X239569Y12549D01*
X240061D01*
X239569D01*
X239077Y12057D01*
Y11565D01*
X239569Y11073D01*
X240553D01*
X241045Y11565D01*
X259253Y54627D02*
X258761Y55119D01*
Y56103D01*
X259253Y56595D01*
X261221D01*
X261713Y56103D01*
Y55119D01*
X261221Y54627D01*
X261713Y51675D02*
Y53643D01*
X259745Y51675D01*
X259253D01*
X258761Y52167D01*
Y53151D01*
X259253Y53643D01*
X261713Y49215D02*
X258761D01*
X260237Y50691D01*
Y48723D01*
X244882Y8685D02*
X245374Y9177D01*
X246358D01*
X246850Y8685D01*
Y6717D01*
X246358Y6225D01*
X245374D01*
X244882Y6717D01*
X241931Y6225D02*
X243899D01*
X241931Y8193D01*
Y8685D01*
X242423Y9177D01*
X243407D01*
X243899Y8685D01*
X238979Y9177D02*
X240947D01*
Y7701D01*
X239963Y8193D01*
X239471D01*
X238979Y7701D01*
Y6717D01*
X239471Y6225D01*
X240455D01*
X240947Y6717D01*
X258761Y39961D02*
X258269Y40453D01*
Y41437D01*
X258761Y41929D01*
X260729D01*
X261221Y41437D01*
Y40453D01*
X260729Y39961D01*
X261221Y37010D02*
Y38977D01*
X259253Y37010D01*
X258761D01*
X258269Y37501D01*
Y38485D01*
X258761Y38977D01*
X258269Y34058D02*
X258761Y35042D01*
X259745Y36026D01*
X260729D01*
X261221Y35534D01*
Y34550D01*
X260729Y34058D01*
X260237D01*
X259745Y34550D01*
Y36026D01*
X254922Y5905D02*
X255414Y6397D01*
X256398D01*
X256890Y5905D01*
Y3937D01*
X256398Y3445D01*
X255414D01*
X254922Y3937D01*
X251970Y3445D02*
X253938D01*
X251970Y5413D01*
Y5905D01*
X252462Y6397D01*
X253446D01*
X253938Y5905D01*
X250986Y6397D02*
X249018D01*
Y5905D01*
X250986Y3937D01*
Y3445D01*
X220374Y120176D02*
Y117224D01*
X218898D01*
X218406Y117716D01*
Y119684D01*
X218898Y120176D01*
X220374D01*
X215454Y117224D02*
X217422D01*
X215454Y119192D01*
Y119684D01*
X215946Y120176D01*
X216930D01*
X217422Y119684D01*
X220669Y113385D02*
Y110433D01*
X219193D01*
X218701Y110925D01*
Y112893D01*
X219193Y113385D01*
X220669D01*
X216242Y110433D02*
Y113385D01*
X217718Y111909D01*
X215750D01*
X220374Y106298D02*
Y103347D01*
X218898D01*
X218406Y103838D01*
Y105806D01*
X218898Y106298D01*
X220374D01*
X215454D02*
X216438Y105806D01*
X217422Y104822D01*
Y103838D01*
X216930Y103347D01*
X215946D01*
X215454Y103838D01*
Y104330D01*
X215946Y104822D01*
X217422D01*
X220374Y99113D02*
Y96161D01*
X218898D01*
X218406Y96653D01*
Y98621D01*
X218898Y99113D01*
X220374D01*
X217422Y98621D02*
X216930Y99113D01*
X215946D01*
X215454Y98621D01*
Y98129D01*
X215946Y97637D01*
X215454Y97145D01*
Y96653D01*
X215946Y96161D01*
X216930D01*
X217422Y96653D01*
Y97145D01*
X216930Y97637D01*
X217422Y98129D01*
Y98621D01*
X216930Y97637D02*
X215946D01*
X220079Y92322D02*
Y89370D01*
X218603D01*
X218111Y89862D01*
Y91830D01*
X218603Y92322D01*
X220079D01*
X217127Y89370D02*
X216143D01*
X216635D01*
Y92322D01*
X217127Y91830D01*
X214667D02*
X214175Y92322D01*
X213191D01*
X212699Y91830D01*
Y89862D01*
X213191Y89370D01*
X214175D01*
X214667Y89862D01*
Y91830D01*
X219980Y84645D02*
Y81693D01*
X218504D01*
X218012Y82185D01*
Y84153D01*
X218504Y84645D01*
X219980D01*
X217028Y81693D02*
X216045D01*
X216536D01*
Y84645D01*
X217028Y84153D01*
X212601Y81693D02*
X214569D01*
X212601Y83661D01*
Y84153D01*
X213093Y84645D01*
X214077D01*
X214569Y84153D01*
X219685Y77460D02*
Y74508D01*
X218209D01*
X217717Y75000D01*
Y76968D01*
X218209Y77460D01*
X219685D01*
X216733Y74508D02*
X215749D01*
X216241D01*
Y77460D01*
X216733Y76968D01*
X212797Y74508D02*
Y77460D01*
X214273Y75984D01*
X212305D01*
X220079Y71161D02*
Y68209D01*
X218603D01*
X218111Y68701D01*
Y70669D01*
X218603Y71161D01*
X220079D01*
X217127Y68209D02*
X216143D01*
X216635D01*
Y71161D01*
X217127Y70669D01*
X212699Y71161D02*
X213683Y70669D01*
X214667Y69685D01*
Y68701D01*
X214175Y68209D01*
X213191D01*
X212699Y68701D01*
Y69193D01*
X213191Y69685D01*
X214667D01*
X219980Y63582D02*
Y60630D01*
X218504D01*
X218012Y61122D01*
Y63090D01*
X218504Y63582D01*
X219980D01*
X217028Y60630D02*
X216045D01*
X216536D01*
Y63582D01*
X217028Y63090D01*
X214569D02*
X214077Y63582D01*
X213093D01*
X212601Y63090D01*
Y62598D01*
X213093Y62106D01*
X212601Y61614D01*
Y61122D01*
X213093Y60630D01*
X214077D01*
X214569Y61122D01*
Y61614D01*
X214077Y62106D01*
X214569Y62598D01*
Y63090D01*
X214077Y62106D02*
X213093D01*
X219980Y56987D02*
Y54035D01*
X218504D01*
X218012Y54527D01*
Y56495D01*
X218504Y56987D01*
X219980D01*
X215061Y54035D02*
X217028D01*
X215061Y56003D01*
Y56495D01*
X215553Y56987D01*
X216536D01*
X217028Y56495D01*
X214077D02*
X213585Y56987D01*
X212601D01*
X212109Y56495D01*
Y54527D01*
X212601Y54035D01*
X213585D01*
X214077Y54527D01*
Y56495D01*
X219783Y49901D02*
Y46949D01*
X218308D01*
X217816Y47441D01*
Y49409D01*
X218308Y49901D01*
X219783D01*
X214864Y46949D02*
X216832D01*
X214864Y48917D01*
Y49409D01*
X215356Y49901D01*
X216340D01*
X216832Y49409D01*
X211912Y46949D02*
X213880D01*
X211912Y48917D01*
Y49409D01*
X212404Y49901D01*
X213388D01*
X213880Y49409D01*
X220079Y43109D02*
Y40157D01*
X218603D01*
X218111Y40650D01*
Y42617D01*
X218603Y43109D01*
X220079D01*
X215159Y40157D02*
X217127D01*
X215159Y42125D01*
Y42617D01*
X215651Y43109D01*
X216635D01*
X217127Y42617D01*
X212699Y40157D02*
Y43109D01*
X214175Y41633D01*
X212207D01*
X219587Y35727D02*
Y32776D01*
X218111D01*
X217619Y33268D01*
Y35235D01*
X218111Y35727D01*
X219587D01*
X214667Y32776D02*
X216635D01*
X214667Y34743D01*
Y35235D01*
X215159Y35727D01*
X216143D01*
X216635Y35235D01*
X211715Y35727D02*
X212699Y35235D01*
X213683Y34251D01*
Y33268D01*
X213191Y32776D01*
X212207D01*
X211715Y33268D01*
Y33759D01*
X212207Y34251D01*
X213683D01*
X156102Y33858D02*
X156594Y33366D01*
Y32382D01*
X156102Y31890D01*
X154134D01*
X153642Y32382D01*
Y33366D01*
X154134Y33858D01*
X153642Y36809D02*
Y34842D01*
X155610Y36809D01*
X156102D01*
X156594Y36318D01*
Y35334D01*
X156102Y34842D01*
X154134Y37793D02*
X153642Y38285D01*
Y39269D01*
X154134Y39761D01*
X156102D01*
X156594Y39269D01*
Y38285D01*
X156102Y37793D01*
X155610D01*
X155118Y38285D01*
Y39761D01*
X186065Y9349D02*
X186557Y8857D01*
Y7873D01*
X186065Y7381D01*
X184097D01*
X183605Y7873D01*
Y8857D01*
X184097Y9349D01*
X186065Y10333D02*
X186557Y10825D01*
Y11808D01*
X186065Y12301D01*
X185573D01*
X185081Y11808D01*
Y11317D01*
Y11808D01*
X184589Y12301D01*
X184097D01*
X183605Y11808D01*
Y10825D01*
X184097Y10333D01*
X186065Y13284D02*
X186557Y13776D01*
Y14760D01*
X186065Y15252D01*
X184097D01*
X183605Y14760D01*
Y13776D01*
X184097Y13284D01*
X186065D01*
X131398Y39566D02*
X131890Y40058D01*
X132874D01*
X133366Y39566D01*
Y37598D01*
X132874Y37106D01*
X131890D01*
X131398Y37598D01*
X130414Y39566D02*
X129922Y40058D01*
X128938D01*
X128446Y39566D01*
Y39074D01*
X128938Y38582D01*
X129430D01*
X128938D01*
X128446Y38090D01*
Y37598D01*
X128938Y37106D01*
X129922D01*
X130414Y37598D01*
X127462Y37106D02*
X126479D01*
X126971D01*
Y40058D01*
X127462Y39566D01*
X144783Y55053D02*
Y52101D01*
X142816D01*
X141832Y55053D02*
X139864Y52101D01*
Y55053D02*
X141832Y52101D01*
X138880D02*
X137896D01*
X138388D01*
Y55053D01*
X138880Y54561D01*
X133268Y26280D02*
Y29231D01*
X131792D01*
X131300Y28739D01*
Y27755D01*
X131792Y27264D01*
X133268D01*
X132284D02*
X131300Y26280D01*
X130316Y28739D02*
X129824Y29231D01*
X128840D01*
X128348Y28739D01*
Y28247D01*
X128840Y27755D01*
X129332D01*
X128840D01*
X128348Y27264D01*
Y26772D01*
X128840Y26280D01*
X129824D01*
X130316Y26772D01*
X186713Y36417D02*
Y39369D01*
X185237D01*
X184745Y38877D01*
Y37893D01*
X185237Y37401D01*
X186713D01*
X185729D02*
X184745Y36417D01*
X181793Y39369D02*
X183761D01*
Y37893D01*
X182777Y38385D01*
X182285D01*
X181793Y37893D01*
Y36909D01*
X182285Y36417D01*
X183269D01*
X183761Y36909D01*
X207874Y25886D02*
Y28838D01*
X206398D01*
X205906Y28346D01*
Y27362D01*
X206398Y26870D01*
X207874D01*
X206890D02*
X205906Y25886D01*
X202954Y28838D02*
X203938Y28346D01*
X204922Y27362D01*
Y26378D01*
X204430Y25886D01*
X203446D01*
X202954Y26378D01*
Y26870D01*
X203446Y27362D01*
X204922D01*
X180217Y27362D02*
Y30314D01*
X178741D01*
X178249Y29822D01*
Y28838D01*
X178741Y28346D01*
X180217D01*
X179233D02*
X178249Y27362D01*
X177265Y30314D02*
X175297D01*
Y29822D01*
X177265Y27854D01*
Y27362D01*
X169193Y37598D02*
Y35138D01*
X168701Y34646D01*
X167717D01*
X167225Y35138D01*
Y37598D01*
X166241Y34646D02*
X165257D01*
X165749D01*
Y37598D01*
X166241Y37106D01*
X118109Y115944D02*
X118601Y115452D01*
Y114468D01*
X118109Y113976D01*
X116142D01*
X115650Y114468D01*
Y115452D01*
X116142Y115944D01*
X118109Y116928D02*
X118601Y117420D01*
Y118404D01*
X118109Y118896D01*
X117617D01*
X117125Y118404D01*
Y117912D01*
Y118404D01*
X116633Y118896D01*
X116142D01*
X115650Y118404D01*
Y117420D01*
X116142Y116928D01*
X115650Y121356D02*
X118601D01*
X117125Y119880D01*
Y121848D01*
X111416Y125787D02*
X111908Y125295D01*
Y124311D01*
X111416Y123819D01*
X109449D01*
X108957Y124311D01*
Y125295D01*
X109449Y125787D01*
X111416Y126771D02*
X111908Y127263D01*
Y128247D01*
X111416Y128739D01*
X110925D01*
X110433Y128247D01*
Y127755D01*
Y128247D01*
X109941Y128739D01*
X109449D01*
X108957Y128247D01*
Y127263D01*
X109449Y126771D01*
X111908Y131690D02*
Y129722D01*
X110433D01*
X110925Y130707D01*
Y131198D01*
X110433Y131690D01*
X109449D01*
X108957Y131198D01*
Y130215D01*
X109449Y129722D01*
X102755Y110925D02*
X99803D01*
Y112893D01*
X102755Y113877D02*
X99803Y115845D01*
X102755D02*
X99803Y113877D01*
Y118797D02*
Y116829D01*
X101771Y118797D01*
X102263D01*
X102755Y118305D01*
Y117321D01*
X102263Y116829D01*
X139862Y123819D02*
X142814D01*
Y125295D01*
X142322Y125787D01*
X141338D01*
X140846Y125295D01*
Y123819D01*
Y124803D02*
X139862Y125787D01*
Y126771D02*
Y127755D01*
Y127263D01*
X142814D01*
X142322Y126771D01*
Y129230D02*
X142814Y129722D01*
Y130706D01*
X142322Y131198D01*
X140354D01*
X139862Y130706D01*
Y129722D01*
X140354Y129230D01*
X142322D01*
X142520Y104035D02*
Y106987D01*
X141044D01*
X140552Y106495D01*
Y105511D01*
X141044Y105019D01*
X142520D01*
X141536D02*
X140552Y104035D01*
X139568D02*
X138584D01*
X139076D01*
Y106987D01*
X139568Y106495D01*
X137108D02*
X136616Y106987D01*
X135632D01*
X135140Y106495D01*
Y106003D01*
X135632Y105511D01*
X136124D01*
X135632D01*
X135140Y105019D01*
Y104527D01*
X135632Y104035D01*
X136616D01*
X137108Y104527D01*
X127854Y141534D02*
Y139075D01*
X127362Y138583D01*
X126378D01*
X125886Y139075D01*
Y141534D01*
X122935Y138583D02*
X124902D01*
X122935Y140550D01*
Y141042D01*
X123427Y141534D01*
X124410D01*
X124902Y141042D01*
D90*
X104350Y79547D02*
G03*
X104350Y79547I-48228J0D01*
G01*
M02*
