G04 Layer_Color=65535*
%FSLAX25Y25*%
%MOIN*%
G70*
G01*
G75*
%ADD12C,0.00984*%
%ADD13C,0.00787*%
%ADD14C,0.01000*%
D12*
X-25295Y-8563D02*
G03*
X-25295Y-8563I-492J0D01*
G01*
X35630Y7972D02*
G03*
X35630Y7972I-492J0D01*
G01*
D13*
X-31299Y-22146D02*
Y-11122D01*
X-31299Y-22146D02*
X-20276D01*
Y-11122D01*
X-31299Y-11122D02*
X-20276D01*
X29626Y-5610D02*
Y5413D01*
X29626Y-5610D02*
X40650D01*
Y5413D01*
X29626Y5413D02*
X40650D01*
D14*
X18602Y14075D02*
X19914D01*
X19258D01*
Y18011D01*
X18602Y17355D01*
X21882D02*
X22538Y18011D01*
X23850D01*
X24506Y17355D01*
Y14731D01*
X23850Y14075D01*
X22538D01*
X21882Y14731D01*
Y17355D01*
X-33072Y7972D02*
Y11908D01*
X-35039Y9940D01*
X-32416D01*
X-12598Y-29134D02*
X-11287D01*
X-11942D01*
Y-25198D01*
X-12598Y-25854D01*
X-787Y-35335D02*
X525D01*
X-131D01*
Y-31399D01*
X-787Y-32055D01*
X4460Y-35335D02*
Y-31399D01*
X2492Y-33367D01*
X5116D01*
X26870Y23786D02*
X27526Y23130D01*
X28838D01*
X29494Y23786D01*
Y26410D01*
X28838Y27066D01*
X27526D01*
X26870Y26410D01*
Y25754D01*
X27526Y25098D01*
X29494D01*
X14567Y35465D02*
X15223Y36121D01*
X16535D01*
X17191Y35465D01*
Y34809D01*
X16535Y34153D01*
X17191Y33497D01*
Y32841D01*
X16535Y32185D01*
X15223D01*
X14567Y32841D01*
Y33497D01*
X15223Y34153D01*
X14567Y34809D01*
Y35465D01*
X15223Y34153D02*
X16535D01*
X492Y39270D02*
X3116D01*
Y38614D01*
X492Y35991D01*
Y35335D01*
X-12534Y35530D02*
X-13846Y34874D01*
X-15157Y33562D01*
Y32250D01*
X-14502Y31594D01*
X-13190D01*
X-12534Y32250D01*
Y32906D01*
X-13190Y33562D01*
X-15157D01*
X-25231Y25392D02*
X-27854D01*
Y23425D01*
X-26542Y24081D01*
X-25886D01*
X-25231Y23425D01*
Y22113D01*
X-25886Y21457D01*
X-27198D01*
X-27854Y22113D01*
M02*
