G04 Layer_Physical_Order=1*
G04 Layer_Color=255*
%FSLAX25Y25*%
%MOIN*%
G70*
G01*
G75*
%ADD10R,0.03150X0.03543*%
G04:AMPARAMS|DCode=11|XSize=35.43mil|YSize=31.5mil|CornerRadius=7.87mil|HoleSize=0mil|Usage=FLASHONLY|Rotation=90.000|XOffset=0mil|YOffset=0mil|HoleType=Round|Shape=RoundedRectangle|*
%AMROUNDEDRECTD11*
21,1,0.03543,0.01575,0,0,90.0*
21,1,0.01969,0.03150,0,0,90.0*
1,1,0.01575,0.00787,0.00984*
1,1,0.01575,0.00787,-0.00984*
1,1,0.01575,-0.00787,-0.00984*
1,1,0.01575,-0.00787,0.00984*
%
%ADD11ROUNDEDRECTD11*%
%ADD12R,0.03543X0.03150*%
G04:AMPARAMS|DCode=13|XSize=19.69mil|YSize=23.62mil|CornerRadius=4.92mil|HoleSize=0mil|Usage=FLASHONLY|Rotation=90.000|XOffset=0mil|YOffset=0mil|HoleType=Round|Shape=RoundedRectangle|*
%AMROUNDEDRECTD13*
21,1,0.01969,0.01378,0,0,90.0*
21,1,0.00984,0.02362,0,0,90.0*
1,1,0.00984,0.00689,0.00492*
1,1,0.00984,0.00689,-0.00492*
1,1,0.00984,-0.00689,-0.00492*
1,1,0.00984,-0.00689,0.00492*
%
%ADD13ROUNDEDRECTD13*%
G04:AMPARAMS|DCode=14|XSize=35.43mil|YSize=27.56mil|CornerRadius=6.89mil|HoleSize=0mil|Usage=FLASHONLY|Rotation=90.000|XOffset=0mil|YOffset=0mil|HoleType=Round|Shape=RoundedRectangle|*
%AMROUNDEDRECTD14*
21,1,0.03543,0.01378,0,0,90.0*
21,1,0.02165,0.02756,0,0,90.0*
1,1,0.01378,0.00689,0.01083*
1,1,0.01378,0.00689,-0.01083*
1,1,0.01378,-0.00689,-0.01083*
1,1,0.01378,-0.00689,0.01083*
%
%ADD14ROUNDEDRECTD14*%
G04:AMPARAMS|DCode=15|XSize=25.59mil|YSize=43.31mil|CornerRadius=6.4mil|HoleSize=0mil|Usage=FLASHONLY|Rotation=90.000|XOffset=0mil|YOffset=0mil|HoleType=Round|Shape=RoundedRectangle|*
%AMROUNDEDRECTD15*
21,1,0.02559,0.03051,0,0,90.0*
21,1,0.01280,0.04331,0,0,90.0*
1,1,0.01280,0.01526,0.00640*
1,1,0.01280,0.01526,-0.00640*
1,1,0.01280,-0.01526,-0.00640*
1,1,0.01280,-0.01526,0.00640*
%
%ADD15ROUNDEDRECTD15*%
G04:AMPARAMS|DCode=16|XSize=45mil|YSize=45mil|CornerRadius=11.25mil|HoleSize=0mil|Usage=FLASHONLY|Rotation=90.000|XOffset=0mil|YOffset=0mil|HoleType=Round|Shape=RoundedRectangle|*
%AMROUNDEDRECTD16*
21,1,0.04500,0.02250,0,0,90.0*
21,1,0.02250,0.04500,0,0,90.0*
1,1,0.02250,0.01125,0.01125*
1,1,0.02250,0.01125,-0.01125*
1,1,0.02250,-0.01125,-0.01125*
1,1,0.02250,-0.01125,0.01125*
%
%ADD16ROUNDEDRECTD16*%
G04:AMPARAMS|DCode=17|XSize=13.78mil|YSize=21.65mil|CornerRadius=3.45mil|HoleSize=0mil|Usage=FLASHONLY|Rotation=270.000|XOffset=0mil|YOffset=0mil|HoleType=Round|Shape=RoundedRectangle|*
%AMROUNDEDRECTD17*
21,1,0.01378,0.01476,0,0,270.0*
21,1,0.00689,0.02165,0,0,270.0*
1,1,0.00689,-0.00738,-0.00345*
1,1,0.00689,-0.00738,0.00345*
1,1,0.00689,0.00738,0.00345*
1,1,0.00689,0.00738,-0.00345*
%
%ADD17ROUNDEDRECTD17*%
G04:AMPARAMS|DCode=18|XSize=19.69mil|YSize=23.62mil|CornerRadius=4.92mil|HoleSize=0mil|Usage=FLASHONLY|Rotation=0.000|XOffset=0mil|YOffset=0mil|HoleType=Round|Shape=RoundedRectangle|*
%AMROUNDEDRECTD18*
21,1,0.01969,0.01378,0,0,0.0*
21,1,0.00984,0.02362,0,0,0.0*
1,1,0.00984,0.00492,-0.00689*
1,1,0.00984,-0.00492,-0.00689*
1,1,0.00984,-0.00492,0.00689*
1,1,0.00984,0.00492,0.00689*
%
%ADD18ROUNDEDRECTD18*%
%ADD19O,0.00984X0.03347*%
%ADD20O,0.03347X0.00984*%
%ADD21R,0.22047X0.22047*%
G04:AMPARAMS|DCode=22|XSize=35.43mil|YSize=31.5mil|CornerRadius=7.87mil|HoleSize=0mil|Usage=FLASHONLY|Rotation=0.000|XOffset=0mil|YOffset=0mil|HoleType=Round|Shape=RoundedRectangle|*
%AMROUNDEDRECTD22*
21,1,0.03543,0.01575,0,0,0.0*
21,1,0.01969,0.03150,0,0,0.0*
1,1,0.01575,0.00984,-0.00787*
1,1,0.01575,-0.00984,-0.00787*
1,1,0.01575,-0.00984,0.00787*
1,1,0.01575,0.00984,0.00787*
%
%ADD22ROUNDEDRECTD22*%
G04:AMPARAMS|DCode=23|XSize=35.43mil|YSize=31.5mil|CornerRadius=0mil|HoleSize=0mil|Usage=FLASHONLY|Rotation=90.000|XOffset=0mil|YOffset=0mil|HoleType=Round|Shape=Octagon|*
%AMOCTAGOND23*
4,1,8,0.00787,0.01772,-0.00787,0.01772,-0.01575,0.00984,-0.01575,-0.00984,-0.00787,-0.01772,0.00787,-0.01772,0.01575,-0.00984,0.01575,0.00984,0.00787,0.01772,0.0*
%
%ADD23OCTAGOND23*%

G04:AMPARAMS|DCode=24|XSize=13.78mil|YSize=21.65mil|CornerRadius=3.45mil|HoleSize=0mil|Usage=FLASHONLY|Rotation=180.000|XOffset=0mil|YOffset=0mil|HoleType=Round|Shape=RoundedRectangle|*
%AMROUNDEDRECTD24*
21,1,0.01378,0.01476,0,0,180.0*
21,1,0.00689,0.02165,0,0,180.0*
1,1,0.00689,-0.00345,0.00738*
1,1,0.00689,0.00345,0.00738*
1,1,0.00689,0.00345,-0.00738*
1,1,0.00689,-0.00345,-0.00738*
%
%ADD24ROUNDEDRECTD24*%
G04:AMPARAMS|DCode=25|XSize=13.78mil|YSize=21.65mil|CornerRadius=0mil|HoleSize=0mil|Usage=FLASHONLY|Rotation=180.000|XOffset=0mil|YOffset=0mil|HoleType=Round|Shape=Octagon|*
%AMOCTAGOND25*
4,1,8,0.00345,-0.01083,-0.00345,-0.01083,-0.00689,-0.00738,-0.00689,0.00738,-0.00345,0.01083,0.00345,0.01083,0.00689,0.00738,0.00689,-0.00738,0.00345,-0.01083,0.0*
%
%ADD25OCTAGOND25*%

G04:AMPARAMS|DCode=26|XSize=15.75mil|YSize=74.8mil|CornerRadius=3.94mil|HoleSize=0mil|Usage=FLASHONLY|Rotation=180.000|XOffset=0mil|YOffset=0mil|HoleType=Round|Shape=RoundedRectangle|*
%AMROUNDEDRECTD26*
21,1,0.01575,0.06693,0,0,180.0*
21,1,0.00787,0.07480,0,0,180.0*
1,1,0.00787,-0.00394,0.03347*
1,1,0.00787,0.00394,0.03347*
1,1,0.00787,0.00394,-0.03347*
1,1,0.00787,-0.00394,-0.03347*
%
%ADD26ROUNDEDRECTD26*%
G04:AMPARAMS|DCode=27|XSize=59.06mil|YSize=59.06mil|CornerRadius=14.76mil|HoleSize=0mil|Usage=FLASHONLY|Rotation=180.000|XOffset=0mil|YOffset=0mil|HoleType=Round|Shape=RoundedRectangle|*
%AMROUNDEDRECTD27*
21,1,0.05906,0.02953,0,0,180.0*
21,1,0.02953,0.05906,0,0,180.0*
1,1,0.02953,-0.01476,0.01476*
1,1,0.02953,0.01476,0.01476*
1,1,0.02953,0.01476,-0.01476*
1,1,0.02953,-0.01476,-0.01476*
%
%ADD27ROUNDEDRECTD27*%
G04:AMPARAMS|DCode=28|XSize=98.43mil|YSize=47.24mil|CornerRadius=11.81mil|HoleSize=0mil|Usage=FLASHONLY|Rotation=180.000|XOffset=0mil|YOffset=0mil|HoleType=Round|Shape=RoundedRectangle|*
%AMROUNDEDRECTD28*
21,1,0.09843,0.02362,0,0,180.0*
21,1,0.07480,0.04724,0,0,180.0*
1,1,0.02362,-0.03740,0.01181*
1,1,0.02362,0.03740,0.01181*
1,1,0.02362,0.03740,-0.01181*
1,1,0.02362,-0.03740,-0.01181*
%
%ADD28ROUNDEDRECTD28*%
G04:AMPARAMS|DCode=29|XSize=118.11mil|YSize=78.74mil|CornerRadius=19.69mil|HoleSize=0mil|Usage=FLASHONLY|Rotation=270.000|XOffset=0mil|YOffset=0mil|HoleType=Round|Shape=RoundedRectangle|*
%AMROUNDEDRECTD29*
21,1,0.11811,0.03937,0,0,270.0*
21,1,0.07874,0.07874,0,0,270.0*
1,1,0.03937,-0.01969,-0.03937*
1,1,0.03937,-0.01969,0.03937*
1,1,0.03937,0.01969,0.03937*
1,1,0.03937,0.01969,-0.03937*
%
%ADD29ROUNDEDRECTD29*%
%ADD30R,0.07874X0.11811*%
%ADD31R,0.02165X0.04331*%
%ADD32C,0.00984*%
%ADD33C,0.01181*%
%ADD34C,0.00787*%
%ADD35C,0.01575*%
%ADD36C,0.00906*%
%ADD37C,0.01969*%
G04:AMPARAMS|DCode=38|XSize=66.93mil|YSize=43.31mil|CornerRadius=10.83mil|HoleSize=0mil|Usage=FLASHONLY|Rotation=0.000|XOffset=0mil|YOffset=0mil|HoleType=Round|Shape=RoundedRectangle|*
%AMROUNDEDRECTD38*
21,1,0.06693,0.02165,0,0,0.0*
21,1,0.04528,0.04331,0,0,0.0*
1,1,0.02165,0.02264,-0.01083*
1,1,0.02165,-0.02264,-0.01083*
1,1,0.02165,-0.02264,0.01083*
1,1,0.02165,0.02264,0.01083*
%
%ADD38ROUNDEDRECTD38*%
G04:AMPARAMS|DCode=39|XSize=35.43mil|YSize=35.43mil|CornerRadius=8.86mil|HoleSize=0mil|Usage=FLASHONLY|Rotation=270.000|XOffset=0mil|YOffset=0mil|HoleType=Round|Shape=RoundedRectangle|*
%AMROUNDEDRECTD39*
21,1,0.03543,0.01772,0,0,270.0*
21,1,0.01772,0.03543,0,0,270.0*
1,1,0.01772,-0.00886,-0.00886*
1,1,0.01772,-0.00886,0.00886*
1,1,0.01772,0.00886,0.00886*
1,1,0.01772,0.00886,-0.00886*
%
%ADD39ROUNDEDRECTD39*%
G04:AMPARAMS|DCode=40|XSize=35.43mil|YSize=35.43mil|CornerRadius=8.86mil|HoleSize=0mil|Usage=FLASHONLY|Rotation=0.000|XOffset=0mil|YOffset=0mil|HoleType=Round|Shape=RoundedRectangle|*
%AMROUNDEDRECTD40*
21,1,0.03543,0.01772,0,0,0.0*
21,1,0.01772,0.03543,0,0,0.0*
1,1,0.01772,0.00886,-0.00886*
1,1,0.01772,-0.00886,-0.00886*
1,1,0.01772,-0.00886,0.00886*
1,1,0.01772,0.00886,0.00886*
%
%ADD40ROUNDEDRECTD40*%
G04:AMPARAMS|DCode=41|XSize=66.93mil|YSize=43.31mil|CornerRadius=10.83mil|HoleSize=0mil|Usage=FLASHONLY|Rotation=90.000|XOffset=0mil|YOffset=0mil|HoleType=Round|Shape=RoundedRectangle|*
%AMROUNDEDRECTD41*
21,1,0.06693,0.02165,0,0,90.0*
21,1,0.04528,0.04331,0,0,90.0*
1,1,0.02165,0.01083,0.02264*
1,1,0.02165,0.01083,-0.02264*
1,1,0.02165,-0.01083,-0.02264*
1,1,0.02165,-0.01083,0.02264*
%
%ADD41ROUNDEDRECTD41*%
G04:AMPARAMS|DCode=42|XSize=23.62mil|YSize=43.31mil|CornerRadius=5.91mil|HoleSize=0mil|Usage=FLASHONLY|Rotation=180.000|XOffset=0mil|YOffset=0mil|HoleType=Round|Shape=RoundedRectangle|*
%AMROUNDEDRECTD42*
21,1,0.02362,0.03150,0,0,180.0*
21,1,0.01181,0.04331,0,0,180.0*
1,1,0.01181,-0.00591,0.01575*
1,1,0.01181,0.00591,0.01575*
1,1,0.01181,0.00591,-0.01575*
1,1,0.01181,-0.00591,-0.01575*
%
%ADD42ROUNDEDRECTD42*%
G04:AMPARAMS|DCode=43|XSize=19.69mil|YSize=19.69mil|CornerRadius=4.92mil|HoleSize=0mil|Usage=FLASHONLY|Rotation=180.000|XOffset=0mil|YOffset=0mil|HoleType=Round|Shape=RoundedRectangle|*
%AMROUNDEDRECTD43*
21,1,0.01969,0.00984,0,0,180.0*
21,1,0.00984,0.01969,0,0,180.0*
1,1,0.00984,-0.00492,0.00492*
1,1,0.00984,0.00492,0.00492*
1,1,0.00984,0.00492,-0.00492*
1,1,0.00984,-0.00492,-0.00492*
%
%ADD43ROUNDEDRECTD43*%
G04:AMPARAMS|DCode=44|XSize=23.62mil|YSize=43.31mil|CornerRadius=5.91mil|HoleSize=0mil|Usage=FLASHONLY|Rotation=90.000|XOffset=0mil|YOffset=0mil|HoleType=Round|Shape=RoundedRectangle|*
%AMROUNDEDRECTD44*
21,1,0.02362,0.03150,0,0,90.0*
21,1,0.01181,0.04331,0,0,90.0*
1,1,0.01181,0.01575,0.00591*
1,1,0.01181,0.01575,-0.00591*
1,1,0.01181,-0.01575,-0.00591*
1,1,0.01181,-0.01575,0.00591*
%
%ADD44ROUNDEDRECTD44*%
%ADD45C,0.01969*%
%ADD46C,0.07874*%
%ADD47C,0.05906*%
%ADD48C,0.02756*%
%ADD49C,0.04724*%
%ADD50C,0.03937*%
%ADD51C,0.02441*%
%ADD52C,0.02362*%
%ADD53C,0.03150*%
%ADD54C,0.02559*%
G04:AMPARAMS|DCode=55|XSize=78.74mil|YSize=78.74mil|CornerRadius=19.69mil|HoleSize=0mil|Usage=FLASHONLY|Rotation=180.000|XOffset=0mil|YOffset=0mil|HoleType=Round|Shape=RoundedRectangle|*
%AMROUNDEDRECTD55*
21,1,0.07874,0.03937,0,0,180.0*
21,1,0.03937,0.07874,0,0,180.0*
1,1,0.03937,-0.01969,0.01969*
1,1,0.03937,0.01969,0.01969*
1,1,0.03937,0.01969,-0.01969*
1,1,0.03937,-0.01969,-0.01969*
%
%ADD55ROUNDEDRECTD55*%
%ADD56C,0.09843*%
G36*
X407849Y220473D02*
Y217290D01*
X407751Y216831D01*
X404779D01*
X404109Y216964D01*
X400835D01*
X400662Y217222D01*
X400207Y217526D01*
Y218307D01*
X400070Y218998D01*
X399678Y219584D01*
X397316Y221947D01*
X396730Y222338D01*
X396038Y222476D01*
X390035D01*
X389486Y222367D01*
X389231Y222819D01*
X389739Y223327D01*
X404995Y223327D01*
X407849Y220473D01*
D02*
G37*
G36*
X402239Y211713D02*
X402239D01*
Y211319D01*
X402239D01*
Y206201D01*
X402619D01*
X402826Y205701D01*
X400493Y203368D01*
X400314Y203442D01*
X399286Y203577D01*
X398259Y203442D01*
X397301Y203045D01*
X396479Y202414D01*
X395847Y201592D01*
X395451Y200634D01*
X395315Y199606D01*
X395451Y198579D01*
X395847Y197621D01*
X396479Y196798D01*
X397301Y196167D01*
X398259Y195771D01*
X399286Y195635D01*
X400314Y195771D01*
X401272Y196167D01*
X402094Y196798D01*
X402725Y197621D01*
X403122Y198579D01*
X403257Y199606D01*
X403122Y200634D01*
X403048Y200813D01*
X403844Y201609D01*
X404306Y201418D01*
Y197343D01*
Y193209D01*
Y184254D01*
X382416Y184188D01*
X382062Y184541D01*
Y187303D01*
X381014D01*
Y188412D01*
X381314Y188642D01*
X381787Y189259D01*
X382084Y189977D01*
X382186Y190748D01*
X382084Y191519D01*
X381787Y192237D01*
X381314Y192854D01*
X380697Y193327D01*
X379978Y193625D01*
X379208Y193726D01*
X378437Y193625D01*
X377719Y193327D01*
X377102Y192854D01*
X376628Y192237D01*
X376331Y191519D01*
X376229Y190748D01*
X376331Y189977D01*
X376628Y189259D01*
X377102Y188642D01*
X377401Y188412D01*
Y187303D01*
X376550D01*
Y184170D01*
X371589Y184155D01*
X371235Y184508D01*
X371235Y204823D01*
X374085Y207673D01*
X374547Y207481D01*
Y204724D01*
X373794D01*
Y199213D01*
X375452D01*
Y198722D01*
X375376Y198608D01*
X375261Y198031D01*
Y197047D01*
X375376Y196471D01*
X375702Y195983D01*
X376191Y195657D01*
X376767Y195542D01*
X377751D01*
X378327Y195657D01*
X378521Y195786D01*
X378998Y195972D01*
X379492Y195642D01*
X380066Y195528D01*
Y197539D01*
X380566D01*
Y198039D01*
X382578D01*
X382464Y198614D01*
X382398Y198713D01*
X382665Y199213D01*
X384424D01*
Y201856D01*
X384924Y202064D01*
X385715Y201273D01*
X385451Y200634D01*
X385315Y199606D01*
X385451Y198579D01*
X385847Y197621D01*
X386478Y196798D01*
X387301Y196167D01*
X388259Y195771D01*
X389286Y195635D01*
X390314Y195771D01*
X391272Y196167D01*
X392094Y196798D01*
X392725Y197621D01*
X393122Y198579D01*
X393257Y199606D01*
X393122Y200634D01*
X392725Y201592D01*
X392094Y202414D01*
X391272Y203045D01*
X390314Y203442D01*
X389960Y203489D01*
X389993Y203989D01*
X390330D01*
X390950Y204112D01*
X391244Y204309D01*
X391609Y204422D01*
X391974Y204309D01*
X392268Y204112D01*
X392889Y203989D01*
X392979D01*
Y207185D01*
X393979D01*
Y203989D01*
X394070D01*
X394690Y204112D01*
X395217Y204464D01*
X395568Y204990D01*
X395692Y205610D01*
Y207322D01*
X395924Y207454D01*
X396192Y207527D01*
X396719Y207175D01*
X397416Y207036D01*
X397901D01*
Y209646D01*
X398401D01*
Y210146D01*
X401207D01*
Y210433D01*
X401069Y211130D01*
X400673Y211722D01*
X400082Y212117D01*
X399892Y212155D01*
Y212665D01*
X400076Y212701D01*
X400662Y213093D01*
X400835Y213351D01*
X402239D01*
Y211713D01*
D02*
G37*
G36*
X433834Y206102D02*
Y180413D01*
X427830Y174409D01*
X416904Y174409D01*
X408538Y182776D01*
Y185339D01*
X408786Y185556D01*
Y189606D01*
Y193656D01*
X408538Y193874D01*
Y195355D01*
X408914Y195684D01*
X409286Y195635D01*
X410314Y195771D01*
X411272Y196167D01*
X412094Y196798D01*
X412725Y197621D01*
X413122Y198579D01*
X413257Y199606D01*
X413122Y200634D01*
X413048Y200813D01*
X413494Y201259D01*
X413994Y201052D01*
Y199909D01*
X417200D01*
X420406D01*
Y201673D01*
X420244Y202486D01*
X419784Y203175D01*
X419761Y203190D01*
X419667Y203854D01*
X419853Y204132D01*
X419898Y204357D01*
X420407D01*
X420452Y204132D01*
X420844Y203546D01*
X421430Y203154D01*
X421585Y203123D01*
X421631Y203053D01*
X424640Y200045D01*
Y197146D01*
X424714Y196773D01*
X424658Y196637D01*
X424556Y195866D01*
X424658Y195095D01*
X424955Y194377D01*
X425428Y193760D01*
X426045Y193287D01*
X426764Y192989D01*
X427534Y192888D01*
X428305Y192989D01*
X429024Y193287D01*
X429640Y193760D01*
X430114Y194377D01*
X430411Y195095D01*
X430505Y195809D01*
X430859Y196339D01*
X431020Y197146D01*
Y201673D01*
X430859Y202480D01*
X430403Y203163D01*
X429719Y203620D01*
X428912Y203781D01*
X426747D01*
X426135Y203659D01*
X425414Y204380D01*
X425502Y204823D01*
Y206791D01*
X425425Y207177D01*
X425790Y207677D01*
X432259D01*
X433834Y206102D01*
D02*
G37*
G36*
X406729Y180841D02*
X406496Y180366D01*
X406381D01*
Y178059D01*
X408491D01*
Y178372D01*
X408966Y178604D01*
X414442Y173128D01*
X419461D01*
X419953Y172636D01*
X433881D01*
X434112Y172192D01*
X430093Y166437D01*
X427028Y163594D01*
X426749Y163738D01*
X426583Y163864D01*
X426417Y165129D01*
X425921Y166326D01*
X425132Y167354D01*
X424104Y168143D01*
X422907Y168639D01*
X421622Y168808D01*
X420337Y168639D01*
X419140Y168143D01*
X418758Y167850D01*
X417272D01*
X417099Y168108D01*
X416513Y168500D01*
X415822Y168637D01*
X413853D01*
X413162Y168500D01*
X412576Y168108D01*
X412184Y167522D01*
X412149Y167344D01*
X411712Y167035D01*
X411638Y167049D01*
X411097Y167157D01*
X407948D01*
X407779Y167123D01*
X407392Y167440D01*
Y168695D01*
X407255Y169386D01*
X406992Y169779D01*
X407122Y170284D01*
X407183Y170359D01*
X407295Y170393D01*
X407333Y170367D01*
X407948Y170245D01*
X411097D01*
X411712Y170367D01*
X412233Y170715D01*
X412581Y171236D01*
X412703Y171850D01*
Y173031D01*
X412581Y173646D01*
X412233Y174167D01*
X411712Y174515D01*
X411097Y174637D01*
X407948D01*
X407859Y174620D01*
X407664Y175091D01*
X407957Y175286D01*
X408352Y175877D01*
X408491Y176575D01*
Y177059D01*
X405881D01*
Y177559D01*
X405381D01*
Y180366D01*
X405093D01*
X404396Y180227D01*
X403805Y179832D01*
X403410Y179241D01*
X403372Y179050D01*
X402862D01*
X402825Y179235D01*
X402434Y179821D01*
X401848Y180212D01*
X401157Y180350D01*
X399582D01*
X398890Y180212D01*
X398304Y179821D01*
X398066Y179464D01*
X382062D01*
Y181791D01*
X382062D01*
Y182185D01*
X382062D01*
Y182874D01*
X404695D01*
X406729Y180841D01*
D02*
G37*
G36*
X393555Y175351D02*
X393466Y175314D01*
X392850Y174841D01*
X392376Y174224D01*
X392079Y173506D01*
X391977Y172735D01*
X392079Y171964D01*
X392376Y171246D01*
X392535Y171038D01*
X392301Y170523D01*
X392021Y170336D01*
X391658Y170228D01*
X391296Y170336D01*
X390929Y170581D01*
X390231Y170720D01*
X389747D01*
Y168110D01*
X388747D01*
Y170720D01*
X388263D01*
X387565Y170581D01*
X386974Y170186D01*
X386464Y170323D01*
X386231Y170479D01*
Y175851D01*
X393456D01*
X393555Y175351D01*
D02*
G37*
G36*
X376550Y181773D02*
Y176673D01*
X379311D01*
X379604Y176380D01*
X380190Y175989D01*
X380881Y175851D01*
X382618D01*
Y170479D01*
X382163Y170175D01*
X381771Y169589D01*
X381634Y168898D01*
Y167323D01*
X381771Y166632D01*
X382163Y166046D01*
X382749Y165654D01*
X382974Y165609D01*
Y165100D01*
X382749Y165055D01*
X382163Y164663D01*
X381771Y164077D01*
X381634Y163386D01*
Y161811D01*
X381771Y161120D01*
X382163Y160534D01*
X382749Y160142D01*
X383440Y160005D01*
X385408D01*
X386100Y160142D01*
X386686Y160534D01*
X386985D01*
X387572Y160142D01*
X388263Y160005D01*
X390231D01*
X390923Y160142D01*
X391300Y160394D01*
X391658Y160493D01*
X392017Y160394D01*
X392394Y160142D01*
X393086Y160005D01*
X395054D01*
X395745Y160142D01*
X396331Y160534D01*
X396723Y161120D01*
X396861Y161811D01*
Y162835D01*
X397180Y163154D01*
X397484D01*
X397810Y162936D01*
Y158169D01*
X397810D01*
Y157776D01*
X397810D01*
Y153226D01*
X396629Y153051D01*
X384129Y155610D01*
X374680Y161024D01*
X373792Y179722D01*
X376184Y182114D01*
X376550Y181773D01*
D02*
G37*
G36*
X124197Y117627D02*
Y111967D01*
X129134D01*
Y111467D01*
X129634D01*
Y104561D01*
X133169D01*
X133169Y44503D01*
X132721Y44282D01*
X132600Y44375D01*
X131877Y44674D01*
X131103Y44776D01*
X129634D01*
Y37845D01*
X129134D01*
Y37345D01*
X124171D01*
Y33908D01*
X124273Y33133D01*
X124392Y32847D01*
X124114Y32431D01*
X19094D01*
Y40010D01*
X19347Y40150D01*
X19594Y40192D01*
X20308Y39478D01*
X20007Y39027D01*
X19858Y38281D01*
Y36031D01*
X20007Y35284D01*
X20429Y34652D01*
X21062Y34229D01*
X21808Y34081D01*
X24058D01*
X24804Y34229D01*
X25437Y34652D01*
X25859Y35284D01*
X26008Y36031D01*
Y38281D01*
X25859Y39027D01*
X25437Y39659D01*
X24804Y40082D01*
X24539Y40135D01*
Y41488D01*
X27732Y44681D01*
X29385D01*
Y42569D01*
X29561Y41686D01*
X30061Y40937D01*
X30751Y40476D01*
X30817Y40185D01*
X30825Y39924D01*
X30429Y39659D01*
X30007Y39027D01*
X29858Y38281D01*
Y36031D01*
X30007Y35284D01*
X30429Y34652D01*
X31062Y34229D01*
X31808Y34081D01*
X34058D01*
X34804Y34229D01*
X35437Y34652D01*
X35860Y35284D01*
X35953Y35753D01*
X38425D01*
X38584Y35647D01*
X39026Y35559D01*
X40502D01*
X40944Y35647D01*
X41318Y35897D01*
X41568Y36271D01*
X41656Y36713D01*
Y37402D01*
X41568Y37843D01*
X41318Y38218D01*
X40944Y38468D01*
X40502Y38556D01*
X39026D01*
X38584Y38468D01*
X38425Y38362D01*
X35992D01*
X35860Y39027D01*
X35437Y39659D01*
X35150Y39851D01*
X35255Y40382D01*
X35529Y40437D01*
X36278Y40937D01*
X36778Y41686D01*
X36954Y42569D01*
Y45522D01*
X36778Y46405D01*
X36278Y47154D01*
X35529Y47654D01*
X34646Y47830D01*
X34342D01*
Y53415D01*
X34220Y54030D01*
X33872Y54551D01*
X33872Y54551D01*
X30020Y58403D01*
Y60955D01*
X30020D01*
X30048Y61443D01*
X38714D01*
X38809Y61300D01*
X39474Y60856D01*
X40257Y60701D01*
X41040Y60856D01*
X41705Y61300D01*
X42148Y61964D01*
X42304Y62748D01*
X42148Y63531D01*
X41705Y64195D01*
X41040Y64639D01*
X40257Y64795D01*
X39474Y64639D01*
X38809Y64195D01*
X38714Y64052D01*
X36419D01*
X36268Y64552D01*
X36278Y64559D01*
X36778Y65308D01*
X36954Y66191D01*
Y66263D01*
X39206D01*
X39744Y66369D01*
X40200Y66674D01*
X41722Y68196D01*
X42026Y68652D01*
X42133Y69190D01*
Y69777D01*
X42853Y70497D01*
X43341D01*
X43576Y70056D01*
X43532Y69990D01*
X43364Y69146D01*
X43532Y68301D01*
X44011Y67585D01*
X44727Y67106D01*
X45572Y66938D01*
X46417Y67106D01*
X47133Y67585D01*
X47305Y67841D01*
X47923D01*
X53781Y61983D01*
X54204Y61700D01*
X54703Y61601D01*
X62696D01*
X62887Y61139D01*
X62404Y60656D01*
X62236Y60690D01*
X61452Y60534D01*
X60788Y60090D01*
X60344Y59426D01*
X60189Y58643D01*
X60344Y57859D01*
X60788Y57195D01*
X61452Y56751D01*
X61763Y56689D01*
X62186Y56444D01*
X62030Y55661D01*
X62186Y54877D01*
X62220Y54826D01*
X61984Y54385D01*
X54508D01*
X54009Y54286D01*
X53585Y54003D01*
X47306Y47724D01*
X47023Y47300D01*
X46924Y46801D01*
Y39702D01*
X46424Y39604D01*
X46196Y39946D01*
X45751Y40243D01*
X45226Y40347D01*
X44988D01*
Y38632D01*
X44488D01*
Y38132D01*
X42410D01*
X42483Y37763D01*
X42781Y37318D01*
X42913Y37230D01*
X42934Y36648D01*
X42921Y36623D01*
X42684Y36268D01*
X42596Y35827D01*
Y35138D01*
X42684Y34696D01*
X42934Y34322D01*
X43308Y34072D01*
X43750Y33984D01*
X45226D01*
X45668Y34072D01*
X45827Y34178D01*
X48122D01*
Y33703D01*
X52846D01*
Y38821D01*
X49533D01*
Y46261D01*
X55048Y51776D01*
X61662D01*
X61979Y51390D01*
X61963Y51309D01*
Y51120D01*
X63976D01*
Y50120D01*
X61963D01*
Y49931D01*
X62079Y49349D01*
X62409Y48855D01*
X62727Y48643D01*
X62769Y48115D01*
X62754Y48069D01*
X62562Y47940D01*
X62279Y47517D01*
X62180Y47018D01*
Y45640D01*
X62279Y45141D01*
X62562Y44717D01*
X62672Y44644D01*
Y44045D01*
X60576D01*
Y45522D01*
X60400Y46405D01*
X59900Y47154D01*
X59151Y47654D01*
X58268Y47830D01*
X55315D01*
X54432Y47654D01*
X53683Y47154D01*
X53183Y46405D01*
X53007Y45522D01*
Y42569D01*
X53183Y41686D01*
X53683Y40937D01*
X54432Y40437D01*
X55315Y40261D01*
X58268D01*
X59151Y40437D01*
X59900Y40937D01*
X59933Y40987D01*
X60433Y40835D01*
Y39321D01*
X65551D01*
Y44045D01*
X65551D01*
X65631Y44512D01*
X66173D01*
X66269Y44369D01*
X66933Y43926D01*
X67716Y43770D01*
X68500Y43926D01*
X69164Y44369D01*
X69421Y44754D01*
X69952Y44649D01*
X69956Y44629D01*
X70239Y44205D01*
X70662Y43923D01*
X71161Y43823D01*
X71661Y43923D01*
X71754Y43985D01*
X72146Y44175D01*
X72538Y43985D01*
X72631Y43923D01*
X73130Y43823D01*
X73348Y43867D01*
X73594Y43406D01*
X72833Y42645D01*
X72606Y42796D01*
X72146Y42887D01*
X71358D01*
X70897Y42796D01*
X70507Y42535D01*
X70246Y42144D01*
X70154Y41683D01*
Y34990D01*
X70246Y34529D01*
X70507Y34139D01*
X70897Y33878D01*
X71358Y33786D01*
X72146D01*
X72606Y33878D01*
X72997Y34139D01*
X73258Y34529D01*
X73350Y34990D01*
Y39472D01*
X74200Y40322D01*
X74662Y40130D01*
Y38837D01*
X76476D01*
X78291D01*
Y41683D01*
X78288Y41699D01*
X78550Y42151D01*
X78974Y42434D01*
X79052Y42512D01*
X79602Y42370D01*
X79694Y42144D01*
X79603Y41683D01*
Y34990D01*
X79694Y34529D01*
X79956Y34139D01*
X80346Y33878D01*
X80807Y33786D01*
X81595D01*
X82055Y33878D01*
X82446Y34139D01*
X82998Y34064D01*
X83097Y33915D01*
X83591Y33585D01*
X84173Y33469D01*
X84362D01*
Y35482D01*
X85362D01*
Y33469D01*
X85551D01*
X86133Y33585D01*
X86627Y33915D01*
X86840Y34233D01*
X87368Y34275D01*
X87414Y34260D01*
X87542Y34068D01*
X87965Y33785D01*
X88465Y33686D01*
X89842D01*
X90342Y33785D01*
X90765Y34068D01*
X91048Y34491D01*
X91147Y34990D01*
Y35974D01*
X91048Y36474D01*
X90864Y36748D01*
X90773Y36966D01*
X90827Y37457D01*
X90949Y37641D01*
X91049Y38140D01*
Y38484D01*
X91549Y38847D01*
X92031Y38751D01*
X92815Y38906D01*
X93479Y39350D01*
X93923Y40014D01*
X94078Y40798D01*
X93928Y41552D01*
X93928Y41639D01*
X94184Y42052D01*
X95508D01*
X95800Y41614D01*
X96465Y41170D01*
X97248Y41015D01*
X98031Y41170D01*
X98696Y41614D01*
X99139Y42278D01*
X99295Y43062D01*
X99164Y43721D01*
X99448Y44152D01*
X99878Y44193D01*
X103203Y40868D01*
X103169Y40699D01*
X103325Y39915D01*
X103769Y39251D01*
X103998Y39098D01*
X103847Y38598D01*
X101819D01*
X101320Y38499D01*
X100896Y38216D01*
X99519Y36838D01*
X99307Y36980D01*
X98524Y37136D01*
X97740Y36980D01*
X97076Y36536D01*
X96632Y35872D01*
X96476Y35089D01*
X96632Y34305D01*
X97076Y33641D01*
X97740Y33197D01*
X98524Y33042D01*
X99307Y33197D01*
X99971Y33641D01*
X100149Y33907D01*
X100537Y34166D01*
X102359Y35989D01*
X105347D01*
X105846Y36088D01*
X106269Y36371D01*
X110533Y40635D01*
X122390D01*
X122889Y40735D01*
X123312Y41017D01*
X123671Y41376D01*
X124171Y41169D01*
Y38345D01*
X128634D01*
Y44776D01*
X127566D01*
X127531Y44792D01*
X127482Y44827D01*
X127194Y45276D01*
X127235Y45480D01*
Y49595D01*
X128127Y50488D01*
X128410Y50911D01*
X128509Y51410D01*
Y62299D01*
X130199Y63989D01*
X130482Y64412D01*
X130581Y64911D01*
Y70622D01*
X130537Y70846D01*
Y71747D01*
X130438Y72246D01*
X130242Y72540D01*
Y74097D01*
X130385Y74192D01*
X130828Y74856D01*
X130984Y75640D01*
X130828Y76423D01*
X130385Y77087D01*
X129720Y77531D01*
X128937Y77687D01*
X128154Y77531D01*
X127489Y77087D01*
X127046Y76423D01*
X126890Y75640D01*
X127046Y74856D01*
X127489Y74192D01*
X127632Y74097D01*
Y73340D01*
X127171Y73148D01*
X126963Y73356D01*
X126540Y73638D01*
X126041Y73738D01*
X123174D01*
X122675Y73638D01*
X122252Y73356D01*
X119859Y70963D01*
X119690Y70996D01*
X118907Y70840D01*
X118242Y70396D01*
X117799Y69732D01*
X117643Y68949D01*
X117799Y68165D01*
X118242Y67501D01*
X118907Y67057D01*
X119690Y66902D01*
X120473Y67057D01*
X121138Y67501D01*
X121581Y68165D01*
X121737Y68949D01*
X121704Y69117D01*
X122378Y69792D01*
X122920Y69627D01*
X123015Y69150D01*
X123459Y68485D01*
X123602Y68390D01*
Y66490D01*
X122739Y65627D01*
X122456Y65203D01*
X122357Y64704D01*
Y64385D01*
X121857Y64119D01*
X121789Y64165D01*
X121680Y64712D01*
X121236Y65377D01*
X120572Y65820D01*
X119788Y65976D01*
X119005Y65820D01*
X118760Y65657D01*
X118282Y65802D01*
X118199Y66002D01*
X117757Y66578D01*
X117181Y67019D01*
X116511Y67297D01*
X115791Y67392D01*
X115072Y67297D01*
X114402Y67019D01*
X113826Y66578D01*
X113396Y66018D01*
X113126Y65975D01*
X113120D01*
X112850Y66018D01*
X112420Y66578D01*
X111844Y67019D01*
X111174Y67297D01*
X110454Y67392D01*
X109735Y67297D01*
X109065Y67019D01*
X108793Y66811D01*
X108293Y67058D01*
Y67917D01*
X108793Y68199D01*
X109104Y68137D01*
X110581D01*
X111022Y68225D01*
X111397Y68475D01*
X111647Y68850D01*
X111735Y69291D01*
Y69980D01*
X111720Y70053D01*
X111759Y70248D01*
Y72170D01*
X111844Y72205D01*
X112420Y72647D01*
X112850Y73207D01*
X113120Y73250D01*
X113126D01*
X113396Y73207D01*
X113826Y72647D01*
X114402Y72205D01*
X115072Y71927D01*
X115791Y71833D01*
X116511Y71927D01*
X117181Y72205D01*
X117757Y72647D01*
X118199Y73222D01*
X118476Y73893D01*
X118571Y74612D01*
X118476Y75332D01*
X118199Y76002D01*
X118002Y76258D01*
X118210Y76809D01*
X118217Y76810D01*
X118808Y77205D01*
X119203Y77797D01*
X119342Y78494D01*
Y78978D01*
X116732D01*
Y79978D01*
X119342D01*
Y80263D01*
X119439Y80342D01*
X120128D01*
X120570Y80430D01*
X120924Y80667D01*
X120949Y80680D01*
X121531Y80659D01*
X121619Y80527D01*
X122064Y80230D01*
X122433Y80156D01*
Y82234D01*
X122933D01*
Y82734D01*
X124648D01*
Y82973D01*
X124544Y83497D01*
X124247Y83942D01*
X124236Y84054D01*
X124873Y84691D01*
X125155Y85115D01*
X125255Y85614D01*
Y91047D01*
X125155Y91546D01*
X124873Y91969D01*
X118059Y98783D01*
X117636Y99066D01*
X117137Y99165D01*
X114810D01*
X114603Y99665D01*
X115946Y101008D01*
X116161D01*
X116661Y101108D01*
X117084Y101391D01*
X117212Y101583D01*
X117258Y101598D01*
X117786Y101556D01*
X117999Y101237D01*
X118493Y100908D01*
X119075Y100792D01*
X119264D01*
Y102805D01*
Y104923D01*
X119144Y105319D01*
X119374Y105664D01*
X119530Y106447D01*
X119374Y107230D01*
X118930Y107895D01*
X118266Y108338D01*
X117483Y108494D01*
X116700Y108338D01*
X116035Y107895D01*
X115592Y107230D01*
X115436Y106447D01*
X115592Y105664D01*
X115779Y105383D01*
X114998Y104602D01*
X114784D01*
X114284Y104503D01*
X113861Y104220D01*
X113578Y103797D01*
X113479Y103297D01*
Y103082D01*
X112642Y102245D01*
X110864D01*
X110822Y102309D01*
X110350Y102624D01*
X109793Y102735D01*
X106742D01*
X106185Y102624D01*
X105713Y102309D01*
X105398Y101837D01*
X105287Y101280D01*
Y100000D01*
X105398Y99443D01*
X105713Y98971D01*
X106185Y98656D01*
X106742Y98545D01*
X107296D01*
X107487Y98083D01*
X104491Y95087D01*
X104208Y94664D01*
X104109Y94165D01*
Y88287D01*
X93509Y77687D01*
X93096Y77879D01*
X93043Y77928D01*
Y79872D01*
X92920Y80487D01*
X92572Y81007D01*
X92570Y81030D01*
X98566Y87026D01*
X100098D01*
X100713Y87148D01*
X101234Y87497D01*
X101582Y88017D01*
X101704Y88632D01*
Y90207D01*
X101582Y90821D01*
X101234Y91342D01*
X100713Y91690D01*
X100098Y91812D01*
X98130D01*
X97515Y91690D01*
X96995Y91342D01*
X96646Y90821D01*
X96524Y90207D01*
Y88674D01*
X89727Y81877D01*
X89444Y81454D01*
X89432Y81392D01*
X89248Y81356D01*
X88727Y81007D01*
X88379Y80487D01*
X88257Y79872D01*
Y79349D01*
X87757Y79106D01*
X87531Y79283D01*
Y79872D01*
X87409Y80487D01*
X87061Y81007D01*
X86540Y81356D01*
X85925Y81478D01*
X84350D01*
X83736Y81356D01*
X83215Y81007D01*
X83202Y80988D01*
X82754Y81124D01*
X82704Y81604D01*
X92107Y91008D01*
X92390Y91431D01*
X92489Y91930D01*
Y94001D01*
X92483Y94035D01*
X92943Y94281D01*
X93046Y94178D01*
X93046Y94178D01*
X93437Y93917D01*
X93898Y93825D01*
X93898Y93825D01*
X96588D01*
X96646Y93529D01*
X96995Y93008D01*
X97515Y92660D01*
X98130Y92538D01*
X100098D01*
X100713Y92660D01*
X101234Y93008D01*
X101582Y93529D01*
X101704Y94144D01*
Y95719D01*
X101582Y96333D01*
X101234Y96854D01*
X100713Y97202D01*
X100098Y97324D01*
X98130D01*
X97515Y97202D01*
X96995Y96854D01*
X96646Y96333D01*
X96627Y96234D01*
X94397D01*
X92062Y98568D01*
X92254Y99034D01*
X96222D01*
X96264Y98971D01*
X96737Y98656D01*
X97293Y98545D01*
X100345D01*
X100901Y98656D01*
X101373Y98971D01*
X101689Y99443D01*
X101800Y100000D01*
Y101280D01*
X101689Y101837D01*
X101373Y102309D01*
X101642Y102731D01*
X101889Y103100D01*
X102016Y103740D01*
Y103880D01*
X98819D01*
X95621D01*
Y103740D01*
X95749Y103100D01*
X95986Y102745D01*
X95747Y102245D01*
X93732D01*
Y109741D01*
X93732Y109741D01*
X93609Y110356D01*
X93261Y110877D01*
X93261Y110877D01*
X89666Y114472D01*
X89145Y114820D01*
X88530Y114942D01*
X88530Y114942D01*
X87890D01*
X87825Y115040D01*
X87044Y115562D01*
X86122Y115745D01*
X85200Y115562D01*
X84419Y115040D01*
X83897Y114258D01*
X83714Y113337D01*
X83897Y112415D01*
X84419Y111634D01*
X85200Y111112D01*
X86122Y110928D01*
X87044Y111112D01*
X87825Y111634D01*
X87950Y111646D01*
X90520Y109076D01*
Y103113D01*
X90105Y102835D01*
X89897Y102921D01*
X89075Y103029D01*
X88253Y102921D01*
X87486Y102604D01*
X86829Y102099D01*
X86556Y101744D01*
X85927Y101743D01*
X85764Y101955D01*
X85062Y102494D01*
X84244Y102833D01*
X83866Y102883D01*
Y99557D01*
Y96232D01*
X84244Y96281D01*
X84463Y96372D01*
X84901Y96013D01*
X84862Y95817D01*
X85018Y95034D01*
X85462Y94369D01*
X86126Y93926D01*
X86329Y93885D01*
X86706Y93313D01*
X86637Y92966D01*
X86671Y92797D01*
X78703Y84830D01*
X78421Y84406D01*
X78321Y83907D01*
Y80040D01*
X77821Y79889D01*
X77447Y80449D01*
X76731Y80928D01*
X75886Y81096D01*
X75041Y80928D01*
X74325Y80449D01*
X73846Y79733D01*
X73678Y78888D01*
X73814Y78203D01*
X73794Y78101D01*
Y76948D01*
X73630Y76814D01*
Y73868D01*
X72630D01*
Y76471D01*
X72548Y76455D01*
X72054Y76125D01*
X72049Y76125D01*
X70399Y77775D01*
Y78415D01*
X70300Y78915D01*
X70207Y79054D01*
Y79174D01*
X70100Y79711D01*
X69871Y80053D01*
X70170Y80253D01*
X70500Y80747D01*
X70616Y81329D01*
Y81518D01*
X68602D01*
Y82518D01*
X70616D01*
Y82707D01*
X70500Y83289D01*
X70170Y83783D01*
X69790Y84036D01*
X69788Y84042D01*
X69761Y84467D01*
X69790Y84592D01*
X70037Y84757D01*
X70165Y84949D01*
X70211Y84964D01*
X70739Y84922D01*
X70952Y84604D01*
X71445Y84274D01*
X72027Y84158D01*
X72216D01*
Y86171D01*
X73216D01*
Y84158D01*
X73405D01*
X73988Y84274D01*
X74481Y84604D01*
X75030Y84525D01*
X75398Y84280D01*
X76181Y84124D01*
X76964Y84280D01*
X77629Y84724D01*
X78073Y85388D01*
X78228Y86171D01*
X78073Y86955D01*
X77629Y87619D01*
X76964Y88063D01*
X76501Y88155D01*
Y99497D01*
X76644Y99592D01*
X77088Y100256D01*
X77244Y101040D01*
X77088Y101823D01*
X76644Y102487D01*
X75980Y102931D01*
X75197Y103087D01*
X74713Y102991D01*
X74213Y103352D01*
X74213Y117356D01*
X74566Y117709D01*
X124197Y117627D01*
D02*
G37*
G36*
X59252Y108219D02*
X65256Y102215D01*
Y91560D01*
X55869Y82173D01*
X55586Y81749D01*
X55541Y81523D01*
X55301Y81362D01*
X54844Y80679D01*
X54684Y79872D01*
X54797Y79305D01*
X54463Y78805D01*
X50490D01*
X50064Y79230D01*
Y81800D01*
X50168Y81869D01*
X50612Y82534D01*
X50768Y83317D01*
X50612Y84100D01*
X50168Y84765D01*
X49504Y85208D01*
X48720Y85364D01*
X47937Y85208D01*
X47273Y84765D01*
X46829Y84100D01*
X46673Y83317D01*
X46774Y82809D01*
X46455Y82391D01*
X46016Y82354D01*
X42981Y85390D01*
X42970Y86085D01*
X44048Y87164D01*
X44071Y87148D01*
X44685Y87026D01*
X46260D01*
X46874Y87148D01*
X47395Y87497D01*
X47743Y88017D01*
X47802Y88312D01*
X48856D01*
Y86528D01*
X53974D01*
Y91253D01*
X48856D01*
Y90921D01*
X47802D01*
X47743Y91215D01*
X47476Y91615D01*
X47490Y92226D01*
X47548Y92265D01*
X47943Y92856D01*
X48082Y93553D01*
Y94037D01*
X45472D01*
Y95038D01*
X48082D01*
Y95522D01*
X47943Y96219D01*
X47653Y96654D01*
X47585Y96998D01*
X47653Y97342D01*
X47943Y97777D01*
X48082Y98475D01*
Y98959D01*
X45472D01*
Y99959D01*
X48082D01*
Y100443D01*
X47943Y101140D01*
X47548Y101732D01*
X47025Y102081D01*
X46961Y102400D01*
X46964Y102635D01*
X47352Y102894D01*
X47747Y103486D01*
X47885Y104183D01*
Y104471D01*
X45079D01*
Y104971D01*
X44579D01*
Y107580D01*
X44094D01*
X43397Y107442D01*
X42826Y107060D01*
X42694Y106992D01*
X42345D01*
X42213Y107060D01*
X41642Y107442D01*
X40945Y107580D01*
X40461D01*
Y104971D01*
X39961D01*
Y104471D01*
X37154D01*
Y104183D01*
X37293Y103486D01*
X37688Y102894D01*
X38279Y102499D01*
X38578Y102440D01*
Y101930D01*
X38559Y101926D01*
X38038Y101578D01*
X37527Y101714D01*
X37524Y101730D01*
X37241Y102153D01*
X35772Y103622D01*
X35855Y104035D01*
Y105315D01*
X35744Y105872D01*
X35429Y106344D01*
X34956Y106659D01*
X34400Y106770D01*
X31348D01*
X30792Y106659D01*
X30319Y106344D01*
X30004Y105872D01*
X29893Y105315D01*
Y104035D01*
X30004Y103479D01*
X30319Y103007D01*
X30792Y102691D01*
X31348Y102580D01*
X33124D01*
X33764Y101940D01*
X33573Y101478D01*
X32283D01*
X31586Y101339D01*
X30995Y100944D01*
X30909Y100817D01*
X30409D01*
X30324Y100944D01*
X29733Y101339D01*
X29035Y101478D01*
X28748D01*
Y98671D01*
X28248D01*
Y98171D01*
X25638D01*
Y97687D01*
X25777Y96990D01*
X26172Y96399D01*
X26342Y96285D01*
Y95684D01*
X26325Y95673D01*
X25977Y95152D01*
X25855Y94538D01*
Y92569D01*
X25977Y91954D01*
X26325Y91434D01*
X26846Y91086D01*
X27461Y90963D01*
X28161D01*
X34871Y84253D01*
Y81940D01*
X34444Y81572D01*
X34351Y81590D01*
X33506Y81422D01*
X32790Y80944D01*
X32311Y80227D01*
X32295Y80145D01*
X31817Y80000D01*
X29410Y82407D01*
X29709Y82854D01*
X29861Y83622D01*
Y85984D01*
X29709Y86752D01*
X29274Y87404D01*
X28622Y87839D01*
X27854Y87991D01*
X20374D01*
X19668Y87851D01*
X19456Y87919D01*
X19170Y88074D01*
X19398Y117372D01*
X59252D01*
Y108219D01*
D02*
G37*
G36*
X44246Y80435D02*
X44213Y80266D01*
X44368Y79482D01*
X44487Y79305D01*
X44220Y78805D01*
X36838D01*
X36521Y79191D01*
X36559Y79382D01*
X36499Y79685D01*
X37098Y80284D01*
X37381Y80708D01*
X37480Y81207D01*
Y83489D01*
X41192D01*
X44246Y80435D01*
D02*
G37*
G36*
X19621Y81765D02*
X20374Y81615D01*
X26227D01*
X28886Y78956D01*
X28695Y78494D01*
X19450Y78494D01*
X19098Y78849D01*
X19119Y81503D01*
X19531Y81778D01*
X19621Y81765D01*
D02*
G37*
G36*
X55939Y77956D02*
X56021Y77826D01*
X56136Y77446D01*
X55342Y76651D01*
X49648D01*
X49110Y76544D01*
X48654Y76240D01*
X45721Y73307D01*
X42272D01*
X41734Y73200D01*
X41278Y72895D01*
X39735Y71352D01*
X39430Y70896D01*
X39323Y70359D01*
Y69771D01*
X38624Y69072D01*
X36954D01*
Y69144D01*
X36778Y70027D01*
X36278Y70776D01*
X35529Y71276D01*
X35106Y71360D01*
Y76128D01*
X34999Y76665D01*
X34924Y76779D01*
X35154Y77334D01*
X35196Y77343D01*
X35912Y77821D01*
X36033Y78002D01*
X45033D01*
X45225Y77540D01*
X44336Y76651D01*
X40816D01*
X40720Y76794D01*
X40056Y77238D01*
X39273Y77394D01*
X38489Y77238D01*
X37825Y76794D01*
X37381Y76130D01*
X37225Y75347D01*
X37381Y74563D01*
X37825Y73899D01*
X38489Y73455D01*
X39273Y73299D01*
X40056Y73455D01*
X40720Y73899D01*
X40816Y74042D01*
X44876D01*
X45375Y74142D01*
X45799Y74424D01*
X49377Y78002D01*
X55870D01*
X55939Y77956D01*
D02*
G37*
G36*
X64888Y79191D02*
X64942Y78921D01*
X65247Y78465D01*
X65702Y78161D01*
X66240Y78054D01*
X66806D01*
Y77038D01*
X66905Y76538D01*
X67183Y76122D01*
X67099Y76065D01*
X66576Y75284D01*
X66393Y74362D01*
X66576Y73441D01*
X67058Y72720D01*
X66925Y72220D01*
X65009D01*
X63915Y73314D01*
X63528Y73573D01*
X63274Y73953D01*
X62558Y74432D01*
X61713Y74600D01*
X60868Y74432D01*
X60151Y73953D01*
X59673Y73237D01*
X59505Y72392D01*
X59673Y71547D01*
X59695Y71514D01*
X59334Y71154D01*
X59151Y71276D01*
X58268Y71452D01*
X55315D01*
X54432Y71276D01*
X53683Y70776D01*
X53183Y70027D01*
X53007Y69144D01*
Y67100D01*
X52545Y66909D01*
X49385Y70068D01*
X48962Y70351D01*
X48463Y70450D01*
X47511D01*
X47359Y70775D01*
X47340Y70938D01*
X47451Y71063D01*
X50229Y73841D01*
X55924D01*
X56461Y73948D01*
X56917Y74253D01*
X60666Y78002D01*
X62992D01*
X64346Y79356D01*
X64888Y79191D01*
D02*
G37*
G36*
X30320Y73160D02*
X31103Y73004D01*
X31796Y73142D01*
X32296Y72878D01*
Y71452D01*
X31693D01*
X30810Y71276D01*
X30061Y70776D01*
X29593Y70076D01*
X29531Y70028D01*
X29089Y69453D01*
X28812Y68782D01*
X28749Y68309D01*
X28324Y67944D01*
X28232Y67916D01*
X27854Y67991D01*
X20374D01*
X19606Y67839D01*
X19535Y67791D01*
X19094Y68027D01*
Y71579D01*
X19535Y71815D01*
X19606Y71768D01*
X20374Y71615D01*
X27854D01*
X28622Y71768D01*
X29274Y72203D01*
X29709Y72854D01*
X29746Y73043D01*
X30208Y73234D01*
X30320Y73160D01*
D02*
G37*
G36*
X113396Y63207D02*
X113826Y62647D01*
X114402Y62205D01*
X115072Y61927D01*
X115791Y61833D01*
X116511Y61927D01*
X117181Y62205D01*
X117672Y62582D01*
X118212Y62632D01*
X118241Y62631D01*
X118341Y62481D01*
X119005Y62037D01*
X119788Y61882D01*
X119957Y61915D01*
X120585Y61287D01*
Y59898D01*
X120085Y59635D01*
X119390Y59774D01*
X118606Y59618D01*
X117942Y59174D01*
X117498Y58510D01*
X117343Y57727D01*
X117396Y57458D01*
X116955Y57113D01*
X116511Y57297D01*
X115791Y57392D01*
X115072Y57297D01*
X114402Y57020D01*
X113826Y56578D01*
X113396Y56018D01*
X113126Y55975D01*
X113120D01*
X112850Y56018D01*
X112420Y56578D01*
X111844Y57020D01*
X111759Y57055D01*
Y59870D01*
X111660Y60370D01*
X111377Y60793D01*
X111243Y60927D01*
Y61319D01*
X111221Y61429D01*
X111187Y61787D01*
X111543Y62080D01*
X111844Y62205D01*
X112420Y62647D01*
X112850Y63207D01*
X113120Y63249D01*
X113126D01*
X113396Y63207D01*
D02*
G37*
G36*
X19606Y61768D02*
X20374Y61615D01*
X25562D01*
X25670Y61542D01*
X26170Y61443D01*
X26251D01*
X26280Y60955D01*
X26280D01*
Y55049D01*
X28832D01*
X31131Y52750D01*
Y49622D01*
X30631Y49573D01*
X30485Y50305D01*
X30007Y51021D01*
X29290Y51499D01*
X28445Y51667D01*
X27600Y51499D01*
X26884Y51021D01*
X26779Y50864D01*
X26280Y51016D01*
Y52057D01*
X22539D01*
X22275Y52448D01*
Y54852D01*
X22539D01*
Y60758D01*
X19094D01*
Y61579D01*
X19535Y61815D01*
X19606Y61768D01*
D02*
G37*
%LPC*%
G36*
X401207Y209146D02*
X398901D01*
Y207036D01*
X399385D01*
X400082Y207175D01*
X400673Y207570D01*
X401069Y208161D01*
X401207Y208858D01*
Y209146D01*
D02*
G37*
G36*
X382578Y197039D02*
X381066D01*
Y195528D01*
X381640Y195642D01*
X382134Y195972D01*
X382464Y196465D01*
X382578Y197039D01*
D02*
G37*
G36*
X399286Y193577D02*
X398259Y193442D01*
X397301Y193045D01*
X396479Y192414D01*
X395847Y191592D01*
X395451Y190634D01*
X395315Y189606D01*
X395451Y188579D01*
X395847Y187621D01*
X396479Y186798D01*
X397301Y186167D01*
X398259Y185771D01*
X399286Y185635D01*
X400314Y185771D01*
X401272Y186167D01*
X402094Y186798D01*
X402725Y187621D01*
X403122Y188579D01*
X403257Y189606D01*
X403122Y190634D01*
X402725Y191592D01*
X402094Y192414D01*
X401272Y193045D01*
X400314Y193442D01*
X399286Y193577D01*
D02*
G37*
G36*
X390763Y193591D02*
X387810D01*
X386850Y193401D01*
X386036Y192857D01*
X385492Y192043D01*
X385301Y191083D01*
Y188130D01*
X385492Y187170D01*
X386036Y186356D01*
X386850Y185812D01*
X387810Y185621D01*
X390763D01*
X391723Y185812D01*
X392537Y186356D01*
X393081Y187170D01*
X393272Y188130D01*
Y191083D01*
X393081Y192043D01*
X392537Y192857D01*
X391723Y193401D01*
X390763Y193591D01*
D02*
G37*
G36*
X420406Y198909D02*
X417700D01*
Y195022D01*
X418283D01*
X419095Y195184D01*
X419784Y195644D01*
X420244Y196333D01*
X420406Y197146D01*
Y198909D01*
D02*
G37*
G36*
X416700D02*
X413994D01*
Y197146D01*
X414155Y196333D01*
X414616Y195644D01*
X415305Y195184D01*
X416117Y195022D01*
X416700D01*
Y198909D01*
D02*
G37*
G36*
X409786Y193527D02*
Y190106D01*
X413207D01*
X413137Y190638D01*
X412739Y191600D01*
X412106Y192426D01*
X411280Y193059D01*
X410318Y193457D01*
X409786Y193527D01*
D02*
G37*
G36*
X413207Y189106D02*
X409786D01*
Y185685D01*
X410318Y185755D01*
X411280Y186154D01*
X412106Y186787D01*
X412739Y187613D01*
X413137Y188575D01*
X413207Y189106D01*
D02*
G37*
G36*
X101476Y116338D02*
X101287D01*
Y114033D01*
X103199D01*
Y114616D01*
X103067Y115275D01*
X102694Y115834D01*
X102135Y116207D01*
X101476Y116338D01*
D02*
G37*
G36*
X100287D02*
X100098D01*
X99439Y116207D01*
X98881Y115834D01*
X98507Y115275D01*
X98376Y114616D01*
Y114033D01*
X100287D01*
Y116338D01*
D02*
G37*
G36*
X103199Y113033D02*
X101287D01*
Y110729D01*
X101476D01*
X102135Y110860D01*
X102694Y111233D01*
X103067Y111792D01*
X103199Y112451D01*
Y113033D01*
D02*
G37*
G36*
X100287D02*
X98376D01*
Y112451D01*
X98507Y111792D01*
X98881Y111233D01*
X99439Y110860D01*
X100098Y110729D01*
X100287D01*
Y113033D01*
D02*
G37*
G36*
X107382Y116121D02*
X106004D01*
X105428Y116007D01*
X104939Y115681D01*
X104613Y115192D01*
X104499Y114616D01*
Y112451D01*
X104613Y111875D01*
X104939Y111387D01*
X105388Y111087D01*
Y109695D01*
X105435Y109461D01*
X105238Y109098D01*
X104715Y109040D01*
X104499Y109363D01*
X103835Y109807D01*
X103051Y109963D01*
X102268Y109807D01*
X101641Y109388D01*
X101373Y109789D01*
X100901Y110104D01*
X100345Y110215D01*
X97293D01*
X96737Y110104D01*
X96264Y109789D01*
X95949Y109317D01*
X95838Y108760D01*
Y107480D01*
X95949Y106924D01*
X96264Y106451D01*
X95996Y106029D01*
X95749Y105660D01*
X95621Y105020D01*
Y104880D01*
X98819D01*
X102016D01*
Y105020D01*
X101889Y105660D01*
X101870Y105689D01*
X102230Y106049D01*
X102268Y106024D01*
X103051Y105868D01*
X103835Y106024D01*
X104499Y106468D01*
X104868Y107021D01*
X105325Y106992D01*
X105389Y106968D01*
X105398Y106924D01*
X105713Y106451D01*
X106185Y106136D01*
X106742Y106025D01*
X109793D01*
X110350Y106136D01*
X110822Y106451D01*
X111138Y106924D01*
X111248Y107480D01*
Y108760D01*
X111138Y109317D01*
X110822Y109789D01*
X110350Y110104D01*
X109793Y110215D01*
X108018D01*
X107998Y110235D01*
Y111087D01*
X108446Y111387D01*
X108773Y111875D01*
X108887Y112451D01*
Y114616D01*
X108773Y115192D01*
X108446Y115681D01*
X107958Y116007D01*
X107382Y116121D01*
D02*
G37*
G36*
X128634Y110967D02*
X124197D01*
Y104561D01*
X128634D01*
Y110967D01*
D02*
G37*
G36*
X120453Y104819D02*
X120264D01*
Y103305D01*
X121973D01*
X121858Y103879D01*
X121528Y104373D01*
X121035Y104703D01*
X120453Y104819D01*
D02*
G37*
G36*
X121973Y102305D02*
X120264D01*
Y100792D01*
X120453D01*
X121035Y100908D01*
X121528Y101237D01*
X121858Y101731D01*
X121973Y102305D01*
D02*
G37*
G36*
X82866Y102883D02*
X82488Y102833D01*
X81670Y102494D01*
X80968Y101955D01*
X80429Y101253D01*
X80090Y100435D01*
X80041Y100057D01*
X82866D01*
Y102883D01*
D02*
G37*
G36*
Y99057D02*
X80041D01*
X80090Y98680D01*
X80429Y97862D01*
X80968Y97159D01*
X81670Y96620D01*
X82488Y96281D01*
X82866Y96232D01*
Y99057D01*
D02*
G37*
G36*
X124648Y81734D02*
X123433D01*
Y80156D01*
X123802Y80230D01*
X124247Y80527D01*
X124544Y80972D01*
X124648Y81496D01*
Y81734D01*
D02*
G37*
G36*
X43988Y40347D02*
X43750D01*
X43225Y40243D01*
X42781Y39946D01*
X42483Y39501D01*
X42410Y39132D01*
X43988D01*
Y40347D01*
D02*
G37*
G36*
X58571Y39034D02*
X56496D01*
Y36762D01*
X58571D01*
Y39034D01*
D02*
G37*
G36*
X55496D02*
X53421D01*
Y36762D01*
X55496D01*
Y39034D01*
D02*
G37*
G36*
X65764Y38746D02*
X63492D01*
Y36671D01*
X65764D01*
Y38746D01*
D02*
G37*
G36*
X62492D02*
X60220D01*
Y36671D01*
X62492D01*
Y38746D01*
D02*
G37*
G36*
X65764Y35671D02*
X63492D01*
Y33597D01*
X65764D01*
Y35671D01*
D02*
G37*
G36*
X62492D02*
X60220D01*
Y33597D01*
X62492D01*
Y35671D01*
D02*
G37*
G36*
X78291Y37837D02*
X76976D01*
Y33590D01*
X77414Y33677D01*
X77875Y33985D01*
X78183Y34446D01*
X78291Y34990D01*
Y37837D01*
D02*
G37*
G36*
X75976D02*
X74662D01*
Y34990D01*
X74770Y34446D01*
X75078Y33985D01*
X75539Y33677D01*
X75976Y33590D01*
Y37837D01*
D02*
G37*
G36*
X58571Y35762D02*
X56496D01*
Y33490D01*
X58571D01*
Y35762D01*
D02*
G37*
G36*
X55496D02*
X53421D01*
Y33490D01*
X55496D01*
Y35762D01*
D02*
G37*
G36*
X34400Y114251D02*
X31348D01*
X30792Y114140D01*
X30319Y113824D01*
X30004Y113352D01*
X29936Y113012D01*
X29406Y112906D01*
X29400Y112914D01*
X28736Y113358D01*
X27953Y113514D01*
X27726Y113469D01*
X27264Y113560D01*
X26156D01*
X25980Y113824D01*
X25508Y114140D01*
X24951Y114251D01*
X21900D01*
X21343Y114140D01*
X20871Y113824D01*
X20555Y113352D01*
X20445Y112795D01*
Y111516D01*
X20555Y110959D01*
X20871Y110487D01*
X20602Y110065D01*
X20355Y109695D01*
X20228Y109055D01*
Y108915D01*
X23425D01*
X26623D01*
Y109055D01*
X26557Y109383D01*
X27007Y109683D01*
X27169Y109575D01*
X27953Y109419D01*
X28736Y109575D01*
X29400Y110019D01*
X29716Y110491D01*
X30265Y110535D01*
X30294Y110525D01*
X30319Y110487D01*
X30792Y110171D01*
X31348Y110061D01*
X34400D01*
X34888Y110158D01*
X35018Y109502D01*
X35462Y108838D01*
X36126Y108394D01*
X36909Y108238D01*
X37693Y108394D01*
X37891Y108526D01*
X38362Y108212D01*
X38976Y108089D01*
X40945D01*
X41559Y108212D01*
X42080Y108560D01*
X42219Y108767D01*
X42820D01*
X42959Y108560D01*
X43480Y108212D01*
X44094Y108089D01*
X46063D01*
X46678Y108212D01*
X47198Y108560D01*
X47546Y109081D01*
X47669Y109695D01*
Y111270D01*
X47546Y111884D01*
X47198Y112405D01*
X46678Y112753D01*
X46063Y112875D01*
X44094D01*
X43480Y112753D01*
X42959Y112405D01*
X42820Y112197D01*
X42219D01*
X42080Y112405D01*
X41559Y112753D01*
X40945Y112875D01*
X39413D01*
X39210Y113078D01*
X38787Y113361D01*
X38287Y113460D01*
X35672D01*
X35429Y113824D01*
X34956Y114140D01*
X34400Y114251D01*
D02*
G37*
G36*
X46063Y107580D02*
X45579D01*
Y105471D01*
X47885D01*
Y105758D01*
X47747Y106455D01*
X47352Y107047D01*
X46760Y107442D01*
X46063Y107580D01*
D02*
G37*
G36*
X39461D02*
X38976D01*
X38279Y107442D01*
X37688Y107047D01*
X37293Y106455D01*
X37154Y105758D01*
Y105471D01*
X39461D01*
Y107580D01*
D02*
G37*
G36*
X27748Y101478D02*
X27461D01*
X26763Y101339D01*
X26172Y100944D01*
X25777Y100353D01*
X25638Y99656D01*
Y99171D01*
X27748D01*
Y101478D01*
D02*
G37*
G36*
X54186Y96977D02*
X51915D01*
Y94902D01*
X54186D01*
Y96977D01*
D02*
G37*
G36*
X50915D02*
X48643D01*
Y94902D01*
X50915D01*
Y96977D01*
D02*
G37*
G36*
X54186Y93902D02*
X51915D01*
Y91828D01*
X54186D01*
Y93902D01*
D02*
G37*
G36*
X50915D02*
X48643D01*
Y91828D01*
X50915D01*
Y93902D01*
D02*
G37*
G36*
X26623Y107915D02*
X23425D01*
X20228D01*
Y107776D01*
X20355Y107136D01*
X20602Y106766D01*
X20871Y106344D01*
X20555Y105872D01*
X20445Y105315D01*
Y104035D01*
X20555Y103479D01*
X20871Y103007D01*
X21343Y102691D01*
X21432Y102673D01*
Y101158D01*
X21334Y101139D01*
X20813Y100791D01*
X20465Y100270D01*
X20343Y99656D01*
Y97687D01*
X20465Y97073D01*
X20813Y96552D01*
X21021Y96413D01*
Y95812D01*
X20813Y95673D01*
X20465Y95152D01*
X20343Y94538D01*
Y92569D01*
X20465Y91954D01*
X20813Y91434D01*
X21334Y91086D01*
X21949Y90963D01*
X23524D01*
X24138Y91086D01*
X24659Y91434D01*
X25007Y91954D01*
X25129Y92569D01*
Y94538D01*
X25007Y95152D01*
X24659Y95673D01*
X24451Y95812D01*
Y96413D01*
X24659Y96552D01*
X25007Y97073D01*
X25129Y97687D01*
Y99656D01*
X25007Y100270D01*
X24659Y100791D01*
X24138Y101139D01*
X24041Y101158D01*
Y102580D01*
X24951D01*
X25508Y102691D01*
X25980Y103007D01*
X26295Y103479D01*
X26406Y104035D01*
Y105315D01*
X26295Y105872D01*
X25980Y106344D01*
X26248Y106766D01*
X26495Y107136D01*
X26623Y107776D01*
Y107915D01*
D02*
G37*
%LPD*%
D10*
X111221Y79478D02*
D03*
X55996Y36262D02*
D03*
X50484D02*
D03*
X376353Y201969D02*
D03*
X381865D02*
D03*
D11*
X116732Y79478D02*
D03*
X85138Y78888D02*
D03*
X90650D02*
D03*
X115551Y89912D02*
D03*
X39961Y99459D02*
D03*
X45472D02*
D03*
X39961Y94538D02*
D03*
X45472D02*
D03*
X22736Y98671D02*
D03*
X28248D02*
D03*
X22736Y93553D02*
D03*
X28248D02*
D03*
X45472Y89616D02*
D03*
X39961D02*
D03*
X417397Y205807D02*
D03*
X422908D02*
D03*
X400369Y177559D02*
D03*
X405881D02*
D03*
D12*
X62992Y41683D02*
D03*
Y36171D02*
D03*
X51415Y88891D02*
D03*
Y94402D02*
D03*
X400566Y155217D02*
D03*
Y160728D02*
D03*
X404995Y214272D02*
D03*
Y208760D02*
D03*
X379306Y179232D02*
D03*
Y184744D02*
D03*
D13*
X115472Y102805D02*
D03*
X119764D02*
D03*
X68425Y86171D02*
D03*
X72716D02*
D03*
X89055Y38632D02*
D03*
X84764D02*
D03*
X89153Y35482D02*
D03*
X84862D02*
D03*
D14*
X100787Y113534D02*
D03*
X106693D02*
D03*
D15*
X98819Y108120D02*
D03*
Y104380D02*
D03*
Y100640D02*
D03*
X108268D02*
D03*
Y108120D02*
D03*
X23425Y112156D02*
D03*
Y108415D02*
D03*
Y104675D02*
D03*
X32874D02*
D03*
Y112156D02*
D03*
D16*
X32933Y37156D02*
D03*
X22933D02*
D03*
D17*
X44488Y35482D02*
D03*
Y38632D02*
D03*
X39764Y37057D02*
D03*
X105118Y71211D02*
D03*
Y68061D02*
D03*
X109843Y69636D02*
D03*
X104626Y62549D02*
D03*
Y59400D02*
D03*
X109350Y60975D02*
D03*
D18*
X63976Y46329D02*
D03*
Y50620D02*
D03*
X68602Y77727D02*
D03*
Y82018D02*
D03*
X99606Y78081D02*
D03*
Y73790D02*
D03*
D19*
X71161Y46309D02*
D03*
X73130D02*
D03*
X75098D02*
D03*
X77067D02*
D03*
X79035D02*
D03*
X81004D02*
D03*
X82972D02*
D03*
X84941D02*
D03*
X86909D02*
D03*
X88878D02*
D03*
X90847D02*
D03*
X92815D02*
D03*
Y73868D02*
D03*
X90847D02*
D03*
X88878D02*
D03*
X86909D02*
D03*
X84941D02*
D03*
X82972D02*
D03*
X81004D02*
D03*
X79035D02*
D03*
X77067D02*
D03*
X75098D02*
D03*
X73130D02*
D03*
X71161D02*
D03*
D20*
X95768Y49262D02*
D03*
Y51230D02*
D03*
Y53199D02*
D03*
Y55167D02*
D03*
Y57136D02*
D03*
Y59104D02*
D03*
Y61073D02*
D03*
Y63041D02*
D03*
Y65010D02*
D03*
Y66978D02*
D03*
Y68947D02*
D03*
Y70915D02*
D03*
X68209D02*
D03*
Y68947D02*
D03*
Y66978D02*
D03*
Y65010D02*
D03*
Y63041D02*
D03*
Y61073D02*
D03*
Y59104D02*
D03*
Y57136D02*
D03*
Y55167D02*
D03*
Y53199D02*
D03*
Y51230D02*
D03*
Y49262D02*
D03*
D21*
X81988Y60089D02*
D03*
D22*
X99114Y94931D02*
D03*
Y89419D02*
D03*
X39961Y110482D02*
D03*
Y104971D02*
D03*
X45079Y110482D02*
D03*
Y104971D02*
D03*
X33268Y93356D02*
D03*
Y98868D02*
D03*
X384424Y162599D02*
D03*
Y168110D02*
D03*
X389247D02*
D03*
Y162599D02*
D03*
X406270Y155313D02*
D03*
Y160825D02*
D03*
X380881Y212205D02*
D03*
Y206693D02*
D03*
X394070Y168110D02*
D03*
Y162599D02*
D03*
X398401Y215158D02*
D03*
Y209646D02*
D03*
X414838Y166043D02*
D03*
Y160531D02*
D03*
D23*
X110039Y89912D02*
D03*
D24*
X119783Y82234D02*
D03*
X122933D02*
D03*
X121358Y86959D02*
D03*
X107283Y77510D02*
D03*
X105709Y82234D02*
D03*
D25*
X104134Y77510D02*
D03*
D26*
X81201Y38337D02*
D03*
X76476D02*
D03*
X71752D02*
D03*
D27*
X33169Y67667D02*
D03*
X56791D02*
D03*
X33169Y44045D02*
D03*
X56791D02*
D03*
X311860Y212894D02*
D03*
X389286Y189606D02*
D03*
X536713Y212894D02*
D03*
D28*
X24114Y84803D02*
D03*
Y74803D02*
D03*
Y64803D02*
D03*
D29*
X129134Y37845D02*
D03*
D30*
Y111467D02*
D03*
D31*
X24409Y49104D02*
D03*
X20669Y57805D02*
D03*
X28150Y58002D02*
D03*
D32*
X121656Y43712D02*
X124159Y46214D01*
X122390Y41940D02*
X125930Y45480D01*
X68602Y82057D02*
X72716Y86171D01*
X68602Y82018D02*
Y82057D01*
X101496Y79971D02*
X104454D01*
X107185Y91426D02*
X110372Y94612D01*
X107185Y83711D02*
Y91426D01*
X79626Y83907D02*
X88684Y92966D01*
X105709Y82234D02*
X107185Y83711D01*
X76676Y38536D02*
Y40798D01*
X75390Y43356D02*
X78051D01*
X71752Y39719D02*
X75390Y43356D01*
X81004Y39616D02*
Y46309D01*
X79035Y44341D02*
Y46309D01*
X78051Y43356D02*
X79035Y44341D01*
X95768Y49262D02*
X95903D01*
X107520Y47853D02*
Y47886D01*
X91185Y91930D02*
Y94001D01*
X81398Y82143D02*
X91185Y91930D01*
X86910Y95817D02*
X87261Y95466D01*
X89720D01*
X91185Y94001D01*
X79626Y78682D02*
Y83907D01*
X108375Y49593D02*
X117871D01*
X31087Y101821D02*
X33268Y99640D01*
Y98868D02*
Y99640D01*
X28248Y98671D02*
X28445Y98868D01*
X33268D01*
X45079Y94931D02*
X45472Y94538D01*
X39961Y104971D02*
X45079D01*
X61713Y72392D02*
X62992D01*
X75098Y78101D02*
X75886Y78888D01*
X75098Y73868D02*
Y78101D01*
X77067Y76230D02*
X77658Y76821D01*
X79035Y75586D02*
X81398Y77948D01*
X79035Y73868D02*
Y75586D01*
X77067Y73868D02*
Y76230D01*
X77765Y76821D02*
X79626Y78682D01*
X77658Y76821D02*
X77765D01*
X105610Y79675D02*
X107283Y78002D01*
X104134Y74492D02*
Y77510D01*
X102920Y73278D02*
X104134Y74492D01*
X102920Y72556D02*
Y73278D01*
X66575Y48927D02*
X67874D01*
X63976Y46329D02*
X66575Y48927D01*
X62992Y41683D02*
X63976Y42667D01*
Y46329D01*
X122933Y76031D02*
Y82234D01*
X123950Y85614D02*
Y91047D01*
X122933Y84597D02*
X123950Y85614D01*
X117137Y97860D02*
X123950Y91047D01*
X124907Y66146D02*
Y69933D01*
Y66146D02*
X125005Y66048D01*
X126041Y72433D02*
X127461Y71013D01*
Y69933D02*
Y71013D01*
Y69933D02*
X127505Y69888D01*
Y65645D02*
Y69888D01*
X128937Y72042D02*
X129232Y71747D01*
Y70667D02*
Y71747D01*
Y70667D02*
X129277Y70622D01*
Y64911D02*
Y70622D01*
X127205Y62839D02*
X129277Y64911D01*
X36319Y96408D02*
Y101230D01*
X33268Y93356D02*
X36319Y96408D01*
X32874Y104675D02*
X36319Y101230D01*
X102264Y68586D02*
X104888Y71211D01*
X99401Y65010D02*
X102264Y67873D01*
Y68586D01*
X95768Y65010D02*
X99401D01*
X107283Y72425D02*
Y72564D01*
X107480Y70193D02*
Y72228D01*
X102756Y72392D02*
X102920Y72556D01*
X102756Y71584D02*
Y72392D01*
X54508Y53081D02*
X68090D01*
X125433Y63573D02*
X127505Y65645D01*
X127205Y51410D02*
Y62839D01*
X128937Y72042D02*
Y75640D01*
X125433Y52144D02*
Y63573D01*
X123661Y52878D02*
Y64704D01*
X125005Y66048D01*
X123174Y72433D02*
X126041D01*
X119690Y68949D02*
X123174Y72433D01*
X64369Y55167D02*
X68209D01*
X63976Y55560D02*
X64077Y55661D01*
X64587Y51230D02*
X68209D01*
X63976Y50620D02*
X64587Y51230D01*
X67874Y48927D02*
X68209Y49262D01*
X68090Y53081D02*
X68209Y53199D01*
X122387Y51603D02*
X123661Y52878D01*
X122387Y46948D02*
Y51603D01*
X120922Y45483D02*
X122387Y46948D01*
X121890Y53612D02*
Y61827D01*
X117871Y49593D02*
X121890Y53612D01*
X119039Y53267D02*
Y57376D01*
X117137Y51364D02*
X119039Y53267D01*
X125930Y45480D02*
Y50136D01*
X127205Y51410D01*
X119099Y72197D02*
X121952Y75049D01*
X124159Y50869D02*
X125433Y52144D01*
X124159Y46214D02*
Y50869D01*
X119788Y63929D02*
X121890Y61827D01*
X119039Y57376D02*
X119390Y57727D01*
X121952Y75049D02*
X122933Y76031D01*
X80709Y96900D02*
X83366Y99557D01*
X80709Y93455D02*
Y96900D01*
X82579Y99557D02*
X83366D01*
X63976Y46329D02*
X64488Y45817D01*
X67716D01*
X84252Y79774D02*
X85069D01*
X88878Y73868D02*
Y75965D01*
X90847Y73868D02*
Y78297D01*
X39961Y88435D02*
Y89616D01*
X39764Y110285D02*
X39961Y110482D01*
X36909Y110285D02*
X39764D01*
X68602Y82018D02*
X73130Y77490D01*
Y73868D02*
Y77490D01*
X71161Y73868D02*
Y75167D01*
X73130Y51230D02*
X79035Y57136D01*
X81988Y60089D01*
X68209Y57136D02*
X79035D01*
X68209Y51230D02*
X73130D01*
Y68947D02*
Y73868D01*
X90847Y68947D02*
X95768D01*
X121916Y84597D02*
X122933D01*
X119783Y82464D02*
X121916Y84597D01*
X109109Y97860D02*
X117137D01*
X76476Y38337D02*
X76676Y38536D01*
X71752Y38337D02*
Y39719D01*
X76575Y50640D02*
X76578Y50637D01*
Y50050D02*
Y50637D01*
X81004Y39616D02*
X81496Y39124D01*
X104888Y71211D02*
X105118D01*
X105512Y68061D02*
X106988Y69538D01*
X107283Y69833D01*
X106988Y61532D02*
Y69538D01*
X105118Y68061D02*
X105512D01*
X107283Y72425D02*
X107480Y72228D01*
X107283Y69997D02*
X107480Y70193D01*
X107283Y69833D02*
Y69997D01*
X110454Y70248D02*
Y74612D01*
X109843Y69636D02*
X110454Y70248D01*
Y54612D02*
Y59870D01*
X109350Y60975D02*
X110454Y59870D01*
X106988Y60701D02*
Y61532D01*
X106988Y61532D01*
X105687Y59400D02*
X106988Y60701D01*
X104626Y59400D02*
X105687D01*
X119783Y82234D02*
Y82464D01*
X110372Y94612D02*
X110454D01*
X129134Y37845D02*
X132185Y40896D01*
X115048Y94612D02*
X115791D01*
X110347Y89912D02*
X115048Y94612D01*
X110039Y89912D02*
X110347D01*
X115272Y84612D02*
X115791D01*
X38287Y112156D02*
X39961Y110482D01*
X33268Y90207D02*
Y93356D01*
X32874Y112156D02*
X38287D01*
X39961Y110482D02*
X45079D01*
X39862Y94439D02*
X39961Y94538D01*
Y99459D01*
X22736Y98671D02*
Y103986D01*
Y93553D02*
Y98671D01*
Y103986D02*
X23425Y104675D01*
X36909Y86565D02*
X41604D01*
X44655Y89616D01*
X45472D01*
X33268Y90207D02*
X36909Y86565D01*
X50689Y89616D02*
X51415Y88891D01*
X45472Y89616D02*
X50689D01*
X48760Y79230D02*
Y83278D01*
X33031Y37057D02*
X39764D01*
X32933Y37156D02*
X33031Y37057D01*
X26170Y62748D02*
X40257D01*
X24114Y64803D02*
X26170Y62748D01*
X28248Y92721D02*
X36176Y84793D01*
X41732D01*
X28248Y92721D02*
Y93553D01*
X24114Y74803D02*
X30855D01*
X44876Y75347D02*
X48760Y79230D01*
X39273Y75347D02*
X44876D01*
X30855Y74803D02*
X31103Y75051D01*
X34351Y79382D02*
X36176Y81207D01*
Y84793D01*
X62992Y72392D02*
X64468Y70915D01*
X68209D01*
X68072Y62905D02*
X68209Y63041D01*
X54703Y62905D02*
X68072D01*
X61813Y65405D02*
X62208Y65010D01*
X68209D01*
X48463Y69146D02*
X54703Y62905D01*
X45572Y69146D02*
X48463D01*
X68802Y77527D02*
X71161Y75167D01*
X48720Y83317D02*
X48760Y83278D01*
X41732Y84793D02*
X46260Y80266D01*
X95669Y71014D02*
X95768Y70915D01*
Y68947D02*
X98327D01*
X98721Y69341D01*
Y71314D01*
X99020Y71613D01*
X95768Y63041D02*
X103740D01*
X95768Y66978D02*
X98864D01*
X100492Y68607D01*
Y69320D01*
X102756Y71584D01*
X106693Y109695D02*
Y113534D01*
Y109695D02*
X108268Y108120D01*
X64666Y61073D02*
X68209D01*
X62236Y58643D02*
X64666Y61073D01*
X85069Y79774D02*
X88878Y75965D01*
X103740Y63041D02*
X104429Y62352D01*
X75197Y87156D02*
X76181Y86171D01*
X56791Y81250D02*
X67817Y92276D01*
X56791Y79872D02*
Y81250D01*
X98524Y35089D02*
X99614D01*
X101819Y37293D01*
X105347D01*
X109993Y41940D02*
X122390D01*
X105347Y37293D02*
X109993Y41940D01*
X63976Y55560D02*
X64369Y55167D01*
X107384Y45483D02*
X120922D01*
X107520Y47853D02*
X107564Y47898D01*
X107641Y47821D01*
X118605D01*
X118767Y47983D01*
X119887D01*
X109109Y51364D02*
X117137D01*
X95768Y59104D02*
X98863D01*
X95768Y61073D02*
X99400D01*
X106650Y43712D02*
X121656D01*
X46949Y35482D02*
X48228Y36762D01*
X44488Y35482D02*
X46949D01*
X48228Y36762D02*
Y46801D01*
X54508Y53081D01*
X46949Y35482D02*
X49705D01*
X50484Y36262D01*
X90650Y80955D02*
X99114Y89419D01*
X90650Y78888D02*
Y80955D01*
X90453Y78691D02*
X90847Y78297D01*
X105413Y94165D02*
X109109Y97860D01*
X99020Y71613D02*
Y73203D01*
X99606Y73790D01*
X92815Y73868D02*
Y75148D01*
X105413Y87746D01*
Y94165D01*
X118405Y89912D02*
X121358Y86959D01*
X115551Y89912D02*
X118405D01*
X81398Y77948D02*
Y82143D01*
X75197Y87156D02*
Y101040D01*
X67817Y92276D02*
Y101923D01*
X67618Y102122D02*
X67817Y101923D01*
X95669Y71014D02*
Y73728D01*
X95768Y57136D02*
X98237D01*
X95768Y55167D02*
X97700D01*
X92815Y46309D02*
X93562Y45562D01*
X95903Y49262D02*
X97832Y47333D01*
X96953Y43356D02*
X97248Y43062D01*
X99400Y61073D02*
X109109Y51364D01*
X98863Y59104D02*
X108375Y49593D01*
X98237Y57136D02*
X103217Y52156D01*
X103251D01*
X107520Y47886D01*
X97700Y55167D02*
X102483Y50384D01*
X102517D01*
X103345Y49556D01*
Y49523D02*
Y49556D01*
Y49523D02*
X107384Y45483D01*
X93562Y45562D02*
X100354D01*
X105217Y40699D01*
X97832Y47333D02*
X103029D01*
X106650Y43712D01*
X39862Y94439D02*
X39961Y94341D01*
Y89616D02*
Y94341D01*
X90847Y44582D02*
Y46309D01*
Y44582D02*
X92072Y43356D01*
X96953D01*
X88878Y44045D02*
Y46309D01*
Y44045D02*
X89314Y43609D01*
Y43515D02*
Y43609D01*
Y43515D02*
X92031Y40798D01*
X73130Y68947D02*
X81988Y60089D01*
X90847Y68947D01*
X45079Y94931D02*
Y104971D01*
D33*
X99606Y78081D02*
X101496Y79971D01*
X107283Y77510D02*
Y78002D01*
X108071Y77510D02*
X110236Y79675D01*
X107283Y77510D02*
X108071D01*
X107108Y72739D02*
X107283Y72564D01*
X107108Y72739D02*
Y77334D01*
X107283Y77510D01*
X27264Y112156D02*
X27953Y111467D01*
X23425Y112156D02*
X27264D01*
X39206Y67667D02*
X40728Y69190D01*
Y70359D01*
X42272Y71902D01*
X33701Y68199D02*
Y76128D01*
X24114Y84803D02*
X25026D01*
X24409Y49104D02*
X28090D01*
X28445Y49460D01*
X25026Y84803D02*
X33701Y76128D01*
X62795Y68947D02*
X68209D01*
X62598Y68750D02*
X62795Y68947D01*
X42272Y71902D02*
X46303D01*
X49648Y75246D01*
X66240Y83986D02*
X68425Y86171D01*
X66240Y79459D02*
X68517D01*
X68802Y79174D01*
Y74362D02*
Y77527D01*
X66240Y79459D02*
Y83986D01*
X95669Y74144D02*
X99606Y78081D01*
X55924Y75246D02*
X63441Y82764D01*
X49648Y75246D02*
X55924D01*
X63441Y82764D02*
Y85255D01*
X68425Y86171D02*
Y87455D01*
X72539Y91570D01*
X69195Y108813D02*
X70571Y107438D01*
X63441Y85255D02*
X70571Y92385D01*
Y107438D01*
X95669Y73728D02*
Y74144D01*
X65650Y114026D02*
X68307D01*
X72539Y109793D01*
Y91570D02*
Y109793D01*
X31892Y67667D02*
X39206D01*
X89055Y35581D02*
Y38632D01*
Y35581D02*
X89153Y35482D01*
X89055Y38632D02*
Y39344D01*
X87307Y41093D02*
X89055Y39344D01*
X86909Y41093D02*
Y46309D01*
X68802Y77527D02*
Y79174D01*
D34*
X104454Y79971D02*
X105315D01*
X95768Y51230D02*
X97347D01*
X105315Y79971D02*
X105610Y79675D01*
X101689Y107915D02*
X103051D01*
X98819Y108120D02*
X102846D01*
X103051Y107915D01*
X93898Y95030D02*
X99016D01*
X99114Y94931D01*
X89075Y99852D02*
X93898Y95030D01*
X97347Y51230D02*
X98694Y49883D01*
X84334Y40128D02*
X84413Y40050D01*
X98694Y49883D02*
X99449D01*
X84941Y46309D02*
Y57136D01*
X81988Y60089D02*
X84941Y57136D01*
X84334Y43287D02*
X84941Y43894D01*
Y46309D01*
X84334Y40128D02*
Y43287D01*
D35*
X20669Y41388D02*
Y57805D01*
Y41388D02*
X22933Y39124D01*
Y42153D01*
X27067Y46287D01*
X28150Y58002D02*
X32736Y53415D01*
Y44478D02*
Y46287D01*
Y53415D01*
X86122Y113337D02*
X88530D01*
X117483Y104816D02*
Y106447D01*
X115472Y102805D02*
X117483Y104816D01*
X108268Y100640D02*
X113307D01*
X115472Y102805D01*
X89075Y99852D02*
X89862Y100640D01*
X92126D01*
Y109741D01*
X88530Y113337D02*
X92126Y109741D01*
Y100640D02*
X98819D01*
X32736Y44478D02*
X33169Y44045D01*
X27067Y46287D02*
X32736D01*
X51669Y185724D02*
G03*
X51673Y185728I-6412J6420D01*
G01*
X45257Y183071D02*
G03*
X51669Y185724I0J9073D01*
G01*
X54724Y229145D02*
G03*
X54823Y227943I7393J0D01*
G01*
D02*
G03*
X56888Y223920I7295J1202D01*
G01*
X90873Y168924D02*
G03*
X92126Y171949I-3024J3024D01*
G01*
X76083Y221752D02*
G03*
X75274Y221417I0J-1144D01*
G01*
X66095Y205367D02*
G03*
X68405Y210948I-5587J5582D01*
G01*
X66092Y205364D02*
G03*
X66095Y205367I-5584J5584D01*
G01*
X62010Y232585D02*
G03*
X62008Y232587I-2140J-2137D01*
G01*
X56888Y223920D02*
G03*
X56890Y223917I5230J5226D01*
G01*
X46052Y220560D02*
G03*
X47441Y223917I-3363J3358D01*
G01*
X46049Y220557D02*
G03*
X46052Y220560I-3360J3360D01*
G01*
X30810Y200987D02*
G03*
X30807Y200984I4749J-4755D01*
G01*
X40646Y192717D02*
G03*
X40793Y192860I-5902J6192D01*
G01*
X38253Y191107D02*
G03*
X40646Y192717I-3509J7802D01*
G01*
X34744Y190354D02*
G03*
X38253Y191107I0J8554D01*
G01*
X51772Y192520D02*
G03*
X48515Y191732I0J-7129D01*
G01*
X38907Y186151D02*
G03*
X38905Y186149I3023J-3026D01*
G01*
X81865Y178470D02*
G03*
X81863Y178472I-5881J-5881D01*
G01*
X59880Y174940D02*
G03*
X59878Y174937I4369J-4369D01*
G01*
X81863Y178472D02*
G03*
X75984Y180905I-5878J-5883D01*
G01*
X80664Y182844D02*
G03*
X75984Y180905I0J-6618D01*
G01*
X35559Y202953D02*
G03*
X30810Y200987I0J-6721D01*
G01*
X58661Y208465D02*
G03*
X58658Y208468I-4039J-4039D01*
G01*
D02*
G03*
X54622Y210138I-4036J-4043D01*
G01*
X59965Y209768D02*
G03*
X62894Y216839I-7071J7071D01*
G01*
Y230448D02*
G03*
X62010Y232585I-3024J0D01*
G01*
X25295Y190354D02*
G03*
X28152Y191537I0J4039D01*
G01*
X32411Y195768D02*
G03*
X32061Y195447I3514J-4186D01*
G01*
X35925Y197047D02*
G03*
X32411Y195768I0J-5465D01*
G01*
X42618Y198031D02*
G03*
X49506Y200884I0J9742D01*
G01*
X55709Y203150D02*
G03*
X62429Y205933I0J9505D01*
G01*
X63238Y206742D02*
G03*
X65650Y212564I-5822J5822D01*
G01*
X67323Y220965D02*
G03*
X65650Y216925I4039J-4039D01*
G01*
X68986Y221654D02*
G03*
X67323Y220965I0J-2352D01*
G01*
X53081Y168504D02*
G03*
X58070Y170570I0J7057D01*
G01*
D02*
G03*
X58071Y170571I-4989J4991D01*
G01*
X59878Y174937D02*
G03*
X58071Y170571I4371J-4366D01*
G01*
X76878Y187795D02*
G03*
X69807Y184866I0J-10000D01*
G01*
X80110Y187795D02*
G03*
X87181Y190724I0J10000D01*
G01*
X64846Y156587D02*
G03*
X71917Y159516I0J10000D01*
G01*
X75988Y170279D02*
G03*
X75984Y170276I4036J-4043D01*
G01*
X80024Y171949D02*
G03*
X75988Y170279I0J-5713D01*
G01*
X32476Y176374D02*
G03*
X34843Y182087I-5713J5713D01*
G01*
X40856Y187265D02*
G03*
X38907Y186151I1073J-4140D01*
G01*
X40856Y187265D02*
G03*
X42186Y187402I0J6537D01*
G01*
D02*
G03*
X45479Y189180I-1330J6400D01*
G01*
X48515Y191732D02*
G03*
X46731Y190432I3257J-6341D01*
G01*
X70951Y217095D02*
G03*
X68405Y210948I6147J-6147D01*
G01*
X54453Y179059D02*
G03*
X57382Y186130I-7071J7071D01*
G01*
X58913Y190114D02*
G03*
X57382Y186417I3697J-3697D01*
G01*
X73327Y201969D02*
G03*
X68958Y200159I0J-6178D01*
G01*
X40793Y192860D02*
X42126Y194193D01*
X69980Y231102D02*
X75984D01*
X51669Y185724D02*
X51673Y185728D01*
X43996Y183071D02*
X45257D01*
X54823Y227943D02*
Y230512D01*
X54724Y229145D02*
Y229921D01*
X90059Y168110D02*
X90873Y168924D01*
X50886Y217520D02*
X58268D01*
X43012D02*
X46049Y220557D01*
X26870Y197047D02*
X30807Y200984D01*
X34843Y182087D02*
X38905Y186149D01*
X81865Y178470D02*
X82480Y177854D01*
X50295Y210138D02*
X51968D01*
X42323Y202165D02*
X50295Y210138D01*
X42126Y202165D02*
X42323D01*
X61811Y184252D02*
Y184744D01*
X69587Y192520D01*
X73327D01*
X92028Y172047D02*
X92126Y171949D01*
X92028Y172047D02*
Y177461D01*
X66831Y165945D02*
Y169882D01*
Y163287D02*
Y165945D01*
X66732Y165847D02*
X66831Y165945D01*
X62205Y165847D02*
X66732D01*
X75984Y231102D02*
X76083Y231201D01*
X50886Y217520D02*
Y219685D01*
X52461Y229921D02*
X54724D01*
X51673Y230709D02*
X52461Y229921D01*
X80865Y221850D02*
X84344Y225329D01*
X76476Y221850D02*
X80865D01*
X58268Y217520D02*
X58661Y217913D01*
X39672Y225329D02*
X40192D01*
X41437Y217520D02*
X43012D01*
X41339Y217421D02*
X41437Y217520D01*
X41339Y210138D02*
Y217421D01*
X40256Y209055D02*
X41339Y210138D01*
X33563Y209055D02*
X40256D01*
X25868Y206329D02*
X28594Y209055D01*
X33563D01*
X34028Y219685D02*
X39672Y225329D01*
X33563Y219685D02*
X34028D01*
X41339Y202953D02*
X42126Y202165D01*
X25295Y197047D02*
X26870D01*
X25295Y183416D02*
X25868Y182844D01*
X43012Y176280D02*
X51673D01*
X41535Y174803D02*
X43012Y176280D01*
X39672Y172940D02*
X41535Y174803D01*
X39672Y163844D02*
Y172940D01*
X60720Y157874D02*
X62008Y156587D01*
X51083Y157874D02*
X60720D01*
X66831Y169882D02*
X67520Y170571D01*
X78937Y201969D02*
X79626Y201280D01*
X73327Y192520D02*
X74114Y193307D01*
X80315D01*
X89764Y200787D02*
X90256Y201280D01*
X89764Y193307D02*
Y200787D01*
X90256Y201280D02*
X95306Y206329D01*
X98148D01*
X80664Y182844D02*
X98148D01*
X35559Y202953D02*
X41339D01*
X58661Y208465D02*
X59965Y209768D01*
X51968Y210138D02*
X54622D01*
X62894Y216839D02*
Y230448D01*
X40192Y225329D02*
X45374Y230512D01*
X25295Y183416D02*
Y190354D01*
X28152Y191537D02*
X32061Y195447D01*
X35925Y197047D02*
X36909Y198031D01*
X42618D01*
X49506Y200884D02*
X51772Y203150D01*
X55709D01*
X62430Y205933D02*
X63238Y206742D01*
X65650Y212564D02*
Y216925D01*
X68986Y221654D02*
X69980D01*
X51083Y168504D02*
X53081D01*
X59880Y174940D02*
X69807Y184866D01*
X76878Y187795D02*
X80110D01*
X87181Y190724D02*
X89764Y193307D01*
X62008Y156587D02*
X64846D01*
X71917Y159516D02*
X75984Y163583D01*
Y170276D01*
X80024Y171949D02*
X82677D01*
X30906Y174803D02*
X32476Y176374D01*
X45479Y189180D02*
X46731Y190432D01*
X52510Y191781D02*
X66092Y205364D01*
X70951Y217095D02*
X75274Y221417D01*
X76230Y221604D02*
X76476Y221850D01*
X48228Y223917D02*
Y224705D01*
X51673Y176280D02*
X54453Y179059D01*
X57382Y186130D02*
Y186417D01*
X58913Y190114D02*
X68958Y200159D01*
X73327Y201969D02*
X78937D01*
X405586Y160825D02*
Y168695D01*
X409523Y163976D02*
X412967Y160531D01*
X414838D01*
X411489D02*
X412967D01*
X406270Y155313D02*
X411489Y160531D01*
X400566Y155217D02*
X406174D01*
X406270Y155313D01*
X399483Y168110D02*
X400074Y168701D01*
X394070Y168110D02*
X399483D01*
X394070Y162599D02*
X396432Y164961D01*
X400074D01*
X400662Y160825D02*
X405586D01*
X400566Y160728D02*
X400662Y160825D01*
X405586D02*
X406270D01*
X402627Y171654D02*
X405586Y168695D01*
X400861Y171654D02*
X402627D01*
X400074Y172441D02*
X400861Y171654D01*
X399780Y172735D02*
X400074Y172441D01*
X394955Y172735D02*
X399780D01*
X400012Y177657D02*
X400732Y176937D01*
X400369Y177559D02*
X400490D01*
X405608Y172441D01*
X409523D01*
X405881Y177559D02*
Y187008D01*
Y176575D02*
Y177559D01*
X380881Y206693D02*
X381865Y205709D01*
Y201969D02*
Y205709D01*
X398401Y209646D02*
Y210531D01*
X405881Y187008D02*
X408479Y189606D01*
X409286D01*
X384424Y177657D02*
X400012D01*
X384424Y168110D02*
Y177657D01*
X389247Y162599D02*
X394070D01*
X384424D02*
X389247D01*
Y168110D02*
X389641Y167717D01*
X394070Y168110D02*
X394464Y167717D01*
X409326Y163780D02*
X409523Y163976D01*
X419423Y166043D02*
X421622Y163844D01*
X414838Y166043D02*
X419423D01*
X399286Y199606D02*
X404995Y205315D01*
X398401Y205402D02*
Y209646D01*
X394562Y201563D02*
X398401Y205402D01*
X394562Y194882D02*
Y201563D01*
X427534Y195866D02*
X427534Y195866D01*
X427534Y195866D02*
Y199114D01*
X427830Y199409D01*
X422908Y204331D02*
Y205807D01*
Y204331D02*
X427830Y199409D01*
X415487Y205807D02*
X417397D01*
X409286Y199606D02*
X415487Y205807D01*
X409286Y189606D02*
Y190000D01*
X404404Y194882D02*
X409286Y190000D01*
X394562Y194882D02*
X404404D01*
X417200Y188287D02*
Y199409D01*
Y188287D02*
X418775Y186713D01*
X389739Y207185D02*
X393479D01*
X389286Y199606D02*
Y200256D01*
X385999Y203543D02*
X389286Y200256D01*
X385999Y203543D02*
Y207185D01*
X380881Y206693D02*
X385507D01*
X385999Y207185D01*
X396038Y220669D02*
X398401Y218307D01*
X390035Y220669D02*
X396038D01*
X385999Y216634D02*
X390035Y220669D01*
X398401Y215158D02*
Y215748D01*
Y218307D01*
X380881Y212205D02*
X393184D01*
X393282Y212303D01*
Y212304D01*
Y216437D02*
X393479Y216634D01*
X393282Y212304D02*
Y216437D01*
X393479Y207185D02*
X395940D01*
X398401Y209646D01*
X380566Y197539D02*
X383223Y194882D01*
X394562D01*
X377259Y197539D02*
Y201063D01*
X376353Y201969D02*
X377259Y201063D01*
X376353Y208465D02*
X380094Y212205D01*
X380881D01*
X379306Y179232D02*
X380881Y177657D01*
X384424D01*
X379208Y184843D02*
Y190748D01*
Y184843D02*
X379306Y184744D01*
X400960Y210531D02*
Y211302D01*
X400943Y211319D02*
X400960Y211302D01*
X398401Y215158D02*
X404109D01*
X404995Y214272D01*
X397810Y215158D02*
X398401Y215748D01*
X404995Y205315D02*
Y208760D01*
Y205315D02*
X404995Y205315D01*
X376353Y201969D02*
Y208465D01*
X375664Y202658D02*
X376353Y201969D01*
X389641Y167717D02*
X394464D01*
X398401Y210531D02*
X400960D01*
X183194Y192815D02*
X200603D01*
X165773Y203445D02*
X174483D01*
X183194D01*
X189985D01*
X148351Y192815D02*
X157062D01*
X165773D02*
X174483D01*
X183194D01*
X200603D02*
X210574Y182844D01*
X157062Y192815D02*
X165773D01*
X148351Y203445D02*
X157062D01*
X165773D01*
X153863Y185433D02*
X163607D01*
X173351D01*
X183096D01*
Y192717D01*
X183194Y192815D01*
X153863Y174803D02*
X163607D01*
X173351D01*
X183096D01*
X174434Y156587D02*
Y173721D01*
X173351Y174803D02*
X174434Y173721D01*
X185556Y174803D02*
X195792Y185039D01*
X183096Y174803D02*
X185556D01*
X189985Y203445D02*
X199434Y212894D01*
X320761Y52574D02*
G03*
X323690Y45503I10000J0D01*
G01*
X331368Y37825D02*
G03*
X334547Y36508I3179J3179D01*
G01*
X338936Y46694D02*
G03*
X346007Y43765I7071J7071D01*
G01*
X358095Y82889D02*
G03*
X361024Y89960I-7071J7071D01*
G01*
Y96968D02*
G03*
X358095Y104039I-10000J0D01*
G01*
X301336Y71062D02*
G03*
X298407Y63991I7071J-7071D01*
G01*
X359276Y55496D02*
G03*
X366347Y58425I0J10000D01*
G01*
X309154Y50965D02*
G03*
X312083Y43894I10000J0D01*
G01*
Y67209D02*
G03*
X309154Y60138I7071J-7071D01*
G01*
X337894Y111121D02*
G03*
X334547Y112508I-3347J-3347D01*
G01*
X348530Y96343D02*
G03*
X345601Y103414I-10000J0D01*
G01*
X326041Y102322D02*
G03*
X318970Y105251I-7071J-7071D01*
G01*
X310016Y93717D02*
G03*
X302945Y90788I0J-10000D01*
G01*
X358735Y67307D02*
G03*
X365807Y70236I0J10000D01*
G01*
X367758Y72188D02*
G03*
X370687Y79259I-7071J7071D01*
G01*
Y86251D01*
X320761Y52574D02*
Y55496D01*
X323690Y45503D02*
X331368Y37825D01*
X334547Y36508D02*
X334646Y36606D01*
Y50984D02*
X338936Y46694D01*
X346007Y43765D02*
X356883D01*
Y105251D02*
X358095Y104039D01*
X357112Y81906D02*
X358095Y82889D01*
X361024Y89960D02*
Y96968D01*
X298407Y62765D02*
Y63991D01*
X301336Y71062D02*
X312180Y81906D01*
X348530Y55496D02*
X359276D01*
X366347Y58425D02*
X370687Y62765D01*
X309154Y50965D02*
Y60138D01*
X312083Y43894D02*
X312211Y43765D01*
X312083Y67209D02*
X312180Y67307D01*
X337894Y111121D02*
X345601Y103414D01*
X348530Y93717D02*
Y96343D01*
X312211Y105251D02*
X318970D01*
X326041Y102322D02*
X334646Y93717D01*
X298407Y86251D02*
X302945Y90788D01*
X310016Y93717D02*
X320761D01*
X357112Y67307D02*
X358735D01*
X365807Y70236D02*
X367758Y72188D01*
D36*
X84058Y40404D02*
X84334Y40128D01*
X84413Y40050D02*
X84862Y39600D01*
Y35482D02*
Y39600D01*
D37*
X121457Y115994D02*
X129626D01*
D38*
X51772Y192520D02*
D03*
Y203150D02*
D03*
X33563Y209055D02*
D03*
Y219685D02*
D03*
X51083Y157874D02*
D03*
Y168504D02*
D03*
X75984Y180905D02*
D03*
Y170276D02*
D03*
X183194Y192815D02*
D03*
Y203445D02*
D03*
X174483Y192815D02*
D03*
Y203445D02*
D03*
X165773Y192815D02*
D03*
Y203445D02*
D03*
X157062Y192815D02*
D03*
Y203445D02*
D03*
X148351Y192815D02*
D03*
Y203445D02*
D03*
X153863Y174803D02*
D03*
Y185433D02*
D03*
X163607Y174803D02*
D03*
Y185433D02*
D03*
X173351Y174803D02*
D03*
Y185433D02*
D03*
X183096Y174803D02*
D03*
Y185433D02*
D03*
X192151Y192717D02*
D03*
Y203346D02*
D03*
D39*
X82579Y177461D02*
D03*
X92028D02*
D03*
X92126Y171949D02*
D03*
X82677D02*
D03*
X76279Y163287D02*
D03*
X66831D02*
D03*
X67520Y170571D02*
D03*
X58071D02*
D03*
X89764Y193307D02*
D03*
X80315D02*
D03*
X44291Y182087D02*
D03*
X34843D02*
D03*
X25295Y190354D02*
D03*
X34744D02*
D03*
X50886Y217520D02*
D03*
X41437D02*
D03*
X47441Y223917D02*
D03*
X56890D02*
D03*
X54724Y229921D02*
D03*
X45276D02*
D03*
D40*
X73327Y192520D02*
D03*
Y201969D02*
D03*
X51673Y176280D02*
D03*
Y185728D02*
D03*
X76083Y221752D02*
D03*
Y231201D02*
D03*
X69980Y231102D02*
D03*
Y221654D02*
D03*
X42126Y192717D02*
D03*
Y202165D02*
D03*
X58661Y208465D02*
D03*
Y217913D02*
D03*
D41*
X51968Y210138D02*
D03*
X41339D02*
D03*
X35925Y197047D02*
D03*
X25295D02*
D03*
X41535Y174803D02*
D03*
X30906D02*
D03*
X90256Y201280D02*
D03*
X79626D02*
D03*
X427830Y199409D02*
D03*
X417200D02*
D03*
D42*
X385999Y216634D02*
D03*
X393479D02*
D03*
Y207185D02*
D03*
X389739D02*
D03*
X385999D02*
D03*
D43*
X377259Y197539D02*
D03*
X380566D02*
D03*
D44*
X409523Y172441D02*
D03*
Y164961D02*
D03*
X400074D02*
D03*
Y168701D02*
D03*
Y172441D02*
D03*
D45*
X263090Y73228D02*
D03*
X263189Y70079D02*
D03*
X263090Y67027D02*
D03*
X162500Y67126D02*
D03*
X162402Y70276D02*
D03*
X162500Y73327D02*
D03*
X215945Y120472D02*
D03*
X212894Y120571D02*
D03*
X209744Y120472D02*
D03*
X16929Y75689D02*
D03*
Y79626D02*
D03*
X135630Y70669D02*
D03*
Y74705D02*
D03*
X135728Y78150D02*
D03*
X75984Y29921D02*
D03*
X79724D02*
D03*
X72244Y30020D02*
D03*
X79528Y119783D02*
D03*
X75689D02*
D03*
X72047D02*
D03*
X64961Y150492D02*
D03*
X62303Y150394D02*
D03*
X59153Y150492D02*
D03*
X106102Y197539D02*
D03*
X106201Y194882D02*
D03*
X106102Y191732D02*
D03*
X17913Y191634D02*
D03*
X17815Y194291D02*
D03*
X17913Y197441D02*
D03*
X64862Y238681D02*
D03*
X61713Y238779D02*
D03*
X59055Y238681D02*
D03*
X171457Y238583D02*
D03*
X174114Y238681D02*
D03*
X177264Y238583D02*
D03*
X130315Y197343D02*
D03*
X130217Y194193D02*
D03*
X130315Y191535D02*
D03*
X218504Y191634D02*
D03*
X218602Y194783D02*
D03*
X218504Y197441D02*
D03*
X171555Y150394D02*
D03*
X174705Y150295D02*
D03*
X177362Y150394D02*
D03*
X283957Y238583D02*
D03*
X286614Y238681D02*
D03*
X289764Y238583D02*
D03*
X242815Y197343D02*
D03*
X242717Y194193D02*
D03*
X242815Y191535D02*
D03*
X331004Y191634D02*
D03*
X331102Y194783D02*
D03*
X331004Y197441D02*
D03*
X284055Y150394D02*
D03*
X287205Y150295D02*
D03*
X289862Y150394D02*
D03*
X396358Y238681D02*
D03*
X399016Y238779D02*
D03*
X402165Y238681D02*
D03*
X355217Y197441D02*
D03*
X355118Y194291D02*
D03*
X355217Y191634D02*
D03*
X443405Y191732D02*
D03*
X443504Y194882D02*
D03*
X443405Y197539D02*
D03*
X396457Y150492D02*
D03*
X399606Y150394D02*
D03*
X402264Y150492D02*
D03*
X508760Y238681D02*
D03*
X511417Y238779D02*
D03*
X514567Y238681D02*
D03*
X467618Y197441D02*
D03*
X467520Y194291D02*
D03*
X467618Y191634D02*
D03*
X555807Y191732D02*
D03*
X555905Y194882D02*
D03*
X555807Y197539D02*
D03*
X508858Y150492D02*
D03*
X512008Y150394D02*
D03*
X514665Y150492D02*
D03*
X331594Y118602D02*
D03*
X334252Y118701D02*
D03*
X337402Y118602D02*
D03*
X290453Y77362D02*
D03*
X290354Y74213D02*
D03*
X290453Y71555D02*
D03*
X378642Y71653D02*
D03*
X378740Y74803D02*
D03*
X378642Y77461D02*
D03*
X331693Y30413D02*
D03*
X334842Y30315D02*
D03*
X337500Y30413D02*
D03*
X215846Y19882D02*
D03*
X212697Y19783D02*
D03*
X209646Y19882D02*
D03*
X16831Y71850D02*
D03*
D46*
X264524Y225329D02*
D03*
X250720Y206329D02*
D03*
Y182844D02*
D03*
X264524Y163844D02*
D03*
X286860Y156587D02*
D03*
X309196Y163844D02*
D03*
X323000Y182844D02*
D03*
Y206329D02*
D03*
X309196Y225329D02*
D03*
X286860Y232587D02*
D03*
X62008D02*
D03*
X84344Y225329D02*
D03*
X98148Y206329D02*
D03*
Y182844D02*
D03*
X84344Y163844D02*
D03*
X62008Y156587D02*
D03*
X39672Y163844D02*
D03*
X25868Y182844D02*
D03*
Y206329D02*
D03*
X39672Y225329D02*
D03*
X77008Y212894D02*
D03*
X414286D02*
D03*
X421622Y163844D02*
D03*
X376951Y225329D02*
D03*
X489377D02*
D03*
X475572Y206329D02*
D03*
Y182844D02*
D03*
X489377Y163844D02*
D03*
X511713Y156587D02*
D03*
X534048Y163844D02*
D03*
X547853Y182844D02*
D03*
Y206329D02*
D03*
X534048Y225329D02*
D03*
X511713Y232587D02*
D03*
X189434Y212894D02*
D03*
X174434Y232587D02*
D03*
X196770Y225329D02*
D03*
X210574Y206329D02*
D03*
Y182844D02*
D03*
X196770Y163844D02*
D03*
X174434Y156587D02*
D03*
X152098Y163844D02*
D03*
X138294Y182844D02*
D03*
Y206329D02*
D03*
X152098Y225329D02*
D03*
X312211Y105251D02*
D03*
X298407Y86251D02*
D03*
Y62765D02*
D03*
X312211Y43765D02*
D03*
X334547Y36508D02*
D03*
X356883Y43765D02*
D03*
X370687Y62765D02*
D03*
Y86251D02*
D03*
X356883Y105251D02*
D03*
X334547Y112508D02*
D03*
D47*
X301860Y212894D02*
D03*
X409286Y199606D02*
D03*
Y189606D02*
D03*
X399286Y199606D02*
D03*
Y189606D02*
D03*
X389286Y199606D02*
D03*
X526713Y212894D02*
D03*
D48*
X75886Y78888D02*
D03*
X61713Y72392D02*
D03*
X28445Y49460D02*
D03*
X34351Y79382D02*
D03*
X45572Y69146D02*
D03*
D49*
X89075Y99852D02*
D03*
X83366Y99557D02*
D03*
D50*
X110454Y94612D02*
D03*
Y84612D02*
D03*
Y74612D02*
D03*
Y64612D02*
D03*
Y54612D02*
D03*
X115791D02*
D03*
Y94612D02*
D03*
Y64612D02*
D03*
Y84612D02*
D03*
Y74612D02*
D03*
X31497Y68063D02*
D03*
X61811Y184252D02*
D03*
X90059Y168110D02*
D03*
X62205Y165847D02*
D03*
X43996Y183071D02*
D03*
X42126Y194193D02*
D03*
X72835Y231201D02*
D03*
X50886Y219685D02*
D03*
X51673Y230709D02*
D03*
X394955Y172735D02*
D03*
X379208Y190748D02*
D03*
X427534Y195866D02*
D03*
X418775Y186713D02*
D03*
X393282Y212304D02*
D03*
X195792Y185039D02*
D03*
X233189Y107677D02*
D03*
X192245D02*
D03*
X209863Y113386D02*
D03*
X217048Y113484D02*
D03*
D51*
X115256Y34104D02*
D03*
X117483Y106447D02*
D03*
X88684Y92966D02*
D03*
X76676Y40798D02*
D03*
X86910Y95817D02*
D03*
X124907Y69933D02*
D03*
X38287Y93553D02*
D03*
X47638Y65601D02*
D03*
X129831Y111163D02*
D03*
X89075Y52412D02*
D03*
X75295Y65404D02*
D03*
X90453Y66191D02*
D03*
X131791Y54282D02*
D03*
X131988Y48376D02*
D03*
X130807Y41978D02*
D03*
X67618Y35089D02*
D03*
X60827Y50246D02*
D03*
X38091Y49360D02*
D03*
X59252Y38927D02*
D03*
X28248Y35285D02*
D03*
X45669Y48081D02*
D03*
X51279Y54380D02*
D03*
X50787Y45030D02*
D03*
X35531Y54085D02*
D03*
X64077Y55661D02*
D03*
X128937Y75640D02*
D03*
X119099Y72197D02*
D03*
X119887Y47983D02*
D03*
X119390Y57727D02*
D03*
X119690Y68949D02*
D03*
X119788Y63929D02*
D03*
X27953Y111467D02*
D03*
X67716Y45817D02*
D03*
X50984Y104971D02*
D03*
X36909Y110285D02*
D03*
X76578Y50050D02*
D03*
X129626Y115994D02*
D03*
X131299Y86664D02*
D03*
X131890Y34104D02*
D03*
X120472Y34006D02*
D03*
X110531D02*
D03*
X103051Y107915D02*
D03*
X40257Y62748D02*
D03*
X39273Y75347D02*
D03*
X31103Y75051D02*
D03*
X28169Y43436D02*
D03*
X62598Y68750D02*
D03*
X61813Y65405D02*
D03*
X48720Y83317D02*
D03*
X46260Y80266D02*
D03*
X43504Y65502D02*
D03*
X98524Y35089D02*
D03*
X84058Y40404D02*
D03*
X102854Y34793D02*
D03*
X119685Y109793D02*
D03*
X62236Y58643D02*
D03*
X76181Y86171D02*
D03*
X105217Y40699D02*
D03*
X75197Y101040D02*
D03*
X67817Y101923D02*
D03*
X97248Y43062D02*
D03*
X99449Y49883D02*
D03*
X92031Y40798D02*
D03*
D52*
X40748Y116289D02*
D03*
X53051Y116191D02*
D03*
X20669Y116093D02*
D03*
X127091Y86080D02*
D03*
X131791Y72195D02*
D03*
X90158Y116388D02*
D03*
X86319Y103691D02*
D03*
X372810Y185827D02*
D03*
Y193405D02*
D03*
X404503Y221752D02*
D03*
X415330Y177953D02*
D03*
X432259Y205512D02*
D03*
Y196457D02*
D03*
X431865Y188287D02*
D03*
Y181988D02*
D03*
X429109Y178740D02*
D03*
X398401Y181595D02*
D03*
X409129Y168405D02*
D03*
X389050Y173327D02*
D03*
X413952Y171850D02*
D03*
X417987Y171063D02*
D03*
X422515D02*
D03*
X427534Y170768D02*
D03*
X431570Y170571D02*
D03*
X428223Y166437D02*
D03*
X396235Y154429D02*
D03*
X396334Y158957D02*
D03*
X389542Y155610D02*
D03*
X385408Y156890D02*
D03*
X380487Y158858D02*
D03*
X376649Y161221D02*
D03*
X375271Y165354D02*
D03*
X375369Y169783D02*
D03*
X375467Y173622D02*
D03*
X400943Y211319D02*
D03*
D53*
X69195Y108813D02*
D03*
X86122Y113337D02*
D03*
X68802Y74362D02*
D03*
X95669Y73728D02*
D03*
X65650Y114026D02*
D03*
D54*
X56791Y79872D02*
D03*
X87307Y41093D02*
D03*
D55*
X87008Y212894D02*
D03*
X424286D02*
D03*
X199434D02*
D03*
D56*
X334646Y93717D02*
D03*
X320761D02*
D03*
X357112Y67307D02*
D03*
X334646Y50984D02*
D03*
X357112Y81906D02*
D03*
X320761Y55496D02*
D03*
X348530Y93717D02*
D03*
X312180Y67307D02*
D03*
Y81906D02*
D03*
X348530Y55496D02*
D03*
M02*
