G04 Layer_Physical_Order=2*
G04 Layer_Color=16711680*
%FSLAX25Y25*%
%MOIN*%
G70*
G01*
G75*
%ADD10R,0.03150X0.03543*%
G04:AMPARAMS|DCode=11|XSize=35.43mil|YSize=31.5mil|CornerRadius=7.87mil|HoleSize=0mil|Usage=FLASHONLY|Rotation=90.000|XOffset=0mil|YOffset=0mil|HoleType=Round|Shape=RoundedRectangle|*
%AMROUNDEDRECTD11*
21,1,0.03543,0.01575,0,0,90.0*
21,1,0.01969,0.03150,0,0,90.0*
1,1,0.01575,0.00787,0.00984*
1,1,0.01575,0.00787,-0.00984*
1,1,0.01575,-0.00787,-0.00984*
1,1,0.01575,-0.00787,0.00984*
%
%ADD11ROUNDEDRECTD11*%
G04:AMPARAMS|DCode=17|XSize=13.78mil|YSize=21.65mil|CornerRadius=3.45mil|HoleSize=0mil|Usage=FLASHONLY|Rotation=270.000|XOffset=0mil|YOffset=0mil|HoleType=Round|Shape=RoundedRectangle|*
%AMROUNDEDRECTD17*
21,1,0.01378,0.01476,0,0,270.0*
21,1,0.00689,0.02165,0,0,270.0*
1,1,0.00689,-0.00738,-0.00345*
1,1,0.00689,-0.00738,0.00345*
1,1,0.00689,0.00738,0.00345*
1,1,0.00689,0.00738,-0.00345*
%
%ADD17ROUNDEDRECTD17*%
G04:AMPARAMS|DCode=22|XSize=35.43mil|YSize=31.5mil|CornerRadius=7.87mil|HoleSize=0mil|Usage=FLASHONLY|Rotation=0.000|XOffset=0mil|YOffset=0mil|HoleType=Round|Shape=RoundedRectangle|*
%AMROUNDEDRECTD22*
21,1,0.03543,0.01575,0,0,0.0*
21,1,0.01969,0.03150,0,0,0.0*
1,1,0.01575,0.00984,-0.00787*
1,1,0.01575,-0.00984,-0.00787*
1,1,0.01575,-0.00984,0.00787*
1,1,0.01575,0.00984,0.00787*
%
%ADD22ROUNDEDRECTD22*%
G04:AMPARAMS|DCode=24|XSize=13.78mil|YSize=21.65mil|CornerRadius=3.45mil|HoleSize=0mil|Usage=FLASHONLY|Rotation=180.000|XOffset=0mil|YOffset=0mil|HoleType=Round|Shape=RoundedRectangle|*
%AMROUNDEDRECTD24*
21,1,0.01378,0.01476,0,0,180.0*
21,1,0.00689,0.02165,0,0,180.0*
1,1,0.00689,-0.00345,0.00738*
1,1,0.00689,0.00345,0.00738*
1,1,0.00689,0.00345,-0.00738*
1,1,0.00689,-0.00345,-0.00738*
%
%ADD24ROUNDEDRECTD24*%
G04:AMPARAMS|DCode=27|XSize=59.06mil|YSize=59.06mil|CornerRadius=14.76mil|HoleSize=0mil|Usage=FLASHONLY|Rotation=180.000|XOffset=0mil|YOffset=0mil|HoleType=Round|Shape=RoundedRectangle|*
%AMROUNDEDRECTD27*
21,1,0.05906,0.02953,0,0,180.0*
21,1,0.02953,0.05906,0,0,180.0*
1,1,0.02953,-0.01476,0.01476*
1,1,0.02953,0.01476,0.01476*
1,1,0.02953,0.01476,-0.01476*
1,1,0.02953,-0.01476,-0.01476*
%
%ADD27ROUNDEDRECTD27*%
G04:AMPARAMS|DCode=28|XSize=98.43mil|YSize=47.24mil|CornerRadius=11.81mil|HoleSize=0mil|Usage=FLASHONLY|Rotation=180.000|XOffset=0mil|YOffset=0mil|HoleType=Round|Shape=RoundedRectangle|*
%AMROUNDEDRECTD28*
21,1,0.09843,0.02362,0,0,180.0*
21,1,0.07480,0.04724,0,0,180.0*
1,1,0.02362,-0.03740,0.01181*
1,1,0.02362,0.03740,0.01181*
1,1,0.02362,0.03740,-0.01181*
1,1,0.02362,-0.03740,-0.01181*
%
%ADD28ROUNDEDRECTD28*%
%ADD32C,0.00984*%
%ADD33C,0.01181*%
%ADD34C,0.00787*%
%ADD35C,0.01575*%
%ADD36C,0.00906*%
%ADD37C,0.01969*%
G04:AMPARAMS|DCode=38|XSize=66.93mil|YSize=43.31mil|CornerRadius=10.83mil|HoleSize=0mil|Usage=FLASHONLY|Rotation=0.000|XOffset=0mil|YOffset=0mil|HoleType=Round|Shape=RoundedRectangle|*
%AMROUNDEDRECTD38*
21,1,0.06693,0.02165,0,0,0.0*
21,1,0.04528,0.04331,0,0,0.0*
1,1,0.02165,0.02264,-0.01083*
1,1,0.02165,-0.02264,-0.01083*
1,1,0.02165,-0.02264,0.01083*
1,1,0.02165,0.02264,0.01083*
%
%ADD38ROUNDEDRECTD38*%
G04:AMPARAMS|DCode=39|XSize=35.43mil|YSize=35.43mil|CornerRadius=8.86mil|HoleSize=0mil|Usage=FLASHONLY|Rotation=270.000|XOffset=0mil|YOffset=0mil|HoleType=Round|Shape=RoundedRectangle|*
%AMROUNDEDRECTD39*
21,1,0.03543,0.01772,0,0,270.0*
21,1,0.01772,0.03543,0,0,270.0*
1,1,0.01772,-0.00886,-0.00886*
1,1,0.01772,-0.00886,0.00886*
1,1,0.01772,0.00886,0.00886*
1,1,0.01772,0.00886,-0.00886*
%
%ADD39ROUNDEDRECTD39*%
G04:AMPARAMS|DCode=40|XSize=35.43mil|YSize=35.43mil|CornerRadius=8.86mil|HoleSize=0mil|Usage=FLASHONLY|Rotation=0.000|XOffset=0mil|YOffset=0mil|HoleType=Round|Shape=RoundedRectangle|*
%AMROUNDEDRECTD40*
21,1,0.03543,0.01772,0,0,0.0*
21,1,0.01772,0.03543,0,0,0.0*
1,1,0.01772,0.00886,-0.00886*
1,1,0.01772,-0.00886,-0.00886*
1,1,0.01772,-0.00886,0.00886*
1,1,0.01772,0.00886,0.00886*
%
%ADD40ROUNDEDRECTD40*%
G04:AMPARAMS|DCode=41|XSize=66.93mil|YSize=43.31mil|CornerRadius=10.83mil|HoleSize=0mil|Usage=FLASHONLY|Rotation=90.000|XOffset=0mil|YOffset=0mil|HoleType=Round|Shape=RoundedRectangle|*
%AMROUNDEDRECTD41*
21,1,0.06693,0.02165,0,0,90.0*
21,1,0.04528,0.04331,0,0,90.0*
1,1,0.02165,0.01083,0.02264*
1,1,0.02165,0.01083,-0.02264*
1,1,0.02165,-0.01083,-0.02264*
1,1,0.02165,-0.01083,0.02264*
%
%ADD41ROUNDEDRECTD41*%
%ADD45C,0.01969*%
%ADD46C,0.07874*%
%ADD47C,0.05906*%
%ADD48C,0.02756*%
%ADD49C,0.04724*%
%ADD50C,0.03937*%
%ADD51C,0.02441*%
%ADD52C,0.02362*%
%ADD53C,0.03150*%
%ADD54C,0.02559*%
G04:AMPARAMS|DCode=55|XSize=78.74mil|YSize=78.74mil|CornerRadius=19.69mil|HoleSize=0mil|Usage=FLASHONLY|Rotation=180.000|XOffset=0mil|YOffset=0mil|HoleType=Round|Shape=RoundedRectangle|*
%AMROUNDEDRECTD55*
21,1,0.07874,0.03937,0,0,180.0*
21,1,0.03937,0.07874,0,0,180.0*
1,1,0.03937,-0.01969,0.01969*
1,1,0.03937,0.01969,0.01969*
1,1,0.03937,0.01969,-0.01969*
1,1,0.03937,-0.01969,-0.01969*
%
%ADD55ROUNDEDRECTD55*%
%ADD56C,0.09843*%
%ADD57R,0.09370X0.06496*%
G04:AMPARAMS|DCode=58|XSize=9.84mil|YSize=27.56mil|CornerRadius=2.46mil|HoleSize=0mil|Usage=FLASHONLY|Rotation=0.000|XOffset=0mil|YOffset=0mil|HoleType=Round|Shape=RoundedRectangle|*
%AMROUNDEDRECTD58*
21,1,0.00984,0.02264,0,0,0.0*
21,1,0.00492,0.02756,0,0,0.0*
1,1,0.00492,0.00246,-0.01132*
1,1,0.00492,-0.00246,-0.01132*
1,1,0.00492,-0.00246,0.01132*
1,1,0.00492,0.00246,0.01132*
%
%ADD58ROUNDEDRECTD58*%
G04:AMPARAMS|DCode=59|XSize=102.36mil|YSize=43.31mil|CornerRadius=10.83mil|HoleSize=0mil|Usage=FLASHONLY|Rotation=90.000|XOffset=0mil|YOffset=0mil|HoleType=Round|Shape=RoundedRectangle|*
%AMROUNDEDRECTD59*
21,1,0.10236,0.02165,0,0,90.0*
21,1,0.08071,0.04331,0,0,90.0*
1,1,0.02165,0.01083,0.04035*
1,1,0.02165,0.01083,-0.04035*
1,1,0.02165,-0.01083,-0.04035*
1,1,0.02165,-0.01083,0.04035*
%
%ADD59ROUNDEDRECTD59*%
G04:AMPARAMS|DCode=60|XSize=102.36mil|YSize=43.31mil|CornerRadius=10.83mil|HoleSize=0mil|Usage=FLASHONLY|Rotation=0.000|XOffset=0mil|YOffset=0mil|HoleType=Round|Shape=RoundedRectangle|*
%AMROUNDEDRECTD60*
21,1,0.10236,0.02165,0,0,0.0*
21,1,0.08071,0.04331,0,0,0.0*
1,1,0.02165,0.04035,-0.01083*
1,1,0.02165,-0.04035,-0.01083*
1,1,0.02165,-0.04035,0.01083*
1,1,0.02165,0.04035,0.01083*
%
%ADD60ROUNDEDRECTD60*%
G04:AMPARAMS|DCode=61|XSize=23.62mil|YSize=41.34mil|CornerRadius=5.91mil|HoleSize=0mil|Usage=FLASHONLY|Rotation=90.000|XOffset=0mil|YOffset=0mil|HoleType=Round|Shape=RoundedRectangle|*
%AMROUNDEDRECTD61*
21,1,0.02362,0.02953,0,0,90.0*
21,1,0.01181,0.04134,0,0,90.0*
1,1,0.01181,0.01476,0.00591*
1,1,0.01181,0.01476,-0.00591*
1,1,0.01181,-0.01476,-0.00591*
1,1,0.01181,-0.01476,0.00591*
%
%ADD61ROUNDEDRECTD61*%
G04:AMPARAMS|DCode=62|XSize=93.5mil|YSize=55.12mil|CornerRadius=13.78mil|HoleSize=0mil|Usage=FLASHONLY|Rotation=270.000|XOffset=0mil|YOffset=0mil|HoleType=Round|Shape=RoundedRectangle|*
%AMROUNDEDRECTD62*
21,1,0.09350,0.02756,0,0,270.0*
21,1,0.06594,0.05512,0,0,270.0*
1,1,0.02756,-0.01378,-0.03297*
1,1,0.02756,-0.01378,0.03297*
1,1,0.02756,0.01378,0.03297*
1,1,0.02756,0.01378,-0.03297*
%
%ADD62ROUNDEDRECTD62*%
G04:AMPARAMS|DCode=63|XSize=46.26mil|YSize=55.12mil|CornerRadius=11.57mil|HoleSize=0mil|Usage=FLASHONLY|Rotation=270.000|XOffset=0mil|YOffset=0mil|HoleType=Round|Shape=RoundedRectangle|*
%AMROUNDEDRECTD63*
21,1,0.04626,0.03199,0,0,270.0*
21,1,0.02313,0.05512,0,0,270.0*
1,1,0.02313,-0.01599,-0.01157*
1,1,0.02313,-0.01599,0.01157*
1,1,0.02313,0.01599,0.01157*
1,1,0.02313,0.01599,-0.01157*
%
%ADD63ROUNDEDRECTD63*%
G04:AMPARAMS|DCode=64|XSize=46.26mil|YSize=51.18mil|CornerRadius=11.57mil|HoleSize=0mil|Usage=FLASHONLY|Rotation=270.000|XOffset=0mil|YOffset=0mil|HoleType=Round|Shape=RoundedRectangle|*
%AMROUNDEDRECTD64*
21,1,0.04626,0.02805,0,0,270.0*
21,1,0.02313,0.05118,0,0,270.0*
1,1,0.02313,-0.01403,-0.01157*
1,1,0.02313,-0.01403,0.01157*
1,1,0.02313,0.01403,0.01157*
1,1,0.02313,0.01403,-0.01157*
%
%ADD64ROUNDEDRECTD64*%
G04:AMPARAMS|DCode=65|XSize=58.07mil|YSize=78.74mil|CornerRadius=14.52mil|HoleSize=0mil|Usage=FLASHONLY|Rotation=270.000|XOffset=0mil|YOffset=0mil|HoleType=Round|Shape=RoundedRectangle|*
%AMROUNDEDRECTD65*
21,1,0.05807,0.04971,0,0,270.0*
21,1,0.02904,0.07874,0,0,270.0*
1,1,0.02904,-0.02485,-0.01452*
1,1,0.02904,-0.02485,0.01452*
1,1,0.02904,0.02485,0.01452*
1,1,0.02904,0.02485,-0.01452*
%
%ADD65ROUNDEDRECTD65*%
G04:AMPARAMS|DCode=66|XSize=58.07mil|YSize=82.68mil|CornerRadius=14.52mil|HoleSize=0mil|Usage=FLASHONLY|Rotation=270.000|XOffset=0mil|YOffset=0mil|HoleType=Round|Shape=RoundedRectangle|*
%AMROUNDEDRECTD66*
21,1,0.05807,0.05364,0,0,270.0*
21,1,0.02904,0.08268,0,0,270.0*
1,1,0.02904,-0.02682,-0.01452*
1,1,0.02904,-0.02682,0.01452*
1,1,0.02904,0.02682,0.01452*
1,1,0.02904,0.02682,-0.01452*
%
%ADD66ROUNDEDRECTD66*%
G04:AMPARAMS|DCode=67|XSize=17.72mil|YSize=54.33mil|CornerRadius=4.43mil|HoleSize=0mil|Usage=FLASHONLY|Rotation=90.000|XOffset=0mil|YOffset=0mil|HoleType=Round|Shape=RoundedRectangle|*
%AMROUNDEDRECTD67*
21,1,0.01772,0.04547,0,0,90.0*
21,1,0.00886,0.05433,0,0,90.0*
1,1,0.00886,0.02274,0.00443*
1,1,0.00886,0.02274,-0.00443*
1,1,0.00886,-0.02274,-0.00443*
1,1,0.00886,-0.02274,0.00443*
%
%ADD67ROUNDEDRECTD67*%
G04:AMPARAMS|DCode=68|XSize=78.74mil|YSize=94.49mil|CornerRadius=19.69mil|HoleSize=0mil|Usage=FLASHONLY|Rotation=180.000|XOffset=0mil|YOffset=0mil|HoleType=Round|Shape=RoundedRectangle|*
%AMROUNDEDRECTD68*
21,1,0.07874,0.05512,0,0,180.0*
21,1,0.03937,0.09449,0,0,180.0*
1,1,0.03937,-0.01969,0.02756*
1,1,0.03937,0.01969,0.02756*
1,1,0.03937,0.01969,-0.02756*
1,1,0.03937,-0.01969,-0.02756*
%
%ADD68ROUNDEDRECTD68*%
G04:AMPARAMS|DCode=69|XSize=118.11mil|YSize=98.43mil|CornerRadius=24.61mil|HoleSize=0mil|Usage=FLASHONLY|Rotation=270.000|XOffset=0mil|YOffset=0mil|HoleType=Round|Shape=RoundedRectangle|*
%AMROUNDEDRECTD69*
21,1,0.11811,0.04921,0,0,270.0*
21,1,0.06890,0.09843,0,0,270.0*
1,1,0.04921,-0.02461,-0.03445*
1,1,0.04921,-0.02461,0.03445*
1,1,0.04921,0.02461,0.03445*
1,1,0.04921,0.02461,-0.03445*
%
%ADD69ROUNDEDRECTD69*%
%ADD70C,0.02362*%
%ADD71C,0.01378*%
G04:AMPARAMS|DCode=72|XSize=39.37mil|YSize=21.65mil|CornerRadius=5.41mil|HoleSize=0mil|Usage=FLASHONLY|Rotation=180.000|XOffset=0mil|YOffset=0mil|HoleType=Round|Shape=RoundedRectangle|*
%AMROUNDEDRECTD72*
21,1,0.03937,0.01083,0,0,180.0*
21,1,0.02854,0.02165,0,0,180.0*
1,1,0.01083,-0.01427,0.00541*
1,1,0.01083,0.01427,0.00541*
1,1,0.01083,0.01427,-0.00541*
1,1,0.01083,-0.01427,-0.00541*
%
%ADD72ROUNDEDRECTD72*%
G04:AMPARAMS|DCode=73|XSize=23.62mil|YSize=45.28mil|CornerRadius=5.91mil|HoleSize=0mil|Usage=FLASHONLY|Rotation=270.000|XOffset=0mil|YOffset=0mil|HoleType=Round|Shape=RoundedRectangle|*
%AMROUNDEDRECTD73*
21,1,0.02362,0.03347,0,0,270.0*
21,1,0.01181,0.04528,0,0,270.0*
1,1,0.01181,-0.01673,-0.00591*
1,1,0.01181,-0.01673,0.00591*
1,1,0.01181,0.01673,0.00591*
1,1,0.01181,0.01673,-0.00591*
%
%ADD73ROUNDEDRECTD73*%
G04:AMPARAMS|DCode=74|XSize=131.89mil|YSize=59.06mil|CornerRadius=14.76mil|HoleSize=0mil|Usage=FLASHONLY|Rotation=270.000|XOffset=0mil|YOffset=0mil|HoleType=Round|Shape=RoundedRectangle|*
%AMROUNDEDRECTD74*
21,1,0.13189,0.02953,0,0,270.0*
21,1,0.10236,0.05906,0,0,270.0*
1,1,0.02953,-0.01476,-0.05118*
1,1,0.02953,-0.01476,0.05118*
1,1,0.02953,0.01476,0.05118*
1,1,0.02953,0.01476,-0.05118*
%
%ADD74ROUNDEDRECTD74*%
%ADD75C,0.00800*%
%ADD76R,0.11811X0.07874*%
%ADD77R,0.11811X0.09843*%
%ADD78R,0.07874X0.03937*%
%ADD79R,0.03937X0.03937*%
%ADD80R,0.07874X0.07874*%
%ADD81C,0.03937*%
%ADD82C,0.01000*%
G36*
X407849Y220473D02*
Y206398D01*
X404306Y202854D01*
Y197343D01*
Y195191D01*
X403806Y194984D01*
X402828Y195962D01*
X402292Y196320D01*
X402218Y196499D01*
X402157Y196880D01*
X402725Y197621D01*
X403122Y198579D01*
X403257Y199606D01*
X403122Y200634D01*
X402725Y201592D01*
X402094Y202414D01*
X401272Y203045D01*
X400314Y203442D01*
X399286Y203577D01*
X398259Y203442D01*
X397301Y203045D01*
X396479Y202414D01*
X395847Y201592D01*
X395732Y201313D01*
X395544Y201275D01*
X394958Y200884D01*
X393752Y199678D01*
X393224Y199857D01*
X393122Y200634D01*
X392725Y201592D01*
X392094Y202414D01*
X391272Y203045D01*
X390314Y203442D01*
X389286Y203577D01*
X388259Y203442D01*
X387301Y203045D01*
X386478Y202414D01*
X385847Y201592D01*
X385451Y200634D01*
X385315Y199606D01*
X385451Y198579D01*
X385847Y197621D01*
X386255Y197090D01*
X386008Y196590D01*
X383243D01*
X382552Y196452D01*
X381966Y196061D01*
X379582Y193677D01*
X379208Y193726D01*
X378437Y193625D01*
X377719Y193327D01*
X377102Y192854D01*
X376628Y192237D01*
X376331Y191519D01*
X376229Y190748D01*
X376331Y189977D01*
X376628Y189259D01*
X377102Y188642D01*
X377719Y188169D01*
X378437Y187871D01*
X379208Y187770D01*
X379978Y187871D01*
X380697Y188169D01*
X381314Y188642D01*
X381787Y189259D01*
X382084Y189977D01*
X382186Y190748D01*
X382137Y191122D01*
X383991Y192977D01*
X385515D01*
X385782Y192477D01*
X385492Y192043D01*
X385301Y191083D01*
Y188130D01*
X385492Y187170D01*
X386036Y186356D01*
X386850Y185812D01*
X387810Y185621D01*
X390763D01*
X391723Y185812D01*
X392537Y186356D01*
X393081Y187170D01*
X393272Y188130D01*
Y190469D01*
X395681Y192879D01*
X396321D01*
X396405Y192632D01*
X396451Y192379D01*
X395847Y191592D01*
X395451Y190634D01*
X395315Y189606D01*
X395451Y188579D01*
X395525Y188400D01*
X393580Y186454D01*
X393188Y185869D01*
X393051Y185177D01*
Y184220D01*
X371589Y184155D01*
X371235Y184508D01*
Y200098D01*
X383243Y201181D01*
X392129Y206567D01*
X392375Y206199D01*
X393189Y205655D01*
X394149Y205464D01*
X397102D01*
X398062Y205655D01*
X398876Y206199D01*
X399420Y207012D01*
X399611Y207973D01*
Y218209D01*
X399420Y219169D01*
X398876Y219983D01*
X398062Y220527D01*
X397102Y220718D01*
X394149D01*
X393957Y220679D01*
X393578Y221005D01*
X393676Y223327D01*
X404995D01*
X407849Y220473D01*
D02*
G37*
G36*
X433834Y206102D02*
Y180413D01*
X427977Y174557D01*
X427622Y174595D01*
X427380Y175088D01*
X427447Y175189D01*
X427585Y175886D01*
Y176370D01*
X424975D01*
Y176870D01*
X424475D01*
Y179677D01*
X424188D01*
X423491Y179538D01*
X422899Y179143D01*
X422504Y178552D01*
X422466Y178361D01*
X421956D01*
X421920Y178546D01*
X421528Y179132D01*
X420942Y179523D01*
X420448Y179622D01*
X419275Y180794D01*
X419298Y180905D01*
Y182087D01*
X419175Y182701D01*
X418827Y183222D01*
X418306Y183570D01*
X417692Y183692D01*
X416377D01*
X415426Y184643D01*
X414840Y185035D01*
X414149Y185172D01*
X413762D01*
X413457Y185628D01*
X412871Y186019D01*
X412180Y186157D01*
X412062D01*
X411901Y186630D01*
X412106Y186787D01*
X412530Y187340D01*
X413141Y187326D01*
X413199Y187239D01*
X413725Y186888D01*
X414346Y186764D01*
X415519D01*
Y188976D01*
X416019D01*
Y189476D01*
X419314D01*
Y189567D01*
X419190Y190188D01*
X418839Y190714D01*
X418409Y191001D01*
X418490Y191495D01*
X418492Y191501D01*
X419306D01*
X422921Y187886D01*
X422793Y187351D01*
X422589Y187310D01*
X422068Y186962D01*
X421720Y186441D01*
X421598Y185827D01*
Y184646D01*
X421720Y184031D01*
X422068Y183510D01*
X422589Y183162D01*
X423204Y183040D01*
X426550D01*
X427165Y183162D01*
X427686Y183510D01*
X428034Y184031D01*
X428156Y184646D01*
Y185827D01*
X428034Y186441D01*
X427686Y186962D01*
X427165Y187310D01*
X426683Y187406D01*
Y188484D01*
X426546Y189175D01*
X426154Y189762D01*
X422264Y193652D01*
X424102Y195489D01*
X424629Y195310D01*
X424658Y195095D01*
X424829Y194682D01*
X424670Y194444D01*
X424552Y193849D01*
Y192766D01*
X424670Y192171D01*
X425007Y191666D01*
X425512Y191329D01*
X426107Y191210D01*
X428962D01*
X429557Y191329D01*
X430061Y191666D01*
X430399Y192171D01*
X430517Y192766D01*
Y193849D01*
X430399Y194444D01*
X430240Y194682D01*
X430411Y195095D01*
X430513Y195866D01*
X430411Y196637D01*
X430114Y197355D01*
X429779Y197792D01*
X429821Y198331D01*
X429869Y198427D01*
X430061Y198556D01*
X430399Y199060D01*
X430517Y199655D01*
Y200738D01*
X430399Y201333D01*
X430061Y201838D01*
X429557Y202175D01*
X428962Y202294D01*
X426107D01*
X425512Y202175D01*
X425007Y201838D01*
X424670Y201333D01*
X424629Y201125D01*
X418617Y195114D01*
X418003D01*
X417746Y195285D01*
X417151Y195404D01*
X414296D01*
X413701Y195285D01*
X413196Y194948D01*
X412859Y194444D01*
X412741Y193849D01*
Y192766D01*
X412834Y192298D01*
X412366Y192086D01*
X412106Y192426D01*
X411280Y193059D01*
X410318Y193457D01*
X409786Y193527D01*
Y189606D01*
X408786D01*
Y193656D01*
X408538Y193874D01*
Y195355D01*
X408914Y195684D01*
X409286Y195635D01*
X410314Y195771D01*
X411272Y196167D01*
X412094Y196798D01*
X412725Y197621D01*
X412936Y198128D01*
X413555Y198316D01*
X413701Y198219D01*
X414296Y198100D01*
X417151D01*
X417746Y198219D01*
X418251Y198556D01*
X418588Y199060D01*
X418706Y199655D01*
Y200738D01*
X418588Y201333D01*
X418251Y201838D01*
X417746Y202175D01*
X417530Y202218D01*
Y207677D01*
X432259D01*
X433834Y206102D01*
D02*
G37*
G36*
X409328Y181105D02*
X409914Y180713D01*
X410605Y180576D01*
X412180D01*
X412435Y180626D01*
X412851Y180348D01*
X412862Y180291D01*
X413210Y179770D01*
X413731Y179422D01*
X414346Y179300D01*
X415660D01*
X416909Y178051D01*
X416870Y177854D01*
Y175886D01*
X417007Y175195D01*
X417198Y174909D01*
X416931Y174409D01*
X414050D01*
X408538Y179921D01*
Y181386D01*
X409038Y181538D01*
X409328Y181105D01*
D02*
G37*
G36*
X393051Y182877D02*
Y174996D01*
X392850Y174841D01*
X392376Y174224D01*
X392079Y173506D01*
X391977Y172735D01*
X392079Y171964D01*
X392376Y171246D01*
X392850Y170629D01*
X393466Y170156D01*
X394185Y169858D01*
X394955Y169757D01*
X395726Y169858D01*
X396445Y170156D01*
X397061Y170629D01*
X397535Y171246D01*
X397832Y171964D01*
X397934Y172735D01*
X397832Y173506D01*
X397535Y174224D01*
X397061Y174841D01*
X396664Y175146D01*
Y182509D01*
X397018Y182862D01*
X403287Y182837D01*
Y182382D01*
X403425Y181691D01*
X403816Y181105D01*
X404402Y180713D01*
X405093Y180576D01*
X406668D01*
X407082Y180658D01*
X414346Y173031D01*
X419365D01*
X419857Y172539D01*
X433882D01*
X434164Y172126D01*
X433194Y169659D01*
X431549Y167515D01*
X429067Y164806D01*
X426963Y162878D01*
X426491Y163124D01*
X426586Y163844D01*
X426417Y165129D01*
X425921Y166326D01*
X425132Y167354D01*
X424104Y168143D01*
X422907Y168639D01*
X421622Y168808D01*
X420337Y168639D01*
X419140Y168143D01*
X418112Y167354D01*
X417323Y166326D01*
X416828Y165129D01*
X416658Y163844D01*
X416828Y162559D01*
X417323Y161362D01*
X418112Y160334D01*
X419140Y159545D01*
X420337Y159049D01*
X420766Y158993D01*
X420861Y158502D01*
X418146Y156969D01*
X417085Y156416D01*
X413691Y155010D01*
X410187Y153906D01*
X406600Y153110D01*
X402957Y152631D01*
X399286Y152471D01*
X395616Y152631D01*
X391973Y153110D01*
X388386Y153906D01*
X384882Y155010D01*
X381487Y156416D01*
X378228Y158113D01*
X375130Y160087D01*
X373696Y161187D01*
Y179626D01*
X377008Y182939D01*
X393051Y182877D01*
D02*
G37*
G36*
X126361Y117349D02*
X126732Y116848D01*
X126611Y116240D01*
Y115024D01*
X126170Y114788D01*
X125954Y114933D01*
X124997Y115123D01*
X123012D01*
Y111171D01*
X122512D01*
Y110671D01*
X117527D01*
Y109720D01*
X117677Y108966D01*
X117627Y108845D01*
X117393Y108518D01*
X117317Y108461D01*
X116700Y108338D01*
X116035Y107895D01*
X115732Y107440D01*
X115139Y107326D01*
X110765Y111700D01*
X110342Y111983D01*
X109843Y112082D01*
X108200D01*
Y112254D01*
X108078Y112868D01*
X107730Y113389D01*
X107209Y113737D01*
X106595Y113860D01*
X105020D01*
X104405Y113737D01*
X103884Y113389D01*
X103536Y112868D01*
X103414Y112254D01*
Y110400D01*
X103301Y110264D01*
X103132D01*
X102688Y110717D01*
Y112254D01*
X102566Y112868D01*
X102218Y113389D01*
X101697Y113737D01*
X101083Y113860D01*
X99508D01*
X98893Y113737D01*
X98373Y113389D01*
X98024Y112868D01*
X97902Y112254D01*
Y111320D01*
X97050Y110468D01*
X96632Y110188D01*
X96459Y110016D01*
X96177Y109593D01*
X96077Y109094D01*
Y108511D01*
X95107Y107541D01*
X94939Y107429D01*
X91836Y104325D01*
X91553Y103902D01*
X91453Y103402D01*
Y102627D01*
X90953Y102381D01*
X90663Y102604D01*
X89897Y102921D01*
X89075Y103029D01*
X88253Y102921D01*
X87486Y102604D01*
X86829Y102099D01*
X86556Y101744D01*
X85927Y101743D01*
X85764Y101955D01*
X85062Y102494D01*
X84244Y102833D01*
X83960Y102870D01*
X83957Y103369D01*
X84494Y103476D01*
X84950Y103780D01*
X85255Y104236D01*
X85362Y104774D01*
Y105955D01*
X85255Y106492D01*
X84950Y106948D01*
X85140Y107422D01*
X85455Y107893D01*
X85578Y108514D01*
Y108604D01*
X82480D01*
Y109604D01*
X85578D01*
Y109695D01*
X85455Y110316D01*
X85273Y110587D01*
X85574Y111037D01*
X86122Y110928D01*
X86477Y110999D01*
X86660Y110725D01*
X87181Y110377D01*
X87795Y110255D01*
X89764D01*
X90378Y110377D01*
X90899Y110725D01*
X91247Y111246D01*
X91369Y111860D01*
Y113435D01*
X91247Y114050D01*
X90899Y114570D01*
X90378Y114919D01*
X89764Y115041D01*
X87824D01*
X87044Y115562D01*
X86122Y115745D01*
X85200Y115562D01*
X84419Y115040D01*
X84247Y114782D01*
X83957Y114840D01*
X81004D01*
X80466Y114733D01*
X80043Y114450D01*
X78937D01*
X78937Y114450D01*
X78323Y114328D01*
X77802Y113980D01*
X77802Y113980D01*
X75538Y111716D01*
X75190Y111195D01*
X75095Y110720D01*
X74613Y110496D01*
X74347Y110613D01*
X74324Y111131D01*
X74517Y111261D01*
X74822Y111716D01*
X74929Y112254D01*
Y113435D01*
X74822Y113973D01*
X74517Y114429D01*
X74213Y114632D01*
Y117081D01*
X74567Y117434D01*
X126361Y117349D01*
D02*
G37*
G36*
X79554Y104442D02*
X79682Y104356D01*
X79706Y104236D01*
X80010Y103780D01*
X80466Y103476D01*
X81004Y103369D01*
X82729D01*
X82761Y102869D01*
X82488Y102833D01*
X81670Y102494D01*
X80968Y101955D01*
X80429Y101253D01*
X80090Y100435D01*
X79975Y99557D01*
X79914Y99488D01*
X77176D01*
X76909Y99988D01*
X77088Y100256D01*
X77244Y101040D01*
X77088Y101823D01*
X76644Y102487D01*
X75980Y102931D01*
X75197Y103087D01*
X75160Y103080D01*
X74609Y103477D01*
X74596Y103578D01*
X74670Y103627D01*
X75022Y104153D01*
X75145Y104774D01*
Y104864D01*
X72047D01*
Y105864D01*
X75145D01*
Y105955D01*
X75022Y106575D01*
X74934Y106707D01*
X75201Y107207D01*
X76319D01*
X76319Y107207D01*
X76710Y107285D01*
X79554Y104442D01*
D02*
G37*
G36*
X59449Y117439D02*
X59449Y100303D01*
X56122D01*
X55886Y100744D01*
X55997Y100910D01*
X56159Y101723D01*
Y105258D01*
X52953D01*
X49747D01*
Y101723D01*
X49908Y100910D01*
X50188Y100491D01*
X50111Y99837D01*
X49876Y99681D01*
X49416Y98992D01*
X49255Y98179D01*
Y97597D01*
X55413D01*
Y97097D01*
X55913D01*
Y93890D01*
X59449D01*
Y90502D01*
X58403Y89456D01*
X51378D01*
X50648Y89311D01*
X50030Y88898D01*
X49616Y88279D01*
X49515Y87771D01*
X45914D01*
X40301Y93385D01*
X40335Y93553D01*
X40179Y94337D01*
X39735Y95001D01*
X39592Y95096D01*
Y101924D01*
X39493Y102423D01*
X39210Y102846D01*
X38214Y103842D01*
Y108742D01*
X38357Y108838D01*
X38801Y109502D01*
X38957Y110285D01*
X38801Y111069D01*
X38357Y111733D01*
X37693Y112177D01*
X36909Y112333D01*
X36126Y112177D01*
X35462Y111733D01*
X35018Y111069D01*
X34862Y110285D01*
X35018Y109502D01*
X35462Y108838D01*
X35605Y108742D01*
Y103302D01*
X35704Y102803D01*
X35987Y102379D01*
X36983Y101383D01*
Y95096D01*
X36840Y95001D01*
X36396Y94337D01*
X36240Y93553D01*
X36396Y92770D01*
X36840Y92106D01*
X37504Y91662D01*
X38287Y91506D01*
X38456Y91540D01*
X44451Y85544D01*
X44875Y85261D01*
X45374Y85162D01*
X47036D01*
X47204Y84662D01*
X46829Y84100D01*
X46673Y83317D01*
X41521D01*
X29358Y95480D01*
Y109991D01*
X29400Y110019D01*
X29844Y110683D01*
X30000Y111467D01*
X29844Y112250D01*
X29400Y112914D01*
X28736Y113358D01*
X27953Y113514D01*
X27169Y113358D01*
X26505Y112914D01*
X26061Y112250D01*
X25905Y111467D01*
X26061Y110683D01*
X26505Y110019D01*
X26548Y109991D01*
Y94898D01*
X26655Y94361D01*
X26959Y93905D01*
X33792Y87072D01*
X33601Y86610D01*
X29737D01*
X29709Y86752D01*
X29274Y87404D01*
X28622Y87839D01*
X27854Y87991D01*
X20374D01*
X19693Y87856D01*
X19193Y88118D01*
Y117181D01*
X19547Y117534D01*
X59449Y117439D01*
D02*
G37*
G36*
X127343Y107917D02*
X127545Y107782D01*
Y107282D01*
X127259Y107091D01*
X126783Y106378D01*
X126615Y105536D01*
Y104880D01*
X130413D01*
Y103880D01*
X126615D01*
Y103224D01*
X126783Y102382D01*
X127259Y101669D01*
X127736Y101350D01*
X127758Y100764D01*
X127653Y100694D01*
X127176Y99980D01*
X127009Y99139D01*
Y98482D01*
X130610D01*
Y97482D01*
X127009D01*
Y96826D01*
X127176Y95985D01*
X127501Y95499D01*
X127401Y94991D01*
X127013Y94803D01*
X126347Y95248D01*
X125391Y95438D01*
X125346D01*
X125122Y95711D01*
X121331D01*
Y96711D01*
X125064D01*
X124963Y97217D01*
X124653Y97682D01*
X124763Y97847D01*
X124859Y98327D01*
Y99213D01*
X124763Y99693D01*
X124525Y100049D01*
X124763Y100406D01*
X124859Y100886D01*
Y101772D01*
X124763Y102252D01*
X124525Y102608D01*
X124763Y102965D01*
X124859Y103445D01*
Y104331D01*
X124763Y104811D01*
X124525Y105167D01*
X124763Y105524D01*
X124859Y106004D01*
Y106890D01*
X125291Y107278D01*
X125954Y107410D01*
X126765Y107952D01*
X126786Y107984D01*
X127209D01*
X127343Y107917D01*
D02*
G37*
G36*
X104308Y92599D02*
Y87882D01*
X103946Y87571D01*
X103808Y87561D01*
X103742Y87568D01*
X103683Y87550D01*
X103622Y87548D01*
X103534Y87507D01*
X103441Y87480D01*
X103394Y87441D01*
X103338Y87415D01*
X103273Y87344D01*
X103197Y87283D01*
X103168Y87229D01*
X103127Y87184D01*
X103094Y87093D01*
X103047Y87008D01*
X101990Y83634D01*
X99410Y81053D01*
X98086Y79729D01*
X78011Y79303D01*
X77925Y79733D01*
X77526Y80331D01*
X77706Y80831D01*
X78995D01*
X79495Y80931D01*
X79632Y81022D01*
X80807D01*
X81422Y81145D01*
X81942Y81493D01*
X82291Y82014D01*
X82413Y82628D01*
Y84203D01*
X82291Y84817D01*
X81942Y85338D01*
X81422Y85686D01*
X80807Y85808D01*
X79079D01*
X78906Y86077D01*
X79061Y86317D01*
X79323D01*
Y88427D01*
X76852D01*
X76516Y88152D01*
X76181Y88219D01*
X75398Y88063D01*
X75256Y87968D01*
X73779D01*
X73303Y88026D01*
Y91774D01*
X67618D01*
Y92774D01*
X73303D01*
Y95522D01*
X74214D01*
Y95325D01*
X75083Y94994D01*
Y92159D01*
X80232D01*
Y93750D01*
X80807D01*
Y92372D01*
X85532D01*
Y93750D01*
X86283D01*
X86694Y93250D01*
X86637Y92966D01*
X86793Y92182D01*
X87237Y91518D01*
X87901Y91074D01*
X88684Y90918D01*
X89468Y91074D01*
X90132Y91518D01*
X90264Y91715D01*
X90493Y91760D01*
X90916Y92043D01*
X92622Y93750D01*
X93017D01*
Y94144D01*
X94394Y95522D01*
X101385D01*
X104308Y92599D01*
D02*
G37*
G36*
X123209Y87535D02*
X125391D01*
X126111Y87678D01*
X126611Y87346D01*
Y86417D01*
X126795Y85490D01*
X127174Y84923D01*
X127020Y84550D01*
X126918Y84417D01*
X126249Y84329D01*
X125579Y84051D01*
X125003Y83609D01*
X124561Y83034D01*
X124284Y82363D01*
X124189Y81644D01*
Y76132D01*
X124284Y75412D01*
X124561Y74742D01*
X125003Y74166D01*
X125579Y73725D01*
X126249Y73447D01*
X126969Y73352D01*
X130905D01*
X131625Y73447D01*
X132295Y73725D01*
X132866Y74163D01*
X132890Y74160D01*
X133366Y73990D01*
X133366Y44856D01*
X132866Y44609D01*
X132355Y45001D01*
X131514Y45350D01*
X131410Y45364D01*
X131315Y45509D01*
X131211Y45894D01*
X131434Y46227D01*
X131507Y46597D01*
X129429D01*
Y47597D01*
X131507D01*
X131434Y47966D01*
X131137Y48410D01*
X131005Y48498D01*
X130984Y49080D01*
X130997Y49105D01*
X131234Y49460D01*
X131321Y49902D01*
Y50591D01*
X131234Y51032D01*
X131057Y51296D01*
X131050Y51696D01*
X131103Y51928D01*
X131137Y51951D01*
X131434Y52395D01*
X131507Y52764D01*
X129429D01*
Y53764D01*
X131507D01*
X131434Y54134D01*
X131137Y54578D01*
X131005Y54667D01*
X130984Y55248D01*
X130997Y55273D01*
X131234Y55628D01*
X131321Y56070D01*
Y56759D01*
X131234Y57200D01*
X131057Y57464D01*
X131050Y57864D01*
X131103Y58096D01*
X131137Y58119D01*
X131434Y58563D01*
X131507Y58933D01*
X129429D01*
Y59933D01*
X131507D01*
X131434Y60302D01*
X131137Y60746D01*
X131005Y60834D01*
X130984Y61416D01*
X130997Y61441D01*
X131234Y61796D01*
X131321Y62238D01*
Y62927D01*
X131234Y63368D01*
X131057Y63632D01*
X131050Y64032D01*
X131103Y64264D01*
X131137Y64287D01*
X131434Y64731D01*
X131507Y65101D01*
X129429D01*
Y66101D01*
X131507D01*
X131434Y66470D01*
X131137Y66914D01*
X131005Y67002D01*
X130984Y67584D01*
X130997Y67609D01*
X131234Y67964D01*
X131321Y68406D01*
Y69095D01*
X131234Y69536D01*
X130983Y69911D01*
X130609Y70161D01*
X130167Y70249D01*
X128691D01*
X128249Y70161D01*
X128096Y70058D01*
X127298Y70856D01*
X126875Y71138D01*
X126461Y71221D01*
X126354Y71381D01*
X125690Y71825D01*
X124907Y71980D01*
X124123Y71825D01*
X123556Y71446D01*
X123207Y71560D01*
X123056Y71667D01*
Y76860D01*
X123163Y77019D01*
X123250Y77461D01*
Y78937D01*
X123163Y79379D01*
X122913Y79753D01*
X122538Y80003D01*
X122097Y80091D01*
X121407D01*
X120966Y80003D01*
X120611Y79766D01*
X120586Y79753D01*
X120004Y79774D01*
X119916Y79906D01*
X119471Y80204D01*
X119102Y80277D01*
Y78199D01*
X118102D01*
Y80363D01*
X117699Y80707D01*
X117625Y81077D01*
X117277Y81598D01*
X117113Y81708D01*
X117129Y82183D01*
X117181Y82205D01*
X117757Y82647D01*
X118179Y83196D01*
X118230Y83200D01*
X118679Y82982D01*
Y82185D01*
X118766Y81744D01*
X119017Y81369D01*
X119391Y81119D01*
X119833Y81031D01*
X120522D01*
X120963Y81119D01*
X121338Y81369D01*
X121588Y81744D01*
X121676Y82185D01*
Y83662D01*
X121588Y84103D01*
X121383Y84409D01*
Y85187D01*
X121284Y85686D01*
X121001Y86110D01*
X120076Y87035D01*
X120283Y87535D01*
X122209D01*
Y91486D01*
X123209D01*
Y87535D01*
D02*
G37*
G36*
X104308Y86692D02*
Y80240D01*
X103815Y79747D01*
X103815Y79747D01*
X103815Y79747D01*
X102859Y78791D01*
X102598Y78400D01*
X102506Y77940D01*
X102506Y77940D01*
Y66781D01*
X101087Y65362D01*
X100826Y64971D01*
X100734Y64510D01*
X100734Y64510D01*
Y52872D01*
X99736Y51873D01*
X99449Y51930D01*
X98665Y51775D01*
X98001Y51331D01*
X97557Y50667D01*
X97402Y49883D01*
X97557Y49100D01*
X98001Y48436D01*
X98665Y47992D01*
X99449Y47836D01*
X100232Y47992D01*
X100896Y48436D01*
X101340Y49100D01*
X101496Y49883D01*
X101439Y50170D01*
X101847Y50579D01*
X102309Y50387D01*
Y48353D01*
X98558Y44601D01*
X98031Y44953D01*
X97248Y45109D01*
X96465Y44953D01*
X95800Y44509D01*
X95357Y43845D01*
X95201Y43062D01*
X95357Y42278D01*
X95800Y41614D01*
X96465Y41170D01*
X97248Y41015D01*
X98031Y41170D01*
X98696Y41614D01*
X98879Y41889D01*
X99182Y41949D01*
X99573Y42210D01*
X103382Y46020D01*
X103882Y45813D01*
Y45090D01*
X103981Y44591D01*
X104264Y44168D01*
X105171Y43261D01*
X105232Y43220D01*
X105230Y43166D01*
X105082Y42719D01*
X104433Y42590D01*
X103769Y42147D01*
X103325Y41482D01*
X103169Y40699D01*
X103325Y39915D01*
X103769Y39251D01*
X104433Y38807D01*
X105217Y38652D01*
X105987Y38805D01*
X108977Y35815D01*
X109400Y35533D01*
X109899Y35433D01*
X112345D01*
X112844Y35533D01*
X113267Y35815D01*
X113587Y36135D01*
X114085Y36086D01*
X114139Y36006D01*
X114584Y35709D01*
X115108Y35604D01*
X115347D01*
Y37319D01*
X115847D01*
Y37819D01*
X117924D01*
X117851Y38189D01*
X117554Y38633D01*
X117422Y38721D01*
X117401Y39303D01*
X117414Y39328D01*
X117651Y39683D01*
X117739Y40125D01*
Y40814D01*
X117651Y41255D01*
X117401Y41630D01*
X117325Y41680D01*
X117431Y42211D01*
X117711Y42267D01*
X118231Y42615D01*
X118250Y42642D01*
X121161D01*
X121661Y42742D01*
X121808Y42840D01*
X122274Y42550D01*
X122198Y41978D01*
Y39034D01*
X128150D01*
Y38034D01*
X122198D01*
Y35089D01*
X122317Y34185D01*
X122666Y33343D01*
X122907Y33030D01*
X122660Y32530D01*
X99006D01*
X98719Y33030D01*
X98753Y33087D01*
X99307Y33197D01*
X99971Y33641D01*
X100415Y34305D01*
X100571Y35089D01*
X100415Y35872D01*
X99971Y36536D01*
X99307Y36980D01*
X98524Y37136D01*
X97740Y36980D01*
X97076Y36536D01*
X96632Y35872D01*
X96501Y35212D01*
X77118D01*
X77092Y35251D01*
X77359Y35751D01*
X85731D01*
X86269Y35858D01*
X86725Y36162D01*
X88300Y37737D01*
X88605Y38193D01*
X88712Y38731D01*
Y39546D01*
X88797Y39603D01*
X89254Y40287D01*
X89414Y41093D01*
X89254Y41899D01*
X88797Y42583D01*
X88113Y43040D01*
X87307Y43200D01*
X86500Y43040D01*
X85816Y42583D01*
X85360Y41899D01*
X85199Y41093D01*
X85360Y40287D01*
X85816Y39603D01*
X85703Y39114D01*
X85149Y38561D01*
X76960D01*
X69754Y45767D01*
X69764Y45817D01*
X69608Y46600D01*
X69164Y47265D01*
X69121Y47293D01*
Y71734D01*
X69621Y71941D01*
X72373Y69190D01*
X72894Y68841D01*
X73508Y68719D01*
X73509Y68719D01*
X92266D01*
X92266Y68719D01*
X92880Y68841D01*
X93401Y69190D01*
X94244Y70032D01*
X94580Y69910D01*
X94719Y69800D01*
Y56102D01*
X92089Y53472D01*
X91807Y53049D01*
X91707Y52549D01*
Y48469D01*
X91109Y47871D01*
X90826Y47447D01*
X90727Y46948D01*
Y42341D01*
X90584Y42245D01*
X90140Y41581D01*
X89984Y40798D01*
X90140Y40014D01*
X90584Y39350D01*
X91248Y38906D01*
X92031Y38751D01*
X92815Y38906D01*
X93479Y39350D01*
X93923Y40014D01*
X94078Y40798D01*
X93923Y41581D01*
X93479Y42245D01*
X93336Y42341D01*
Y46408D01*
X93934Y47006D01*
X94217Y47430D01*
X94316Y47929D01*
Y52009D01*
X96946Y54639D01*
X97229Y55062D01*
X97328Y55561D01*
Y69319D01*
X99450Y71441D01*
X99733Y71864D01*
X99832Y72363D01*
Y74907D01*
X99733Y75406D01*
X99450Y75829D01*
X97774Y77505D01*
X97351Y77788D01*
X96851Y77887D01*
X94390D01*
X93891Y77788D01*
X93467Y77505D01*
X89658Y73696D01*
X75349D01*
X71191Y77855D01*
X71394Y78359D01*
X73773Y78409D01*
X73846Y78043D01*
X74325Y77327D01*
X75041Y76848D01*
X75886Y76680D01*
X76731Y76848D01*
X77447Y77327D01*
X77925Y78043D01*
X78016Y78500D01*
X101378Y78996D01*
X103813Y86768D01*
X104308Y86692D01*
D02*
G37*
G36*
X20374Y71615D02*
X27854D01*
X27915Y71627D01*
X28162Y71166D01*
X24987Y67991D01*
X20374D01*
X20170Y67951D01*
X19783Y68268D01*
Y71338D01*
X20170Y71656D01*
X20374Y71615D01*
D02*
G37*
G36*
X44190Y76674D02*
X44646Y76369D01*
X45184Y76262D01*
X51721D01*
X60227Y67757D01*
X60523Y67559D01*
X60579Y67064D01*
X60557Y66981D01*
X60365Y66853D01*
X59922Y66189D01*
X59786Y65508D01*
X58231Y63952D01*
X41867D01*
X41705Y64195D01*
X41040Y64639D01*
X40257Y64795D01*
X39474Y64639D01*
X38809Y64195D01*
X38366Y63531D01*
X38210Y62748D01*
X38366Y61964D01*
X38809Y61300D01*
X39474Y60856D01*
X40257Y60701D01*
X41040Y60856D01*
X41076Y60880D01*
X41362Y60937D01*
X41785Y61220D01*
X41909Y61343D01*
X58771D01*
X59271Y61442D01*
X59694Y61725D01*
X61407Y63439D01*
X61813Y63358D01*
X62597Y63514D01*
X63261Y63958D01*
X63451Y64243D01*
X63951Y64091D01*
Y61515D01*
X63008Y60571D01*
X62735Y60754D01*
X62236Y60853D01*
X61737Y60754D01*
X61313Y60471D01*
X61277Y60417D01*
X60788Y60090D01*
X60344Y59426D01*
X60189Y58643D01*
X60344Y57859D01*
X60788Y57195D01*
X61452Y56751D01*
X61763Y56689D01*
X62186Y56444D01*
X62030Y55661D01*
X62186Y54877D01*
X62629Y54213D01*
X63294Y53769D01*
X63465Y53735D01*
X63912Y53289D01*
Y44782D01*
X64011Y44282D01*
X64294Y43859D01*
X75123Y33030D01*
X75100Y32843D01*
X74950Y32530D01*
X19783D01*
X19783Y61339D01*
X20170Y61656D01*
X20374Y61615D01*
X27854D01*
X28505Y61744D01*
X29005Y61468D01*
Y60482D01*
X28248D01*
Y55364D01*
X28248Y55364D01*
X28165Y55061D01*
X28165Y55061D01*
X28165Y54899D01*
Y52182D01*
X28091Y52147D01*
X27591Y52464D01*
Y55152D01*
X27673D01*
Y57423D01*
X25098D01*
X22524D01*
Y55274D01*
X22441D01*
Y53002D01*
X25016D01*
Y52502D01*
X25516D01*
Y49730D01*
X26015D01*
X26238Y49460D01*
X26406Y48615D01*
X26884Y47899D01*
X27600Y47420D01*
X28445Y47252D01*
X29290Y47420D01*
X30007Y47899D01*
X30485Y48615D01*
X30653Y49460D01*
X30633Y49560D01*
X30972Y49943D01*
X32890D01*
Y55061D01*
X32890Y55061D01*
X32972Y55364D01*
X32972Y55364D01*
X32972Y55527D01*
Y60482D01*
X32216D01*
Y65378D01*
X32216Y65378D01*
X32886Y65656D01*
X33462Y66097D01*
X33904Y66673D01*
X34182Y67343D01*
X34276Y68063D01*
X34182Y68782D01*
X33904Y69453D01*
X33462Y70028D01*
X32886Y70470D01*
X32216Y70748D01*
X32159Y70755D01*
X32138Y71247D01*
X32638Y71346D01*
X32810Y71461D01*
X41412D01*
X43425Y69448D01*
X43364Y69146D01*
X43532Y68301D01*
X44011Y67585D01*
X44727Y67106D01*
X45572Y66938D01*
X46417Y67106D01*
X47133Y67585D01*
X47612Y68301D01*
X47780Y69146D01*
X47612Y69990D01*
X47133Y70707D01*
X46417Y71185D01*
X45572Y71353D01*
X45270Y71293D01*
X42875Y73688D01*
X42451Y73971D01*
X41952Y74070D01*
X41365D01*
X41129Y74511D01*
X41164Y74563D01*
X41320Y75347D01*
X41164Y76130D01*
X40720Y76794D01*
X40056Y77238D01*
X39273Y77394D01*
X38489Y77238D01*
X37825Y76794D01*
X37532Y76356D01*
X33878D01*
X33671Y76856D01*
X34050Y77235D01*
X34351Y77175D01*
X35196Y77343D01*
X35912Y77821D01*
X36033Y78002D01*
X42862D01*
X44190Y76674D01*
D02*
G37*
G36*
X218656Y118597D02*
X222445Y117997D01*
X226175Y117101D01*
X229824Y115916D01*
X233368Y114447D01*
X236786Y112706D01*
X240057Y110702D01*
X243161Y108447D01*
X246078Y105955D01*
X248790Y103243D01*
X251282Y100326D01*
X253537Y97222D01*
X255541Y93951D01*
X257283Y90533D01*
X258751Y86989D01*
X259936Y83340D01*
X260832Y79610D01*
X261432Y75821D01*
X261733Y71997D01*
Y68161D01*
X261432Y64336D01*
X260832Y60547D01*
X259936Y56817D01*
X258751Y53169D01*
X257283Y49624D01*
X255541Y46206D01*
X253537Y42935D01*
X251282Y39832D01*
X248790Y36915D01*
X246078Y34202D01*
X243161Y31711D01*
X240057Y29456D01*
X236786Y27452D01*
X233368Y25710D01*
X229824Y24242D01*
X226175Y23056D01*
X222445Y22161D01*
X218656Y21561D01*
X214832Y21260D01*
X210996D01*
X207171Y21561D01*
X203382Y22161D01*
X199652Y23056D01*
X196004Y24242D01*
X192459Y25710D01*
X189041Y27452D01*
X185771Y29456D01*
X182667Y31711D01*
X179750Y34202D01*
X177037Y36915D01*
X174546Y39832D01*
X172291Y42935D01*
X170287Y46206D01*
X168545Y49624D01*
X167077Y53169D01*
X165892Y56817D01*
X164996Y60547D01*
X164396Y64336D01*
X164095Y68161D01*
Y71997D01*
X164396Y75821D01*
X164996Y79610D01*
X165892Y83340D01*
X167077Y86989D01*
X168545Y90533D01*
X170287Y93951D01*
X172291Y97222D01*
X174546Y100326D01*
X177037Y103243D01*
X179750Y105955D01*
X182667Y108447D01*
X185771Y110702D01*
X189041Y112706D01*
X192459Y114447D01*
X196004Y115916D01*
X199652Y117101D01*
X203382Y117997D01*
X207171Y118597D01*
X210996Y118898D01*
X214832D01*
X218656Y118597D01*
D02*
G37*
%LPC*%
G36*
X419314Y188476D02*
X416519D01*
Y186764D01*
X417692D01*
X418313Y186888D01*
X418839Y187239D01*
X419190Y187765D01*
X419314Y188386D01*
Y188476D01*
D02*
G37*
G36*
X425763Y179677D02*
X425475D01*
Y177370D01*
X427585D01*
Y177854D01*
X427447Y178552D01*
X427051Y179143D01*
X426460Y179538D01*
X425763Y179677D01*
D02*
G37*
G36*
X122012Y115123D02*
X120027D01*
X119070Y114933D01*
X118259Y114391D01*
X117717Y113580D01*
X117527Y112623D01*
Y111671D01*
X122012D01*
Y115123D01*
D02*
G37*
G36*
X89764Y109746D02*
X89280D01*
Y107636D01*
X91586D01*
Y107923D01*
X91448Y108621D01*
X91052Y109212D01*
X90461Y109607D01*
X89764Y109746D01*
D02*
G37*
G36*
X88279D02*
X87795D01*
X87098Y109607D01*
X86507Y109212D01*
X86112Y108621D01*
X85973Y107923D01*
Y107636D01*
X88279D01*
Y109746D01*
D02*
G37*
G36*
X91586Y106636D02*
X89280D01*
Y104526D01*
X89764D01*
X90461Y104665D01*
X91052Y105060D01*
X91448Y105651D01*
X91586Y106349D01*
Y106636D01*
D02*
G37*
G36*
X88279D02*
X85973D01*
Y106349D01*
X86112Y105651D01*
X86507Y105060D01*
X87098Y104665D01*
X87795Y104526D01*
X88279D01*
Y106636D01*
D02*
G37*
G36*
X54035Y111917D02*
X53453D01*
Y106258D01*
X56159D01*
Y109793D01*
X55997Y110606D01*
X55537Y111295D01*
X54848Y111755D01*
X54035Y111917D01*
D02*
G37*
G36*
X52453D02*
X51870D01*
X51057Y111755D01*
X50369Y111295D01*
X49908Y110606D01*
X49747Y109793D01*
Y106258D01*
X52453D01*
Y111917D01*
D02*
G37*
G36*
X54913Y96596D02*
X49255D01*
Y96014D01*
X49416Y95201D01*
X49876Y94512D01*
X50565Y94052D01*
X51378Y93890D01*
X54913D01*
Y96596D01*
D02*
G37*
G36*
X80807Y91537D02*
X80323D01*
Y89427D01*
X82630D01*
Y89715D01*
X82491Y90412D01*
X82096Y91003D01*
X81504Y91398D01*
X80807Y91537D01*
D02*
G37*
G36*
X79323D02*
X78839D01*
X78141Y91398D01*
X77550Y91003D01*
X77155Y90412D01*
X77016Y89715D01*
Y89427D01*
X79323D01*
Y91537D01*
D02*
G37*
G36*
X82630Y88427D02*
X80323D01*
Y86317D01*
X80807D01*
X81504Y86456D01*
X82096Y86851D01*
X82491Y87442D01*
X82630Y88140D01*
Y88427D01*
D02*
G37*
G36*
X117924Y36819D02*
X116347D01*
Y35604D01*
X116585D01*
X117109Y35709D01*
X117554Y36006D01*
X117851Y36450D01*
X117924Y36819D01*
D02*
G37*
G36*
X27673Y60695D02*
X25598D01*
Y58423D01*
X27673D01*
Y60695D01*
D02*
G37*
G36*
X24598D02*
X22524D01*
Y58423D01*
X24598D01*
Y60695D01*
D02*
G37*
G36*
X24516Y52002D02*
X22441D01*
Y49730D01*
X24516D01*
Y52002D01*
D02*
G37*
G36*
X217048Y116478D02*
X216273Y116376D01*
X215551Y116077D01*
X214931Y115602D01*
X214455Y114981D01*
X214156Y114259D01*
X214054Y113484D01*
X214108Y113073D01*
X213730Y112688D01*
X213194Y112682D01*
X212814Y113062D01*
X212857Y113386D01*
X212755Y114161D01*
X212456Y114883D01*
X211980Y115503D01*
X211360Y115979D01*
X210638Y116278D01*
X209863Y116380D01*
X209088Y116278D01*
X208366Y115979D01*
X207746Y115503D01*
X207270Y114883D01*
X206971Y114161D01*
X206869Y113386D01*
X206905Y113110D01*
X206582Y112648D01*
X206509Y112639D01*
X205550Y112513D01*
X204588Y112114D01*
X203763Y111481D01*
X203436Y111054D01*
X202805D01*
X202478Y111481D01*
X201653Y112114D01*
X200691Y112513D01*
X199659Y112648D01*
X198627Y112513D01*
X197666Y112114D01*
X196840Y111481D01*
X196206Y110655D01*
X195808Y109693D01*
X195672Y108661D01*
X195808Y107630D01*
X196206Y106668D01*
X196680Y106051D01*
X196433Y105551D01*
X194985D01*
X194738Y106051D01*
X194837Y106180D01*
X195137Y106902D01*
X195239Y107677D01*
X195137Y108452D01*
X194837Y109174D01*
X194362Y109794D01*
X193742Y110270D01*
X193019Y110569D01*
X192245Y110671D01*
X191470Y110569D01*
X190747Y110270D01*
X190127Y109794D01*
X189652Y109174D01*
X189352Y108452D01*
X189250Y107677D01*
X189352Y106902D01*
X189652Y106180D01*
X189751Y106051D01*
X189504Y105551D01*
X183288D01*
X182821Y105458D01*
X182425Y105194D01*
X182160Y104798D01*
X182068Y104331D01*
Y101513D01*
X181568Y101317D01*
X180678Y101686D01*
X179646Y101822D01*
X178614Y101686D01*
X177653Y101287D01*
X176827Y100654D01*
X176193Y99828D01*
X175795Y98867D01*
X175659Y97835D01*
X175795Y96803D01*
X176042Y96206D01*
X176008Y96082D01*
X175713Y95694D01*
X174874Y95583D01*
X173913Y95185D01*
X173087Y94551D01*
X172453Y93726D01*
X172055Y92764D01*
X171919Y91732D01*
X172055Y90701D01*
X172453Y89739D01*
X172871Y89194D01*
X172600Y88726D01*
X172559Y88731D01*
X171528Y88595D01*
X170566Y88197D01*
X169740Y87563D01*
X169107Y86738D01*
X168709Y85776D01*
X168573Y84744D01*
X168709Y83712D01*
X169107Y82751D01*
X169523Y82209D01*
X169276Y81709D01*
X169000D01*
Y77272D01*
X175906D01*
Y76772D01*
X176406D01*
Y71835D01*
X182068D01*
Y67142D01*
X176504D01*
Y61221D01*
Y55299D01*
X182068D01*
Y51146D01*
X176973D01*
Y45209D01*
X182104D01*
X182149Y44984D01*
X182370Y44653D01*
X182417Y44622D01*
X182425Y44610D01*
X182821Y44345D01*
X183288Y44252D01*
X209567D01*
X210034Y44345D01*
X210430Y44610D01*
X210695Y45006D01*
X210735Y45209D01*
X219327D01*
Y51146D01*
X210788D01*
Y55201D01*
X223461D01*
Y55578D01*
X223923Y55769D01*
X225831Y53862D01*
X226226Y53597D01*
X226693Y53504D01*
X234552D01*
Y49319D01*
X244426D01*
Y53504D01*
X252087D01*
X252554Y53597D01*
X252950Y53862D01*
X256296Y57208D01*
X256561Y57604D01*
X256654Y58071D01*
Y61417D01*
X256561Y61884D01*
X256296Y62280D01*
X250398Y68179D01*
X250002Y68443D01*
X249535Y68536D01*
X229245D01*
X229016Y68490D01*
X228788Y68447D01*
X228783Y68444D01*
X228778Y68443D01*
X228585Y68314D01*
X228390Y68186D01*
X223922Y63794D01*
X223461Y63987D01*
Y67043D01*
X210788D01*
Y71614D01*
X242343D01*
X242810Y71707D01*
X243001Y71835D01*
X249126D01*
Y76772D01*
X249626D01*
Y77272D01*
X256532D01*
Y81709D01*
X256453D01*
X256207Y82209D01*
X256623Y82751D01*
X257021Y83712D01*
X257157Y84744D01*
X257021Y85776D01*
X256623Y86738D01*
X255989Y87563D01*
X255163Y88197D01*
X254202Y88595D01*
X253569Y88678D01*
X253348Y89212D01*
X253374Y89247D01*
X253773Y90208D01*
X253909Y91240D01*
X253773Y92272D01*
X253374Y93234D01*
X252741Y94059D01*
X251915Y94693D01*
X250954Y95091D01*
X250230Y95187D01*
X249902Y95700D01*
X250032Y96015D01*
X250168Y97047D01*
X250032Y98079D01*
X249634Y99041D01*
X249001Y99866D01*
X248175Y100500D01*
X247213Y100898D01*
X246182Y101034D01*
X245150Y100898D01*
X244188Y100500D01*
X244012Y100365D01*
X243563Y100586D01*
Y104331D01*
X243470Y104798D01*
X243206Y105194D01*
X242810Y105458D01*
X242343Y105551D01*
X235930D01*
X235683Y106051D01*
X235782Y106180D01*
X236082Y106902D01*
X236184Y107677D01*
X236082Y108452D01*
X235782Y109174D01*
X235307Y109794D01*
X234686Y110270D01*
X233964Y110569D01*
X233189Y110671D01*
X232414Y110569D01*
X231692Y110270D01*
X231464Y110095D01*
X230981Y110224D01*
X230802Y110655D01*
X230169Y111481D01*
X229343Y112114D01*
X228381Y112513D01*
X227349Y112648D01*
X226318Y112513D01*
X225356Y112114D01*
X224530Y111481D01*
X224203Y111054D01*
X223573D01*
X223246Y111481D01*
X222420Y112114D01*
X221459Y112513D01*
X220427Y112648D01*
X219991Y113095D01*
X220042Y113484D01*
X219940Y114259D01*
X219641Y114981D01*
X219165Y115602D01*
X218545Y116077D01*
X217823Y116376D01*
X217048Y116478D01*
D02*
G37*
G36*
X256532Y76272D02*
X250126D01*
Y71835D01*
X256532D01*
Y76272D01*
D02*
G37*
G36*
X175406D02*
X169000D01*
Y71835D01*
X175406D01*
Y76272D01*
D02*
G37*
G36*
X175504Y67142D02*
X169099D01*
Y61721D01*
X175504D01*
Y67142D01*
D02*
G37*
G36*
Y60720D02*
X169099D01*
Y55299D01*
X175504D01*
Y60720D01*
D02*
G37*
G36*
X244426Y48319D02*
X239989D01*
Y43882D01*
X244426D01*
Y48319D01*
D02*
G37*
G36*
X238989D02*
X234552D01*
Y43882D01*
X238989D01*
Y48319D01*
D02*
G37*
%LPD*%
D10*
X77658Y94931D02*
D03*
X83169D02*
D03*
X25098Y57923D02*
D03*
X30610D02*
D03*
X25016Y52502D02*
D03*
X30528D02*
D03*
D11*
X110138Y89616D02*
D03*
X115650D02*
D03*
X115354Y79478D02*
D03*
X109842D02*
D03*
X109813Y69596D02*
D03*
X115324D02*
D03*
X109813Y59380D02*
D03*
X115324D02*
D03*
X110698Y50049D02*
D03*
X116210D02*
D03*
X110797Y44734D02*
D03*
X116309D02*
D03*
X100295Y100443D02*
D03*
X105807D02*
D03*
X73130Y82136D02*
D03*
X67618D02*
D03*
X100295Y111270D02*
D03*
X105807D02*
D03*
X100295Y104921D02*
D03*
X105807D02*
D03*
X411393Y183366D02*
D03*
X405881D02*
D03*
X419464Y176870D02*
D03*
X424975D02*
D03*
D17*
X129429Y68750D02*
D03*
Y65601D02*
D03*
X124705Y67175D02*
D03*
X129429Y62582D02*
D03*
Y59433D02*
D03*
X124705Y61007D02*
D03*
X129429Y56414D02*
D03*
Y53264D02*
D03*
X124705Y54839D02*
D03*
X129429Y50246D02*
D03*
Y47096D02*
D03*
X124705Y48671D02*
D03*
X115847Y40469D02*
D03*
Y37319D02*
D03*
X111122Y38894D02*
D03*
D22*
X79823Y83415D02*
D03*
Y88927D02*
D03*
X88779Y107136D02*
D03*
Y112648D02*
D03*
D24*
X121752Y78199D02*
D03*
X118602D02*
D03*
X120177Y82923D02*
D03*
D27*
X311860Y212894D02*
D03*
X389286Y189606D02*
D03*
X536713Y212894D02*
D03*
D28*
X24114Y84803D02*
D03*
Y74803D02*
D03*
Y64803D02*
D03*
D32*
X45374Y86467D02*
X51870D01*
X38287Y93553D02*
X45374Y86467D01*
X113484Y38894D02*
X115059Y40469D01*
X115847D01*
X108213Y41804D02*
Y42719D01*
Y41804D02*
X111122Y38894D01*
X105713Y40924D02*
X109899Y36738D01*
X113484Y37877D02*
Y38894D01*
X112345Y36738D02*
X113484Y37877D01*
X109899Y36738D02*
X112345D01*
X115354Y79478D02*
X115791Y79916D01*
X105187Y45090D02*
X106093Y44184D01*
X106748D01*
X108213Y42719D01*
X92681Y87107D02*
X94145Y85643D01*
X92681Y87107D02*
Y88083D01*
X91542Y89223D02*
X92681Y88083D01*
X115847Y98770D02*
X121331D01*
X94530Y97502D02*
Y102650D01*
X92758Y98236D02*
Y103402D01*
X111304Y106585D02*
X116954Y100935D01*
X105994Y106585D02*
X111304D01*
X105807Y106398D02*
X105994Y106585D01*
X109843Y110778D02*
X114983Y105637D01*
Y105412D02*
Y105637D01*
X116507Y103888D02*
X121331D01*
X114983Y105412D02*
X116507Y103888D01*
X89993Y92966D02*
X94530Y97502D01*
X88684Y92966D02*
X89993D01*
X90339Y95817D02*
X92758Y98236D01*
X86910Y95817D02*
X90339D01*
X88779Y104971D02*
Y107136D01*
X90158Y89223D02*
X91542D01*
X70276Y94931D02*
X71555Y96211D01*
X67618Y92274D02*
X70276Y94931D01*
X77658D01*
X83169Y99360D02*
X83366Y99557D01*
X83169Y94931D02*
Y99360D01*
X67618Y92274D02*
X67618Y92274D01*
Y86664D02*
Y92274D01*
X71555Y96211D02*
Y97884D01*
X71825Y83441D02*
X73130Y82136D01*
X71008Y83441D02*
X71825D01*
X67618Y82136D02*
X67618Y82136D01*
X65118Y102955D02*
X65317Y102756D01*
Y100887D02*
Y102756D01*
Y100887D02*
X65650Y100555D01*
Y97884D02*
Y100555D01*
X73130Y82136D02*
X78995D01*
X79819Y82960D01*
X69587Y84862D02*
X71008Y83441D01*
X124907Y69933D02*
X126376D01*
X38287Y93553D02*
Y101924D01*
X36909Y103302D02*
X38287Y101924D01*
X36909Y103302D02*
Y110285D01*
X117243Y67860D02*
X118655Y66449D01*
X115710Y69393D02*
X117243Y67860D01*
X115507Y69596D02*
X115710Y69393D01*
X115324Y69596D02*
X115507D01*
X64077Y54968D02*
X65216Y53829D01*
Y44782D02*
Y53829D01*
X126376Y69933D02*
X127559Y68750D01*
X64077Y54968D02*
Y55661D01*
X119099Y72197D02*
Y72486D01*
X121752Y71314D02*
Y78199D01*
X119887Y47983D02*
X120637D01*
X123294Y50640D01*
X126116D01*
X126509Y50246D02*
X129429D01*
X126116Y50640D02*
X126509Y50246D01*
X124705Y47490D02*
Y48671D01*
X121161Y43947D02*
X124705Y47490D01*
X116210Y50049D02*
X120994Y54833D01*
X126868Y63929D02*
X128215Y62582D01*
X119788Y63929D02*
X126868D01*
X119390Y57727D02*
X121063D01*
X119690Y68949D02*
X120671D01*
X120726Y66449D02*
X121452Y67175D01*
X118655Y66449D02*
X120726D01*
X120671Y70233D02*
X121752Y71314D01*
X121452Y67175D02*
X124705D01*
X118898Y72688D02*
X119099Y72486D01*
X116952Y61007D02*
X124705D01*
X121063Y57727D02*
X121982Y56808D01*
X105187Y53233D02*
X105187Y53233D01*
X106958Y53967D02*
Y62431D01*
Y53967D02*
X106958Y53967D01*
X86811Y109104D02*
X88779Y107136D01*
X82480Y109104D02*
X86811D01*
X69587Y84862D02*
Y86664D01*
X59449Y86467D02*
X61614Y84301D01*
X65059D01*
X65650Y84892D01*
Y86664D01*
X55413Y86467D02*
X55610Y86664D01*
X63681D01*
X63583Y105758D02*
X63681Y105659D01*
Y97884D02*
Y105659D01*
X76476Y49949D02*
X76578Y50050D01*
X127690Y56414D02*
X129429D01*
X127297Y56808D02*
X127690Y56414D01*
X121982Y56808D02*
X127297D01*
X127559Y68750D02*
X129429D01*
X119039Y72830D02*
Y76034D01*
X118602Y76471D02*
Y78199D01*
Y76471D02*
X119039Y76034D01*
X118898Y72688D02*
X119039Y72830D01*
X120994Y54833D02*
X124698D01*
X124705Y54839D01*
X120079Y83022D02*
X120177Y82923D01*
X120079Y83022D02*
Y85187D01*
X115650Y89616D02*
X120079Y85187D01*
X110138Y89616D02*
X110454Y89299D01*
Y84612D02*
Y89299D01*
X115324Y49163D02*
X116210Y50049D01*
X109813Y49163D02*
X110343D01*
X115791Y79916D02*
Y84612D01*
X128150Y38534D02*
X129429Y39813D01*
X128215Y62582D02*
X129429D01*
X109813Y69596D02*
X110169D01*
X113702Y73131D01*
Y73486D01*
X114828Y74612D01*
X115791D01*
X110169Y59380D02*
X115401Y64612D01*
X109813Y59380D02*
X110169D01*
X115401Y64612D02*
X115791D01*
X109139D02*
X110454D01*
X106958Y62431D02*
X109139Y64612D01*
X115617Y54612D02*
X115791D01*
X112470Y51465D02*
X115617Y54612D01*
X112470Y51291D02*
Y51465D01*
X115324Y59380D02*
X116952Y61007D01*
X99157Y110730D02*
Y110778D01*
X94530Y102650D02*
X96614Y104734D01*
X96651D01*
X98315Y106398D01*
X92758Y103402D02*
X95862Y106506D01*
X95917D01*
X40257Y62748D02*
X40863Y62142D01*
X40863D01*
X24114Y64803D02*
Y65274D01*
X32138Y72551D02*
X32353Y72766D01*
X24114Y65274D02*
X31392Y72551D01*
X32138D01*
X24114Y74803D02*
X28603D01*
Y76087D02*
X30068Y77551D01*
X32522D01*
X34351Y79381D01*
Y79382D01*
X41952Y72766D02*
X45572Y69146D01*
X32353Y72766D02*
X41952D01*
X61529Y65405D02*
X61813D01*
X41368Y62648D02*
X58771D01*
X61529Y65405D01*
X64424Y77313D02*
X69888D01*
X51870Y86467D02*
X55413D01*
X69888Y77313D02*
X74809Y72392D01*
X61961Y79284D02*
X62453D01*
X64424Y77313D01*
X48720Y83317D02*
X51870Y86467D01*
X46811Y80817D02*
X49756D01*
X51961Y83022D01*
X46260Y80266D02*
X46811Y80817D01*
X65216Y44782D02*
X76090Y33908D01*
X97342D01*
X98524Y35089D01*
X107971Y76723D02*
Y77607D01*
X109843Y79478D01*
X114173Y100443D02*
X115847Y98770D01*
X105807Y100443D02*
X114173D01*
X97693Y109266D02*
X99157Y110730D01*
X95917Y106506D02*
X97382Y107970D01*
Y109094D01*
X97554Y109266D01*
X97693D01*
X65256Y60975D02*
Y73868D01*
X62924Y58643D02*
X65256Y60975D01*
X62236Y58643D02*
Y59548D01*
Y58643D02*
X62924D01*
X98315Y106398D02*
X100295D01*
X105807Y110778D02*
X109843D01*
X116954Y100935D02*
X121331D01*
X40863Y62142D02*
X41368Y62648D01*
X67618Y97884D02*
Y99656D01*
Y101724D01*
X75689Y86664D02*
X76181Y86171D01*
X71555Y86664D02*
X75689D01*
X55413Y86467D02*
X57284D01*
X51961Y83022D02*
X58223D01*
X61961Y79284D01*
X60187Y76477D02*
X62648D01*
X65256Y73868D01*
X56791Y79872D02*
X60187Y76477D01*
X105488Y40699D02*
X105713Y40924D01*
X105217Y40699D02*
X105488D01*
X105187Y45090D02*
Y46287D01*
X105187Y46287D01*
X120671Y68949D02*
Y70233D01*
X108336Y45423D02*
X110797D01*
X115324Y43947D02*
X121161D01*
X110343Y49163D02*
X112470Y51291D01*
X99157Y110778D02*
X100295D01*
X76673Y109167D02*
X80476Y105364D01*
X82480D01*
X67618Y101724D02*
X67817Y101923D01*
X90199Y72392D02*
X94390Y76583D01*
X74809Y72392D02*
X90199D01*
X94390Y76583D02*
X96851D01*
X98527Y74907D01*
Y72363D02*
Y74907D01*
X106958Y46801D02*
X108336Y45423D01*
X106958Y46801D02*
Y53967D01*
X105187Y46287D02*
Y53233D01*
X105187Y53233D02*
Y63165D01*
X106958Y64937D01*
Y75709D01*
X107971Y76723D01*
X96024Y69860D02*
X98527Y72363D01*
X96024Y55561D02*
Y69860D01*
X93012Y52549D02*
X96024Y55561D01*
X93012Y47929D02*
Y52549D01*
X69098Y101135D02*
X75197D01*
X67618Y99656D02*
X69098Y101135D01*
X67618Y82136D02*
Y86664D01*
X31103Y75051D02*
X39273D01*
X92031Y40798D02*
Y46948D01*
X93012Y47929D01*
X28603Y74803D02*
Y76087D01*
X76476Y49949D02*
X76676Y49749D01*
X83366Y99557D02*
X88779Y104971D01*
X129429Y39813D02*
Y47096D01*
D33*
X28445Y49460D02*
X30528Y51542D01*
Y52502D01*
X67716Y45817D02*
Y73277D01*
X68802Y74362D01*
X27953Y94898D02*
Y111467D01*
X61221Y68750D02*
X62598D01*
X27953Y94898D02*
X45184Y77667D01*
X52303D01*
X61221Y68750D01*
X65650Y114026D02*
X70866D01*
X72047Y112845D01*
X67716Y45817D02*
X76378Y37156D01*
X85731D01*
X87307Y38731D02*
Y41093D01*
X85731Y37156D02*
X87307Y38731D01*
D34*
X103051Y97786D02*
X103150D01*
X103051Y100569D02*
Y107915D01*
X103150Y97786D02*
X107087Y93849D01*
X103051Y97786D02*
Y100512D01*
X101939Y52373D02*
Y64510D01*
X103710Y77940D02*
X104666Y78896D01*
X104666D01*
X105512Y79741D01*
Y93098D01*
X107087Y81278D02*
X107087Y81278D01*
X107087Y79089D02*
Y81278D01*
X107087Y81278D02*
Y93849D01*
X100295Y98314D02*
X105512Y93098D01*
X100295Y98314D02*
Y100443D01*
X105285Y77287D02*
X107087Y79089D01*
X98721Y43062D02*
X103513Y47854D01*
X97248Y43062D02*
X98721D01*
X99449Y49883D02*
X101939Y52373D01*
X103513Y47854D02*
Y63858D01*
X105285Y65630D01*
Y77287D01*
X101939Y64510D02*
X103710Y66282D01*
Y77940D01*
D35*
X77658Y91093D02*
Y94931D01*
Y91093D02*
X79823Y88927D01*
X80118Y89223D01*
X126795Y86482D02*
X130028Y89715D01*
X130413D01*
X30528Y57841D02*
X30610Y57923D01*
X30528Y52502D02*
Y57841D01*
X30610Y57923D02*
Y67175D01*
X76673Y109167D02*
Y110581D01*
X76319Y108813D02*
X76673Y109167D01*
Y110581D02*
X78937Y112845D01*
X82480D01*
X63583Y105758D02*
X66638Y108813D01*
X69195D01*
X130413Y89715D02*
Y97786D01*
X130610Y97982D01*
X128839Y96211D02*
X130413Y97786D01*
X121331Y96211D02*
X128839D01*
X128642Y91486D02*
X130413Y89715D01*
X122709Y91486D02*
X128642D01*
X122512Y111171D02*
X128642D01*
X82480Y112845D02*
X85630D01*
X86122Y113337D01*
X73508Y70325D02*
X92266D01*
X69195Y108813D02*
X76319D01*
X80118Y89223D02*
X90158D01*
X92266Y70325D02*
X95669Y73728D01*
X68883Y74951D02*
X73508Y70325D01*
X68799Y74951D02*
X68883D01*
X126795Y85490D02*
Y86482D01*
X130413Y104380D02*
Y112943D01*
Y97786D02*
Y104380D01*
X128642Y111171D02*
X130413Y112943D01*
X49902Y211614D02*
G03*
X43517Y208970I0J-9029D01*
G01*
X40157Y198945D02*
G03*
X42123Y194196I6721J0D01*
G01*
X63460Y221827D02*
G03*
X60599Y215914I7071J-7071D01*
G01*
D02*
G03*
X60532Y214756I9933J-1158D01*
G01*
X53567Y168775D02*
G03*
X60638Y165847I7071J7071D01*
G01*
X90059Y168110D02*
G03*
X84594Y170374I-5465J-5465D01*
G01*
X80520D02*
G03*
X78665Y170201I0J-10000D01*
G01*
D02*
G03*
X73449Y167445I1855J-9826D01*
G01*
X47745Y219685D02*
G03*
X45889Y219512I0J-10000D01*
G01*
D02*
G03*
X40673Y216756I1855J-9826D01*
G01*
X75984Y177794D02*
G03*
X76083Y176870I4369J0D01*
G01*
D02*
G03*
X77264Y174705I4270J924D01*
G01*
X87008Y204066D02*
G03*
X87795Y202165I2688J0D01*
G01*
X90847Y194972D02*
G03*
X87918Y202043I-10000J0D01*
G01*
X70635Y212894D02*
G03*
X69685Y212500I0J-1344D01*
G01*
X42123Y194196D02*
G03*
X42126Y194193I4755J4749D01*
G01*
X87205Y175197D02*
G03*
X92832Y177528I0J7958D01*
G01*
X40157Y205610D02*
X43517Y208970D01*
X40157Y198945D02*
Y205610D01*
X63460Y221827D02*
X72835Y231201D01*
X60532Y211614D02*
Y214756D01*
X43996Y186909D02*
X49902Y192815D01*
X60532Y182234D02*
Y192028D01*
X49902Y172441D02*
X53567Y168775D01*
X60638Y165847D02*
X62205D01*
X80520Y170374D02*
X84594D01*
X70079Y164075D02*
X73449Y167445D01*
X47745Y219685D02*
X50886D01*
X40157Y216240D02*
X40673Y216756D01*
X75984Y177794D02*
Y184154D01*
X70079Y174705D02*
Y181595D01*
Y174705D02*
X77264D01*
X87795Y202165D02*
X87918Y202043D01*
X87008Y204066D02*
Y212894D01*
X90847Y193996D02*
Y194972D01*
X70635Y212894D02*
X77008D01*
X68405Y192126D02*
X69685Y193405D01*
Y201870D01*
X69980Y202165D01*
X78347D01*
X83169Y193602D02*
X83858Y194291D01*
X75984Y193602D02*
X83169D01*
X83858Y194291D02*
X84153Y193996D01*
X90847D01*
X98148Y190668D02*
X101476Y193996D01*
X98148Y182844D02*
Y190668D01*
X97527Y183465D02*
X98148Y182844D01*
X70079Y164075D02*
Y165256D01*
X62894Y172441D02*
X70079Y165256D01*
X60532Y172441D02*
X62894D01*
X49902D02*
Y182234D01*
X60532Y192028D02*
X61319Y192815D01*
X43996Y183071D02*
Y186909D01*
X49902Y192815D02*
Y201821D01*
X60532D02*
Y211614D01*
X92832Y177528D02*
X98148Y182844D01*
X83858Y183465D02*
X97527D01*
X394857Y185177D02*
X399286Y189606D01*
X394857Y172833D02*
X394955Y172735D01*
X394857Y172833D02*
Y185177D01*
X414149Y183366D02*
X416019Y181496D01*
X411393Y183366D02*
X414149D01*
X404306Y187402D02*
Y191929D01*
X405881Y183366D02*
Y185827D01*
X404306Y187402D02*
X405881Y185827D01*
X389286Y189606D02*
X389854D01*
X394933Y194685D01*
X401550D01*
X404306Y191929D01*
X416019Y181496D02*
X419464Y178051D01*
Y176870D02*
Y178051D01*
X383243Y194783D02*
X391412D01*
X379208Y190748D02*
X383243Y194783D01*
X396235Y199606D02*
X399286D01*
X391412Y194783D02*
X396235Y199606D01*
X373026Y221405D02*
X376951Y225329D01*
X409916Y188976D02*
X416019D01*
X409286Y189606D02*
X409916Y188976D01*
X415723Y200197D02*
Y211457D01*
X414286Y212894D02*
X415723Y211457D01*
X420054Y193307D02*
X424877Y188484D01*
Y185236D02*
Y188484D01*
X427534Y193307D02*
Y195866D01*
X419365Y193307D02*
X426255Y200197D01*
X427534D01*
X415723Y193307D02*
X419365D01*
X420054D01*
X409286Y189606D02*
X411983Y192303D01*
Y194807D01*
X413338Y196161D01*
X416928D01*
X424188Y203422D01*
Y212795D01*
X424286Y212894D01*
X373026Y213091D02*
Y221405D01*
X416511Y188976D02*
X418775Y186713D01*
X416019Y188976D02*
X416511D01*
X156028Y201181D02*
X176993D01*
X205426D02*
X210574Y206329D01*
X176993Y201181D02*
X186393D01*
X195792D01*
X205426D01*
X176993Y190551D02*
X186393D01*
X195792D01*
Y185039D02*
Y190551D01*
X155635Y200787D02*
X156028Y201181D01*
X155635Y190157D02*
X165477D01*
X165674Y190354D01*
X155635Y167381D02*
Y190157D01*
X152098Y163844D02*
X155635Y167381D01*
X183130Y225329D02*
X196770D01*
X176009Y218209D02*
X183130Y225329D01*
X176009Y212795D02*
Y218209D01*
X154749Y212795D02*
X165379D01*
X146678Y204724D02*
X154749Y212795D01*
X146678Y194783D02*
Y204724D01*
Y194783D02*
X151304Y190157D01*
X155635D01*
D36*
X102031Y76402D02*
X102037Y76408D01*
X84058Y40404D02*
X84649Y39814D01*
X102031Y70387D02*
Y76402D01*
D37*
X24114Y84803D02*
X34341D01*
X43701Y75443D01*
X72047Y105364D02*
X76318D01*
X82125Y99557D02*
X83366D01*
X76318Y105364D02*
X82125Y99557D01*
D38*
X70079Y174705D02*
D03*
Y164075D02*
D03*
X40157Y205610D02*
D03*
Y216240D02*
D03*
X83858Y194291D02*
D03*
Y183661D02*
D03*
X69685Y212500D02*
D03*
Y201870D02*
D03*
X68405Y192126D02*
D03*
Y181496D02*
D03*
X50492Y220079D02*
D03*
Y230709D02*
D03*
X195792Y201181D02*
D03*
Y190551D02*
D03*
X155635Y190157D02*
D03*
Y200787D02*
D03*
X176993Y201181D02*
D03*
Y190551D02*
D03*
X186393Y201181D02*
D03*
Y190551D02*
D03*
X165674Y190354D02*
D03*
Y200984D02*
D03*
D39*
X77756Y175197D02*
D03*
X87205D02*
D03*
X78347Y202165D02*
D03*
X87795D02*
D03*
D40*
X75984Y193602D02*
D03*
Y184154D02*
D03*
D41*
X60532Y211614D02*
D03*
X49902D02*
D03*
X60532Y172441D02*
D03*
X49902D02*
D03*
Y182234D02*
D03*
X60532D02*
D03*
Y192028D02*
D03*
X49902D02*
D03*
Y201821D02*
D03*
X60532D02*
D03*
X90847Y193996D02*
D03*
X101476D02*
D03*
X176009Y212795D02*
D03*
X165379D02*
D03*
D45*
X263090Y73228D02*
D03*
X263189Y70079D02*
D03*
X263090Y67027D02*
D03*
X162500Y67126D02*
D03*
X162402Y70276D02*
D03*
X162500Y73327D02*
D03*
X215945Y120472D02*
D03*
X212894Y120571D02*
D03*
X209744Y120472D02*
D03*
X16929Y75689D02*
D03*
Y79626D02*
D03*
X135630Y70669D02*
D03*
Y74705D02*
D03*
X135728Y78150D02*
D03*
X75984Y29921D02*
D03*
X79724D02*
D03*
X72244Y30020D02*
D03*
X79528Y119783D02*
D03*
X75689D02*
D03*
X72047D02*
D03*
X64961Y150492D02*
D03*
X62303Y150394D02*
D03*
X59153Y150492D02*
D03*
X106102Y197539D02*
D03*
X106201Y194882D02*
D03*
X106102Y191732D02*
D03*
X17913Y191634D02*
D03*
X17815Y194291D02*
D03*
X17913Y197441D02*
D03*
X64862Y238681D02*
D03*
X61713Y238779D02*
D03*
X59055Y238681D02*
D03*
X171457Y238583D02*
D03*
X174114Y238681D02*
D03*
X177264Y238583D02*
D03*
X130315Y197343D02*
D03*
X130217Y194193D02*
D03*
X130315Y191535D02*
D03*
X218504Y191634D02*
D03*
X218602Y194783D02*
D03*
X218504Y197441D02*
D03*
X171555Y150394D02*
D03*
X174705Y150295D02*
D03*
X177362Y150394D02*
D03*
X283957Y238583D02*
D03*
X286614Y238681D02*
D03*
X289764Y238583D02*
D03*
X242815Y197343D02*
D03*
X242717Y194193D02*
D03*
X242815Y191535D02*
D03*
X331004Y191634D02*
D03*
X331102Y194783D02*
D03*
X331004Y197441D02*
D03*
X284055Y150394D02*
D03*
X287205Y150295D02*
D03*
X289862Y150394D02*
D03*
X396358Y238681D02*
D03*
X399016Y238779D02*
D03*
X402165Y238681D02*
D03*
X355217Y197441D02*
D03*
X355118Y194291D02*
D03*
X355217Y191634D02*
D03*
X443405Y191732D02*
D03*
X443504Y194882D02*
D03*
X443405Y197539D02*
D03*
X396457Y150492D02*
D03*
X399606Y150394D02*
D03*
X402264Y150492D02*
D03*
X508760Y238681D02*
D03*
X511417Y238779D02*
D03*
X514567Y238681D02*
D03*
X467618Y197441D02*
D03*
X467520Y194291D02*
D03*
X467618Y191634D02*
D03*
X555807Y191732D02*
D03*
X555905Y194882D02*
D03*
X555807Y197539D02*
D03*
X508858Y150492D02*
D03*
X512008Y150394D02*
D03*
X514665Y150492D02*
D03*
X331594Y118602D02*
D03*
X334252Y118701D02*
D03*
X337402Y118602D02*
D03*
X290453Y77362D02*
D03*
X290354Y74213D02*
D03*
X290453Y71555D02*
D03*
X378642Y71653D02*
D03*
X378740Y74803D02*
D03*
X378642Y77461D02*
D03*
X331693Y30413D02*
D03*
X334842Y30315D02*
D03*
X337500Y30413D02*
D03*
X215846Y19882D02*
D03*
X212697Y19783D02*
D03*
X209646Y19882D02*
D03*
X16831Y71850D02*
D03*
D46*
X264524Y225329D02*
D03*
X250720Y206329D02*
D03*
Y182844D02*
D03*
X264524Y163844D02*
D03*
X286860Y156587D02*
D03*
X309196Y163844D02*
D03*
X323000Y182844D02*
D03*
Y206329D02*
D03*
X309196Y225329D02*
D03*
X286860Y232587D02*
D03*
X62008D02*
D03*
X84344Y225329D02*
D03*
X98148Y206329D02*
D03*
Y182844D02*
D03*
X84344Y163844D02*
D03*
X62008Y156587D02*
D03*
X39672Y163844D02*
D03*
X25868Y182844D02*
D03*
Y206329D02*
D03*
X39672Y225329D02*
D03*
X77008Y212894D02*
D03*
X414286D02*
D03*
X421622Y163844D02*
D03*
X376951Y225329D02*
D03*
X489377D02*
D03*
X475572Y206329D02*
D03*
Y182844D02*
D03*
X489377Y163844D02*
D03*
X511713Y156587D02*
D03*
X534048Y163844D02*
D03*
X547853Y182844D02*
D03*
Y206329D02*
D03*
X534048Y225329D02*
D03*
X511713Y232587D02*
D03*
X189434Y212894D02*
D03*
X174434Y232587D02*
D03*
X196770Y225329D02*
D03*
X210574Y206329D02*
D03*
Y182844D02*
D03*
X196770Y163844D02*
D03*
X174434Y156587D02*
D03*
X152098Y163844D02*
D03*
X138294Y182844D02*
D03*
Y206329D02*
D03*
X152098Y225329D02*
D03*
X312211Y105251D02*
D03*
X298407Y86251D02*
D03*
Y62765D02*
D03*
X312211Y43765D02*
D03*
X334547Y36508D02*
D03*
X356883Y43765D02*
D03*
X370687Y62765D02*
D03*
Y86251D02*
D03*
X356883Y105251D02*
D03*
X334547Y112508D02*
D03*
D47*
X301860Y212894D02*
D03*
X409286Y199606D02*
D03*
Y189606D02*
D03*
X399286Y199606D02*
D03*
Y189606D02*
D03*
X389286Y199606D02*
D03*
X526713Y212894D02*
D03*
D48*
X75886Y78888D02*
D03*
X61713Y72392D02*
D03*
X28445Y49460D02*
D03*
X34351Y79382D02*
D03*
X45572Y69146D02*
D03*
D49*
X89075Y99852D02*
D03*
X83366Y99557D02*
D03*
D50*
X110454Y94612D02*
D03*
Y84612D02*
D03*
Y74612D02*
D03*
Y64612D02*
D03*
Y54612D02*
D03*
X115791D02*
D03*
Y94612D02*
D03*
Y64612D02*
D03*
Y84612D02*
D03*
Y74612D02*
D03*
X31497Y68063D02*
D03*
X61811Y184252D02*
D03*
X90059Y168110D02*
D03*
X62205Y165847D02*
D03*
X43996Y183071D02*
D03*
X42126Y194193D02*
D03*
X72835Y231201D02*
D03*
X50886Y219685D02*
D03*
X51673Y230709D02*
D03*
X394955Y172735D02*
D03*
X379208Y190748D02*
D03*
X427534Y195866D02*
D03*
X418775Y186713D02*
D03*
X393282Y212304D02*
D03*
X195792Y185039D02*
D03*
X233189Y107677D02*
D03*
X192245D02*
D03*
X209863Y113386D02*
D03*
X217048Y113484D02*
D03*
D51*
X115256Y34104D02*
D03*
X117483Y106447D02*
D03*
X88684Y92966D02*
D03*
X76676Y40798D02*
D03*
X86910Y95817D02*
D03*
X124907Y69933D02*
D03*
X38287Y93553D02*
D03*
X47638Y65601D02*
D03*
X129831Y111163D02*
D03*
X89075Y52412D02*
D03*
X75295Y65404D02*
D03*
X90453Y66191D02*
D03*
X131791Y54282D02*
D03*
X131988Y48376D02*
D03*
X130807Y41978D02*
D03*
X67618Y35089D02*
D03*
X60827Y50246D02*
D03*
X38091Y49360D02*
D03*
X59252Y38927D02*
D03*
X28248Y35285D02*
D03*
X45669Y48081D02*
D03*
X51279Y54380D02*
D03*
X50787Y45030D02*
D03*
X35531Y54085D02*
D03*
X64077Y55661D02*
D03*
X128937Y75640D02*
D03*
X119099Y72197D02*
D03*
X119887Y47983D02*
D03*
X119390Y57727D02*
D03*
X119690Y68949D02*
D03*
X119788Y63929D02*
D03*
X27953Y111467D02*
D03*
X67716Y45817D02*
D03*
X50984Y104971D02*
D03*
X36909Y110285D02*
D03*
X76578Y50050D02*
D03*
X129626Y115994D02*
D03*
X131299Y86664D02*
D03*
X131890Y34104D02*
D03*
X120472Y34006D02*
D03*
X110531D02*
D03*
X103051Y107915D02*
D03*
X40257Y62748D02*
D03*
X39273Y75347D02*
D03*
X31103Y75051D02*
D03*
X28169Y43436D02*
D03*
X62598Y68750D02*
D03*
X61813Y65405D02*
D03*
X48720Y83317D02*
D03*
X46260Y80266D02*
D03*
X43504Y65502D02*
D03*
X98524Y35089D02*
D03*
X84058Y40404D02*
D03*
X102854Y34793D02*
D03*
X119685Y109793D02*
D03*
X62236Y58643D02*
D03*
X76181Y86171D02*
D03*
X105217Y40699D02*
D03*
X75197Y101040D02*
D03*
X67817Y101923D02*
D03*
X97248Y43062D02*
D03*
X99449Y49883D02*
D03*
X92031Y40798D02*
D03*
D52*
X40748Y116289D02*
D03*
X53051Y116191D02*
D03*
X20669Y116093D02*
D03*
X127091Y86080D02*
D03*
X131791Y72195D02*
D03*
X90158Y116388D02*
D03*
X86319Y103691D02*
D03*
X372810Y185827D02*
D03*
Y193405D02*
D03*
X404503Y221752D02*
D03*
X415330Y177953D02*
D03*
X432259Y205512D02*
D03*
Y196457D02*
D03*
X431865Y188287D02*
D03*
Y181988D02*
D03*
X429109Y178740D02*
D03*
X398401Y181595D02*
D03*
X409129Y168405D02*
D03*
X389050Y173327D02*
D03*
X413952Y171850D02*
D03*
X417987Y171063D02*
D03*
X422515D02*
D03*
X427534Y170768D02*
D03*
X431570Y170571D02*
D03*
X428223Y166437D02*
D03*
X396235Y154429D02*
D03*
X396334Y158957D02*
D03*
X389542Y155610D02*
D03*
X385408Y156890D02*
D03*
X380487Y158858D02*
D03*
X376649Y161221D02*
D03*
X375271Y165354D02*
D03*
X375369Y169783D02*
D03*
X375467Y173622D02*
D03*
X400943Y211319D02*
D03*
D53*
X69195Y108813D02*
D03*
X86122Y113337D02*
D03*
X68802Y74362D02*
D03*
X95669Y73728D02*
D03*
X65650Y114026D02*
D03*
D54*
X56791Y79872D02*
D03*
X87307Y41093D02*
D03*
D55*
X87008Y212894D02*
D03*
X424286D02*
D03*
X199434D02*
D03*
D56*
X334646Y93717D02*
D03*
X320761D02*
D03*
X357112Y67307D02*
D03*
X334646Y50984D02*
D03*
X357112Y81906D02*
D03*
X320761Y55496D02*
D03*
X348530Y93717D02*
D03*
X312180Y67307D02*
D03*
Y81906D02*
D03*
X348530Y55496D02*
D03*
D57*
X67618Y92274D02*
D03*
D58*
X63681Y86664D02*
D03*
X65650D02*
D03*
X67618D02*
D03*
X69587D02*
D03*
X71555D02*
D03*
Y97884D02*
D03*
X69587D02*
D03*
X67618D02*
D03*
X65650D02*
D03*
X63681D02*
D03*
D59*
X52953Y105758D02*
D03*
X63583D02*
D03*
D60*
X55413Y97097D02*
D03*
Y86467D02*
D03*
D61*
X82480Y112845D02*
D03*
Y109104D02*
D03*
Y105364D02*
D03*
X72047D02*
D03*
Y112845D02*
D03*
D62*
X130413Y89715D02*
D03*
Y112943D02*
D03*
D63*
Y104380D02*
D03*
D64*
X130610Y97982D02*
D03*
D65*
X122512Y111171D02*
D03*
D66*
X122709Y91486D02*
D03*
D67*
X121331Y106447D02*
D03*
Y96211D02*
D03*
Y98770D02*
D03*
Y103888D02*
D03*
Y101329D02*
D03*
D68*
X128937Y78888D02*
D03*
D69*
X128150Y38534D02*
D03*
D70*
X52953Y99557D02*
X55413Y97097D01*
X60236Y92274D01*
X67618D01*
X52953Y99557D02*
Y105758D01*
D71*
X96752Y51000D02*
X99764Y54012D01*
Y67068D02*
X101840Y69144D01*
X99764Y54012D02*
Y67068D01*
X101840Y69144D02*
Y70387D01*
X94531Y44159D02*
X96752Y46380D01*
Y51000D01*
D72*
X415723Y200197D02*
D03*
Y193307D02*
D03*
X427534D02*
D03*
Y200197D02*
D03*
D73*
X424877Y185236D02*
D03*
X416019Y188976D02*
D03*
Y181496D02*
D03*
D74*
X373026Y213091D02*
D03*
X395626D02*
D03*
D75*
X182556Y44053D02*
G03*
X183288Y43876I731J1419D01*
G01*
X182556Y44053D02*
G03*
X183288Y43876I731J1419D01*
G01*
X209567D02*
G03*
X210642Y44291I0J1597D01*
G01*
X209567Y43876D02*
G03*
X210642Y44291I0J1597D01*
G01*
X174036Y42421D02*
X190178Y29035D01*
X184315Y33897D02*
Y43876D01*
X186315Y32238D02*
Y43876D01*
X192315Y28539D02*
Y43876D01*
X194315Y28075D02*
Y43876D01*
X188315Y30580D02*
Y43876D01*
X190315Y29004D02*
Y43876D01*
X176315Y40531D02*
Y54899D01*
X169842D02*
X174036Y42421D01*
X174315Y42189D02*
Y54899D01*
X180315Y37214D02*
Y44809D01*
X182315Y35555D02*
Y44206D01*
X178315Y38872D02*
Y44809D01*
X186389Y32177D02*
X239368D01*
X183977Y34177D02*
X242306D01*
X181565Y36177D02*
X245244D01*
X190178Y29035D02*
X212225Y23917D01*
X202490Y26177D02*
X230554D01*
X193875Y28177D02*
X233492D01*
X188801Y30177D02*
X236430D01*
X196315Y27611D02*
Y43876D01*
X179154Y38177D02*
X246851D01*
X176742Y40177D02*
X248086D01*
X174330Y42177D02*
X249320D01*
X202315Y26218D02*
Y43876D01*
X204315Y25754D02*
Y43876D01*
X198315Y27146D02*
Y43876D01*
X200315Y26682D02*
Y43876D01*
X170315Y53491D02*
Y54899D01*
X168068Y60177D02*
X168699D01*
X172315Y47540D02*
Y54899D01*
X176573Y44809D02*
Y51546D01*
X171429Y50177D02*
X176573D01*
X172101Y48177D02*
X176573D01*
X166724Y64177D02*
X168699D01*
X166063Y66142D02*
X168699Y58301D01*
X166315Y65392D02*
Y66142D01*
X166063D02*
X168699D01*
Y58301D02*
Y66142D01*
X168315Y59442D02*
Y66142D01*
X167396Y62177D02*
X168699D01*
X173446Y44177D02*
X182354D01*
X172774Y46177D02*
X176573D01*
Y44809D02*
X181713D01*
X183288Y43876D02*
X209567D01*
X181713Y44291D02*
Y44809D01*
Y44291D02*
X182191D01*
X170757Y52177D02*
X181664D01*
X176573Y51546D02*
X181664D01*
X169842Y54899D02*
X181664D01*
X170085Y54177D02*
X181664D01*
Y51546D02*
Y54899D01*
X181691Y51546D02*
Y54899D01*
X178315Y51546D02*
Y54899D01*
X180315Y51546D02*
Y54899D01*
X210315Y24361D02*
Y44062D01*
X206315Y25289D02*
Y43876D01*
X208315Y24825D02*
Y43876D01*
X212315Y23926D02*
Y44291D01*
X212225Y23917D02*
X229548Y25492D01*
X214315Y24107D02*
Y44809D01*
X211105Y24177D02*
X215083D01*
X216315Y24289D02*
Y44809D01*
X218315Y24471D02*
Y44809D01*
X220315Y24653D02*
Y52559D01*
X222315Y24835D02*
Y52559D01*
X224315Y25016D02*
Y52559D01*
X226315Y25198D02*
Y52559D01*
X228315Y25380D02*
Y52559D01*
X229548Y25492D02*
X245886Y36614D01*
X234315Y28738D02*
Y43482D01*
X236315Y30099D02*
Y43482D01*
X238315Y31461D02*
Y43482D01*
X240315Y32822D02*
Y43482D01*
X242315Y34183D02*
Y43482D01*
X244315Y35545D02*
Y43482D01*
X230315Y26015D02*
Y52559D01*
X232315Y27376D02*
Y52559D01*
X234152Y43482D02*
Y52559D01*
Y43482D02*
X244826D01*
X246315Y37309D02*
Y52559D01*
X245886Y36614D02*
X255729Y52559D01*
X244826Y43482D02*
Y52559D01*
X248315Y40549D02*
Y52559D01*
X210501Y44177D02*
X234152D01*
X210642Y44291D02*
X211536D01*
X212422D01*
Y44809D01*
X219727D01*
X214315Y51546D02*
Y52559D01*
X212422Y51546D02*
X219727D01*
X212422Y51772D02*
Y52559D01*
X216315Y51546D02*
Y52559D01*
X219727Y44809D02*
Y51546D01*
Y46177D02*
X234152D01*
X218315Y51546D02*
Y52559D01*
X219727Y48177D02*
X234152D01*
X244826Y44177D02*
X250555D01*
X244826Y46177D02*
X251789D01*
X244826Y48177D02*
X253024D01*
X244826Y50177D02*
X254258D01*
X212422Y52177D02*
X234152D01*
X219727Y50177D02*
X234152D01*
X212422Y52559D02*
X234152D01*
X244826D02*
X255729D01*
X250315Y43789D02*
Y52559D01*
X252315Y47029D02*
Y52559D01*
X254315Y50269D02*
Y52559D01*
X244826Y52177D02*
X255493D01*
D76*
X175906Y76772D02*
D03*
X249626D02*
D03*
D77*
X176004Y61221D02*
D03*
X216556Y61122D02*
D03*
D78*
X214390Y48177D02*
D03*
D79*
X179941D02*
D03*
D80*
X239489Y48819D02*
D03*
D81*
X249626Y74999D02*
Y76772D01*
X175906Y76207D02*
Y76772D01*
X167725Y60873D02*
Y61221D01*
X175906D01*
X176004D02*
X176792D01*
X175906D02*
X176004D01*
X167018Y76207D02*
X175906D01*
Y61221D02*
Y76207D01*
X249626Y74999D02*
X258692D01*
D82*
X169099Y61221D02*
X176004D01*
Y55299D02*
Y61221D01*
X239489Y43882D02*
Y48819D01*
X234552D02*
X239489D01*
X244426D01*
M02*
