G04 Layer_Color=8388736*
%FSLAX25Y25*%
%MOIN*%
G70*
G01*
G75*
%ADD48C,0.03937*%
%ADD55C,0.03150*%
G04:AMPARAMS|DCode=86|XSize=70.87mil|YSize=47.24mil|CornerRadius=12.8mil|HoleSize=0mil|Usage=FLASHONLY|Rotation=180.000|XOffset=0mil|YOffset=0mil|HoleType=Round|Shape=RoundedRectangle|*
%AMROUNDEDRECTD86*
21,1,0.07087,0.02165,0,0,180.0*
21,1,0.04528,0.04724,0,0,180.0*
1,1,0.02559,-0.02264,0.01083*
1,1,0.02559,0.02264,0.01083*
1,1,0.02559,0.02264,-0.01083*
1,1,0.02559,-0.02264,-0.01083*
%
%ADD86ROUNDEDRECTD86*%
%ADD87R,0.03937X0.03543*%
G04:AMPARAMS|DCode=88|XSize=27.56mil|YSize=47.24mil|CornerRadius=7.87mil|HoleSize=0mil|Usage=FLASHONLY|Rotation=90.000|XOffset=0mil|YOffset=0mil|HoleType=Round|Shape=RoundedRectangle|*
%AMROUNDEDRECTD88*
21,1,0.02756,0.03150,0,0,90.0*
21,1,0.01181,0.04724,0,0,90.0*
1,1,0.01575,0.01575,0.00591*
1,1,0.01575,0.01575,-0.00591*
1,1,0.01575,-0.01575,-0.00591*
1,1,0.01575,-0.01575,0.00591*
%
%ADD88ROUNDEDRECTD88*%
G04:AMPARAMS|DCode=89|XSize=39.37mil|YSize=35.43mil|CornerRadius=9.84mil|HoleSize=0mil|Usage=FLASHONLY|Rotation=180.000|XOffset=0mil|YOffset=0mil|HoleType=Round|Shape=RoundedRectangle|*
%AMROUNDEDRECTD89*
21,1,0.03937,0.01575,0,0,180.0*
21,1,0.01969,0.03543,0,0,180.0*
1,1,0.01969,-0.00984,0.00787*
1,1,0.01969,0.00984,0.00787*
1,1,0.01969,0.00984,-0.00787*
1,1,0.01969,-0.00984,-0.00787*
%
%ADD89ROUNDEDRECTD89*%
G04:AMPARAMS|DCode=90|XSize=39.37mil|YSize=35.43mil|CornerRadius=9.84mil|HoleSize=0mil|Usage=FLASHONLY|Rotation=90.000|XOffset=0mil|YOffset=0mil|HoleType=Round|Shape=RoundedRectangle|*
%AMROUNDEDRECTD90*
21,1,0.03937,0.01575,0,0,90.0*
21,1,0.01969,0.03543,0,0,90.0*
1,1,0.01969,0.00787,0.00984*
1,1,0.01969,0.00787,-0.00984*
1,1,0.01969,-0.00787,-0.00984*
1,1,0.01969,-0.00787,0.00984*
%
%ADD90ROUNDEDRECTD90*%
G04:AMPARAMS|DCode=91|XSize=23.62mil|YSize=23.62mil|CornerRadius=6.89mil|HoleSize=0mil|Usage=FLASHONLY|Rotation=180.000|XOffset=0mil|YOffset=0mil|HoleType=Round|Shape=RoundedRectangle|*
%AMROUNDEDRECTD91*
21,1,0.02362,0.00984,0,0,180.0*
21,1,0.00984,0.02362,0,0,180.0*
1,1,0.01378,-0.00492,0.00492*
1,1,0.01378,0.00492,0.00492*
1,1,0.01378,0.00492,-0.00492*
1,1,0.01378,-0.00492,-0.00492*
%
%ADD91ROUNDEDRECTD91*%
G04:AMPARAMS|DCode=92|XSize=70.87mil|YSize=47.24mil|CornerRadius=12.8mil|HoleSize=0mil|Usage=FLASHONLY|Rotation=270.000|XOffset=0mil|YOffset=0mil|HoleType=Round|Shape=RoundedRectangle|*
%AMROUNDEDRECTD92*
21,1,0.07087,0.02165,0,0,270.0*
21,1,0.04528,0.04724,0,0,270.0*
1,1,0.02559,-0.01083,-0.02264*
1,1,0.02559,-0.01083,0.02264*
1,1,0.02559,0.01083,0.02264*
1,1,0.02559,0.01083,-0.02264*
%
%ADD92ROUNDEDRECTD92*%
G04:AMPARAMS|DCode=93|XSize=27.56mil|YSize=47.24mil|CornerRadius=7.87mil|HoleSize=0mil|Usage=FLASHONLY|Rotation=180.000|XOffset=0mil|YOffset=0mil|HoleType=Round|Shape=RoundedRectangle|*
%AMROUNDEDRECTD93*
21,1,0.02756,0.03150,0,0,180.0*
21,1,0.01181,0.04724,0,0,180.0*
1,1,0.01575,-0.00591,0.01575*
1,1,0.01575,0.00591,0.01575*
1,1,0.01575,0.00591,-0.01575*
1,1,0.01575,-0.00591,-0.01575*
%
%ADD93ROUNDEDRECTD93*%
%ADD94R,0.03543X0.03937*%
G04:AMPARAMS|DCode=95|XSize=39.37mil|YSize=39.37mil|CornerRadius=10.83mil|HoleSize=0mil|Usage=FLASHONLY|Rotation=270.000|XOffset=0mil|YOffset=0mil|HoleType=Round|Shape=RoundedRectangle|*
%AMROUNDEDRECTD95*
21,1,0.03937,0.01772,0,0,270.0*
21,1,0.01772,0.03937,0,0,270.0*
1,1,0.02165,-0.00886,-0.00886*
1,1,0.02165,-0.00886,0.00886*
1,1,0.02165,0.00886,0.00886*
1,1,0.02165,0.00886,-0.00886*
%
%ADD95ROUNDEDRECTD95*%
G04:AMPARAMS|DCode=96|XSize=39.37mil|YSize=39.37mil|CornerRadius=10.83mil|HoleSize=0mil|Usage=FLASHONLY|Rotation=0.000|XOffset=0mil|YOffset=0mil|HoleType=Round|Shape=RoundedRectangle|*
%AMROUNDEDRECTD96*
21,1,0.03937,0.01772,0,0,0.0*
21,1,0.01772,0.03937,0,0,0.0*
1,1,0.02165,0.00886,-0.00886*
1,1,0.02165,-0.00886,-0.00886*
1,1,0.02165,-0.00886,0.00886*
1,1,0.02165,0.00886,0.00886*
%
%ADD96ROUNDEDRECTD96*%
G04:AMPARAMS|DCode=97|XSize=23.62mil|YSize=27.56mil|CornerRadius=6.89mil|HoleSize=0mil|Usage=FLASHONLY|Rotation=90.000|XOffset=0mil|YOffset=0mil|HoleType=Round|Shape=RoundedRectangle|*
%AMROUNDEDRECTD97*
21,1,0.02362,0.01378,0,0,90.0*
21,1,0.00984,0.02756,0,0,90.0*
1,1,0.01378,0.00689,0.00492*
1,1,0.01378,0.00689,-0.00492*
1,1,0.01378,-0.00689,-0.00492*
1,1,0.01378,-0.00689,0.00492*
%
%ADD97ROUNDEDRECTD97*%
G04:AMPARAMS|DCode=98|XSize=39.37mil|YSize=31.5mil|CornerRadius=8.86mil|HoleSize=0mil|Usage=FLASHONLY|Rotation=90.000|XOffset=0mil|YOffset=0mil|HoleType=Round|Shape=RoundedRectangle|*
%AMROUNDEDRECTD98*
21,1,0.03937,0.01378,0,0,90.0*
21,1,0.02165,0.03150,0,0,90.0*
1,1,0.01772,0.00689,0.01083*
1,1,0.01772,0.00689,-0.01083*
1,1,0.01772,-0.00689,-0.01083*
1,1,0.01772,-0.00689,0.01083*
%
%ADD98ROUNDEDRECTD98*%
G04:AMPARAMS|DCode=99|XSize=29.53mil|YSize=47.24mil|CornerRadius=8.37mil|HoleSize=0mil|Usage=FLASHONLY|Rotation=90.000|XOffset=0mil|YOffset=0mil|HoleType=Round|Shape=RoundedRectangle|*
%AMROUNDEDRECTD99*
21,1,0.02953,0.03051,0,0,90.0*
21,1,0.01280,0.04724,0,0,90.0*
1,1,0.01673,0.01526,0.00640*
1,1,0.01673,0.01526,-0.00640*
1,1,0.01673,-0.01526,-0.00640*
1,1,0.01673,-0.01526,0.00640*
%
%ADD99ROUNDEDRECTD99*%
G04:AMPARAMS|DCode=100|XSize=48.94mil|YSize=48.94mil|CornerRadius=13.22mil|HoleSize=0mil|Usage=FLASHONLY|Rotation=90.000|XOffset=0mil|YOffset=0mil|HoleType=Round|Shape=RoundedRectangle|*
%AMROUNDEDRECTD100*
21,1,0.04894,0.02250,0,0,90.0*
21,1,0.02250,0.04894,0,0,90.0*
1,1,0.02644,0.01125,0.01125*
1,1,0.02644,0.01125,-0.01125*
1,1,0.02644,-0.01125,-0.01125*
1,1,0.02644,-0.01125,0.01125*
%
%ADD100ROUNDEDRECTD100*%
G04:AMPARAMS|DCode=101|XSize=17.72mil|YSize=25.59mil|CornerRadius=5.41mil|HoleSize=0mil|Usage=FLASHONLY|Rotation=270.000|XOffset=0mil|YOffset=0mil|HoleType=Round|Shape=RoundedRectangle|*
%AMROUNDEDRECTD101*
21,1,0.01772,0.01476,0,0,270.0*
21,1,0.00689,0.02559,0,0,270.0*
1,1,0.01083,-0.00738,-0.00345*
1,1,0.01083,-0.00738,0.00345*
1,1,0.01083,0.00738,0.00345*
1,1,0.01083,0.00738,-0.00345*
%
%ADD101ROUNDEDRECTD101*%
G04:AMPARAMS|DCode=102|XSize=23.62mil|YSize=27.56mil|CornerRadius=6.89mil|HoleSize=0mil|Usage=FLASHONLY|Rotation=0.000|XOffset=0mil|YOffset=0mil|HoleType=Round|Shape=RoundedRectangle|*
%AMROUNDEDRECTD102*
21,1,0.02362,0.01378,0,0,0.0*
21,1,0.00984,0.02756,0,0,0.0*
1,1,0.01378,0.00492,-0.00689*
1,1,0.01378,-0.00492,-0.00689*
1,1,0.01378,-0.00492,0.00689*
1,1,0.01378,0.00492,0.00689*
%
%ADD102ROUNDEDRECTD102*%
%ADD103O,0.01378X0.03740*%
%ADD104O,0.03740X0.01378*%
%ADD105R,0.22441X0.22441*%
G04:AMPARAMS|DCode=106|XSize=39.37mil|YSize=35.43mil|CornerRadius=0mil|HoleSize=0mil|Usage=FLASHONLY|Rotation=90.000|XOffset=0mil|YOffset=0mil|HoleType=Round|Shape=Octagon|*
%AMOCTAGOND106*
4,1,8,0.00886,0.01969,-0.00886,0.01969,-0.01772,0.01083,-0.01772,-0.01083,-0.00886,-0.01969,0.00886,-0.01969,0.01772,-0.01083,0.01772,0.01083,0.00886,0.01969,0.0*
%
%ADD106OCTAGOND106*%

G04:AMPARAMS|DCode=107|XSize=17.72mil|YSize=25.59mil|CornerRadius=5.41mil|HoleSize=0mil|Usage=FLASHONLY|Rotation=180.000|XOffset=0mil|YOffset=0mil|HoleType=Round|Shape=RoundedRectangle|*
%AMROUNDEDRECTD107*
21,1,0.01772,0.01476,0,0,180.0*
21,1,0.00689,0.02559,0,0,180.0*
1,1,0.01083,-0.00345,0.00738*
1,1,0.01083,0.00345,0.00738*
1,1,0.01083,0.00345,-0.00738*
1,1,0.01083,-0.00345,-0.00738*
%
%ADD107ROUNDEDRECTD107*%
G04:AMPARAMS|DCode=108|XSize=17.72mil|YSize=25.59mil|CornerRadius=0mil|HoleSize=0mil|Usage=FLASHONLY|Rotation=180.000|XOffset=0mil|YOffset=0mil|HoleType=Round|Shape=Octagon|*
%AMOCTAGOND108*
4,1,8,0.00443,-0.01280,-0.00443,-0.01280,-0.00886,-0.00837,-0.00886,0.00837,-0.00443,0.01280,0.00443,0.01280,0.00886,0.00837,0.00886,-0.00837,0.00443,-0.01280,0.0*
%
%ADD108OCTAGOND108*%

G04:AMPARAMS|DCode=109|XSize=19.69mil|YSize=78.74mil|CornerRadius=5.91mil|HoleSize=0mil|Usage=FLASHONLY|Rotation=180.000|XOffset=0mil|YOffset=0mil|HoleType=Round|Shape=RoundedRectangle|*
%AMROUNDEDRECTD109*
21,1,0.01969,0.06693,0,0,180.0*
21,1,0.00787,0.07874,0,0,180.0*
1,1,0.01181,-0.00394,0.03347*
1,1,0.01181,0.00394,0.03347*
1,1,0.01181,0.00394,-0.03347*
1,1,0.01181,-0.00394,-0.03347*
%
%ADD109ROUNDEDRECTD109*%
G04:AMPARAMS|DCode=110|XSize=62.99mil|YSize=62.99mil|CornerRadius=16.73mil|HoleSize=0mil|Usage=FLASHONLY|Rotation=180.000|XOffset=0mil|YOffset=0mil|HoleType=Round|Shape=RoundedRectangle|*
%AMROUNDEDRECTD110*
21,1,0.06299,0.02953,0,0,180.0*
21,1,0.02953,0.06299,0,0,180.0*
1,1,0.03347,-0.01476,0.01476*
1,1,0.03347,0.01476,0.01476*
1,1,0.03347,0.01476,-0.01476*
1,1,0.03347,-0.01476,-0.01476*
%
%ADD110ROUNDEDRECTD110*%
G04:AMPARAMS|DCode=111|XSize=102.36mil|YSize=51.18mil|CornerRadius=13.78mil|HoleSize=0mil|Usage=FLASHONLY|Rotation=180.000|XOffset=0mil|YOffset=0mil|HoleType=Round|Shape=RoundedRectangle|*
%AMROUNDEDRECTD111*
21,1,0.10236,0.02362,0,0,180.0*
21,1,0.07480,0.05118,0,0,180.0*
1,1,0.02756,-0.03740,0.01181*
1,1,0.02756,0.03740,0.01181*
1,1,0.02756,0.03740,-0.01181*
1,1,0.02756,-0.03740,-0.01181*
%
%ADD111ROUNDEDRECTD111*%
G04:AMPARAMS|DCode=112|XSize=122.05mil|YSize=82.68mil|CornerRadius=21.65mil|HoleSize=0mil|Usage=FLASHONLY|Rotation=270.000|XOffset=0mil|YOffset=0mil|HoleType=Round|Shape=RoundedRectangle|*
%AMROUNDEDRECTD112*
21,1,0.12205,0.03937,0,0,270.0*
21,1,0.07874,0.08268,0,0,270.0*
1,1,0.04331,-0.01969,-0.03937*
1,1,0.04331,-0.01969,0.03937*
1,1,0.04331,0.01969,0.03937*
1,1,0.04331,0.01969,-0.03937*
%
%ADD112ROUNDEDRECTD112*%
%ADD113R,0.08268X0.12205*%
%ADD114R,0.02559X0.04724*%
%ADD115C,0.10630*%
%ADD116C,0.08661*%
%ADD117C,0.00800*%
%ADD118C,0.08268*%
G04:AMPARAMS|DCode=119|XSize=82.68mil|YSize=82.68mil|CornerRadius=21.65mil|HoleSize=0mil|Usage=FLASHONLY|Rotation=180.000|XOffset=0mil|YOffset=0mil|HoleType=Round|Shape=RoundedRectangle|*
%AMROUNDEDRECTD119*
21,1,0.08268,0.03937,0,0,180.0*
21,1,0.03937,0.08268,0,0,180.0*
1,1,0.04331,-0.01969,0.01969*
1,1,0.04331,0.01969,0.01969*
1,1,0.04331,0.01969,-0.01969*
1,1,0.04331,-0.01969,-0.01969*
%
%ADD119ROUNDEDRECTD119*%
G04:AMPARAMS|DCode=120|XSize=66.93mil|YSize=66.93mil|CornerRadius=18.7mil|HoleSize=0mil|Usage=FLASHONLY|Rotation=180.000|XOffset=0mil|YOffset=0mil|HoleType=Round|Shape=RoundedRectangle|*
%AMROUNDEDRECTD120*
21,1,0.06693,0.02953,0,0,180.0*
21,1,0.02953,0.06693,0,0,180.0*
1,1,0.03740,-0.01476,0.01476*
1,1,0.03740,0.01476,0.01476*
1,1,0.03740,0.01476,-0.01476*
1,1,0.03740,-0.01476,-0.01476*
%
%ADD120ROUNDEDRECTD120*%
%ADD121C,0.06693*%
%ADD122C,0.06299*%
%ADD123C,0.05118*%
%ADD124C,0.04331*%
D48*
X233189Y107677D02*
D03*
X192245D02*
D03*
X209863Y113386D02*
D03*
X217048Y113484D02*
D03*
D55*
X75886Y78888D02*
D03*
X61713Y72392D02*
D03*
D86*
X183194Y192815D02*
D03*
Y203445D02*
D03*
X174483Y192815D02*
D03*
Y203445D02*
D03*
X165773Y192815D02*
D03*
Y203445D02*
D03*
X157062Y192815D02*
D03*
Y203445D02*
D03*
X148351Y192815D02*
D03*
Y203445D02*
D03*
X153863Y174803D02*
D03*
Y185433D02*
D03*
X163607Y174803D02*
D03*
Y185433D02*
D03*
X173351Y174803D02*
D03*
Y185433D02*
D03*
X183096Y174803D02*
D03*
Y185433D02*
D03*
X192151Y192717D02*
D03*
Y203346D02*
D03*
X51772Y192520D02*
D03*
Y203150D02*
D03*
X33563Y209055D02*
D03*
Y219685D02*
D03*
X51083Y157874D02*
D03*
Y168504D02*
D03*
X75984Y180905D02*
D03*
Y170276D02*
D03*
D87*
X371432Y197146D02*
D03*
Y202658D02*
D03*
X379306Y184744D02*
D03*
Y179232D02*
D03*
X404995Y208760D02*
D03*
Y214272D02*
D03*
X400566Y160728D02*
D03*
Y155217D02*
D03*
X62992Y41683D02*
D03*
Y36171D02*
D03*
X51415Y88891D02*
D03*
Y94402D02*
D03*
D88*
X400074Y172441D02*
D03*
Y168701D02*
D03*
Y164961D02*
D03*
X409523D02*
D03*
Y172441D02*
D03*
D89*
X414838Y160531D02*
D03*
Y166043D02*
D03*
X398401Y209646D02*
D03*
Y215158D02*
D03*
X394070Y162599D02*
D03*
Y168110D02*
D03*
X380881Y206693D02*
D03*
Y212205D02*
D03*
X406270Y160825D02*
D03*
Y155313D02*
D03*
X389247Y162599D02*
D03*
Y168110D02*
D03*
X384424D02*
D03*
Y162599D02*
D03*
X99114Y94931D02*
D03*
Y89419D02*
D03*
X39961Y110482D02*
D03*
Y104971D02*
D03*
X45079Y110482D02*
D03*
Y104971D02*
D03*
X33268Y93356D02*
D03*
Y98868D02*
D03*
D90*
X405881Y177559D02*
D03*
X400369D02*
D03*
X422908Y205807D02*
D03*
X417397D02*
D03*
X116732Y79478D02*
D03*
X85138Y78888D02*
D03*
X90650D02*
D03*
X115551Y89912D02*
D03*
X39961Y99459D02*
D03*
X45472D02*
D03*
X39961Y94538D02*
D03*
X45472D02*
D03*
X22736Y98671D02*
D03*
X28248D02*
D03*
X22736Y93553D02*
D03*
X28248D02*
D03*
X45472Y89616D02*
D03*
X39961D02*
D03*
D91*
X380566Y197539D02*
D03*
X377259D02*
D03*
D92*
X417200Y199409D02*
D03*
X427830D02*
D03*
X51968Y210138D02*
D03*
X41339D02*
D03*
X35925Y197047D02*
D03*
X25295D02*
D03*
X41535Y174803D02*
D03*
X30906D02*
D03*
X90256Y201280D02*
D03*
X79626D02*
D03*
D93*
X385999Y207185D02*
D03*
X389739D02*
D03*
X393479D02*
D03*
Y216634D02*
D03*
X385999D02*
D03*
D94*
X381865Y201969D02*
D03*
X376353D02*
D03*
X111221Y79478D02*
D03*
X121441Y112935D02*
D03*
X115929D02*
D03*
X55996Y36262D02*
D03*
X50484D02*
D03*
D95*
X82579Y177461D02*
D03*
X92028D02*
D03*
X92126Y171949D02*
D03*
X82677D02*
D03*
X76279Y163287D02*
D03*
X66831D02*
D03*
X67520Y170571D02*
D03*
X58071D02*
D03*
X89764Y193307D02*
D03*
X80315D02*
D03*
X44291Y182087D02*
D03*
X34843D02*
D03*
X25295Y190354D02*
D03*
X34744D02*
D03*
X50886Y217520D02*
D03*
X41437D02*
D03*
X47441Y223917D02*
D03*
X56890D02*
D03*
X54724Y229921D02*
D03*
X45276D02*
D03*
D96*
X73327Y192520D02*
D03*
Y201969D02*
D03*
X51673Y176280D02*
D03*
Y185728D02*
D03*
X76083Y221752D02*
D03*
Y231201D02*
D03*
X69980Y231102D02*
D03*
Y221654D02*
D03*
X42126Y192717D02*
D03*
Y202165D02*
D03*
X58661Y208465D02*
D03*
Y217913D02*
D03*
D97*
X115472Y102805D02*
D03*
X119764D02*
D03*
X68425Y86171D02*
D03*
X72716D02*
D03*
X89055Y38533D02*
D03*
X84764D02*
D03*
X89153Y35482D02*
D03*
X84862D02*
D03*
D98*
X100787Y113534D02*
D03*
X106693D02*
D03*
D99*
X98819Y108120D02*
D03*
Y104380D02*
D03*
Y100640D02*
D03*
X108268D02*
D03*
Y108120D02*
D03*
X23425Y112156D02*
D03*
Y108415D02*
D03*
Y104675D02*
D03*
X32874D02*
D03*
Y112156D02*
D03*
D100*
X32933Y37156D02*
D03*
X22933D02*
D03*
D101*
X44488Y35482D02*
D03*
Y38632D02*
D03*
X39764Y37057D02*
D03*
X105118Y71211D02*
D03*
Y68061D02*
D03*
X109843Y69636D02*
D03*
X104626Y62549D02*
D03*
Y59400D02*
D03*
X109350Y60975D02*
D03*
D102*
X63976Y46329D02*
D03*
Y50620D02*
D03*
X68602Y77727D02*
D03*
Y82018D02*
D03*
X99606Y78081D02*
D03*
Y73790D02*
D03*
D103*
X71161Y46309D02*
D03*
X73130D02*
D03*
X75098D02*
D03*
X77067D02*
D03*
X79035D02*
D03*
X81004D02*
D03*
X82972D02*
D03*
X84941D02*
D03*
X86909D02*
D03*
X88878D02*
D03*
X90847D02*
D03*
X92815D02*
D03*
Y73868D02*
D03*
X90847D02*
D03*
X88878D02*
D03*
X86909D02*
D03*
X84941D02*
D03*
X82972D02*
D03*
X81004D02*
D03*
X79035D02*
D03*
X77067D02*
D03*
X75098D02*
D03*
X73130D02*
D03*
X71161D02*
D03*
D104*
X95768Y49262D02*
D03*
Y51230D02*
D03*
Y53199D02*
D03*
Y55167D02*
D03*
Y57136D02*
D03*
Y59104D02*
D03*
Y61073D02*
D03*
Y63041D02*
D03*
Y65010D02*
D03*
Y66978D02*
D03*
Y68947D02*
D03*
Y70915D02*
D03*
X68209D02*
D03*
Y68947D02*
D03*
Y66978D02*
D03*
Y65010D02*
D03*
Y63041D02*
D03*
Y61073D02*
D03*
Y59104D02*
D03*
Y57136D02*
D03*
Y55167D02*
D03*
Y53199D02*
D03*
Y51230D02*
D03*
Y49262D02*
D03*
D105*
X81988Y60089D02*
D03*
D106*
X110039Y89912D02*
D03*
D107*
X119783Y82234D02*
D03*
X122933D02*
D03*
X121358Y86959D02*
D03*
X107283Y77510D02*
D03*
X105709Y82234D02*
D03*
D108*
X104134Y77510D02*
D03*
D109*
X81201Y38337D02*
D03*
X76476D02*
D03*
X71752D02*
D03*
D110*
X33169Y67667D02*
D03*
X56791D02*
D03*
X33169Y44045D02*
D03*
X56791D02*
D03*
X389286Y189606D02*
D03*
D111*
X24114Y84803D02*
D03*
Y74803D02*
D03*
Y64803D02*
D03*
D112*
X129134Y37845D02*
D03*
D113*
Y111467D02*
D03*
D114*
X24409Y49104D02*
D03*
X20669Y57805D02*
D03*
X28150Y58002D02*
D03*
D115*
X334646Y93717D02*
D03*
X320761D02*
D03*
X357112Y67307D02*
D03*
X334646Y50984D02*
D03*
X357112Y81906D02*
D03*
X320761Y55496D02*
D03*
X348530Y93717D02*
D03*
X312180Y67307D02*
D03*
Y81906D02*
D03*
X348530Y55496D02*
D03*
D116*
X312211Y105251D02*
D03*
X298407Y86251D02*
D03*
Y62765D02*
D03*
X312211Y43765D02*
D03*
X334547Y36508D02*
D03*
X356883Y43765D02*
D03*
X370687Y62765D02*
D03*
Y86251D02*
D03*
X356883Y105251D02*
D03*
X334547Y112508D02*
D03*
X489377Y225329D02*
D03*
X475572Y206329D02*
D03*
Y182844D02*
D03*
X489377Y163844D02*
D03*
X511713Y156587D02*
D03*
X534048Y163844D02*
D03*
X547853Y182844D02*
D03*
Y206329D02*
D03*
X534048Y225329D02*
D03*
X511713Y232587D02*
D03*
X264524Y225329D02*
D03*
X250720Y206329D02*
D03*
Y182844D02*
D03*
X264524Y163844D02*
D03*
X286860Y156587D02*
D03*
X309196Y163844D02*
D03*
X323000Y182844D02*
D03*
Y206329D02*
D03*
X309196Y225329D02*
D03*
X286860Y232587D02*
D03*
D117*
X199659Y108661D02*
D03*
X227349D02*
D03*
X213504D02*
D03*
X179646Y97835D02*
D03*
X179252Y85630D02*
D03*
X172559Y84744D02*
D03*
X246280Y85335D02*
D03*
X249922Y91240D02*
D03*
X246182Y97047D02*
D03*
X206582Y108661D02*
D03*
X220427D02*
D03*
X253170Y84744D02*
D03*
X175906Y91732D02*
D03*
D118*
X189434Y212894D02*
D03*
X174434Y232587D02*
D03*
X196770Y225329D02*
D03*
X210574Y206329D02*
D03*
Y182844D02*
D03*
X196770Y163844D02*
D03*
X174434Y156587D02*
D03*
X152098Y163844D02*
D03*
X138294Y182844D02*
D03*
Y206329D02*
D03*
X152098Y225329D02*
D03*
X376951D02*
D03*
X421622Y163844D02*
D03*
X414286Y212894D02*
D03*
X62008Y232587D02*
D03*
X84344Y225329D02*
D03*
X98148Y206329D02*
D03*
Y182844D02*
D03*
X84344Y163844D02*
D03*
X62008Y156587D02*
D03*
X39672Y163844D02*
D03*
X25868Y182844D02*
D03*
Y206329D02*
D03*
X39672Y225329D02*
D03*
X77008Y212894D02*
D03*
D119*
X199434D02*
D03*
X424286D02*
D03*
X87008D02*
D03*
D120*
X536713D02*
D03*
X311860D02*
D03*
D121*
X526713D02*
D03*
X301860D02*
D03*
D122*
X389286Y199606D02*
D03*
X399286Y189606D02*
D03*
Y199606D02*
D03*
X409286Y189606D02*
D03*
Y199606D02*
D03*
D123*
X89075Y99852D02*
D03*
X83366Y99557D02*
D03*
D124*
X110454Y94612D02*
D03*
Y84612D02*
D03*
Y74612D02*
D03*
Y64612D02*
D03*
Y54612D02*
D03*
X115791D02*
D03*
Y94612D02*
D03*
Y64612D02*
D03*
Y84612D02*
D03*
Y74612D02*
D03*
M02*
