G04 Layer_Color=16711935*
%FSLAX25Y25*%
%MOIN*%
G70*
G01*
G75*
%ADD64C,0.01000*%
%ADD83C,0.00394*%
%ADD146C,0.00039*%
D64*
X347244Y74606D02*
G03*
X347244Y74606I-12598J0D01*
G01*
D83*
X183288Y104331D02*
X242343D01*
Y72835D02*
Y104331D01*
X183288Y72835D02*
Y104331D01*
Y45472D02*
Y72835D01*
Y45472D02*
X209567D01*
Y72835D01*
X242343D01*
X223445Y61614D02*
X229245Y67316D01*
X223445Y57973D02*
Y61614D01*
Y57973D02*
X226693Y54725D01*
X252087D01*
X255434Y58071D01*
Y61417D01*
X229245Y67316D02*
X249535D01*
X255434Y61417D01*
D146*
X10967Y83365D02*
G03*
X17717Y83465I3326J3355D01*
G01*
Y68209D02*
G03*
X10967Y68109I-3326J-3355D01*
G01*
X68997Y23762D02*
G03*
X68898Y30512I-3355J3326D01*
G01*
X83169D02*
G03*
X83269Y23762I3355J-3326D01*
G01*
X141396Y66339D02*
G03*
X134646Y66240I-3326J-3355D01*
G01*
Y82087D02*
G03*
X141396Y82186I3326J3355D01*
G01*
X83070Y125844D02*
G03*
X83169Y119095I3355J-3326D01*
G01*
X68110D02*
G03*
X68011Y125844I-3355J3326D01*
G01*
X203857Y14470D02*
G03*
X203757Y21220I-3355J3326D01*
G01*
X221833D02*
G03*
X221932Y14470I3355J-3326D01*
G01*
X268502Y61239D02*
G03*
X261752Y61139I-3326J-3355D01*
G01*
Y79215D02*
G03*
X268502Y79314I3326J3355D01*
G01*
X221734Y125884D02*
G03*
X221833Y119134I3355J-3326D01*
G01*
X203757D02*
G03*
X203658Y125884I-3355J3326D01*
G01*
X157088Y79116D02*
G03*
X163838Y79215I3326J3355D01*
G01*
Y61139D02*
G03*
X157088Y61040I-3326J-3355D01*
G01*
X377196Y82028D02*
G03*
X342067Y117157I-42649J-7520D01*
G01*
X291898Y66988D02*
G03*
X327027Y31859I42649J7520D01*
G01*
Y117157D02*
G03*
X291898Y82028I7520J-42649D01*
G01*
X342067Y31859D02*
G03*
X377196Y66988I-7520J42649D01*
G01*
X341968Y123907D02*
G03*
X342067Y117157I3355J-3326D01*
G01*
X327027D02*
G03*
X326928Y123907I-3355J3326D01*
G01*
X285148Y81929D02*
G03*
X291898Y82028I3326J3355D01*
G01*
Y66988D02*
G03*
X285148Y66888I-3326J-3355D01*
G01*
X327126Y25109D02*
G03*
X327027Y31859I-3355J3326D01*
G01*
X342067D02*
G03*
X342167Y25109I3355J-3326D01*
G01*
X383946Y67087D02*
G03*
X377196Y66988I-3326J-3355D01*
G01*
Y82028D02*
G03*
X383946Y82127I3326J3355D01*
G01*
X554362Y202107D02*
G03*
X519233Y237236I-42649J-7520D01*
G01*
X469063Y187066D02*
G03*
X504192Y151937I42649J7520D01*
G01*
Y237236D02*
G03*
X469063Y202107I7520J-42649D01*
G01*
X519233Y151937D02*
G03*
X554362Y187066I-7520J42649D01*
G01*
X519134Y243986D02*
G03*
X519233Y237236I3355J-3326D01*
G01*
X504192D02*
G03*
X504093Y243986I-3355J3326D01*
G01*
X462314Y202008D02*
G03*
X469063Y202107I3326J3355D01*
G01*
Y187066D02*
G03*
X462314Y186967I-3326J-3355D01*
G01*
X504292Y145187D02*
G03*
X504192Y151937I-3355J3326D01*
G01*
X519233D02*
G03*
X519332Y145187I3355J-3326D01*
G01*
X561112Y187166D02*
G03*
X554362Y187066I-3326J-3355D01*
G01*
Y202107D02*
G03*
X561112Y202206I3326J3355D01*
G01*
X441960Y202107D02*
G03*
X406831Y237236I-42649J-7520D01*
G01*
X356662Y187066D02*
G03*
X391791Y151937I42649J7520D01*
G01*
Y237236D02*
G03*
X356662Y202107I7520J-42649D01*
G01*
X406831Y151937D02*
G03*
X441960Y187066I-7520J42649D01*
G01*
X406732Y243986D02*
G03*
X406831Y237236I3355J-3326D01*
G01*
X391791D02*
G03*
X391692Y243986I-3355J3326D01*
G01*
X349912Y202008D02*
G03*
X356662Y202107I3326J3355D01*
G01*
Y187066D02*
G03*
X349912Y186967I-3326J-3355D01*
G01*
X391890Y145187D02*
G03*
X391791Y151937I-3355J3326D01*
G01*
X406831D02*
G03*
X406930Y145187I3355J-3326D01*
G01*
X448710Y187166D02*
G03*
X441960Y187066I-3326J-3355D01*
G01*
Y202107D02*
G03*
X448710Y202206I3326J3355D01*
G01*
X329559Y202008D02*
G03*
X294430Y237137I-42649J-7520D01*
G01*
X244260Y186968D02*
G03*
X279389Y151839I42649J7520D01*
G01*
Y237137D02*
G03*
X244260Y202008I7520J-42649D01*
G01*
X294430Y151839D02*
G03*
X329559Y186968I-7520J42649D01*
G01*
X294330Y243887D02*
G03*
X294430Y237137I3355J-3326D01*
G01*
X279389D02*
G03*
X279290Y243887I-3355J3326D01*
G01*
X237510Y201909D02*
G03*
X244260Y202008I3326J3355D01*
G01*
Y186968D02*
G03*
X237510Y186869I-3326J-3355D01*
G01*
X279488Y145089D02*
G03*
X279389Y151839I-3355J3326D01*
G01*
X294430D02*
G03*
X294529Y145089I3355J-3326D01*
G01*
X336309Y187067D02*
G03*
X329559Y186968I-3326J-3355D01*
G01*
Y202008D02*
G03*
X336309Y202108I3326J3355D01*
G01*
X217059Y202008D02*
G03*
X181930Y237137I-42649J-7520D01*
G01*
X131760Y186968D02*
G03*
X166889Y151839I42649J7520D01*
G01*
Y237137D02*
G03*
X131760Y202008I7520J-42649D01*
G01*
X181930Y151839D02*
G03*
X217059Y186968I-7520J42649D01*
G01*
X181830Y243887D02*
G03*
X181930Y237137I3355J-3326D01*
G01*
X166889D02*
G03*
X166790Y243887I-3355J3326D01*
G01*
X125010Y201909D02*
G03*
X131760Y202008I3326J3355D01*
G01*
Y186968D02*
G03*
X125010Y186869I-3326J-3355D01*
G01*
X166989Y145089D02*
G03*
X166889Y151839I-3355J3326D01*
G01*
X181930D02*
G03*
X182029Y145089I3355J-3326D01*
G01*
X223809Y187067D02*
G03*
X217059Y186968I-3326J-3355D01*
G01*
Y202008D02*
G03*
X223809Y202108I3326J3355D01*
G01*
X104657Y202107D02*
G03*
X111407Y202206I3326J3355D01*
G01*
Y187166D02*
G03*
X104657Y187066I-3326J-3355D01*
G01*
X69528Y151937D02*
G03*
X69627Y145187I3355J-3326D01*
G01*
X54587D02*
G03*
X54488Y151937I-3355J3326D01*
G01*
X19359Y187066D02*
G03*
X12609Y186967I-3326J-3355D01*
G01*
Y202008D02*
G03*
X19359Y202107I3326J3355D01*
G01*
X54488Y237236D02*
G03*
X54388Y243986I-3355J3326D01*
G01*
X69429D02*
G03*
X69528Y237236I3355J-3326D01*
G01*
Y151937D02*
G03*
X104657Y187066I-7520J42649D01*
G01*
X54488Y237236D02*
G03*
X19359Y202107I7520J-42649D01*
G01*
Y187066D02*
G03*
X54488Y151937I42649J7520D01*
G01*
X104657Y202107D02*
G03*
X69528Y237236I-42649J-7520D01*
G01*
X203757Y119134D02*
G03*
X163838Y79215I8546J-48465D01*
G01*
Y61139D02*
G03*
X203757Y21220I48465J8546D01*
G01*
X221833D02*
G03*
X261752Y61139I-8546J48465D01*
G01*
Y79215D02*
G03*
X221833Y119134I-48465J-8546D01*
G01*
X0Y0D02*
Y264961D01*
X575787D01*
Y0D02*
Y264961D01*
X0Y0D02*
X575787D01*
X10967Y23762D02*
Y68109D01*
Y23762D02*
X68997D01*
X83269D02*
X141396D01*
Y66339D01*
Y82186D02*
Y125844D01*
X83070D02*
X141396D01*
X10967Y83365D02*
Y125844D01*
X68011D01*
X268502Y79314D02*
Y125884D01*
X221734D02*
X268502D01*
X157088D02*
X203658D01*
X157088Y79116D02*
Y125884D01*
Y14470D02*
Y61040D01*
Y14470D02*
X203857D01*
X221932D02*
X268502D01*
Y61239D01*
X383946Y82127D02*
Y123130D01*
X341968Y123907D02*
X383946D01*
Y123130D02*
Y123907D01*
X285148D02*
X326928D01*
X285148Y81929D02*
Y123907D01*
Y25109D02*
Y66888D01*
Y25109D02*
X327126D01*
X342167D02*
X383946D01*
Y67087D01*
X561112Y202206D02*
Y243209D01*
X519134Y243986D02*
X561112D01*
Y243209D02*
Y243986D01*
X462314D02*
X504093D01*
X462314Y202008D02*
Y243986D01*
Y145187D02*
Y186967D01*
Y145187D02*
X504292D01*
X519332D02*
X561112D01*
Y187166D01*
X448710Y202206D02*
Y243209D01*
X406732Y243986D02*
X448710D01*
Y243209D02*
Y243986D01*
X349912D02*
X391692D01*
X349912Y202008D02*
Y243986D01*
Y145187D02*
Y186967D01*
Y145187D02*
X391890D01*
X406930D02*
X448710D01*
Y187166D01*
X336309Y202108D02*
Y243110D01*
X294330Y243887D02*
X336309D01*
Y243110D02*
Y243887D01*
X237510D02*
X279290D01*
X237510Y201909D02*
Y243887D01*
Y145089D02*
Y186869D01*
Y145089D02*
X279488D01*
X294529D02*
X336309D01*
Y187067D01*
X223809Y202108D02*
Y243110D01*
X181830Y243887D02*
X223809D01*
Y243110D02*
Y243887D01*
X125010D02*
X166790D01*
X125010Y201909D02*
Y243887D01*
Y145089D02*
Y186869D01*
Y145089D02*
X166989D01*
X182029D02*
X223809D01*
Y187067D01*
X111407Y145187D02*
Y187166D01*
X69627Y145187D02*
X111407D01*
X12609D02*
X54587D01*
X12609D02*
Y186967D01*
Y202008D02*
Y243986D01*
X54388D01*
X111407Y243209D02*
Y243986D01*
X69429D02*
X111407D01*
Y202206D02*
Y243209D01*
X17717Y83465D02*
Y119095D01*
Y30512D02*
Y68209D01*
X134646Y82087D02*
Y119095D01*
X133957D02*
X134646D01*
X17717D02*
X68110D01*
X83169D02*
X133957D01*
X17717Y30512D02*
X68898D01*
X83169D02*
X133957D01*
X134646D01*
Y66240D01*
M02*
