M48
;Layer_Color=9474304
;FILE_FORMAT=2:5
INCH,LZ
;TYPE=PLATED
T1F00S00C0.01181
T2F00S00C0.01575
T3F00S00C0.01968
T4F00S00C0.03150
T5F00S00C0.03543
T6F00S00C0.03740
T7F00S00C0.03937
T8F00S00C0.04724
T9F00S00C0.05906
%
T01
X0028248Y0035285
X0028169Y0043436
X0028445Y004946
X0038091Y004936
X0035531Y0054085
X0040257Y0062748
X0043504Y0065502
X0047638Y0065601
X0045572Y0069146
X004626Y0080266
X004872Y0083317
X0056791Y0079872
X0062598Y006875
X0061813Y0065405
X0062236Y0058643
X0064077Y0055661
X0060827Y0050246
X0067716Y0045817
X0067618Y0035089
X0059252Y0038927
X0050787Y004503
X0045669Y0048081
X0051279Y005438
X0076578Y005005
X0076676Y0040798
X0084058Y0040404
X0086736Y0042292
X0090063Y0041684
X0089075Y0052412
X0090453Y0066191
X0075295Y0065404
X0076181Y0086171
X0075197Y010104
X0067817Y0101923
X008691Y0095817
X0088684Y0092966
X0038287Y0093553
X0034351Y0079382
X0031103Y0075051
X0039273Y0075347
X0119099Y0072197
X011969Y0068949
X0119788Y0063929
X011939Y0057727
X0119887Y0047983
X0131988Y0048376
X0131791Y0054282
X0130807Y0041978
X013189Y0034104
X0120472Y0034006
X0115256Y0034104
X0110531Y0034006
X0102854Y0034793
X0098524Y0035089
X0097248Y0043062
X0099449Y0049883
X0105217Y0040699
X0124907Y0069933
X0131791Y0072195
X0128937Y007564
X0127091Y008608
X0131299Y0086664
X0409129Y0168405
X0413952Y017185
X0417987Y0171063
X0422515
X0427534Y0170768
X043157Y0170571
X0428223Y0166437
X0429109Y017874
X0431865Y0181988
Y0188287
X0432259Y0196457
X0427534Y0195866
X0432259Y0205512
X0418775Y0186713
X041533Y0177953
X0404503Y0221752
X0400943Y0211319
X0393282Y0212304
X0379208Y0190748
X037281Y0193405
Y0185827
X0375467Y0173622
X0375369Y0169783
X0375271Y0165354
X0376649Y0161221
X0380487Y0158858
X0385408Y015689
X0389542Y015561
X0396235Y0154429
X0396334Y0158957
X0394955Y0172735
X038905Y0173327
X0398401Y0181595
X0195792Y0185039
X0129626Y0115994
X0129831Y0111163
X0119685Y0109793
X0117483Y0106447
X0103051Y0107915
X0086319Y0103691
X0090158Y0116388
X0069195Y0108813
X0050984Y0104971
X0053051Y0116191
X0040748Y0116289
X0036909Y0110285
X0027953Y0111467
X0020669Y0116093
X0043996Y0183071
X0042126Y0194193
X0061811Y0184252
X0062205Y0165847
X0090059Y016811
X0072835Y0231201
X0051673Y0230709
X0050886Y0219685
T02
X0061713Y0072392
X0068802Y0074362
X0075886Y0078888
X0095669Y0073728
X0086122Y0113337
X006565Y0114026
T03
X0016831Y007185
X0016929Y0075689
Y0079626
X0031497Y0068063
X0072244Y003002
X0075984Y0029921
X0079724
X0110454Y0054612
X0115791
Y0064612
X0110454
Y0074612
X0115791
Y0084612
X0110454
Y0094612
X0115791
X0135728Y007815
X013563Y0074705
Y0070669
X0162402Y0070276
X01625Y0073327
Y0067126
X0209646Y0019882
X0212697Y0019783
X0215846Y0019882
X026309Y0067027
X0263189Y0070079
X026309Y0073228
X0290354Y0074213
X0290453Y0071555
Y0077362
X0331693Y0030413
X0334842Y0030315
X03375Y0030413
X0378642Y0071653
X037874Y0074803
X0378642Y0077461
X0443405Y0191732
X0443504Y0194882
X0443405Y0197539
X0467618Y0197441
X046752Y0194291
X0467618Y0191634
X0508858Y0150492
X0512008Y0150394
X0514665Y0150492
X0555807Y0191732
X0555905Y0194882
X0555807Y0197539
X0514567Y0238681
X0511417Y0238779
X050876Y0238681
X0402165
X0399016Y0238779
X0396358Y0238681
X0355217Y0197441
X0355118Y0194291
X0355217Y0191634
X0331004Y0191634
X0331102Y0194783
X0331004Y0197441
X0331594Y0118602
X0334252Y0118701
X0337402Y0118602
X0289862Y0150394
X0287205Y0150295
X0284055Y0150394
X0283957Y0238583
X0286614Y0238681
X0289764Y0238583
X0396457Y0150492
X0399606Y0150394
X0402264Y0150492
X0242815Y0191535
X0242717Y0194193
X0242815Y0197343
X0218504Y0197441
X0218602Y0194783
X0218504Y0191634
X0215945Y0120472
X0212894Y0120571
X0209744Y0120472
X0177362Y0150394
X0174705Y0150295
X0171555Y0150394
X0130315Y0191535
X0130217Y0194193
X0130315Y0197343
X0106102Y0197539
X0106201Y0194882
X0106102Y0191732
X0171457Y0238583
X0174114Y0238681
X0177264Y0238583
X0064862Y0238681
X0061713Y0238779
X0059055Y0238681
X0017913Y0197441
X0017815Y0194291
X0017913Y0191634
X0059153Y0150492
X0062303Y0150394
X0064961Y0150492
X0072047Y0119783
X0075689
X0079528
T04
X0083366Y0099557
X0089075Y0099852
T05
X0409286Y0189606
Y0199606
X0414286Y0212894
X0424286
X0526713
X0536713
X0399286Y0199606
X0389286
Y0189606
X0399286
X031186Y0212894
X030186
X0199434
X0189434
X0087008
X0077008
T06
X0312211Y0043765
X0334547Y0036508
X0356883Y0043765
X0370687Y0062765
Y0086251
X0298407
Y0062765
X0421622Y0163844
X0489377
X0511713Y0156587
X0534048Y0163844
X0547853Y0182844
Y0206329
X0534048Y0225329
X0511713Y0232587
X0489377Y0225329
X0475572Y0206329
Y0182844
X0376951Y0225329
X0309196
X028686Y0232587
X0264524Y0225329
X025072Y0206329
Y0182844
X0264524Y0163844
X028686Y0156587
X0309196Y0163844
X0323Y0182844
Y0206329
X0334547Y0112508
X0312211Y0105251
X0356883
X019677Y0163844
X0174434Y0156587
X0152098Y0163844
X0138294Y0182844
Y0206329
X0152098Y0225329
X0174434Y0232587
X019677Y0225329
X0210574Y0206329
Y0182844
X0098148
Y0206329
X0084344Y0225329
X0062008Y0232587
X0039672Y0225329
X0025868Y0206329
Y0182844
X0039672Y0163844
X0062008Y0156587
X0084344Y0163844
T07
X0192245Y0107677
X0209863Y0113386
X0217048Y0113484
X0233189Y0107677
T08
X0320761Y0055496
X0334646Y0050984
X034853Y0055496
X0357112Y0067307
Y0081906
X034853Y0093717
X0334646
X0320761
X031218Y0081906
Y0067307
T09
X0172559Y0084744
X0179252Y008563
X0175906Y0091732
X0179646Y0097835
X0246182Y0097047
X024628Y0085335
X025317Y0084744
X0249922Y009124
X0227349Y0108661
X0220427
X0213504
X0206582
X0199659
M30
