G04 Layer_Color=32896*
%FSLAX25Y25*%
%MOIN*%
G70*
G01*
G75*
%ADD40C,0.00984*%
%ADD42C,0.00787*%
%ADD64C,0.01000*%
%ADD81C,0.02362*%
%ADD83C,0.00394*%
%ADD84C,0.00591*%
%ADD85C,0.00606*%
G36*
X231057Y68110D02*
X230570D01*
Y71122D01*
X228557Y68110D01*
X228033D01*
Y71950D01*
X228520D01*
Y68934D01*
X230537Y71950D01*
X231057D01*
Y68110D01*
D02*
G37*
G36*
X247751D02*
X247260D01*
Y71380D01*
X246154Y68110D01*
X245696D01*
X244573Y71326D01*
Y68110D01*
X244082D01*
Y71950D01*
X244769D01*
X245692Y69279D01*
X245717Y69204D01*
X245742Y69138D01*
X245763Y69071D01*
X245783Y69013D01*
X245800Y68955D01*
X245817Y68905D01*
X245833Y68859D01*
X245846Y68818D01*
X245858Y68784D01*
X245867Y68751D01*
X245875Y68726D01*
X245883Y68701D01*
X245887Y68684D01*
X245892Y68672D01*
X245896Y68668D01*
Y68664D01*
X245908Y68701D01*
X245921Y68743D01*
X245950Y68830D01*
X245979Y68926D01*
X246008Y69017D01*
X246037Y69100D01*
X246050Y69138D01*
X246058Y69167D01*
X246066Y69192D01*
X246075Y69213D01*
X246079Y69225D01*
Y69229D01*
X246990Y71950D01*
X247751D01*
Y68110D01*
D02*
G37*
G36*
X239681Y69733D02*
Y69620D01*
X239672Y69516D01*
X239668Y69416D01*
X239656Y69325D01*
X239648Y69238D01*
X239635Y69159D01*
X239622Y69088D01*
X239606Y69021D01*
X239593Y68963D01*
X239581Y68913D01*
X239568Y68867D01*
X239556Y68834D01*
X239548Y68805D01*
X239539Y68784D01*
X239535Y68772D01*
Y68768D01*
X239506Y68705D01*
X239473Y68643D01*
X239398Y68535D01*
X239319Y68443D01*
X239236Y68368D01*
X239198Y68335D01*
X239165Y68310D01*
X239132Y68285D01*
X239103Y68264D01*
X239082Y68252D01*
X239065Y68239D01*
X239053Y68235D01*
X239049Y68231D01*
X238982Y68198D01*
X238911Y68173D01*
X238766Y68127D01*
X238616Y68094D01*
X238474Y68073D01*
X238412Y68064D01*
X238350Y68056D01*
X238300Y68052D01*
X238254D01*
X238216Y68048D01*
X238162D01*
X238063Y68052D01*
X237967Y68056D01*
X237875Y68069D01*
X237788Y68081D01*
X237709Y68098D01*
X237634Y68114D01*
X237567Y68135D01*
X237509Y68156D01*
X237451Y68173D01*
X237405Y68194D01*
X237364Y68210D01*
X237330Y68227D01*
X237301Y68239D01*
X237285Y68252D01*
X237272Y68256D01*
X237268Y68260D01*
X237206Y68302D01*
X237147Y68343D01*
X237097Y68389D01*
X237048Y68435D01*
X237006Y68480D01*
X236964Y68530D01*
X236931Y68572D01*
X236902Y68618D01*
X236852Y68693D01*
X236835Y68726D01*
X236819Y68755D01*
X236806Y68780D01*
X236798Y68797D01*
X236794Y68809D01*
Y68813D01*
X236769Y68880D01*
X236748Y68951D01*
X236715Y69100D01*
X236694Y69254D01*
X236677Y69400D01*
X236673Y69471D01*
X236669Y69533D01*
X236665Y69587D01*
X236661Y69637D01*
Y69679D01*
Y69708D01*
Y69724D01*
Y69733D01*
Y71950D01*
X237168D01*
Y69733D01*
X237172Y69604D01*
X237176Y69483D01*
X237189Y69375D01*
X237206Y69275D01*
X237222Y69188D01*
X237243Y69109D01*
X237268Y69038D01*
X237289Y68976D01*
X237310Y68922D01*
X237334Y68876D01*
X237355Y68838D01*
X237372Y68809D01*
X237389Y68788D01*
X237397Y68772D01*
X237405Y68763D01*
X237409Y68759D01*
X237459Y68713D01*
X237513Y68676D01*
X237572Y68643D01*
X237634Y68614D01*
X237701Y68589D01*
X237767Y68568D01*
X237896Y68539D01*
X237959Y68526D01*
X238017Y68518D01*
X238071Y68514D01*
X238117Y68510D01*
X238154Y68506D01*
X238208D01*
X238325Y68510D01*
X238433Y68526D01*
X238528Y68547D01*
X238612Y68568D01*
X238645Y68580D01*
X238674Y68593D01*
X238703Y68601D01*
X238724Y68609D01*
X238741Y68618D01*
X238753Y68626D01*
X238761Y68630D01*
X238766D01*
X238845Y68684D01*
X238911Y68743D01*
X238965Y68801D01*
X239007Y68863D01*
X239040Y68913D01*
X239065Y68959D01*
X239073Y68976D01*
X239078Y68988D01*
X239082Y68992D01*
Y68996D01*
X239098Y69042D01*
X239111Y69096D01*
X239136Y69213D01*
X239153Y69333D01*
X239161Y69454D01*
X239165Y69508D01*
X239169Y69562D01*
Y69608D01*
X239173Y69649D01*
Y69687D01*
Y69712D01*
Y69728D01*
Y69733D01*
Y71950D01*
X239681D01*
Y69733D01*
D02*
G37*
G36*
X225491Y72012D02*
X225595Y72008D01*
X225695Y71996D01*
X225786Y71979D01*
X225878Y71962D01*
X225961Y71942D01*
X226040Y71921D01*
X226111Y71900D01*
X226173Y71875D01*
X226232Y71854D01*
X226281Y71833D01*
X226323Y71817D01*
X226356Y71800D01*
X226381Y71788D01*
X226398Y71784D01*
X226402Y71779D01*
X226481Y71734D01*
X226556Y71680D01*
X226627Y71626D01*
X226689Y71567D01*
X226751Y71505D01*
X226806Y71447D01*
X226855Y71388D01*
X226901Y71330D01*
X226939Y71272D01*
X226976Y71222D01*
X227005Y71176D01*
X227030Y71135D01*
X227047Y71101D01*
X227059Y71076D01*
X227068Y71060D01*
X227072Y71056D01*
X227113Y70964D01*
X227147Y70872D01*
X227180Y70781D01*
X227205Y70689D01*
X227246Y70515D01*
X227263Y70432D01*
X227276Y70353D01*
X227284Y70282D01*
X227292Y70215D01*
X227296Y70157D01*
X227301Y70107D01*
X227305Y70065D01*
Y70036D01*
Y70020D01*
Y70011D01*
X227301Y69907D01*
X227296Y69803D01*
X227284Y69708D01*
X227267Y69612D01*
X227251Y69525D01*
X227230Y69437D01*
X227209Y69358D01*
X227188Y69288D01*
X227168Y69221D01*
X227147Y69163D01*
X227126Y69113D01*
X227109Y69067D01*
X227093Y69034D01*
X227080Y69009D01*
X227076Y68992D01*
X227072Y68988D01*
X227026Y68905D01*
X226972Y68826D01*
X226918Y68755D01*
X226864Y68684D01*
X226806Y68622D01*
X226747Y68568D01*
X226689Y68514D01*
X226635Y68468D01*
X226581Y68426D01*
X226531Y68389D01*
X226485Y68360D01*
X226448Y68335D01*
X226419Y68314D01*
X226394Y68302D01*
X226377Y68293D01*
X226373Y68289D01*
X226286Y68248D01*
X226194Y68210D01*
X226107Y68177D01*
X226019Y68152D01*
X225928Y68127D01*
X225845Y68106D01*
X225761Y68089D01*
X225687Y68077D01*
X225616Y68069D01*
X225549Y68060D01*
X225491Y68056D01*
X225441Y68052D01*
X225399Y68048D01*
X225345D01*
X225191Y68056D01*
X225042Y68073D01*
X224904Y68094D01*
X224842Y68110D01*
X224780Y68123D01*
X224726Y68135D01*
X224680Y68152D01*
X224634Y68164D01*
X224601Y68173D01*
X224568Y68185D01*
X224547Y68189D01*
X224534Y68198D01*
X224530D01*
X224380Y68260D01*
X224239Y68331D01*
X224110Y68406D01*
X224047Y68443D01*
X223993Y68476D01*
X223943Y68510D01*
X223898Y68543D01*
X223856Y68568D01*
X223823Y68593D01*
X223794Y68614D01*
X223773Y68630D01*
X223761Y68639D01*
X223756Y68643D01*
Y70070D01*
X225383D01*
Y69616D01*
X224255D01*
Y68897D01*
X224322Y68842D01*
X224397Y68797D01*
X224476Y68751D01*
X224555Y68709D01*
X224626Y68676D01*
X224655Y68659D01*
X224680Y68647D01*
X224705Y68639D01*
X224721Y68630D01*
X224730Y68626D01*
X224734D01*
X224850Y68585D01*
X224967Y68555D01*
X225075Y68530D01*
X225171Y68518D01*
X225217Y68514D01*
X225254Y68510D01*
X225287Y68506D01*
X225316D01*
X225341Y68501D01*
X225375D01*
X225516Y68510D01*
X225649Y68526D01*
X225770Y68555D01*
X225828Y68568D01*
X225878Y68585D01*
X225924Y68601D01*
X225965Y68614D01*
X226003Y68630D01*
X226036Y68643D01*
X226061Y68651D01*
X226078Y68659D01*
X226090Y68668D01*
X226094D01*
X226157Y68701D01*
X226215Y68738D01*
X226315Y68818D01*
X226402Y68905D01*
X226477Y68988D01*
X226531Y69063D01*
X226556Y69096D01*
X226573Y69121D01*
X226589Y69146D01*
X226598Y69163D01*
X226602Y69175D01*
X226606Y69179D01*
X226664Y69317D01*
X226706Y69462D01*
X226739Y69604D01*
X226760Y69741D01*
X226764Y69803D01*
X226772Y69862D01*
X226777Y69912D01*
Y69957D01*
X226781Y69991D01*
Y70020D01*
Y70036D01*
Y70041D01*
X226772Y70194D01*
X226756Y70340D01*
X226735Y70469D01*
X226722Y70531D01*
X226706Y70586D01*
X226693Y70635D01*
X226681Y70681D01*
X226668Y70719D01*
X226656Y70752D01*
X226647Y70781D01*
X226639Y70798D01*
X226635Y70810D01*
Y70814D01*
X226602Y70889D01*
X226564Y70960D01*
X226523Y71026D01*
X226485Y71080D01*
X226452Y71126D01*
X226423Y71164D01*
X226406Y71184D01*
X226398Y71193D01*
X226336Y71255D01*
X226265Y71309D01*
X226198Y71359D01*
X226132Y71401D01*
X226073Y71434D01*
X226028Y71455D01*
X226011Y71463D01*
X225998Y71472D01*
X225990Y71476D01*
X225986D01*
X225886Y71513D01*
X225786Y71538D01*
X225682Y71559D01*
X225591Y71571D01*
X225545Y71576D01*
X225508Y71580D01*
X225470D01*
X225441Y71584D01*
X225383D01*
X225279Y71580D01*
X225179Y71567D01*
X225092Y71551D01*
X225013Y71534D01*
X224950Y71513D01*
X224921Y71505D01*
X224900Y71496D01*
X224884Y71488D01*
X224871Y71484D01*
X224863Y71480D01*
X224859D01*
X224776Y71438D01*
X224701Y71397D01*
X224638Y71351D01*
X224584Y71309D01*
X224547Y71268D01*
X224518Y71239D01*
X224497Y71218D01*
X224493Y71210D01*
X224447Y71143D01*
X224405Y71068D01*
X224368Y70993D01*
X224335Y70918D01*
X224310Y70852D01*
X224301Y70823D01*
X224293Y70802D01*
X224285Y70781D01*
X224281Y70764D01*
X224276Y70756D01*
Y70752D01*
X223815Y70877D01*
X223856Y71014D01*
X223902Y71139D01*
X223927Y71193D01*
X223952Y71247D01*
X223973Y71293D01*
X223998Y71334D01*
X224018Y71376D01*
X224039Y71409D01*
X224060Y71438D01*
X224073Y71463D01*
X224089Y71480D01*
X224097Y71492D01*
X224102Y71501D01*
X224106Y71505D01*
X224185Y71592D01*
X224268Y71667D01*
X224355Y71729D01*
X224443Y71784D01*
X224518Y71825D01*
X224551Y71842D01*
X224580Y71854D01*
X224601Y71867D01*
X224617Y71875D01*
X224630Y71879D01*
X224634D01*
X224763Y71925D01*
X224892Y71958D01*
X225021Y71983D01*
X225137Y72000D01*
X225191Y72004D01*
X225237Y72008D01*
X225279Y72012D01*
X225316Y72017D01*
X225387D01*
X225491Y72012D01*
D02*
G37*
G36*
X254212D02*
X254303Y72008D01*
X254474Y71979D01*
X254557Y71962D01*
X254632Y71942D01*
X254707Y71921D01*
X254773Y71900D01*
X254832Y71879D01*
X254886Y71858D01*
X254936Y71838D01*
X254973Y71821D01*
X255006Y71804D01*
X255027Y71792D01*
X255044Y71788D01*
X255048Y71784D01*
X255123Y71738D01*
X255198Y71688D01*
X255264Y71634D01*
X255327Y71580D01*
X255385Y71522D01*
X255439Y71467D01*
X255485Y71409D01*
X255530Y71359D01*
X255568Y71305D01*
X255601Y71259D01*
X255630Y71218D01*
X255655Y71180D01*
X255672Y71147D01*
X255684Y71126D01*
X255693Y71110D01*
X255697Y71105D01*
X255738Y71022D01*
X255772Y70931D01*
X255801Y70843D01*
X255830Y70756D01*
X255872Y70577D01*
X255884Y70494D01*
X255896Y70415D01*
X255905Y70340D01*
X255913Y70274D01*
X255917Y70211D01*
X255921Y70157D01*
X255926Y70115D01*
Y70082D01*
Y70065D01*
Y70057D01*
X255921Y69957D01*
X255917Y69858D01*
X255892Y69666D01*
X255880Y69575D01*
X255863Y69491D01*
X255842Y69412D01*
X255826Y69337D01*
X255805Y69271D01*
X255788Y69209D01*
X255772Y69159D01*
X255755Y69113D01*
X255743Y69080D01*
X255734Y69050D01*
X255730Y69034D01*
X255726Y69030D01*
X255684Y68942D01*
X255643Y68859D01*
X255597Y68784D01*
X255547Y68713D01*
X255497Y68647D01*
X255451Y68589D01*
X255401Y68535D01*
X255356Y68485D01*
X255310Y68439D01*
X255268Y68401D01*
X255231Y68372D01*
X255198Y68343D01*
X255173Y68322D01*
X255152Y68310D01*
X255139Y68302D01*
X255135Y68297D01*
X255060Y68252D01*
X254981Y68214D01*
X254898Y68181D01*
X254811Y68152D01*
X254728Y68131D01*
X254644Y68110D01*
X254561Y68094D01*
X254482Y68081D01*
X254407Y68069D01*
X254341Y68060D01*
X254278Y68056D01*
X254228Y68052D01*
X254183Y68048D01*
X254124D01*
X254012Y68052D01*
X253908Y68060D01*
X253808Y68077D01*
X253713Y68098D01*
X253621Y68123D01*
X253538Y68152D01*
X253463Y68181D01*
X253392Y68210D01*
X253326Y68239D01*
X253272Y68268D01*
X253222Y68297D01*
X253184Y68322D01*
X253151Y68343D01*
X253130Y68360D01*
X253113Y68368D01*
X253109Y68372D01*
X253034Y68439D01*
X252964Y68510D01*
X252901Y68585D01*
X252843Y68659D01*
X252789Y68738D01*
X252743Y68822D01*
X252702Y68897D01*
X252664Y68976D01*
X252631Y69046D01*
X252606Y69113D01*
X252581Y69175D01*
X252564Y69225D01*
X252548Y69271D01*
X252539Y69300D01*
X252531Y69321D01*
Y69329D01*
X253039Y69458D01*
X253059Y69371D01*
X253088Y69288D01*
X253118Y69209D01*
X253147Y69138D01*
X253180Y69071D01*
X253213Y69013D01*
X253246Y68959D01*
X253280Y68909D01*
X253313Y68867D01*
X253342Y68830D01*
X253371Y68797D01*
X253392Y68772D01*
X253413Y68751D01*
X253430Y68738D01*
X253438Y68730D01*
X253442Y68726D01*
X253500Y68684D01*
X253558Y68647D01*
X253617Y68614D01*
X253679Y68585D01*
X253742Y68560D01*
X253800Y68539D01*
X253916Y68510D01*
X253966Y68501D01*
X254016Y68493D01*
X254058Y68489D01*
X254095Y68485D01*
X254124Y68480D01*
X254166D01*
X254233Y68485D01*
X254295Y68489D01*
X254415Y68510D01*
X254528Y68539D01*
X254624Y68572D01*
X254665Y68589D01*
X254702Y68601D01*
X254736Y68618D01*
X254765Y68630D01*
X254790Y68643D01*
X254806Y68651D01*
X254815Y68659D01*
X254819D01*
X254873Y68697D01*
X254923Y68734D01*
X255014Y68822D01*
X255089Y68909D01*
X255152Y69001D01*
X255198Y69080D01*
X255218Y69113D01*
X255235Y69146D01*
X255243Y69171D01*
X255252Y69188D01*
X255260Y69200D01*
Y69204D01*
X255306Y69346D01*
X255343Y69491D01*
X255368Y69637D01*
X255377Y69704D01*
X255385Y69770D01*
X255389Y69832D01*
X255393Y69887D01*
X255397Y69937D01*
Y69978D01*
X255401Y70016D01*
Y70041D01*
Y70057D01*
Y70061D01*
X255397Y70203D01*
X255385Y70336D01*
X255364Y70461D01*
X255356Y70519D01*
X255343Y70573D01*
X255331Y70619D01*
X255322Y70665D01*
X255310Y70702D01*
X255302Y70735D01*
X255297Y70760D01*
X255289Y70781D01*
X255285Y70793D01*
Y70798D01*
X255231Y70927D01*
X255169Y71039D01*
X255102Y71135D01*
X255065Y71176D01*
X255031Y71218D01*
X254998Y71251D01*
X254969Y71280D01*
X254940Y71309D01*
X254919Y71330D01*
X254898Y71347D01*
X254881Y71359D01*
X254873Y71363D01*
X254869Y71368D01*
X254811Y71405D01*
X254752Y71438D01*
X254690Y71467D01*
X254628Y71492D01*
X254503Y71530D01*
X254382Y71559D01*
X254332Y71567D01*
X254282Y71571D01*
X254237Y71576D01*
X254199Y71580D01*
X254166Y71584D01*
X254054D01*
X253987Y71576D01*
X253862Y71555D01*
X253754Y71522D01*
X253708Y71505D01*
X253662Y71488D01*
X253621Y71472D01*
X253588Y71455D01*
X253558Y71438D01*
X253534Y71422D01*
X253513Y71409D01*
X253500Y71401D01*
X253492Y71397D01*
X253488Y71393D01*
X253442Y71355D01*
X253396Y71314D01*
X253321Y71218D01*
X253251Y71114D01*
X253197Y71014D01*
X253155Y70922D01*
X253134Y70885D01*
X253122Y70852D01*
X253109Y70823D01*
X253105Y70798D01*
X253097Y70785D01*
Y70781D01*
X252598Y70898D01*
X252631Y70993D01*
X252668Y71085D01*
X252706Y71172D01*
X252751Y71251D01*
X252793Y71326D01*
X252839Y71393D01*
X252885Y71455D01*
X252930Y71509D01*
X252976Y71559D01*
X253014Y71601D01*
X253051Y71638D01*
X253084Y71667D01*
X253109Y71692D01*
X253130Y71709D01*
X253142Y71717D01*
X253147Y71721D01*
X253222Y71775D01*
X253301Y71817D01*
X253380Y71858D01*
X253463Y71892D01*
X253546Y71921D01*
X253625Y71946D01*
X253704Y71962D01*
X253779Y71979D01*
X253850Y71992D01*
X253912Y72000D01*
X253970Y72008D01*
X254020Y72012D01*
X254062Y72017D01*
X254116D01*
X254212Y72012D01*
D02*
G37*
G36*
X216372D02*
X216464Y72008D01*
X216634Y71979D01*
X216718Y71962D01*
X216792Y71942D01*
X216867Y71921D01*
X216934Y71900D01*
X216992Y71879D01*
X217046Y71858D01*
X217096Y71838D01*
X217134Y71821D01*
X217167Y71804D01*
X217188Y71792D01*
X217204Y71788D01*
X217209Y71784D01*
X217283Y71738D01*
X217358Y71688D01*
X217425Y71634D01*
X217487Y71580D01*
X217545Y71522D01*
X217600Y71467D01*
X217645Y71409D01*
X217691Y71359D01*
X217728Y71305D01*
X217762Y71259D01*
X217791Y71218D01*
X217816Y71180D01*
X217832Y71147D01*
X217845Y71126D01*
X217853Y71110D01*
X217857Y71105D01*
X217899Y71022D01*
X217932Y70931D01*
X217961Y70843D01*
X217990Y70756D01*
X218032Y70577D01*
X218045Y70494D01*
X218057Y70415D01*
X218065Y70340D01*
X218074Y70274D01*
X218078Y70211D01*
X218082Y70157D01*
X218086Y70115D01*
Y70082D01*
Y70065D01*
Y70057D01*
X218082Y69957D01*
X218078Y69858D01*
X218053Y69666D01*
X218040Y69575D01*
X218024Y69491D01*
X218003Y69412D01*
X217986Y69337D01*
X217966Y69271D01*
X217949Y69209D01*
X217932Y69159D01*
X217916Y69113D01*
X217903Y69080D01*
X217895Y69050D01*
X217891Y69034D01*
X217886Y69030D01*
X217845Y68942D01*
X217803Y68859D01*
X217758Y68784D01*
X217708Y68713D01*
X217658Y68647D01*
X217612Y68589D01*
X217562Y68535D01*
X217516Y68485D01*
X217471Y68439D01*
X217429Y68401D01*
X217391Y68372D01*
X217358Y68343D01*
X217333Y68322D01*
X217313Y68310D01*
X217300Y68302D01*
X217296Y68297D01*
X217221Y68252D01*
X217142Y68214D01*
X217059Y68181D01*
X216971Y68152D01*
X216888Y68131D01*
X216805Y68110D01*
X216722Y68094D01*
X216643Y68081D01*
X216568Y68069D01*
X216501Y68060D01*
X216439Y68056D01*
X216389Y68052D01*
X216343Y68048D01*
X216285D01*
X216173Y68052D01*
X216069Y68060D01*
X215969Y68077D01*
X215873Y68098D01*
X215782Y68123D01*
X215698Y68152D01*
X215623Y68181D01*
X215553Y68210D01*
X215486Y68239D01*
X215432Y68268D01*
X215382Y68297D01*
X215345Y68322D01*
X215312Y68343D01*
X215291Y68360D01*
X215274Y68368D01*
X215270Y68372D01*
X215195Y68439D01*
X215124Y68510D01*
X215062Y68585D01*
X215004Y68659D01*
X214950Y68738D01*
X214904Y68822D01*
X214862Y68897D01*
X214825Y68976D01*
X214791Y69046D01*
X214767Y69113D01*
X214742Y69175D01*
X214725Y69225D01*
X214708Y69271D01*
X214700Y69300D01*
X214692Y69321D01*
Y69329D01*
X215199Y69458D01*
X215220Y69371D01*
X215249Y69288D01*
X215278Y69209D01*
X215307Y69138D01*
X215341Y69071D01*
X215374Y69013D01*
X215407Y68959D01*
X215441Y68909D01*
X215474Y68867D01*
X215503Y68830D01*
X215532Y68797D01*
X215553Y68772D01*
X215574Y68751D01*
X215590Y68738D01*
X215599Y68730D01*
X215603Y68726D01*
X215661Y68684D01*
X215719Y68647D01*
X215777Y68614D01*
X215840Y68585D01*
X215902Y68560D01*
X215961Y68539D01*
X216077Y68510D01*
X216127Y68501D01*
X216177Y68493D01*
X216218Y68489D01*
X216256Y68485D01*
X216285Y68480D01*
X216326D01*
X216393Y68485D01*
X216456Y68489D01*
X216576Y68510D01*
X216688Y68539D01*
X216784Y68572D01*
X216826Y68589D01*
X216863Y68601D01*
X216897Y68618D01*
X216926Y68630D01*
X216950Y68643D01*
X216967Y68651D01*
X216975Y68659D01*
X216980D01*
X217034Y68697D01*
X217084Y68734D01*
X217175Y68822D01*
X217250Y68909D01*
X217313Y69001D01*
X217358Y69080D01*
X217379Y69113D01*
X217396Y69146D01*
X217404Y69171D01*
X217412Y69188D01*
X217421Y69200D01*
Y69204D01*
X217466Y69346D01*
X217504Y69491D01*
X217529Y69637D01*
X217537Y69704D01*
X217545Y69770D01*
X217550Y69832D01*
X217554Y69887D01*
X217558Y69937D01*
Y69978D01*
X217562Y70016D01*
Y70041D01*
Y70057D01*
Y70061D01*
X217558Y70203D01*
X217545Y70336D01*
X217525Y70461D01*
X217516Y70519D01*
X217504Y70573D01*
X217491Y70619D01*
X217483Y70665D01*
X217471Y70702D01*
X217462Y70735D01*
X217458Y70760D01*
X217450Y70781D01*
X217446Y70793D01*
Y70798D01*
X217391Y70927D01*
X217329Y71039D01*
X217263Y71135D01*
X217225Y71176D01*
X217192Y71218D01*
X217159Y71251D01*
X217129Y71280D01*
X217100Y71309D01*
X217079Y71330D01*
X217059Y71347D01*
X217042Y71359D01*
X217034Y71363D01*
X217030Y71368D01*
X216971Y71405D01*
X216913Y71438D01*
X216851Y71467D01*
X216788Y71492D01*
X216664Y71530D01*
X216543Y71559D01*
X216493Y71567D01*
X216443Y71571D01*
X216397Y71576D01*
X216360Y71580D01*
X216326Y71584D01*
X216214D01*
X216148Y71576D01*
X216023Y71555D01*
X215915Y71522D01*
X215869Y71505D01*
X215823Y71488D01*
X215782Y71472D01*
X215748Y71455D01*
X215719Y71438D01*
X215694Y71422D01*
X215673Y71409D01*
X215661Y71401D01*
X215653Y71397D01*
X215649Y71393D01*
X215603Y71355D01*
X215557Y71314D01*
X215482Y71218D01*
X215411Y71114D01*
X215357Y71014D01*
X215316Y70922D01*
X215295Y70885D01*
X215282Y70852D01*
X215270Y70823D01*
X215266Y70798D01*
X215257Y70785D01*
Y70781D01*
X214758Y70898D01*
X214791Y70993D01*
X214829Y71085D01*
X214866Y71172D01*
X214912Y71251D01*
X214954Y71326D01*
X215000Y71393D01*
X215045Y71455D01*
X215091Y71509D01*
X215137Y71559D01*
X215174Y71601D01*
X215212Y71638D01*
X215245Y71667D01*
X215270Y71692D01*
X215291Y71709D01*
X215303Y71717D01*
X215307Y71721D01*
X215382Y71775D01*
X215461Y71817D01*
X215540Y71858D01*
X215623Y71892D01*
X215707Y71921D01*
X215786Y71946D01*
X215865Y71962D01*
X215940Y71979D01*
X216010Y71992D01*
X216073Y72000D01*
X216131Y72008D01*
X216181Y72012D01*
X216223Y72017D01*
X216277D01*
X216372Y72012D01*
D02*
G37*
G36*
X243267Y68110D02*
X242759D01*
Y69670D01*
X241777D01*
X241628Y69674D01*
X241494Y69687D01*
X241370Y69704D01*
X241253Y69724D01*
X241153Y69749D01*
X241058Y69778D01*
X240979Y69808D01*
X240904Y69841D01*
X240841Y69870D01*
X240787Y69899D01*
X240742Y69928D01*
X240708Y69953D01*
X240679Y69978D01*
X240663Y69995D01*
X240650Y70003D01*
X240646Y70007D01*
X240592Y70074D01*
X240542Y70140D01*
X240500Y70211D01*
X240467Y70282D01*
X240434Y70353D01*
X240409Y70419D01*
X240388Y70486D01*
X240371Y70548D01*
X240359Y70610D01*
X240351Y70665D01*
X240342Y70710D01*
X240338Y70752D01*
X240334Y70789D01*
Y70814D01*
Y70831D01*
Y70835D01*
X240338Y70939D01*
X240351Y71039D01*
X240371Y71126D01*
X240392Y71205D01*
X240417Y71268D01*
X240425Y71297D01*
X240434Y71318D01*
X240442Y71334D01*
X240450Y71347D01*
X240455Y71355D01*
Y71359D01*
X240500Y71447D01*
X240550Y71517D01*
X240604Y71584D01*
X240650Y71634D01*
X240696Y71675D01*
X240729Y71705D01*
X240754Y71725D01*
X240758Y71729D01*
X240762D01*
X240837Y71775D01*
X240916Y71813D01*
X240995Y71846D01*
X241070Y71871D01*
X241137Y71892D01*
X241166Y71896D01*
X241191Y71904D01*
X241208Y71908D01*
X241224D01*
X241232Y71912D01*
X241237D01*
X241274Y71921D01*
X241320Y71925D01*
X241411Y71933D01*
X241507Y71942D01*
X241603Y71946D01*
X241686Y71950D01*
X243267D01*
Y68110D01*
D02*
G37*
G36*
X236103Y71496D02*
X234839D01*
Y68110D01*
X234331D01*
Y71496D01*
X233066D01*
Y71950D01*
X236103D01*
Y71496D01*
D02*
G37*
G36*
X232455Y68110D02*
X231947D01*
Y71950D01*
X232455D01*
Y68110D01*
D02*
G37*
G36*
X221518D02*
X221011D01*
Y69670D01*
X220029D01*
X219879Y69674D01*
X219746Y69687D01*
X219621Y69704D01*
X219505Y69724D01*
X219405Y69749D01*
X219309Y69778D01*
X219230Y69808D01*
X219155Y69841D01*
X219093Y69870D01*
X219039Y69899D01*
X218993Y69928D01*
X218960Y69953D01*
X218931Y69978D01*
X218914Y69995D01*
X218902Y70003D01*
X218897Y70007D01*
X218843Y70074D01*
X218793Y70140D01*
X218752Y70211D01*
X218719Y70282D01*
X218685Y70353D01*
X218660Y70419D01*
X218639Y70486D01*
X218623Y70548D01*
X218610Y70610D01*
X218602Y70665D01*
X218594Y70710D01*
X218590Y70752D01*
X218585Y70789D01*
Y70814D01*
Y70831D01*
Y70835D01*
X218590Y70939D01*
X218602Y71039D01*
X218623Y71126D01*
X218644Y71205D01*
X218669Y71268D01*
X218677Y71297D01*
X218685Y71318D01*
X218694Y71334D01*
X218702Y71347D01*
X218706Y71355D01*
Y71359D01*
X218752Y71447D01*
X218802Y71517D01*
X218856Y71584D01*
X218902Y71634D01*
X218947Y71675D01*
X218981Y71705D01*
X219006Y71725D01*
X219010Y71729D01*
X219014D01*
X219089Y71775D01*
X219168Y71813D01*
X219247Y71846D01*
X219322Y71871D01*
X219388Y71892D01*
X219417Y71896D01*
X219442Y71904D01*
X219459Y71908D01*
X219476D01*
X219484Y71912D01*
X219488D01*
X219526Y71921D01*
X219571Y71925D01*
X219663Y71933D01*
X219759Y71942D01*
X219854Y71946D01*
X219937Y71950D01*
X221518D01*
Y68110D01*
D02*
G37*
G36*
X214089D02*
X212628D01*
X212495Y68114D01*
X212374Y68119D01*
X212270Y68131D01*
X212221Y68135D01*
X212179Y68144D01*
X212142Y68148D01*
X212108Y68152D01*
X212079Y68160D01*
X212054Y68164D01*
X212033Y68168D01*
X212021D01*
X212013Y68173D01*
X212009D01*
X211917Y68198D01*
X211834Y68227D01*
X211763Y68260D01*
X211705Y68289D01*
X211655Y68318D01*
X211617Y68339D01*
X211597Y68356D01*
X211588Y68360D01*
X211526Y68414D01*
X211472Y68472D01*
X211422Y68530D01*
X211385Y68589D01*
X211351Y68639D01*
X211326Y68680D01*
X211318Y68697D01*
X211310Y68709D01*
X211305Y68713D01*
Y68718D01*
X211268Y68805D01*
X211239Y68897D01*
X211218Y68980D01*
X211201Y69059D01*
X211193Y69125D01*
Y69150D01*
X211189Y69175D01*
Y69196D01*
Y69209D01*
Y69217D01*
Y69221D01*
Y69283D01*
X211197Y69342D01*
X211218Y69454D01*
X211251Y69554D01*
X211285Y69637D01*
X211301Y69674D01*
X211318Y69708D01*
X211334Y69737D01*
X211351Y69762D01*
X211364Y69778D01*
X211372Y69791D01*
X211376Y69799D01*
X211380Y69803D01*
X211455Y69891D01*
X211543Y69962D01*
X211630Y70024D01*
X211717Y70070D01*
X211792Y70107D01*
X211825Y70120D01*
X211855Y70132D01*
X211879Y70140D01*
X211896Y70149D01*
X211909Y70153D01*
X211913D01*
X211817Y70207D01*
X211738Y70265D01*
X211667Y70323D01*
X211613Y70377D01*
X211567Y70427D01*
X211538Y70465D01*
X211526Y70481D01*
X211518Y70494D01*
X211513Y70498D01*
Y70502D01*
X211468Y70586D01*
X211434Y70665D01*
X211409Y70744D01*
X211393Y70814D01*
X211385Y70877D01*
X211376Y70922D01*
Y70939D01*
Y70952D01*
Y70960D01*
Y70964D01*
X211385Y71064D01*
X211401Y71155D01*
X211426Y71243D01*
X211451Y71318D01*
X211480Y71380D01*
X211493Y71409D01*
X211505Y71430D01*
X211518Y71447D01*
X211522Y71459D01*
X211530Y71467D01*
Y71472D01*
X211593Y71555D01*
X211659Y71630D01*
X211726Y71692D01*
X211792Y71742D01*
X211855Y71779D01*
X211900Y71808D01*
X211921Y71817D01*
X211934Y71825D01*
X211942Y71829D01*
X211946D01*
X212054Y71871D01*
X212167Y71900D01*
X212287Y71921D01*
X212395Y71933D01*
X212449Y71942D01*
X212495Y71946D01*
X212541D01*
X212578Y71950D01*
X214089D01*
Y68110D01*
D02*
G37*
G36*
X250372Y72012D02*
X250513Y71992D01*
X250646Y71967D01*
X250771Y71933D01*
X250892Y71892D01*
X251000Y71846D01*
X251100Y71796D01*
X251191Y71746D01*
X251275Y71696D01*
X251345Y71646D01*
X251404Y71601D01*
X251458Y71559D01*
X251495Y71526D01*
X251524Y71501D01*
X251545Y71480D01*
X251549Y71476D01*
X251641Y71372D01*
X251720Y71255D01*
X251786Y71139D01*
X251845Y71014D01*
X251894Y70889D01*
X251936Y70764D01*
X251969Y70644D01*
X251998Y70523D01*
X252019Y70411D01*
X252032Y70311D01*
X252044Y70215D01*
X252053Y70136D01*
X252057Y70070D01*
Y70045D01*
X252061Y70020D01*
Y70003D01*
Y69991D01*
Y69982D01*
Y69978D01*
X252057Y69887D01*
X252053Y69791D01*
X252028Y69616D01*
X252011Y69533D01*
X251994Y69454D01*
X251974Y69379D01*
X251953Y69313D01*
X251932Y69246D01*
X251911Y69192D01*
X251894Y69142D01*
X251878Y69100D01*
X251865Y69067D01*
X251853Y69042D01*
X251849Y69025D01*
X251845Y69021D01*
X251799Y68938D01*
X251753Y68859D01*
X251703Y68788D01*
X251649Y68718D01*
X251595Y68655D01*
X251541Y68597D01*
X251491Y68543D01*
X251437Y68493D01*
X251387Y68451D01*
X251341Y68414D01*
X251300Y68381D01*
X251266Y68356D01*
X251237Y68335D01*
X251212Y68318D01*
X251200Y68310D01*
X251196Y68306D01*
X251113Y68260D01*
X251029Y68223D01*
X250946Y68185D01*
X250863Y68156D01*
X250780Y68131D01*
X250701Y68110D01*
X250622Y68094D01*
X250551Y68081D01*
X250480Y68069D01*
X250422Y68060D01*
X250364Y68056D01*
X250318Y68052D01*
X250280Y68048D01*
X250226D01*
X250135Y68052D01*
X250043Y68056D01*
X249869Y68085D01*
X249790Y68102D01*
X249710Y68123D01*
X249640Y68144D01*
X249573Y68164D01*
X249511Y68185D01*
X249457Y68206D01*
X249411Y68227D01*
X249369Y68243D01*
X249336Y68260D01*
X249315Y68273D01*
X249299Y68277D01*
X249294Y68281D01*
X249216Y68327D01*
X249141Y68381D01*
X249070Y68435D01*
X249008Y68489D01*
X248949Y68547D01*
X248891Y68605D01*
X248841Y68664D01*
X248795Y68718D01*
X248758Y68772D01*
X248721Y68822D01*
X248691Y68867D01*
X248666Y68905D01*
X248650Y68934D01*
X248637Y68959D01*
X248629Y68976D01*
X248625Y68980D01*
X248583Y69067D01*
X248546Y69159D01*
X248517Y69246D01*
X248487Y69337D01*
X248463Y69425D01*
X248446Y69512D01*
X248429Y69595D01*
X248417Y69674D01*
X248409Y69749D01*
X248400Y69816D01*
X248396Y69874D01*
X248392Y69924D01*
X248388Y69966D01*
Y69999D01*
Y70016D01*
Y70024D01*
X248392Y70132D01*
X248396Y70232D01*
X248409Y70332D01*
X248421Y70427D01*
X248438Y70515D01*
X248458Y70602D01*
X248479Y70681D01*
X248500Y70752D01*
X248521Y70818D01*
X248542Y70877D01*
X248558Y70931D01*
X248579Y70972D01*
X248591Y71006D01*
X248604Y71031D01*
X248608Y71047D01*
X248612Y71051D01*
X248658Y71135D01*
X248704Y71214D01*
X248758Y71289D01*
X248808Y71355D01*
X248862Y71417D01*
X248916Y71476D01*
X248970Y71530D01*
X249024Y71580D01*
X249074Y71621D01*
X249120Y71659D01*
X249157Y71692D01*
X249195Y71717D01*
X249224Y71738D01*
X249245Y71750D01*
X249261Y71759D01*
X249265Y71763D01*
X249349Y71808D01*
X249428Y71846D01*
X249511Y71879D01*
X249594Y71908D01*
X249677Y71933D01*
X249756Y71954D01*
X249831Y71971D01*
X249906Y71983D01*
X249973Y71996D01*
X250031Y72004D01*
X250085Y72008D01*
X250135Y72012D01*
X250172Y72017D01*
X250222D01*
X250372Y72012D01*
D02*
G37*
G36*
X42105Y33711D02*
X41642D01*
Y34928D01*
X40354D01*
Y33711D01*
X39891D01*
Y36454D01*
X40354D01*
Y35310D01*
X41642D01*
Y36454D01*
X42105D01*
Y33711D01*
D02*
G37*
G36*
X50305D02*
X49841D01*
Y34978D01*
X49784Y34973D01*
X49735Y34965D01*
X49690Y34953D01*
X49649Y34937D01*
X49620Y34920D01*
X49595Y34908D01*
X49579Y34900D01*
X49575Y34896D01*
X49554Y34879D01*
X49530Y34859D01*
X49485Y34809D01*
X49440Y34752D01*
X49399Y34695D01*
X49362Y34641D01*
X49333Y34596D01*
X49325Y34580D01*
X49317Y34568D01*
X49308Y34559D01*
Y34555D01*
X48808Y33711D01*
X48296D01*
X48808Y34559D01*
X48862Y34646D01*
X48915Y34719D01*
X48968Y34789D01*
X49022Y34846D01*
X49071Y34900D01*
X49120Y34945D01*
X49165Y34986D01*
X49210Y35019D01*
X49247Y35043D01*
X49284Y35068D01*
X49317Y35084D01*
X49341Y35096D01*
X49366Y35105D01*
X49382Y35113D01*
X49391Y35117D01*
X49395D01*
X49333Y35150D01*
X49276Y35183D01*
X49231Y35215D01*
X49194Y35244D01*
X49165Y35269D01*
X49145Y35289D01*
X49132Y35302D01*
X49128Y35306D01*
X49095Y35351D01*
X49058Y35408D01*
X49026Y35470D01*
X48997Y35531D01*
X48968Y35588D01*
X48948Y35634D01*
X48944Y35654D01*
X48935Y35666D01*
X48931Y35675D01*
Y35679D01*
X48911Y35728D01*
X48890Y35773D01*
X48874Y35814D01*
X48858Y35851D01*
X48841Y35880D01*
X48829Y35908D01*
X48804Y35953D01*
X48788Y35982D01*
X48776Y36003D01*
X48767Y36011D01*
X48763Y36015D01*
X48739Y36035D01*
X48706Y36048D01*
X48669Y36060D01*
X48628Y36064D01*
X48591Y36068D01*
X48558Y36072D01*
X48529D01*
X48398Y36068D01*
Y36454D01*
X48579D01*
X48652Y36450D01*
X48714Y36441D01*
X48763Y36437D01*
X48800Y36429D01*
X48829Y36421D01*
X48845Y36417D01*
X48849D01*
X48890Y36400D01*
X48927Y36380D01*
X48960Y36355D01*
X48989Y36335D01*
X49013Y36310D01*
X49030Y36294D01*
X49042Y36281D01*
X49046Y36277D01*
X49062Y36257D01*
X49079Y36228D01*
X49116Y36167D01*
X49157Y36097D01*
X49190Y36023D01*
X49222Y35958D01*
X49235Y35925D01*
X49247Y35900D01*
X49259Y35880D01*
X49263Y35863D01*
X49272Y35851D01*
Y35847D01*
X49304Y35773D01*
X49333Y35707D01*
X49358Y35650D01*
X49386Y35597D01*
X49407Y35552D01*
X49431Y35511D01*
X49448Y35474D01*
X49468Y35445D01*
X49485Y35420D01*
X49497Y35400D01*
X49509Y35383D01*
X49518Y35371D01*
X49530Y35355D01*
X49534Y35351D01*
X49571Y35322D01*
X49620Y35302D01*
X49669Y35289D01*
X49718Y35281D01*
X49768Y35273D01*
X49805Y35269D01*
X49841D01*
Y36454D01*
X50305D01*
Y33711D01*
D02*
G37*
G36*
X53253D02*
X52757D01*
X51465Y35789D01*
Y33711D01*
X51002D01*
Y36454D01*
X51498D01*
X52789Y34359D01*
Y36454D01*
X53253D01*
Y33711D01*
D02*
G37*
G36*
X25217D02*
X24721D01*
X23429Y35789D01*
Y33711D01*
X22966D01*
Y36454D01*
X23462D01*
X24754Y34359D01*
Y36454D01*
X25217D01*
Y33711D01*
D02*
G37*
G36*
X57615D02*
X57131D01*
Y36933D01*
X56041Y33711D01*
X55590D01*
X54483Y36880D01*
Y33711D01*
X53999D01*
Y37495D01*
X54675D01*
X55586Y34863D01*
X55610Y34789D01*
X55635Y34723D01*
X55655Y34658D01*
X55676Y34600D01*
X55692Y34543D01*
X55709Y34494D01*
X55725Y34449D01*
X55737Y34408D01*
X55750Y34375D01*
X55758Y34342D01*
X55766Y34317D01*
X55774Y34293D01*
X55778Y34277D01*
X55782Y34264D01*
X55787Y34260D01*
Y34256D01*
X55799Y34293D01*
X55811Y34334D01*
X55840Y34420D01*
X55869Y34514D01*
X55897Y34604D01*
X55926Y34686D01*
X55938Y34723D01*
X55946Y34752D01*
X55955Y34777D01*
X55963Y34797D01*
X55967Y34809D01*
Y34814D01*
X56865Y37495D01*
X57615D01*
Y33711D01*
D02*
G37*
G36*
X36119Y37556D02*
X36209Y37552D01*
X36377Y37524D01*
X36459Y37507D01*
X36533Y37487D01*
X36607Y37466D01*
X36672Y37446D01*
X36730Y37425D01*
X36783Y37405D01*
X36832Y37384D01*
X36869Y37368D01*
X36902Y37352D01*
X36922Y37339D01*
X36939Y37335D01*
X36943Y37331D01*
X37017Y37286D01*
X37091Y37237D01*
X37156Y37183D01*
X37218Y37130D01*
X37275Y37073D01*
X37328Y37019D01*
X37373Y36962D01*
X37418Y36913D01*
X37455Y36860D01*
X37488Y36814D01*
X37517Y36773D01*
X37541Y36737D01*
X37558Y36704D01*
X37570Y36683D01*
X37578Y36667D01*
X37582Y36663D01*
X37624Y36581D01*
X37656Y36490D01*
X37685Y36404D01*
X37714Y36318D01*
X37755Y36142D01*
X37767Y36060D01*
X37779Y35982D01*
X37788Y35908D01*
X37796Y35843D01*
X37800Y35781D01*
X37804Y35728D01*
X37808Y35687D01*
Y35654D01*
Y35638D01*
Y35629D01*
X37804Y35531D01*
X37800Y35433D01*
X37775Y35244D01*
X37763Y35154D01*
X37747Y35072D01*
X37726Y34994D01*
X37710Y34920D01*
X37689Y34855D01*
X37673Y34793D01*
X37656Y34744D01*
X37640Y34699D01*
X37628Y34666D01*
X37619Y34637D01*
X37615Y34621D01*
X37611Y34617D01*
X37570Y34531D01*
X37529Y34449D01*
X37484Y34375D01*
X37435Y34305D01*
X37386Y34240D01*
X37341Y34182D01*
X37291Y34129D01*
X37246Y34080D01*
X37201Y34035D01*
X37160Y33998D01*
X37123Y33969D01*
X37091Y33940D01*
X37066Y33920D01*
X37045Y33907D01*
X37033Y33899D01*
X37029Y33895D01*
X36955Y33850D01*
X36877Y33813D01*
X36795Y33780D01*
X36709Y33752D01*
X36627Y33731D01*
X36545Y33711D01*
X36463Y33694D01*
X36385Y33682D01*
X36312Y33670D01*
X36246Y33661D01*
X36184Y33657D01*
X36135Y33653D01*
X36090Y33649D01*
X36033D01*
X35922Y33653D01*
X35820Y33661D01*
X35721Y33678D01*
X35627Y33698D01*
X35537Y33723D01*
X35455Y33752D01*
X35381Y33780D01*
X35311Y33809D01*
X35245Y33838D01*
X35192Y33867D01*
X35143Y33895D01*
X35106Y33920D01*
X35073Y33940D01*
X35053Y33957D01*
X35036Y33965D01*
X35032Y33969D01*
X34958Y34035D01*
X34889Y34104D01*
X34827Y34178D01*
X34770Y34252D01*
X34717Y34330D01*
X34672Y34412D01*
X34631Y34486D01*
X34594Y34563D01*
X34561Y34633D01*
X34536Y34699D01*
X34512Y34760D01*
X34495Y34809D01*
X34479Y34855D01*
X34471Y34883D01*
X34462Y34904D01*
Y34912D01*
X34963Y35039D01*
X34983Y34953D01*
X35012Y34871D01*
X35041Y34793D01*
X35069Y34723D01*
X35102Y34658D01*
X35135Y34600D01*
X35168Y34547D01*
X35200Y34498D01*
X35233Y34457D01*
X35262Y34420D01*
X35291Y34387D01*
X35311Y34363D01*
X35332Y34342D01*
X35348Y34330D01*
X35356Y34322D01*
X35360Y34317D01*
X35418Y34277D01*
X35475Y34240D01*
X35533Y34207D01*
X35594Y34178D01*
X35656Y34154D01*
X35713Y34133D01*
X35828Y34104D01*
X35877Y34096D01*
X35926Y34088D01*
X35967Y34084D01*
X36004Y34080D01*
X36033Y34076D01*
X36074D01*
X36139Y34080D01*
X36201Y34084D01*
X36320Y34104D01*
X36430Y34133D01*
X36525Y34166D01*
X36566Y34182D01*
X36603Y34194D01*
X36635Y34211D01*
X36664Y34223D01*
X36689Y34236D01*
X36705Y34244D01*
X36713Y34252D01*
X36717D01*
X36771Y34289D01*
X36820Y34326D01*
X36910Y34412D01*
X36984Y34498D01*
X37045Y34588D01*
X37091Y34666D01*
X37111Y34699D01*
X37127Y34732D01*
X37136Y34756D01*
X37144Y34773D01*
X37152Y34785D01*
Y34789D01*
X37197Y34928D01*
X37234Y35072D01*
X37259Y35215D01*
X37267Y35281D01*
X37275Y35347D01*
X37279Y35408D01*
X37283Y35461D01*
X37287Y35511D01*
Y35552D01*
X37291Y35588D01*
Y35613D01*
Y35629D01*
Y35634D01*
X37287Y35773D01*
X37275Y35904D01*
X37255Y36027D01*
X37246Y36085D01*
X37234Y36138D01*
X37222Y36183D01*
X37214Y36228D01*
X37201Y36265D01*
X37193Y36298D01*
X37189Y36322D01*
X37181Y36343D01*
X37177Y36355D01*
Y36359D01*
X37123Y36486D01*
X37062Y36597D01*
X36996Y36691D01*
X36959Y36732D01*
X36926Y36773D01*
X36894Y36806D01*
X36865Y36835D01*
X36836Y36864D01*
X36816Y36884D01*
X36795Y36900D01*
X36779Y36913D01*
X36771Y36917D01*
X36767Y36921D01*
X36709Y36958D01*
X36652Y36991D01*
X36590Y37019D01*
X36529Y37044D01*
X36406Y37081D01*
X36287Y37110D01*
X36238Y37118D01*
X36189Y37122D01*
X36143Y37126D01*
X36107Y37130D01*
X36074Y37134D01*
X35963D01*
X35897Y37126D01*
X35774Y37106D01*
X35668Y37073D01*
X35623Y37056D01*
X35578Y37040D01*
X35537Y37023D01*
X35504Y37007D01*
X35475Y36991D01*
X35451Y36974D01*
X35430Y36962D01*
X35418Y36954D01*
X35410Y36950D01*
X35405Y36946D01*
X35360Y36909D01*
X35315Y36868D01*
X35241Y36773D01*
X35172Y36671D01*
X35118Y36573D01*
X35077Y36482D01*
X35057Y36445D01*
X35045Y36413D01*
X35032Y36384D01*
X35028Y36359D01*
X35020Y36347D01*
Y36343D01*
X34528Y36458D01*
X34561Y36552D01*
X34598Y36642D01*
X34635Y36728D01*
X34680Y36806D01*
X34721Y36880D01*
X34766Y36946D01*
X34811Y37007D01*
X34856Y37060D01*
X34901Y37110D01*
X34938Y37151D01*
X34975Y37187D01*
X35008Y37216D01*
X35032Y37241D01*
X35053Y37257D01*
X35065Y37265D01*
X35069Y37269D01*
X35143Y37323D01*
X35221Y37364D01*
X35299Y37405D01*
X35381Y37438D01*
X35463Y37466D01*
X35541Y37491D01*
X35619Y37507D01*
X35692Y37524D01*
X35762Y37536D01*
X35824Y37544D01*
X35881Y37552D01*
X35930Y37556D01*
X35971Y37561D01*
X36024D01*
X36119Y37556D01*
D02*
G37*
G36*
X32884Y36511D02*
X32986Y36499D01*
X33077Y36478D01*
X33167Y36454D01*
X33249Y36425D01*
X33327Y36392D01*
X33396Y36359D01*
X33458Y36322D01*
X33515Y36285D01*
X33564Y36253D01*
X33610Y36220D01*
X33642Y36191D01*
X33671Y36167D01*
X33692Y36146D01*
X33704Y36134D01*
X33708Y36130D01*
X33770Y36056D01*
X33823Y35974D01*
X33872Y35888D01*
X33913Y35802D01*
X33946Y35712D01*
X33974Y35621D01*
X33999Y35535D01*
X34016Y35449D01*
X34032Y35371D01*
X34040Y35293D01*
X34048Y35228D01*
X34056Y35170D01*
Y35121D01*
X34061Y35084D01*
Y35064D01*
Y35056D01*
X34056Y34933D01*
X34044Y34818D01*
X34028Y34711D01*
X34007Y34613D01*
X33979Y34518D01*
X33950Y34432D01*
X33917Y34354D01*
X33884Y34285D01*
X33856Y34223D01*
X33823Y34170D01*
X33794Y34125D01*
X33765Y34088D01*
X33745Y34055D01*
X33729Y34035D01*
X33716Y34022D01*
X33712Y34018D01*
X33642Y33953D01*
X33569Y33895D01*
X33495Y33846D01*
X33413Y33805D01*
X33335Y33768D01*
X33253Y33739D01*
X33175Y33715D01*
X33101Y33694D01*
X33031Y33682D01*
X32966Y33670D01*
X32908Y33661D01*
X32855Y33653D01*
X32814D01*
X32781Y33649D01*
X32757D01*
X32671Y33653D01*
X32585Y33657D01*
X32507Y33670D01*
X32433Y33686D01*
X32363Y33702D01*
X32302Y33723D01*
X32240Y33744D01*
X32187Y33764D01*
X32138Y33784D01*
X32097Y33805D01*
X32060Y33825D01*
X32027Y33842D01*
X32006Y33858D01*
X31986Y33871D01*
X31978Y33875D01*
X31974Y33879D01*
X31916Y33924D01*
X31867Y33973D01*
X31822Y34026D01*
X31777Y34080D01*
X31703Y34190D01*
X31646Y34293D01*
X31625Y34342D01*
X31605Y34387D01*
X31588Y34428D01*
X31576Y34465D01*
X31564Y34494D01*
X31556Y34514D01*
X31551Y34531D01*
Y34535D01*
X32035Y34596D01*
X32076Y34494D01*
X32125Y34404D01*
X32175Y34326D01*
X32220Y34268D01*
X32261Y34219D01*
X32293Y34186D01*
X32314Y34170D01*
X32318Y34162D01*
X32322D01*
X32392Y34117D01*
X32466Y34088D01*
X32539Y34063D01*
X32605Y34047D01*
X32667Y34039D01*
X32716Y34035D01*
X32732Y34031D01*
X32757D01*
X32818Y34035D01*
X32880Y34043D01*
X32937Y34051D01*
X32991Y34067D01*
X33089Y34104D01*
X33171Y34149D01*
X33208Y34170D01*
X33241Y34194D01*
X33265Y34215D01*
X33290Y34231D01*
X33306Y34248D01*
X33318Y34260D01*
X33327Y34264D01*
X33331Y34268D01*
X33372Y34317D01*
X33409Y34367D01*
X33437Y34424D01*
X33466Y34477D01*
X33511Y34596D01*
X33544Y34707D01*
X33556Y34760D01*
X33564Y34809D01*
X33573Y34850D01*
X33577Y34892D01*
X33581Y34920D01*
X33585Y34945D01*
Y34961D01*
Y34965D01*
X31539D01*
X31535Y35019D01*
Y35060D01*
Y35080D01*
Y35088D01*
X31539Y35211D01*
X31551Y35326D01*
X31568Y35437D01*
X31588Y35539D01*
X31617Y35634D01*
X31646Y35720D01*
X31679Y35798D01*
X31707Y35867D01*
X31740Y35929D01*
X31773Y35986D01*
X31802Y36031D01*
X31830Y36068D01*
X31851Y36101D01*
X31867Y36121D01*
X31879Y36134D01*
X31883Y36138D01*
X31949Y36204D01*
X32023Y36261D01*
X32097Y36314D01*
X32171Y36355D01*
X32244Y36392D01*
X32322Y36425D01*
X32392Y36450D01*
X32462Y36470D01*
X32527Y36482D01*
X32589Y36495D01*
X32642Y36503D01*
X32691Y36511D01*
X32728D01*
X32757Y36515D01*
X32781D01*
X32884Y36511D01*
D02*
G37*
G36*
X21285Y36507D02*
X21408Y36490D01*
X21519Y36462D01*
X21568Y36445D01*
X21617Y36433D01*
X21658Y36417D01*
X21695Y36400D01*
X21728Y36388D01*
X21757Y36372D01*
X21781Y36363D01*
X21798Y36355D01*
X21806Y36347D01*
X21810D01*
X21916Y36277D01*
X22007Y36199D01*
X22084Y36113D01*
X22146Y36035D01*
X22195Y35962D01*
X22212Y35929D01*
X22228Y35900D01*
X22240Y35880D01*
X22249Y35863D01*
X22257Y35851D01*
Y35847D01*
X22306Y35720D01*
X22339Y35584D01*
X22363Y35453D01*
X22384Y35334D01*
X22388Y35277D01*
X22392Y35228D01*
X22396Y35183D01*
Y35142D01*
X22400Y35113D01*
Y35088D01*
Y35072D01*
Y35068D01*
X22396Y34945D01*
X22384Y34826D01*
X22367Y34715D01*
X22347Y34613D01*
X22322Y34518D01*
X22294Y34432D01*
X22261Y34354D01*
X22228Y34285D01*
X22199Y34223D01*
X22166Y34166D01*
X22138Y34121D01*
X22113Y34084D01*
X22093Y34051D01*
X22076Y34031D01*
X22064Y34018D01*
X22060Y34014D01*
X21994Y33948D01*
X21925Y33895D01*
X21851Y33846D01*
X21777Y33805D01*
X21699Y33768D01*
X21625Y33739D01*
X21552Y33715D01*
X21482Y33694D01*
X21416Y33678D01*
X21355Y33670D01*
X21297Y33661D01*
X21252Y33653D01*
X21211D01*
X21182Y33649D01*
X21158D01*
X21076Y33653D01*
X20998Y33661D01*
X20924Y33674D01*
X20850Y33690D01*
X20785Y33711D01*
X20723Y33735D01*
X20666Y33756D01*
X20613Y33784D01*
X20568Y33809D01*
X20522Y33830D01*
X20490Y33854D01*
X20457Y33875D01*
X20436Y33891D01*
X20416Y33903D01*
X20408Y33912D01*
X20403Y33916D01*
X20350Y33969D01*
X20297Y34022D01*
X20252Y34084D01*
X20215Y34145D01*
X20178Y34207D01*
X20145Y34268D01*
X20096Y34383D01*
X20076Y34440D01*
X20059Y34490D01*
X20047Y34535D01*
X20034Y34576D01*
X20026Y34609D01*
X20022Y34633D01*
X20018Y34650D01*
Y34654D01*
X20473Y34715D01*
X20485Y34650D01*
X20498Y34592D01*
X20514Y34535D01*
X20531Y34486D01*
X20551Y34436D01*
X20568Y34395D01*
X20588Y34359D01*
X20608Y34322D01*
X20629Y34293D01*
X20645Y34268D01*
X20678Y34227D01*
X20699Y34203D01*
X20703Y34199D01*
X20707Y34194D01*
X20781Y34141D01*
X20854Y34100D01*
X20932Y34071D01*
X21002Y34051D01*
X21068Y34039D01*
X21092Y34035D01*
X21117D01*
X21137Y34031D01*
X21162D01*
X21224Y34035D01*
X21285Y34043D01*
X21338Y34055D01*
X21392Y34071D01*
X21486Y34108D01*
X21568Y34158D01*
X21601Y34178D01*
X21629Y34203D01*
X21654Y34223D01*
X21679Y34244D01*
X21695Y34256D01*
X21707Y34268D01*
X21711Y34277D01*
X21715Y34281D01*
X21752Y34330D01*
X21785Y34387D01*
X21814Y34449D01*
X21834Y34510D01*
X21875Y34646D01*
X21900Y34777D01*
X21908Y34838D01*
X21912Y34896D01*
X21916Y34949D01*
X21921Y34994D01*
X21925Y35031D01*
Y35060D01*
Y35080D01*
Y35084D01*
X21921Y35183D01*
X21916Y35277D01*
X21904Y35359D01*
X21892Y35437D01*
X21875Y35511D01*
X21855Y35576D01*
X21834Y35634D01*
X21814Y35687D01*
X21798Y35732D01*
X21777Y35773D01*
X21757Y35806D01*
X21740Y35830D01*
X21728Y35855D01*
X21715Y35867D01*
X21711Y35875D01*
X21707Y35880D01*
X21666Y35925D01*
X21621Y35962D01*
X21572Y35998D01*
X21527Y36027D01*
X21478Y36052D01*
X21433Y36072D01*
X21342Y36101D01*
X21260Y36121D01*
X21228Y36126D01*
X21195Y36130D01*
X21170Y36134D01*
X21137D01*
X21055Y36130D01*
X20978Y36113D01*
X20912Y36089D01*
X20854Y36064D01*
X20809Y36035D01*
X20773Y36015D01*
X20752Y35998D01*
X20744Y35990D01*
X20686Y35933D01*
X20637Y35867D01*
X20600Y35798D01*
X20568Y35732D01*
X20543Y35671D01*
X20527Y35621D01*
X20522Y35601D01*
X20518Y35588D01*
X20514Y35580D01*
Y35576D01*
X20063Y35646D01*
X20080Y35720D01*
X20104Y35794D01*
X20129Y35859D01*
X20153Y35921D01*
X20182Y35978D01*
X20215Y36031D01*
X20244Y36076D01*
X20276Y36121D01*
X20305Y36158D01*
X20334Y36191D01*
X20358Y36220D01*
X20383Y36244D01*
X20399Y36261D01*
X20416Y36273D01*
X20424Y36281D01*
X20428Y36285D01*
X20481Y36327D01*
X20539Y36363D01*
X20600Y36392D01*
X20662Y36417D01*
X20785Y36458D01*
X20900Y36486D01*
X20953Y36495D01*
X21002Y36503D01*
X21047Y36507D01*
X21084Y36511D01*
X21113Y36515D01*
X21158D01*
X21285Y36507D01*
D02*
G37*
G36*
X28021Y33711D02*
X26791D01*
X26705Y33715D01*
X26623Y33719D01*
X26545Y33727D01*
X26476Y33739D01*
X26410Y33752D01*
X26349Y33768D01*
X26295Y33784D01*
X26246Y33805D01*
X26205Y33821D01*
X26164Y33838D01*
X26135Y33854D01*
X26107Y33867D01*
X26086Y33879D01*
X26074Y33887D01*
X26066Y33895D01*
X26061D01*
X26016Y33932D01*
X25975Y33973D01*
X25943Y34018D01*
X25910Y34063D01*
X25881Y34113D01*
X25861Y34162D01*
X25824Y34256D01*
X25799Y34342D01*
X25791Y34379D01*
X25787Y34408D01*
X25783Y34436D01*
X25779Y34457D01*
Y34469D01*
Y34473D01*
X25783Y34563D01*
X25799Y34641D01*
X25820Y34715D01*
X25844Y34777D01*
X25869Y34826D01*
X25889Y34863D01*
X25906Y34887D01*
X25910Y34896D01*
X25959Y34957D01*
X26012Y35006D01*
X26066Y35051D01*
X26119Y35084D01*
X26160Y35109D01*
X26197Y35125D01*
X26221Y35133D01*
X26226Y35138D01*
X26230D01*
X26172Y35174D01*
X26123Y35215D01*
X26078Y35256D01*
X26045Y35297D01*
X26016Y35330D01*
X26000Y35355D01*
X25988Y35371D01*
X25984Y35379D01*
X25955Y35437D01*
X25934Y35494D01*
X25922Y35552D01*
X25910Y35609D01*
X25906Y35654D01*
X25902Y35691D01*
Y35716D01*
Y35720D01*
Y35724D01*
X25906Y35814D01*
X25922Y35892D01*
X25947Y35966D01*
X25971Y36027D01*
X25996Y36076D01*
X26021Y36113D01*
X26037Y36134D01*
X26041Y36142D01*
X26094Y36204D01*
X26152Y36253D01*
X26209Y36298D01*
X26258Y36331D01*
X26303Y36355D01*
X26340Y36372D01*
X26365Y36380D01*
X26369Y36384D01*
X26373D01*
X26410Y36396D01*
X26451Y36408D01*
X26545Y36425D01*
X26640Y36437D01*
X26734Y36445D01*
X26820Y36450D01*
X26857Y36454D01*
X28021D01*
Y33711D01*
D02*
G37*
G36*
X69890Y37556D02*
X70030Y37536D01*
X70161Y37511D01*
X70284Y37479D01*
X70403Y37438D01*
X70510Y37393D01*
X70608Y37343D01*
X70698Y37294D01*
X70780Y37245D01*
X70850Y37196D01*
X70907Y37151D01*
X70961Y37110D01*
X70998Y37077D01*
X71026Y37052D01*
X71047Y37032D01*
X71051Y37028D01*
X71141Y36925D01*
X71219Y36810D01*
X71285Y36696D01*
X71342Y36573D01*
X71391Y36450D01*
X71432Y36327D01*
X71465Y36208D01*
X71494Y36089D01*
X71514Y35978D01*
X71526Y35880D01*
X71539Y35785D01*
X71547Y35707D01*
X71551Y35642D01*
Y35617D01*
X71555Y35593D01*
Y35576D01*
Y35564D01*
Y35556D01*
Y35552D01*
X71551Y35461D01*
X71547Y35367D01*
X71522Y35195D01*
X71506Y35113D01*
X71490Y35035D01*
X71469Y34961D01*
X71448Y34896D01*
X71428Y34830D01*
X71408Y34777D01*
X71391Y34727D01*
X71375Y34686D01*
X71362Y34654D01*
X71350Y34629D01*
X71346Y34613D01*
X71342Y34609D01*
X71297Y34527D01*
X71252Y34449D01*
X71202Y34379D01*
X71149Y34309D01*
X71096Y34248D01*
X71043Y34190D01*
X70993Y34137D01*
X70940Y34088D01*
X70891Y34047D01*
X70846Y34010D01*
X70805Y33977D01*
X70772Y33953D01*
X70743Y33932D01*
X70719Y33916D01*
X70706Y33907D01*
X70702Y33903D01*
X70620Y33858D01*
X70538Y33821D01*
X70456Y33784D01*
X70374Y33756D01*
X70292Y33731D01*
X70214Y33711D01*
X70136Y33694D01*
X70067Y33682D01*
X69997Y33670D01*
X69940Y33661D01*
X69882Y33657D01*
X69837Y33653D01*
X69800Y33649D01*
X69747D01*
X69657Y33653D01*
X69567Y33657D01*
X69394Y33686D01*
X69317Y33702D01*
X69239Y33723D01*
X69169Y33744D01*
X69103Y33764D01*
X69042Y33784D01*
X68989Y33805D01*
X68943Y33825D01*
X68902Y33842D01*
X68870Y33858D01*
X68849Y33871D01*
X68833Y33875D01*
X68829Y33879D01*
X68751Y33924D01*
X68677Y33977D01*
X68607Y34031D01*
X68546Y34084D01*
X68488Y34141D01*
X68431Y34199D01*
X68382Y34256D01*
X68337Y34309D01*
X68300Y34363D01*
X68263Y34412D01*
X68234Y34457D01*
X68209Y34494D01*
X68193Y34523D01*
X68181Y34547D01*
X68173Y34563D01*
X68168Y34568D01*
X68128Y34654D01*
X68091Y34744D01*
X68062Y34830D01*
X68033Y34920D01*
X68009Y35006D01*
X67992Y35092D01*
X67976Y35174D01*
X67963Y35252D01*
X67955Y35326D01*
X67947Y35392D01*
X67943Y35449D01*
X67939Y35498D01*
X67935Y35539D01*
Y35572D01*
Y35588D01*
Y35597D01*
X67939Y35703D01*
X67943Y35802D01*
X67955Y35900D01*
X67968Y35994D01*
X67984Y36081D01*
X68005Y36167D01*
X68025Y36244D01*
X68046Y36314D01*
X68066Y36380D01*
X68086Y36437D01*
X68103Y36490D01*
X68123Y36531D01*
X68136Y36564D01*
X68148Y36589D01*
X68152Y36605D01*
X68156Y36609D01*
X68201Y36691D01*
X68246Y36769D01*
X68300Y36843D01*
X68349Y36909D01*
X68402Y36970D01*
X68455Y37028D01*
X68509Y37081D01*
X68562Y37130D01*
X68611Y37171D01*
X68656Y37208D01*
X68693Y37241D01*
X68730Y37265D01*
X68759Y37286D01*
X68779Y37298D01*
X68796Y37306D01*
X68800Y37310D01*
X68882Y37356D01*
X68960Y37393D01*
X69042Y37425D01*
X69124Y37454D01*
X69206Y37479D01*
X69284Y37499D01*
X69358Y37516D01*
X69431Y37528D01*
X69497Y37540D01*
X69554Y37548D01*
X69608Y37552D01*
X69657Y37556D01*
X69694Y37561D01*
X69743D01*
X69890Y37556D01*
D02*
G37*
G36*
X65778D02*
X65918Y37536D01*
X66049Y37511D01*
X66172Y37479D01*
X66291Y37438D01*
X66397Y37393D01*
X66496Y37343D01*
X66586Y37294D01*
X66668Y37245D01*
X66738Y37196D01*
X66795Y37151D01*
X66848Y37110D01*
X66885Y37077D01*
X66914Y37052D01*
X66934Y37032D01*
X66939Y37028D01*
X67029Y36925D01*
X67107Y36810D01*
X67172Y36696D01*
X67230Y36573D01*
X67279Y36450D01*
X67320Y36327D01*
X67353Y36208D01*
X67381Y36089D01*
X67402Y35978D01*
X67414Y35880D01*
X67426Y35785D01*
X67435Y35707D01*
X67439Y35642D01*
Y35617D01*
X67443Y35593D01*
Y35576D01*
Y35564D01*
Y35556D01*
Y35552D01*
X67439Y35461D01*
X67435Y35367D01*
X67410Y35195D01*
X67394Y35113D01*
X67377Y35035D01*
X67357Y34961D01*
X67336Y34896D01*
X67316Y34830D01*
X67295Y34777D01*
X67279Y34727D01*
X67262Y34686D01*
X67250Y34654D01*
X67238Y34629D01*
X67234Y34613D01*
X67230Y34609D01*
X67185Y34527D01*
X67139Y34449D01*
X67090Y34379D01*
X67037Y34309D01*
X66984Y34248D01*
X66930Y34190D01*
X66881Y34137D01*
X66828Y34088D01*
X66779Y34047D01*
X66733Y34010D01*
X66693Y33977D01*
X66660Y33953D01*
X66631Y33932D01*
X66606Y33916D01*
X66594Y33907D01*
X66590Y33903D01*
X66508Y33858D01*
X66426Y33821D01*
X66344Y33784D01*
X66262Y33756D01*
X66180Y33731D01*
X66102Y33711D01*
X66024Y33694D01*
X65955Y33682D01*
X65885Y33670D01*
X65827Y33661D01*
X65770Y33657D01*
X65725Y33653D01*
X65688Y33649D01*
X65635D01*
X65544Y33653D01*
X65454Y33657D01*
X65282Y33686D01*
X65204Y33702D01*
X65126Y33723D01*
X65057Y33744D01*
X64991Y33764D01*
X64929Y33784D01*
X64876Y33805D01*
X64831Y33825D01*
X64790Y33842D01*
X64757Y33858D01*
X64737Y33871D01*
X64720Y33875D01*
X64716Y33879D01*
X64638Y33924D01*
X64565Y33977D01*
X64495Y34031D01*
X64433Y34084D01*
X64376Y34141D01*
X64319Y34199D01*
X64269Y34256D01*
X64224Y34309D01*
X64187Y34363D01*
X64151Y34412D01*
X64122Y34457D01*
X64097Y34494D01*
X64081Y34523D01*
X64069Y34547D01*
X64060Y34563D01*
X64056Y34568D01*
X64015Y34654D01*
X63978Y34744D01*
X63950Y34830D01*
X63921Y34920D01*
X63896Y35006D01*
X63880Y35092D01*
X63863Y35174D01*
X63851Y35252D01*
X63843Y35326D01*
X63835Y35392D01*
X63831Y35449D01*
X63827Y35498D01*
X63823Y35539D01*
Y35572D01*
Y35588D01*
Y35597D01*
X63827Y35703D01*
X63831Y35802D01*
X63843Y35900D01*
X63855Y35994D01*
X63872Y36081D01*
X63892Y36167D01*
X63913Y36244D01*
X63933Y36314D01*
X63954Y36380D01*
X63974Y36437D01*
X63991Y36490D01*
X64011Y36531D01*
X64023Y36564D01*
X64036Y36589D01*
X64040Y36605D01*
X64044Y36609D01*
X64089Y36691D01*
X64134Y36769D01*
X64187Y36843D01*
X64237Y36909D01*
X64290Y36970D01*
X64343Y37028D01*
X64397Y37081D01*
X64450Y37130D01*
X64499Y37171D01*
X64544Y37208D01*
X64581Y37241D01*
X64618Y37265D01*
X64647Y37286D01*
X64667Y37298D01*
X64684Y37306D01*
X64688Y37310D01*
X64770Y37356D01*
X64847Y37393D01*
X64929Y37425D01*
X65012Y37454D01*
X65093Y37479D01*
X65171Y37499D01*
X65245Y37516D01*
X65319Y37528D01*
X65385Y37540D01*
X65442Y37548D01*
X65495Y37552D01*
X65544Y37556D01*
X65581Y37561D01*
X65631D01*
X65778Y37556D01*
D02*
G37*
G36*
X61666D02*
X61805Y37536D01*
X61936Y37511D01*
X62059Y37479D01*
X62178Y37438D01*
X62285Y37393D01*
X62383Y37343D01*
X62474Y37294D01*
X62556Y37245D01*
X62625Y37196D01*
X62683Y37151D01*
X62736Y37110D01*
X62773Y37077D01*
X62802Y37052D01*
X62822Y37032D01*
X62826Y37028D01*
X62916Y36925D01*
X62994Y36810D01*
X63060Y36696D01*
X63117Y36573D01*
X63166Y36450D01*
X63208Y36327D01*
X63240Y36208D01*
X63269Y36089D01*
X63289Y35978D01*
X63302Y35880D01*
X63314Y35785D01*
X63322Y35707D01*
X63326Y35642D01*
Y35617D01*
X63331Y35593D01*
Y35576D01*
Y35564D01*
Y35556D01*
Y35552D01*
X63326Y35461D01*
X63322Y35367D01*
X63298Y35195D01*
X63281Y35113D01*
X63265Y35035D01*
X63244Y34961D01*
X63224Y34896D01*
X63203Y34830D01*
X63183Y34777D01*
X63166Y34727D01*
X63150Y34686D01*
X63138Y34654D01*
X63125Y34629D01*
X63121Y34613D01*
X63117Y34609D01*
X63072Y34527D01*
X63027Y34449D01*
X62978Y34379D01*
X62925Y34309D01*
X62871Y34248D01*
X62818Y34190D01*
X62769Y34137D01*
X62716Y34088D01*
X62666Y34047D01*
X62621Y34010D01*
X62580Y33977D01*
X62547Y33953D01*
X62519Y33932D01*
X62494Y33916D01*
X62482Y33907D01*
X62478Y33903D01*
X62396Y33858D01*
X62314Y33821D01*
X62232Y33784D01*
X62150Y33756D01*
X62068Y33731D01*
X61990Y33711D01*
X61912Y33694D01*
X61842Y33682D01*
X61773Y33670D01*
X61715Y33661D01*
X61658Y33657D01*
X61613Y33653D01*
X61576Y33649D01*
X61522D01*
X61432Y33653D01*
X61342Y33657D01*
X61170Y33686D01*
X61092Y33702D01*
X61014Y33723D01*
X60944Y33744D01*
X60879Y33764D01*
X60817Y33784D01*
X60764Y33805D01*
X60719Y33825D01*
X60678Y33842D01*
X60645Y33858D01*
X60624Y33871D01*
X60608Y33875D01*
X60604Y33879D01*
X60526Y33924D01*
X60452Y33977D01*
X60383Y34031D01*
X60321Y34084D01*
X60264Y34141D01*
X60206Y34199D01*
X60157Y34256D01*
X60112Y34309D01*
X60075Y34363D01*
X60038Y34412D01*
X60009Y34457D01*
X59985Y34494D01*
X59969Y34523D01*
X59956Y34547D01*
X59948Y34563D01*
X59944Y34568D01*
X59903Y34654D01*
X59866Y34744D01*
X59837Y34830D01*
X59809Y34920D01*
X59784Y35006D01*
X59768Y35092D01*
X59751Y35174D01*
X59739Y35252D01*
X59731Y35326D01*
X59723Y35392D01*
X59718Y35449D01*
X59714Y35498D01*
X59710Y35539D01*
Y35572D01*
Y35588D01*
Y35597D01*
X59714Y35703D01*
X59718Y35802D01*
X59731Y35900D01*
X59743Y35994D01*
X59759Y36081D01*
X59780Y36167D01*
X59800Y36244D01*
X59821Y36314D01*
X59841Y36380D01*
X59862Y36437D01*
X59878Y36490D01*
X59899Y36531D01*
X59911Y36564D01*
X59923Y36589D01*
X59927Y36605D01*
X59932Y36609D01*
X59977Y36691D01*
X60022Y36769D01*
X60075Y36843D01*
X60124Y36909D01*
X60178Y36970D01*
X60231Y37028D01*
X60284Y37081D01*
X60338Y37130D01*
X60387Y37171D01*
X60432Y37208D01*
X60469Y37241D01*
X60506Y37265D01*
X60534Y37286D01*
X60555Y37298D01*
X60571Y37306D01*
X60575Y37310D01*
X60657Y37356D01*
X60735Y37393D01*
X60817Y37425D01*
X60899Y37454D01*
X60981Y37479D01*
X61059Y37499D01*
X61133Y37516D01*
X61207Y37528D01*
X61272Y37540D01*
X61330Y37548D01*
X61383Y37552D01*
X61432Y37556D01*
X61469Y37561D01*
X61518D01*
X61666Y37556D01*
D02*
G37*
G36*
X44032Y36511D02*
X44122Y36503D01*
X44204Y36486D01*
X44286Y36466D01*
X44364Y36445D01*
X44434Y36417D01*
X44499Y36392D01*
X44557Y36363D01*
X44614Y36335D01*
X44659Y36306D01*
X44700Y36277D01*
X44737Y36257D01*
X44762Y36236D01*
X44782Y36220D01*
X44794Y36212D01*
X44798Y36208D01*
X44872Y36134D01*
X44938Y36056D01*
X44995Y35970D01*
X45044Y35880D01*
X45081Y35785D01*
X45118Y35691D01*
X45147Y35597D01*
X45167Y35506D01*
X45184Y35420D01*
X45200Y35342D01*
X45208Y35269D01*
X45213Y35203D01*
X45217Y35154D01*
X45221Y35113D01*
Y35088D01*
Y35084D01*
Y35080D01*
X45217Y34953D01*
X45204Y34834D01*
X45188Y34723D01*
X45167Y34621D01*
X45139Y34527D01*
X45110Y34440D01*
X45077Y34363D01*
X45044Y34289D01*
X45012Y34227D01*
X44979Y34170D01*
X44950Y34125D01*
X44921Y34088D01*
X44901Y34055D01*
X44885Y34035D01*
X44872Y34022D01*
X44868Y34018D01*
X44798Y33953D01*
X44725Y33895D01*
X44651Y33846D01*
X44573Y33805D01*
X44495Y33768D01*
X44417Y33739D01*
X44343Y33715D01*
X44270Y33694D01*
X44200Y33682D01*
X44138Y33670D01*
X44081Y33661D01*
X44032Y33653D01*
X43991D01*
X43962Y33649D01*
X43938D01*
X43806Y33657D01*
X43683Y33674D01*
X43573Y33702D01*
X43519Y33715D01*
X43474Y33731D01*
X43429Y33748D01*
X43392Y33760D01*
X43359Y33776D01*
X43331Y33789D01*
X43306Y33797D01*
X43290Y33805D01*
X43281Y33813D01*
X43277D01*
X43171Y33883D01*
X43077Y33957D01*
X42999Y34035D01*
X42933Y34113D01*
X42880Y34178D01*
X42859Y34211D01*
X42843Y34236D01*
X42831Y34256D01*
X42822Y34272D01*
X42814Y34281D01*
Y34285D01*
X42785Y34346D01*
X42761Y34408D01*
X42720Y34543D01*
X42691Y34682D01*
X42675Y34814D01*
X42667Y34875D01*
X42662Y34933D01*
X42658Y34986D01*
Y35031D01*
X42654Y35068D01*
Y35092D01*
Y35113D01*
Y35117D01*
X42658Y35236D01*
X42671Y35351D01*
X42687Y35457D01*
X42712Y35556D01*
X42736Y35646D01*
X42769Y35728D01*
X42802Y35806D01*
X42835Y35875D01*
X42867Y35937D01*
X42900Y35990D01*
X42933Y36035D01*
X42958Y36072D01*
X42982Y36105D01*
X42999Y36126D01*
X43011Y36138D01*
X43015Y36142D01*
X43085Y36208D01*
X43159Y36265D01*
X43232Y36314D01*
X43310Y36359D01*
X43388Y36392D01*
X43462Y36425D01*
X43540Y36450D01*
X43609Y36470D01*
X43679Y36482D01*
X43741Y36495D01*
X43794Y36503D01*
X43843Y36511D01*
X43884D01*
X43913Y36515D01*
X43938D01*
X44032Y36511D01*
D02*
G37*
G36*
X46869D02*
X46959Y36499D01*
X47037Y36482D01*
X47103Y36462D01*
X47156Y36441D01*
X47197Y36425D01*
X47222Y36413D01*
X47226Y36408D01*
X47230D01*
X47300Y36363D01*
X47361Y36314D01*
X47418Y36261D01*
X47468Y36212D01*
X47509Y36167D01*
X47541Y36126D01*
X47558Y36101D01*
X47566Y36097D01*
Y36454D01*
X47988D01*
Y32661D01*
X47525D01*
Y33994D01*
X47480Y33940D01*
X47431Y33891D01*
X47381Y33846D01*
X47332Y33813D01*
X47291Y33784D01*
X47254Y33760D01*
X47234Y33748D01*
X47226Y33744D01*
X47156Y33711D01*
X47082Y33690D01*
X47012Y33674D01*
X46947Y33661D01*
X46889Y33653D01*
X46848Y33649D01*
X46808D01*
X46746Y33653D01*
X46689Y33657D01*
X46578Y33678D01*
X46475Y33707D01*
X46385Y33739D01*
X46344Y33756D01*
X46307Y33768D01*
X46279Y33784D01*
X46250Y33797D01*
X46229Y33809D01*
X46213Y33817D01*
X46205Y33825D01*
X46201D01*
X46098Y33899D01*
X46012Y33981D01*
X45934Y34067D01*
X45873Y34154D01*
X45823Y34227D01*
X45807Y34260D01*
X45791Y34289D01*
X45778Y34309D01*
X45770Y34326D01*
X45762Y34338D01*
Y34342D01*
X45713Y34473D01*
X45676Y34604D01*
X45647Y34732D01*
X45631Y34846D01*
X45623Y34900D01*
X45619Y34949D01*
X45614Y34994D01*
Y35031D01*
X45610Y35060D01*
Y35080D01*
Y35096D01*
Y35101D01*
X45614Y35244D01*
X45631Y35379D01*
X45655Y35502D01*
X45668Y35556D01*
X45680Y35609D01*
X45692Y35654D01*
X45705Y35699D01*
X45717Y35736D01*
X45729Y35765D01*
X45737Y35789D01*
X45746Y35806D01*
X45750Y35818D01*
Y35822D01*
X45807Y35937D01*
X45869Y36040D01*
X45938Y36126D01*
X46004Y36199D01*
X46061Y36257D01*
X46110Y36298D01*
X46131Y36310D01*
X46143Y36322D01*
X46152Y36331D01*
X46156D01*
X46205Y36363D01*
X46258Y36392D01*
X46365Y36437D01*
X46467Y36470D01*
X46566Y36490D01*
X46611Y36499D01*
X46648Y36507D01*
X46685Y36511D01*
X46717D01*
X46742Y36515D01*
X46775D01*
X46869Y36511D01*
D02*
G37*
G36*
X29846D02*
X29936Y36499D01*
X30014Y36482D01*
X30079Y36462D01*
X30133Y36441D01*
X30174Y36425D01*
X30198Y36413D01*
X30202Y36408D01*
X30207D01*
X30276Y36363D01*
X30338Y36314D01*
X30395Y36261D01*
X30444Y36212D01*
X30485Y36167D01*
X30518Y36126D01*
X30535Y36101D01*
X30543Y36097D01*
Y36454D01*
X30965D01*
Y32661D01*
X30502D01*
Y33994D01*
X30457Y33940D01*
X30408Y33891D01*
X30358Y33846D01*
X30309Y33813D01*
X30268Y33784D01*
X30231Y33760D01*
X30211Y33748D01*
X30202Y33744D01*
X30133Y33711D01*
X30059Y33690D01*
X29989Y33674D01*
X29924Y33661D01*
X29866Y33653D01*
X29825Y33649D01*
X29784D01*
X29723Y33653D01*
X29665Y33657D01*
X29555Y33678D01*
X29452Y33707D01*
X29362Y33739D01*
X29321Y33756D01*
X29284Y33768D01*
X29255Y33784D01*
X29227Y33797D01*
X29206Y33809D01*
X29190Y33817D01*
X29182Y33825D01*
X29177D01*
X29075Y33899D01*
X28989Y33981D01*
X28911Y34067D01*
X28850Y34154D01*
X28800Y34227D01*
X28784Y34260D01*
X28767Y34289D01*
X28755Y34309D01*
X28747Y34326D01*
X28739Y34338D01*
Y34342D01*
X28690Y34473D01*
X28653Y34604D01*
X28624Y34732D01*
X28608Y34846D01*
X28599Y34900D01*
X28595Y34949D01*
X28591Y34994D01*
Y35031D01*
X28587Y35060D01*
Y35080D01*
Y35096D01*
Y35101D01*
X28591Y35244D01*
X28608Y35379D01*
X28632Y35502D01*
X28644Y35556D01*
X28657Y35609D01*
X28669Y35654D01*
X28681Y35699D01*
X28694Y35736D01*
X28706Y35765D01*
X28714Y35789D01*
X28722Y35806D01*
X28727Y35818D01*
Y35822D01*
X28784Y35937D01*
X28845Y36040D01*
X28915Y36126D01*
X28981Y36199D01*
X29038Y36257D01*
X29087Y36298D01*
X29108Y36310D01*
X29120Y36322D01*
X29128Y36331D01*
X29132D01*
X29182Y36363D01*
X29235Y36392D01*
X29342Y36437D01*
X29444Y36470D01*
X29542Y36490D01*
X29588Y36499D01*
X29624Y36507D01*
X29661Y36511D01*
X29694D01*
X29719Y36515D01*
X29752D01*
X29846Y36511D01*
D02*
G37*
%LPC*%
G36*
X242759Y71496D02*
X241657D01*
X241607Y71492D01*
X241557D01*
X241515Y71488D01*
X241474Y71484D01*
X241441Y71480D01*
X241411D01*
X241361Y71472D01*
X241328Y71463D01*
X241307Y71459D01*
X241303D01*
X241232Y71434D01*
X241170Y71401D01*
X241116Y71363D01*
X241066Y71326D01*
X241033Y71293D01*
X241004Y71264D01*
X240987Y71243D01*
X240983Y71234D01*
X240941Y71168D01*
X240912Y71097D01*
X240887Y71031D01*
X240875Y70964D01*
X240866Y70910D01*
X240858Y70864D01*
Y70848D01*
Y70835D01*
Y70827D01*
Y70823D01*
X240862Y70760D01*
X240866Y70706D01*
X240891Y70602D01*
X240925Y70515D01*
X240962Y70440D01*
X241000Y70382D01*
X241033Y70340D01*
X241045Y70328D01*
X241058Y70315D01*
X241062Y70311D01*
X241066Y70307D01*
X241108Y70274D01*
X241158Y70249D01*
X241208Y70224D01*
X241262Y70203D01*
X241378Y70170D01*
X241494Y70149D01*
X241549Y70140D01*
X241603Y70132D01*
X241649Y70128D01*
X241690D01*
X241723Y70124D01*
X242759D01*
Y71496D01*
D02*
G37*
G36*
X221011D02*
X219908D01*
X219858Y71492D01*
X219809D01*
X219767Y71488D01*
X219725Y71484D01*
X219692Y71480D01*
X219663D01*
X219613Y71472D01*
X219580Y71463D01*
X219559Y71459D01*
X219555D01*
X219484Y71434D01*
X219422Y71401D01*
X219368Y71363D01*
X219318Y71326D01*
X219284Y71293D01*
X219255Y71264D01*
X219238Y71243D01*
X219234Y71234D01*
X219193Y71168D01*
X219164Y71097D01*
X219139Y71031D01*
X219126Y70964D01*
X219118Y70910D01*
X219110Y70864D01*
Y70848D01*
Y70835D01*
Y70827D01*
Y70823D01*
X219114Y70760D01*
X219118Y70706D01*
X219143Y70602D01*
X219176Y70515D01*
X219214Y70440D01*
X219251Y70382D01*
X219284Y70340D01*
X219297Y70328D01*
X219309Y70315D01*
X219313Y70311D01*
X219318Y70307D01*
X219359Y70274D01*
X219409Y70249D01*
X219459Y70224D01*
X219513Y70203D01*
X219630Y70170D01*
X219746Y70149D01*
X219800Y70140D01*
X219854Y70132D01*
X219900Y70128D01*
X219942D01*
X219975Y70124D01*
X221011D01*
Y71496D01*
D02*
G37*
G36*
X213581D02*
X212741D01*
X212670Y71492D01*
X212608D01*
X212549Y71488D01*
X212495Y71484D01*
X212449Y71480D01*
X212404Y71476D01*
X212366Y71472D01*
X212337Y71463D01*
X212308Y71459D01*
X212283Y71455D01*
X212266Y71451D01*
X212250Y71447D01*
X212241D01*
X212233Y71442D01*
X212171Y71417D01*
X212121Y71388D01*
X212075Y71355D01*
X212038Y71322D01*
X212009Y71293D01*
X211988Y71268D01*
X211975Y71251D01*
X211971Y71243D01*
X211938Y71189D01*
X211917Y71130D01*
X211900Y71072D01*
X211888Y71018D01*
X211879Y70972D01*
X211875Y70939D01*
Y70914D01*
Y70910D01*
Y70906D01*
X211879Y70831D01*
X211892Y70768D01*
X211909Y70710D01*
X211925Y70660D01*
X211942Y70623D01*
X211959Y70594D01*
X211971Y70577D01*
X211975Y70569D01*
X212017Y70523D01*
X212063Y70481D01*
X212112Y70448D01*
X212158Y70423D01*
X212200Y70402D01*
X212233Y70390D01*
X212258Y70382D01*
X212262Y70377D01*
X212266D01*
X212296Y70369D01*
X212329Y70365D01*
X212404Y70353D01*
X212487Y70344D01*
X212566Y70340D01*
X212637D01*
X212670Y70336D01*
X213581D01*
Y71496D01*
D02*
G37*
G36*
Y69882D02*
X212695D01*
X212566Y69878D01*
X212454Y69874D01*
X212404Y69866D01*
X212358Y69862D01*
X212316Y69858D01*
X212275Y69849D01*
X212241Y69845D01*
X212212Y69837D01*
X212192Y69832D01*
X212171Y69828D01*
X212154Y69824D01*
X212142Y69820D01*
X212137Y69816D01*
X212133D01*
X212063Y69787D01*
X212004Y69753D01*
X211950Y69720D01*
X211905Y69683D01*
X211871Y69649D01*
X211846Y69620D01*
X211830Y69604D01*
X211825Y69595D01*
X211788Y69533D01*
X211759Y69471D01*
X211742Y69408D01*
X211726Y69350D01*
X211717Y69296D01*
X211713Y69258D01*
Y69242D01*
Y69229D01*
Y69225D01*
Y69221D01*
X211717Y69154D01*
X211726Y69092D01*
X211738Y69038D01*
X211751Y68992D01*
X211767Y68951D01*
X211780Y68922D01*
X211788Y68905D01*
X211792Y68897D01*
X211821Y68847D01*
X211855Y68805D01*
X211888Y68768D01*
X211917Y68738D01*
X211946Y68713D01*
X211967Y68697D01*
X211983Y68688D01*
X211988Y68684D01*
X212033Y68659D01*
X212083Y68639D01*
X212129Y68618D01*
X212175Y68605D01*
X212216Y68593D01*
X212250Y68585D01*
X212270Y68580D01*
X212279D01*
X212320Y68576D01*
X212374Y68572D01*
X212433Y68568D01*
X212487D01*
X212541Y68564D01*
X213581D01*
Y69882D01*
D02*
G37*
G36*
X250247Y71580D02*
X250151D01*
X250081Y71571D01*
X249952Y71551D01*
X249835Y71517D01*
X249785Y71501D01*
X249735Y71484D01*
X249690Y71463D01*
X249652Y71447D01*
X249619Y71430D01*
X249590Y71413D01*
X249565Y71401D01*
X249548Y71393D01*
X249540Y71388D01*
X249536Y71384D01*
X249428Y71305D01*
X249336Y71218D01*
X249257Y71130D01*
X249190Y71043D01*
X249141Y70964D01*
X249120Y70931D01*
X249103Y70902D01*
X249091Y70877D01*
X249082Y70860D01*
X249074Y70848D01*
Y70843D01*
X249020Y70706D01*
X248978Y70569D01*
X248949Y70432D01*
X248933Y70303D01*
X248924Y70244D01*
X248920Y70190D01*
X248916Y70144D01*
Y70103D01*
X248912Y70070D01*
Y70045D01*
Y70028D01*
Y70024D01*
X248916Y69891D01*
X248928Y69762D01*
X248945Y69645D01*
X248970Y69533D01*
X248999Y69429D01*
X249028Y69337D01*
X249066Y69250D01*
X249099Y69175D01*
X249132Y69104D01*
X249166Y69046D01*
X249199Y68996D01*
X249228Y68955D01*
X249253Y68922D01*
X249270Y68901D01*
X249282Y68884D01*
X249286Y68880D01*
X249357Y68809D01*
X249432Y68747D01*
X249511Y68697D01*
X249590Y68651D01*
X249669Y68609D01*
X249748Y68576D01*
X249823Y68551D01*
X249898Y68530D01*
X249964Y68514D01*
X250031Y68501D01*
X250085Y68493D01*
X250135Y68489D01*
X250177Y68485D01*
X250206Y68480D01*
X250231D01*
X250335Y68485D01*
X250430Y68497D01*
X250526Y68518D01*
X250613Y68543D01*
X250696Y68572D01*
X250771Y68605D01*
X250846Y68643D01*
X250909Y68680D01*
X250967Y68713D01*
X251017Y68751D01*
X251062Y68784D01*
X251100Y68813D01*
X251129Y68838D01*
X251150Y68859D01*
X251162Y68872D01*
X251167Y68876D01*
X251233Y68955D01*
X251287Y69038D01*
X251337Y69125D01*
X251379Y69217D01*
X251416Y69308D01*
X251445Y69396D01*
X251470Y69487D01*
X251491Y69575D01*
X251508Y69654D01*
X251516Y69728D01*
X251524Y69795D01*
X251533Y69853D01*
Y69903D01*
X251537Y69941D01*
Y69962D01*
Y69970D01*
X251533Y70128D01*
X251520Y70274D01*
X251499Y70407D01*
X251474Y70527D01*
X251445Y70640D01*
X251416Y70739D01*
X251379Y70831D01*
X251341Y70914D01*
X251308Y70981D01*
X251271Y71043D01*
X251241Y71093D01*
X251208Y71135D01*
X251187Y71164D01*
X251167Y71189D01*
X251154Y71201D01*
X251150Y71205D01*
X251075Y71272D01*
X250996Y71330D01*
X250917Y71380D01*
X250838Y71422D01*
X250763Y71459D01*
X250684Y71488D01*
X250609Y71513D01*
X250538Y71534D01*
X250472Y71546D01*
X250414Y71559D01*
X250360Y71567D01*
X250314Y71576D01*
X250272D01*
X250247Y71580D01*
D02*
G37*
G36*
X32814Y36134D02*
X32781D01*
X32716Y36130D01*
X32654Y36121D01*
X32597Y36109D01*
X32544Y36093D01*
X32445Y36048D01*
X32400Y36023D01*
X32359Y35998D01*
X32326Y35974D01*
X32293Y35949D01*
X32265Y35925D01*
X32244Y35904D01*
X32228Y35888D01*
X32212Y35875D01*
X32207Y35867D01*
X32203Y35863D01*
X32154Y35794D01*
X32113Y35712D01*
X32084Y35625D01*
X32060Y35539D01*
X32043Y35465D01*
X32039Y35433D01*
X32035Y35404D01*
X32031Y35379D01*
X32027Y35363D01*
Y35351D01*
Y35347D01*
X33560D01*
X33552Y35412D01*
X33544Y35474D01*
X33515Y35584D01*
X33474Y35683D01*
X33454Y35728D01*
X33433Y35765D01*
X33413Y35802D01*
X33392Y35830D01*
X33372Y35855D01*
X33355Y35880D01*
X33343Y35896D01*
X33331Y35908D01*
X33327Y35912D01*
X33323Y35917D01*
X33282Y35953D01*
X33237Y35990D01*
X33191Y36019D01*
X33146Y36044D01*
X33052Y36081D01*
X32970Y36105D01*
X32892Y36121D01*
X32863Y36126D01*
X32835Y36130D01*
X32814Y36134D01*
D02*
G37*
G36*
X27558Y36072D02*
X26988D01*
X26927Y36068D01*
X26869Y36064D01*
X26816Y36060D01*
X26771Y36052D01*
X26726Y36044D01*
X26689Y36035D01*
X26656Y36031D01*
X26627Y36023D01*
X26599Y36015D01*
X26578Y36007D01*
X26562Y35998D01*
X26541Y35990D01*
X26533Y35986D01*
X26480Y35949D01*
X26443Y35900D01*
X26414Y35851D01*
X26398Y35802D01*
X26385Y35752D01*
X26381Y35716D01*
X26377Y35699D01*
Y35687D01*
Y35683D01*
Y35679D01*
X26381Y35629D01*
X26390Y35588D01*
X26406Y35552D01*
X26422Y35519D01*
X26439Y35490D01*
X26455Y35470D01*
X26463Y35457D01*
X26467Y35453D01*
X26500Y35420D01*
X26533Y35392D01*
X26566Y35371D01*
X26599Y35355D01*
X26623Y35342D01*
X26644Y35334D01*
X26660Y35326D01*
X26664D01*
X26689Y35322D01*
X26713Y35318D01*
X26775Y35310D01*
X26840Y35306D01*
X26910Y35302D01*
X26972Y35297D01*
X27558D01*
Y36072D01*
D02*
G37*
G36*
Y34916D02*
X26894D01*
X26804Y34912D01*
X26730Y34908D01*
X26668Y34900D01*
X26619Y34896D01*
X26586Y34887D01*
X26570Y34883D01*
X26562D01*
X26513Y34871D01*
X26471Y34850D01*
X26430Y34826D01*
X26402Y34801D01*
X26373Y34777D01*
X26357Y34760D01*
X26344Y34744D01*
X26340Y34740D01*
X26312Y34699D01*
X26291Y34654D01*
X26275Y34613D01*
X26267Y34576D01*
X26258Y34547D01*
X26254Y34518D01*
Y34502D01*
Y34498D01*
X26262Y34420D01*
X26283Y34354D01*
X26307Y34297D01*
X26336Y34256D01*
X26361Y34223D01*
X26385Y34199D01*
X26402Y34186D01*
X26410Y34182D01*
X26439Y34166D01*
X26476Y34154D01*
X26558Y34129D01*
X26648Y34113D01*
X26734Y34104D01*
X26820Y34096D01*
X26857D01*
X26886Y34092D01*
X27558D01*
Y34916D01*
D02*
G37*
G36*
X69767Y37130D02*
X69673D01*
X69604Y37122D01*
X69476Y37101D01*
X69362Y37069D01*
X69312Y37052D01*
X69263Y37036D01*
X69218Y37015D01*
X69181Y36999D01*
X69148Y36983D01*
X69120Y36966D01*
X69095Y36954D01*
X69079Y36946D01*
X69071Y36941D01*
X69066Y36937D01*
X68960Y36860D01*
X68870Y36773D01*
X68792Y36687D01*
X68726Y36601D01*
X68677Y36523D01*
X68656Y36490D01*
X68640Y36462D01*
X68628Y36437D01*
X68620Y36421D01*
X68611Y36408D01*
Y36404D01*
X68558Y36269D01*
X68517Y36134D01*
X68488Y35998D01*
X68472Y35871D01*
X68464Y35814D01*
X68460Y35761D01*
X68455Y35716D01*
Y35675D01*
X68451Y35642D01*
Y35617D01*
Y35601D01*
Y35597D01*
X68455Y35465D01*
X68468Y35338D01*
X68484Y35224D01*
X68509Y35113D01*
X68537Y35010D01*
X68566Y34920D01*
X68603Y34834D01*
X68636Y34760D01*
X68669Y34691D01*
X68701Y34633D01*
X68734Y34584D01*
X68763Y34543D01*
X68788Y34510D01*
X68804Y34490D01*
X68816Y34473D01*
X68820Y34469D01*
X68890Y34400D01*
X68964Y34338D01*
X69042Y34289D01*
X69120Y34244D01*
X69198Y34203D01*
X69275Y34170D01*
X69349Y34145D01*
X69423Y34125D01*
X69489Y34108D01*
X69554Y34096D01*
X69608Y34088D01*
X69657Y34084D01*
X69698Y34080D01*
X69727Y34076D01*
X69751D01*
X69854Y34080D01*
X69948Y34092D01*
X70042Y34113D01*
X70128Y34137D01*
X70210Y34166D01*
X70284Y34199D01*
X70358Y34236D01*
X70419Y34272D01*
X70477Y34305D01*
X70526Y34342D01*
X70571Y34375D01*
X70608Y34404D01*
X70637Y34428D01*
X70657Y34449D01*
X70670Y34461D01*
X70674Y34465D01*
X70739Y34543D01*
X70793Y34625D01*
X70842Y34711D01*
X70883Y34801D01*
X70920Y34892D01*
X70948Y34978D01*
X70973Y35068D01*
X70993Y35154D01*
X71010Y35232D01*
X71018Y35306D01*
X71026Y35371D01*
X71034Y35429D01*
Y35478D01*
X71039Y35515D01*
Y35535D01*
Y35543D01*
X71034Y35699D01*
X71022Y35843D01*
X71002Y35974D01*
X70977Y36093D01*
X70948Y36204D01*
X70920Y36302D01*
X70883Y36392D01*
X70846Y36474D01*
X70813Y36540D01*
X70776Y36601D01*
X70747Y36650D01*
X70715Y36691D01*
X70694Y36720D01*
X70674Y36745D01*
X70661Y36757D01*
X70657Y36761D01*
X70583Y36827D01*
X70505Y36884D01*
X70428Y36933D01*
X70350Y36974D01*
X70276Y37011D01*
X70198Y37040D01*
X70124Y37064D01*
X70055Y37085D01*
X69989Y37097D01*
X69932Y37110D01*
X69878Y37118D01*
X69833Y37126D01*
X69792D01*
X69767Y37130D01*
D02*
G37*
G36*
X65655D02*
X65561D01*
X65491Y37122D01*
X65364Y37101D01*
X65249Y37069D01*
X65200Y37052D01*
X65151Y37036D01*
X65106Y37015D01*
X65069Y36999D01*
X65036Y36983D01*
X65007Y36966D01*
X64983Y36954D01*
X64966Y36946D01*
X64958Y36941D01*
X64954Y36937D01*
X64847Y36860D01*
X64757Y36773D01*
X64679Y36687D01*
X64614Y36601D01*
X64565Y36523D01*
X64544Y36490D01*
X64528Y36462D01*
X64515Y36437D01*
X64507Y36421D01*
X64499Y36408D01*
Y36404D01*
X64446Y36269D01*
X64405Y36134D01*
X64376Y35998D01*
X64360Y35871D01*
X64351Y35814D01*
X64347Y35761D01*
X64343Y35716D01*
Y35675D01*
X64339Y35642D01*
Y35617D01*
Y35601D01*
Y35597D01*
X64343Y35465D01*
X64355Y35338D01*
X64372Y35224D01*
X64397Y35113D01*
X64425Y35010D01*
X64454Y34920D01*
X64491Y34834D01*
X64524Y34760D01*
X64556Y34691D01*
X64589Y34633D01*
X64622Y34584D01*
X64651Y34543D01*
X64675Y34510D01*
X64692Y34490D01*
X64704Y34473D01*
X64708Y34469D01*
X64778Y34400D01*
X64852Y34338D01*
X64929Y34289D01*
X65007Y34244D01*
X65085Y34203D01*
X65163Y34170D01*
X65237Y34145D01*
X65311Y34125D01*
X65376Y34108D01*
X65442Y34096D01*
X65495Y34088D01*
X65544Y34084D01*
X65586Y34080D01*
X65614Y34076D01*
X65639D01*
X65741Y34080D01*
X65836Y34092D01*
X65930Y34113D01*
X66016Y34137D01*
X66098Y34166D01*
X66172Y34199D01*
X66246Y34236D01*
X66307Y34272D01*
X66365Y34305D01*
X66414Y34342D01*
X66459Y34375D01*
X66496Y34404D01*
X66524Y34428D01*
X66545Y34449D01*
X66557Y34461D01*
X66561Y34465D01*
X66627Y34543D01*
X66680Y34625D01*
X66729Y34711D01*
X66770Y34801D01*
X66807Y34892D01*
X66836Y34978D01*
X66861Y35068D01*
X66881Y35154D01*
X66897Y35232D01*
X66906Y35306D01*
X66914Y35371D01*
X66922Y35429D01*
Y35478D01*
X66926Y35515D01*
Y35535D01*
Y35543D01*
X66922Y35699D01*
X66910Y35843D01*
X66889Y35974D01*
X66865Y36093D01*
X66836Y36204D01*
X66807Y36302D01*
X66770Y36392D01*
X66733Y36474D01*
X66701Y36540D01*
X66664Y36601D01*
X66635Y36650D01*
X66602Y36691D01*
X66582Y36720D01*
X66561Y36745D01*
X66549Y36757D01*
X66545Y36761D01*
X66471Y36827D01*
X66393Y36884D01*
X66315Y36933D01*
X66237Y36974D01*
X66164Y37011D01*
X66086Y37040D01*
X66012Y37064D01*
X65942Y37085D01*
X65877Y37097D01*
X65819Y37110D01*
X65766Y37118D01*
X65721Y37126D01*
X65680D01*
X65655Y37130D01*
D02*
G37*
G36*
X61543D02*
X61449D01*
X61379Y37122D01*
X61252Y37101D01*
X61137Y37069D01*
X61088Y37052D01*
X61039Y37036D01*
X60993Y37015D01*
X60957Y36999D01*
X60924Y36983D01*
X60895Y36966D01*
X60870Y36954D01*
X60854Y36946D01*
X60846Y36941D01*
X60842Y36937D01*
X60735Y36860D01*
X60645Y36773D01*
X60567Y36687D01*
X60501Y36601D01*
X60452Y36523D01*
X60432Y36490D01*
X60415Y36462D01*
X60403Y36437D01*
X60395Y36421D01*
X60387Y36408D01*
Y36404D01*
X60333Y36269D01*
X60292Y36134D01*
X60264Y35998D01*
X60247Y35871D01*
X60239Y35814D01*
X60235Y35761D01*
X60231Y35716D01*
Y35675D01*
X60227Y35642D01*
Y35617D01*
Y35601D01*
Y35597D01*
X60231Y35465D01*
X60243Y35338D01*
X60260Y35224D01*
X60284Y35113D01*
X60313Y35010D01*
X60342Y34920D01*
X60378Y34834D01*
X60411Y34760D01*
X60444Y34691D01*
X60477Y34633D01*
X60510Y34584D01*
X60538Y34543D01*
X60563Y34510D01*
X60579Y34490D01*
X60592Y34473D01*
X60596Y34469D01*
X60666Y34400D01*
X60739Y34338D01*
X60817Y34289D01*
X60895Y34244D01*
X60973Y34203D01*
X61051Y34170D01*
X61125Y34145D01*
X61199Y34125D01*
X61264Y34108D01*
X61330Y34096D01*
X61383Y34088D01*
X61432Y34084D01*
X61473Y34080D01*
X61502Y34076D01*
X61527D01*
X61629Y34080D01*
X61723Y34092D01*
X61818Y34113D01*
X61904Y34137D01*
X61986Y34166D01*
X62059Y34199D01*
X62133Y34236D01*
X62195Y34272D01*
X62252Y34305D01*
X62301Y34342D01*
X62347Y34375D01*
X62383Y34404D01*
X62412Y34428D01*
X62433Y34449D01*
X62445Y34461D01*
X62449Y34465D01*
X62515Y34543D01*
X62568Y34625D01*
X62617Y34711D01*
X62658Y34801D01*
X62695Y34892D01*
X62724Y34978D01*
X62748Y35068D01*
X62769Y35154D01*
X62785Y35232D01*
X62793Y35306D01*
X62802Y35371D01*
X62810Y35429D01*
Y35478D01*
X62814Y35515D01*
Y35535D01*
Y35543D01*
X62810Y35699D01*
X62797Y35843D01*
X62777Y35974D01*
X62752Y36093D01*
X62724Y36204D01*
X62695Y36302D01*
X62658Y36392D01*
X62621Y36474D01*
X62588Y36540D01*
X62551Y36601D01*
X62523Y36650D01*
X62490Y36691D01*
X62470Y36720D01*
X62449Y36745D01*
X62437Y36757D01*
X62433Y36761D01*
X62359Y36827D01*
X62281Y36884D01*
X62203Y36933D01*
X62125Y36974D01*
X62051Y37011D01*
X61973Y37040D01*
X61900Y37064D01*
X61830Y37085D01*
X61764Y37097D01*
X61707Y37110D01*
X61654Y37118D01*
X61608Y37126D01*
X61567D01*
X61543Y37130D01*
D02*
G37*
G36*
X43970Y36130D02*
X43938D01*
X43876Y36126D01*
X43815Y36117D01*
X43757Y36105D01*
X43704Y36089D01*
X43605Y36048D01*
X43519Y35998D01*
X43486Y35974D01*
X43454Y35949D01*
X43429Y35929D01*
X43404Y35908D01*
X43388Y35892D01*
X43376Y35880D01*
X43368Y35871D01*
X43363Y35867D01*
X43323Y35814D01*
X43286Y35761D01*
X43257Y35699D01*
X43228Y35638D01*
X43204Y35572D01*
X43187Y35506D01*
X43159Y35383D01*
X43150Y35326D01*
X43142Y35273D01*
X43138Y35224D01*
X43134Y35179D01*
X43130Y35146D01*
Y35117D01*
Y35101D01*
Y35096D01*
X43134Y34998D01*
X43138Y34908D01*
X43150Y34822D01*
X43167Y34744D01*
X43183Y34670D01*
X43204Y34604D01*
X43224Y34543D01*
X43245Y34494D01*
X43269Y34445D01*
X43290Y34404D01*
X43310Y34371D01*
X43327Y34342D01*
X43343Y34322D01*
X43355Y34305D01*
X43359Y34297D01*
X43363Y34293D01*
X43409Y34248D01*
X43454Y34207D01*
X43503Y34170D01*
X43548Y34141D01*
X43597Y34117D01*
X43646Y34096D01*
X43737Y34063D01*
X43815Y34043D01*
X43851Y34039D01*
X43880Y34035D01*
X43905Y34031D01*
X43938D01*
X44003Y34035D01*
X44061Y34043D01*
X44122Y34055D01*
X44175Y34071D01*
X44274Y34113D01*
X44356Y34162D01*
X44393Y34182D01*
X44425Y34207D01*
X44450Y34227D01*
X44475Y34248D01*
X44491Y34264D01*
X44503Y34277D01*
X44512Y34285D01*
X44516Y34289D01*
X44557Y34342D01*
X44589Y34400D01*
X44622Y34461D01*
X44647Y34523D01*
X44688Y34654D01*
X44717Y34785D01*
X44725Y34842D01*
X44733Y34900D01*
X44737Y34949D01*
X44741Y34994D01*
X44745Y35031D01*
Y35056D01*
Y35076D01*
Y35080D01*
X44741Y35174D01*
X44737Y35265D01*
X44725Y35347D01*
X44708Y35425D01*
X44692Y35494D01*
X44671Y35560D01*
X44651Y35617D01*
X44630Y35671D01*
X44610Y35716D01*
X44589Y35757D01*
X44569Y35789D01*
X44552Y35818D01*
X44536Y35839D01*
X44524Y35855D01*
X44520Y35863D01*
X44516Y35867D01*
X44471Y35912D01*
X44425Y35953D01*
X44376Y35990D01*
X44327Y36019D01*
X44278Y36044D01*
X44233Y36064D01*
X44138Y36097D01*
X44061Y36117D01*
X44024Y36121D01*
X43995Y36126D01*
X43970Y36130D01*
D02*
G37*
G36*
X46848Y36150D02*
X46820D01*
X46766Y36146D01*
X46713Y36138D01*
X46660Y36126D01*
X46611Y36109D01*
X46525Y36068D01*
X46451Y36019D01*
X46389Y35970D01*
X46361Y35949D01*
X46340Y35929D01*
X46324Y35912D01*
X46311Y35900D01*
X46307Y35892D01*
X46303Y35888D01*
X46266Y35835D01*
X46229Y35777D01*
X46201Y35720D01*
X46176Y35654D01*
X46139Y35523D01*
X46115Y35396D01*
X46102Y35334D01*
X46098Y35281D01*
X46094Y35232D01*
X46090Y35187D01*
X46086Y35150D01*
Y35125D01*
Y35105D01*
Y35101D01*
X46090Y35002D01*
X46094Y34908D01*
X46106Y34822D01*
X46119Y34744D01*
X46135Y34670D01*
X46156Y34600D01*
X46176Y34543D01*
X46197Y34490D01*
X46217Y34440D01*
X46238Y34400D01*
X46254Y34367D01*
X46275Y34338D01*
X46287Y34317D01*
X46299Y34301D01*
X46303Y34293D01*
X46307Y34289D01*
X46348Y34244D01*
X46393Y34203D01*
X46439Y34170D01*
X46484Y34141D01*
X46529Y34117D01*
X46574Y34092D01*
X46656Y34063D01*
X46730Y34043D01*
X46762Y34039D01*
X46787Y34035D01*
X46812Y34031D01*
X46840D01*
X46898Y34035D01*
X46951Y34043D01*
X47000Y34055D01*
X47049Y34071D01*
X47135Y34108D01*
X47213Y34158D01*
X47275Y34203D01*
X47300Y34223D01*
X47320Y34244D01*
X47336Y34256D01*
X47349Y34268D01*
X47353Y34277D01*
X47357Y34281D01*
X47394Y34330D01*
X47427Y34387D01*
X47455Y34449D01*
X47480Y34510D01*
X47517Y34641D01*
X47541Y34769D01*
X47554Y34826D01*
X47558Y34883D01*
X47562Y34933D01*
X47566Y34978D01*
X47570Y35015D01*
Y35039D01*
Y35060D01*
Y35064D01*
X47566Y35162D01*
X47562Y35252D01*
X47550Y35334D01*
X47533Y35412D01*
X47517Y35486D01*
X47500Y35552D01*
X47480Y35613D01*
X47455Y35666D01*
X47435Y35716D01*
X47414Y35757D01*
X47398Y35789D01*
X47381Y35818D01*
X47365Y35843D01*
X47353Y35859D01*
X47349Y35867D01*
X47345Y35871D01*
X47300Y35921D01*
X47254Y35962D01*
X47209Y36003D01*
X47164Y36031D01*
X47119Y36060D01*
X47078Y36081D01*
X46996Y36117D01*
X46926Y36134D01*
X46894Y36142D01*
X46869Y36146D01*
X46848Y36150D01*
D02*
G37*
G36*
X29825D02*
X29797D01*
X29743Y36146D01*
X29690Y36138D01*
X29637Y36126D01*
X29588Y36109D01*
X29501Y36068D01*
X29428Y36019D01*
X29366Y35970D01*
X29337Y35949D01*
X29317Y35929D01*
X29300Y35912D01*
X29288Y35900D01*
X29284Y35892D01*
X29280Y35888D01*
X29243Y35835D01*
X29206Y35777D01*
X29177Y35720D01*
X29153Y35654D01*
X29116Y35523D01*
X29091Y35396D01*
X29079Y35334D01*
X29075Y35281D01*
X29071Y35232D01*
X29067Y35187D01*
X29063Y35150D01*
Y35125D01*
Y35105D01*
Y35101D01*
X29067Y35002D01*
X29071Y34908D01*
X29083Y34822D01*
X29096Y34744D01*
X29112Y34670D01*
X29132Y34600D01*
X29153Y34543D01*
X29173Y34490D01*
X29194Y34440D01*
X29214Y34400D01*
X29231Y34367D01*
X29251Y34338D01*
X29264Y34317D01*
X29276Y34301D01*
X29280Y34293D01*
X29284Y34289D01*
X29325Y34244D01*
X29370Y34203D01*
X29415Y34170D01*
X29460Y34141D01*
X29506Y34117D01*
X29551Y34092D01*
X29633Y34063D01*
X29706Y34043D01*
X29739Y34039D01*
X29764Y34035D01*
X29788Y34031D01*
X29817D01*
X29875Y34035D01*
X29928Y34043D01*
X29977Y34055D01*
X30026Y34071D01*
X30112Y34108D01*
X30190Y34158D01*
X30252Y34203D01*
X30276Y34223D01*
X30297Y34244D01*
X30313Y34256D01*
X30325Y34268D01*
X30330Y34277D01*
X30334Y34281D01*
X30371Y34330D01*
X30403Y34387D01*
X30432Y34449D01*
X30457Y34510D01*
X30494Y34641D01*
X30518Y34769D01*
X30531Y34826D01*
X30535Y34883D01*
X30539Y34933D01*
X30543Y34978D01*
X30547Y35015D01*
Y35039D01*
Y35060D01*
Y35064D01*
X30543Y35162D01*
X30539Y35252D01*
X30526Y35334D01*
X30510Y35412D01*
X30494Y35486D01*
X30477Y35552D01*
X30457Y35613D01*
X30432Y35666D01*
X30412Y35716D01*
X30391Y35757D01*
X30375Y35789D01*
X30358Y35818D01*
X30342Y35843D01*
X30330Y35859D01*
X30325Y35867D01*
X30321Y35871D01*
X30276Y35921D01*
X30231Y35962D01*
X30186Y36003D01*
X30141Y36031D01*
X30096Y36060D01*
X30055Y36081D01*
X29973Y36117D01*
X29903Y36134D01*
X29870Y36142D01*
X29846Y36146D01*
X29825Y36150D01*
D02*
G37*
%LPD*%
D40*
X416511Y178150D02*
G03*
X416511Y178150I-492J0D01*
G01*
X82973Y116191D02*
G03*
X82973Y116191I-492J0D01*
G01*
D42*
X192840Y194291D02*
Y197441D01*
X198745Y194291D02*
Y197441D01*
X158588Y193898D02*
Y197047D01*
X152682Y193898D02*
Y197047D01*
X174040Y194291D02*
Y197441D01*
X179946Y194291D02*
Y197441D01*
X183440Y194291D02*
Y197441D01*
X189346Y194291D02*
Y197441D01*
X168627Y194095D02*
Y197244D01*
X162722Y194095D02*
Y197244D01*
X169119Y215748D02*
X172269D01*
X169119Y209843D02*
X172269D01*
X377728Y219297D02*
X390720D01*
X377728Y206895D02*
X390720D01*
X419660Y179331D02*
X423204D01*
Y182480D01*
X419660Y191142D02*
X423204D01*
Y187992D02*
Y191142D01*
X53642Y214567D02*
X56791D01*
X53642Y208662D02*
X56791D01*
X67126Y167815D02*
Y170965D01*
X73032Y167815D02*
Y170965D01*
X53642Y175394D02*
X56791D01*
X53642Y169488D02*
X56791D01*
X53642Y179282D02*
X56791D01*
X53642Y185187D02*
X56791D01*
X53642Y194981D02*
X56791D01*
X53642Y189075D02*
X56791D01*
X53642Y198868D02*
X56791D01*
X53642Y204774D02*
X56791D01*
X43110Y209350D02*
Y212500D01*
X37205Y209350D02*
Y212500D01*
X94587Y191043D02*
X97736D01*
X94587Y196949D02*
X97736D01*
X80905Y187402D02*
Y190551D01*
X86811Y187402D02*
Y190551D01*
X66732Y205610D02*
Y208760D01*
X72638Y205610D02*
Y208760D01*
X65453Y185236D02*
Y188386D01*
X71358Y185236D02*
Y188386D01*
X53445Y223819D02*
Y226969D01*
X47539Y223819D02*
Y226969D01*
X122539Y80955D02*
Y82136D01*
X122441D02*
X122539D01*
X117815Y80955D02*
Y82136D01*
X117913D01*
X125492Y69538D02*
X126673D01*
X125492Y69439D02*
Y69538D01*
Y64813D02*
X126673D01*
X125492D02*
Y64912D01*
Y63370D02*
X126673D01*
X125492Y63271D02*
Y63370D01*
Y58645D02*
X126673D01*
X125492D02*
Y58744D01*
Y57201D02*
X126673D01*
X125492Y57103D02*
Y57201D01*
Y52477D02*
X126673D01*
X125492D02*
Y52575D01*
Y51034D02*
X126673D01*
X125492Y50935D02*
Y51034D01*
Y46309D02*
X126673D01*
X125492D02*
Y46408D01*
X111909Y41256D02*
X113091D01*
X111909Y41158D02*
Y41256D01*
Y36532D02*
X113091D01*
X111909D02*
Y36631D01*
X56693Y101034D02*
X59842D01*
X56693Y110482D02*
X59842D01*
X50689Y90207D02*
Y93356D01*
X60138Y90207D02*
Y93356D01*
X75689Y115010D02*
X78839D01*
X75689Y103199D02*
X78839D01*
Y115010D01*
X75689Y103199D02*
Y115010D01*
D64*
X60138Y97392D02*
G03*
X60138Y97392I-394J0D01*
G01*
D81*
X421629Y193622D02*
G03*
X421629Y193622I-39J0D01*
G01*
D83*
X168130Y66240D02*
X257500D01*
X168130Y72539D02*
X257500D01*
Y66240D02*
Y72539D01*
X168130Y66240D02*
Y72539D01*
X80827Y172677D02*
Y177441D01*
X81417Y199646D02*
Y204410D01*
X73465Y190532D02*
X78228D01*
X61713Y86368D02*
X62106D01*
X61713D02*
Y87943D01*
X73130Y86368D02*
X73524D01*
Y87943D01*
X73130Y98179D02*
X73524D01*
Y96604D02*
Y98179D01*
X61713D02*
X62106D01*
X61713Y96604D02*
Y98179D01*
D84*
X177091Y207461D02*
X177583Y207953D01*
X178567D01*
X179059Y207461D01*
Y205493D01*
X178567Y205002D01*
X177583D01*
X177091Y205493D01*
X176107Y205002D02*
X175123D01*
X175615D01*
Y207953D01*
X176107Y207461D01*
X173647D02*
X173155Y207953D01*
X172171D01*
X171679Y207461D01*
Y205493D01*
X172171Y205002D01*
X173155D01*
X173647Y205493D01*
Y207461D01*
X186141Y207502D02*
X186633Y207994D01*
X187617D01*
X188109Y207502D01*
Y205535D01*
X187617Y205043D01*
X186633D01*
X186141Y205535D01*
X185157Y205043D02*
X184174D01*
X184665D01*
Y207994D01*
X185157Y207502D01*
X182698Y205043D02*
X181714D01*
X182206D01*
Y207994D01*
X182698Y207502D01*
X197160Y207471D02*
X197652Y207963D01*
X198636D01*
X199128Y207471D01*
Y205503D01*
X198636Y205011D01*
X197652D01*
X197160Y205503D01*
X196176Y205011D02*
X195192D01*
X195684D01*
Y207963D01*
X196176Y207471D01*
X191748Y205011D02*
X193716D01*
X191748Y206979D01*
Y207471D01*
X192240Y207963D01*
X193224D01*
X193716Y207471D01*
X167056Y207361D02*
X167548Y207853D01*
X168532D01*
X169024Y207361D01*
Y205393D01*
X168532Y204901D01*
X167548D01*
X167056Y205393D01*
X166072Y204901D02*
X165088D01*
X165580D01*
Y207853D01*
X166072Y207361D01*
X163612D02*
X163120Y207853D01*
X162136D01*
X161644Y207361D01*
Y206869D01*
X162136Y206377D01*
X162628D01*
X162136D01*
X161644Y205885D01*
Y205393D01*
X162136Y204901D01*
X163120D01*
X163612Y205393D01*
X157021Y207161D02*
X157513Y207653D01*
X158497D01*
X158989Y207161D01*
Y205193D01*
X158497Y204701D01*
X157513D01*
X157021Y205193D01*
X156037Y204701D02*
X155053D01*
X155545D01*
Y207653D01*
X156037Y207161D01*
X152102Y204701D02*
Y207653D01*
X153578Y206177D01*
X151610D01*
X172269Y221161D02*
X172761Y221653D01*
X173745D01*
X174237Y221161D01*
Y219193D01*
X173745Y218701D01*
X172761D01*
X172269Y219193D01*
X171285Y218701D02*
X170301D01*
X170793D01*
Y221653D01*
X171285Y221161D01*
X166858Y221653D02*
X168825D01*
Y220177D01*
X167842Y220669D01*
X167350D01*
X166858Y220177D01*
Y219193D01*
X167350Y218701D01*
X168334D01*
X168825Y219193D01*
X389149Y221162D02*
Y224113D01*
X387673D01*
X387181Y223621D01*
Y222637D01*
X387673Y222145D01*
X389149D01*
X388165D02*
X387181Y221162D01*
X384721D02*
Y224113D01*
X386197Y222637D01*
X384229D01*
X429109Y178347D02*
Y175395D01*
X430585D01*
X431077Y175887D01*
Y176871D01*
X430585Y177363D01*
X429109D01*
X430093D02*
X431077Y178347D01*
X434029D02*
X432061D01*
X434029Y176379D01*
Y175887D01*
X433537Y175395D01*
X432553D01*
X432061Y175887D01*
X402042Y182087D02*
Y185038D01*
X400566D01*
X400074Y184546D01*
Y183563D01*
X400566Y183071D01*
X402042D01*
X401058D02*
X400074Y182087D01*
X399091D02*
X398107D01*
X398599D01*
Y185038D01*
X399091Y184546D01*
X431669Y185531D02*
Y187499D01*
X432161Y187991D01*
X433145D01*
X433637Y187499D01*
Y185531D01*
X433145Y185039D01*
X432161D01*
X432653Y186023D02*
X431669Y185039D01*
X432161D02*
X431669Y185531D01*
X430685Y185039D02*
X429701D01*
X430193D01*
Y187991D01*
X430685Y187499D01*
X429266Y207242D02*
X427298D01*
X428282D01*
Y204291D01*
X426314D02*
X425330D01*
X425822D01*
Y207242D01*
X426314Y206750D01*
X21653Y57332D02*
X22145Y56840D01*
Y55856D01*
X21653Y55364D01*
X19685D01*
X19193Y55856D01*
Y56840D01*
X19685Y57332D01*
X19193Y60284D02*
Y58316D01*
X21161Y60284D01*
X21653D01*
X22145Y59792D01*
Y58808D01*
X21653Y58316D01*
X65059Y84202D02*
Y81906D01*
X64600Y81447D01*
X63682D01*
X63222Y81906D01*
Y84202D01*
X60467D02*
X61386Y83743D01*
X62304Y82824D01*
Y81906D01*
X61845Y81447D01*
X60927D01*
X60467Y81906D01*
Y82365D01*
X60927Y82824D01*
X62304D01*
X99508Y106250D02*
Y103495D01*
X100885D01*
X101345Y103954D01*
Y104873D01*
X100885Y105332D01*
X99508D01*
X100426D02*
X101345Y106250D01*
X104100D02*
X102263D01*
X104100Y104413D01*
Y103954D01*
X103640Y103495D01*
X102722D01*
X102263Y103954D01*
X105018Y106250D02*
X105936D01*
X105477D01*
Y103495D01*
X105018Y103954D01*
X107776Y49163D02*
Y51919D01*
X106398D01*
X105939Y51459D01*
Y50541D01*
X106398Y50082D01*
X107776D01*
X106857D02*
X105939Y49163D01*
X105021D02*
X104102D01*
X104561D01*
Y51919D01*
X105021Y51459D01*
X100888Y51919D02*
X102725D01*
Y50541D01*
X101806Y51000D01*
X101347D01*
X100888Y50541D01*
Y49623D01*
X101347Y49163D01*
X102266D01*
X102725Y49623D01*
X106791Y68160D02*
Y70915D01*
X105414D01*
X104955Y70455D01*
Y69537D01*
X105414Y69078D01*
X106791D01*
X105873D02*
X104955Y68160D01*
X104036D02*
X103118D01*
X103577D01*
Y70915D01*
X104036Y70455D01*
X100363Y68160D02*
Y70915D01*
X101741Y69537D01*
X99904D01*
X107972Y43652D02*
Y46407D01*
X106595D01*
X106136Y45948D01*
Y45029D01*
X106595Y44570D01*
X107972D01*
X107054D02*
X106136Y43652D01*
X105217D02*
X104299D01*
X104758D01*
Y46407D01*
X105217Y45948D01*
X102922D02*
X102462Y46407D01*
X101544D01*
X101085Y45948D01*
Y45488D01*
X101544Y45029D01*
X102003D01*
X101544D01*
X101085Y44570D01*
Y44111D01*
X101544Y43652D01*
X102462D01*
X102922Y44111D01*
X116634Y97097D02*
Y99852D01*
X115256D01*
X114797Y99392D01*
Y98474D01*
X115256Y98015D01*
X116634D01*
X115716D02*
X114797Y97097D01*
X113879D02*
X112961D01*
X113420D01*
Y99852D01*
X113879Y99392D01*
X109746Y97097D02*
X111583D01*
X109746Y98933D01*
Y99392D01*
X110205Y99852D01*
X111124D01*
X111583Y99392D01*
X106595Y57727D02*
Y60482D01*
X105217D01*
X104758Y60022D01*
Y59104D01*
X105217Y58645D01*
X106595D01*
X105676D02*
X104758Y57727D01*
X103840D02*
X102921D01*
X103380D01*
Y60482D01*
X103840Y60022D01*
X101544Y57727D02*
X100625D01*
X101084D01*
Y60482D01*
X101544Y60022D01*
X106791Y75541D02*
Y78296D01*
X105414D01*
X104955Y77837D01*
Y76919D01*
X105414Y76460D01*
X106791D01*
X105873D02*
X104955Y75541D01*
X104036D02*
X103118D01*
X103577D01*
Y78296D01*
X104036Y77837D01*
X101740D02*
X101281Y78296D01*
X100363D01*
X99904Y77837D01*
Y76001D01*
X100363Y75541D01*
X101281D01*
X101740Y76001D01*
Y77837D01*
X71752Y75640D02*
Y78395D01*
X70375D01*
X69915Y77936D01*
Y77017D01*
X70375Y76558D01*
X71752D01*
X70834D02*
X69915Y75640D01*
X68997D02*
X68079D01*
X68538D01*
Y78395D01*
X68997Y77936D01*
X121490Y55004D02*
X119653D01*
X119194Y55463D01*
Y56381D01*
X119653Y56841D01*
X121490D01*
X121949Y56381D01*
Y55463D01*
X121030Y55922D02*
X121949Y55004D01*
Y55463D02*
X121490Y55004D01*
X119194Y52249D02*
X119653Y53167D01*
X120571Y54086D01*
X121490D01*
X121949Y53626D01*
Y52708D01*
X121490Y52249D01*
X121030D01*
X120571Y52708D01*
Y54086D01*
X114207Y32661D02*
Y34497D01*
X114666Y34956D01*
X115584D01*
X116043Y34497D01*
Y32661D01*
X115584Y32201D01*
X114666D01*
X115125Y33120D02*
X114207Y32201D01*
X114666D02*
X114207Y32661D01*
X111452Y34956D02*
X113288D01*
Y33579D01*
X112370Y34038D01*
X111911D01*
X111452Y33579D01*
Y32661D01*
X111911Y32201D01*
X112829D01*
X113288Y32661D01*
X121391Y68094D02*
X119554D01*
X119095Y68554D01*
Y69472D01*
X119554Y69931D01*
X121391D01*
X121850Y69472D01*
Y68554D01*
X120932Y69013D02*
X121850Y68094D01*
Y68554D02*
X121391Y68094D01*
X121850Y65799D02*
X119095D01*
X120473Y67176D01*
Y65339D01*
X121490Y61598D02*
X119653D01*
X119194Y62058D01*
Y62976D01*
X119653Y63435D01*
X121490D01*
X121949Y62976D01*
Y62058D01*
X121030Y62517D02*
X121949Y61598D01*
Y62058D02*
X121490Y61598D01*
X119653Y60680D02*
X119194Y60221D01*
Y59303D01*
X119653Y58843D01*
X120112D01*
X120571Y59303D01*
Y59762D01*
Y59303D01*
X121030Y58843D01*
X121490D01*
X121949Y59303D01*
Y60221D01*
X121490Y60680D01*
X121785Y49000D02*
X119948D01*
X119489Y49459D01*
Y50378D01*
X119948Y50837D01*
X121785D01*
X122244Y50378D01*
Y49459D01*
X121326Y49918D02*
X122244Y49000D01*
Y49459D02*
X121785Y49000D01*
X122244Y46245D02*
Y48082D01*
X120407Y46245D01*
X119948D01*
X119489Y46704D01*
Y47622D01*
X119948Y48082D01*
X120112Y85351D02*
Y87188D01*
X120571Y87647D01*
X121490D01*
X121949Y87188D01*
Y85351D01*
X121490Y84892D01*
X120571D01*
X121030Y85810D02*
X120112Y84892D01*
X120571D02*
X120112Y85351D01*
X119194Y84892D02*
X118275D01*
X118735D01*
Y87647D01*
X119194Y87188D01*
X56825Y104018D02*
X57284Y104478D01*
X58202D01*
X58661Y104018D01*
Y102182D01*
X58202Y101723D01*
X57284D01*
X56825Y102182D01*
X54070Y101723D02*
X55906D01*
X54070Y103559D01*
Y104018D01*
X54529Y104478D01*
X55447D01*
X55906Y104018D01*
X53151D02*
X52692Y104478D01*
X51774D01*
X51315Y104018D01*
Y103559D01*
X51774Y103100D01*
X52233D01*
X51774D01*
X51315Y102641D01*
Y102182D01*
X51774Y101723D01*
X52692D01*
X53151Y102182D01*
X81134Y75311D02*
X81594Y74852D01*
Y73934D01*
X81134Y73475D01*
X79298D01*
X78839Y73934D01*
Y74852D01*
X79298Y75311D01*
X78839Y78066D02*
Y76230D01*
X80675Y78066D01*
X81134D01*
X81594Y77607D01*
Y76689D01*
X81134Y76230D01*
X78839Y80821D02*
Y78984D01*
X80675Y80821D01*
X81134D01*
X81594Y80362D01*
Y79444D01*
X81134Y78984D01*
X60171Y114845D02*
X60630Y115304D01*
X61549D01*
X62008Y114845D01*
Y113008D01*
X61549Y112549D01*
X60630D01*
X60171Y113008D01*
X57416Y112549D02*
X59253D01*
X57416Y114386D01*
Y114845D01*
X57875Y115304D01*
X58794D01*
X59253Y114845D01*
X56498Y112549D02*
X55580D01*
X56039D01*
Y115304D01*
X56498Y114845D01*
X113287Y103937D02*
Y106692D01*
X111910D01*
X111451Y106233D01*
Y105315D01*
X111910Y104855D01*
X113287D01*
X112369D02*
X111451Y103937D01*
X109155D02*
Y106692D01*
X110532Y105315D01*
X108696D01*
X113189Y110089D02*
Y112844D01*
X111811D01*
X111352Y112384D01*
Y111466D01*
X111811Y111007D01*
X113189D01*
X112271D02*
X111352Y110089D01*
X110434Y112384D02*
X109975Y112844D01*
X109056D01*
X108597Y112384D01*
Y111925D01*
X109056Y111466D01*
X109516D01*
X109056D01*
X108597Y111007D01*
Y110548D01*
X109056Y110089D01*
X109975D01*
X110434Y110548D01*
X116536Y116781D02*
X117520D01*
X117028D01*
Y114321D01*
X117520Y113829D01*
X118012D01*
X118504Y114321D01*
X115552Y113829D02*
X114568D01*
X115060D01*
Y116781D01*
X115552Y116289D01*
X89699Y117601D02*
X90158Y118060D01*
X91076D01*
X91535Y117601D01*
Y115764D01*
X91076Y115305D01*
X90158D01*
X89699Y115764D01*
X88780Y117601D02*
X88321Y118060D01*
X87403D01*
X86944Y117601D01*
Y117142D01*
X87403Y116683D01*
X87862D01*
X87403D01*
X86944Y116224D01*
Y115764D01*
X87403Y115305D01*
X88321D01*
X88780Y115764D01*
X74114Y110383D02*
Y107923D01*
X73622Y107431D01*
X72638D01*
X72146Y107923D01*
Y110383D01*
X71162Y107431D02*
X70178D01*
X70670D01*
Y110383D01*
X71162Y109891D01*
X68703D02*
X68211Y110383D01*
X67227D01*
X66735Y109891D01*
Y107923D01*
X67227Y107431D01*
X68211D01*
X68703Y107923D01*
Y109891D01*
D85*
X27947Y48974D02*
X28441Y49467D01*
X29428D01*
X29921Y48974D01*
Y46999D01*
X29428Y46506D01*
X28441D01*
X27947Y46999D01*
X25479Y46506D02*
Y49467D01*
X26960Y47987D01*
X24986D01*
M02*
