G04 Layer_Physical_Order=2*
G04 Layer_Color=16711680*
%FSLAX25Y25*%
%MOIN*%
G70*
G01*
G75*
%ADD10C,0.01575*%
G04:AMPARAMS|DCode=11|XSize=66.93mil|YSize=43.31mil|CornerRadius=10.83mil|HoleSize=0mil|Usage=FLASHONLY|Rotation=0.000|XOffset=0mil|YOffset=0mil|HoleType=Round|Shape=RoundedRectangle|*
%AMROUNDEDRECTD11*
21,1,0.06693,0.02165,0,0,0.0*
21,1,0.04528,0.04331,0,0,0.0*
1,1,0.02165,0.02264,-0.01083*
1,1,0.02165,-0.02264,-0.01083*
1,1,0.02165,-0.02264,0.01083*
1,1,0.02165,0.02264,0.01083*
%
%ADD11ROUNDEDRECTD11*%
G04:AMPARAMS|DCode=12|XSize=35.43mil|YSize=35.43mil|CornerRadius=8.86mil|HoleSize=0mil|Usage=FLASHONLY|Rotation=270.000|XOffset=0mil|YOffset=0mil|HoleType=Round|Shape=RoundedRectangle|*
%AMROUNDEDRECTD12*
21,1,0.03543,0.01772,0,0,270.0*
21,1,0.01772,0.03543,0,0,270.0*
1,1,0.01772,-0.00886,-0.00886*
1,1,0.01772,-0.00886,0.00886*
1,1,0.01772,0.00886,0.00886*
1,1,0.01772,0.00886,-0.00886*
%
%ADD12ROUNDEDRECTD12*%
G04:AMPARAMS|DCode=13|XSize=35.43mil|YSize=35.43mil|CornerRadius=8.86mil|HoleSize=0mil|Usage=FLASHONLY|Rotation=0.000|XOffset=0mil|YOffset=0mil|HoleType=Round|Shape=RoundedRectangle|*
%AMROUNDEDRECTD13*
21,1,0.03543,0.01772,0,0,0.0*
21,1,0.01772,0.03543,0,0,0.0*
1,1,0.01772,0.00886,-0.00886*
1,1,0.01772,-0.00886,-0.00886*
1,1,0.01772,-0.00886,0.00886*
1,1,0.01772,0.00886,0.00886*
%
%ADD13ROUNDEDRECTD13*%
G04:AMPARAMS|DCode=14|XSize=66.93mil|YSize=43.31mil|CornerRadius=10.83mil|HoleSize=0mil|Usage=FLASHONLY|Rotation=90.000|XOffset=0mil|YOffset=0mil|HoleType=Round|Shape=RoundedRectangle|*
%AMROUNDEDRECTD14*
21,1,0.06693,0.02165,0,0,90.0*
21,1,0.04528,0.04331,0,0,90.0*
1,1,0.02165,0.01083,0.02264*
1,1,0.02165,0.01083,-0.02264*
1,1,0.02165,-0.01083,-0.02264*
1,1,0.02165,-0.01083,0.02264*
%
%ADD14ROUNDEDRECTD14*%
%ADD15C,0.07874*%
G04:AMPARAMS|DCode=16|XSize=78.74mil|YSize=78.74mil|CornerRadius=19.69mil|HoleSize=0mil|Usage=FLASHONLY|Rotation=180.000|XOffset=0mil|YOffset=0mil|HoleType=Round|Shape=RoundedRectangle|*
%AMROUNDEDRECTD16*
21,1,0.07874,0.03937,0,0,180.0*
21,1,0.03937,0.07874,0,0,180.0*
1,1,0.03937,-0.01969,0.01969*
1,1,0.03937,0.01969,0.01969*
1,1,0.03937,0.01969,-0.01969*
1,1,0.03937,-0.01969,-0.01969*
%
%ADD16ROUNDEDRECTD16*%
%ADD17C,0.03937*%
D10*
X-12205Y16929D02*
G03*
X-18589Y14285I0J-9029D01*
G01*
X-21949Y4260D02*
G03*
X-19983Y-489I6721J0D01*
G01*
X1354Y27141D02*
G03*
X-1508Y21229I7071J-7071D01*
G01*
D02*
G03*
X-1575Y20071I9933J-1158D01*
G01*
X-8539Y-25910D02*
G03*
X-1468Y-28839I7071J7071D01*
G01*
X27953Y-26575D02*
G03*
X22488Y-24311I-5465J-5465D01*
G01*
X18414D02*
G03*
X16559Y-24485I0J-10000D01*
G01*
D02*
G03*
X11343Y-27240I1855J-9826D01*
G01*
X-14362Y25000D02*
G03*
X-16217Y24826I0J-10000D01*
G01*
D02*
G03*
X-21433Y22071I1855J-9826D01*
G01*
X13878Y-16891D02*
G03*
X13977Y-17815I4369J0D01*
G01*
D02*
G03*
X15157Y-19980I4270J924D01*
G01*
X24902Y9381D02*
G03*
X25689Y7480I2688J0D01*
G01*
X28740Y287D02*
G03*
X25811Y7358I-10000J0D01*
G01*
X8529Y18209D02*
G03*
X7579Y17815I0J-1344D01*
G01*
X-19983Y-489D02*
G03*
X-19980Y-492I4755J4749D01*
G01*
X25098Y-19488D02*
G03*
X30725Y-17157I0J7958D01*
G01*
X-21949Y10925D02*
X-18589Y14285D01*
X-21949Y4260D02*
Y10925D01*
X1354Y27141D02*
X10728Y36516D01*
X-1575Y16929D02*
Y20071D01*
X-18110Y-7776D02*
X-12205Y-1870D01*
X-1575Y-12451D02*
Y-2657D01*
X-12205Y-22244D02*
X-8539Y-25910D01*
X-1468Y-28839D02*
X98D01*
X18414Y-24311D02*
X22488D01*
X7972Y-30610D02*
X11343Y-27240D01*
X-14362Y25000D02*
X-11220D01*
X-21949Y21555D02*
X-21433Y22071D01*
X13878Y-16891D02*
Y-10531D01*
X7972Y-19980D02*
Y-13091D01*
Y-19980D02*
X15157D01*
X25689Y7480D02*
X25811Y7358D01*
X24902Y9381D02*
Y18209D01*
X28740Y-689D02*
Y287D01*
X8529Y18209D02*
X14902D01*
X6299Y-2559D02*
X7579Y-1280D01*
Y7185D01*
X7874Y7480D01*
X16240D01*
X21063Y-1083D02*
X21752Y-394D01*
X13878Y-1083D02*
X21063D01*
X21752Y-394D02*
X22047Y-689D01*
X28740D01*
X36042Y-4017D02*
X39370Y-689D01*
X36042Y-11841D02*
Y-4017D01*
X35421Y-11220D02*
X36042Y-11841D01*
X7972Y-30610D02*
Y-29429D01*
X787Y-22244D02*
X7972Y-29429D01*
X-1575Y-22244D02*
X787D01*
X-12205D02*
Y-12451D01*
X-1575Y-2657D02*
X-788Y-1870D01*
X-18110Y-11614D02*
Y-7776D01*
X-12205Y-1870D02*
Y7136D01*
X-1575D02*
Y16929D01*
X30725Y-17157D02*
X36042Y-11841D01*
X21752Y-11220D02*
X35421D01*
D11*
X7972Y-19980D02*
D03*
Y-30610D02*
D03*
X-21949Y10925D02*
D03*
Y21555D02*
D03*
X21752Y-394D02*
D03*
Y-11024D02*
D03*
X7579Y17815D02*
D03*
Y7185D02*
D03*
X6299Y-2559D02*
D03*
Y-13189D02*
D03*
X-11614Y25394D02*
D03*
Y36024D02*
D03*
D12*
X15650Y-19488D02*
D03*
X25098D02*
D03*
X16240Y7480D02*
D03*
X25689D02*
D03*
D13*
X13878Y-1083D02*
D03*
Y-10531D02*
D03*
D14*
X-1575Y16929D02*
D03*
X-12205D02*
D03*
X-1575Y-22244D02*
D03*
X-12205D02*
D03*
Y-12451D02*
D03*
X-1575D02*
D03*
Y-2657D02*
D03*
X-12205D02*
D03*
Y7136D02*
D03*
X-1575D02*
D03*
X28740Y-689D02*
D03*
X39370D02*
D03*
D15*
X-98Y37902D02*
D03*
X22237Y30644D02*
D03*
X36042Y11644D02*
D03*
Y-11841D02*
D03*
X22237Y-30841D02*
D03*
X-98Y-38098D02*
D03*
X-22434Y-30841D02*
D03*
X-36239Y-11841D02*
D03*
Y11644D02*
D03*
X-22434Y30644D02*
D03*
X14902Y18209D02*
D03*
D16*
X24902D02*
D03*
D17*
X-295Y-10433D02*
D03*
X27953Y-26575D02*
D03*
X98Y-28839D02*
D03*
X-18110Y-11614D02*
D03*
X-19980Y-492D02*
D03*
X10728Y36516D02*
D03*
X-11220Y25000D02*
D03*
X-10433Y36024D02*
D03*
M02*
