G04 Layer_Color=65535*
%FSLAX25Y25*%
%MOIN*%
G70*
G01*
G75*
%ADD18C,0.01000*%
%ADD19C,0.00787*%
%ADD20C,0.00394*%
G36*
X-1280Y9786D02*
X-4279D01*
X-4271Y9778D01*
X-4250Y9757D01*
X-4221Y9720D01*
X-4179Y9666D01*
X-4129Y9603D01*
X-4075Y9524D01*
X-4017Y9437D01*
X-3954Y9337D01*
Y9333D01*
X-3946Y9324D01*
X-3938Y9312D01*
X-3929Y9291D01*
X-3913Y9266D01*
X-3900Y9237D01*
X-3863Y9171D01*
X-3825Y9096D01*
X-3784Y9013D01*
X-3746Y8925D01*
X-3713Y8842D01*
X-4167D01*
X-4171Y8846D01*
X-4175Y8859D01*
X-4187Y8879D01*
X-4200Y8908D01*
X-4216Y8942D01*
X-4241Y8983D01*
X-4266Y9029D01*
X-4291Y9075D01*
X-4358Y9183D01*
X-4437Y9300D01*
X-4520Y9420D01*
X-4616Y9533D01*
X-4620Y9537D01*
X-4628Y9545D01*
X-4641Y9562D01*
X-4662Y9582D01*
X-4687Y9603D01*
X-4712Y9632D01*
X-4782Y9695D01*
X-4857Y9765D01*
X-4944Y9836D01*
X-5036Y9899D01*
X-5132Y9953D01*
Y10256D01*
X-1280D01*
Y9786D01*
D02*
G37*
G36*
X-2361Y8010D02*
X-2328D01*
X-2282Y8002D01*
X-2232Y7993D01*
X-2178Y7985D01*
X-2116Y7968D01*
X-2049Y7948D01*
X-1983Y7923D01*
X-1912Y7893D01*
X-1841Y7856D01*
X-1766Y7814D01*
X-1695Y7764D01*
X-1625Y7710D01*
X-1558Y7644D01*
X-1554Y7640D01*
X-1542Y7627D01*
X-1525Y7606D01*
X-1504Y7577D01*
X-1479Y7544D01*
X-1450Y7498D01*
X-1417Y7448D01*
X-1388Y7390D01*
X-1354Y7328D01*
X-1321Y7257D01*
X-1292Y7182D01*
X-1267Y7099D01*
X-1246Y7012D01*
X-1230Y6920D01*
X-1217Y6824D01*
X-1213Y6720D01*
Y6716D01*
Y6700D01*
X-1217Y6670D01*
Y6637D01*
X-1221Y6591D01*
X-1230Y6542D01*
X-1238Y6487D01*
X-1250Y6425D01*
X-1267Y6358D01*
X-1288Y6292D01*
X-1309Y6221D01*
X-1338Y6150D01*
X-1375Y6080D01*
X-1413Y6013D01*
X-1458Y5942D01*
X-1512Y5880D01*
X-1517Y5876D01*
X-1525Y5867D01*
X-1542Y5851D01*
X-1567Y5826D01*
X-1596Y5801D01*
X-1633Y5772D01*
X-1675Y5743D01*
X-1725Y5709D01*
X-1775Y5676D01*
X-1837Y5643D01*
X-1899Y5610D01*
X-1970Y5581D01*
X-2045Y5556D01*
X-2124Y5531D01*
X-2207Y5514D01*
X-2295Y5502D01*
X-2357Y5971D01*
X-2353D01*
X-2340Y5976D01*
X-2320Y5980D01*
X-2290Y5988D01*
X-2257Y5996D01*
X-2220Y6005D01*
X-2132Y6034D01*
X-2037Y6071D01*
X-1941Y6117D01*
X-1854Y6175D01*
X-1816Y6209D01*
X-1779Y6242D01*
Y6246D01*
X-1770Y6250D01*
X-1762Y6263D01*
X-1750Y6275D01*
X-1725Y6317D01*
X-1691Y6375D01*
X-1658Y6446D01*
X-1633Y6525D01*
X-1612Y6621D01*
X-1604Y6720D01*
Y6724D01*
Y6737D01*
Y6754D01*
X-1608Y6779D01*
X-1612Y6803D01*
X-1616Y6841D01*
X-1633Y6916D01*
X-1658Y7007D01*
X-1700Y7103D01*
X-1729Y7149D01*
X-1758Y7195D01*
X-1791Y7240D01*
X-1833Y7286D01*
X-1837Y7290D01*
X-1845Y7294D01*
X-1858Y7307D01*
X-1874Y7323D01*
X-1895Y7340D01*
X-1924Y7357D01*
X-1953Y7378D01*
X-1991Y7403D01*
X-2074Y7444D01*
X-2170Y7478D01*
X-2282Y7507D01*
X-2340Y7511D01*
X-2403Y7515D01*
X-2436D01*
X-2457Y7511D01*
X-2486Y7507D01*
X-2515Y7502D01*
X-2590Y7490D01*
X-2677Y7461D01*
X-2765Y7423D01*
X-2810Y7398D01*
X-2852Y7369D01*
X-2894Y7336D01*
X-2935Y7299D01*
X-2939Y7294D01*
X-2943Y7290D01*
X-2956Y7278D01*
X-2968Y7261D01*
X-2985Y7240D01*
X-3002Y7215D01*
X-3043Y7153D01*
X-3081Y7074D01*
X-3114Y6982D01*
X-3139Y6878D01*
X-3143Y6820D01*
X-3147Y6762D01*
Y6758D01*
Y6737D01*
X-3143Y6708D01*
Y6670D01*
X-3135Y6621D01*
X-3127Y6566D01*
X-3114Y6500D01*
X-3097Y6429D01*
X-3509Y6479D01*
Y6483D01*
Y6487D01*
X-3505Y6508D01*
X-3501Y6533D01*
Y6558D01*
Y6562D01*
Y6571D01*
Y6587D01*
X-3505Y6608D01*
Y6637D01*
X-3509Y6666D01*
X-3522Y6737D01*
X-3538Y6820D01*
X-3568Y6912D01*
X-3605Y7007D01*
X-3659Y7099D01*
Y7103D01*
X-3667Y7111D01*
X-3676Y7120D01*
X-3688Y7136D01*
X-3726Y7178D01*
X-3780Y7224D01*
X-3846Y7265D01*
X-3929Y7307D01*
X-3975Y7323D01*
X-4029Y7332D01*
X-4083Y7340D01*
X-4142Y7344D01*
X-4167D01*
X-4187Y7340D01*
X-4233Y7336D01*
X-4295Y7323D01*
X-4362Y7303D01*
X-4433Y7270D01*
X-4508Y7224D01*
X-4541Y7199D01*
X-4574Y7165D01*
X-4583Y7157D01*
X-4599Y7132D01*
X-4628Y7095D01*
X-4662Y7045D01*
X-4691Y6978D01*
X-4720Y6899D01*
X-4736Y6812D01*
X-4745Y6712D01*
Y6708D01*
Y6700D01*
Y6687D01*
X-4741Y6666D01*
Y6641D01*
X-4736Y6616D01*
X-4724Y6550D01*
X-4703Y6479D01*
X-4670Y6400D01*
X-4628Y6325D01*
X-4570Y6250D01*
X-4562Y6242D01*
X-4537Y6221D01*
X-4499Y6188D01*
X-4441Y6155D01*
X-4370Y6113D01*
X-4279Y6075D01*
X-4175Y6042D01*
X-4054Y6017D01*
X-4137Y5547D01*
X-4142D01*
X-4158Y5551D01*
X-4183Y5556D01*
X-4216Y5564D01*
X-4254Y5576D01*
X-4300Y5589D01*
X-4350Y5605D01*
X-4404Y5626D01*
X-4524Y5680D01*
X-4583Y5709D01*
X-4645Y5747D01*
X-4703Y5788D01*
X-4761Y5834D01*
X-4820Y5884D01*
X-4870Y5938D01*
X-4874Y5942D01*
X-4882Y5951D01*
X-4895Y5971D01*
X-4911Y5992D01*
X-4932Y6026D01*
X-4953Y6059D01*
X-4978Y6101D01*
X-5003Y6150D01*
X-5023Y6200D01*
X-5049Y6259D01*
X-5069Y6321D01*
X-5090Y6387D01*
X-5107Y6462D01*
X-5119Y6537D01*
X-5127Y6616D01*
X-5132Y6700D01*
Y6704D01*
Y6712D01*
Y6729D01*
Y6754D01*
X-5127Y6783D01*
X-5123Y6812D01*
X-5115Y6891D01*
X-5098Y6978D01*
X-5073Y7078D01*
X-5040Y7178D01*
X-4994Y7278D01*
Y7282D01*
X-4990Y7290D01*
X-4982Y7303D01*
X-4969Y7323D01*
X-4940Y7369D01*
X-4899Y7428D01*
X-4845Y7494D01*
X-4782Y7561D01*
X-4712Y7627D01*
X-4628Y7685D01*
X-4624D01*
X-4620Y7690D01*
X-4603Y7698D01*
X-4587Y7706D01*
X-4566Y7719D01*
X-4541Y7731D01*
X-4479Y7756D01*
X-4404Y7781D01*
X-4321Y7806D01*
X-4229Y7823D01*
X-4133Y7827D01*
X-4092D01*
X-4042Y7819D01*
X-3983Y7810D01*
X-3913Y7794D01*
X-3838Y7769D01*
X-3759Y7735D01*
X-3680Y7690D01*
X-3676D01*
X-3672Y7685D01*
X-3647Y7665D01*
X-3609Y7636D01*
X-3563Y7590D01*
X-3509Y7536D01*
X-3455Y7465D01*
X-3405Y7386D01*
X-3355Y7294D01*
Y7299D01*
X-3351Y7311D01*
X-3347Y7328D01*
X-3339Y7353D01*
X-3330Y7378D01*
X-3318Y7411D01*
X-3285Y7490D01*
X-3239Y7573D01*
X-3185Y7660D01*
X-3114Y7748D01*
X-3027Y7823D01*
X-3023Y7827D01*
X-3014Y7831D01*
X-3002Y7839D01*
X-2981Y7852D01*
X-2960Y7869D01*
X-2931Y7885D01*
X-2898Y7902D01*
X-2856Y7918D01*
X-2815Y7935D01*
X-2769Y7952D01*
X-2665Y7985D01*
X-2544Y8006D01*
X-2478Y8014D01*
X-2390D01*
X-2361Y8010D01*
D02*
G37*
G36*
X4921Y-552D02*
X1706D01*
X4921Y-1676D01*
Y-2133D01*
X1651Y-3240D01*
X4921D01*
Y-3731D01*
X1082D01*
Y-2970D01*
X3802Y-2058D01*
X3806D01*
X3819Y-2054D01*
X3840Y-2046D01*
X3865Y-2038D01*
X3894Y-2029D01*
X3931Y-2017D01*
X4014Y-1988D01*
X4106Y-1959D01*
X4202Y-1929D01*
X4289Y-1900D01*
X4330Y-1888D01*
X4368Y-1875D01*
X4364D01*
X4360Y-1871D01*
X4347Y-1867D01*
X4330Y-1863D01*
X4306Y-1855D01*
X4281Y-1846D01*
X4247Y-1838D01*
X4214Y-1825D01*
X4172Y-1813D01*
X4127Y-1796D01*
X4077Y-1780D01*
X4019Y-1763D01*
X3960Y-1742D01*
X3894Y-1722D01*
X3827Y-1696D01*
X3752Y-1671D01*
X1082Y-748D01*
Y-62D01*
X4921D01*
Y-552D01*
D02*
G37*
G36*
X3444Y-4563D02*
X3498Y-4567D01*
X3561Y-4571D01*
X3632Y-4575D01*
X3777Y-4592D01*
X3931Y-4613D01*
X4081Y-4646D01*
X4152Y-4667D01*
X4218Y-4692D01*
X4222D01*
X4235Y-4696D01*
X4251Y-4704D01*
X4276Y-4717D01*
X4306Y-4733D01*
X4339Y-4750D01*
X4414Y-4800D01*
X4459Y-4829D01*
X4501Y-4862D01*
X4551Y-4904D01*
X4597Y-4945D01*
X4642Y-4995D01*
X4688Y-5045D01*
X4730Y-5103D01*
X4772Y-5166D01*
X4776Y-5170D01*
X4780Y-5183D01*
X4792Y-5199D01*
X4805Y-5228D01*
X4821Y-5262D01*
X4838Y-5303D01*
X4859Y-5349D01*
X4876Y-5407D01*
X4896Y-5466D01*
X4917Y-5532D01*
X4934Y-5607D01*
X4950Y-5686D01*
X4963Y-5773D01*
X4975Y-5865D01*
X4980Y-5960D01*
X4984Y-6060D01*
Y-6064D01*
Y-6085D01*
Y-6114D01*
X4980Y-6152D01*
Y-6198D01*
X4975Y-6247D01*
X4967Y-6310D01*
X4959Y-6372D01*
X4938Y-6514D01*
X4905Y-6663D01*
X4859Y-6809D01*
X4834Y-6880D01*
X4801Y-6946D01*
X4797Y-6951D01*
X4792Y-6963D01*
X4780Y-6980D01*
X4767Y-7000D01*
X4747Y-7030D01*
X4722Y-7063D01*
X4697Y-7096D01*
X4663Y-7134D01*
X4589Y-7217D01*
X4497Y-7296D01*
X4389Y-7371D01*
X4326Y-7404D01*
X4264Y-7433D01*
X4260D01*
X4247Y-7437D01*
X4227Y-7446D01*
X4197Y-7454D01*
X4164Y-7466D01*
X4118Y-7479D01*
X4069Y-7491D01*
X4010Y-7504D01*
X3944Y-7520D01*
X3873Y-7533D01*
X3794Y-7546D01*
X3706Y-7554D01*
X3615Y-7566D01*
X3515Y-7570D01*
X3411Y-7579D01*
X1082D01*
Y-7071D01*
X3382D01*
X3424Y-7067D01*
X3469D01*
X3523Y-7063D01*
X3578Y-7059D01*
X3698Y-7050D01*
X3819Y-7034D01*
X3935Y-7009D01*
X3989Y-6996D01*
X4035Y-6980D01*
X4039D01*
X4044Y-6976D01*
X4056Y-6971D01*
X4073Y-6963D01*
X4118Y-6938D01*
X4168Y-6905D01*
X4231Y-6863D01*
X4289Y-6809D01*
X4347Y-6743D01*
X4401Y-6663D01*
Y-6659D01*
X4405Y-6651D01*
X4414Y-6639D01*
X4422Y-6622D01*
X4430Y-6601D01*
X4439Y-6572D01*
X4451Y-6543D01*
X4464Y-6510D01*
X4484Y-6426D01*
X4505Y-6331D01*
X4522Y-6223D01*
X4526Y-6106D01*
Y-6098D01*
Y-6081D01*
Y-6052D01*
X4522Y-6015D01*
X4518Y-5969D01*
X4514Y-5915D01*
X4505Y-5856D01*
X4493Y-5794D01*
X4464Y-5665D01*
X4443Y-5599D01*
X4418Y-5532D01*
X4389Y-5470D01*
X4355Y-5411D01*
X4318Y-5357D01*
X4272Y-5307D01*
X4268Y-5303D01*
X4260Y-5295D01*
X4243Y-5287D01*
X4222Y-5270D01*
X4193Y-5253D01*
X4156Y-5232D01*
X4110Y-5207D01*
X4056Y-5187D01*
X3994Y-5166D01*
X3923Y-5141D01*
X3844Y-5120D01*
X3757Y-5103D01*
X3657Y-5087D01*
X3548Y-5074D01*
X3428Y-5070D01*
X3299Y-5066D01*
X1082D01*
Y-4559D01*
X3395D01*
X3444Y-4563D01*
D02*
G37*
G36*
X-1280Y-3534D02*
X-5119D01*
Y-755D01*
X-4666D01*
Y-3026D01*
X-3493D01*
Y-901D01*
X-3039D01*
Y-3026D01*
X-1733D01*
Y-668D01*
X-1280D01*
Y-3534D01*
D02*
G37*
G36*
X-4666Y-6284D02*
X-3476D01*
Y-4482D01*
X-3023D01*
Y-6284D01*
X-1280D01*
Y-6791D01*
X-5119D01*
Y-4204D01*
X-4666D01*
Y-6284D01*
D02*
G37*
G36*
X-2432Y3659D02*
X-2906D01*
Y5110D01*
X-2432D01*
Y3659D01*
D02*
G37*
G36*
X-2756Y3055D02*
X-2702Y3051D01*
X-2640Y3047D01*
X-2569Y3043D01*
X-2424Y3026D01*
X-2270Y3005D01*
X-2120Y2972D01*
X-2049Y2951D01*
X-1983Y2926D01*
X-1978D01*
X-1966Y2922D01*
X-1949Y2914D01*
X-1924Y2902D01*
X-1895Y2885D01*
X-1862Y2868D01*
X-1787Y2818D01*
X-1741Y2789D01*
X-1700Y2756D01*
X-1650Y2714D01*
X-1604Y2673D01*
X-1558Y2623D01*
X-1512Y2573D01*
X-1471Y2515D01*
X-1429Y2452D01*
X-1425Y2448D01*
X-1421Y2435D01*
X-1409Y2419D01*
X-1396Y2390D01*
X-1379Y2356D01*
X-1363Y2315D01*
X-1342Y2269D01*
X-1325Y2211D01*
X-1304Y2153D01*
X-1284Y2086D01*
X-1267Y2011D01*
X-1250Y1932D01*
X-1238Y1845D01*
X-1225Y1753D01*
X-1221Y1658D01*
X-1217Y1558D01*
Y1554D01*
Y1533D01*
Y1504D01*
X-1221Y1466D01*
Y1421D01*
X-1225Y1371D01*
X-1234Y1308D01*
X-1242Y1246D01*
X-1263Y1104D01*
X-1296Y955D01*
X-1342Y809D01*
X-1367Y738D01*
X-1400Y672D01*
X-1404Y667D01*
X-1409Y655D01*
X-1421Y638D01*
X-1433Y618D01*
X-1454Y588D01*
X-1479Y555D01*
X-1504Y522D01*
X-1537Y484D01*
X-1612Y401D01*
X-1704Y322D01*
X-1812Y247D01*
X-1874Y214D01*
X-1937Y185D01*
X-1941D01*
X-1953Y181D01*
X-1974Y172D01*
X-2003Y164D01*
X-2037Y152D01*
X-2082Y139D01*
X-2132Y127D01*
X-2191Y114D01*
X-2257Y98D01*
X-2328Y85D01*
X-2407Y73D01*
X-2494Y64D01*
X-2586Y52D01*
X-2686Y48D01*
X-2790Y39D01*
X-5119D01*
Y547D01*
X-2819D01*
X-2777Y551D01*
X-2731D01*
X-2677Y555D01*
X-2623Y559D01*
X-2503Y568D01*
X-2382Y584D01*
X-2265Y609D01*
X-2211Y622D01*
X-2166Y638D01*
X-2161D01*
X-2157Y643D01*
X-2145Y647D01*
X-2128Y655D01*
X-2082Y680D01*
X-2032Y713D01*
X-1970Y755D01*
X-1912Y809D01*
X-1854Y876D01*
X-1799Y955D01*
Y959D01*
X-1795Y967D01*
X-1787Y979D01*
X-1779Y996D01*
X-1770Y1017D01*
X-1762Y1046D01*
X-1750Y1075D01*
X-1737Y1108D01*
X-1716Y1192D01*
X-1695Y1287D01*
X-1679Y1395D01*
X-1675Y1512D01*
Y1520D01*
Y1537D01*
Y1566D01*
X-1679Y1603D01*
X-1683Y1649D01*
X-1687Y1703D01*
X-1695Y1762D01*
X-1708Y1824D01*
X-1737Y1953D01*
X-1758Y2019D01*
X-1783Y2086D01*
X-1812Y2149D01*
X-1845Y2207D01*
X-1883Y2261D01*
X-1929Y2311D01*
X-1933Y2315D01*
X-1941Y2323D01*
X-1958Y2331D01*
X-1978Y2348D01*
X-2008Y2365D01*
X-2045Y2386D01*
X-2091Y2411D01*
X-2145Y2431D01*
X-2207Y2452D01*
X-2278Y2477D01*
X-2357Y2498D01*
X-2444Y2515D01*
X-2544Y2531D01*
X-2652Y2544D01*
X-2773Y2548D01*
X-2902Y2552D01*
X-5119D01*
Y3060D01*
X-2806D01*
X-2756Y3055D01*
D02*
G37*
G36*
X4921Y11437D02*
X4572D01*
X4576Y11433D01*
X4589Y11424D01*
X4609Y11407D01*
X4634Y11387D01*
X4668Y11358D01*
X4701Y11324D01*
X4738Y11287D01*
X4776Y11241D01*
X4817Y11187D01*
X4855Y11129D01*
X4888Y11066D01*
X4917Y10996D01*
X4946Y10917D01*
X4967Y10838D01*
X4980Y10750D01*
X4984Y10655D01*
Y10650D01*
Y10638D01*
Y10621D01*
X4980Y10596D01*
Y10567D01*
X4975Y10534D01*
X4967Y10497D01*
X4959Y10455D01*
X4938Y10359D01*
X4905Y10255D01*
X4859Y10151D01*
X4834Y10097D01*
X4801Y10043D01*
X4797Y10039D01*
X4792Y10030D01*
X4780Y10018D01*
X4767Y9997D01*
X4747Y9972D01*
X4726Y9947D01*
X4668Y9885D01*
X4597Y9814D01*
X4509Y9743D01*
X4405Y9673D01*
X4289Y9610D01*
X4285D01*
X4272Y9602D01*
X4256Y9598D01*
X4231Y9585D01*
X4202Y9577D01*
X4164Y9565D01*
X4118Y9548D01*
X4073Y9535D01*
X4019Y9523D01*
X3960Y9506D01*
X3898Y9494D01*
X3831Y9486D01*
X3690Y9469D01*
X3536Y9461D01*
X3494D01*
X3465Y9465D01*
X3428D01*
X3386Y9469D01*
X3336Y9473D01*
X3282Y9477D01*
X3166Y9494D01*
X3041Y9519D01*
X2908Y9552D01*
X2779Y9598D01*
X2775D01*
X2762Y9606D01*
X2746Y9614D01*
X2721Y9623D01*
X2696Y9640D01*
X2662Y9656D01*
X2588Y9702D01*
X2500Y9760D01*
X2417Y9831D01*
X2334Y9914D01*
X2259Y10014D01*
X2255Y10018D01*
X2251Y10026D01*
X2242Y10043D01*
X2230Y10064D01*
X2217Y10089D01*
X2201Y10122D01*
X2184Y10155D01*
X2167Y10197D01*
X2134Y10289D01*
X2105Y10392D01*
X2084Y10509D01*
X2076Y10571D01*
Y10634D01*
Y10638D01*
Y10646D01*
Y10659D01*
Y10675D01*
X2080Y10725D01*
X2088Y10784D01*
X2101Y10854D01*
X2122Y10929D01*
X2146Y11008D01*
X2184Y11083D01*
Y11087D01*
X2188Y11091D01*
X2205Y11116D01*
X2226Y11150D01*
X2259Y11195D01*
X2300Y11245D01*
X2346Y11299D01*
X2400Y11353D01*
X2463Y11403D01*
X1082D01*
Y11873D01*
X4921D01*
Y11437D01*
D02*
G37*
G36*
Y15272D02*
X3761Y14827D01*
Y13213D01*
X4921Y12797D01*
Y12260D01*
X1082Y13729D01*
Y14278D01*
X4921Y15850D01*
Y15272D01*
D02*
G37*
G36*
X3840Y18575D02*
X3873D01*
X3919Y18567D01*
X3969Y18559D01*
X4023Y18550D01*
X4085Y18534D01*
X4152Y18513D01*
X4218Y18488D01*
X4289Y18459D01*
X4360Y18421D01*
X4434Y18380D01*
X4505Y18330D01*
X4576Y18276D01*
X4642Y18209D01*
X4647Y18205D01*
X4659Y18192D01*
X4676Y18172D01*
X4697Y18143D01*
X4722Y18109D01*
X4751Y18064D01*
X4784Y18014D01*
X4813Y17955D01*
X4846Y17893D01*
X4880Y17822D01*
X4909Y17747D01*
X4934Y17664D01*
X4955Y17577D01*
X4971Y17485D01*
X4984Y17390D01*
X4988Y17286D01*
Y17281D01*
Y17265D01*
X4984Y17236D01*
Y17202D01*
X4980Y17157D01*
X4971Y17107D01*
X4963Y17053D01*
X4950Y16990D01*
X4934Y16924D01*
X4913Y16857D01*
X4892Y16786D01*
X4863Y16716D01*
X4826Y16645D01*
X4788Y16578D01*
X4742Y16508D01*
X4688Y16445D01*
X4684Y16441D01*
X4676Y16433D01*
X4659Y16416D01*
X4634Y16391D01*
X4605Y16366D01*
X4568Y16337D01*
X4526Y16308D01*
X4476Y16275D01*
X4426Y16241D01*
X4364Y16208D01*
X4301Y16175D01*
X4231Y16146D01*
X4156Y16121D01*
X4077Y16096D01*
X3994Y16079D01*
X3906Y16067D01*
X3844Y16537D01*
X3848D01*
X3861Y16541D01*
X3881Y16545D01*
X3910Y16553D01*
X3944Y16562D01*
X3981Y16570D01*
X4069Y16599D01*
X4164Y16637D01*
X4260Y16682D01*
X4347Y16741D01*
X4385Y16774D01*
X4422Y16807D01*
Y16811D01*
X4430Y16815D01*
X4439Y16828D01*
X4451Y16840D01*
X4476Y16882D01*
X4509Y16940D01*
X4543Y17011D01*
X4568Y17090D01*
X4589Y17186D01*
X4597Y17286D01*
Y17290D01*
Y17302D01*
Y17319D01*
X4593Y17344D01*
X4589Y17369D01*
X4584Y17406D01*
X4568Y17481D01*
X4543Y17573D01*
X4501Y17668D01*
X4472Y17714D01*
X4443Y17760D01*
X4410Y17806D01*
X4368Y17851D01*
X4364Y17855D01*
X4355Y17860D01*
X4343Y17872D01*
X4326Y17889D01*
X4306Y17905D01*
X4276Y17922D01*
X4247Y17943D01*
X4210Y17968D01*
X4127Y18009D01*
X4031Y18043D01*
X3919Y18072D01*
X3861Y18076D01*
X3798Y18080D01*
X3765D01*
X3744Y18076D01*
X3715Y18072D01*
X3686Y18068D01*
X3611Y18055D01*
X3523Y18026D01*
X3436Y17989D01*
X3390Y17964D01*
X3349Y17934D01*
X3307Y17901D01*
X3266Y17864D01*
X3261Y17860D01*
X3257Y17855D01*
X3245Y17843D01*
X3232Y17826D01*
X3216Y17806D01*
X3199Y17781D01*
X3157Y17718D01*
X3120Y17639D01*
X3087Y17548D01*
X3062Y17444D01*
X3058Y17385D01*
X3053Y17327D01*
Y17323D01*
Y17302D01*
X3058Y17273D01*
Y17236D01*
X3066Y17186D01*
X3074Y17132D01*
X3087Y17065D01*
X3103Y16994D01*
X2692Y17044D01*
Y17049D01*
Y17053D01*
X2696Y17073D01*
X2700Y17098D01*
Y17123D01*
Y17128D01*
Y17136D01*
Y17153D01*
X2696Y17173D01*
Y17202D01*
X2692Y17232D01*
X2679Y17302D01*
X2662Y17385D01*
X2633Y17477D01*
X2596Y17573D01*
X2542Y17664D01*
Y17668D01*
X2533Y17677D01*
X2525Y17685D01*
X2513Y17702D01*
X2475Y17743D01*
X2421Y17789D01*
X2355Y17831D01*
X2271Y17872D01*
X2226Y17889D01*
X2172Y17897D01*
X2117Y17905D01*
X2059Y17910D01*
X2034D01*
X2013Y17905D01*
X1968Y17901D01*
X1905Y17889D01*
X1839Y17868D01*
X1768Y17835D01*
X1693Y17789D01*
X1660Y17764D01*
X1626Y17731D01*
X1618Y17722D01*
X1602Y17697D01*
X1572Y17660D01*
X1539Y17610D01*
X1510Y17544D01*
X1481Y17465D01*
X1464Y17377D01*
X1456Y17277D01*
Y17273D01*
Y17265D01*
Y17252D01*
X1460Y17232D01*
Y17207D01*
X1464Y17182D01*
X1477Y17115D01*
X1498Y17044D01*
X1531Y16965D01*
X1572Y16890D01*
X1631Y16815D01*
X1639Y16807D01*
X1664Y16786D01*
X1701Y16753D01*
X1760Y16720D01*
X1830Y16678D01*
X1922Y16641D01*
X2026Y16608D01*
X2146Y16582D01*
X2063Y16113D01*
X2059D01*
X2042Y16117D01*
X2018Y16121D01*
X1984Y16129D01*
X1947Y16142D01*
X1901Y16154D01*
X1851Y16171D01*
X1797Y16192D01*
X1677Y16246D01*
X1618Y16275D01*
X1556Y16312D01*
X1498Y16354D01*
X1439Y16399D01*
X1381Y16449D01*
X1331Y16503D01*
X1327Y16508D01*
X1319Y16516D01*
X1306Y16537D01*
X1290Y16558D01*
X1269Y16591D01*
X1248Y16624D01*
X1223Y16666D01*
X1198Y16716D01*
X1177Y16766D01*
X1152Y16824D01*
X1132Y16886D01*
X1111Y16953D01*
X1094Y17028D01*
X1082Y17102D01*
X1073Y17182D01*
X1069Y17265D01*
Y17269D01*
Y17277D01*
Y17294D01*
Y17319D01*
X1073Y17348D01*
X1077Y17377D01*
X1086Y17456D01*
X1102Y17544D01*
X1127Y17643D01*
X1161Y17743D01*
X1206Y17843D01*
Y17847D01*
X1211Y17855D01*
X1219Y17868D01*
X1231Y17889D01*
X1261Y17934D01*
X1302Y17993D01*
X1356Y18059D01*
X1419Y18126D01*
X1489Y18192D01*
X1572Y18251D01*
X1577D01*
X1581Y18255D01*
X1597Y18263D01*
X1614Y18271D01*
X1635Y18284D01*
X1660Y18296D01*
X1722Y18321D01*
X1797Y18346D01*
X1880Y18371D01*
X1972Y18388D01*
X2067Y18392D01*
X2109D01*
X2159Y18384D01*
X2217Y18375D01*
X2288Y18359D01*
X2363Y18334D01*
X2442Y18301D01*
X2521Y18255D01*
X2525D01*
X2529Y18251D01*
X2554Y18230D01*
X2592Y18201D01*
X2637Y18155D01*
X2692Y18101D01*
X2746Y18030D01*
X2795Y17951D01*
X2845Y17860D01*
Y17864D01*
X2850Y17876D01*
X2854Y17893D01*
X2862Y17918D01*
X2870Y17943D01*
X2883Y17976D01*
X2916Y18055D01*
X2962Y18138D01*
X3016Y18226D01*
X3087Y18313D01*
X3174Y18388D01*
X3178Y18392D01*
X3187Y18396D01*
X3199Y18405D01*
X3220Y18417D01*
X3241Y18434D01*
X3270Y18450D01*
X3303Y18467D01*
X3345Y18484D01*
X3386Y18500D01*
X3432Y18517D01*
X3536Y18550D01*
X3657Y18571D01*
X3723Y18579D01*
X3810D01*
X3840Y18575D01*
D02*
G37*
G36*
X3582Y9078D02*
X3627D01*
X3682Y9074D01*
X3740Y9070D01*
X3802Y9061D01*
X3935Y9045D01*
X4077Y9015D01*
X4214Y8974D01*
X4276Y8949D01*
X4339Y8920D01*
X4343D01*
X4351Y8912D01*
X4368Y8903D01*
X4389Y8891D01*
X4414Y8874D01*
X4447Y8853D01*
X4514Y8799D01*
X4593Y8733D01*
X4672Y8654D01*
X4747Y8558D01*
X4817Y8450D01*
Y8446D01*
X4826Y8437D01*
X4834Y8421D01*
X4842Y8396D01*
X4855Y8366D01*
X4871Y8333D01*
X4884Y8296D01*
X4901Y8250D01*
X4917Y8204D01*
X4930Y8150D01*
X4959Y8038D01*
X4975Y7913D01*
X4984Y7780D01*
Y7772D01*
Y7755D01*
X4980Y7726D01*
Y7684D01*
X4971Y7634D01*
X4963Y7576D01*
X4950Y7514D01*
X4938Y7443D01*
X4917Y7368D01*
X4892Y7293D01*
X4863Y7214D01*
X4826Y7135D01*
X4784Y7056D01*
X4734Y6981D01*
X4676Y6906D01*
X4609Y6836D01*
X4605Y6831D01*
X4593Y6819D01*
X4572Y6802D01*
X4538Y6782D01*
X4501Y6752D01*
X4455Y6723D01*
X4397Y6690D01*
X4335Y6657D01*
X4260Y6623D01*
X4181Y6590D01*
X4093Y6561D01*
X3998Y6532D01*
X3894Y6511D01*
X3781Y6494D01*
X3661Y6482D01*
X3532Y6478D01*
X3498D01*
X3457Y6482D01*
X3407Y6486D01*
X3340Y6490D01*
X3266Y6499D01*
X3187Y6515D01*
X3099Y6532D01*
X3008Y6553D01*
X2912Y6582D01*
X2816Y6619D01*
X2721Y6657D01*
X2629Y6707D01*
X2542Y6765D01*
X2463Y6831D01*
X2388Y6906D01*
X2384Y6910D01*
X2375Y6923D01*
X2359Y6944D01*
X2338Y6969D01*
X2317Y7006D01*
X2288Y7048D01*
X2259Y7094D01*
X2230Y7152D01*
X2201Y7210D01*
X2176Y7277D01*
X2146Y7347D01*
X2126Y7426D01*
X2105Y7510D01*
X2088Y7593D01*
X2080Y7684D01*
X2076Y7780D01*
Y7788D01*
Y7805D01*
X2080Y7834D01*
Y7876D01*
X2088Y7926D01*
X2097Y7980D01*
X2109Y8042D01*
X2122Y8113D01*
X2142Y8184D01*
X2167Y8263D01*
X2201Y8337D01*
X2234Y8416D01*
X2280Y8495D01*
X2330Y8570D01*
X2388Y8645D01*
X2454Y8716D01*
X2458Y8720D01*
X2471Y8733D01*
X2492Y8749D01*
X2525Y8774D01*
X2562Y8799D01*
X2608Y8833D01*
X2662Y8866D01*
X2725Y8899D01*
X2795Y8932D01*
X2874Y8966D01*
X2958Y8999D01*
X3049Y9024D01*
X3149Y9049D01*
X3257Y9065D01*
X3374Y9078D01*
X3494Y9082D01*
X3544D01*
X3582Y9078D01*
D02*
G37*
G36*
X4921Y5405D02*
X1706D01*
X4921Y4281D01*
Y3824D01*
X1651Y2717D01*
X4921D01*
Y2226D01*
X1082D01*
Y2988D01*
X3802Y3899D01*
X3806D01*
X3819Y3903D01*
X3840Y3911D01*
X3865Y3920D01*
X3894Y3928D01*
X3931Y3940D01*
X4014Y3969D01*
X4106Y3999D01*
X4202Y4028D01*
X4289Y4057D01*
X4330Y4069D01*
X4368Y4082D01*
X4364D01*
X4360Y4086D01*
X4347Y4090D01*
X4330Y4094D01*
X4306Y4103D01*
X4281Y4111D01*
X4247Y4119D01*
X4214Y4132D01*
X4172Y4144D01*
X4127Y4161D01*
X4077Y4177D01*
X4019Y4194D01*
X3960Y4215D01*
X3894Y4236D01*
X3827Y4261D01*
X3752Y4286D01*
X1082Y5209D01*
Y5895D01*
X4921D01*
Y5405D01*
D02*
G37*
%LPC*%
G36*
X3573Y11449D02*
X3519D01*
X3482Y11445D01*
X3432Y11441D01*
X3378Y11437D01*
X3320Y11433D01*
X3253Y11420D01*
X3120Y11395D01*
X2978Y11353D01*
X2912Y11328D01*
X2850Y11299D01*
X2791Y11266D01*
X2737Y11225D01*
X2733Y11220D01*
X2725Y11216D01*
X2712Y11204D01*
X2696Y11187D01*
X2675Y11162D01*
X2650Y11137D01*
X2600Y11075D01*
X2554Y10996D01*
X2509Y10900D01*
X2492Y10850D01*
X2479Y10796D01*
X2471Y10738D01*
X2467Y10679D01*
Y10675D01*
Y10667D01*
Y10650D01*
X2471Y10625D01*
X2475Y10600D01*
X2479Y10567D01*
X2500Y10497D01*
X2529Y10413D01*
X2550Y10368D01*
X2575Y10322D01*
X2604Y10280D01*
X2642Y10234D01*
X2679Y10193D01*
X2725Y10151D01*
X2729Y10147D01*
X2737Y10143D01*
X2754Y10130D01*
X2775Y10118D01*
X2800Y10101D01*
X2837Y10085D01*
X2874Y10068D01*
X2925Y10047D01*
X2974Y10026D01*
X3037Y10010D01*
X3103Y9993D01*
X3174Y9977D01*
X3257Y9964D01*
X3340Y9951D01*
X3436Y9947D01*
X3536Y9943D01*
X3586D01*
X3623Y9947D01*
X3669Y9951D01*
X3719Y9956D01*
X3773Y9964D01*
X3836Y9972D01*
X3965Y9997D01*
X4098Y10039D01*
X4160Y10064D01*
X4222Y10093D01*
X4281Y10130D01*
X4335Y10168D01*
X4339Y10172D01*
X4347Y10176D01*
X4360Y10193D01*
X4376Y10209D01*
X4397Y10230D01*
X4418Y10255D01*
X4464Y10318D01*
X4514Y10397D01*
X4555Y10488D01*
X4572Y10538D01*
X4584Y10588D01*
X4593Y10642D01*
X4597Y10700D01*
Y10705D01*
Y10713D01*
Y10729D01*
X4593Y10754D01*
X4589Y10779D01*
X4584Y10813D01*
X4563Y10883D01*
X4534Y10966D01*
X4514Y11012D01*
X4493Y11054D01*
X4464Y11100D01*
X4430Y11145D01*
X4393Y11187D01*
X4347Y11229D01*
X4343Y11233D01*
X4335Y11237D01*
X4322Y11249D01*
X4297Y11262D01*
X4272Y11278D01*
X4239Y11299D01*
X4202Y11320D01*
X4156Y11341D01*
X4106Y11358D01*
X4048Y11378D01*
X3981Y11399D01*
X3915Y11416D01*
X3840Y11428D01*
X3757Y11441D01*
X3669Y11445D01*
X3573Y11449D01*
D02*
G37*
G36*
X3349Y14669D02*
X2284Y14265D01*
X2280D01*
X2263Y14257D01*
X2238Y14249D01*
X2201Y14236D01*
X2163Y14220D01*
X2113Y14203D01*
X2059Y14182D01*
X2001Y14161D01*
X1872Y14120D01*
X1739Y14074D01*
X1606Y14028D01*
X1481Y13991D01*
X1485D01*
X1498Y13987D01*
X1518Y13983D01*
X1543Y13978D01*
X1581Y13970D01*
X1618Y13962D01*
X1664Y13949D01*
X1714Y13937D01*
X1768Y13924D01*
X1826Y13908D01*
X1951Y13870D01*
X2084Y13829D01*
X2221Y13783D01*
X3349Y13359D01*
Y14669D01*
D02*
G37*
G36*
X3515Y8600D02*
X3465D01*
X3432Y8595D01*
X3386Y8591D01*
X3336Y8587D01*
X3282Y8579D01*
X3224Y8570D01*
X3099Y8541D01*
X3033Y8525D01*
X2966Y8500D01*
X2904Y8471D01*
X2841Y8441D01*
X2787Y8404D01*
X2733Y8362D01*
X2729Y8358D01*
X2721Y8350D01*
X2708Y8337D01*
X2692Y8321D01*
X2671Y8296D01*
X2650Y8271D01*
X2625Y8238D01*
X2600Y8204D01*
X2550Y8117D01*
X2509Y8017D01*
X2492Y7963D01*
X2479Y7905D01*
X2471Y7842D01*
X2467Y7780D01*
Y7776D01*
Y7763D01*
Y7747D01*
X2471Y7722D01*
X2475Y7693D01*
X2479Y7655D01*
X2500Y7576D01*
X2533Y7480D01*
X2554Y7435D01*
X2579Y7385D01*
X2608Y7335D01*
X2646Y7285D01*
X2687Y7239D01*
X2733Y7193D01*
X2737Y7189D01*
X2746Y7185D01*
X2762Y7173D01*
X2783Y7156D01*
X2812Y7139D01*
X2845Y7119D01*
X2887Y7098D01*
X2933Y7077D01*
X2987Y7056D01*
X3045Y7035D01*
X3112Y7015D01*
X3182Y6998D01*
X3261Y6981D01*
X3345Y6969D01*
X3436Y6965D01*
X3532Y6961D01*
X3582D01*
X3619Y6965D01*
X3665Y6969D01*
X3715Y6973D01*
X3773Y6981D01*
X3831Y6990D01*
X3965Y7019D01*
X4098Y7060D01*
X4160Y7085D01*
X4222Y7119D01*
X4281Y7152D01*
X4335Y7193D01*
X4339Y7198D01*
X4347Y7206D01*
X4360Y7218D01*
X4376Y7235D01*
X4397Y7260D01*
X4418Y7285D01*
X4443Y7318D01*
X4464Y7356D01*
X4514Y7439D01*
X4555Y7539D01*
X4572Y7593D01*
X4584Y7655D01*
X4593Y7713D01*
X4597Y7780D01*
Y7784D01*
Y7797D01*
Y7813D01*
X4593Y7838D01*
X4589Y7867D01*
X4584Y7905D01*
X4563Y7984D01*
X4530Y8075D01*
X4509Y8125D01*
X4484Y8175D01*
X4455Y8221D01*
X4418Y8271D01*
X4376Y8317D01*
X4330Y8362D01*
X4326Y8366D01*
X4318Y8371D01*
X4301Y8383D01*
X4281Y8400D01*
X4251Y8416D01*
X4218Y8437D01*
X4177Y8458D01*
X4127Y8483D01*
X4077Y8504D01*
X4014Y8525D01*
X3948Y8545D01*
X3873Y8562D01*
X3794Y8579D01*
X3706Y8591D01*
X3615Y8595D01*
X3515Y8600D01*
D02*
G37*
%LPD*%
D18*
X5902Y37902D02*
G03*
X5902Y37902I-6000J0D01*
G01*
D19*
X-13287Y1575D02*
Y4724D01*
X-7382Y1575D02*
Y4724D01*
X9902Y13209D02*
Y23209D01*
X29902D01*
Y13209D02*
Y23209D01*
X9902Y13209D02*
X29902D01*
X-31496Y18110D02*
Y21260D01*
X-25591Y18110D02*
Y21260D01*
X-17028Y12500D02*
X-13878D01*
X-17028Y18406D02*
X-13878D01*
X-33071Y-591D02*
X-29921D01*
X-33071Y5315D02*
X-29921D01*
X-27461Y-22835D02*
X-24311D01*
X-27461Y-16929D02*
X-24311D01*
X21260Y3642D02*
X24409D01*
X21260Y9547D02*
X24409D01*
X-13976Y-33071D02*
Y-29921D01*
X-8071Y-33071D02*
Y-29921D01*
X16831Y-20669D02*
Y-17520D01*
X10925Y-20669D02*
Y-17520D01*
D20*
X23543Y-19468D02*
Y-14705D01*
X26949Y-25256D02*
Y-20492D01*
X11102Y-33917D02*
Y-29154D01*
X2342Y-26634D02*
Y-21870D01*
X24587Y-3898D02*
Y866D01*
X8701Y905D02*
X13465D01*
X-12953Y-15335D02*
X-8189D01*
X-20886Y-15118D02*
Y-10354D01*
X11457Y30138D02*
X16220D01*
X5630Y33346D02*
X10394D01*
X-33740Y-6575D02*
Y-1811D01*
X-22500Y1102D02*
X-17736D01*
X-5965Y16850D02*
X-1201D01*
X-14291Y20315D02*
Y25079D01*
X-11594Y26988D02*
Y31752D01*
X-10453Y32717D02*
Y37480D01*
M02*
