M48
;Layer_Color=9474304
;FILE_FORMAT=2:5
INCH,LZ
;TYPE=PLATED
T1F00S00C0.01181
T2F00S00C0.03543
T3F00S00C0.03740
%
T01
X-001811Y-0011614
X-001998Y-0000492
X-0000295Y-0010433
X0000098Y-0028839
X0027953Y-0026575
X0010728Y0036516
X-0010433Y0036024
X-001122Y0025
T02
X0014902Y0018209
X0024902
T03
X-0022434Y-0030841
X-0000098Y-0038098
X0022237Y-0030841
X0036042Y-0011841
Y0011644
X0022237Y0030644
X-0000098Y0037902
X-0022434Y0030644
X-0036239Y0011644
Y-0011841
M30
