G04 Layer_Physical_Order=1*
G04 Layer_Color=255*
%FSLAX25Y25*%
%MOIN*%
G70*
G01*
G75*
%ADD10C,0.01575*%
G04:AMPARAMS|DCode=11|XSize=66.93mil|YSize=43.31mil|CornerRadius=10.83mil|HoleSize=0mil|Usage=FLASHONLY|Rotation=0.000|XOffset=0mil|YOffset=0mil|HoleType=Round|Shape=RoundedRectangle|*
%AMROUNDEDRECTD11*
21,1,0.06693,0.02165,0,0,0.0*
21,1,0.04528,0.04331,0,0,0.0*
1,1,0.02165,0.02264,-0.01083*
1,1,0.02165,-0.02264,-0.01083*
1,1,0.02165,-0.02264,0.01083*
1,1,0.02165,0.02264,0.01083*
%
%ADD11ROUNDEDRECTD11*%
G04:AMPARAMS|DCode=12|XSize=35.43mil|YSize=35.43mil|CornerRadius=8.86mil|HoleSize=0mil|Usage=FLASHONLY|Rotation=270.000|XOffset=0mil|YOffset=0mil|HoleType=Round|Shape=RoundedRectangle|*
%AMROUNDEDRECTD12*
21,1,0.03543,0.01772,0,0,270.0*
21,1,0.01772,0.03543,0,0,270.0*
1,1,0.01772,-0.00886,-0.00886*
1,1,0.01772,-0.00886,0.00886*
1,1,0.01772,0.00886,0.00886*
1,1,0.01772,0.00886,-0.00886*
%
%ADD12ROUNDEDRECTD12*%
G04:AMPARAMS|DCode=13|XSize=35.43mil|YSize=35.43mil|CornerRadius=8.86mil|HoleSize=0mil|Usage=FLASHONLY|Rotation=0.000|XOffset=0mil|YOffset=0mil|HoleType=Round|Shape=RoundedRectangle|*
%AMROUNDEDRECTD13*
21,1,0.03543,0.01772,0,0,0.0*
21,1,0.01772,0.03543,0,0,0.0*
1,1,0.01772,0.00886,-0.00886*
1,1,0.01772,-0.00886,-0.00886*
1,1,0.01772,-0.00886,0.00886*
1,1,0.01772,0.00886,0.00886*
%
%ADD13ROUNDEDRECTD13*%
G04:AMPARAMS|DCode=14|XSize=66.93mil|YSize=43.31mil|CornerRadius=10.83mil|HoleSize=0mil|Usage=FLASHONLY|Rotation=90.000|XOffset=0mil|YOffset=0mil|HoleType=Round|Shape=RoundedRectangle|*
%AMROUNDEDRECTD14*
21,1,0.06693,0.02165,0,0,90.0*
21,1,0.04528,0.04331,0,0,90.0*
1,1,0.02165,0.01083,0.02264*
1,1,0.02165,0.01083,-0.02264*
1,1,0.02165,-0.01083,-0.02264*
1,1,0.02165,-0.01083,0.02264*
%
%ADD14ROUNDEDRECTD14*%
%ADD15C,0.07874*%
G04:AMPARAMS|DCode=16|XSize=78.74mil|YSize=78.74mil|CornerRadius=19.69mil|HoleSize=0mil|Usage=FLASHONLY|Rotation=180.000|XOffset=0mil|YOffset=0mil|HoleType=Round|Shape=RoundedRectangle|*
%AMROUNDEDRECTD16*
21,1,0.07874,0.03937,0,0,180.0*
21,1,0.03937,0.07874,0,0,180.0*
1,1,0.03937,-0.01969,0.01969*
1,1,0.03937,0.01969,0.01969*
1,1,0.03937,0.01969,-0.01969*
1,1,0.03937,-0.01969,-0.01969*
%
%ADD16ROUNDEDRECTD16*%
%ADD17C,0.03937*%
D10*
X-10437Y-8961D02*
G03*
X-10433Y-8957I-6412J6420D01*
G01*
X-16849Y-11614D02*
G03*
X-10437Y-8961I0J9073D01*
G01*
X-7382Y34460D02*
G03*
X-7283Y33257I7393J0D01*
G01*
D02*
G03*
X-5219Y29234I7295J1202D01*
G01*
X28767Y-25761D02*
G03*
X30020Y-22736I-3024J3024D01*
G01*
X13976Y27067D02*
G03*
X13167Y26732I0J-1144D01*
G01*
X3989Y10682D02*
G03*
X6299Y16263I-5587J5582D01*
G01*
X3986Y10679D02*
G03*
X3989Y10682I-5584J5584D01*
G01*
X-97Y37900D02*
G03*
X-98Y37902I-2140J-2137D01*
G01*
X-5219Y29234D02*
G03*
X-5217Y29232I5230J5226D01*
G01*
X-16055Y25874D02*
G03*
X-14665Y29232I-3363J3358D01*
G01*
X-16057Y25872D02*
G03*
X-16055Y25874I-3360J3360D01*
G01*
X-31296Y6302D02*
G03*
X-31299Y6299I4749J-4755D01*
G01*
X-21460Y-1969D02*
G03*
X-21313Y-1825I-5902J6192D01*
G01*
X-23854Y-3578D02*
G03*
X-21460Y-1969I-3509J7802D01*
G01*
X-27362Y-4331D02*
G03*
X-23854Y-3578I0J8554D01*
G01*
X-10335Y-2165D02*
G03*
X-13591Y-2953I0J-7129D01*
G01*
X-23200Y-8534D02*
G03*
X-23202Y-8536I3023J-3026D01*
G01*
X19759Y-16215D02*
G03*
X19756Y-16213I-5881J-5881D01*
G01*
X-2226Y-19746D02*
G03*
X-2228Y-19748I4369J-4369D01*
G01*
X19756Y-16213D02*
G03*
X13878Y-13780I-5878J-5883D01*
G01*
X18558Y-11841D02*
G03*
X13878Y-13780I0J-6618D01*
G01*
X-26547Y8268D02*
G03*
X-31296Y6302I0J-6721D01*
G01*
X-3445Y13780D02*
G03*
X-3448Y13783I-4039J-4039D01*
G01*
D02*
G03*
X-7484Y15453I-4036J-4043D01*
G01*
X-2142Y15083D02*
G03*
X787Y22154I-7071J7071D01*
G01*
Y35763D02*
G03*
X-97Y37900I-3024J0D01*
G01*
X-36811Y-4331D02*
G03*
X-33955Y-3148I0J4039D01*
G01*
X-29695Y1083D02*
G03*
X-30046Y762I3514J-4186D01*
G01*
X-26181Y2362D02*
G03*
X-29695Y1083I0J-5465D01*
G01*
X-19488Y3347D02*
G03*
X-12600Y6199I0J9742D01*
G01*
X-6398Y8465D02*
G03*
X323Y11248I0J9505D01*
G01*
X1132Y12057D02*
G03*
X3543Y17879I-5822J5822D01*
G01*
X5217Y26280D02*
G03*
X3543Y22240I4039J-4039D01*
G01*
X6880Y26969D02*
G03*
X5217Y26280I0J-2352D01*
G01*
X-9025Y-26181D02*
G03*
X-4037Y-24115I0J7057D01*
G01*
D02*
G03*
X-4035Y-24114I-4989J4991D01*
G01*
X-2228Y-19748D02*
G03*
X-4035Y-24114I4371J-4366D01*
G01*
X14772Y-6890D02*
G03*
X7701Y-9819I0J-10000D01*
G01*
X18003Y-6890D02*
G03*
X25075Y-3961I0J10000D01*
G01*
X2740Y-38098D02*
G03*
X9811Y-35170I0J10000D01*
G01*
X13881Y-24406D02*
G03*
X13878Y-24409I4036J-4043D01*
G01*
X17918Y-22736D02*
G03*
X13881Y-24406I0J-5713D01*
G01*
X-29630Y-18311D02*
G03*
X-27264Y-12598I-5713J5713D01*
G01*
X-21250Y-7420D02*
G03*
X-23200Y-8534I1073J-4140D01*
G01*
X-21250Y-7420D02*
G03*
X-19920Y-7283I0J6537D01*
G01*
D02*
G03*
X-16628Y-5505I-1330J6400D01*
G01*
X-13591Y-2953D02*
G03*
X-15375Y-4253I3257J-6341D01*
G01*
X8845Y22410D02*
G03*
X6299Y16263I6147J-6147D01*
G01*
X-7653Y-15626D02*
G03*
X-4724Y-8555I-7071J7071D01*
G01*
X-3193Y-4571D02*
G03*
X-4724Y-8268I3697J-3697D01*
G01*
X11220Y7283D02*
G03*
X6852Y5474I0J-6178D01*
G01*
X-21313Y-1825D02*
X-19980Y-492D01*
X7874Y36417D02*
X13878D01*
X-10437Y-8961D02*
X-10433Y-8957D01*
X-18110Y-11614D02*
X-16849D01*
X-7283Y33257D02*
Y35827D01*
X-7382Y34460D02*
Y35236D01*
X27953Y-26575D02*
X28767Y-25761D01*
X-11220Y22835D02*
X-3839D01*
X-19094D02*
X-16057Y25872D01*
X-35236Y2362D02*
X-31299Y6299D01*
X-27264Y-12598D02*
X-23202Y-8536D01*
X19759Y-16215D02*
X20374Y-16831D01*
X-11811Y15453D02*
X-10138D01*
X-19783Y7480D02*
X-11811Y15453D01*
X-19980Y7480D02*
X-19783D01*
X-295Y-10433D02*
Y-9941D01*
X7480Y-2165D01*
X11220D01*
X29921Y-22638D02*
X30020Y-22736D01*
X29921Y-22638D02*
Y-17224D01*
X4724Y-28740D02*
Y-24803D01*
Y-31398D02*
Y-28740D01*
X4626Y-28839D02*
X4724Y-28740D01*
X98Y-28839D02*
X4626D01*
X13878Y36417D02*
X13976Y36516D01*
X-11220Y22835D02*
Y25000D01*
X-9646Y35236D02*
X-7382D01*
X-10433Y36024D02*
X-9646Y35236D01*
X18758Y27165D02*
X22237Y30644D01*
X14370Y27165D02*
X18758D01*
X-3839Y22835D02*
X-3445Y23228D01*
X-22434Y30644D02*
X-21915D01*
X-20669Y22835D02*
X-19094D01*
X-20768Y22736D02*
X-20669Y22835D01*
X-20768Y15453D02*
Y22736D01*
X-21850Y14370D02*
X-20768Y15453D01*
X-28543Y14370D02*
X-21850D01*
X-36239Y11644D02*
X-33513Y14370D01*
X-28543D01*
X-28078Y25000D02*
X-22434Y30644D01*
X-28543Y25000D02*
X-28078D01*
X-20768Y8268D02*
X-19980Y7480D01*
X-36811Y2362D02*
X-35236D01*
X-36811Y-11269D02*
X-36239Y-11841D01*
X-19094Y-18406D02*
X-10433D01*
X-20571Y-19882D02*
X-19094Y-18406D01*
X-22434Y-21745D02*
X-20571Y-19882D01*
X-22434Y-30841D02*
Y-21745D01*
X-1386Y-36811D02*
X-98Y-38098D01*
X-11024Y-36811D02*
X-1386D01*
X4724Y-24803D02*
X5413Y-24114D01*
X16831Y7283D02*
X17520Y6594D01*
X11220Y-2165D02*
X12008Y-1378D01*
X18209D01*
X27657Y6102D02*
X28150Y6594D01*
X27657Y-1378D02*
Y6102D01*
X28150Y6594D02*
X33199Y11644D01*
X36042D01*
X18558Y-11841D02*
X36042D01*
X-26547Y8268D02*
X-20768D01*
X-3445Y13780D02*
X-2142Y15083D01*
X-10138Y15453D02*
X-7484D01*
X787Y22154D02*
Y35763D01*
X-21915Y30644D02*
X-16732Y35827D01*
X-36811Y-11269D02*
Y-4331D01*
X-33955Y-3148D02*
X-30046Y762D01*
X-26181Y2362D02*
X-25197Y3347D01*
X-19488D01*
X-12600Y6199D02*
X-10335Y8465D01*
X-6398D01*
X323Y11248D02*
X1132Y12057D01*
X3543Y17879D02*
Y22240D01*
X6880Y26969D02*
X7874D01*
X-11024Y-26181D02*
X-9025D01*
X-2226Y-19746D02*
X7701Y-9819D01*
X14772Y-6890D02*
X18003D01*
X25075Y-3961D02*
X27657Y-1378D01*
X-98Y-38098D02*
X2740D01*
X9811Y-35170D02*
X13878Y-31102D01*
Y-24409D01*
X17918Y-22736D02*
X20571D01*
X-31201Y-19882D02*
X-29630Y-18311D01*
X-16628Y-5505D02*
X-15375Y-4253D01*
X-9596Y-2904D02*
X3986Y10679D01*
X8845Y22410D02*
X13167Y26732D01*
X14124Y26919D02*
X14370Y27165D01*
X-13878Y29232D02*
Y30020D01*
X-10433Y-18406D02*
X-7653Y-15626D01*
X-4724Y-8555D02*
Y-8268D01*
X-3193Y-4571D02*
X6852Y5474D01*
X11220Y7283D02*
X16831D01*
D11*
X-10335Y-2165D02*
D03*
Y8465D02*
D03*
X-28543Y14370D02*
D03*
Y25000D02*
D03*
X-11024Y-36811D02*
D03*
Y-26181D02*
D03*
X13878Y-13780D02*
D03*
Y-24409D02*
D03*
D12*
X20472Y-17224D02*
D03*
X29921D02*
D03*
X30020Y-22736D02*
D03*
X20571D02*
D03*
X14173Y-31398D02*
D03*
X4724D02*
D03*
X5413Y-24114D02*
D03*
X-4035D02*
D03*
X27657Y-1378D02*
D03*
X18209D02*
D03*
X-17815Y-12598D02*
D03*
X-27264D02*
D03*
X-36811Y-4331D02*
D03*
X-27362D02*
D03*
X-11220Y22835D02*
D03*
X-20669D02*
D03*
X-14665Y29232D02*
D03*
X-5217D02*
D03*
X-7382Y35236D02*
D03*
X-16831D02*
D03*
D13*
X11220Y-2165D02*
D03*
Y7283D02*
D03*
X-10433Y-18406D02*
D03*
Y-8957D02*
D03*
X13976Y27067D02*
D03*
Y36516D02*
D03*
X7874Y36417D02*
D03*
Y26969D02*
D03*
X-19980Y-1969D02*
D03*
Y7480D02*
D03*
X-3445Y13780D02*
D03*
Y23228D02*
D03*
D14*
X-10138Y15453D02*
D03*
X-20768D02*
D03*
X-26181Y2362D02*
D03*
X-36811D02*
D03*
X-20571Y-19882D02*
D03*
X-31201D02*
D03*
X28150Y6594D02*
D03*
X17520D02*
D03*
D15*
X-98Y37902D02*
D03*
X22237Y30644D02*
D03*
X36042Y11644D02*
D03*
Y-11841D02*
D03*
X22237Y-30841D02*
D03*
X-98Y-38098D02*
D03*
X-22434Y-30841D02*
D03*
X-36239Y-11841D02*
D03*
Y11644D02*
D03*
X-22434Y30644D02*
D03*
X14902Y18209D02*
D03*
D16*
X24902D02*
D03*
D17*
X-295Y-10433D02*
D03*
X27953Y-26575D02*
D03*
X98Y-28839D02*
D03*
X-18110Y-11614D02*
D03*
X-19980Y-492D02*
D03*
X10728Y36516D02*
D03*
X-11220Y25000D02*
D03*
X-10433Y36024D02*
D03*
M02*
