%FSLAX25Y25*%
%MOIN*%
G70*
G01*
G75*
G04 Layer_Color=32896*
%ADD10R,0.02165X0.05906*%
%ADD11R,0.03543X0.03150*%
%ADD12R,0.01969X0.02362*%
%ADD13R,0.01969X0.01969*%
%ADD14R,0.18110X0.16929*%
%ADD15R,0.06299X0.07874*%
%ADD16R,0.07480X0.10236*%
%ADD17R,0.02953X0.07087*%
%ADD18R,0.02362X0.01969*%
%ADD19R,0.04724X0.02362*%
%ADD20R,0.07480X0.09350*%
%ADD21R,0.07480X0.04626*%
%ADD22R,0.07874X0.05807*%
%ADD23R,0.08268X0.05807*%
%ADD24R,0.05433X0.01772*%
%ADD25R,0.03543X0.03543*%
%ADD26R,0.08071X0.08071*%
%ADD27O,0.00787X0.03543*%
%ADD28O,0.03543X0.00787*%
%ADD29R,0.02165X0.03937*%
%ADD30R,0.00984X0.04331*%
%ADD31R,0.04500X0.04500*%
%ADD32R,0.03937X0.14961*%
%ADD33R,0.06693X0.04331*%
%ADD34R,0.03150X0.03543*%
%ADD35R,0.04331X0.06693*%
%ADD36R,0.04331X0.01575*%
%ADD37R,0.05118X0.02362*%
%ADD38R,0.05118X0.02756*%
%ADD39R,0.02756X0.03543*%
%ADD40R,0.02362X0.04528*%
%ADD41R,0.02559X0.04331*%
%ADD42R,0.22441X0.22441*%
%ADD43O,0.03543X0.00984*%
%ADD44O,0.00984X0.03543*%
%ADD45C,0.01181*%
%ADD46C,0.00984*%
%ADD47C,0.01969*%
%ADD48C,0.01575*%
%ADD49R,0.07480X0.06890*%
%ADD50R,0.13780X0.06496*%
G04:AMPARAMS|DCode=51|XSize=59.06mil|YSize=59.06mil|CornerRadius=0mil|HoleSize=0mil|Usage=FLASHONLY|Rotation=90.000|XOffset=0mil|YOffset=0mil|HoleType=Round|Shape=Octagon|*
%AMOCTAGOND51*
4,1,8,0.01476,0.02953,-0.01476,0.02953,-0.02953,0.01476,-0.02953,-0.01476,-0.01476,-0.02953,0.01476,-0.02953,0.02953,-0.01476,0.02953,0.01476,0.01476,0.02953,0.0*
%
%ADD51OCTAGOND51*%

%ADD52R,0.15748X0.07874*%
%ADD53C,0.03937*%
%ADD54R,0.09055X0.07087*%
%ADD55C,0.04724*%
%ADD56C,0.06693*%
%ADD57C,0.02756*%
%ADD58C,0.02441*%
%ADD59C,0.03543*%
%ADD60C,0.01969*%
%ADD61R,0.03150X0.05512*%
%ADD62R,0.06890X0.05906*%
%ADD63R,0.03937X0.05906*%
%ADD64C,0.00787*%
%ADD65C,0.00394*%
%ADD66C,0.00606*%
%ADD67C,0.01000*%
%ADD68C,0.00591*%
%ADD69R,0.02953X0.06693*%
%ADD70R,0.04331X0.03937*%
%ADD71R,0.02756X0.03150*%
%ADD72R,0.02756X0.02756*%
%ADD73R,0.18898X0.17716*%
%ADD74R,0.07087X0.08661*%
%ADD75R,0.08268X0.11024*%
%ADD76R,0.03740X0.07874*%
%ADD77R,0.03150X0.02756*%
%ADD78R,0.05512X0.03150*%
%ADD79R,0.08268X0.10138*%
%ADD80R,0.08268X0.05413*%
%ADD81R,0.08661X0.06594*%
%ADD82R,0.09055X0.06594*%
%ADD83R,0.06221X0.02559*%
%ADD84R,0.04331X0.04331*%
%ADD85R,0.08858X0.08858*%
%ADD86O,0.01575X0.04331*%
%ADD87O,0.04331X0.01575*%
%ADD88R,0.02953X0.04724*%
%ADD89R,0.01772X0.05118*%
%ADD90R,0.05287X0.05287*%
%ADD91R,0.04724X0.15748*%
%ADD92R,0.07480X0.05118*%
%ADD93R,0.03937X0.04331*%
%ADD94R,0.05118X0.07480*%
%ADD95R,0.05906X0.03150*%
%ADD96R,0.05906X0.03543*%
%ADD97R,0.03543X0.04331*%
%ADD98R,0.03150X0.05315*%
%ADD99R,0.03347X0.05118*%
%ADD100R,0.23228X0.23228*%
%ADD101O,0.04331X0.01772*%
%ADD102O,0.01772X0.04331*%
G04:AMPARAMS|DCode=103|XSize=66.93mil|YSize=66.93mil|CornerRadius=0mil|HoleSize=0mil|Usage=FLASHONLY|Rotation=90.000|XOffset=0mil|YOffset=0mil|HoleType=Round|Shape=Octagon|*
%AMOCTAGOND103*
4,1,8,0.01673,0.03347,-0.01673,0.03347,-0.03347,0.01673,-0.03347,-0.01673,-0.01673,-0.03347,0.01673,-0.03347,0.03347,-0.01673,0.03347,0.01673,0.01673,0.03347,0.0*
%
%ADD103OCTAGOND103*%

%ADD104R,0.16535X0.08661*%
%ADD105R,0.09843X0.07874*%
%ADD106C,0.05512*%
%ADD107C,0.07480*%
%ADD108R,0.03937X0.06299*%
%ADD109R,0.07677X0.06693*%
%ADD110R,0.04724X0.06693*%
%ADD111R,0.02165X0.05118*%
G36*
X128139Y-75256D02*
X128242Y-75266D01*
X128334Y-75286D01*
X128421Y-75312D01*
X128503Y-75338D01*
X128579Y-75373D01*
X128646Y-75404D01*
X128712Y-75440D01*
X128769Y-75476D01*
X128815Y-75512D01*
X128861Y-75547D01*
X128892Y-75573D01*
X128922Y-75599D01*
X128943Y-75619D01*
X128953Y-75629D01*
X128958Y-75634D01*
X129020Y-75711D01*
X129076Y-75793D01*
X129122Y-75875D01*
X129163Y-75962D01*
X129199Y-76054D01*
X129225Y-76141D01*
X129250Y-76234D01*
X129265Y-76315D01*
X129281Y-76397D01*
X129291Y-76469D01*
X129301Y-76536D01*
X129306Y-76597D01*
X129312Y-76643D01*
Y-76679D01*
Y-76700D01*
Y-76710D01*
X129306Y-76833D01*
X129296Y-76945D01*
X129281Y-77053D01*
X129255Y-77150D01*
X129230Y-77242D01*
X129199Y-77329D01*
X129168Y-77406D01*
X129138Y-77478D01*
X129107Y-77539D01*
X129071Y-77590D01*
X129045Y-77636D01*
X129020Y-77677D01*
X128994Y-77703D01*
X128979Y-77729D01*
X128969Y-77739D01*
X128963Y-77744D01*
X128897Y-77811D01*
X128820Y-77867D01*
X128743Y-77913D01*
X128666Y-77959D01*
X128585Y-77995D01*
X128508Y-78021D01*
X128431Y-78046D01*
X128354Y-78066D01*
X128282Y-78082D01*
X128221Y-78092D01*
X128160Y-78102D01*
X128108Y-78108D01*
X128067D01*
X128037Y-78113D01*
X128011D01*
X127924Y-78108D01*
X127842Y-78102D01*
X127689Y-78077D01*
X127622Y-78061D01*
X127555Y-78041D01*
X127499Y-78021D01*
X127443Y-77995D01*
X127397Y-77974D01*
X127356Y-77954D01*
X127315Y-77933D01*
X127289Y-77918D01*
X127264Y-77903D01*
X127248Y-77893D01*
X127238Y-77882D01*
X127233D01*
X127125Y-77790D01*
X127038Y-77683D01*
X126967Y-77575D01*
X126905Y-77468D01*
X126864Y-77375D01*
X126849Y-77334D01*
X126833Y-77298D01*
X126823Y-77268D01*
X126818Y-77247D01*
X126813Y-77232D01*
Y-77227D01*
X127289Y-77165D01*
X127330Y-77268D01*
X127381Y-77360D01*
X127427Y-77432D01*
X127473Y-77493D01*
X127515Y-77539D01*
X127545Y-77570D01*
X127566Y-77590D01*
X127576Y-77596D01*
X127648Y-77642D01*
X127719Y-77672D01*
X127791Y-77698D01*
X127863Y-77713D01*
X127919Y-77723D01*
X127970Y-77729D01*
X128011D01*
X128073Y-77723D01*
X128134Y-77718D01*
X128247Y-77693D01*
X128344Y-77652D01*
X128426Y-77611D01*
X128492Y-77570D01*
X128544Y-77529D01*
X128574Y-77503D01*
X128579Y-77493D01*
X128585D01*
X128661Y-77396D01*
X128718Y-77283D01*
X128764Y-77170D01*
X128795Y-77058D01*
X128815Y-76955D01*
X128820Y-76915D01*
X128825Y-76874D01*
X128830Y-76843D01*
X128835Y-76822D01*
Y-76807D01*
Y-76802D01*
X126798D01*
X126793Y-76746D01*
Y-76710D01*
Y-76684D01*
Y-76679D01*
X126798Y-76556D01*
X126808Y-76438D01*
X126823Y-76331D01*
X126849Y-76228D01*
X126874Y-76136D01*
X126900Y-76049D01*
X126936Y-75972D01*
X126967Y-75901D01*
X126997Y-75839D01*
X127028Y-75783D01*
X127059Y-75737D01*
X127084Y-75696D01*
X127110Y-75670D01*
X127125Y-75645D01*
X127136Y-75634D01*
X127141Y-75629D01*
X127207Y-75563D01*
X127279Y-75507D01*
X127351Y-75455D01*
X127427Y-75409D01*
X127504Y-75373D01*
X127576Y-75343D01*
X127648Y-75317D01*
X127719Y-75297D01*
X127786Y-75281D01*
X127847Y-75271D01*
X127899Y-75261D01*
X127945Y-75256D01*
X127986Y-75251D01*
X128037D01*
X128139Y-75256D01*
D02*
G37*
G36*
X131042Y-78051D02*
X130607D01*
X129573Y-75312D01*
X130054D01*
X130658Y-76986D01*
X130699Y-77094D01*
X130735Y-77196D01*
X130761Y-77283D01*
X130786Y-77360D01*
X130807Y-77421D01*
X130822Y-77468D01*
X130827Y-77498D01*
X130832Y-77503D01*
Y-77508D01*
X130863Y-77401D01*
X130894Y-77298D01*
X130924Y-77206D01*
X130950Y-77125D01*
X130971Y-77053D01*
X130991Y-77002D01*
X130996Y-76981D01*
X131001Y-76966D01*
X131006Y-76961D01*
Y-76955D01*
X131600Y-75312D01*
X132087D01*
X131042Y-78051D01*
D02*
G37*
G36*
X115821Y-86856D02*
X114393D01*
Y-86390D01*
X115821D01*
Y-86856D01*
D02*
G37*
G36*
X124335Y-78051D02*
X123808D01*
Y-77524D01*
X124335D01*
Y-78051D01*
D02*
G37*
G36*
X125282Y-75256D02*
X125338Y-75266D01*
X125384Y-75281D01*
X125431Y-75297D01*
X125467Y-75317D01*
X125492Y-75332D01*
X125513Y-75343D01*
X125518Y-75348D01*
X125569Y-75389D01*
X125620Y-75445D01*
X125666Y-75512D01*
X125712Y-75573D01*
X125753Y-75634D01*
X125784Y-75686D01*
X125794Y-75706D01*
X125804Y-75717D01*
X125810Y-75727D01*
Y-75312D01*
X126229D01*
Y-78051D01*
X125763D01*
Y-76623D01*
X125758Y-76515D01*
X125753Y-76413D01*
X125738Y-76321D01*
X125723Y-76239D01*
X125712Y-76172D01*
X125697Y-76121D01*
X125692Y-76106D01*
Y-76090D01*
X125687Y-76085D01*
Y-76080D01*
X125666Y-76024D01*
X125640Y-75972D01*
X125610Y-75926D01*
X125584Y-75890D01*
X125559Y-75860D01*
X125538Y-75839D01*
X125523Y-75829D01*
X125518Y-75824D01*
X125472Y-75793D01*
X125426Y-75773D01*
X125379Y-75752D01*
X125333Y-75742D01*
X125297Y-75737D01*
X125272Y-75732D01*
X125246D01*
X125185Y-75737D01*
X125123Y-75747D01*
X125067Y-75762D01*
X125016Y-75783D01*
X124970Y-75804D01*
X124939Y-75819D01*
X124914Y-75829D01*
X124908Y-75834D01*
X124744Y-75404D01*
X124837Y-75353D01*
X124924Y-75317D01*
X125001Y-75286D01*
X125072Y-75271D01*
X125134Y-75261D01*
X125180Y-75251D01*
X125221D01*
X125282Y-75256D01*
D02*
G37*
G36*
X130741Y-85197D02*
X130859Y-85207D01*
X130966Y-85222D01*
X131058Y-85238D01*
X131135Y-85258D01*
X131166Y-85268D01*
X131191Y-85273D01*
X131212Y-85278D01*
X131227Y-85284D01*
X131232Y-85289D01*
X131237D01*
X131330Y-85330D01*
X131411Y-85371D01*
X131483Y-85417D01*
X131539Y-85463D01*
X131586Y-85504D01*
X131621Y-85535D01*
X131642Y-85555D01*
X131647Y-85565D01*
X131693Y-85637D01*
X131734Y-85714D01*
X131770Y-85790D01*
X131801Y-85867D01*
X131821Y-85934D01*
X131836Y-85990D01*
X131842Y-86006D01*
Y-86021D01*
X131847Y-86031D01*
Y-86036D01*
X131391Y-86098D01*
X131360Y-85995D01*
X131324Y-85913D01*
X131289Y-85842D01*
X131253Y-85785D01*
X131217Y-85744D01*
X131191Y-85714D01*
X131171Y-85698D01*
X131166Y-85693D01*
X131099Y-85652D01*
X131022Y-85627D01*
X130940Y-85606D01*
X130864Y-85591D01*
X130792Y-85581D01*
X130730Y-85575D01*
X130679D01*
X130556Y-85581D01*
X130449Y-85601D01*
X130357Y-85627D01*
X130285Y-85652D01*
X130229Y-85683D01*
X130183Y-85709D01*
X130162Y-85729D01*
X130152Y-85734D01*
X130106Y-85785D01*
X130075Y-85847D01*
X130050Y-85913D01*
X130034Y-85980D01*
X130024Y-86036D01*
X130019Y-86088D01*
Y-86108D01*
Y-86123D01*
Y-86128D01*
Y-86134D01*
Y-86144D01*
Y-86164D01*
Y-86200D01*
X130024Y-86236D01*
Y-86246D01*
Y-86251D01*
X130075Y-86267D01*
X130137Y-86287D01*
X130265Y-86318D01*
X130403Y-86343D01*
X130536Y-86369D01*
X130603Y-86379D01*
X130659Y-86390D01*
X130715Y-86395D01*
X130761Y-86405D01*
X130797Y-86410D01*
X130828D01*
X130848Y-86415D01*
X130853D01*
X130951Y-86425D01*
X131033Y-86441D01*
X131104Y-86451D01*
X131161Y-86461D01*
X131207Y-86466D01*
X131237Y-86477D01*
X131258Y-86482D01*
X131263D01*
X131330Y-86502D01*
X131396Y-86528D01*
X131452Y-86553D01*
X131504Y-86579D01*
X131545Y-86599D01*
X131575Y-86620D01*
X131596Y-86630D01*
X131601Y-86635D01*
X131652Y-86676D01*
X131703Y-86722D01*
X131744Y-86768D01*
X131775Y-86809D01*
X131806Y-86845D01*
X131826Y-86876D01*
X131836Y-86902D01*
X131842Y-86907D01*
X131872Y-86968D01*
X131893Y-87035D01*
X131908Y-87091D01*
X131918Y-87147D01*
X131923Y-87199D01*
X131929Y-87234D01*
Y-87260D01*
Y-87270D01*
X131923Y-87332D01*
X131918Y-87393D01*
X131893Y-87501D01*
X131852Y-87598D01*
X131806Y-87680D01*
X131765Y-87746D01*
X131724Y-87792D01*
X131698Y-87823D01*
X131688Y-87828D01*
Y-87833D01*
X131642Y-87874D01*
X131591Y-87905D01*
X131478Y-87961D01*
X131365Y-87997D01*
X131253Y-88028D01*
X131150Y-88043D01*
X131109Y-88048D01*
X131068D01*
X131038Y-88054D01*
X130997D01*
X130894Y-88048D01*
X130802Y-88038D01*
X130715Y-88028D01*
X130638Y-88007D01*
X130572Y-87992D01*
X130526Y-87982D01*
X130495Y-87972D01*
X130485Y-87967D01*
X130393Y-87926D01*
X130306Y-87880D01*
X130219Y-87823D01*
X130142Y-87772D01*
X130080Y-87726D01*
X130029Y-87685D01*
X130009Y-87670D01*
X129993Y-87659D01*
X129988Y-87649D01*
X129983D01*
X129973Y-87721D01*
X129963Y-87787D01*
X129947Y-87844D01*
X129932Y-87895D01*
X129921Y-87936D01*
X129906Y-87967D01*
X129901Y-87987D01*
X129896Y-87992D01*
X129410D01*
X129440Y-87936D01*
X129466Y-87874D01*
X129486Y-87823D01*
X129502Y-87772D01*
X129512Y-87731D01*
X129522Y-87700D01*
X129527Y-87675D01*
Y-87670D01*
X129532Y-87634D01*
X129537Y-87582D01*
Y-87526D01*
X129543Y-87465D01*
X129548Y-87332D01*
Y-87193D01*
X129553Y-87122D01*
Y-87060D01*
Y-86999D01*
Y-86948D01*
Y-86907D01*
Y-86871D01*
Y-86850D01*
Y-86845D01*
Y-86231D01*
Y-86123D01*
X129558Y-86031D01*
X129563Y-85960D01*
Y-85898D01*
X129568Y-85852D01*
X129573Y-85826D01*
X129578Y-85806D01*
Y-85801D01*
X129594Y-85734D01*
X129619Y-85673D01*
X129640Y-85616D01*
X129666Y-85575D01*
X129686Y-85540D01*
X129707Y-85509D01*
X129717Y-85494D01*
X129722Y-85488D01*
X129763Y-85442D01*
X129814Y-85401D01*
X129870Y-85366D01*
X129921Y-85335D01*
X129968Y-85309D01*
X130009Y-85294D01*
X130034Y-85284D01*
X130039Y-85278D01*
X130044D01*
X130131Y-85248D01*
X130224Y-85227D01*
X130321Y-85212D01*
X130413Y-85202D01*
X130490Y-85197D01*
X130526Y-85192D01*
X130613D01*
X130741Y-85197D01*
D02*
G37*
G36*
X136437Y-2323D02*
X136524Y-2333D01*
X136600Y-2353D01*
X136667Y-2369D01*
X136723Y-2389D01*
X136759Y-2410D01*
X136785Y-2420D01*
X136795Y-2425D01*
X136862Y-2466D01*
X136923Y-2517D01*
X136979Y-2568D01*
X137031Y-2620D01*
X137072Y-2666D01*
X137102Y-2702D01*
X137123Y-2727D01*
X137128Y-2737D01*
Y-2379D01*
X137553D01*
Y-6168D01*
X137087D01*
Y-4837D01*
X137041Y-4888D01*
X136990Y-4939D01*
X136938Y-4980D01*
X136892Y-5016D01*
X136851Y-5041D01*
X136816Y-5067D01*
X136795Y-5077D01*
X136785Y-5082D01*
X136713Y-5113D01*
X136641Y-5139D01*
X136575Y-5154D01*
X136508Y-5169D01*
X136452Y-5174D01*
X136411Y-5179D01*
X136370D01*
X136252Y-5169D01*
X136140Y-5149D01*
X136037Y-5123D01*
X135950Y-5087D01*
X135873Y-5057D01*
X135843Y-5041D01*
X135817Y-5026D01*
X135797Y-5016D01*
X135776Y-5006D01*
X135771Y-5000D01*
X135766D01*
X135663Y-4929D01*
X135576Y-4847D01*
X135500Y-4760D01*
X135438Y-4678D01*
X135392Y-4601D01*
X135356Y-4545D01*
X135346Y-4519D01*
X135336Y-4504D01*
X135331Y-4493D01*
Y-4488D01*
X135280Y-4360D01*
X135244Y-4227D01*
X135213Y-4099D01*
X135198Y-3982D01*
X135187Y-3930D01*
Y-3879D01*
X135182Y-3838D01*
X135177Y-3802D01*
Y-3771D01*
Y-3751D01*
Y-3736D01*
Y-3731D01*
X135182Y-3587D01*
X135198Y-3449D01*
X135223Y-3331D01*
X135244Y-3224D01*
X135259Y-3173D01*
X135269Y-3132D01*
X135285Y-3096D01*
X135295Y-3065D01*
X135300Y-3039D01*
X135310Y-3024D01*
X135315Y-3014D01*
Y-3009D01*
X135372Y-2891D01*
X135438Y-2788D01*
X135505Y-2707D01*
X135571Y-2630D01*
X135628Y-2574D01*
X135674Y-2533D01*
X135710Y-2512D01*
X135715Y-2502D01*
X135720D01*
X135822Y-2440D01*
X135930Y-2394D01*
X136032Y-2364D01*
X136129Y-2338D01*
X136211Y-2328D01*
X136247Y-2323D01*
X136278D01*
X136303Y-2317D01*
X136339D01*
X136437Y-2323D01*
D02*
G37*
G36*
X158007Y-1892D02*
Y-2087D01*
X158012Y-2266D01*
X158017Y-2445D01*
X158028Y-2614D01*
X158038Y-2773D01*
X158048Y-2927D01*
X158063Y-3070D01*
X158079Y-3208D01*
X158094Y-3342D01*
X158115Y-3464D01*
X158135Y-3582D01*
X158151Y-3695D01*
X158171Y-3797D01*
X158197Y-3894D01*
X158217Y-3982D01*
X158238Y-4069D01*
X158258Y-4145D01*
X158279Y-4217D01*
X158299Y-4284D01*
X158319Y-4345D01*
X158340Y-4401D01*
X158361Y-4447D01*
X158381Y-4493D01*
X158396Y-4534D01*
X158427Y-4596D01*
X158448Y-4637D01*
X158463Y-4662D01*
X158468Y-4673D01*
X158760D01*
Y-5999D01*
X158314D01*
Y-5118D01*
X155816D01*
Y-5999D01*
X155370D01*
Y-4673D01*
X155708D01*
Y-1340D01*
X158007D01*
Y-1892D01*
D02*
G37*
G36*
X100325Y-2323D02*
X100417Y-2333D01*
X100499Y-2348D01*
X100581Y-2364D01*
X100658Y-2389D01*
X100730Y-2415D01*
X100791Y-2440D01*
X100853Y-2471D01*
X100909Y-2502D01*
X100955Y-2527D01*
X100996Y-2553D01*
X101032Y-2579D01*
X101057Y-2594D01*
X101078Y-2609D01*
X101088Y-2620D01*
X101093Y-2625D01*
X101165Y-2696D01*
X101232Y-2778D01*
X101288Y-2865D01*
X101334Y-2952D01*
X101375Y-3045D01*
X101411Y-3142D01*
X101436Y-3234D01*
X101462Y-3326D01*
X101477Y-3408D01*
X101493Y-3490D01*
X101498Y-3562D01*
X101508Y-3628D01*
Y-3679D01*
X101513Y-3715D01*
Y-3741D01*
Y-3751D01*
X101508Y-3879D01*
X101498Y-3997D01*
X101482Y-4104D01*
X101457Y-4207D01*
X101431Y-4304D01*
X101400Y-4391D01*
X101370Y-4468D01*
X101334Y-4540D01*
X101303Y-4601D01*
X101272Y-4657D01*
X101242Y-4703D01*
X101216Y-4744D01*
X101191Y-4770D01*
X101175Y-4796D01*
X101165Y-4806D01*
X101160Y-4811D01*
X101093Y-4877D01*
X101016Y-4934D01*
X100945Y-4980D01*
X100868Y-5026D01*
X100786Y-5062D01*
X100709Y-5087D01*
X100638Y-5113D01*
X100566Y-5133D01*
X100494Y-5149D01*
X100433Y-5159D01*
X100376Y-5169D01*
X100330Y-5174D01*
X100289D01*
X100259Y-5179D01*
X100233D01*
X100100Y-5174D01*
X99977Y-5154D01*
X99865Y-5128D01*
X99767Y-5098D01*
X99685Y-5067D01*
X99655Y-5052D01*
X99624Y-5041D01*
X99603Y-5031D01*
X99588Y-5021D01*
X99578Y-5016D01*
X99573D01*
X99465Y-4949D01*
X99368Y-4872D01*
X99291Y-4790D01*
X99225Y-4719D01*
X99173Y-4647D01*
X99137Y-4596D01*
X99122Y-4575D01*
X99112Y-4560D01*
X99107Y-4550D01*
Y-4545D01*
X99081Y-4483D01*
X99055Y-4422D01*
X99015Y-4289D01*
X98989Y-4145D01*
X98968Y-4012D01*
X98963Y-3951D01*
X98958Y-3894D01*
X98953Y-3843D01*
X98948Y-3797D01*
Y-3761D01*
Y-3736D01*
Y-3715D01*
Y-3710D01*
X98953Y-3592D01*
X98963Y-3480D01*
X98979Y-3372D01*
X99004Y-3275D01*
X99030Y-3188D01*
X99061Y-3101D01*
X99091Y-3024D01*
X99127Y-2957D01*
X99158Y-2896D01*
X99194Y-2840D01*
X99225Y-2799D01*
X99250Y-2758D01*
X99276Y-2727D01*
X99291Y-2707D01*
X99301Y-2696D01*
X99306Y-2691D01*
X99378Y-2625D01*
X99450Y-2568D01*
X99527Y-2517D01*
X99603Y-2476D01*
X99680Y-2440D01*
X99757Y-2410D01*
X99834Y-2384D01*
X99905Y-2364D01*
X99972Y-2348D01*
X100033Y-2338D01*
X100090Y-2328D01*
X100141Y-2323D01*
X100177Y-2317D01*
X100233D01*
X100325Y-2323D01*
D02*
G37*
G36*
X114648Y-74268D02*
X114745Y-74273D01*
X114832Y-74288D01*
X114914Y-74309D01*
X114991Y-74329D01*
X115063Y-74349D01*
X115129Y-74375D01*
X115185Y-74401D01*
X115237Y-74431D01*
X115283Y-74457D01*
X115324Y-74477D01*
X115354Y-74498D01*
X115380Y-74518D01*
X115401Y-74534D01*
X115411Y-74539D01*
X115416Y-74544D01*
X115472Y-74600D01*
X115523Y-74662D01*
X115569Y-74723D01*
X115605Y-74790D01*
X115672Y-74923D01*
X115718Y-75056D01*
X115733Y-75112D01*
X115749Y-75169D01*
X115759Y-75220D01*
X115769Y-75266D01*
X115774Y-75302D01*
Y-75327D01*
X115779Y-75348D01*
Y-75353D01*
X115303Y-75404D01*
X115293Y-75281D01*
X115272Y-75169D01*
X115242Y-75071D01*
X115201Y-74994D01*
X115165Y-74933D01*
X115134Y-74887D01*
X115114Y-74861D01*
X115104Y-74851D01*
X115022Y-74785D01*
X114935Y-74733D01*
X114842Y-74698D01*
X114755Y-74672D01*
X114679Y-74657D01*
X114643Y-74651D01*
X114617D01*
X114592Y-74646D01*
X114561D01*
X114448Y-74657D01*
X114346Y-74677D01*
X114259Y-74708D01*
X114182Y-74739D01*
X114126Y-74774D01*
X114080Y-74805D01*
X114054Y-74826D01*
X114044Y-74836D01*
X113977Y-74913D01*
X113926Y-74989D01*
X113890Y-75066D01*
X113870Y-75138D01*
X113854Y-75204D01*
X113849Y-75256D01*
X113844Y-75276D01*
Y-75292D01*
Y-75297D01*
Y-75302D01*
Y-75353D01*
X113854Y-75399D01*
X113880Y-75501D01*
X113916Y-75594D01*
X113952Y-75681D01*
X113993Y-75752D01*
X114028Y-75809D01*
X114044Y-75829D01*
X114054Y-75845D01*
X114059Y-75855D01*
X114064Y-75860D01*
X114110Y-75916D01*
X114162Y-75978D01*
X114223Y-76044D01*
X114289Y-76106D01*
X114423Y-76239D01*
X114566Y-76367D01*
X114632Y-76428D01*
X114694Y-76485D01*
X114750Y-76530D01*
X114802Y-76577D01*
X114842Y-76607D01*
X114873Y-76638D01*
X114894Y-76653D01*
X114899Y-76658D01*
X115037Y-76776D01*
X115160Y-76884D01*
X115262Y-76981D01*
X115349Y-77068D01*
X115421Y-77135D01*
X115467Y-77186D01*
X115488Y-77206D01*
X115498Y-77222D01*
X115503Y-77227D01*
X115508Y-77232D01*
X115580Y-77324D01*
X115646Y-77411D01*
X115698Y-77498D01*
X115738Y-77570D01*
X115774Y-77636D01*
X115795Y-77688D01*
X115805Y-77703D01*
X115810Y-77718D01*
X115815Y-77723D01*
Y-77729D01*
X115836Y-77790D01*
X115851Y-77846D01*
X115856Y-77903D01*
X115861Y-77949D01*
X115866Y-77990D01*
Y-78021D01*
Y-78046D01*
Y-78051D01*
X113363D01*
Y-77606D01*
X115226D01*
X115160Y-77514D01*
X115129Y-77473D01*
X115093Y-77437D01*
X115068Y-77406D01*
X115047Y-77381D01*
X115032Y-77365D01*
X115027Y-77360D01*
X115001Y-77334D01*
X114971Y-77304D01*
X114894Y-77232D01*
X114807Y-77155D01*
X114715Y-77073D01*
X114627Y-77002D01*
X114592Y-76971D01*
X114556Y-76940D01*
X114530Y-76915D01*
X114510Y-76899D01*
X114494Y-76889D01*
X114489Y-76884D01*
X114397Y-76807D01*
X114315Y-76735D01*
X114238Y-76664D01*
X114167Y-76602D01*
X114100Y-76541D01*
X114044Y-76485D01*
X113987Y-76438D01*
X113941Y-76392D01*
X113900Y-76351D01*
X113865Y-76315D01*
X113839Y-76285D01*
X113813Y-76264D01*
X113793Y-76244D01*
X113783Y-76228D01*
X113772Y-76223D01*
Y-76218D01*
X113696Y-76131D01*
X113634Y-76044D01*
X113583Y-75967D01*
X113537Y-75896D01*
X113506Y-75839D01*
X113480Y-75793D01*
X113470Y-75768D01*
X113465Y-75757D01*
X113434Y-75675D01*
X113409Y-75594D01*
X113393Y-75522D01*
X113378Y-75450D01*
X113373Y-75394D01*
X113368Y-75353D01*
Y-75322D01*
Y-75312D01*
X113373Y-75230D01*
X113383Y-75153D01*
X113399Y-75077D01*
X113419Y-75005D01*
X113470Y-74882D01*
X113501Y-74821D01*
X113527Y-74769D01*
X113557Y-74723D01*
X113588Y-74682D01*
X113614Y-74646D01*
X113639Y-74621D01*
X113660Y-74595D01*
X113675Y-74580D01*
X113685Y-74570D01*
X113690Y-74564D01*
X113752Y-74513D01*
X113819Y-74462D01*
X113885Y-74426D01*
X113957Y-74390D01*
X114028Y-74360D01*
X114100Y-74334D01*
X114238Y-74298D01*
X114305Y-74288D01*
X114361Y-74278D01*
X114412Y-74273D01*
X114458Y-74268D01*
X114499Y-74262D01*
X114551D01*
X114648Y-74268D01*
D02*
G37*
G36*
X103157Y-2323D02*
X103244Y-2333D01*
X103321Y-2353D01*
X103387Y-2369D01*
X103443Y-2389D01*
X103479Y-2410D01*
X103505Y-2420D01*
X103515Y-2425D01*
X103582Y-2466D01*
X103643Y-2517D01*
X103699Y-2568D01*
X103751Y-2620D01*
X103791Y-2666D01*
X103822Y-2702D01*
X103843Y-2727D01*
X103848Y-2737D01*
Y-2379D01*
X104273D01*
Y-6168D01*
X103807D01*
Y-4837D01*
X103761Y-4888D01*
X103710Y-4939D01*
X103658Y-4980D01*
X103612Y-5016D01*
X103571Y-5041D01*
X103535Y-5067D01*
X103515Y-5077D01*
X103505Y-5082D01*
X103433Y-5113D01*
X103361Y-5139D01*
X103295Y-5154D01*
X103228Y-5169D01*
X103172Y-5174D01*
X103131Y-5179D01*
X103090D01*
X102972Y-5169D01*
X102860Y-5149D01*
X102757Y-5123D01*
X102670Y-5087D01*
X102593Y-5057D01*
X102563Y-5041D01*
X102537Y-5026D01*
X102517Y-5016D01*
X102496Y-5006D01*
X102491Y-5000D01*
X102486D01*
X102383Y-4929D01*
X102296Y-4847D01*
X102220Y-4760D01*
X102158Y-4678D01*
X102112Y-4601D01*
X102076Y-4545D01*
X102066Y-4519D01*
X102056Y-4504D01*
X102051Y-4493D01*
Y-4488D01*
X101999Y-4360D01*
X101964Y-4227D01*
X101933Y-4099D01*
X101918Y-3982D01*
X101907Y-3930D01*
Y-3879D01*
X101902Y-3838D01*
X101897Y-3802D01*
Y-3771D01*
Y-3751D01*
Y-3736D01*
Y-3731D01*
X101902Y-3587D01*
X101918Y-3449D01*
X101943Y-3331D01*
X101964Y-3224D01*
X101979Y-3173D01*
X101989Y-3132D01*
X102005Y-3096D01*
X102015Y-3065D01*
X102020Y-3039D01*
X102030Y-3024D01*
X102035Y-3014D01*
Y-3009D01*
X102092Y-2891D01*
X102158Y-2788D01*
X102225Y-2707D01*
X102291Y-2630D01*
X102348Y-2574D01*
X102394Y-2533D01*
X102430Y-2512D01*
X102435Y-2502D01*
X102440D01*
X102542Y-2440D01*
X102650Y-2394D01*
X102752Y-2364D01*
X102849Y-2338D01*
X102931Y-2328D01*
X102967Y-2323D01*
X102998D01*
X103024Y-2317D01*
X103059D01*
X103157Y-2323D01*
D02*
G37*
G36*
X120437D02*
X120524Y-2333D01*
X120600Y-2353D01*
X120667Y-2369D01*
X120723Y-2389D01*
X120759Y-2410D01*
X120785Y-2420D01*
X120795Y-2425D01*
X120862Y-2466D01*
X120923Y-2517D01*
X120979Y-2568D01*
X121031Y-2620D01*
X121072Y-2666D01*
X121102Y-2702D01*
X121123Y-2727D01*
X121128Y-2737D01*
Y-2379D01*
X121553D01*
Y-6168D01*
X121087D01*
Y-4837D01*
X121041Y-4888D01*
X120990Y-4939D01*
X120938Y-4980D01*
X120892Y-5016D01*
X120851Y-5041D01*
X120816Y-5067D01*
X120795Y-5077D01*
X120785Y-5082D01*
X120713Y-5113D01*
X120641Y-5139D01*
X120575Y-5154D01*
X120508Y-5169D01*
X120452Y-5174D01*
X120411Y-5179D01*
X120370D01*
X120252Y-5169D01*
X120140Y-5149D01*
X120037Y-5123D01*
X119950Y-5087D01*
X119873Y-5057D01*
X119843Y-5041D01*
X119817Y-5026D01*
X119797Y-5016D01*
X119776Y-5006D01*
X119771Y-5000D01*
X119766D01*
X119664Y-4929D01*
X119577Y-4847D01*
X119500Y-4760D01*
X119438Y-4678D01*
X119392Y-4601D01*
X119356Y-4545D01*
X119346Y-4519D01*
X119336Y-4504D01*
X119331Y-4493D01*
Y-4488D01*
X119280Y-4360D01*
X119244Y-4227D01*
X119213Y-4099D01*
X119198Y-3982D01*
X119187Y-3930D01*
Y-3879D01*
X119182Y-3838D01*
X119177Y-3802D01*
Y-3771D01*
Y-3751D01*
Y-3736D01*
Y-3731D01*
X119182Y-3587D01*
X119198Y-3449D01*
X119223Y-3331D01*
X119244Y-3224D01*
X119259Y-3173D01*
X119269Y-3132D01*
X119285Y-3096D01*
X119295Y-3065D01*
X119300Y-3039D01*
X119310Y-3024D01*
X119315Y-3014D01*
Y-3009D01*
X119372Y-2891D01*
X119438Y-2788D01*
X119505Y-2707D01*
X119571Y-2630D01*
X119628Y-2574D01*
X119674Y-2533D01*
X119710Y-2512D01*
X119715Y-2502D01*
X119720D01*
X119822Y-2440D01*
X119930Y-2394D01*
X120032Y-2364D01*
X120129Y-2338D01*
X120211Y-2328D01*
X120247Y-2323D01*
X120278D01*
X120303Y-2317D01*
X120339D01*
X120437Y-2323D01*
D02*
G37*
G36*
X123291Y-76720D02*
Y-77145D01*
X121652D01*
Y-78051D01*
X121186D01*
Y-77145D01*
X120674D01*
Y-76720D01*
X121186D01*
Y-74273D01*
X121565D01*
X123291Y-76720D01*
D02*
G37*
G36*
X130362Y-79034D02*
X130490Y-79049D01*
X130607Y-79070D01*
X130710Y-79096D01*
X130756Y-79106D01*
X130797Y-79121D01*
X130833Y-79131D01*
X130858Y-79141D01*
X130884Y-79152D01*
X130899Y-79157D01*
X130910Y-79162D01*
X130915D01*
X131022Y-79213D01*
X131120Y-79275D01*
X131201Y-79336D01*
X131268Y-79397D01*
X131324Y-79454D01*
X131360Y-79500D01*
X131381Y-79531D01*
X131391Y-79536D01*
Y-79541D01*
X131442Y-79633D01*
X131483Y-79725D01*
X131509Y-79817D01*
X131529Y-79899D01*
X131539Y-79971D01*
X131544Y-80022D01*
X131550Y-80043D01*
Y-80058D01*
Y-80068D01*
Y-80073D01*
X131544Y-80171D01*
X131529Y-80258D01*
X131509Y-80335D01*
X131483Y-80406D01*
X131463Y-80462D01*
X131442Y-80509D01*
X131427Y-80534D01*
X131422Y-80544D01*
X131365Y-80621D01*
X131304Y-80688D01*
X131237Y-80749D01*
X131171Y-80800D01*
X131109Y-80841D01*
X131063Y-80872D01*
X131043Y-80882D01*
X131027Y-80893D01*
X131022Y-80898D01*
X131017D01*
X130976Y-80918D01*
X130925Y-80939D01*
X130812Y-80985D01*
X130694Y-81026D01*
X130577Y-81062D01*
X130464Y-81092D01*
X130418Y-81103D01*
X130372Y-81118D01*
X130341Y-81128D01*
X130310Y-81133D01*
X130295Y-81138D01*
X130290D01*
X130198Y-81159D01*
X130111Y-81179D01*
X130034Y-81200D01*
X129962Y-81220D01*
X129901Y-81236D01*
X129845Y-81251D01*
X129798Y-81261D01*
X129757Y-81271D01*
X129722Y-81282D01*
X129691Y-81292D01*
X129665Y-81302D01*
X129645Y-81307D01*
X129619Y-81312D01*
X129614Y-81318D01*
X129532Y-81353D01*
X129461Y-81389D01*
X129404Y-81430D01*
X129358Y-81466D01*
X129322Y-81497D01*
X129297Y-81522D01*
X129281Y-81538D01*
X129276Y-81543D01*
X129240Y-81594D01*
X129215Y-81645D01*
X129194Y-81696D01*
X129184Y-81743D01*
X129174Y-81789D01*
X129169Y-81819D01*
Y-81840D01*
Y-81850D01*
X129174Y-81911D01*
X129184Y-81973D01*
X129205Y-82029D01*
X129220Y-82075D01*
X129240Y-82116D01*
X129261Y-82147D01*
X129271Y-82168D01*
X129276Y-82173D01*
X129322Y-82224D01*
X129374Y-82270D01*
X129425Y-82311D01*
X129481Y-82347D01*
X129527Y-82372D01*
X129568Y-82393D01*
X129594Y-82403D01*
X129599Y-82408D01*
X129604D01*
X129691Y-82434D01*
X129778Y-82454D01*
X129860Y-82469D01*
X129942Y-82480D01*
X130008Y-82485D01*
X130065Y-82490D01*
X130111D01*
X130229Y-82485D01*
X130336Y-82475D01*
X130433Y-82454D01*
X130520Y-82434D01*
X130592Y-82413D01*
X130643Y-82393D01*
X130664Y-82388D01*
X130679Y-82383D01*
X130684Y-82377D01*
X130689D01*
X130781Y-82331D01*
X130858Y-82285D01*
X130920Y-82234D01*
X130976Y-82188D01*
X131017Y-82147D01*
X131043Y-82116D01*
X131063Y-82096D01*
X131068Y-82086D01*
X131109Y-82014D01*
X131145Y-81932D01*
X131171Y-81855D01*
X131191Y-81778D01*
X131207Y-81717D01*
X131217Y-81661D01*
Y-81640D01*
X131222Y-81625D01*
Y-81620D01*
Y-81615D01*
X131693Y-81656D01*
X131683Y-81794D01*
X131657Y-81927D01*
X131621Y-82039D01*
X131585Y-82142D01*
X131570Y-82188D01*
X131550Y-82224D01*
X131534Y-82260D01*
X131519Y-82290D01*
X131503Y-82311D01*
X131498Y-82326D01*
X131488Y-82336D01*
Y-82341D01*
X131411Y-82444D01*
X131319Y-82536D01*
X131232Y-82613D01*
X131145Y-82674D01*
X131063Y-82726D01*
X131032Y-82741D01*
X131002Y-82761D01*
X130976Y-82772D01*
X130961Y-82782D01*
X130950Y-82787D01*
X130945D01*
X130807Y-82838D01*
X130664Y-82874D01*
X130520Y-82900D01*
X130382Y-82915D01*
X130321Y-82925D01*
X130264D01*
X130213Y-82930D01*
X130172Y-82936D01*
X130085D01*
X129937Y-82930D01*
X129798Y-82915D01*
X129676Y-82889D01*
X129568Y-82864D01*
X129522Y-82848D01*
X129481Y-82838D01*
X129445Y-82823D01*
X129414Y-82813D01*
X129389Y-82807D01*
X129374Y-82797D01*
X129363Y-82792D01*
X129358D01*
X129246Y-82731D01*
X129143Y-82664D01*
X129061Y-82598D01*
X128990Y-82531D01*
X128933Y-82469D01*
X128892Y-82424D01*
X128872Y-82388D01*
X128862Y-82383D01*
Y-82377D01*
X128805Y-82275D01*
X128759Y-82178D01*
X128728Y-82080D01*
X128708Y-81993D01*
X128698Y-81917D01*
X128688Y-81860D01*
Y-81840D01*
Y-81824D01*
Y-81814D01*
Y-81809D01*
X128693Y-81701D01*
X128713Y-81599D01*
X128739Y-81507D01*
X128764Y-81430D01*
X128795Y-81364D01*
X128821Y-81318D01*
X128841Y-81287D01*
X128846Y-81277D01*
X128913Y-81190D01*
X128990Y-81118D01*
X129071Y-81051D01*
X129148Y-80995D01*
X129220Y-80949D01*
X129276Y-80913D01*
X129302Y-80903D01*
X129317Y-80893D01*
X129327Y-80888D01*
X129333D01*
X129379Y-80867D01*
X129435Y-80847D01*
X129496Y-80826D01*
X129563Y-80805D01*
X129701Y-80765D01*
X129840Y-80729D01*
X129906Y-80713D01*
X129967Y-80698D01*
X130024Y-80683D01*
X130075Y-80667D01*
X130116Y-80662D01*
X130147Y-80652D01*
X130167Y-80647D01*
X130172D01*
X130280Y-80621D01*
X130377Y-80596D01*
X130469Y-80570D01*
X130546Y-80544D01*
X130618Y-80524D01*
X130679Y-80503D01*
X130730Y-80483D01*
X130776Y-80462D01*
X130817Y-80442D01*
X130848Y-80427D01*
X130874Y-80416D01*
X130894Y-80401D01*
X130910Y-80391D01*
X130920Y-80386D01*
X130925Y-80381D01*
X130971Y-80329D01*
X131007Y-80273D01*
X131032Y-80217D01*
X131048Y-80160D01*
X131058Y-80114D01*
X131068Y-80079D01*
Y-80053D01*
Y-80043D01*
X131058Y-79956D01*
X131038Y-79879D01*
X131002Y-79812D01*
X130966Y-79756D01*
X130930Y-79710D01*
X130894Y-79674D01*
X130874Y-79648D01*
X130863Y-79643D01*
X130823Y-79613D01*
X130776Y-79587D01*
X130674Y-79546D01*
X130567Y-79515D01*
X130454Y-79495D01*
X130357Y-79485D01*
X130316Y-79479D01*
X130275Y-79474D01*
X130203D01*
X130049Y-79485D01*
X129916Y-79505D01*
X129804Y-79531D01*
X129711Y-79567D01*
X129640Y-79602D01*
X129614Y-79618D01*
X129589Y-79628D01*
X129568Y-79643D01*
X129558Y-79648D01*
X129548Y-79659D01*
X129471Y-79735D01*
X129409Y-79822D01*
X129363Y-79909D01*
X129327Y-79997D01*
X129307Y-80073D01*
X129297Y-80109D01*
X129292Y-80140D01*
X129287Y-80160D01*
X129281Y-80181D01*
Y-80191D01*
Y-80196D01*
X128800Y-80160D01*
X128810Y-80037D01*
X128836Y-79925D01*
X128867Y-79828D01*
X128902Y-79741D01*
X128933Y-79669D01*
X128964Y-79613D01*
X128974Y-79592D01*
X128984Y-79577D01*
X128990Y-79572D01*
Y-79567D01*
X129061Y-79474D01*
X129138Y-79392D01*
X129220Y-79321D01*
X129297Y-79264D01*
X129368Y-79224D01*
X129430Y-79193D01*
X129450Y-79182D01*
X129466Y-79172D01*
X129476Y-79167D01*
X129481D01*
X129604Y-79121D01*
X129732Y-79085D01*
X129860Y-79065D01*
X129973Y-79044D01*
X130024Y-79039D01*
X130075Y-79034D01*
X130116D01*
X130152Y-79029D01*
X130224D01*
X130362Y-79034D01*
D02*
G37*
G36*
X115145Y-80079D02*
X115242Y-80094D01*
X115334Y-80114D01*
X115416Y-80145D01*
X115493Y-80181D01*
X115565Y-80217D01*
X115631Y-80258D01*
X115688Y-80299D01*
X115739Y-80345D01*
X115785Y-80386D01*
X115821Y-80422D01*
X115852Y-80457D01*
X115877Y-80488D01*
X115893Y-80509D01*
X115903Y-80524D01*
X115908Y-80529D01*
Y-80135D01*
X116328D01*
Y-82874D01*
X115862D01*
Y-81384D01*
Y-81287D01*
X115852Y-81200D01*
X115841Y-81123D01*
X115831Y-81051D01*
X115811Y-80985D01*
X115795Y-80923D01*
X115775Y-80872D01*
X115754Y-80826D01*
X115739Y-80790D01*
X115718Y-80754D01*
X115698Y-80729D01*
X115683Y-80703D01*
X115672Y-80688D01*
X115662Y-80677D01*
X115652Y-80667D01*
X115570Y-80606D01*
X115483Y-80560D01*
X115396Y-80524D01*
X115314Y-80503D01*
X115247Y-80488D01*
X115191Y-80483D01*
X115171Y-80478D01*
X115140D01*
X115073Y-80483D01*
X115012Y-80493D01*
X114961Y-80503D01*
X114910Y-80519D01*
X114874Y-80539D01*
X114848Y-80550D01*
X114828Y-80560D01*
X114822Y-80565D01*
X114776Y-80596D01*
X114735Y-80637D01*
X114700Y-80672D01*
X114674Y-80708D01*
X114654Y-80739D01*
X114638Y-80765D01*
X114628Y-80785D01*
Y-80790D01*
X114608Y-80847D01*
X114597Y-80913D01*
X114587Y-80985D01*
X114577Y-81051D01*
Y-81113D01*
X114572Y-81164D01*
Y-81184D01*
Y-81200D01*
Y-81205D01*
Y-81210D01*
Y-82874D01*
X114106D01*
Y-81195D01*
Y-81082D01*
X114111Y-80985D01*
X114116Y-80908D01*
X114121Y-80847D01*
X114126Y-80800D01*
X114131Y-80765D01*
X114136Y-80744D01*
Y-80739D01*
X114152Y-80667D01*
X114177Y-80606D01*
X114198Y-80544D01*
X114224Y-80498D01*
X114244Y-80457D01*
X114264Y-80427D01*
X114275Y-80406D01*
X114280Y-80401D01*
X114321Y-80350D01*
X114372Y-80304D01*
X114423Y-80263D01*
X114474Y-80227D01*
X114520Y-80201D01*
X114556Y-80181D01*
X114582Y-80171D01*
X114592Y-80165D01*
X114669Y-80135D01*
X114751Y-80114D01*
X114822Y-80094D01*
X114894Y-80084D01*
X114956Y-80079D01*
X115002Y-80073D01*
X115043D01*
X115145Y-80079D01*
D02*
G37*
G36*
X120245Y-84295D02*
X120311Y-84388D01*
X120378Y-84470D01*
X120444Y-84546D01*
X120511Y-84613D01*
X120562Y-84664D01*
X120583Y-84685D01*
X120593Y-84700D01*
X120603Y-84705D01*
X120608Y-84710D01*
X120721Y-84802D01*
X120834Y-84889D01*
X120946Y-84966D01*
X121049Y-85028D01*
X121141Y-85079D01*
X121182Y-85099D01*
X121212Y-85120D01*
X121243Y-85130D01*
X121264Y-85140D01*
X121274Y-85150D01*
X121279D01*
Y-85601D01*
X121197Y-85565D01*
X121115Y-85529D01*
X121033Y-85488D01*
X120956Y-85448D01*
X120895Y-85417D01*
X120844Y-85386D01*
X120823Y-85376D01*
X120808Y-85366D01*
X120803Y-85360D01*
X120798D01*
X120700Y-85299D01*
X120613Y-85243D01*
X120537Y-85192D01*
X120475Y-85140D01*
X120424Y-85099D01*
X120388Y-85069D01*
X120362Y-85048D01*
X120357Y-85043D01*
Y-87992D01*
X119891D01*
Y-84203D01*
X120194D01*
X120245Y-84295D01*
D02*
G37*
G36*
X126348Y-84209D02*
X126445Y-84214D01*
X126532Y-84229D01*
X126614Y-84249D01*
X126691Y-84270D01*
X126762Y-84290D01*
X126829Y-84316D01*
X126885Y-84342D01*
X126937Y-84372D01*
X126983Y-84398D01*
X127024Y-84418D01*
X127054Y-84439D01*
X127080Y-84459D01*
X127100Y-84475D01*
X127111Y-84480D01*
X127116Y-84485D01*
X127172Y-84541D01*
X127223Y-84603D01*
X127269Y-84664D01*
X127305Y-84731D01*
X127372Y-84864D01*
X127418Y-84997D01*
X127433Y-85053D01*
X127449Y-85110D01*
X127459Y-85161D01*
X127469Y-85207D01*
X127474Y-85243D01*
Y-85268D01*
X127479Y-85289D01*
Y-85294D01*
X127003Y-85345D01*
X126993Y-85222D01*
X126972Y-85110D01*
X126942Y-85012D01*
X126901Y-84935D01*
X126865Y-84874D01*
X126834Y-84828D01*
X126814Y-84802D01*
X126803Y-84792D01*
X126722Y-84726D01*
X126635Y-84674D01*
X126542Y-84639D01*
X126455Y-84613D01*
X126379Y-84598D01*
X126343Y-84592D01*
X126317D01*
X126291Y-84587D01*
X126261D01*
X126148Y-84598D01*
X126046Y-84618D01*
X125959Y-84649D01*
X125882Y-84680D01*
X125826Y-84715D01*
X125779Y-84746D01*
X125754Y-84767D01*
X125744Y-84777D01*
X125677Y-84854D01*
X125626Y-84930D01*
X125590Y-85007D01*
X125569Y-85079D01*
X125554Y-85145D01*
X125549Y-85197D01*
X125544Y-85217D01*
Y-85232D01*
Y-85238D01*
Y-85243D01*
Y-85294D01*
X125554Y-85340D01*
X125580Y-85442D01*
X125616Y-85535D01*
X125651Y-85622D01*
X125692Y-85693D01*
X125728Y-85750D01*
X125744Y-85770D01*
X125754Y-85785D01*
X125759Y-85796D01*
X125764Y-85801D01*
X125810Y-85857D01*
X125861Y-85918D01*
X125923Y-85985D01*
X125989Y-86046D01*
X126122Y-86180D01*
X126266Y-86308D01*
X126332Y-86369D01*
X126394Y-86425D01*
X126450Y-86471D01*
X126501Y-86518D01*
X126542Y-86548D01*
X126573Y-86579D01*
X126593Y-86594D01*
X126599Y-86599D01*
X126737Y-86717D01*
X126860Y-86825D01*
X126962Y-86922D01*
X127049Y-87009D01*
X127121Y-87076D01*
X127167Y-87127D01*
X127187Y-87147D01*
X127198Y-87163D01*
X127203Y-87168D01*
X127208Y-87173D01*
X127280Y-87265D01*
X127346Y-87352D01*
X127397Y-87439D01*
X127438Y-87511D01*
X127474Y-87577D01*
X127495Y-87629D01*
X127505Y-87644D01*
X127510Y-87659D01*
X127515Y-87664D01*
Y-87670D01*
X127536Y-87731D01*
X127551Y-87787D01*
X127556Y-87844D01*
X127561Y-87890D01*
X127566Y-87931D01*
Y-87961D01*
Y-87987D01*
Y-87992D01*
X125063D01*
Y-87547D01*
X126926D01*
X126860Y-87454D01*
X126829Y-87414D01*
X126793Y-87378D01*
X126768Y-87347D01*
X126747Y-87321D01*
X126732Y-87306D01*
X126727Y-87301D01*
X126701Y-87275D01*
X126670Y-87245D01*
X126593Y-87173D01*
X126506Y-87096D01*
X126414Y-87014D01*
X126327Y-86942D01*
X126291Y-86912D01*
X126256Y-86881D01*
X126230Y-86856D01*
X126209Y-86840D01*
X126194Y-86830D01*
X126189Y-86825D01*
X126097Y-86748D01*
X126015Y-86676D01*
X125938Y-86605D01*
X125866Y-86543D01*
X125800Y-86482D01*
X125744Y-86425D01*
X125687Y-86379D01*
X125641Y-86333D01*
X125600Y-86292D01*
X125564Y-86256D01*
X125539Y-86226D01*
X125513Y-86205D01*
X125493Y-86185D01*
X125482Y-86169D01*
X125472Y-86164D01*
Y-86159D01*
X125395Y-86072D01*
X125334Y-85985D01*
X125283Y-85908D01*
X125237Y-85837D01*
X125206Y-85780D01*
X125180Y-85734D01*
X125170Y-85709D01*
X125165Y-85698D01*
X125134Y-85616D01*
X125109Y-85535D01*
X125093Y-85463D01*
X125078Y-85391D01*
X125073Y-85335D01*
X125068Y-85294D01*
Y-85263D01*
Y-85253D01*
X125073Y-85171D01*
X125083Y-85094D01*
X125099Y-85017D01*
X125119Y-84946D01*
X125170Y-84823D01*
X125201Y-84761D01*
X125226Y-84710D01*
X125257Y-84664D01*
X125288Y-84623D01*
X125313Y-84587D01*
X125339Y-84562D01*
X125360Y-84536D01*
X125375Y-84521D01*
X125385Y-84510D01*
X125390Y-84505D01*
X125452Y-84454D01*
X125518Y-84403D01*
X125585Y-84367D01*
X125657Y-84331D01*
X125728Y-84301D01*
X125800Y-84275D01*
X125938Y-84239D01*
X126005Y-84229D01*
X126061Y-84219D01*
X126112Y-84214D01*
X126158Y-84209D01*
X126199Y-84203D01*
X126251D01*
X126348Y-84209D01*
D02*
G37*
G36*
X120460Y-80452D02*
X120511Y-80391D01*
X120562Y-80340D01*
X120613Y-80294D01*
X120664Y-80253D01*
X120711Y-80222D01*
X120746Y-80201D01*
X120767Y-80186D01*
X120777Y-80181D01*
X120854Y-80145D01*
X120925Y-80120D01*
X121002Y-80099D01*
X121069Y-80089D01*
X121130Y-80079D01*
X121176Y-80073D01*
X121217D01*
X121340Y-80079D01*
X121453Y-80099D01*
X121560Y-80130D01*
X121648Y-80160D01*
X121724Y-80196D01*
X121755Y-80212D01*
X121781Y-80222D01*
X121801Y-80237D01*
X121816Y-80242D01*
X121822Y-80253D01*
X121827D01*
X121924Y-80324D01*
X122006Y-80406D01*
X122078Y-80493D01*
X122134Y-80575D01*
X122180Y-80652D01*
X122211Y-80708D01*
X122221Y-80734D01*
X122231Y-80749D01*
X122236Y-80760D01*
Y-80765D01*
X122282Y-80893D01*
X122313Y-81021D01*
X122339Y-81143D01*
X122354Y-81261D01*
X122359Y-81312D01*
X122364Y-81358D01*
Y-81400D01*
X122369Y-81435D01*
Y-81466D01*
Y-81486D01*
Y-81502D01*
Y-81507D01*
X122364Y-81661D01*
X122344Y-81804D01*
X122323Y-81932D01*
X122293Y-82039D01*
X122282Y-82086D01*
X122267Y-82132D01*
X122257Y-82168D01*
X122241Y-82198D01*
X122236Y-82224D01*
X122226Y-82239D01*
X122221Y-82249D01*
Y-82254D01*
X122160Y-82367D01*
X122093Y-82469D01*
X122021Y-82557D01*
X121955Y-82628D01*
X121893Y-82685D01*
X121842Y-82726D01*
X121822Y-82736D01*
X121806Y-82746D01*
X121801Y-82756D01*
X121796D01*
X121688Y-82818D01*
X121586Y-82859D01*
X121484Y-82889D01*
X121391Y-82915D01*
X121309Y-82925D01*
X121274Y-82930D01*
X121248D01*
X121222Y-82936D01*
X121192D01*
X121100Y-82930D01*
X121013Y-82920D01*
X120931Y-82900D01*
X120859Y-82869D01*
X120787Y-82838D01*
X120726Y-82807D01*
X120670Y-82766D01*
X120618Y-82731D01*
X120572Y-82695D01*
X120531Y-82654D01*
X120501Y-82623D01*
X120470Y-82587D01*
X120449Y-82562D01*
X120434Y-82541D01*
X120429Y-82531D01*
X120424Y-82526D01*
Y-82874D01*
X119994D01*
Y-79096D01*
X120460D01*
Y-80452D01*
D02*
G37*
G36*
X124115Y-80079D02*
X124207Y-80089D01*
X124289Y-80104D01*
X124371Y-80120D01*
X124448Y-80145D01*
X124520Y-80171D01*
X124581Y-80196D01*
X124643Y-80227D01*
X124699Y-80258D01*
X124745Y-80283D01*
X124786Y-80309D01*
X124822Y-80335D01*
X124847Y-80350D01*
X124868Y-80365D01*
X124878Y-80375D01*
X124883Y-80381D01*
X124955Y-80452D01*
X125022Y-80534D01*
X125078Y-80621D01*
X125124Y-80708D01*
X125165Y-80800D01*
X125201Y-80898D01*
X125226Y-80990D01*
X125252Y-81082D01*
X125267Y-81164D01*
X125283Y-81246D01*
X125288Y-81318D01*
X125298Y-81384D01*
Y-81435D01*
X125303Y-81471D01*
Y-81497D01*
Y-81507D01*
X125298Y-81635D01*
X125288Y-81753D01*
X125272Y-81860D01*
X125247Y-81963D01*
X125221Y-82060D01*
X125190Y-82147D01*
X125160Y-82224D01*
X125124Y-82296D01*
X125093Y-82357D01*
X125063Y-82413D01*
X125032Y-82459D01*
X125006Y-82500D01*
X124981Y-82526D01*
X124965Y-82551D01*
X124955Y-82562D01*
X124950Y-82567D01*
X124883Y-82633D01*
X124806Y-82690D01*
X124735Y-82736D01*
X124658Y-82782D01*
X124576Y-82818D01*
X124499Y-82843D01*
X124428Y-82869D01*
X124356Y-82889D01*
X124284Y-82905D01*
X124223Y-82915D01*
X124167Y-82925D01*
X124120Y-82930D01*
X124080D01*
X124049Y-82936D01*
X124023D01*
X123890Y-82930D01*
X123767Y-82910D01*
X123654Y-82884D01*
X123557Y-82854D01*
X123475Y-82823D01*
X123445Y-82807D01*
X123414Y-82797D01*
X123393Y-82787D01*
X123378Y-82777D01*
X123368Y-82772D01*
X123363D01*
X123255Y-82705D01*
X123158Y-82628D01*
X123081Y-82546D01*
X123014Y-82475D01*
X122963Y-82403D01*
X122927Y-82352D01*
X122912Y-82331D01*
X122902Y-82316D01*
X122897Y-82306D01*
Y-82301D01*
X122871Y-82239D01*
X122846Y-82178D01*
X122805Y-82045D01*
X122779Y-81901D01*
X122758Y-81768D01*
X122753Y-81707D01*
X122748Y-81650D01*
X122743Y-81599D01*
X122738Y-81553D01*
Y-81517D01*
Y-81492D01*
Y-81471D01*
Y-81466D01*
X122743Y-81348D01*
X122753Y-81236D01*
X122769Y-81128D01*
X122794Y-81031D01*
X122820Y-80944D01*
X122851Y-80857D01*
X122881Y-80780D01*
X122917Y-80713D01*
X122948Y-80652D01*
X122984Y-80596D01*
X123014Y-80555D01*
X123040Y-80514D01*
X123066Y-80483D01*
X123081Y-80462D01*
X123091Y-80452D01*
X123096Y-80447D01*
X123168Y-80381D01*
X123240Y-80324D01*
X123317Y-80273D01*
X123393Y-80232D01*
X123470Y-80196D01*
X123547Y-80165D01*
X123624Y-80140D01*
X123696Y-80120D01*
X123762Y-80104D01*
X123823Y-80094D01*
X123880Y-80084D01*
X123931Y-80079D01*
X123967Y-80073D01*
X124023D01*
X124115Y-80079D01*
D02*
G37*
G36*
X128063Y-82874D02*
X127597D01*
Y-81379D01*
X127592Y-81266D01*
X127587Y-81164D01*
X127576Y-81077D01*
X127561Y-81005D01*
X127546Y-80949D01*
X127535Y-80908D01*
X127530Y-80882D01*
X127525Y-80872D01*
X127495Y-80805D01*
X127453Y-80749D01*
X127413Y-80698D01*
X127366Y-80657D01*
X127331Y-80626D01*
X127300Y-80601D01*
X127279Y-80585D01*
X127269Y-80580D01*
X127198Y-80544D01*
X127131Y-80519D01*
X127064Y-80498D01*
X127003Y-80488D01*
X126957Y-80478D01*
X126916Y-80473D01*
X126880D01*
X126783Y-80478D01*
X126701Y-80498D01*
X126629Y-80524D01*
X126568Y-80550D01*
X126522Y-80580D01*
X126486Y-80606D01*
X126465Y-80626D01*
X126460Y-80632D01*
X126409Y-80698D01*
X126373Y-80780D01*
X126342Y-80862D01*
X126327Y-80944D01*
X126317Y-81021D01*
X126307Y-81082D01*
Y-81103D01*
Y-81123D01*
Y-81133D01*
Y-81138D01*
Y-82874D01*
X125841D01*
Y-81143D01*
X125846Y-81000D01*
X125856Y-80877D01*
X125872Y-80770D01*
X125887Y-80683D01*
X125907Y-80616D01*
X125923Y-80570D01*
X125933Y-80539D01*
X125938Y-80529D01*
X125979Y-80452D01*
X126030Y-80386D01*
X126081Y-80329D01*
X126138Y-80283D01*
X126184Y-80242D01*
X126225Y-80217D01*
X126250Y-80201D01*
X126256Y-80196D01*
X126261D01*
X126348Y-80155D01*
X126435Y-80125D01*
X126522Y-80104D01*
X126604Y-80089D01*
X126675Y-80079D01*
X126732Y-80073D01*
X126783D01*
X126875Y-80079D01*
X126957Y-80089D01*
X127039Y-80109D01*
X127116Y-80135D01*
X127187Y-80160D01*
X127254Y-80191D01*
X127320Y-80227D01*
X127372Y-80263D01*
X127423Y-80299D01*
X127469Y-80335D01*
X127505Y-80365D01*
X127541Y-80391D01*
X127566Y-80416D01*
X127582Y-80437D01*
X127592Y-80447D01*
X127597Y-80452D01*
Y-79096D01*
X128063D01*
Y-82874D01*
D02*
G37*
G36*
X117653Y-74273D02*
X117786Y-74298D01*
X117904Y-74334D01*
X118001Y-74370D01*
X118043Y-74390D01*
X118083Y-74411D01*
X118114Y-74431D01*
X118140Y-74447D01*
X118160Y-74462D01*
X118176Y-74472D01*
X118186Y-74477D01*
X118191Y-74483D01*
X118288Y-74575D01*
X118370Y-74672D01*
X118442Y-74779D01*
X118498Y-74882D01*
X118544Y-74969D01*
X118560Y-75010D01*
X118575Y-75046D01*
X118585Y-75071D01*
X118595Y-75092D01*
X118600Y-75107D01*
Y-75112D01*
X118626Y-75194D01*
X118647Y-75276D01*
X118677Y-75455D01*
X118703Y-75634D01*
X118718Y-75804D01*
X118723Y-75885D01*
X118728Y-75957D01*
Y-76024D01*
X118734Y-76080D01*
Y-76126D01*
Y-76162D01*
Y-76182D01*
Y-76193D01*
X118728Y-76382D01*
X118718Y-76561D01*
X118698Y-76730D01*
X118677Y-76879D01*
X118647Y-77017D01*
X118616Y-77145D01*
X118585Y-77258D01*
X118549Y-77360D01*
X118514Y-77447D01*
X118483Y-77524D01*
X118452Y-77585D01*
X118421Y-77636D01*
X118401Y-77677D01*
X118380Y-77708D01*
X118370Y-77723D01*
X118365Y-77729D01*
X118304Y-77795D01*
X118237Y-77857D01*
X118170Y-77908D01*
X118099Y-77949D01*
X118027Y-77990D01*
X117955Y-78021D01*
X117884Y-78046D01*
X117817Y-78066D01*
X117756Y-78082D01*
X117694Y-78092D01*
X117643Y-78102D01*
X117597Y-78108D01*
X117556D01*
X117530Y-78113D01*
X117505D01*
X117428Y-78108D01*
X117356Y-78102D01*
X117223Y-78077D01*
X117105Y-78041D01*
X117008Y-78000D01*
X116962Y-77979D01*
X116926Y-77964D01*
X116896Y-77944D01*
X116870Y-77928D01*
X116844Y-77913D01*
X116829Y-77903D01*
X116824Y-77893D01*
X116819D01*
X116721Y-77800D01*
X116640Y-77703D01*
X116568Y-77596D01*
X116512Y-77493D01*
X116465Y-77406D01*
X116450Y-77365D01*
X116435Y-77329D01*
X116425Y-77304D01*
X116414Y-77278D01*
X116409Y-77268D01*
Y-77263D01*
X116384Y-77181D01*
X116363Y-77099D01*
X116327Y-76925D01*
X116307Y-76746D01*
X116286Y-76572D01*
X116281Y-76495D01*
X116276Y-76423D01*
Y-76357D01*
X116271Y-76300D01*
Y-76254D01*
Y-76223D01*
Y-76198D01*
Y-76193D01*
Y-76090D01*
X116276Y-75993D01*
X116281Y-75901D01*
X116286Y-75814D01*
X116291Y-75737D01*
X116297Y-75665D01*
X116307Y-75599D01*
X116312Y-75537D01*
X116322Y-75481D01*
X116332Y-75435D01*
X116338Y-75394D01*
X116343Y-75363D01*
X116348Y-75338D01*
X116353Y-75317D01*
X116358Y-75307D01*
Y-75302D01*
X116394Y-75184D01*
X116430Y-75071D01*
X116471Y-74979D01*
X116506Y-74897D01*
X116542Y-74831D01*
X116568Y-74779D01*
X116588Y-74749D01*
X116594Y-74739D01*
X116650Y-74657D01*
X116716Y-74585D01*
X116778Y-74524D01*
X116839Y-74477D01*
X116891Y-74436D01*
X116931Y-74406D01*
X116962Y-74390D01*
X116967Y-74385D01*
X116972D01*
X117059Y-74344D01*
X117152Y-74314D01*
X117244Y-74293D01*
X117326Y-74278D01*
X117397Y-74268D01*
X117454Y-74262D01*
X117582D01*
X117653Y-74273D01*
D02*
G37*
G36*
X119937Y-78051D02*
X119410D01*
Y-77524D01*
X119937D01*
Y-78051D01*
D02*
G37*
G36*
X112621Y-84295D02*
X112688Y-84388D01*
X112754Y-84470D01*
X112821Y-84546D01*
X112887Y-84613D01*
X112938Y-84664D01*
X112959Y-84685D01*
X112969Y-84700D01*
X112979Y-84705D01*
X112985Y-84710D01*
X113097Y-84802D01*
X113210Y-84889D01*
X113322Y-84966D01*
X113425Y-85028D01*
X113517Y-85079D01*
X113558Y-85099D01*
X113589Y-85120D01*
X113619Y-85130D01*
X113640Y-85140D01*
X113650Y-85150D01*
X113655D01*
Y-85601D01*
X113573Y-85565D01*
X113491Y-85529D01*
X113409Y-85488D01*
X113333Y-85448D01*
X113271Y-85417D01*
X113220Y-85386D01*
X113200Y-85376D01*
X113184Y-85366D01*
X113179Y-85360D01*
X113174D01*
X113077Y-85299D01*
X112990Y-85243D01*
X112913Y-85192D01*
X112851Y-85140D01*
X112800Y-85099D01*
X112764Y-85069D01*
X112739Y-85048D01*
X112734Y-85043D01*
Y-87992D01*
X112268D01*
Y-84203D01*
X112570D01*
X112621Y-84295D01*
D02*
G37*
G36*
X110993Y-86205D02*
X110558Y-86267D01*
X110517Y-86210D01*
X110471Y-86154D01*
X110425Y-86108D01*
X110379Y-86072D01*
X110337Y-86041D01*
X110307Y-86021D01*
X110286Y-86006D01*
X110276Y-86001D01*
X110210Y-85965D01*
X110138Y-85939D01*
X110071Y-85918D01*
X110005Y-85908D01*
X109953Y-85898D01*
X109907Y-85893D01*
X109805D01*
X109744Y-85903D01*
X109626Y-85929D01*
X109529Y-85965D01*
X109441Y-86006D01*
X109375Y-86052D01*
X109329Y-86088D01*
X109298Y-86113D01*
X109288Y-86118D01*
Y-86123D01*
X109247Y-86169D01*
X109211Y-86216D01*
X109160Y-86318D01*
X109119Y-86420D01*
X109088Y-86523D01*
X109073Y-86610D01*
X109068Y-86651D01*
Y-86681D01*
X109063Y-86712D01*
Y-86733D01*
Y-86743D01*
Y-86748D01*
Y-86825D01*
X109073Y-86897D01*
X109098Y-87030D01*
X109134Y-87142D01*
X109175Y-87239D01*
X109201Y-87280D01*
X109221Y-87316D01*
X109242Y-87347D01*
X109257Y-87373D01*
X109273Y-87393D01*
X109283Y-87409D01*
X109288Y-87414D01*
X109293Y-87419D01*
X109339Y-87465D01*
X109385Y-87501D01*
X109431Y-87537D01*
X109477Y-87562D01*
X109575Y-87608D01*
X109667Y-87639D01*
X109744Y-87654D01*
X109779Y-87659D01*
X109810Y-87664D01*
X109831Y-87670D01*
X109866D01*
X109964Y-87664D01*
X110056Y-87644D01*
X110138Y-87613D01*
X110210Y-87582D01*
X110266Y-87552D01*
X110307Y-87521D01*
X110332Y-87501D01*
X110343Y-87495D01*
X110409Y-87419D01*
X110460Y-87337D01*
X110506Y-87250D01*
X110537Y-87163D01*
X110563Y-87086D01*
X110568Y-87050D01*
X110578Y-87019D01*
X110583Y-86999D01*
Y-86978D01*
X110588Y-86968D01*
Y-86963D01*
X111075Y-86999D01*
X111065Y-87086D01*
X111044Y-87168D01*
X110998Y-87321D01*
X110967Y-87388D01*
X110937Y-87454D01*
X110906Y-87511D01*
X110875Y-87562D01*
X110839Y-87608D01*
X110809Y-87649D01*
X110783Y-87685D01*
X110757Y-87716D01*
X110737Y-87736D01*
X110722Y-87752D01*
X110711Y-87762D01*
X110706Y-87767D01*
X110645Y-87818D01*
X110578Y-87859D01*
X110506Y-87900D01*
X110435Y-87931D01*
X110297Y-87982D01*
X110163Y-88018D01*
X110102Y-88028D01*
X110046Y-88038D01*
X109994Y-88043D01*
X109953Y-88048D01*
X109918Y-88054D01*
X109866D01*
X109754Y-88048D01*
X109641Y-88033D01*
X109539Y-88013D01*
X109447Y-87982D01*
X109354Y-87946D01*
X109278Y-87910D01*
X109201Y-87869D01*
X109134Y-87823D01*
X109073Y-87782D01*
X109022Y-87741D01*
X108976Y-87705D01*
X108940Y-87670D01*
X108909Y-87639D01*
X108889Y-87618D01*
X108878Y-87603D01*
X108873Y-87598D01*
X108822Y-87526D01*
X108771Y-87454D01*
X108735Y-87378D01*
X108699Y-87301D01*
X108668Y-87224D01*
X108643Y-87152D01*
X108607Y-87014D01*
X108597Y-86953D01*
X108587Y-86891D01*
X108581Y-86840D01*
X108576Y-86799D01*
X108571Y-86763D01*
Y-86733D01*
Y-86717D01*
Y-86712D01*
X108576Y-86615D01*
X108587Y-86518D01*
X108602Y-86431D01*
X108622Y-86343D01*
X108653Y-86267D01*
X108679Y-86195D01*
X108709Y-86128D01*
X108740Y-86067D01*
X108776Y-86011D01*
X108807Y-85965D01*
X108832Y-85924D01*
X108858Y-85888D01*
X108883Y-85862D01*
X108899Y-85842D01*
X108909Y-85831D01*
X108914Y-85826D01*
X108981Y-85765D01*
X109047Y-85714D01*
X109119Y-85668D01*
X109186Y-85627D01*
X109257Y-85596D01*
X109329Y-85565D01*
X109457Y-85524D01*
X109518Y-85514D01*
X109575Y-85504D01*
X109621Y-85494D01*
X109667Y-85488D01*
X109703Y-85483D01*
X109820D01*
X109887Y-85494D01*
X110015Y-85519D01*
X110138Y-85560D01*
X110245Y-85601D01*
X110291Y-85627D01*
X110332Y-85647D01*
X110368Y-85668D01*
X110404Y-85688D01*
X110425Y-85703D01*
X110445Y-85714D01*
X110455Y-85719D01*
X110460Y-85724D01*
X110261Y-84710D01*
X108750D01*
Y-84265D01*
X110629D01*
X110993Y-86205D01*
D02*
G37*
G36*
X118232Y-80079D02*
X118350Y-80089D01*
X118458Y-80104D01*
X118550Y-80120D01*
X118627Y-80140D01*
X118657Y-80150D01*
X118683Y-80155D01*
X118703Y-80160D01*
X118719Y-80165D01*
X118724Y-80171D01*
X118729D01*
X118821Y-80212D01*
X118903Y-80253D01*
X118975Y-80299D01*
X119031Y-80345D01*
X119077Y-80386D01*
X119113Y-80416D01*
X119133Y-80437D01*
X119139Y-80447D01*
X119185Y-80519D01*
X119226Y-80596D01*
X119262Y-80672D01*
X119292Y-80749D01*
X119313Y-80816D01*
X119328Y-80872D01*
X119333Y-80888D01*
Y-80903D01*
X119338Y-80913D01*
Y-80918D01*
X118883Y-80980D01*
X118852Y-80877D01*
X118816Y-80795D01*
X118780Y-80724D01*
X118744Y-80667D01*
X118709Y-80626D01*
X118683Y-80596D01*
X118663Y-80580D01*
X118657Y-80575D01*
X118591Y-80534D01*
X118514Y-80509D01*
X118432Y-80488D01*
X118355Y-80473D01*
X118284Y-80462D01*
X118222Y-80457D01*
X118171D01*
X118048Y-80462D01*
X117941Y-80483D01*
X117848Y-80509D01*
X117777Y-80534D01*
X117720Y-80565D01*
X117674Y-80590D01*
X117654Y-80611D01*
X117644Y-80616D01*
X117598Y-80667D01*
X117567Y-80729D01*
X117541Y-80795D01*
X117526Y-80862D01*
X117516Y-80918D01*
X117510Y-80969D01*
Y-80990D01*
Y-81005D01*
Y-81010D01*
Y-81015D01*
Y-81026D01*
Y-81046D01*
Y-81082D01*
X117516Y-81118D01*
Y-81128D01*
Y-81133D01*
X117567Y-81149D01*
X117628Y-81169D01*
X117756Y-81200D01*
X117894Y-81225D01*
X118028Y-81251D01*
X118094Y-81261D01*
X118150Y-81271D01*
X118207Y-81277D01*
X118253Y-81287D01*
X118289Y-81292D01*
X118319D01*
X118340Y-81297D01*
X118345D01*
X118442Y-81307D01*
X118524Y-81323D01*
X118596Y-81333D01*
X118652Y-81343D01*
X118698Y-81348D01*
X118729Y-81358D01*
X118749Y-81364D01*
X118755D01*
X118821Y-81384D01*
X118888Y-81410D01*
X118944Y-81435D01*
X118995Y-81461D01*
X119036Y-81481D01*
X119067Y-81502D01*
X119088Y-81512D01*
X119093Y-81517D01*
X119144Y-81558D01*
X119195Y-81604D01*
X119236Y-81650D01*
X119267Y-81691D01*
X119297Y-81727D01*
X119318Y-81758D01*
X119328Y-81783D01*
X119333Y-81789D01*
X119364Y-81850D01*
X119384Y-81917D01*
X119400Y-81973D01*
X119410Y-82029D01*
X119415Y-82080D01*
X119420Y-82116D01*
Y-82142D01*
Y-82152D01*
X119415Y-82213D01*
X119410Y-82275D01*
X119384Y-82383D01*
X119343Y-82480D01*
X119297Y-82562D01*
X119256Y-82628D01*
X119216Y-82674D01*
X119190Y-82705D01*
X119180Y-82710D01*
Y-82715D01*
X119133Y-82756D01*
X119082Y-82787D01*
X118970Y-82843D01*
X118857Y-82879D01*
X118744Y-82910D01*
X118642Y-82925D01*
X118601Y-82930D01*
X118560D01*
X118529Y-82936D01*
X118488D01*
X118386Y-82930D01*
X118294Y-82920D01*
X118207Y-82910D01*
X118130Y-82889D01*
X118063Y-82874D01*
X118017Y-82864D01*
X117987Y-82854D01*
X117976Y-82848D01*
X117884Y-82807D01*
X117797Y-82761D01*
X117710Y-82705D01*
X117633Y-82654D01*
X117572Y-82608D01*
X117521Y-82567D01*
X117500Y-82551D01*
X117485Y-82541D01*
X117480Y-82531D01*
X117475D01*
X117464Y-82603D01*
X117454Y-82669D01*
X117439Y-82726D01*
X117423Y-82777D01*
X117413Y-82818D01*
X117398Y-82848D01*
X117393Y-82869D01*
X117388Y-82874D01*
X116901D01*
X116932Y-82818D01*
X116957Y-82756D01*
X116978Y-82705D01*
X116993Y-82654D01*
X117004Y-82613D01*
X117014Y-82582D01*
X117019Y-82557D01*
Y-82551D01*
X117024Y-82516D01*
X117029Y-82464D01*
Y-82408D01*
X117034Y-82347D01*
X117040Y-82213D01*
Y-82075D01*
X117045Y-82004D01*
Y-81942D01*
Y-81881D01*
Y-81830D01*
Y-81789D01*
Y-81753D01*
Y-81732D01*
Y-81727D01*
Y-81113D01*
Y-81005D01*
X117050Y-80913D01*
X117055Y-80841D01*
Y-80780D01*
X117060Y-80734D01*
X117065Y-80708D01*
X117070Y-80688D01*
Y-80683D01*
X117086Y-80616D01*
X117111Y-80555D01*
X117132Y-80498D01*
X117157Y-80457D01*
X117178Y-80422D01*
X117198Y-80391D01*
X117208Y-80375D01*
X117214Y-80370D01*
X117254Y-80324D01*
X117306Y-80283D01*
X117362Y-80247D01*
X117413Y-80217D01*
X117459Y-80191D01*
X117500Y-80176D01*
X117526Y-80165D01*
X117531Y-80160D01*
X117536D01*
X117623Y-80130D01*
X117715Y-80109D01*
X117813Y-80094D01*
X117905Y-80084D01*
X117982Y-80079D01*
X118017Y-80073D01*
X118104D01*
X118232Y-80079D01*
D02*
G37*
G36*
X146518Y-5118D02*
X146062D01*
Y-2809D01*
X145305Y-5118D01*
X144890D01*
X144081Y-2916D01*
Y-5118D01*
X143615D01*
Y-2379D01*
X144286D01*
X145079Y-4575D01*
X145796Y-2379D01*
X146518D01*
Y-5118D01*
D02*
G37*
G36*
X109531D02*
X109029D01*
X107744Y-3045D01*
Y-5118D01*
X107278D01*
Y-2379D01*
X107780D01*
X109065Y-4473D01*
Y-2379D01*
X109531D01*
Y-5118D01*
D02*
G37*
G36*
X149482D02*
X148981D01*
X147696Y-3045D01*
Y-5118D01*
X147230D01*
Y-2379D01*
X147731D01*
X149016Y-4473D01*
Y-2379D01*
X149482D01*
Y-5118D01*
D02*
G37*
G36*
X105955Y-87992D02*
X105427D01*
Y-87465D01*
X105955D01*
Y-87992D01*
D02*
G37*
G36*
X134627Y-87060D02*
Y-87122D01*
Y-87183D01*
Y-87234D01*
X134632Y-87275D01*
Y-87316D01*
X134637Y-87352D01*
Y-87409D01*
X134642Y-87444D01*
X134647Y-87470D01*
X134652Y-87480D01*
Y-87485D01*
X134673Y-87526D01*
X134698Y-87552D01*
X134724Y-87572D01*
X134729Y-87577D01*
X134734D01*
X134760Y-87588D01*
X134791Y-87593D01*
X134857Y-87598D01*
X134888Y-87603D01*
X135139D01*
Y-87992D01*
X135062Y-87997D01*
X134990Y-88002D01*
X134929Y-88007D01*
X134873D01*
X134827Y-88013D01*
X134765D01*
X134673Y-88007D01*
X134591Y-87997D01*
X134524Y-87977D01*
X134468Y-87956D01*
X134422Y-87936D01*
X134391Y-87915D01*
X134371Y-87905D01*
X134366Y-87900D01*
X134320Y-87854D01*
X134279Y-87813D01*
X134253Y-87767D01*
X134227Y-87726D01*
X134212Y-87690D01*
X134202Y-87664D01*
X134197Y-87644D01*
Y-87639D01*
X134192Y-87608D01*
X134186Y-87567D01*
X134181Y-87521D01*
X134176Y-87475D01*
X134171Y-87373D01*
X134166Y-87265D01*
X134161Y-87163D01*
Y-87122D01*
Y-87081D01*
Y-87050D01*
Y-87024D01*
Y-87009D01*
Y-87004D01*
Y-85637D01*
X132932D01*
Y-87992D01*
X132466D01*
Y-85253D01*
X134627D01*
Y-87060D01*
D02*
G37*
G36*
X113883Y-5118D02*
X113402D01*
Y-1903D01*
X112311Y-5118D01*
X111861D01*
X110760Y-1954D01*
Y-5118D01*
X110279D01*
Y-1340D01*
X110954D01*
X111861Y-3971D01*
X111907Y-4109D01*
X111948Y-4232D01*
X111984Y-4340D01*
X112009Y-4422D01*
X112030Y-4488D01*
X112050Y-4534D01*
X112055Y-4565D01*
X112060Y-4575D01*
X112086Y-4499D01*
X112111Y-4411D01*
X112142Y-4319D01*
X112173Y-4227D01*
X112199Y-4145D01*
X112209Y-4109D01*
X112219Y-4079D01*
X112229Y-4053D01*
X112234Y-4033D01*
X112240Y-4022D01*
Y-4017D01*
X113136Y-1340D01*
X113883D01*
Y-5118D01*
D02*
G37*
G36*
X115870Y-3982D02*
X114441D01*
Y-3516D01*
X115870D01*
Y-3982D01*
D02*
G37*
G36*
X123486Y-84214D02*
X123619Y-84239D01*
X123737Y-84275D01*
X123834Y-84311D01*
X123875Y-84331D01*
X123916Y-84352D01*
X123946Y-84372D01*
X123972Y-84388D01*
X123993Y-84403D01*
X124008Y-84413D01*
X124018Y-84418D01*
X124023Y-84424D01*
X124121Y-84516D01*
X124203Y-84613D01*
X124274Y-84720D01*
X124330Y-84823D01*
X124377Y-84910D01*
X124392Y-84951D01*
X124407Y-84987D01*
X124417Y-85012D01*
X124428Y-85033D01*
X124433Y-85048D01*
Y-85053D01*
X124459Y-85135D01*
X124479Y-85217D01*
X124510Y-85396D01*
X124535Y-85575D01*
X124551Y-85744D01*
X124556Y-85826D01*
X124561Y-85898D01*
Y-85965D01*
X124566Y-86021D01*
Y-86067D01*
Y-86103D01*
Y-86123D01*
Y-86134D01*
X124561Y-86323D01*
X124551Y-86502D01*
X124530Y-86671D01*
X124510Y-86820D01*
X124479Y-86958D01*
X124448Y-87086D01*
X124417Y-87199D01*
X124382Y-87301D01*
X124346Y-87388D01*
X124315Y-87465D01*
X124284Y-87526D01*
X124254Y-87577D01*
X124233Y-87618D01*
X124213Y-87649D01*
X124203Y-87664D01*
X124197Y-87670D01*
X124136Y-87736D01*
X124069Y-87798D01*
X124003Y-87849D01*
X123931Y-87890D01*
X123859Y-87931D01*
X123788Y-87961D01*
X123716Y-87987D01*
X123650Y-88007D01*
X123588Y-88023D01*
X123527Y-88033D01*
X123475Y-88043D01*
X123429Y-88048D01*
X123388D01*
X123363Y-88054D01*
X123337D01*
X123260Y-88048D01*
X123189Y-88043D01*
X123056Y-88018D01*
X122938Y-87982D01*
X122841Y-87941D01*
X122794Y-87920D01*
X122759Y-87905D01*
X122728Y-87885D01*
X122702Y-87869D01*
X122677Y-87854D01*
X122661Y-87844D01*
X122656Y-87833D01*
X122651D01*
X122554Y-87741D01*
X122472Y-87644D01*
X122400Y-87537D01*
X122344Y-87434D01*
X122298Y-87347D01*
X122283Y-87306D01*
X122267Y-87270D01*
X122257Y-87245D01*
X122247Y-87219D01*
X122241Y-87209D01*
Y-87204D01*
X122216Y-87122D01*
X122195Y-87040D01*
X122160Y-86866D01*
X122139Y-86686D01*
X122119Y-86513D01*
X122114Y-86436D01*
X122108Y-86364D01*
Y-86297D01*
X122103Y-86241D01*
Y-86195D01*
Y-86164D01*
Y-86139D01*
Y-86134D01*
Y-86031D01*
X122108Y-85934D01*
X122114Y-85842D01*
X122119Y-85755D01*
X122124Y-85678D01*
X122129Y-85606D01*
X122139Y-85540D01*
X122144Y-85478D01*
X122154Y-85422D01*
X122165Y-85376D01*
X122170Y-85335D01*
X122175Y-85304D01*
X122180Y-85278D01*
X122185Y-85258D01*
X122190Y-85248D01*
Y-85243D01*
X122226Y-85125D01*
X122262Y-85012D01*
X122303Y-84920D01*
X122339Y-84838D01*
X122375Y-84772D01*
X122400Y-84720D01*
X122421Y-84690D01*
X122426Y-84680D01*
X122482Y-84598D01*
X122549Y-84526D01*
X122610Y-84464D01*
X122672Y-84418D01*
X122723Y-84377D01*
X122764Y-84347D01*
X122794Y-84331D01*
X122800Y-84326D01*
X122805D01*
X122892Y-84285D01*
X122984Y-84254D01*
X123076Y-84234D01*
X123158Y-84219D01*
X123230Y-84209D01*
X123286Y-84203D01*
X123414D01*
X123486Y-84214D01*
D02*
G37*
G36*
X117590Y-2323D02*
X117708Y-2333D01*
X117815Y-2348D01*
X117907Y-2364D01*
X117984Y-2384D01*
X118015Y-2394D01*
X118041Y-2399D01*
X118061Y-2404D01*
X118076Y-2410D01*
X118081Y-2415D01*
X118087D01*
X118179Y-2456D01*
X118261Y-2497D01*
X118332Y-2543D01*
X118389Y-2589D01*
X118435Y-2630D01*
X118471Y-2661D01*
X118491Y-2681D01*
X118496Y-2691D01*
X118542Y-2763D01*
X118583Y-2840D01*
X118619Y-2916D01*
X118650Y-2993D01*
X118670Y-3060D01*
X118686Y-3116D01*
X118691Y-3132D01*
Y-3147D01*
X118696Y-3157D01*
Y-3162D01*
X118240Y-3224D01*
X118209Y-3121D01*
X118174Y-3039D01*
X118138Y-2968D01*
X118102Y-2911D01*
X118066Y-2870D01*
X118041Y-2840D01*
X118020Y-2824D01*
X118015Y-2819D01*
X117948Y-2778D01*
X117871Y-2753D01*
X117790Y-2732D01*
X117713Y-2717D01*
X117641Y-2707D01*
X117580Y-2702D01*
X117528D01*
X117406Y-2707D01*
X117298Y-2727D01*
X117206Y-2753D01*
X117134Y-2778D01*
X117078Y-2809D01*
X117032Y-2835D01*
X117011Y-2855D01*
X117001Y-2860D01*
X116955Y-2911D01*
X116924Y-2973D01*
X116899Y-3039D01*
X116883Y-3106D01*
X116873Y-3162D01*
X116868Y-3213D01*
Y-3234D01*
Y-3249D01*
Y-3254D01*
Y-3260D01*
Y-3270D01*
Y-3290D01*
Y-3326D01*
X116873Y-3362D01*
Y-3372D01*
Y-3377D01*
X116924Y-3393D01*
X116986Y-3413D01*
X117114Y-3444D01*
X117252Y-3469D01*
X117385Y-3495D01*
X117452Y-3505D01*
X117508Y-3516D01*
X117564Y-3521D01*
X117610Y-3531D01*
X117646Y-3536D01*
X117677D01*
X117697Y-3541D01*
X117703D01*
X117800Y-3551D01*
X117882Y-3567D01*
X117953Y-3577D01*
X118010Y-3587D01*
X118056Y-3592D01*
X118087Y-3603D01*
X118107Y-3608D01*
X118112D01*
X118179Y-3628D01*
X118245Y-3654D01*
X118302Y-3679D01*
X118353Y-3705D01*
X118394Y-3726D01*
X118424Y-3746D01*
X118445Y-3756D01*
X118450Y-3761D01*
X118501Y-3802D01*
X118552Y-3848D01*
X118593Y-3894D01*
X118624Y-3935D01*
X118655Y-3971D01*
X118675Y-4002D01*
X118686Y-4028D01*
X118691Y-4033D01*
X118721Y-4094D01*
X118742Y-4161D01*
X118757Y-4217D01*
X118767Y-4273D01*
X118773Y-4324D01*
X118778Y-4360D01*
Y-4386D01*
Y-4396D01*
X118773Y-4458D01*
X118767Y-4519D01*
X118742Y-4627D01*
X118701Y-4724D01*
X118655Y-4806D01*
X118614Y-4872D01*
X118573Y-4918D01*
X118547Y-4949D01*
X118537Y-4954D01*
Y-4959D01*
X118491Y-5000D01*
X118440Y-5031D01*
X118327Y-5087D01*
X118215Y-5123D01*
X118102Y-5154D01*
X117999Y-5169D01*
X117959Y-5174D01*
X117918D01*
X117887Y-5179D01*
X117846D01*
X117744Y-5174D01*
X117651Y-5164D01*
X117564Y-5154D01*
X117488Y-5133D01*
X117421Y-5118D01*
X117375Y-5108D01*
X117344Y-5098D01*
X117334Y-5093D01*
X117242Y-5052D01*
X117155Y-5006D01*
X117068Y-4949D01*
X116991Y-4898D01*
X116929Y-4852D01*
X116878Y-4811D01*
X116858Y-4796D01*
X116842Y-4785D01*
X116837Y-4775D01*
X116832D01*
X116822Y-4847D01*
X116812Y-4913D01*
X116796Y-4970D01*
X116781Y-5021D01*
X116771Y-5062D01*
X116755Y-5093D01*
X116750Y-5113D01*
X116745Y-5118D01*
X116259D01*
X116289Y-5062D01*
X116315Y-5000D01*
X116335Y-4949D01*
X116351Y-4898D01*
X116361Y-4857D01*
X116371Y-4826D01*
X116376Y-4801D01*
Y-4796D01*
X116382Y-4760D01*
X116387Y-4708D01*
Y-4652D01*
X116392Y-4591D01*
X116397Y-4458D01*
Y-4319D01*
X116402Y-4248D01*
Y-4186D01*
Y-4125D01*
Y-4074D01*
Y-4033D01*
Y-3997D01*
Y-3976D01*
Y-3971D01*
Y-3357D01*
Y-3249D01*
X116407Y-3157D01*
X116412Y-3086D01*
Y-3024D01*
X116417Y-2978D01*
X116423Y-2952D01*
X116428Y-2932D01*
Y-2927D01*
X116443Y-2860D01*
X116469Y-2799D01*
X116489Y-2742D01*
X116515Y-2702D01*
X116535Y-2666D01*
X116556Y-2635D01*
X116566Y-2620D01*
X116571Y-2614D01*
X116612Y-2568D01*
X116663Y-2527D01*
X116719Y-2492D01*
X116771Y-2461D01*
X116817Y-2435D01*
X116858Y-2420D01*
X116883Y-2410D01*
X116888Y-2404D01*
X116894D01*
X116981Y-2374D01*
X117073Y-2353D01*
X117170Y-2338D01*
X117262Y-2328D01*
X117339Y-2323D01*
X117375Y-2317D01*
X117462D01*
X117590Y-2323D01*
D02*
G37*
G36*
X151187Y-2328D02*
X151315Y-2348D01*
X151428Y-2389D01*
X151530Y-2440D01*
X151623Y-2497D01*
X151705Y-2563D01*
X151776Y-2630D01*
X151838Y-2702D01*
X151889Y-2778D01*
X151930Y-2845D01*
X151966Y-2911D01*
X151991Y-2968D01*
X152012Y-3019D01*
X152027Y-3055D01*
X152032Y-3080D01*
X152037Y-3091D01*
X151597Y-3162D01*
X151566Y-3080D01*
X151530Y-3009D01*
X151489Y-2947D01*
X151449Y-2896D01*
X151402Y-2850D01*
X151356Y-2814D01*
X151310Y-2783D01*
X151264Y-2758D01*
X151223Y-2742D01*
X151182Y-2727D01*
X151146Y-2717D01*
X151111Y-2707D01*
X151085D01*
X151065Y-2702D01*
X151049D01*
X150977Y-2707D01*
X150916Y-2717D01*
X150860Y-2737D01*
X150814Y-2758D01*
X150778Y-2778D01*
X150747Y-2799D01*
X150732Y-2809D01*
X150727Y-2814D01*
X150686Y-2860D01*
X150655Y-2906D01*
X150629Y-2957D01*
X150614Y-3009D01*
X150604Y-3050D01*
X150599Y-3086D01*
Y-3106D01*
Y-3116D01*
X150604Y-3173D01*
X150614Y-3219D01*
X150629Y-3265D01*
X150645Y-3300D01*
X150665Y-3331D01*
X150680Y-3352D01*
X150691Y-3367D01*
X150696Y-3372D01*
X150732Y-3408D01*
X150768Y-3434D01*
X150803Y-3454D01*
X150834Y-3469D01*
X150860Y-3485D01*
X150880Y-3490D01*
X150896Y-3495D01*
X150901D01*
X150947Y-3500D01*
X151008Y-3505D01*
X151075Y-3510D01*
X151141D01*
X151203Y-3516D01*
X151300D01*
Y-3879D01*
X151095D01*
X151013Y-3884D01*
X150942Y-3889D01*
X150890Y-3894D01*
X150849Y-3900D01*
X150819Y-3905D01*
X150803Y-3910D01*
X150798D01*
X150757Y-3925D01*
X150716Y-3946D01*
X150680Y-3971D01*
X150650Y-3997D01*
X150624Y-4017D01*
X150604Y-4038D01*
X150593Y-4053D01*
X150588Y-4058D01*
X150552Y-4104D01*
X150527Y-4150D01*
X150512Y-4197D01*
X150496Y-4243D01*
X150491Y-4278D01*
X150486Y-4309D01*
Y-4330D01*
Y-4335D01*
X150491Y-4411D01*
X150512Y-4478D01*
X150537Y-4534D01*
X150563Y-4586D01*
X150593Y-4627D01*
X150619Y-4652D01*
X150639Y-4673D01*
X150645Y-4678D01*
X150706Y-4719D01*
X150768Y-4750D01*
X150834Y-4775D01*
X150896Y-4790D01*
X150952Y-4801D01*
X150993Y-4806D01*
X151034D01*
X151121Y-4801D01*
X151198Y-4785D01*
X151269Y-4760D01*
X151331Y-4734D01*
X151382Y-4708D01*
X151423Y-4683D01*
X151443Y-4668D01*
X151454Y-4662D01*
X151515Y-4601D01*
X151566Y-4540D01*
X151607Y-4468D01*
X151638Y-4401D01*
X151663Y-4345D01*
X151679Y-4299D01*
X151684Y-4263D01*
X151689Y-4258D01*
Y-4253D01*
X152124Y-4345D01*
X152088Y-4493D01*
X152037Y-4622D01*
X151971Y-4734D01*
X151894Y-4826D01*
X151807Y-4908D01*
X151715Y-4975D01*
X151623Y-5031D01*
X151525Y-5077D01*
X151433Y-5108D01*
X151341Y-5133D01*
X151259Y-5154D01*
X151187Y-5164D01*
X151126Y-5174D01*
X151080Y-5179D01*
X151039D01*
X150952Y-5174D01*
X150870Y-5169D01*
X150793Y-5159D01*
X150716Y-5144D01*
X150650Y-5128D01*
X150588Y-5108D01*
X150537Y-5087D01*
X150486Y-5067D01*
X150440Y-5046D01*
X150399Y-5026D01*
X150368Y-5006D01*
X150343Y-4990D01*
X150317Y-4975D01*
X150302Y-4964D01*
X150296Y-4954D01*
X150291D01*
X150245Y-4908D01*
X150199Y-4862D01*
X150163Y-4811D01*
X150133Y-4765D01*
X150087Y-4662D01*
X150056Y-4570D01*
X150035Y-4483D01*
X150030Y-4447D01*
X150025Y-4417D01*
X150020Y-4391D01*
Y-4371D01*
Y-4360D01*
Y-4355D01*
X150025Y-4268D01*
X150035Y-4191D01*
X150056Y-4125D01*
X150071Y-4063D01*
X150092Y-4017D01*
X150112Y-3982D01*
X150122Y-3956D01*
X150127Y-3951D01*
X150169Y-3889D01*
X150220Y-3833D01*
X150271Y-3782D01*
X150317Y-3741D01*
X150363Y-3710D01*
X150399Y-3684D01*
X150425Y-3669D01*
X150435Y-3664D01*
X150378Y-3623D01*
X150327Y-3582D01*
X150281Y-3541D01*
X150245Y-3495D01*
X150215Y-3454D01*
X150189Y-3408D01*
X150148Y-3321D01*
X150122Y-3249D01*
X150112Y-3188D01*
X150107Y-3162D01*
Y-3147D01*
Y-3137D01*
Y-3132D01*
X150112Y-3070D01*
X150117Y-3009D01*
X150148Y-2901D01*
X150184Y-2804D01*
X150230Y-2722D01*
X150276Y-2650D01*
X150317Y-2599D01*
X150332Y-2584D01*
X150348Y-2568D01*
X150353Y-2563D01*
X150358Y-2558D01*
X150409Y-2517D01*
X150460Y-2476D01*
X150573Y-2420D01*
X150686Y-2374D01*
X150793Y-2348D01*
X150890Y-2328D01*
X150936Y-2323D01*
X150972D01*
X151003Y-2317D01*
X151044D01*
X151187Y-2328D01*
D02*
G37*
G36*
X131946Y-4120D02*
X131977Y-4191D01*
X132003Y-4263D01*
X132033Y-4324D01*
X132059Y-4376D01*
X132085Y-4427D01*
X132110Y-4468D01*
X132131Y-4509D01*
X132151Y-4540D01*
X132187Y-4591D01*
X132213Y-4627D01*
X132233Y-4647D01*
X132238Y-4652D01*
X132289Y-4688D01*
X132346Y-4719D01*
X132397Y-4739D01*
X132448Y-4750D01*
X132489Y-4760D01*
X132525Y-4765D01*
X132556D01*
X132638Y-4760D01*
X132714Y-4750D01*
X132786Y-4729D01*
X132847Y-4708D01*
X132899Y-4693D01*
X132940Y-4673D01*
X132965Y-4662D01*
X132975Y-4657D01*
Y-5082D01*
X132878Y-5113D01*
X132786Y-5133D01*
X132704Y-5149D01*
X132638Y-5159D01*
X132581Y-5164D01*
X132540Y-5169D01*
X132504D01*
X132392Y-5164D01*
X132295Y-5144D01*
X132213Y-5118D01*
X132141Y-5082D01*
X132090Y-5052D01*
X132049Y-5026D01*
X132028Y-5006D01*
X132018Y-5000D01*
X131987Y-4964D01*
X131951Y-4918D01*
X131916Y-4872D01*
X131880Y-4816D01*
X131808Y-4698D01*
X131737Y-4575D01*
X131675Y-4463D01*
X131649Y-4411D01*
X131629Y-4366D01*
X131608Y-4330D01*
X131593Y-4304D01*
X131588Y-4284D01*
X131583Y-4278D01*
X130165Y-1340D01*
X130661D01*
X131742Y-3659D01*
X132975Y-1340D01*
X133477D01*
X131946Y-4120D01*
D02*
G37*
G36*
X106587Y-5118D02*
X106121D01*
Y-3853D01*
X106065Y-3859D01*
X106014Y-3864D01*
X105967Y-3879D01*
X105932Y-3894D01*
X105901Y-3910D01*
X105875Y-3920D01*
X105860Y-3930D01*
X105855Y-3935D01*
X105809Y-3971D01*
X105768Y-4022D01*
X105722Y-4079D01*
X105681Y-4135D01*
X105645Y-4186D01*
X105614Y-4232D01*
X105594Y-4263D01*
X105589Y-4268D01*
Y-4273D01*
X105092Y-5118D01*
X104580D01*
X105092Y-4273D01*
X105143Y-4186D01*
X105200Y-4115D01*
X105251Y-4043D01*
X105302Y-3987D01*
X105353Y-3930D01*
X105404Y-3889D01*
X105450Y-3848D01*
X105491Y-3818D01*
X105532Y-3787D01*
X105568Y-3766D01*
X105599Y-3751D01*
X105624Y-3736D01*
X105645Y-3726D01*
X105660Y-3720D01*
X105671Y-3715D01*
X105676D01*
X105614Y-3684D01*
X105558Y-3654D01*
X105512Y-3623D01*
X105476Y-3592D01*
X105445Y-3567D01*
X105425Y-3546D01*
X105415Y-3536D01*
X105409Y-3531D01*
X105374Y-3485D01*
X105338Y-3429D01*
X105276Y-3306D01*
X105251Y-3249D01*
X105230Y-3198D01*
X105220Y-3167D01*
X105215Y-3162D01*
Y-3157D01*
X105194Y-3106D01*
X105174Y-3060D01*
X105143Y-2983D01*
X105113Y-2927D01*
X105087Y-2881D01*
X105071Y-2850D01*
X105056Y-2835D01*
X105046Y-2824D01*
Y-2819D01*
X105020Y-2799D01*
X104990Y-2788D01*
X104913Y-2768D01*
X104877D01*
X104846Y-2763D01*
X104815D01*
X104682Y-2768D01*
Y-2379D01*
X104862D01*
X104938Y-2384D01*
X104995Y-2389D01*
X105046Y-2399D01*
X105087Y-2404D01*
X105113Y-2415D01*
X105128Y-2420D01*
X105133D01*
X105174Y-2435D01*
X105210Y-2456D01*
X105246Y-2481D01*
X105276Y-2502D01*
X105297Y-2522D01*
X105317Y-2543D01*
X105327Y-2553D01*
X105333Y-2558D01*
X105348Y-2579D01*
X105363Y-2604D01*
X105399Y-2671D01*
X105440Y-2737D01*
X105471Y-2809D01*
X105507Y-2881D01*
X105527Y-2937D01*
X105537Y-2957D01*
X105548Y-2973D01*
X105553Y-2983D01*
Y-2988D01*
X105584Y-3060D01*
X105614Y-3126D01*
X105640Y-3188D01*
X105665Y-3239D01*
X105686Y-3285D01*
X105711Y-3326D01*
X105727Y-3362D01*
X105747Y-3388D01*
X105778Y-3434D01*
X105799Y-3464D01*
X105809Y-3480D01*
X105814Y-3485D01*
X105850Y-3510D01*
X105901Y-3531D01*
X105947Y-3546D01*
X105998Y-3557D01*
X106044Y-3562D01*
X106085Y-3567D01*
X106121D01*
Y-2379D01*
X106587D01*
Y-5118D01*
D02*
G37*
G36*
X98405D02*
X97939D01*
Y-3905D01*
X96654D01*
Y-5118D01*
X96188D01*
Y-2379D01*
X96654D01*
Y-3521D01*
X97939D01*
Y-2379D01*
X98405D01*
Y-5118D01*
D02*
G37*
G36*
X124215Y-2763D02*
X123340D01*
Y-5118D01*
X122874D01*
Y-2763D01*
X121998D01*
Y-2379D01*
X124215D01*
Y-2763D01*
D02*
G37*
G36*
X129576Y-4186D02*
Y-4248D01*
Y-4309D01*
Y-4360D01*
X129581Y-4401D01*
Y-4442D01*
X129586Y-4478D01*
Y-4534D01*
X129591Y-4570D01*
X129596Y-4596D01*
X129601Y-4606D01*
Y-4611D01*
X129622Y-4652D01*
X129648Y-4678D01*
X129673Y-4698D01*
X129678Y-4703D01*
X129683D01*
X129709Y-4714D01*
X129740Y-4719D01*
X129806Y-4724D01*
X129837Y-4729D01*
X130088D01*
Y-5118D01*
X130011Y-5123D01*
X129939Y-5128D01*
X129878Y-5133D01*
X129822D01*
X129776Y-5139D01*
X129714D01*
X129622Y-5133D01*
X129540Y-5123D01*
X129473Y-5103D01*
X129417Y-5082D01*
X129371Y-5062D01*
X129340Y-5041D01*
X129320Y-5031D01*
X129315Y-5026D01*
X129269Y-4980D01*
X129228Y-4939D01*
X129202Y-4893D01*
X129176Y-4852D01*
X129161Y-4816D01*
X129151Y-4790D01*
X129146Y-4770D01*
Y-4765D01*
X129141Y-4734D01*
X129136Y-4693D01*
X129130Y-4647D01*
X129125Y-4601D01*
X129120Y-4499D01*
X129115Y-4391D01*
X129110Y-4289D01*
Y-4248D01*
Y-4207D01*
Y-4176D01*
Y-4150D01*
Y-4135D01*
Y-4130D01*
Y-2763D01*
X127881D01*
Y-5118D01*
X127415D01*
Y-2379D01*
X129576D01*
Y-4186D01*
D02*
G37*
G36*
X136716Y-87997D02*
X136736Y-88048D01*
X136752Y-88084D01*
X136757Y-88105D01*
X136762Y-88115D01*
X136798Y-88207D01*
X136823Y-88284D01*
X136849Y-88345D01*
X136869Y-88392D01*
X136880Y-88422D01*
X136890Y-88443D01*
X136900Y-88453D01*
Y-88458D01*
X136951Y-88520D01*
X136997Y-88566D01*
X137023Y-88581D01*
X137038Y-88591D01*
X137049Y-88601D01*
X137054D01*
X137090Y-88622D01*
X137130Y-88632D01*
X137212Y-88653D01*
X137248D01*
X137279Y-88658D01*
X137305D01*
X137392Y-88653D01*
X137438Y-88642D01*
X137479Y-88632D01*
X137514Y-88627D01*
X137540Y-88617D01*
X137561Y-88612D01*
X137566D01*
X137514Y-89047D01*
X137453Y-89067D01*
X137397Y-89078D01*
X137351Y-89088D01*
X137305Y-89098D01*
X137269D01*
X137243Y-89103D01*
X137217D01*
X137136Y-89098D01*
X137064Y-89088D01*
X136997Y-89067D01*
X136941Y-89047D01*
X136895Y-89031D01*
X136859Y-89011D01*
X136839Y-89001D01*
X136834Y-88996D01*
X136777Y-88950D01*
X136721Y-88898D01*
X136675Y-88842D01*
X136629Y-88786D01*
X136598Y-88735D01*
X136567Y-88694D01*
X136552Y-88668D01*
X136547Y-88658D01*
X136526Y-88622D01*
X136511Y-88581D01*
X136465Y-88489D01*
X136424Y-88386D01*
X136383Y-88284D01*
X136342Y-88192D01*
X136327Y-88146D01*
X136311Y-88110D01*
X136301Y-88079D01*
X136291Y-88059D01*
X136286Y-88043D01*
Y-88038D01*
X135251Y-85253D01*
X135712D01*
X136301Y-86856D01*
X136342Y-86968D01*
X136378Y-87081D01*
X136409Y-87183D01*
X136434Y-87275D01*
X136460Y-87357D01*
X136470Y-87388D01*
X136475Y-87419D01*
X136480Y-87439D01*
X136485Y-87454D01*
X136490Y-87465D01*
Y-87470D01*
X136526Y-87347D01*
X136562Y-87229D01*
X136593Y-87122D01*
X136624Y-87030D01*
X136649Y-86953D01*
X136665Y-86917D01*
X136670Y-86891D01*
X136680Y-86871D01*
X136685Y-86856D01*
X136690Y-86845D01*
Y-86840D01*
X137264Y-85253D01*
X137760D01*
X136716Y-87997D01*
D02*
G37*
G36*
X126729Y-5118D02*
X125572D01*
X125470Y-5113D01*
X125372Y-5108D01*
X125285Y-5098D01*
X125203Y-5082D01*
X125127Y-5062D01*
X125060Y-5041D01*
X124999Y-5021D01*
X124942Y-4995D01*
X124896Y-4975D01*
X124855Y-4954D01*
X124819Y-4934D01*
X124794Y-4913D01*
X124768Y-4898D01*
X124753Y-4888D01*
X124748Y-4877D01*
X124743D01*
X124697Y-4831D01*
X124655Y-4780D01*
X124620Y-4734D01*
X124589Y-4683D01*
X124543Y-4580D01*
X124512Y-4488D01*
X124497Y-4411D01*
X124492Y-4376D01*
X124487Y-4345D01*
X124481Y-4319D01*
Y-4304D01*
Y-4294D01*
Y-4289D01*
X124487Y-4217D01*
X124497Y-4150D01*
X124512Y-4089D01*
X124528Y-4028D01*
X124579Y-3925D01*
X124635Y-3833D01*
X124697Y-3766D01*
X124743Y-3715D01*
X124763Y-3700D01*
X124778Y-3684D01*
X124789Y-3674D01*
X124794D01*
X124855Y-3633D01*
X124922Y-3598D01*
X125065Y-3546D01*
X125214Y-3505D01*
X125352Y-3475D01*
X125418Y-3469D01*
X125480Y-3459D01*
X125536Y-3454D01*
X125587D01*
X125623Y-3449D01*
X126263D01*
Y-2379D01*
X126729D01*
Y-5118D01*
D02*
G37*
G36*
X140215Y-2763D02*
X139340D01*
Y-5118D01*
X138874D01*
Y-2763D01*
X137998D01*
Y-2379D01*
X140215D01*
Y-2763D01*
D02*
G37*
G36*
X141884Y-2323D02*
X141987Y-2333D01*
X142079Y-2353D01*
X142166Y-2379D01*
X142248Y-2404D01*
X142325Y-2440D01*
X142391Y-2471D01*
X142458Y-2507D01*
X142514Y-2543D01*
X142560Y-2579D01*
X142606Y-2614D01*
X142637Y-2640D01*
X142668Y-2666D01*
X142688Y-2686D01*
X142698Y-2696D01*
X142703Y-2702D01*
X142765Y-2778D01*
X142821Y-2860D01*
X142867Y-2942D01*
X142908Y-3029D01*
X142944Y-3121D01*
X142970Y-3208D01*
X142995Y-3300D01*
X143011Y-3382D01*
X143026Y-3464D01*
X143036Y-3536D01*
X143047Y-3603D01*
X143052Y-3664D01*
X143057Y-3710D01*
Y-3746D01*
Y-3766D01*
Y-3777D01*
X143052Y-3900D01*
X143041Y-4012D01*
X143026Y-4120D01*
X143000Y-4217D01*
X142975Y-4309D01*
X142944Y-4396D01*
X142913Y-4473D01*
X142883Y-4545D01*
X142852Y-4606D01*
X142816Y-4657D01*
X142791Y-4703D01*
X142765Y-4744D01*
X142739Y-4770D01*
X142724Y-4796D01*
X142714Y-4806D01*
X142709Y-4811D01*
X142642Y-4877D01*
X142565Y-4934D01*
X142489Y-4980D01*
X142412Y-5026D01*
X142330Y-5062D01*
X142253Y-5087D01*
X142176Y-5113D01*
X142099Y-5133D01*
X142028Y-5149D01*
X141966Y-5159D01*
X141905Y-5169D01*
X141854Y-5174D01*
X141813D01*
X141782Y-5179D01*
X141756D01*
X141669Y-5174D01*
X141587Y-5169D01*
X141434Y-5144D01*
X141367Y-5128D01*
X141301Y-5108D01*
X141244Y-5087D01*
X141188Y-5062D01*
X141142Y-5041D01*
X141101Y-5021D01*
X141060Y-5000D01*
X141034Y-4985D01*
X141009Y-4970D01*
X140993Y-4959D01*
X140983Y-4949D01*
X140978D01*
X140871Y-4857D01*
X140784Y-4750D01*
X140712Y-4642D01*
X140650Y-4534D01*
X140609Y-4442D01*
X140594Y-4401D01*
X140579Y-4366D01*
X140568Y-4335D01*
X140563Y-4314D01*
X140558Y-4299D01*
Y-4294D01*
X141034Y-4232D01*
X141075Y-4335D01*
X141127Y-4427D01*
X141173Y-4499D01*
X141219Y-4560D01*
X141260Y-4606D01*
X141290Y-4637D01*
X141311Y-4657D01*
X141321Y-4662D01*
X141393Y-4708D01*
X141464Y-4739D01*
X141536Y-4765D01*
X141608Y-4780D01*
X141664Y-4790D01*
X141715Y-4796D01*
X141756D01*
X141818Y-4790D01*
X141879Y-4785D01*
X141992Y-4760D01*
X142089Y-4719D01*
X142171Y-4678D01*
X142238Y-4637D01*
X142289Y-4596D01*
X142320Y-4570D01*
X142325Y-4560D01*
X142330D01*
X142407Y-4463D01*
X142463Y-4350D01*
X142509Y-4237D01*
X142540Y-4125D01*
X142560Y-4022D01*
X142565Y-3982D01*
X142570Y-3940D01*
X142576Y-3910D01*
X142581Y-3889D01*
Y-3874D01*
Y-3869D01*
X140543D01*
X140538Y-3813D01*
Y-3777D01*
Y-3751D01*
Y-3746D01*
X140543Y-3623D01*
X140553Y-3505D01*
X140568Y-3398D01*
X140594Y-3295D01*
X140620Y-3203D01*
X140645Y-3116D01*
X140681Y-3039D01*
X140712Y-2968D01*
X140743Y-2906D01*
X140773Y-2850D01*
X140804Y-2804D01*
X140830Y-2763D01*
X140855Y-2737D01*
X140871Y-2712D01*
X140881Y-2702D01*
X140886Y-2696D01*
X140953Y-2630D01*
X141024Y-2574D01*
X141096Y-2522D01*
X141173Y-2476D01*
X141249Y-2440D01*
X141321Y-2410D01*
X141393Y-2384D01*
X141464Y-2364D01*
X141531Y-2348D01*
X141593Y-2338D01*
X141644Y-2328D01*
X141690Y-2323D01*
X141731Y-2317D01*
X141782D01*
X141884Y-2323D01*
D02*
G37*
G36*
X108013Y-87992D02*
X107547D01*
Y-85637D01*
X106436D01*
Y-85253D01*
X108013D01*
Y-87992D01*
D02*
G37*
G36*
X118857Y-86661D02*
Y-87086D01*
X117219D01*
Y-87992D01*
X116753D01*
Y-87086D01*
X116241D01*
Y-86661D01*
X116753D01*
Y-84214D01*
X117132D01*
X118857Y-86661D01*
D02*
G37*
G36*
X153824Y-2323D02*
X153916Y-2333D01*
X153998Y-2348D01*
X154080Y-2364D01*
X154157Y-2389D01*
X154229Y-2415D01*
X154290Y-2440D01*
X154351Y-2471D01*
X154408Y-2502D01*
X154454Y-2527D01*
X154495Y-2553D01*
X154531Y-2579D01*
X154556Y-2594D01*
X154577Y-2609D01*
X154587Y-2620D01*
X154592Y-2625D01*
X154664Y-2696D01*
X154730Y-2778D01*
X154787Y-2865D01*
X154833Y-2952D01*
X154874Y-3045D01*
X154910Y-3142D01*
X154935Y-3234D01*
X154961Y-3326D01*
X154976Y-3408D01*
X154991Y-3490D01*
X154997Y-3562D01*
X155007Y-3628D01*
Y-3679D01*
X155012Y-3715D01*
Y-3741D01*
Y-3751D01*
X155007Y-3879D01*
X154997Y-3997D01*
X154981Y-4104D01*
X154956Y-4207D01*
X154930Y-4304D01*
X154899Y-4391D01*
X154869Y-4468D01*
X154833Y-4540D01*
X154802Y-4601D01*
X154771Y-4657D01*
X154741Y-4703D01*
X154715Y-4744D01*
X154689Y-4770D01*
X154674Y-4796D01*
X154664Y-4806D01*
X154659Y-4811D01*
X154592Y-4877D01*
X154515Y-4934D01*
X154444Y-4980D01*
X154367Y-5026D01*
X154285Y-5062D01*
X154208Y-5087D01*
X154137Y-5113D01*
X154065Y-5133D01*
X153993Y-5149D01*
X153932Y-5159D01*
X153875Y-5169D01*
X153829Y-5174D01*
X153788D01*
X153758Y-5179D01*
X153732D01*
X153599Y-5174D01*
X153476Y-5154D01*
X153363Y-5128D01*
X153266Y-5098D01*
X153184Y-5067D01*
X153153Y-5052D01*
X153123Y-5041D01*
X153102Y-5031D01*
X153087Y-5021D01*
X153077Y-5016D01*
X153071D01*
X152964Y-4949D01*
X152867Y-4872D01*
X152790Y-4790D01*
X152723Y-4719D01*
X152672Y-4647D01*
X152636Y-4596D01*
X152621Y-4575D01*
X152611Y-4560D01*
X152606Y-4550D01*
Y-4545D01*
X152580Y-4483D01*
X152554Y-4422D01*
X152513Y-4289D01*
X152488Y-4145D01*
X152467Y-4012D01*
X152462Y-3951D01*
X152457Y-3894D01*
X152452Y-3843D01*
X152447Y-3797D01*
Y-3761D01*
Y-3736D01*
Y-3715D01*
Y-3710D01*
X152452Y-3592D01*
X152462Y-3480D01*
X152478Y-3372D01*
X152503Y-3275D01*
X152529Y-3188D01*
X152559Y-3101D01*
X152590Y-3024D01*
X152626Y-2957D01*
X152657Y-2896D01*
X152693Y-2840D01*
X152723Y-2799D01*
X152749Y-2758D01*
X152775Y-2727D01*
X152790Y-2707D01*
X152800Y-2696D01*
X152805Y-2691D01*
X152877Y-2625D01*
X152949Y-2568D01*
X153025Y-2517D01*
X153102Y-2476D01*
X153179Y-2440D01*
X153256Y-2410D01*
X153333Y-2384D01*
X153404Y-2364D01*
X153471Y-2348D01*
X153532Y-2338D01*
X153589Y-2328D01*
X153640Y-2323D01*
X153676Y-2317D01*
X153732D01*
X153824Y-2323D01*
D02*
G37*
G36*
X140945Y-84659D02*
X139701D01*
Y-87992D01*
X139199D01*
Y-84659D01*
X137955D01*
Y-84214D01*
X140945D01*
Y-84659D01*
D02*
G37*
%LPC*%
G36*
X130029Y-86615D02*
X130024D01*
Y-86789D01*
X130029Y-86897D01*
X130034Y-86989D01*
X130050Y-87071D01*
X130060Y-87137D01*
X130075Y-87188D01*
X130090Y-87224D01*
X130096Y-87250D01*
X130101Y-87255D01*
X130142Y-87327D01*
X130188Y-87393D01*
X130239Y-87444D01*
X130290Y-87490D01*
X130336Y-87531D01*
X130372Y-87557D01*
X130398Y-87572D01*
X130408Y-87577D01*
X130485Y-87613D01*
X130567Y-87644D01*
X130649Y-87664D01*
X130720Y-87675D01*
X130787Y-87685D01*
X130838Y-87690D01*
X130884D01*
X130981Y-87685D01*
X131063Y-87670D01*
X131135Y-87649D01*
X131191Y-87629D01*
X131237Y-87608D01*
X131268Y-87588D01*
X131289Y-87572D01*
X131294Y-87567D01*
X131340Y-87516D01*
X131376Y-87465D01*
X131396Y-87414D01*
X131417Y-87367D01*
X131427Y-87327D01*
X131432Y-87291D01*
Y-87270D01*
Y-87260D01*
X131427Y-87214D01*
X131422Y-87173D01*
X131411Y-87137D01*
X131401Y-87101D01*
X131391Y-87076D01*
X131381Y-87055D01*
X131370Y-87045D01*
Y-87040D01*
X131314Y-86973D01*
X131253Y-86922D01*
X131227Y-86907D01*
X131207Y-86897D01*
X131191Y-86886D01*
X131186D01*
X131135Y-86866D01*
X131073Y-86850D01*
X131007Y-86835D01*
X130940Y-86820D01*
X130879Y-86809D01*
X130828Y-86799D01*
X130807D01*
X130792Y-86794D01*
X130782D01*
X130690Y-86779D01*
X130603Y-86763D01*
X130526Y-86753D01*
X130449Y-86738D01*
X130382Y-86722D01*
X130321Y-86707D01*
X130265Y-86692D01*
X130213Y-86676D01*
X130172Y-86666D01*
X130131Y-86651D01*
X130101Y-86640D01*
X130070Y-86630D01*
X130050Y-86625D01*
X130034Y-86620D01*
X130029Y-86615D01*
D02*
G37*
G36*
X117219Y-84961D02*
Y-86661D01*
X118402D01*
X117219Y-84961D01*
D02*
G37*
G36*
X123373Y-84587D02*
X123342D01*
X123281Y-84592D01*
X123225Y-84603D01*
X123168Y-84618D01*
X123117Y-84633D01*
X123025Y-84685D01*
X122948Y-84741D01*
X122887Y-84797D01*
X122841Y-84848D01*
X122820Y-84864D01*
X122810Y-84879D01*
X122800Y-84889D01*
Y-84895D01*
X122759Y-84961D01*
X122728Y-85038D01*
X122697Y-85120D01*
X122672Y-85217D01*
X122651Y-85314D01*
X122631Y-85422D01*
X122605Y-85627D01*
X122600Y-85724D01*
X122590Y-85821D01*
X122585Y-85903D01*
Y-85980D01*
X122579Y-86041D01*
Y-86088D01*
Y-86118D01*
Y-86123D01*
Y-86128D01*
Y-86297D01*
X122590Y-86451D01*
X122600Y-86589D01*
X122615Y-86717D01*
X122631Y-86830D01*
X122651Y-86932D01*
X122667Y-87019D01*
X122687Y-87096D01*
X122707Y-87163D01*
X122728Y-87219D01*
X122748Y-87265D01*
X122764Y-87306D01*
X122779Y-87332D01*
X122789Y-87352D01*
X122794Y-87362D01*
X122800Y-87367D01*
X122841Y-87419D01*
X122887Y-87465D01*
X122933Y-87506D01*
X122979Y-87542D01*
X123020Y-87572D01*
X123066Y-87598D01*
X123153Y-87634D01*
X123225Y-87654D01*
X123286Y-87664D01*
X123307Y-87670D01*
X123337D01*
X123393Y-87664D01*
X123450Y-87654D01*
X123506Y-87644D01*
X123557Y-87624D01*
X123644Y-87572D01*
X123726Y-87516D01*
X123788Y-87465D01*
X123834Y-87414D01*
X123854Y-87393D01*
X123865Y-87383D01*
X123870Y-87373D01*
X123875Y-87367D01*
X123911Y-87301D01*
X123946Y-87224D01*
X123972Y-87137D01*
X123998Y-87045D01*
X124018Y-86942D01*
X124039Y-86840D01*
X124064Y-86630D01*
X124069Y-86533D01*
X124080Y-86441D01*
X124085Y-86354D01*
Y-86277D01*
X124090Y-86216D01*
Y-86169D01*
Y-86139D01*
Y-86128D01*
X124085Y-85960D01*
X124080Y-85806D01*
X124069Y-85668D01*
X124054Y-85540D01*
X124033Y-85422D01*
X124013Y-85320D01*
X123993Y-85227D01*
X123972Y-85145D01*
X123952Y-85074D01*
X123931Y-85017D01*
X123911Y-84966D01*
X123890Y-84925D01*
X123875Y-84895D01*
X123865Y-84874D01*
X123854Y-84864D01*
Y-84859D01*
X123819Y-84813D01*
X123777Y-84767D01*
X123737Y-84731D01*
X123690Y-84700D01*
X123609Y-84654D01*
X123527Y-84623D01*
X123455Y-84603D01*
X123393Y-84592D01*
X123373Y-84587D01*
D02*
G37*
G36*
X136416Y-2681D02*
X136385D01*
X136329Y-2686D01*
X136278Y-2691D01*
X136176Y-2722D01*
X136089Y-2763D01*
X136012Y-2809D01*
X135950Y-2860D01*
X135904Y-2901D01*
X135879Y-2932D01*
X135868Y-2937D01*
Y-2942D01*
X135833Y-2993D01*
X135797Y-3050D01*
X135745Y-3173D01*
X135705Y-3306D01*
X135679Y-3434D01*
X135669Y-3490D01*
X135663Y-3546D01*
X135658Y-3598D01*
Y-3638D01*
X135653Y-3674D01*
Y-3700D01*
Y-3720D01*
Y-3726D01*
Y-3823D01*
X135663Y-3915D01*
X135674Y-4002D01*
X135689Y-4084D01*
X135705Y-4156D01*
X135725Y-4222D01*
X135740Y-4284D01*
X135761Y-4335D01*
X135781Y-4381D01*
X135802Y-4422D01*
X135822Y-4458D01*
X135838Y-4483D01*
X135853Y-4509D01*
X135863Y-4524D01*
X135868Y-4529D01*
X135873Y-4534D01*
X135914Y-4580D01*
X135960Y-4622D01*
X136007Y-4657D01*
X136047Y-4683D01*
X136140Y-4734D01*
X136222Y-4765D01*
X136293Y-4780D01*
X136355Y-4790D01*
X136375Y-4796D01*
X136406D01*
X136462Y-4790D01*
X136513Y-4785D01*
X136616Y-4755D01*
X136703Y-4714D01*
X136780Y-4668D01*
X136841Y-4622D01*
X136882Y-4586D01*
X136913Y-4555D01*
X136918Y-4550D01*
X136923Y-4545D01*
X136959Y-4493D01*
X136995Y-4437D01*
X137046Y-4319D01*
X137082Y-4186D01*
X137107Y-4063D01*
X137118Y-4002D01*
X137123Y-3946D01*
X137128Y-3894D01*
Y-3853D01*
X137133Y-3818D01*
Y-3787D01*
Y-3771D01*
Y-3766D01*
X137128Y-3669D01*
X137123Y-3582D01*
X137112Y-3495D01*
X137097Y-3418D01*
X137082Y-3347D01*
X137061Y-3280D01*
X137041Y-3219D01*
X137020Y-3167D01*
X137000Y-3121D01*
X136979Y-3075D01*
X136959Y-3045D01*
X136943Y-3014D01*
X136928Y-2993D01*
X136918Y-2973D01*
X136908Y-2968D01*
Y-2963D01*
X136867Y-2911D01*
X136821Y-2870D01*
X136775Y-2829D01*
X136729Y-2799D01*
X136641Y-2748D01*
X136559Y-2717D01*
X136493Y-2696D01*
X136437Y-2686D01*
X136416Y-2681D01*
D02*
G37*
G36*
X120416D02*
X120385D01*
X120329Y-2686D01*
X120278Y-2691D01*
X120176Y-2722D01*
X120089Y-2763D01*
X120012Y-2809D01*
X119950Y-2860D01*
X119904Y-2901D01*
X119879Y-2932D01*
X119868Y-2937D01*
Y-2942D01*
X119833Y-2993D01*
X119797Y-3050D01*
X119745Y-3173D01*
X119704Y-3306D01*
X119679Y-3434D01*
X119669Y-3490D01*
X119664Y-3546D01*
X119658Y-3598D01*
Y-3638D01*
X119653Y-3674D01*
Y-3700D01*
Y-3720D01*
Y-3726D01*
Y-3823D01*
X119664Y-3915D01*
X119674Y-4002D01*
X119689Y-4084D01*
X119704Y-4156D01*
X119725Y-4222D01*
X119740Y-4284D01*
X119761Y-4335D01*
X119781Y-4381D01*
X119802Y-4422D01*
X119822Y-4458D01*
X119838Y-4483D01*
X119853Y-4509D01*
X119863Y-4524D01*
X119868Y-4529D01*
X119873Y-4534D01*
X119914Y-4580D01*
X119960Y-4622D01*
X120007Y-4657D01*
X120047Y-4683D01*
X120140Y-4734D01*
X120222Y-4765D01*
X120293Y-4780D01*
X120355Y-4790D01*
X120375Y-4796D01*
X120406D01*
X120462Y-4790D01*
X120513Y-4785D01*
X120616Y-4755D01*
X120703Y-4714D01*
X120780Y-4668D01*
X120841Y-4622D01*
X120882Y-4586D01*
X120913Y-4555D01*
X120918Y-4550D01*
X120923Y-4545D01*
X120959Y-4493D01*
X120995Y-4437D01*
X121046Y-4319D01*
X121082Y-4186D01*
X121107Y-4063D01*
X121118Y-4002D01*
X121123Y-3946D01*
X121128Y-3894D01*
Y-3853D01*
X121133Y-3818D01*
Y-3787D01*
Y-3771D01*
Y-3766D01*
X121128Y-3669D01*
X121123Y-3582D01*
X121113Y-3495D01*
X121097Y-3418D01*
X121082Y-3347D01*
X121061Y-3280D01*
X121041Y-3219D01*
X121020Y-3167D01*
X121000Y-3121D01*
X120979Y-3075D01*
X120959Y-3045D01*
X120943Y-3014D01*
X120928Y-2993D01*
X120918Y-2973D01*
X120908Y-2968D01*
Y-2963D01*
X120867Y-2911D01*
X120821Y-2870D01*
X120775Y-2829D01*
X120729Y-2799D01*
X120641Y-2748D01*
X120560Y-2717D01*
X120493Y-2696D01*
X120437Y-2686D01*
X120416Y-2681D01*
D02*
G37*
G36*
X103136D02*
X103105D01*
X103049Y-2686D01*
X102998Y-2691D01*
X102895Y-2722D01*
X102808Y-2763D01*
X102732Y-2809D01*
X102670Y-2860D01*
X102624Y-2901D01*
X102599Y-2932D01*
X102588Y-2937D01*
Y-2942D01*
X102552Y-2993D01*
X102517Y-3050D01*
X102465Y-3173D01*
X102425Y-3306D01*
X102399Y-3434D01*
X102389Y-3490D01*
X102383Y-3546D01*
X102378Y-3598D01*
Y-3638D01*
X102373Y-3674D01*
Y-3700D01*
Y-3720D01*
Y-3726D01*
Y-3823D01*
X102383Y-3915D01*
X102394Y-4002D01*
X102409Y-4084D01*
X102425Y-4156D01*
X102445Y-4222D01*
X102460Y-4284D01*
X102481Y-4335D01*
X102501Y-4381D01*
X102522Y-4422D01*
X102542Y-4458D01*
X102558Y-4483D01*
X102573Y-4509D01*
X102583Y-4524D01*
X102588Y-4529D01*
X102593Y-4534D01*
X102634Y-4580D01*
X102681Y-4622D01*
X102727Y-4657D01*
X102768Y-4683D01*
X102860Y-4734D01*
X102942Y-4765D01*
X103013Y-4780D01*
X103075Y-4790D01*
X103095Y-4796D01*
X103126D01*
X103182Y-4790D01*
X103233Y-4785D01*
X103336Y-4755D01*
X103423Y-4714D01*
X103500Y-4668D01*
X103561Y-4622D01*
X103602Y-4586D01*
X103633Y-4555D01*
X103638Y-4550D01*
X103643Y-4545D01*
X103679Y-4493D01*
X103715Y-4437D01*
X103766Y-4319D01*
X103802Y-4186D01*
X103827Y-4063D01*
X103838Y-4002D01*
X103843Y-3946D01*
X103848Y-3894D01*
Y-3853D01*
X103853Y-3818D01*
Y-3787D01*
Y-3771D01*
Y-3766D01*
X103848Y-3669D01*
X103843Y-3582D01*
X103832Y-3495D01*
X103817Y-3418D01*
X103802Y-3347D01*
X103781Y-3280D01*
X103761Y-3219D01*
X103740Y-3167D01*
X103720Y-3121D01*
X103699Y-3075D01*
X103679Y-3045D01*
X103664Y-3014D01*
X103648Y-2993D01*
X103638Y-2973D01*
X103628Y-2968D01*
Y-2963D01*
X103587Y-2911D01*
X103541Y-2870D01*
X103495Y-2829D01*
X103448Y-2799D01*
X103361Y-2748D01*
X103279Y-2717D01*
X103213Y-2696D01*
X103157Y-2686D01*
X103136Y-2681D01*
D02*
G37*
G36*
X153768Y-2702D02*
X153732D01*
X153671Y-2707D01*
X153609Y-2712D01*
X153497Y-2742D01*
X153399Y-2783D01*
X153317Y-2835D01*
X153251Y-2886D01*
X153200Y-2927D01*
X153169Y-2957D01*
X153159Y-2963D01*
Y-2968D01*
X153118Y-3019D01*
X153082Y-3075D01*
X153020Y-3198D01*
X152979Y-3326D01*
X152954Y-3449D01*
X152944Y-3505D01*
X152933Y-3562D01*
X152928Y-3608D01*
Y-3654D01*
X152923Y-3684D01*
Y-3715D01*
Y-3731D01*
Y-3736D01*
Y-3833D01*
X152933Y-3925D01*
X152944Y-4007D01*
X152959Y-4089D01*
X152974Y-4161D01*
X152995Y-4222D01*
X153015Y-4284D01*
X153036Y-4335D01*
X153061Y-4381D01*
X153082Y-4422D01*
X153102Y-4458D01*
X153118Y-4483D01*
X153133Y-4509D01*
X153143Y-4524D01*
X153148Y-4529D01*
X153153Y-4534D01*
X153200Y-4580D01*
X153246Y-4622D01*
X153292Y-4657D01*
X153343Y-4683D01*
X153435Y-4734D01*
X153527Y-4765D01*
X153609Y-4780D01*
X153645Y-4785D01*
X153676Y-4790D01*
X153696Y-4796D01*
X153732D01*
X153793Y-4790D01*
X153855Y-4785D01*
X153967Y-4755D01*
X154070Y-4714D01*
X154152Y-4662D01*
X154218Y-4616D01*
X154270Y-4575D01*
X154300Y-4545D01*
X154305Y-4540D01*
X154311Y-4534D01*
X154351Y-4483D01*
X154382Y-4427D01*
X154439Y-4304D01*
X154480Y-4171D01*
X154505Y-4043D01*
X154515Y-3987D01*
X154526Y-3930D01*
X154531Y-3879D01*
Y-3838D01*
X154536Y-3802D01*
Y-3771D01*
Y-3756D01*
Y-3751D01*
X154531Y-3654D01*
X154526Y-3567D01*
X154515Y-3485D01*
X154500Y-3403D01*
X154485Y-3336D01*
X154464Y-3270D01*
X154444Y-3213D01*
X154423Y-3157D01*
X154403Y-3111D01*
X154382Y-3075D01*
X154362Y-3039D01*
X154346Y-3014D01*
X154331Y-2988D01*
X154321Y-2973D01*
X154311Y-2968D01*
Y-2963D01*
X154264Y-2916D01*
X154218Y-2876D01*
X154172Y-2840D01*
X154121Y-2809D01*
X154024Y-2763D01*
X153937Y-2732D01*
X153855Y-2717D01*
X153819Y-2712D01*
X153788Y-2707D01*
X153768Y-2702D01*
D02*
G37*
G36*
X141813D02*
X141782D01*
X141715Y-2707D01*
X141654Y-2712D01*
X141541Y-2742D01*
X141444Y-2788D01*
X141362Y-2835D01*
X141296Y-2886D01*
X141249Y-2932D01*
X141219Y-2963D01*
X141209Y-2968D01*
Y-2973D01*
X141157Y-3045D01*
X141121Y-3126D01*
X141091Y-3208D01*
X141065Y-3290D01*
X141050Y-3367D01*
X141034Y-3429D01*
Y-3454D01*
X141029Y-3469D01*
Y-3480D01*
Y-3485D01*
X142555D01*
X142540Y-3357D01*
X142509Y-3249D01*
X142473Y-3152D01*
X142427Y-3070D01*
X142386Y-3004D01*
X142355Y-2957D01*
X142330Y-2927D01*
X142320Y-2916D01*
X142233Y-2845D01*
X142140Y-2794D01*
X142053Y-2753D01*
X141966Y-2727D01*
X141895Y-2712D01*
X141833Y-2707D01*
X141813Y-2702D01*
D02*
G37*
G36*
X157526Y-1785D02*
X156210D01*
Y-4673D01*
X157956D01*
X157910Y-4570D01*
X157869Y-4458D01*
X157797Y-4232D01*
X157741Y-4002D01*
X157715Y-3889D01*
X157695Y-3787D01*
X157674Y-3684D01*
X157659Y-3592D01*
X157644Y-3510D01*
X157633Y-3439D01*
X157628Y-3382D01*
X157623Y-3336D01*
X157618Y-3311D01*
Y-3300D01*
X157603Y-3147D01*
X157587Y-3004D01*
X157577Y-2865D01*
X157567Y-2737D01*
X157557Y-2620D01*
X157546Y-2512D01*
X157541Y-2415D01*
X157536Y-2323D01*
X157531Y-2246D01*
Y-2174D01*
Y-2118D01*
X157526Y-2067D01*
Y-2031D01*
Y-2000D01*
Y-1985D01*
Y-1980D01*
Y-1785D01*
D02*
G37*
G36*
X126263Y-3833D02*
X125628D01*
X125551Y-3838D01*
X125480Y-3848D01*
X125418Y-3853D01*
X125362Y-3864D01*
X125311Y-3879D01*
X125270Y-3889D01*
X125229Y-3905D01*
X125198Y-3920D01*
X125168Y-3930D01*
X125132Y-3956D01*
X125106Y-3971D01*
X125101Y-3976D01*
X125055Y-4028D01*
X125019Y-4084D01*
X124993Y-4135D01*
X124973Y-4186D01*
X124963Y-4227D01*
X124958Y-4258D01*
Y-4278D01*
Y-4289D01*
X124968Y-4371D01*
X124988Y-4437D01*
X125019Y-4499D01*
X125050Y-4545D01*
X125086Y-4580D01*
X125116Y-4606D01*
X125137Y-4622D01*
X125147Y-4627D01*
X125183Y-4647D01*
X125229Y-4662D01*
X125326Y-4688D01*
X125429Y-4708D01*
X125531Y-4719D01*
X125628Y-4729D01*
X125669D01*
X125705Y-4734D01*
X126263D01*
Y-3833D01*
D02*
G37*
G36*
X100269Y-2702D02*
X100233D01*
X100172Y-2707D01*
X100110Y-2712D01*
X99998Y-2742D01*
X99900Y-2783D01*
X99818Y-2835D01*
X99752Y-2886D01*
X99701Y-2927D01*
X99670Y-2957D01*
X99660Y-2963D01*
Y-2968D01*
X99619Y-3019D01*
X99583Y-3075D01*
X99521Y-3198D01*
X99480Y-3326D01*
X99455Y-3449D01*
X99445Y-3505D01*
X99434Y-3562D01*
X99429Y-3608D01*
Y-3654D01*
X99424Y-3684D01*
Y-3715D01*
Y-3731D01*
Y-3736D01*
Y-3833D01*
X99434Y-3925D01*
X99445Y-4007D01*
X99460Y-4089D01*
X99475Y-4161D01*
X99496Y-4222D01*
X99516Y-4284D01*
X99537Y-4335D01*
X99562Y-4381D01*
X99583Y-4422D01*
X99603Y-4458D01*
X99619Y-4483D01*
X99634Y-4509D01*
X99644Y-4524D01*
X99649Y-4529D01*
X99655Y-4534D01*
X99701Y-4580D01*
X99747Y-4622D01*
X99793Y-4657D01*
X99844Y-4683D01*
X99936Y-4734D01*
X100028Y-4765D01*
X100110Y-4780D01*
X100146Y-4785D01*
X100177Y-4790D01*
X100197Y-4796D01*
X100233D01*
X100295Y-4790D01*
X100356Y-4785D01*
X100469Y-4755D01*
X100571Y-4714D01*
X100653Y-4662D01*
X100719Y-4616D01*
X100771Y-4575D01*
X100801Y-4545D01*
X100807Y-4540D01*
X100812Y-4534D01*
X100853Y-4483D01*
X100883Y-4427D01*
X100940Y-4304D01*
X100981Y-4171D01*
X101006Y-4043D01*
X101016Y-3987D01*
X101027Y-3930D01*
X101032Y-3879D01*
Y-3838D01*
X101037Y-3802D01*
Y-3771D01*
Y-3756D01*
Y-3751D01*
X101032Y-3654D01*
X101027Y-3567D01*
X101016Y-3485D01*
X101001Y-3403D01*
X100986Y-3336D01*
X100965Y-3270D01*
X100945Y-3213D01*
X100924Y-3157D01*
X100904Y-3111D01*
X100883Y-3075D01*
X100863Y-3039D01*
X100847Y-3014D01*
X100832Y-2988D01*
X100822Y-2973D01*
X100812Y-2968D01*
Y-2963D01*
X100766Y-2916D01*
X100719Y-2876D01*
X100673Y-2840D01*
X100622Y-2809D01*
X100525Y-2763D01*
X100438Y-2732D01*
X100356Y-2717D01*
X100320Y-2712D01*
X100289Y-2707D01*
X100269Y-2702D01*
D02*
G37*
G36*
X124059Y-80457D02*
X124023D01*
X123962Y-80462D01*
X123900Y-80468D01*
X123788Y-80498D01*
X123690Y-80539D01*
X123608Y-80590D01*
X123542Y-80642D01*
X123491Y-80683D01*
X123460Y-80713D01*
X123450Y-80718D01*
Y-80724D01*
X123409Y-80775D01*
X123373Y-80831D01*
X123311Y-80954D01*
X123270Y-81082D01*
X123245Y-81205D01*
X123235Y-81261D01*
X123224Y-81318D01*
X123219Y-81364D01*
Y-81410D01*
X123214Y-81440D01*
Y-81471D01*
Y-81486D01*
Y-81492D01*
Y-81589D01*
X123224Y-81681D01*
X123235Y-81763D01*
X123250Y-81845D01*
X123265Y-81917D01*
X123286Y-81978D01*
X123306Y-82039D01*
X123327Y-82091D01*
X123352Y-82137D01*
X123373Y-82178D01*
X123393Y-82213D01*
X123409Y-82239D01*
X123424Y-82265D01*
X123434Y-82280D01*
X123440Y-82285D01*
X123445Y-82290D01*
X123491Y-82336D01*
X123537Y-82377D01*
X123583Y-82413D01*
X123634Y-82439D01*
X123726Y-82490D01*
X123818Y-82521D01*
X123900Y-82536D01*
X123936Y-82541D01*
X123967Y-82546D01*
X123987Y-82551D01*
X124023D01*
X124085Y-82546D01*
X124146Y-82541D01*
X124259Y-82511D01*
X124361Y-82469D01*
X124443Y-82418D01*
X124510Y-82372D01*
X124561Y-82331D01*
X124592Y-82301D01*
X124597Y-82296D01*
X124602Y-82290D01*
X124643Y-82239D01*
X124673Y-82183D01*
X124730Y-82060D01*
X124771Y-81927D01*
X124796Y-81799D01*
X124806Y-81743D01*
X124817Y-81686D01*
X124822Y-81635D01*
Y-81594D01*
X124827Y-81558D01*
Y-81528D01*
Y-81512D01*
Y-81507D01*
X124822Y-81410D01*
X124817Y-81323D01*
X124806Y-81241D01*
X124791Y-81159D01*
X124776Y-81092D01*
X124755Y-81026D01*
X124735Y-80969D01*
X124714Y-80913D01*
X124694Y-80867D01*
X124673Y-80831D01*
X124653Y-80795D01*
X124638Y-80770D01*
X124622Y-80744D01*
X124612Y-80729D01*
X124602Y-80724D01*
Y-80718D01*
X124556Y-80672D01*
X124510Y-80632D01*
X124463Y-80596D01*
X124412Y-80565D01*
X124315Y-80519D01*
X124228Y-80488D01*
X124146Y-80473D01*
X124110Y-80468D01*
X124080Y-80462D01*
X124059Y-80457D01*
D02*
G37*
G36*
X121197D02*
X121166D01*
X121110Y-80462D01*
X121054Y-80468D01*
X120946Y-80498D01*
X120854Y-80539D01*
X120777Y-80590D01*
X120716Y-80642D01*
X120670Y-80683D01*
X120639Y-80713D01*
X120629Y-80718D01*
Y-80724D01*
X120588Y-80775D01*
X120557Y-80836D01*
X120501Y-80964D01*
X120460Y-81097D01*
X120434Y-81236D01*
X120429Y-81297D01*
X120419Y-81353D01*
X120414Y-81410D01*
Y-81456D01*
X120408Y-81492D01*
Y-81522D01*
Y-81543D01*
Y-81548D01*
Y-81640D01*
X120419Y-81727D01*
X120429Y-81804D01*
X120444Y-81881D01*
X120460Y-81947D01*
X120475Y-82009D01*
X120495Y-82065D01*
X120516Y-82116D01*
X120536Y-82162D01*
X120557Y-82198D01*
X120572Y-82234D01*
X120588Y-82260D01*
X120603Y-82280D01*
X120613Y-82296D01*
X120618Y-82301D01*
X120624Y-82306D01*
X120664Y-82347D01*
X120705Y-82388D01*
X120798Y-82449D01*
X120885Y-82490D01*
X120966Y-82521D01*
X121038Y-82536D01*
X121095Y-82546D01*
X121115Y-82551D01*
X121146D01*
X121202Y-82546D01*
X121253Y-82541D01*
X121356Y-82511D01*
X121443Y-82469D01*
X121525Y-82424D01*
X121586Y-82377D01*
X121632Y-82336D01*
X121663Y-82306D01*
X121668Y-82301D01*
X121673Y-82296D01*
X121714Y-82244D01*
X121745Y-82188D01*
X121801Y-82060D01*
X121837Y-81932D01*
X121868Y-81804D01*
X121873Y-81743D01*
X121883Y-81686D01*
X121888Y-81635D01*
Y-81594D01*
X121893Y-81558D01*
Y-81528D01*
Y-81512D01*
Y-81507D01*
Y-81410D01*
X121883Y-81318D01*
X121873Y-81230D01*
X121862Y-81154D01*
X121847Y-81082D01*
X121827Y-81015D01*
X121811Y-80959D01*
X121791Y-80908D01*
X121770Y-80862D01*
X121755Y-80821D01*
X121734Y-80790D01*
X121719Y-80760D01*
X121709Y-80739D01*
X121699Y-80724D01*
X121688Y-80718D01*
Y-80713D01*
X121648Y-80667D01*
X121607Y-80626D01*
X121560Y-80596D01*
X121519Y-80565D01*
X121432Y-80519D01*
X121351Y-80488D01*
X121274Y-80473D01*
X121217Y-80462D01*
X121197Y-80457D01*
D02*
G37*
G36*
X117521Y-81497D02*
X117516D01*
Y-81671D01*
X117521Y-81778D01*
X117526Y-81871D01*
X117541Y-81952D01*
X117552Y-82019D01*
X117567Y-82070D01*
X117582Y-82106D01*
X117587Y-82132D01*
X117592Y-82137D01*
X117633Y-82208D01*
X117680Y-82275D01*
X117731Y-82326D01*
X117782Y-82372D01*
X117828Y-82413D01*
X117864Y-82439D01*
X117889Y-82454D01*
X117900Y-82459D01*
X117976Y-82495D01*
X118058Y-82526D01*
X118140Y-82546D01*
X118212Y-82557D01*
X118279Y-82567D01*
X118330Y-82572D01*
X118376D01*
X118473Y-82567D01*
X118555Y-82551D01*
X118627Y-82531D01*
X118683Y-82511D01*
X118729Y-82490D01*
X118760Y-82469D01*
X118780Y-82454D01*
X118785Y-82449D01*
X118832Y-82398D01*
X118867Y-82347D01*
X118888Y-82296D01*
X118908Y-82249D01*
X118919Y-82208D01*
X118924Y-82173D01*
Y-82152D01*
Y-82142D01*
X118919Y-82096D01*
X118913Y-82055D01*
X118903Y-82019D01*
X118893Y-81983D01*
X118883Y-81958D01*
X118872Y-81937D01*
X118862Y-81927D01*
Y-81922D01*
X118806Y-81855D01*
X118744Y-81804D01*
X118719Y-81789D01*
X118698Y-81778D01*
X118683Y-81768D01*
X118678D01*
X118627Y-81748D01*
X118565Y-81732D01*
X118499Y-81717D01*
X118432Y-81701D01*
X118371Y-81691D01*
X118319Y-81681D01*
X118299D01*
X118284Y-81676D01*
X118273D01*
X118181Y-81661D01*
X118094Y-81645D01*
X118017Y-81635D01*
X117941Y-81620D01*
X117874Y-81604D01*
X117813Y-81589D01*
X117756Y-81573D01*
X117705Y-81558D01*
X117664Y-81548D01*
X117623Y-81533D01*
X117592Y-81522D01*
X117562Y-81512D01*
X117541Y-81507D01*
X117526Y-81502D01*
X117521Y-81497D01*
D02*
G37*
G36*
X117541Y-74646D02*
X117510D01*
X117448Y-74651D01*
X117392Y-74662D01*
X117336Y-74677D01*
X117285Y-74692D01*
X117192Y-74744D01*
X117116Y-74800D01*
X117054Y-74856D01*
X117008Y-74907D01*
X116988Y-74923D01*
X116978Y-74938D01*
X116967Y-74949D01*
Y-74954D01*
X116926Y-75020D01*
X116896Y-75097D01*
X116865Y-75179D01*
X116839Y-75276D01*
X116819Y-75373D01*
X116798Y-75481D01*
X116773Y-75686D01*
X116768Y-75783D01*
X116757Y-75880D01*
X116752Y-75962D01*
Y-76039D01*
X116747Y-76100D01*
Y-76147D01*
Y-76177D01*
Y-76182D01*
Y-76187D01*
Y-76357D01*
X116757Y-76510D01*
X116768Y-76648D01*
X116783Y-76776D01*
X116798Y-76889D01*
X116819Y-76991D01*
X116834Y-77078D01*
X116855Y-77155D01*
X116875Y-77222D01*
X116896Y-77278D01*
X116916Y-77324D01*
X116931Y-77365D01*
X116947Y-77391D01*
X116957Y-77411D01*
X116962Y-77421D01*
X116967Y-77426D01*
X117008Y-77478D01*
X117054Y-77524D01*
X117100Y-77565D01*
X117147Y-77601D01*
X117187Y-77631D01*
X117234Y-77657D01*
X117321Y-77693D01*
X117392Y-77713D01*
X117454Y-77723D01*
X117474Y-77729D01*
X117505D01*
X117561Y-77723D01*
X117617Y-77713D01*
X117674Y-77703D01*
X117725Y-77683D01*
X117812Y-77631D01*
X117894Y-77575D01*
X117955Y-77524D01*
X118001Y-77473D01*
X118022Y-77452D01*
X118032Y-77442D01*
X118037Y-77432D01*
X118043Y-77426D01*
X118078Y-77360D01*
X118114Y-77283D01*
X118140Y-77196D01*
X118165Y-77104D01*
X118186Y-77002D01*
X118206Y-76899D01*
X118232Y-76689D01*
X118237Y-76592D01*
X118247Y-76500D01*
X118252Y-76413D01*
Y-76336D01*
X118257Y-76275D01*
Y-76228D01*
Y-76198D01*
Y-76187D01*
X118252Y-76019D01*
X118247Y-75865D01*
X118237Y-75727D01*
X118222Y-75599D01*
X118201Y-75481D01*
X118181Y-75379D01*
X118160Y-75286D01*
X118140Y-75204D01*
X118119Y-75133D01*
X118099Y-75077D01*
X118078Y-75025D01*
X118058Y-74984D01*
X118043Y-74954D01*
X118032Y-74933D01*
X118022Y-74923D01*
Y-74918D01*
X117986Y-74872D01*
X117945Y-74826D01*
X117904Y-74790D01*
X117858Y-74759D01*
X117776Y-74713D01*
X117694Y-74682D01*
X117623Y-74662D01*
X117561Y-74651D01*
X117541Y-74646D01*
D02*
G37*
G36*
X116878Y-3741D02*
X116873D01*
Y-3915D01*
X116878Y-4022D01*
X116883Y-4115D01*
X116899Y-4197D01*
X116909Y-4263D01*
X116924Y-4314D01*
X116940Y-4350D01*
X116945Y-4376D01*
X116950Y-4381D01*
X116991Y-4453D01*
X117037Y-4519D01*
X117088Y-4570D01*
X117139Y-4616D01*
X117185Y-4657D01*
X117221Y-4683D01*
X117247Y-4698D01*
X117257Y-4703D01*
X117334Y-4739D01*
X117416Y-4770D01*
X117498Y-4790D01*
X117569Y-4801D01*
X117636Y-4811D01*
X117687Y-4816D01*
X117733D01*
X117831Y-4811D01*
X117912Y-4796D01*
X117984Y-4775D01*
X118041Y-4755D01*
X118087Y-4734D01*
X118117Y-4714D01*
X118138Y-4698D01*
X118143Y-4693D01*
X118189Y-4642D01*
X118225Y-4591D01*
X118245Y-4540D01*
X118266Y-4493D01*
X118276Y-4453D01*
X118281Y-4417D01*
Y-4396D01*
Y-4386D01*
X118276Y-4340D01*
X118271Y-4299D01*
X118261Y-4263D01*
X118250Y-4227D01*
X118240Y-4202D01*
X118230Y-4181D01*
X118220Y-4171D01*
Y-4166D01*
X118163Y-4099D01*
X118102Y-4048D01*
X118076Y-4033D01*
X118056Y-4022D01*
X118041Y-4012D01*
X118035D01*
X117984Y-3992D01*
X117923Y-3976D01*
X117856Y-3961D01*
X117790Y-3946D01*
X117728Y-3935D01*
X117677Y-3925D01*
X117657D01*
X117641Y-3920D01*
X117631D01*
X117539Y-3905D01*
X117452Y-3889D01*
X117375Y-3879D01*
X117298Y-3864D01*
X117232Y-3848D01*
X117170Y-3833D01*
X117114Y-3818D01*
X117063Y-3802D01*
X117022Y-3792D01*
X116981Y-3777D01*
X116950Y-3766D01*
X116919Y-3756D01*
X116899Y-3751D01*
X116883Y-3746D01*
X116878Y-3741D01*
D02*
G37*
G36*
X128067Y-75634D02*
X128037D01*
X127970Y-75640D01*
X127909Y-75645D01*
X127796Y-75675D01*
X127699Y-75722D01*
X127617Y-75768D01*
X127550Y-75819D01*
X127504Y-75865D01*
X127473Y-75896D01*
X127463Y-75901D01*
Y-75906D01*
X127412Y-75978D01*
X127376Y-76060D01*
X127346Y-76141D01*
X127320Y-76223D01*
X127304Y-76300D01*
X127289Y-76362D01*
Y-76387D01*
X127284Y-76402D01*
Y-76413D01*
Y-76418D01*
X128810D01*
X128795Y-76290D01*
X128764Y-76182D01*
X128728Y-76085D01*
X128682Y-76003D01*
X128641Y-75937D01*
X128610Y-75890D01*
X128585Y-75860D01*
X128574Y-75850D01*
X128487Y-75778D01*
X128395Y-75727D01*
X128308Y-75686D01*
X128221Y-75660D01*
X128149Y-75645D01*
X128088Y-75640D01*
X128067Y-75634D01*
D02*
G37*
G36*
X121652Y-75020D02*
Y-76720D01*
X122835D01*
X121652Y-75020D01*
D02*
G37*
%LPD*%
D64*
X52369Y-42897D02*
X52432Y-42959D01*
X52557Y-43084D02*
X52619Y-43147D01*
X52244Y-42772D02*
X52369Y-42897D01*
X52619Y-43147D02*
X52744Y-43272D01*
X66744D02*
Y-35272D01*
X52744Y-43272D02*
X66744D01*
X52432Y-42959D02*
X52557Y-43084D01*
X52244Y-42772D02*
Y-35272D01*
X66744D01*
X9646Y-45079D02*
X15157D01*
X9646Y-39961D02*
X15157D01*
X9646Y-45079D02*
Y-39961D01*
X64272Y-49114D02*
Y-45178D01*
X62304D01*
X61648Y-45834D01*
Y-47146D01*
X62304Y-47802D01*
X64272D01*
X62960D02*
X61648Y-49114D01*
X60336D02*
X59024D01*
X59680D01*
Y-45178D01*
X60336Y-45834D01*
X57056Y-48458D02*
X56400Y-49114D01*
X55088D01*
X54432Y-48458D01*
Y-45834D01*
X55088Y-45178D01*
X56400D01*
X57056Y-45834D01*
Y-46490D01*
X56400Y-47146D01*
X54432D01*
D68*
X20703Y-50755D02*
X21162Y-50296D01*
X22080D01*
X22539Y-50755D01*
Y-52592D01*
X22080Y-53051D01*
X21162D01*
X20703Y-52592D01*
X17948Y-53051D02*
X19784D01*
X17948Y-51214D01*
Y-50755D01*
X18407Y-50296D01*
X19325D01*
X19784Y-50755D01*
X17029Y-53051D02*
X16111D01*
X16570D01*
Y-50296D01*
X17029Y-50755D01*
X81759Y-34219D02*
X81300Y-33759D01*
Y-32841D01*
X81759Y-32382D01*
X83596D01*
X84055Y-32841D01*
Y-33759D01*
X83596Y-34219D01*
X84055Y-36974D02*
Y-35137D01*
X82218Y-36974D01*
X81759D01*
X81300Y-36514D01*
Y-35596D01*
X81759Y-35137D01*
Y-37892D02*
X81300Y-38351D01*
Y-39269D01*
X81759Y-39729D01*
X83596D01*
X84055Y-39269D01*
Y-38351D01*
X83596Y-37892D01*
X81759D01*
X54137Y-51080D02*
X51381D01*
Y-52458D01*
X51841Y-52917D01*
X52759D01*
X53218Y-52458D01*
Y-51080D01*
Y-51998D02*
X54137Y-52917D01*
Y-55672D02*
Y-53835D01*
X52300Y-55672D01*
X51841D01*
X51381Y-55213D01*
Y-54294D01*
X51841Y-53835D01*
X54137Y-56590D02*
Y-57508D01*
Y-57049D01*
X51381D01*
X51841Y-56590D01*
X15748Y-46654D02*
Y-49409D01*
X13911D01*
X11156Y-46654D02*
X12993D01*
Y-49409D01*
X11156D01*
X12993Y-48032D02*
X12075D01*
X10238Y-46654D02*
Y-49409D01*
X8861D01*
X8401Y-48950D01*
Y-47114D01*
X8861Y-46654D01*
X10238D01*
X7483Y-49409D02*
X6565D01*
X7024D01*
Y-46654D01*
X7483Y-47114D01*
X31202Y-58661D02*
X33957D01*
Y-60498D01*
Y-63253D02*
Y-61416D01*
X32120Y-63253D01*
X31661D01*
X31202Y-62794D01*
Y-61876D01*
X31661Y-61416D01*
X34055Y-38484D02*
Y-35729D01*
X32678D01*
X32218Y-36188D01*
Y-37107D01*
X32678Y-37566D01*
X34055D01*
X33137D02*
X32218Y-38484D01*
X29463D02*
X31300D01*
X29463Y-36648D01*
Y-36188D01*
X29923Y-35729D01*
X30841D01*
X31300Y-36188D01*
X26708Y-35729D02*
X27627Y-36188D01*
X28545Y-37107D01*
Y-38025D01*
X28086Y-38484D01*
X27168D01*
X26708Y-38025D01*
Y-37566D01*
X27168Y-37107D01*
X28545D01*
D111*
X10728Y-42520D02*
D03*
M02*
