%FSLAX25Y25*%
%MOIN*%
G70*
G01*
G75*
G04 Layer_Color=8388736*
%ADD10R,0.02165X0.05906*%
%ADD11R,0.03543X0.03150*%
%ADD12R,0.01969X0.02362*%
%ADD13R,0.01969X0.01969*%
%ADD14R,0.18110X0.16929*%
%ADD15R,0.06299X0.07874*%
%ADD16R,0.07480X0.10236*%
%ADD17R,0.02953X0.07087*%
%ADD18R,0.02362X0.01969*%
%ADD19R,0.04724X0.02362*%
%ADD20R,0.07480X0.09350*%
%ADD21R,0.07480X0.04626*%
%ADD22R,0.07874X0.05807*%
%ADD23R,0.08268X0.05807*%
%ADD24R,0.05433X0.01772*%
%ADD25R,0.03543X0.03543*%
%ADD26R,0.08071X0.08071*%
%ADD27O,0.00787X0.03543*%
%ADD28O,0.03543X0.00787*%
%ADD29R,0.02165X0.03937*%
%ADD30R,0.00984X0.04331*%
%ADD31R,0.04500X0.04500*%
%ADD32R,0.03937X0.14961*%
%ADD33R,0.06693X0.04331*%
%ADD34R,0.03150X0.03543*%
%ADD35R,0.04331X0.06693*%
%ADD36R,0.04331X0.01575*%
%ADD37R,0.05118X0.02362*%
%ADD38R,0.05118X0.02756*%
%ADD39R,0.02756X0.03543*%
%ADD40R,0.02362X0.04528*%
%ADD41R,0.02559X0.04331*%
%ADD42R,0.22441X0.22441*%
%ADD43O,0.03543X0.00984*%
%ADD44O,0.00984X0.03543*%
%ADD45C,0.01181*%
%ADD46C,0.00984*%
%ADD47C,0.01969*%
%ADD48C,0.01575*%
%ADD49R,0.07480X0.06890*%
%ADD50R,0.13780X0.06496*%
G04:AMPARAMS|DCode=51|XSize=59.06mil|YSize=59.06mil|CornerRadius=0mil|HoleSize=0mil|Usage=FLASHONLY|Rotation=90.000|XOffset=0mil|YOffset=0mil|HoleType=Round|Shape=Octagon|*
%AMOCTAGOND51*
4,1,8,0.01476,0.02953,-0.01476,0.02953,-0.02953,0.01476,-0.02953,-0.01476,-0.01476,-0.02953,0.01476,-0.02953,0.02953,-0.01476,0.02953,0.01476,0.01476,0.02953,0.0*
%
%ADD51OCTAGOND51*%

%ADD52R,0.15748X0.07874*%
%ADD53C,0.03937*%
%ADD54R,0.09055X0.07087*%
%ADD55C,0.04724*%
%ADD56C,0.06693*%
%ADD57C,0.02756*%
%ADD58C,0.02441*%
%ADD59C,0.03543*%
%ADD60C,0.01969*%
%ADD61R,0.03150X0.05512*%
%ADD62R,0.06890X0.05906*%
%ADD63R,0.03937X0.05906*%
%ADD64C,0.00787*%
%ADD65C,0.00394*%
%ADD66C,0.00606*%
%ADD67C,0.01000*%
%ADD68C,0.00591*%
%ADD69R,0.02953X0.06693*%
%ADD70R,0.04331X0.03937*%
%ADD71R,0.02756X0.03150*%
%ADD72R,0.02756X0.02756*%
%ADD73R,0.18898X0.17716*%
%ADD74R,0.07087X0.08661*%
%ADD75R,0.08268X0.11024*%
%ADD76R,0.03740X0.07874*%
%ADD77R,0.03150X0.02756*%
%ADD78R,0.05512X0.03150*%
%ADD79R,0.08268X0.10138*%
%ADD80R,0.08268X0.05413*%
%ADD81R,0.08661X0.06594*%
%ADD82R,0.09055X0.06594*%
%ADD83R,0.06221X0.02559*%
%ADD84R,0.04331X0.04331*%
%ADD85R,0.08858X0.08858*%
%ADD86O,0.01575X0.04331*%
%ADD87O,0.04331X0.01575*%
%ADD88R,0.02953X0.04724*%
%ADD89R,0.01772X0.05118*%
%ADD90R,0.05287X0.05287*%
%ADD91R,0.04724X0.15748*%
%ADD92R,0.07480X0.05118*%
%ADD93R,0.03937X0.04331*%
%ADD94R,0.05118X0.07480*%
%ADD95R,0.05906X0.03150*%
%ADD96R,0.05906X0.03543*%
%ADD97R,0.03543X0.04331*%
%ADD98R,0.03150X0.05315*%
%ADD99R,0.03347X0.05118*%
%ADD100R,0.23228X0.23228*%
%ADD101O,0.04331X0.01772*%
%ADD102O,0.01772X0.04331*%
G04:AMPARAMS|DCode=103|XSize=66.93mil|YSize=66.93mil|CornerRadius=0mil|HoleSize=0mil|Usage=FLASHONLY|Rotation=90.000|XOffset=0mil|YOffset=0mil|HoleType=Round|Shape=Octagon|*
%AMOCTAGOND103*
4,1,8,0.01673,0.03347,-0.01673,0.03347,-0.03347,0.01673,-0.03347,-0.01673,-0.01673,-0.03347,0.01673,-0.03347,0.03347,-0.01673,0.03347,0.01673,0.01673,0.03347,0.0*
%
%ADD103OCTAGOND103*%

%ADD104R,0.16535X0.08661*%
%ADD105R,0.09843X0.07874*%
%ADD106C,0.05512*%
%ADD107C,0.07480*%
D37*
X71752Y-63386D02*
D03*
Y-59449D02*
D03*
X65847Y-61417D02*
D03*
D55*
X65551Y-30709D02*
D03*
X54331Y-33169D02*
D03*
D69*
X132087Y-67815D02*
D03*
X128347Y-60335D02*
D03*
X135827D02*
D03*
D70*
X135728Y-51181D02*
D03*
Y-45669D02*
D03*
X145079Y-87008D02*
D03*
Y-81496D02*
D03*
X135138Y-79921D02*
D03*
Y-74409D02*
D03*
X151969Y-8465D02*
D03*
Y-2953D02*
D03*
X23622Y-17126D02*
D03*
Y-11614D02*
D03*
X28839D02*
D03*
Y-17126D02*
D03*
X84842Y-64272D02*
D03*
Y-58760D02*
D03*
X77461Y-58661D02*
D03*
Y-64173D02*
D03*
X61122Y-56102D02*
D03*
Y-50591D02*
D03*
X61221Y-38976D02*
D03*
Y-44488D02*
D03*
X55807Y-55905D02*
D03*
Y-50394D02*
D03*
X55709Y-44488D02*
D03*
Y-38976D02*
D03*
D71*
X128839Y-74508D02*
D03*
X130807Y-79626D02*
D03*
X126870D02*
D03*
X74394Y-34677D02*
D03*
Y-38969D02*
D03*
X112697Y-17933D02*
D03*
Y-22224D02*
D03*
X85236Y-8937D02*
D03*
Y-4646D02*
D03*
X157579Y-3366D02*
D03*
Y-7658D02*
D03*
X61713Y-30118D02*
D03*
X57776D02*
D03*
X59744Y-35236D02*
D03*
X68898D02*
D03*
X70866Y-40354D02*
D03*
X66929D02*
D03*
D72*
X138878Y-86614D02*
D03*
X130217D02*
D03*
D73*
X163091Y-61024D02*
D03*
D74*
X168996Y-77165D02*
D03*
X157579D02*
D03*
D75*
X77165Y-7776D02*
D03*
X60433D02*
D03*
D76*
X92146Y-4528D02*
D03*
X108051D02*
D03*
D77*
X112618Y-2559D02*
D03*
X116909D02*
D03*
X101752Y-10039D02*
D03*
X97461D02*
D03*
X109232Y-10039D02*
D03*
X104941D02*
D03*
X103957Y-48819D02*
D03*
X108248D02*
D03*
X134468Y-2264D02*
D03*
X138760D02*
D03*
X67894Y-16043D02*
D03*
X63602D02*
D03*
X31870Y-22835D02*
D03*
X27579D02*
D03*
X159035Y-25689D02*
D03*
X154744D02*
D03*
X86732Y-13386D02*
D03*
X91024D02*
D03*
X149803Y-84055D02*
D03*
Y-87992D02*
D03*
X154921Y-86024D02*
D03*
D78*
X34252Y-4134D02*
D03*
Y-7874D02*
D03*
Y-11614D02*
D03*
X43307D02*
D03*
Y-7874D02*
D03*
Y-4134D02*
D03*
D79*
X5315Y-30807D02*
D03*
Y-7579D02*
D03*
D80*
Y-15846D02*
D03*
Y-22539D02*
D03*
D81*
X14567Y-9350D02*
D03*
D82*
X14370Y-29035D02*
D03*
D83*
X15748Y-14075D02*
D03*
Y-24311D02*
D03*
Y-21752D02*
D03*
Y-16634D02*
D03*
Y-19193D02*
D03*
D84*
X106693Y-59646D02*
D03*
Y-69095D02*
D03*
D85*
X43799Y-52362D02*
D03*
D86*
X39862Y-45276D02*
D03*
X41831D02*
D03*
X43799D02*
D03*
X45768D02*
D03*
X47736D02*
D03*
Y-59449D02*
D03*
X45768D02*
D03*
X43799D02*
D03*
X41831D02*
D03*
X39862D02*
D03*
D87*
X50886Y-49409D02*
D03*
Y-55315D02*
D03*
X36713D02*
D03*
Y-49409D02*
D03*
D88*
X107480Y-75394D02*
D03*
X114370D02*
D03*
Y-87205D02*
D03*
X107480D02*
D03*
D89*
X142913Y-6594D02*
D03*
X140945D02*
D03*
X138976D02*
D03*
X137008D02*
D03*
X135039D02*
D03*
Y-28642D02*
D03*
X137008D02*
D03*
X138976D02*
D03*
X140945D02*
D03*
X142913D02*
D03*
D90*
X99213Y-59571D02*
D03*
Y-69571D02*
D03*
X90945Y-69661D02*
D03*
Y-59661D02*
D03*
D91*
X37106Y-31201D02*
D03*
X48130D02*
D03*
D92*
X147343Y-65059D02*
D03*
Y-75689D02*
D03*
X29823Y-55709D02*
D03*
Y-45079D02*
D03*
X20571Y-55709D02*
D03*
Y-45079D02*
D03*
X120965Y-86811D02*
D03*
Y-76181D02*
D03*
D93*
X140157Y-58760D02*
D03*
X145669D02*
D03*
X85335Y-52067D02*
D03*
X90847D02*
D03*
X124705Y-51870D02*
D03*
X130217D02*
D03*
X124705Y-45571D02*
D03*
X130217D02*
D03*
X76968Y-49852D02*
D03*
X71457D02*
D03*
X118209Y-17028D02*
D03*
X123721D02*
D03*
X76968Y-54232D02*
D03*
X71457D02*
D03*
X5315Y-41929D02*
D03*
X10827D02*
D03*
X76968Y-45472D02*
D03*
X71457D02*
D03*
D94*
X112697Y-62598D02*
D03*
X123327D02*
D03*
X48327Y-18406D02*
D03*
X37697D02*
D03*
D95*
X4134Y-47441D02*
D03*
Y-54921D02*
D03*
X12402Y-51181D02*
D03*
D96*
X162500Y-13484D02*
D03*
Y-20965D02*
D03*
X153051D02*
D03*
Y-17224D02*
D03*
Y-13484D02*
D03*
D97*
X19783Y-37500D02*
D03*
X13878D02*
D03*
D98*
X117520Y-12303D02*
D03*
X125000D02*
D03*
X121260Y-3445D02*
D03*
D99*
X24311Y-38189D02*
D03*
X28051D02*
D03*
X31791D02*
D03*
Y-28740D02*
D03*
X24311D02*
D03*
D100*
X94587Y-31398D02*
D03*
D101*
X108563Y-20571D02*
D03*
Y-22539D02*
D03*
Y-24508D02*
D03*
Y-26476D02*
D03*
Y-28445D02*
D03*
Y-30413D02*
D03*
Y-32382D02*
D03*
Y-34350D02*
D03*
Y-36319D02*
D03*
Y-38287D02*
D03*
Y-40256D02*
D03*
Y-42224D02*
D03*
X80610D02*
D03*
Y-40256D02*
D03*
Y-38287D02*
D03*
Y-36319D02*
D03*
Y-34350D02*
D03*
Y-32382D02*
D03*
Y-30413D02*
D03*
Y-28445D02*
D03*
Y-26476D02*
D03*
Y-24508D02*
D03*
Y-22539D02*
D03*
Y-20571D02*
D03*
D102*
X105413Y-45374D02*
D03*
X103445D02*
D03*
X101476D02*
D03*
X99508D02*
D03*
X97539D02*
D03*
X95571D02*
D03*
X93602D02*
D03*
X91634D02*
D03*
X89665D02*
D03*
X87697D02*
D03*
X85728D02*
D03*
X83760D02*
D03*
Y-17421D02*
D03*
X85728D02*
D03*
X87697D02*
D03*
X89665D02*
D03*
X91634D02*
D03*
X93602D02*
D03*
X95571D02*
D03*
X97539D02*
D03*
X99508D02*
D03*
X101476D02*
D03*
X103445D02*
D03*
X105413D02*
D03*
D103*
X21654Y-62795D02*
D03*
X13878Y-62697D02*
D03*
D104*
X96260Y-79921D02*
D03*
D105*
X5709Y-62303D02*
D03*
D106*
X113091Y-50886D02*
D03*
X113681Y-45571D02*
D03*
D107*
X172835Y-86122D02*
D03*
X163287Y-4921D02*
D03*
M02*
