%FSLAX25Y25*%
%MOIN*%
G70*
G01*
G75*
G04 Layer_Color=65535*
%ADD10R,0.02165X0.05906*%
%ADD11R,0.03543X0.03150*%
%ADD12R,0.01969X0.02362*%
%ADD13R,0.01969X0.01969*%
%ADD14R,0.18110X0.16929*%
%ADD15R,0.06299X0.07874*%
%ADD16R,0.07480X0.10236*%
%ADD17R,0.02953X0.07087*%
%ADD18R,0.02362X0.01969*%
%ADD19R,0.04724X0.02362*%
%ADD20R,0.07480X0.09350*%
%ADD21R,0.07480X0.04626*%
%ADD22R,0.07874X0.05807*%
%ADD23R,0.08268X0.05807*%
%ADD24R,0.05433X0.01772*%
%ADD25R,0.03543X0.03543*%
%ADD26R,0.08071X0.08071*%
%ADD27O,0.00787X0.03543*%
%ADD28O,0.03543X0.00787*%
%ADD29R,0.02165X0.03937*%
%ADD30R,0.00984X0.04331*%
%ADD31R,0.04500X0.04500*%
%ADD32R,0.03937X0.14961*%
%ADD33R,0.06693X0.04331*%
%ADD34R,0.03150X0.03543*%
%ADD35R,0.04331X0.06693*%
%ADD36R,0.04331X0.01575*%
%ADD37R,0.05118X0.02362*%
%ADD38R,0.05118X0.02756*%
%ADD39R,0.02756X0.03543*%
%ADD40R,0.02362X0.04528*%
%ADD41R,0.02559X0.04331*%
%ADD42R,0.22441X0.22441*%
%ADD43O,0.03543X0.00984*%
%ADD44O,0.00984X0.03543*%
%ADD45C,0.01181*%
%ADD46C,0.00984*%
%ADD47C,0.01969*%
%ADD48C,0.01575*%
%ADD49R,0.07480X0.06890*%
%ADD50R,0.13780X0.06496*%
G04:AMPARAMS|DCode=51|XSize=59.06mil|YSize=59.06mil|CornerRadius=0mil|HoleSize=0mil|Usage=FLASHONLY|Rotation=90.000|XOffset=0mil|YOffset=0mil|HoleType=Round|Shape=Octagon|*
%AMOCTAGOND51*
4,1,8,0.01476,0.02953,-0.01476,0.02953,-0.02953,0.01476,-0.02953,-0.01476,-0.01476,-0.02953,0.01476,-0.02953,0.02953,-0.01476,0.02953,0.01476,0.01476,0.02953,0.0*
%
%ADD51OCTAGOND51*%

%ADD52R,0.15748X0.07874*%
%ADD53C,0.03937*%
%ADD54R,0.09055X0.07087*%
%ADD55C,0.04724*%
%ADD56C,0.06693*%
%ADD57C,0.02756*%
%ADD58C,0.02441*%
%ADD59C,0.03543*%
%ADD60C,0.01969*%
%ADD61R,0.03150X0.05512*%
%ADD62R,0.06890X0.05906*%
%ADD63R,0.03937X0.05906*%
%ADD64C,0.00787*%
%ADD65C,0.00394*%
%ADD66C,0.00606*%
%ADD67C,0.01000*%
%ADD68C,0.00591*%
D46*
X139567Y-60335D02*
G03*
X139567Y-60335I-492J0D01*
G01*
X34744Y-787D02*
G03*
X34744Y-787I-492J0D01*
G01*
X34055Y-59842D02*
G03*
X34055Y-59842I-492J0D01*
G01*
X72244Y-66339D02*
G03*
X72244Y-66339I-492J0D01*
G01*
X4626Y-44094D02*
G03*
X4626Y-44094I-492J0D01*
G01*
X153543Y-9941D02*
G03*
X153543Y-9941I-492J0D01*
G01*
X114665Y-12303D02*
G03*
X114665Y-12303I-492J0D01*
G01*
X21358Y-38189D02*
G03*
X21358Y-38189I-492J0D01*
G01*
X109055Y-14272D02*
G03*
X109055Y-14272I-492J0D01*
G01*
X57087Y-14665D02*
X80709D01*
X56890Y-14469D02*
X57087Y-14665D01*
X56890Y-14469D02*
Y-13681D01*
X80709Y-14665D02*
Y-13681D01*
X57087Y-886D02*
X80709D01*
X57087Y-2067D02*
Y-886D01*
X80709Y-1870D02*
Y-886D01*
D64*
X126181Y-66831D02*
X129429D01*
X126181D02*
Y-64862D01*
X134744Y-66831D02*
X137992D01*
Y-64862D01*
X132421Y-88976D02*
Y-84252D01*
X36024Y-60138D02*
X37894D01*
X36024D02*
Y-57284D01*
X49705Y-60138D02*
X51575D01*
Y-57284D01*
Y-47441D02*
Y-44587D01*
X49705D02*
X51575D01*
X36024D02*
X37894D01*
X36024Y-47441D02*
Y-44587D01*
X150295Y-71949D02*
Y-68799D01*
X144390Y-71949D02*
Y-68799D01*
X116437Y-59646D02*
X119587D01*
X116437Y-65551D02*
X119587D01*
X67027Y-64961D02*
X68209D01*
X67027D02*
Y-63779D01*
Y-57874D02*
X68209D01*
X67027Y-59055D02*
Y-57874D01*
X8268Y-45276D02*
X11024D01*
Y-48425D02*
Y-45276D01*
X8268Y-57087D02*
X11024D01*
Y-53937D01*
X158366Y-23327D02*
Y-11122D01*
X157185Y-23327D02*
Y-11122D01*
Y-23327D02*
X158366D01*
X157185Y-11122D02*
X158366D01*
X16043Y-38878D02*
X17618D01*
X16043Y-36122D02*
X17618D01*
X115354Y-8661D02*
Y-5118D01*
X118504D01*
X127165Y-8661D02*
Y-5118D01*
X124016D02*
X127165D01*
X21949Y-34449D02*
Y-32480D01*
X34154Y-34449D02*
Y-32480D01*
X21949Y-34449D02*
X34154D01*
X21949Y-32480D02*
X34154D01*
X107480Y-16831D02*
X109153D01*
Y-18504D02*
Y-16831D01*
X80020D02*
X81693D01*
X80020Y-18504D02*
Y-16831D01*
Y-45965D02*
X81693D01*
X80020D02*
Y-44291D01*
X107480Y-45965D02*
X109153D01*
Y-44291D01*
X26870Y-51968D02*
Y-48819D01*
X32776Y-51968D02*
Y-48819D01*
X17618Y-51968D02*
Y-48819D01*
X23524Y-51968D02*
Y-48819D01*
X41437Y-21358D02*
X44587D01*
X41437Y-15453D02*
X44587D01*
X118012Y-83071D02*
Y-79921D01*
X123917Y-83071D02*
Y-79921D01*
D65*
X137815Y-89095D02*
Y-88268D01*
X137776Y-89134D02*
X137815Y-89095D01*
X136870Y-89134D02*
X137776D01*
X137854Y-85000D02*
Y-84134D01*
X136988D02*
X137854D01*
X129528Y-16043D02*
X148819D01*
X129528Y-19587D02*
X148819D01*
D66*
X129134Y-27461D02*
Y-7776D01*
X148819Y-27461D02*
Y-7776D01*
D67*
X144882Y-23130D02*
X147244D01*
X145669Y-21555D02*
X147244Y-23130D01*
X145669Y-24311D02*
Y-21555D01*
Y-24311D02*
X146850Y-23130D01*
X141339D02*
X146850D01*
X153937Y-45769D02*
Y-48393D01*
X155249Y-49705D01*
X156561Y-48393D01*
Y-45769D01*
X157873Y-49705D02*
X159185D01*
X158529D01*
Y-47081D01*
X157873D01*
X161153Y-45769D02*
Y-49705D01*
X163120D01*
X163776Y-49049D01*
Y-48393D01*
Y-47737D01*
X163120Y-47081D01*
X161153D01*
X165088D02*
Y-49705D01*
Y-48393D01*
X165744Y-47737D01*
X166400Y-47081D01*
X167056D01*
X169680Y-49705D02*
X170992D01*
X171648Y-49049D01*
Y-47737D01*
X170992Y-47081D01*
X169680D01*
X169024Y-47737D01*
Y-49049D01*
X169680Y-49705D01*
X96949Y-2265D02*
X99573D01*
Y-2921D01*
X96949Y-5545D01*
Y-6201D01*
X99573D01*
X103508D02*
X100885D01*
X103508Y-3577D01*
Y-2921D01*
X102852Y-2265D01*
X101541D01*
X100885Y-2921D01*
D68*
X139370Y-55413D02*
Y-52658D01*
X140748D01*
X141207Y-53118D01*
Y-54036D01*
X140748Y-54495D01*
X139370D01*
X140288D02*
X141207Y-55413D01*
X143962D02*
X142125D01*
X143962Y-53577D01*
Y-53118D01*
X143503Y-52658D01*
X142584D01*
X142125Y-53118D01*
X146717Y-52658D02*
X144880D01*
Y-54036D01*
X145799Y-53577D01*
X146258D01*
X146717Y-54036D01*
Y-54954D01*
X146258Y-55413D01*
X145339D01*
X144880Y-54954D01*
X142307Y-88756D02*
X139552D01*
Y-87378D01*
X140011Y-86919D01*
X140930D01*
X141389Y-87378D01*
Y-88756D01*
Y-87838D02*
X142307Y-86919D01*
Y-84164D02*
Y-86001D01*
X140470Y-84164D01*
X140011D01*
X139552Y-84623D01*
Y-85542D01*
X140011Y-86001D01*
X142307Y-81868D02*
X139552D01*
X140930Y-83246D01*
Y-81409D01*
X159415Y-86746D02*
Y-84909D01*
X158956Y-84450D01*
X158038D01*
X157579Y-84909D01*
Y-86746D01*
X158038Y-87205D01*
X158956D01*
X158497Y-86286D02*
X159415Y-87205D01*
X158956D02*
X159415Y-86746D01*
X162170Y-84450D02*
X161252Y-84909D01*
X160334Y-85827D01*
Y-86746D01*
X160793Y-87205D01*
X161711D01*
X162170Y-86746D01*
Y-86286D01*
X161711Y-85827D01*
X160334D01*
X149180Y-60270D02*
X148721Y-60729D01*
Y-61647D01*
X149180Y-62106D01*
X151017D01*
X151476Y-61647D01*
Y-60729D01*
X151017Y-60270D01*
X151476Y-57515D02*
Y-59351D01*
X149640Y-57515D01*
X149180D01*
X148721Y-57974D01*
Y-58892D01*
X149180Y-59351D01*
Y-56596D02*
X148721Y-56137D01*
Y-55219D01*
X149180Y-54760D01*
X149640D01*
X150099Y-55219D01*
Y-55678D01*
Y-55219D01*
X150558Y-54760D01*
X151017D01*
X151476Y-55219D01*
Y-56137D01*
X151017Y-56596D01*
X1673Y-49410D02*
Y-52165D01*
X3051D01*
X3510Y-51706D01*
Y-49869D01*
X3051Y-49410D01*
X1673D01*
X4428Y-52165D02*
X5347D01*
X4887D01*
Y-49410D01*
X4428Y-49869D01*
X59120Y-27690D02*
Y-25854D01*
X58661Y-25395D01*
X57743D01*
X57284Y-25854D01*
Y-27690D01*
X57743Y-28150D01*
X58661D01*
X58202Y-27231D02*
X59120Y-28150D01*
X58661D02*
X59120Y-27690D01*
X61416Y-28150D02*
Y-25395D01*
X60039Y-26772D01*
X61875D01*
X104528Y-62501D02*
Y-65256D01*
X105905D01*
X106364Y-64797D01*
Y-62960D01*
X105905Y-62501D01*
X104528D01*
X109119Y-65256D02*
X107283D01*
X109119Y-63419D01*
Y-62960D01*
X108660Y-62501D01*
X107742D01*
X107283Y-62960D01*
X53995Y-58465D02*
X56750D01*
Y-59842D01*
X56291Y-60301D01*
X55373D01*
X54914Y-59842D01*
Y-58465D01*
Y-59383D02*
X53995Y-60301D01*
Y-61220D02*
Y-62138D01*
Y-61679D01*
X56750D01*
X56291Y-61220D01*
Y-63515D02*
X56750Y-63975D01*
Y-64893D01*
X56291Y-65352D01*
X55832D01*
X55373Y-64893D01*
X54914Y-65352D01*
X54454D01*
X53995Y-64893D01*
Y-63975D01*
X54454Y-63515D01*
X54914D01*
X55373Y-63975D01*
X55832Y-63515D01*
X56291D01*
X55373Y-63975D02*
Y-64893D01*
X59547Y-58661D02*
X62302D01*
Y-60039D01*
X61843Y-60498D01*
X60925D01*
X60466Y-60039D01*
Y-58661D01*
Y-59580D02*
X59547Y-60498D01*
Y-61416D02*
Y-62335D01*
Y-61876D01*
X62302D01*
X61843Y-61416D01*
X62302Y-65549D02*
X61843Y-64631D01*
X60925Y-63712D01*
X60006D01*
X59547Y-64171D01*
Y-65090D01*
X60006Y-65549D01*
X60466D01*
X60925Y-65090D01*
Y-63712D01*
X89730Y-86090D02*
X89271Y-85631D01*
X88353D01*
X87894Y-86090D01*
Y-86549D01*
X88353Y-87008D01*
X89271D01*
X89730Y-87467D01*
Y-87927D01*
X89271Y-88386D01*
X88353D01*
X87894Y-87927D01*
X92026Y-88386D02*
X91108D01*
X90649Y-87927D01*
Y-87008D01*
X91108Y-86549D01*
X92026D01*
X92485Y-87008D01*
Y-87467D01*
X90649D01*
X93404Y-88386D02*
Y-86549D01*
X94781D01*
X95240Y-87008D01*
Y-88386D01*
X96159D02*
X97536D01*
X97995Y-87927D01*
X97536Y-87467D01*
X96618D01*
X96159Y-87008D01*
X96618Y-86549D01*
X97995D01*
X99373Y-88386D02*
X100291D01*
X100751Y-87927D01*
Y-87008D01*
X100291Y-86549D01*
X99373D01*
X98914Y-87008D01*
Y-87927D01*
X99373Y-88386D01*
X101669Y-86549D02*
Y-88386D01*
Y-87467D01*
X102128Y-87008D01*
X102587Y-86549D01*
X103046D01*
X80020Y-59252D02*
X82775D01*
Y-60629D01*
X82315Y-61089D01*
X81397D01*
X80938Y-60629D01*
Y-59252D01*
Y-60170D02*
X80020Y-61089D01*
Y-63844D02*
Y-62007D01*
X81856Y-63844D01*
X82315D01*
X82775Y-63384D01*
Y-62466D01*
X82315Y-62007D01*
X48293Y-11877D02*
X47834Y-11418D01*
X46916D01*
X46457Y-11877D01*
Y-13714D01*
X46916Y-14173D01*
X47834D01*
X48293Y-13714D01*
X49212Y-14173D02*
X50130D01*
X49671D01*
Y-11418D01*
X49212Y-11877D01*
X53344Y-14173D02*
X51508D01*
X53344Y-12336D01*
Y-11877D01*
X52885Y-11418D01*
X51967D01*
X51508Y-11877D01*
X13352Y-55972D02*
X12893Y-55513D01*
X11975D01*
X11516Y-55972D01*
Y-57809D01*
X11975Y-58268D01*
X12893D01*
X13352Y-57809D01*
X14271D02*
X14730Y-58268D01*
X15648D01*
X16107Y-57809D01*
Y-55972D01*
X15648Y-55513D01*
X14730D01*
X14271Y-55972D01*
Y-56431D01*
X14730Y-56890D01*
X16107D01*
X29986Y-59909D02*
X29527Y-59450D01*
X28609D01*
X28150Y-59909D01*
Y-61746D01*
X28609Y-62205D01*
X29527D01*
X29986Y-61746D01*
X30905Y-62205D02*
X31823D01*
X31364D01*
Y-59450D01*
X30905Y-59909D01*
X33200D02*
X33660Y-59450D01*
X34578D01*
X35037Y-59909D01*
Y-61746D01*
X34578Y-62205D01*
X33660D01*
X33200Y-61746D01*
Y-59909D01*
X66896Y-56234D02*
Y-54397D01*
X66437Y-53938D01*
X65518D01*
X65059Y-54397D01*
Y-56234D01*
X65518Y-56693D01*
X66437D01*
X65977Y-55775D02*
X66896Y-56693D01*
X66437D02*
X66896Y-56234D01*
X67814Y-56693D02*
X68732D01*
X68273D01*
Y-53938D01*
X67814Y-54397D01*
X73819Y-19981D02*
Y-22277D01*
X74278Y-22736D01*
X75196D01*
X75656Y-22277D01*
Y-19981D01*
X76574Y-22736D02*
X77492D01*
X77033D01*
Y-19981D01*
X76574Y-20440D01*
X67815Y-7186D02*
X69652D01*
Y-7645D01*
X67815Y-9482D01*
Y-9941D01*
X69652D01*
X70570D02*
X71488D01*
X71029D01*
Y-7186D01*
X70570Y-7645D01*
X16142Y-32383D02*
Y-34679D01*
X16601Y-35138D01*
X17519D01*
X17978Y-34679D01*
Y-32383D01*
X20274Y-35138D02*
Y-32383D01*
X18897Y-33760D01*
X20733D01*
X37304Y-12303D02*
X39600D01*
X40059Y-11844D01*
Y-10926D01*
X39600Y-10467D01*
X37304D01*
X37763Y-9548D02*
X37304Y-9089D01*
Y-8171D01*
X37763Y-7711D01*
X38222D01*
X38682Y-8171D01*
Y-8630D01*
Y-8171D01*
X39141Y-7711D01*
X39600D01*
X40059Y-8171D01*
Y-9089D01*
X39600Y-9548D01*
X97539Y-65354D02*
Y-62599D01*
X98917D01*
X99376Y-63059D01*
Y-63977D01*
X98917Y-64436D01*
X97539D01*
X98458D02*
X99376Y-65354D01*
X100294D02*
X101213D01*
X100754D01*
Y-62599D01*
X100294Y-63059D01*
X82972Y-56890D02*
Y-54135D01*
X84350D01*
X84809Y-54594D01*
Y-55512D01*
X84350Y-55971D01*
X82972D01*
X83891D02*
X84809Y-56890D01*
X87105D02*
Y-54135D01*
X85728Y-55512D01*
X87564D01*
X118602Y-22441D02*
Y-19686D01*
X119980D01*
X120439Y-20145D01*
Y-21063D01*
X119980Y-21523D01*
X118602D01*
X119521D02*
X120439Y-22441D01*
X121357Y-20145D02*
X121817Y-19686D01*
X122735D01*
X123194Y-20145D01*
Y-20604D01*
X122735Y-21063D01*
X123194Y-21523D01*
Y-21982D01*
X122735Y-22441D01*
X121817D01*
X121357Y-21982D01*
Y-21523D01*
X121817Y-21063D01*
X121357Y-20604D01*
Y-20145D01*
X121817Y-21063D02*
X122735D01*
X30118Y-8858D02*
X27363D01*
Y-7481D01*
X27822Y-7022D01*
X28741D01*
X29200Y-7481D01*
Y-8858D01*
Y-7940D02*
X30118Y-7022D01*
Y-6103D02*
Y-5185D01*
Y-5644D01*
X27363D01*
X27822Y-6103D01*
Y-3807D02*
X27363Y-3348D01*
Y-2430D01*
X27822Y-1971D01*
X29659D01*
X30118Y-2430D01*
Y-3348D01*
X29659Y-3807D01*
X27822D01*
X111024Y-56595D02*
X111942D01*
X111483D01*
Y-54758D01*
X111024D01*
X113779Y-56595D02*
X114697D01*
X115156Y-56135D01*
Y-55217D01*
X114697Y-54758D01*
X113779D01*
X113320Y-55217D01*
Y-56135D01*
X113779Y-56595D01*
X114006Y-39724D02*
X112628D01*
X112169Y-40183D01*
Y-41101D01*
X112628Y-41561D01*
X114006D01*
X114924D02*
X115842D01*
X115383D01*
Y-38805D01*
X114924D01*
X117220Y-41561D02*
Y-38805D01*
Y-40642D02*
X118597Y-39724D01*
X117220Y-40642D02*
X118597Y-41561D01*
X114993Y-26344D02*
X115452Y-25885D01*
Y-24967D01*
X114993Y-24508D01*
X113156D01*
X112697Y-24967D01*
Y-25885D01*
X113156Y-26344D01*
X112697Y-27263D02*
Y-28181D01*
Y-27722D01*
X115452D01*
X114993Y-27263D01*
X115452Y-31395D02*
X114993Y-30477D01*
X114074Y-29559D01*
X113156D01*
X112697Y-30018D01*
Y-30936D01*
X113156Y-31395D01*
X113615D01*
X114074Y-30936D01*
Y-29559D01*
X104691Y-51051D02*
X104232Y-50591D01*
X103314D01*
X102854Y-51051D01*
Y-52887D01*
X103314Y-53347D01*
X104232D01*
X104691Y-52887D01*
X105609Y-53347D02*
X106528D01*
X106069D01*
Y-50591D01*
X105609Y-51051D01*
X109742Y-50591D02*
X107905D01*
Y-51969D01*
X108824Y-51510D01*
X109283D01*
X109742Y-51969D01*
Y-52887D01*
X109283Y-53347D01*
X108364D01*
X107905Y-52887D01*
X91010Y-63748D02*
X90551Y-63288D01*
X89632D01*
X89173Y-63748D01*
Y-65584D01*
X89632Y-66043D01*
X90551D01*
X91010Y-65584D01*
X91928Y-66043D02*
X92847D01*
X92387D01*
Y-63288D01*
X91928Y-63748D01*
X65616Y-18866D02*
X65157Y-18406D01*
X64239D01*
X63779Y-18866D01*
Y-20702D01*
X64239Y-21161D01*
X65157D01*
X65616Y-20702D01*
X66535Y-18406D02*
X68371D01*
Y-18866D01*
X66535Y-20702D01*
Y-21161D01*
X89516Y-6982D02*
X89976Y-6523D01*
Y-5605D01*
X89516Y-5146D01*
X87680D01*
X87221Y-5605D01*
Y-6523D01*
X87680Y-6982D01*
X89516Y-7901D02*
X89976Y-8360D01*
Y-9278D01*
X89516Y-9737D01*
X89057D01*
X88598Y-9278D01*
X88139Y-9737D01*
X87680D01*
X87221Y-9278D01*
Y-8360D01*
X87680Y-7901D01*
X88139D01*
X88598Y-8360D01*
X89057Y-7901D01*
X89516D01*
X88598Y-8360D02*
Y-9278D01*
X126246Y-3281D02*
Y-1444D01*
X125787Y-985D01*
X124869D01*
X124409Y-1444D01*
Y-3281D01*
X124869Y-3740D01*
X125787D01*
X125328Y-2822D02*
X126246Y-3740D01*
X125787D02*
X126246Y-3281D01*
X127164Y-1444D02*
X127624Y-985D01*
X128542D01*
X129001Y-1444D01*
Y-1904D01*
X128542Y-2363D01*
X128083D01*
X128542D01*
X129001Y-2822D01*
Y-3281D01*
X128542Y-3740D01*
X127624D01*
X127164Y-3281D01*
X35039Y-40454D02*
Y-42750D01*
X35498Y-43209D01*
X36417D01*
X36876Y-42750D01*
Y-40454D01*
X39631D02*
X37794D01*
Y-41831D01*
X38713Y-41372D01*
X39172D01*
X39631Y-41831D01*
Y-42750D01*
X39172Y-43209D01*
X38254D01*
X37794Y-42750D01*
X30152Y-31823D02*
X30611Y-32283D01*
X31529D01*
X31988Y-31823D01*
Y-29987D01*
X31529Y-29528D01*
X30611D01*
X30152Y-29987D01*
X29233Y-29528D02*
X28315D01*
X28774D01*
Y-32283D01*
X29233Y-31823D01*
X26937Y-29528D02*
X26019D01*
X26478D01*
Y-32283D01*
X26937Y-31823D01*
X24541Y-8850D02*
X21786D01*
Y-7473D01*
X22245Y-7014D01*
X23163D01*
X23622Y-7473D01*
Y-8850D01*
Y-7932D02*
X24541Y-7014D01*
X24082Y-6095D02*
X24541Y-5636D01*
Y-4718D01*
X24082Y-4259D01*
X22245D01*
X21786Y-4718D01*
Y-5636D01*
X22245Y-6095D01*
X22704D01*
X23163Y-5636D01*
Y-4259D01*
X107480Y-78741D02*
X110104D01*
X108792D01*
Y-82677D01*
X111416D02*
X112728D01*
X112072D01*
Y-78741D01*
X111416Y-79397D01*
X122063Y-47252D02*
X119308D01*
Y-45874D01*
X119767Y-45415D01*
X120686D01*
X121145Y-45874D01*
Y-47252D01*
Y-46334D02*
X122063Y-45415D01*
X119308Y-44497D02*
Y-42660D01*
X119767D01*
X121604Y-44497D01*
X122063D01*
X122343Y-54724D02*
X119588D01*
Y-53347D01*
X120047Y-52888D01*
X120965D01*
X121424Y-53347D01*
Y-54724D01*
Y-53806D02*
X122343Y-52888D01*
X119588Y-50133D02*
X120047Y-51051D01*
X120965Y-51969D01*
X121883D01*
X122343Y-51510D01*
Y-50592D01*
X121883Y-50133D01*
X121424D01*
X120965Y-50592D01*
Y-51969D01*
X128510Y-78576D02*
Y-76740D01*
X128051Y-76280D01*
X127132D01*
X126673Y-76740D01*
Y-78576D01*
X127132Y-79035D01*
X128051D01*
X127592Y-78117D02*
X128510Y-79035D01*
X128051D02*
X128510Y-78576D01*
X131265Y-79035D02*
X129428D01*
X131265Y-77199D01*
Y-76740D01*
X130806Y-76280D01*
X129887D01*
X129428Y-76740D01*
X117388Y-61681D02*
X116929Y-61221D01*
X116010D01*
X115551Y-61681D01*
Y-63517D01*
X116010Y-63976D01*
X116929D01*
X117388Y-63517D01*
X120143Y-63976D02*
X118306D01*
X120143Y-62140D01*
Y-61681D01*
X119684Y-61221D01*
X118765D01*
X118306Y-61681D01*
X156659Y-28314D02*
X156200Y-27855D01*
X155282D01*
X154823Y-28314D01*
Y-30151D01*
X155282Y-30610D01*
X156200D01*
X156659Y-30151D01*
X159415Y-27855D02*
X157578D01*
Y-29233D01*
X158496Y-28774D01*
X158955D01*
X159415Y-29233D01*
Y-30151D01*
X158955Y-30610D01*
X158037D01*
X157578Y-30151D01*
X147539Y-9449D02*
X144784D01*
Y-8071D01*
X145244Y-7612D01*
X146162D01*
X146621Y-8071D01*
Y-9449D01*
Y-8530D02*
X147539Y-7612D01*
Y-6694D02*
Y-5776D01*
Y-6235D01*
X144784D01*
X145244Y-6694D01*
X144784Y-2561D02*
Y-4398D01*
X146162D01*
X145703Y-3480D01*
Y-3020D01*
X146162Y-2561D01*
X147080D01*
X147539Y-3020D01*
Y-3939D01*
X147080Y-4398D01*
X161909Y-16241D02*
Y-18537D01*
X162369Y-18996D01*
X163287D01*
X163746Y-18537D01*
Y-16241D01*
X166501Y-18996D02*
X164664D01*
X166501Y-17159D01*
Y-16700D01*
X166042Y-16241D01*
X165124D01*
X164664Y-16700D01*
X45177Y-32678D02*
Y-35433D01*
X47014D01*
X47932D02*
X48851D01*
X48391D01*
Y-32678D01*
X47932Y-33137D01*
X93209Y-53347D02*
Y-50591D01*
X94586D01*
X95045Y-51051D01*
Y-51969D01*
X94586Y-52428D01*
X93209D01*
X94127D02*
X95045Y-53347D01*
X95964D02*
X96882D01*
X96423D01*
Y-50591D01*
X95964Y-51051D01*
X100096Y-53347D02*
X98260D01*
X100096Y-51510D01*
Y-51051D01*
X99637Y-50591D01*
X98719D01*
X98260Y-51051D01*
M02*
