%FSLAX25Y25*%
%MOIN*%
G70*
G01*
G75*
G04 Layer_Color=16711935*
%ADD10R,0.02165X0.05906*%
%ADD11R,0.03543X0.03150*%
%ADD12R,0.01969X0.02362*%
%ADD13R,0.01969X0.01969*%
%ADD14R,0.18110X0.16929*%
%ADD15R,0.06299X0.07874*%
%ADD16R,0.07480X0.10236*%
%ADD17R,0.02953X0.07087*%
%ADD18R,0.02362X0.01969*%
%ADD19R,0.04724X0.02362*%
%ADD20R,0.07480X0.09350*%
%ADD21R,0.07480X0.04626*%
%ADD22R,0.07874X0.05807*%
%ADD23R,0.08268X0.05807*%
%ADD24R,0.05433X0.01772*%
%ADD25R,0.03543X0.03543*%
%ADD26R,0.08071X0.08071*%
%ADD27O,0.00787X0.03543*%
%ADD28O,0.03543X0.00787*%
%ADD29R,0.02165X0.03937*%
%ADD30R,0.00984X0.04331*%
%ADD31R,0.04500X0.04500*%
%ADD32R,0.03937X0.14961*%
%ADD33R,0.06693X0.04331*%
%ADD34R,0.03150X0.03543*%
%ADD35R,0.04331X0.06693*%
%ADD36R,0.04331X0.01575*%
%ADD37R,0.05118X0.02362*%
%ADD38R,0.05118X0.02756*%
%ADD39R,0.02756X0.03543*%
%ADD40R,0.02362X0.04528*%
%ADD41R,0.02559X0.04331*%
%ADD42R,0.22441X0.22441*%
%ADD43O,0.03543X0.00984*%
%ADD44O,0.00984X0.03543*%
%ADD45C,0.01181*%
%ADD46C,0.00984*%
%ADD47C,0.01969*%
%ADD48C,0.01575*%
%ADD49R,0.07480X0.06890*%
%ADD50R,0.13780X0.06496*%
G04:AMPARAMS|DCode=51|XSize=59.06mil|YSize=59.06mil|CornerRadius=0mil|HoleSize=0mil|Usage=FLASHONLY|Rotation=90.000|XOffset=0mil|YOffset=0mil|HoleType=Round|Shape=Octagon|*
%AMOCTAGOND51*
4,1,8,0.01476,0.02953,-0.01476,0.02953,-0.02953,0.01476,-0.02953,-0.01476,-0.01476,-0.02953,0.01476,-0.02953,0.02953,-0.01476,0.02953,0.01476,0.01476,0.02953,0.0*
%
%ADD51OCTAGOND51*%

%ADD52R,0.15748X0.07874*%
%ADD53C,0.03937*%
%ADD54R,0.09055X0.07087*%
%ADD55C,0.04724*%
%ADD56C,0.06693*%
%ADD57C,0.02756*%
%ADD58C,0.02441*%
%ADD59C,0.03543*%
%ADD60C,0.01969*%
%ADD61R,0.03150X0.05512*%
%ADD62R,0.06890X0.05906*%
%ADD63R,0.03937X0.05906*%
%ADD64C,0.00787*%
%ADD65C,0.00394*%
%ADD66C,0.00606*%
%ADD67C,0.01000*%
%ADD68C,0.00591*%
%ADD69R,0.02953X0.06693*%
%ADD70R,0.04331X0.03937*%
%ADD71R,0.02756X0.03150*%
%ADD72R,0.02756X0.02756*%
%ADD73R,0.18898X0.17716*%
%ADD74R,0.07087X0.08661*%
%ADD75R,0.08268X0.11024*%
%ADD76R,0.03740X0.07874*%
%ADD77R,0.03150X0.02756*%
%ADD78R,0.05512X0.03150*%
%ADD79R,0.08268X0.10138*%
%ADD80R,0.08268X0.05413*%
%ADD81R,0.08661X0.06594*%
%ADD82R,0.09055X0.06594*%
%ADD83R,0.06221X0.02559*%
%ADD84R,0.04331X0.04331*%
%ADD85R,0.08858X0.08858*%
%ADD86O,0.01575X0.04331*%
%ADD87O,0.04331X0.01575*%
%ADD88R,0.02953X0.04724*%
%ADD89R,0.01772X0.05118*%
%ADD90R,0.05287X0.05287*%
%ADD91R,0.04724X0.15748*%
%ADD92R,0.07480X0.05118*%
%ADD93R,0.03937X0.04331*%
%ADD94R,0.05118X0.07480*%
%ADD95R,0.05906X0.03150*%
%ADD96R,0.05906X0.03543*%
%ADD97R,0.03543X0.04331*%
%ADD98R,0.03150X0.05315*%
%ADD99R,0.03347X0.05118*%
%ADD100R,0.23228X0.23228*%
%ADD101O,0.04331X0.01772*%
%ADD102O,0.01772X0.04331*%
G04:AMPARAMS|DCode=103|XSize=66.93mil|YSize=66.93mil|CornerRadius=0mil|HoleSize=0mil|Usage=FLASHONLY|Rotation=90.000|XOffset=0mil|YOffset=0mil|HoleType=Round|Shape=Octagon|*
%AMOCTAGOND103*
4,1,8,0.01673,0.03347,-0.01673,0.03347,-0.03347,0.01673,-0.03347,-0.01673,-0.01673,-0.03347,0.01673,-0.03347,0.03347,-0.01673,0.03347,0.01673,0.01673,0.03347,0.0*
%
%ADD103OCTAGOND103*%

%ADD104R,0.16535X0.08661*%
%ADD105R,0.09843X0.07874*%
%ADD106C,0.05512*%
%ADD107C,0.07480*%
%ADD108R,0.03937X0.06299*%
%ADD109R,0.07677X0.06693*%
%ADD110R,0.04724X0.06693*%
D45*
X162500Y-57284D02*
X165256Y-54921D01*
X163681Y-53740D02*
X165256Y-54921D01*
X162500Y-57284D02*
X163681Y-53740D01*
X162500Y-57284D02*
X164075Y-54921D01*
X164469Y-62795D02*
X167224Y-60433D01*
X165650Y-59252D02*
X167224Y-60433D01*
X164469Y-62795D02*
X165650Y-59252D01*
X164469Y-62795D02*
X166043Y-60433D01*
D46*
X143209Y-84449D02*
Y-63976D01*
Y-84449D02*
X162894D01*
Y-63976D01*
X143209D02*
X162894D01*
X151476Y-74213D02*
X156201D01*
Y-80118D02*
Y-74213D01*
X151476Y-80118D02*
X156201D01*
X151476D02*
Y-74213D01*
Y-76575D02*
X153051D01*
Y-74213D01*
X144783D02*
X149508D01*
Y-80118D02*
Y-74213D01*
X144783Y-80118D02*
X149508D01*
X144783D02*
Y-74213D01*
Y-76575D02*
X146358D01*
Y-74213D01*
X151476Y-66339D02*
X156201D01*
Y-72244D02*
Y-66339D01*
X151476Y-72244D02*
X156201D01*
X151476D02*
Y-66339D01*
Y-68701D02*
X153051D01*
Y-66339D01*
X146358Y-68701D02*
Y-66339D01*
X144783Y-68701D02*
X146358D01*
X144783Y-72244D02*
Y-66339D01*
Y-72244D02*
X149508D01*
Y-66339D01*
X144783D02*
X149508D01*
D48*
X161319Y-88386D02*
Y-84842D01*
X158012Y-88386D02*
Y-84842D01*
X154705Y-88386D02*
Y-84842D01*
X151398Y-88386D02*
Y-84842D01*
X148091Y-88386D02*
Y-84842D01*
X144783Y-88386D02*
Y-84842D01*
X163287Y-82480D02*
X166831D01*
X163287Y-79173D02*
X166831D01*
X163287Y-75866D02*
X166831D01*
X163287Y-72559D02*
X166831D01*
X163287Y-69252D02*
X166831D01*
X163287Y-65945D02*
X166831D01*
X139272Y-82480D02*
X142815D01*
X139272Y-79173D02*
X142815D01*
X139272Y-75866D02*
X142815D01*
X139272Y-72559D02*
X142815D01*
X139272Y-69252D02*
X142815D01*
X139272Y-65945D02*
X142815D01*
X161319Y-63583D02*
Y-60039D01*
X158012Y-63583D02*
Y-60039D01*
X154705Y-63583D02*
Y-60039D01*
X151398Y-63583D02*
Y-60039D01*
X148091Y-63583D02*
Y-60039D01*
X144783Y-63583D02*
Y-60039D01*
D55*
X65551Y-30709D02*
D03*
X54331Y-33169D02*
D03*
D67*
X168403Y-50584D02*
G03*
X173559Y-44281I-3841J8402D01*
G01*
X168403Y-50584D02*
G03*
X163681Y-55709I2627J-7159D01*
G01*
X170372Y-56096D02*
G03*
X175528Y-49793I-3841J8402D01*
G01*
X170372Y-56096D02*
G03*
X165650Y-61221I2627J-7159D01*
G01*
D70*
X27854Y-63976D02*
D03*
Y-58465D02*
D03*
X58268Y-57284D02*
D03*
Y-51772D02*
D03*
D71*
X78642Y-38760D02*
D03*
Y-34468D02*
D03*
D77*
X21732Y-55709D02*
D03*
X17441D02*
D03*
D93*
X18110Y-36319D02*
D03*
X23622D02*
D03*
D103*
X21654Y-62795D02*
D03*
X13878Y-62697D02*
D03*
D104*
X96260Y-79921D02*
D03*
D105*
X5709Y-62303D02*
D03*
D106*
X113091Y-50886D02*
D03*
X113681Y-45571D02*
D03*
D107*
X172835Y-86122D02*
D03*
X163287Y-4921D02*
D03*
D108*
X55413Y-39272D02*
D03*
X64075D02*
D03*
D109*
X5020Y-42520D02*
D03*
X19783D02*
D03*
D110*
X58858Y-6496D02*
D03*
Y-30118D02*
D03*
X73425D02*
D03*
Y-6496D02*
D03*
X7185D02*
D03*
Y-30118D02*
D03*
X21752D02*
D03*
Y-6496D02*
D03*
X33022D02*
D03*
Y-30118D02*
D03*
X47589D02*
D03*
Y-6496D02*
D03*
M02*
