G04 Layer_Color=32896*
%FSLAX25Y25*%
%MOIN*%
G70*
G01*
G75*
%ADD17C,0.00787*%
%ADD18C,0.00591*%
D17*
X18307Y-394D02*
Y2756D01*
X24213Y-394D02*
Y2756D01*
X-15945Y-787D02*
Y2362D01*
X-21850Y-787D02*
Y2362D01*
X-492Y-394D02*
Y2756D01*
X5413Y-394D02*
Y2756D01*
X8907Y-394D02*
Y2756D01*
X14813Y-394D02*
Y2756D01*
X-5906Y-591D02*
Y2559D01*
X-11811Y-591D02*
Y2559D01*
X-5413Y21063D02*
X-2264D01*
X-5413Y15157D02*
X-2264D01*
D18*
X2558Y12776D02*
X3050Y13268D01*
X4034D01*
X4526Y12776D01*
Y10808D01*
X4034Y10317D01*
X3050D01*
X2558Y10808D01*
X1574Y10317D02*
X590D01*
X1082D01*
Y13268D01*
X1574Y12776D01*
X-886D02*
X-1378Y13268D01*
X-2362D01*
X-2853Y12776D01*
Y10808D01*
X-2362Y10317D01*
X-1378D01*
X-886Y10808D01*
Y12776D01*
X11609Y12817D02*
X12101Y13309D01*
X13085D01*
X13577Y12817D01*
Y10849D01*
X13085Y10357D01*
X12101D01*
X11609Y10849D01*
X10625Y10357D02*
X9641D01*
X10133D01*
Y13309D01*
X10625Y12817D01*
X8165Y10357D02*
X7181D01*
X7673D01*
Y13309D01*
X8165Y12817D01*
X22627Y12786D02*
X23119Y13278D01*
X24103D01*
X24595Y12786D01*
Y10818D01*
X24103Y10326D01*
X23119D01*
X22627Y10818D01*
X21644Y10326D02*
X20660D01*
X21151D01*
Y13278D01*
X21644Y12786D01*
X17216Y10326D02*
X19184D01*
X17216Y12294D01*
Y12786D01*
X17708Y13278D01*
X18692D01*
X19184Y12786D01*
X-7476Y12675D02*
X-6984Y13168D01*
X-6001D01*
X-5509Y12675D01*
Y10708D01*
X-6001Y10216D01*
X-6984D01*
X-7476Y10708D01*
X-8460Y10216D02*
X-9444D01*
X-8952D01*
Y13168D01*
X-8460Y12675D01*
X-10920D02*
X-11412Y13168D01*
X-12396D01*
X-12888Y12675D01*
Y12184D01*
X-12396Y11692D01*
X-11904D01*
X-12396D01*
X-12888Y11200D01*
Y10708D01*
X-12396Y10216D01*
X-11412D01*
X-10920Y10708D01*
X-17511Y12476D02*
X-17019Y12968D01*
X-16035D01*
X-15543Y12476D01*
Y10508D01*
X-16035Y10016D01*
X-17019D01*
X-17511Y10508D01*
X-18495Y10016D02*
X-19479D01*
X-18987D01*
Y12968D01*
X-18495Y12476D01*
X-22431Y10016D02*
Y12968D01*
X-20955Y11492D01*
X-22923D01*
X-2263Y26476D02*
X-1771Y26968D01*
X-787D01*
X-295Y26476D01*
Y24508D01*
X-787Y24016D01*
X-1771D01*
X-2263Y24508D01*
X-3247Y24016D02*
X-4231D01*
X-3739D01*
Y26968D01*
X-3247Y26476D01*
X-7675Y26968D02*
X-5707D01*
Y25492D01*
X-6691Y25984D01*
X-7183D01*
X-7675Y25492D01*
Y24508D01*
X-7183Y24016D01*
X-6199D01*
X-5707Y24508D01*
M02*
