G04 Layer_Physical_Order=2*
G04 Layer_Color=16711680*
%FSLAX25Y25*%
%MOIN*%
G70*
G01*
G75*
G04:AMPARAMS|DCode=10|XSize=66.93mil|YSize=43.31mil|CornerRadius=10.83mil|HoleSize=0mil|Usage=FLASHONLY|Rotation=180.000|XOffset=0mil|YOffset=0mil|HoleType=Round|Shape=RoundedRectangle|*
%AMROUNDEDRECTD10*
21,1,0.06693,0.02165,0,0,180.0*
21,1,0.04528,0.04331,0,0,180.0*
1,1,0.02165,-0.02264,0.01083*
1,1,0.02165,0.02264,0.01083*
1,1,0.02165,0.02264,-0.01083*
1,1,0.02165,-0.02264,-0.01083*
%
%ADD10ROUNDEDRECTD10*%
%ADD11C,0.01575*%
%ADD12C,0.07874*%
G04:AMPARAMS|DCode=13|XSize=78.74mil|YSize=78.74mil|CornerRadius=19.69mil|HoleSize=0mil|Usage=FLASHONLY|Rotation=180.000|XOffset=0mil|YOffset=0mil|HoleType=Round|Shape=RoundedRectangle|*
%AMROUNDEDRECTD13*
21,1,0.07874,0.03937,0,0,180.0*
21,1,0.03937,0.07874,0,0,180.0*
1,1,0.03937,-0.01969,0.01969*
1,1,0.03937,0.01969,0.01969*
1,1,0.03937,0.01969,-0.01969*
1,1,0.03937,-0.01969,-0.01969*
%
%ADD13ROUNDEDRECTD13*%
%ADD14C,0.03937*%
G04:AMPARAMS|DCode=15|XSize=66.93mil|YSize=43.31mil|CornerRadius=10.83mil|HoleSize=0mil|Usage=FLASHONLY|Rotation=90.000|XOffset=0mil|YOffset=0mil|HoleType=Round|Shape=RoundedRectangle|*
%AMROUNDEDRECTD15*
21,1,0.06693,0.02165,0,0,90.0*
21,1,0.04528,0.04331,0,0,90.0*
1,1,0.02165,0.01083,0.02264*
1,1,0.02165,0.01083,-0.02264*
1,1,0.02165,-0.01083,-0.02264*
1,1,0.02165,-0.01083,0.02264*
%
%ADD15ROUNDEDRECTD15*%
D10*
X21260Y6496D02*
D03*
Y-4134D02*
D03*
X-18898Y-4528D02*
D03*
Y6102D02*
D03*
X2461Y6496D02*
D03*
Y-4134D02*
D03*
X11860Y6496D02*
D03*
Y-4134D02*
D03*
X-8858Y-4331D02*
D03*
Y6299D02*
D03*
D11*
X-18504Y6496D02*
X2461D01*
X30894D02*
X36042Y11644D01*
X2461Y6496D02*
X11860D01*
X21260D01*
X30894D01*
X2461Y-4134D02*
X11860D01*
X21260D01*
Y-9646D02*
Y-4134D01*
X-18898Y6102D02*
X-18504Y6496D01*
X-18898Y-4528D02*
X-9055D01*
X-8858Y-4331D01*
X-18898Y-27304D02*
Y-4528D01*
X-22434Y-30841D02*
X-18898Y-27304D01*
X8597Y30644D02*
X22237D01*
X1476Y23524D02*
X8597Y30644D01*
X1476Y18110D02*
Y23524D01*
X-19783Y18110D02*
X-9154D01*
X-27854Y10039D02*
X-19783Y18110D01*
X-27854Y98D02*
Y10039D01*
Y98D02*
X-23228Y-4528D01*
X-18898D01*
D12*
X14902Y18209D02*
D03*
X-98Y37902D02*
D03*
X22237Y30644D02*
D03*
X36042Y11644D02*
D03*
Y-11841D02*
D03*
X22237Y-30841D02*
D03*
X-98Y-38098D02*
D03*
X-22434Y-30841D02*
D03*
X-36239Y-11841D02*
D03*
Y11644D02*
D03*
X-22434Y30644D02*
D03*
D13*
X24902Y18209D02*
D03*
D14*
X21260Y-9646D02*
D03*
D15*
X1476Y18110D02*
D03*
X-9154D02*
D03*
M02*
