G04 Layer_Physical_Order=1*
G04 Layer_Color=255*
%FSLAX25Y25*%
%MOIN*%
G70*
G01*
G75*
G04:AMPARAMS|DCode=10|XSize=66.93mil|YSize=43.31mil|CornerRadius=10.83mil|HoleSize=0mil|Usage=FLASHONLY|Rotation=180.000|XOffset=0mil|YOffset=0mil|HoleType=Round|Shape=RoundedRectangle|*
%AMROUNDEDRECTD10*
21,1,0.06693,0.02165,0,0,180.0*
21,1,0.04528,0.04331,0,0,180.0*
1,1,0.02165,-0.02264,0.01083*
1,1,0.02165,0.02264,0.01083*
1,1,0.02165,0.02264,-0.01083*
1,1,0.02165,-0.02264,-0.01083*
%
%ADD10ROUNDEDRECTD10*%
%ADD11C,0.01575*%
%ADD12C,0.07874*%
G04:AMPARAMS|DCode=13|XSize=78.74mil|YSize=78.74mil|CornerRadius=19.69mil|HoleSize=0mil|Usage=FLASHONLY|Rotation=180.000|XOffset=0mil|YOffset=0mil|HoleType=Round|Shape=RoundedRectangle|*
%AMROUNDEDRECTD13*
21,1,0.07874,0.03937,0,0,180.0*
21,1,0.03937,0.07874,0,0,180.0*
1,1,0.03937,-0.01969,0.01969*
1,1,0.03937,0.01969,0.01969*
1,1,0.03937,0.01969,-0.01969*
1,1,0.03937,-0.01969,-0.01969*
%
%ADD13ROUNDEDRECTD13*%
%ADD14C,0.03937*%
D10*
X8661Y-1870D02*
D03*
Y8760D02*
D03*
X-49Y-1870D02*
D03*
Y8760D02*
D03*
X-8760Y-1870D02*
D03*
Y8760D02*
D03*
X-17470Y-1870D02*
D03*
Y8760D02*
D03*
X-26181Y-1870D02*
D03*
Y8760D02*
D03*
X-20669Y-19882D02*
D03*
Y-9252D02*
D03*
X-10925Y-19882D02*
D03*
Y-9252D02*
D03*
X-1181Y-19882D02*
D03*
Y-9252D02*
D03*
X8563Y-19882D02*
D03*
Y-9252D02*
D03*
X17618Y-1969D02*
D03*
Y8661D02*
D03*
D11*
X8661Y-1870D02*
X26071D01*
X-8760Y8760D02*
X-49D01*
X8661D01*
X15453D01*
X-26181Y-1870D02*
X-17470D01*
X-8760D02*
X-49D01*
X8661D01*
X26071D02*
X36042Y-11841D01*
X-17470Y-1870D02*
X-8760D01*
X-26181Y8760D02*
X-17470D01*
X-8760D01*
X-20669Y-9252D02*
X-10925D01*
X-1181D01*
X8563D01*
Y-1969D01*
X8661Y-1870D01*
X-20669Y-19882D02*
X-10925D01*
X-1181D01*
X8563D01*
X-98Y-38098D02*
Y-20965D01*
X-1181Y-19882D02*
X-98Y-20965D01*
X11024Y-19882D02*
X21260Y-9646D01*
X8563Y-19882D02*
X11024D01*
X15453Y8760D02*
X24902Y18209D01*
D12*
X14902D02*
D03*
X-98Y37902D02*
D03*
X22237Y30644D02*
D03*
X36042Y11644D02*
D03*
Y-11841D02*
D03*
X22237Y-30841D02*
D03*
X-98Y-38098D02*
D03*
X-22434Y-30841D02*
D03*
X-36239Y-11841D02*
D03*
Y11644D02*
D03*
X-22434Y30644D02*
D03*
D13*
X24902Y18209D02*
D03*
D14*
X21260Y-9646D02*
D03*
M02*
