G04 Layer_Color=65535*
%FSLAX25Y25*%
%MOIN*%
G70*
G01*
G75*
%ADD16C,0.01000*%
%ADD17C,0.00787*%
%ADD18C,0.00591*%
G36*
X-12070Y20669D02*
X-12560D01*
Y23885D01*
X-13684Y20669D01*
X-14141D01*
X-15248Y23939D01*
Y20669D01*
X-15739D01*
Y24509D01*
X-14977D01*
X-14066Y21788D01*
Y21784D01*
X-14062Y21772D01*
X-14054Y21751D01*
X-14045Y21726D01*
X-14037Y21697D01*
X-14025Y21659D01*
X-13996Y21576D01*
X-13966Y21485D01*
X-13937Y21389D01*
X-13908Y21302D01*
X-13896Y21260D01*
X-13883Y21223D01*
Y21227D01*
X-13879Y21231D01*
X-13875Y21243D01*
X-13871Y21260D01*
X-13862Y21285D01*
X-13854Y21310D01*
X-13846Y21343D01*
X-13833Y21376D01*
X-13821Y21418D01*
X-13804Y21464D01*
X-13788Y21514D01*
X-13771Y21572D01*
X-13750Y21630D01*
X-13729Y21697D01*
X-13704Y21763D01*
X-13679Y21838D01*
X-12756Y24509D01*
X-12070D01*
Y20669D01*
D02*
G37*
G36*
X-6112D02*
X-6603D01*
Y23885D01*
X-7726Y20669D01*
X-8184D01*
X-9291Y23939D01*
Y20669D01*
X-9781D01*
Y24509D01*
X-9020D01*
X-8109Y21788D01*
Y21784D01*
X-8105Y21772D01*
X-8097Y21751D01*
X-8088Y21726D01*
X-8080Y21697D01*
X-8068Y21659D01*
X-8038Y21576D01*
X-8009Y21485D01*
X-7980Y21389D01*
X-7951Y21302D01*
X-7939Y21260D01*
X-7926Y21223D01*
Y21227D01*
X-7922Y21231D01*
X-7918Y21243D01*
X-7914Y21260D01*
X-7905Y21285D01*
X-7897Y21310D01*
X-7889Y21343D01*
X-7876Y21376D01*
X-7864Y21418D01*
X-7847Y21464D01*
X-7830Y21514D01*
X-7814Y21572D01*
X-7793Y21630D01*
X-7772Y21697D01*
X-7747Y21763D01*
X-7722Y21838D01*
X-6799Y24509D01*
X-6112D01*
Y20669D01*
D02*
G37*
G36*
X5340Y24517D02*
X5369Y24513D01*
X5448Y24505D01*
X5536Y24488D01*
X5635Y24463D01*
X5735Y24430D01*
X5835Y24384D01*
X5839D01*
X5848Y24380D01*
X5860Y24372D01*
X5881Y24359D01*
X5927Y24330D01*
X5985Y24288D01*
X6052Y24234D01*
X6118Y24172D01*
X6185Y24101D01*
X6243Y24018D01*
Y24014D01*
X6247Y24010D01*
X6255Y23993D01*
X6264Y23977D01*
X6276Y23956D01*
X6289Y23931D01*
X6314Y23868D01*
X6339Y23794D01*
X6363Y23710D01*
X6380Y23619D01*
X6384Y23523D01*
Y23519D01*
Y23511D01*
Y23498D01*
Y23482D01*
X6376Y23431D01*
X6368Y23373D01*
X6351Y23303D01*
X6326Y23228D01*
X6293Y23149D01*
X6247Y23070D01*
Y23065D01*
X6243Y23061D01*
X6222Y23036D01*
X6193Y22999D01*
X6147Y22953D01*
X6093Y22899D01*
X6022Y22845D01*
X5943Y22795D01*
X5852Y22745D01*
X5856D01*
X5868Y22741D01*
X5885Y22737D01*
X5910Y22728D01*
X5935Y22720D01*
X5968Y22708D01*
X6047Y22674D01*
X6131Y22629D01*
X6218Y22575D01*
X6305Y22504D01*
X6380Y22416D01*
X6384Y22412D01*
X6388Y22404D01*
X6397Y22391D01*
X6409Y22371D01*
X6426Y22350D01*
X6442Y22321D01*
X6459Y22287D01*
X6476Y22246D01*
X6492Y22204D01*
X6509Y22159D01*
X6542Y22055D01*
X6563Y21934D01*
X6572Y21867D01*
Y21801D01*
Y21797D01*
Y21780D01*
X6567Y21751D01*
Y21718D01*
X6559Y21672D01*
X6551Y21622D01*
X6542Y21568D01*
X6526Y21505D01*
X6505Y21439D01*
X6480Y21372D01*
X6451Y21302D01*
X6413Y21231D01*
X6372Y21156D01*
X6322Y21085D01*
X6268Y21015D01*
X6201Y20948D01*
X6197Y20944D01*
X6185Y20931D01*
X6164Y20915D01*
X6135Y20894D01*
X6101Y20869D01*
X6056Y20840D01*
X6006Y20807D01*
X5948Y20777D01*
X5885Y20744D01*
X5814Y20711D01*
X5740Y20682D01*
X5656Y20657D01*
X5569Y20636D01*
X5477Y20619D01*
X5382Y20607D01*
X5278Y20603D01*
X5257D01*
X5228Y20607D01*
X5195D01*
X5149Y20611D01*
X5099Y20619D01*
X5045Y20628D01*
X4982Y20640D01*
X4916Y20657D01*
X4849Y20678D01*
X4778Y20698D01*
X4708Y20728D01*
X4637Y20765D01*
X4571Y20802D01*
X4500Y20848D01*
X4437Y20902D01*
X4433Y20906D01*
X4425Y20915D01*
X4408Y20931D01*
X4383Y20956D01*
X4358Y20986D01*
X4329Y21023D01*
X4300Y21065D01*
X4267Y21114D01*
X4234Y21164D01*
X4200Y21227D01*
X4167Y21289D01*
X4138Y21360D01*
X4113Y21435D01*
X4088Y21514D01*
X4071Y21597D01*
X4059Y21684D01*
X4529Y21747D01*
Y21743D01*
X4533Y21730D01*
X4537Y21709D01*
X4546Y21680D01*
X4554Y21647D01*
X4562Y21610D01*
X4591Y21522D01*
X4629Y21426D01*
X4674Y21331D01*
X4733Y21243D01*
X4766Y21206D01*
X4799Y21169D01*
X4803D01*
X4808Y21160D01*
X4820Y21152D01*
X4833Y21139D01*
X4874Y21114D01*
X4932Y21081D01*
X5003Y21048D01*
X5082Y21023D01*
X5178Y21002D01*
X5278Y20994D01*
X5311D01*
X5336Y20998D01*
X5361Y21002D01*
X5398Y21006D01*
X5473Y21023D01*
X5565Y21048D01*
X5660Y21089D01*
X5706Y21119D01*
X5752Y21148D01*
X5798Y21181D01*
X5844Y21223D01*
X5848Y21227D01*
X5852Y21235D01*
X5864Y21248D01*
X5881Y21264D01*
X5897Y21285D01*
X5914Y21314D01*
X5935Y21343D01*
X5960Y21381D01*
X6002Y21464D01*
X6035Y21560D01*
X6064Y21672D01*
X6068Y21730D01*
X6072Y21792D01*
Y21797D01*
Y21805D01*
Y21826D01*
X6068Y21847D01*
X6064Y21876D01*
X6060Y21905D01*
X6047Y21980D01*
X6018Y22067D01*
X5981Y22154D01*
X5956Y22200D01*
X5927Y22242D01*
X5893Y22283D01*
X5856Y22325D01*
X5852Y22329D01*
X5848Y22333D01*
X5835Y22346D01*
X5818Y22358D01*
X5798Y22375D01*
X5773Y22391D01*
X5710Y22433D01*
X5631Y22471D01*
X5540Y22504D01*
X5436Y22529D01*
X5378Y22533D01*
X5319Y22537D01*
X5294D01*
X5265Y22533D01*
X5228D01*
X5178Y22525D01*
X5124Y22516D01*
X5057Y22504D01*
X4986Y22487D01*
X5036Y22899D01*
X5045D01*
X5066Y22895D01*
X5091Y22891D01*
X5145D01*
X5165Y22895D01*
X5195D01*
X5224Y22899D01*
X5294Y22911D01*
X5378Y22928D01*
X5469Y22957D01*
X5565Y22995D01*
X5656Y23049D01*
X5660D01*
X5669Y23057D01*
X5677Y23065D01*
X5694Y23078D01*
X5735Y23115D01*
X5781Y23169D01*
X5823Y23236D01*
X5864Y23319D01*
X5881Y23365D01*
X5889Y23419D01*
X5897Y23473D01*
X5902Y23531D01*
Y23536D01*
Y23544D01*
Y23556D01*
X5897Y23577D01*
X5893Y23623D01*
X5881Y23685D01*
X5860Y23752D01*
X5827Y23823D01*
X5781Y23898D01*
X5756Y23931D01*
X5723Y23964D01*
X5714Y23972D01*
X5689Y23989D01*
X5652Y24018D01*
X5602Y24051D01*
X5536Y24081D01*
X5457Y24110D01*
X5369Y24126D01*
X5269Y24135D01*
X5244D01*
X5224Y24130D01*
X5199D01*
X5174Y24126D01*
X5107Y24114D01*
X5036Y24093D01*
X4957Y24060D01*
X4882Y24018D01*
X4808Y23960D01*
X4799Y23952D01*
X4778Y23927D01*
X4745Y23889D01*
X4712Y23831D01*
X4670Y23760D01*
X4633Y23669D01*
X4600Y23565D01*
X4575Y23444D01*
X4105Y23527D01*
Y23531D01*
X4109Y23548D01*
X4113Y23573D01*
X4121Y23606D01*
X4134Y23644D01*
X4146Y23689D01*
X4163Y23739D01*
X4184Y23794D01*
X4238Y23914D01*
X4267Y23972D01*
X4304Y24035D01*
X4346Y24093D01*
X4392Y24151D01*
X4442Y24209D01*
X4496Y24259D01*
X4500Y24263D01*
X4508Y24272D01*
X4529Y24284D01*
X4550Y24301D01*
X4583Y24322D01*
X4616Y24343D01*
X4658Y24367D01*
X4708Y24393D01*
X4758Y24413D01*
X4816Y24438D01*
X4878Y24459D01*
X4945Y24480D01*
X5020Y24497D01*
X5095Y24509D01*
X5174Y24517D01*
X5257Y24521D01*
X5311D01*
X5340Y24517D01*
D02*
G37*
G36*
X-4174Y23511D02*
X-4132D01*
X-4082Y23502D01*
X-4028Y23494D01*
X-3966Y23482D01*
X-3895Y23469D01*
X-3824Y23448D01*
X-3745Y23423D01*
X-3670Y23390D01*
X-3591Y23357D01*
X-3512Y23311D01*
X-3438Y23261D01*
X-3363Y23203D01*
X-3292Y23136D01*
X-3288Y23132D01*
X-3275Y23120D01*
X-3259Y23099D01*
X-3234Y23065D01*
X-3209Y23028D01*
X-3175Y22982D01*
X-3142Y22928D01*
X-3109Y22866D01*
X-3076Y22795D01*
X-3042Y22716D01*
X-3009Y22633D01*
X-2984Y22541D01*
X-2959Y22442D01*
X-2942Y22333D01*
X-2930Y22217D01*
X-2926Y22096D01*
Y22092D01*
Y22071D01*
Y22046D01*
X-2930Y22009D01*
Y21963D01*
X-2934Y21909D01*
X-2938Y21851D01*
X-2947Y21788D01*
X-2963Y21655D01*
X-2992Y21514D01*
X-3034Y21376D01*
X-3059Y21314D01*
X-3088Y21252D01*
Y21248D01*
X-3096Y21239D01*
X-3105Y21223D01*
X-3117Y21202D01*
X-3134Y21177D01*
X-3155Y21144D01*
X-3209Y21077D01*
X-3275Y20998D01*
X-3354Y20919D01*
X-3450Y20844D01*
X-3558Y20773D01*
X-3562D01*
X-3571Y20765D01*
X-3587Y20757D01*
X-3612Y20748D01*
X-3641Y20736D01*
X-3675Y20719D01*
X-3712Y20707D01*
X-3758Y20690D01*
X-3804Y20673D01*
X-3858Y20661D01*
X-3970Y20632D01*
X-4095Y20615D01*
X-4228Y20607D01*
X-4253D01*
X-4282Y20611D01*
X-4324D01*
X-4374Y20619D01*
X-4432Y20628D01*
X-4494Y20640D01*
X-4565Y20653D01*
X-4640Y20673D01*
X-4715Y20698D01*
X-4794Y20728D01*
X-4873Y20765D01*
X-4952Y20807D01*
X-5027Y20856D01*
X-5102Y20915D01*
X-5172Y20981D01*
X-5176Y20986D01*
X-5189Y20998D01*
X-5206Y21019D01*
X-5226Y21052D01*
X-5255Y21089D01*
X-5285Y21135D01*
X-5318Y21193D01*
X-5351Y21256D01*
X-5384Y21331D01*
X-5418Y21410D01*
X-5447Y21497D01*
X-5476Y21593D01*
X-5497Y21697D01*
X-5513Y21809D01*
X-5526Y21930D01*
X-5530Y22059D01*
Y22063D01*
Y22067D01*
Y22092D01*
X-5526Y22134D01*
X-5522Y22184D01*
X-5517Y22250D01*
X-5509Y22325D01*
X-5492Y22404D01*
X-5476Y22491D01*
X-5455Y22583D01*
X-5426Y22679D01*
X-5389Y22774D01*
X-5351Y22870D01*
X-5301Y22961D01*
X-5243Y23049D01*
X-5176Y23128D01*
X-5102Y23203D01*
X-5097Y23207D01*
X-5085Y23215D01*
X-5064Y23232D01*
X-5039Y23253D01*
X-5002Y23273D01*
X-4960Y23303D01*
X-4914Y23332D01*
X-4856Y23361D01*
X-4798Y23390D01*
X-4731Y23415D01*
X-4660Y23444D01*
X-4581Y23465D01*
X-4498Y23486D01*
X-4415Y23502D01*
X-4324Y23511D01*
X-4228Y23515D01*
X-4203D01*
X-4174Y23511D01*
D02*
G37*
G36*
X3842Y20669D02*
X3264D01*
X2819Y21830D01*
X1205D01*
X789Y20669D01*
X252D01*
X1721Y24509D01*
X2270D01*
X3842Y20669D01*
D02*
G37*
G36*
X-16567Y22292D02*
Y22283D01*
Y22267D01*
Y22238D01*
Y22196D01*
X-16571Y22146D01*
X-16575Y22092D01*
X-16579Y22030D01*
X-16583Y21959D01*
X-16600Y21813D01*
X-16621Y21659D01*
X-16654Y21510D01*
X-16675Y21439D01*
X-16700Y21372D01*
Y21368D01*
X-16704Y21356D01*
X-16712Y21339D01*
X-16725Y21314D01*
X-16741Y21285D01*
X-16758Y21252D01*
X-16808Y21177D01*
X-16837Y21131D01*
X-16870Y21089D01*
X-16912Y21039D01*
X-16953Y20994D01*
X-17003Y20948D01*
X-17053Y20902D01*
X-17111Y20861D01*
X-17174Y20819D01*
X-17178Y20815D01*
X-17190Y20811D01*
X-17207Y20798D01*
X-17236Y20786D01*
X-17269Y20769D01*
X-17311Y20752D01*
X-17357Y20732D01*
X-17415Y20715D01*
X-17473Y20694D01*
X-17540Y20673D01*
X-17615Y20657D01*
X-17694Y20640D01*
X-17781Y20628D01*
X-17873Y20615D01*
X-17968Y20611D01*
X-18068Y20607D01*
X-18122D01*
X-18160Y20611D01*
X-18205D01*
X-18255Y20615D01*
X-18318Y20624D01*
X-18380Y20632D01*
X-18522Y20653D01*
X-18671Y20686D01*
X-18817Y20732D01*
X-18888Y20757D01*
X-18954Y20790D01*
X-18958Y20794D01*
X-18971Y20798D01*
X-18988Y20811D01*
X-19008Y20823D01*
X-19038Y20844D01*
X-19071Y20869D01*
X-19104Y20894D01*
X-19141Y20927D01*
X-19225Y21002D01*
X-19304Y21094D01*
X-19379Y21202D01*
X-19412Y21264D01*
X-19441Y21327D01*
Y21331D01*
X-19445Y21343D01*
X-19454Y21364D01*
X-19462Y21393D01*
X-19474Y21426D01*
X-19487Y21472D01*
X-19499Y21522D01*
X-19512Y21580D01*
X-19528Y21647D01*
X-19541Y21718D01*
X-19553Y21797D01*
X-19562Y21884D01*
X-19574Y21975D01*
X-19578Y22075D01*
X-19587Y22179D01*
Y22292D01*
Y24509D01*
X-19079D01*
Y22292D01*
Y22287D01*
Y22271D01*
Y22246D01*
Y22208D01*
X-19075Y22167D01*
Y22121D01*
X-19071Y22067D01*
X-19067Y22013D01*
X-19058Y21892D01*
X-19042Y21772D01*
X-19017Y21655D01*
X-19004Y21601D01*
X-18988Y21555D01*
Y21551D01*
X-18983Y21547D01*
X-18979Y21535D01*
X-18971Y21518D01*
X-18946Y21472D01*
X-18913Y21422D01*
X-18871Y21360D01*
X-18817Y21302D01*
X-18751Y21243D01*
X-18671Y21189D01*
X-18667D01*
X-18659Y21185D01*
X-18646Y21177D01*
X-18630Y21169D01*
X-18609Y21160D01*
X-18580Y21152D01*
X-18551Y21139D01*
X-18518Y21127D01*
X-18434Y21106D01*
X-18339Y21085D01*
X-18230Y21069D01*
X-18114Y21065D01*
X-18060D01*
X-18022Y21069D01*
X-17977Y21073D01*
X-17923Y21077D01*
X-17864Y21085D01*
X-17802Y21098D01*
X-17673Y21127D01*
X-17606Y21148D01*
X-17540Y21173D01*
X-17478Y21202D01*
X-17419Y21235D01*
X-17365Y21272D01*
X-17315Y21318D01*
X-17311Y21322D01*
X-17303Y21331D01*
X-17294Y21347D01*
X-17278Y21368D01*
X-17261Y21397D01*
X-17240Y21435D01*
X-17215Y21481D01*
X-17195Y21535D01*
X-17174Y21597D01*
X-17149Y21668D01*
X-17128Y21747D01*
X-17111Y21834D01*
X-17095Y21934D01*
X-17082Y22042D01*
X-17078Y22163D01*
X-17074Y22292D01*
Y24509D01*
X-16567D01*
Y22292D01*
D02*
G37*
G36*
X-134Y20669D02*
X-571D01*
Y21019D01*
X-575Y21015D01*
X-584Y21002D01*
X-600Y20981D01*
X-621Y20956D01*
X-650Y20923D01*
X-684Y20890D01*
X-721Y20852D01*
X-767Y20815D01*
X-821Y20773D01*
X-879Y20736D01*
X-941Y20703D01*
X-1012Y20673D01*
X-1091Y20644D01*
X-1170Y20624D01*
X-1258Y20611D01*
X-1353Y20607D01*
X-1387D01*
X-1412Y20611D01*
X-1441D01*
X-1474Y20615D01*
X-1511Y20624D01*
X-1553Y20632D01*
X-1649Y20653D01*
X-1753Y20686D01*
X-1857Y20732D01*
X-1911Y20757D01*
X-1965Y20790D01*
X-1969Y20794D01*
X-1977Y20798D01*
X-1990Y20811D01*
X-2011Y20823D01*
X-2036Y20844D01*
X-2060Y20865D01*
X-2123Y20923D01*
X-2194Y20994D01*
X-2264Y21081D01*
X-2335Y21185D01*
X-2397Y21302D01*
Y21306D01*
X-2406Y21318D01*
X-2410Y21335D01*
X-2422Y21360D01*
X-2431Y21389D01*
X-2443Y21426D01*
X-2460Y21472D01*
X-2472Y21518D01*
X-2485Y21572D01*
X-2502Y21630D01*
X-2514Y21693D01*
X-2522Y21759D01*
X-2539Y21901D01*
X-2547Y22055D01*
Y22059D01*
Y22075D01*
Y22096D01*
X-2543Y22125D01*
Y22163D01*
X-2539Y22204D01*
X-2535Y22254D01*
X-2531Y22308D01*
X-2514Y22425D01*
X-2489Y22550D01*
X-2456Y22683D01*
X-2410Y22812D01*
Y22816D01*
X-2402Y22828D01*
X-2393Y22845D01*
X-2385Y22870D01*
X-2368Y22895D01*
X-2352Y22928D01*
X-2306Y23003D01*
X-2248Y23090D01*
X-2177Y23174D01*
X-2094Y23257D01*
X-1994Y23332D01*
X-1990Y23336D01*
X-1981Y23340D01*
X-1965Y23348D01*
X-1944Y23361D01*
X-1919Y23373D01*
X-1886Y23390D01*
X-1853Y23407D01*
X-1811Y23423D01*
X-1719Y23457D01*
X-1615Y23486D01*
X-1499Y23506D01*
X-1436Y23515D01*
X-1333D01*
X-1283Y23511D01*
X-1224Y23502D01*
X-1154Y23490D01*
X-1079Y23469D01*
X-1000Y23444D01*
X-925Y23407D01*
X-921D01*
X-917Y23402D01*
X-892Y23386D01*
X-858Y23365D01*
X-812Y23332D01*
X-763Y23290D01*
X-709Y23244D01*
X-654Y23190D01*
X-605Y23128D01*
Y24509D01*
X-134D01*
Y20669D01*
D02*
G37*
G36*
X-1271Y27410D02*
Y27402D01*
Y27385D01*
Y27356D01*
Y27314D01*
X-1275Y27264D01*
X-1280Y27210D01*
X-1284Y27148D01*
X-1288Y27077D01*
X-1304Y26931D01*
X-1325Y26777D01*
X-1359Y26628D01*
X-1379Y26557D01*
X-1404Y26490D01*
Y26486D01*
X-1409Y26474D01*
X-1417Y26457D01*
X-1429Y26432D01*
X-1446Y26403D01*
X-1462Y26370D01*
X-1512Y26295D01*
X-1542Y26249D01*
X-1575Y26208D01*
X-1616Y26158D01*
X-1658Y26112D01*
X-1708Y26066D01*
X-1758Y26020D01*
X-1816Y25979D01*
X-1878Y25937D01*
X-1883Y25933D01*
X-1895Y25929D01*
X-1912Y25916D01*
X-1941Y25904D01*
X-1974Y25887D01*
X-2016Y25871D01*
X-2062Y25850D01*
X-2120Y25833D01*
X-2178Y25812D01*
X-2245Y25792D01*
X-2320Y25775D01*
X-2399Y25758D01*
X-2486Y25746D01*
X-2577Y25733D01*
X-2673Y25729D01*
X-2773Y25725D01*
X-2827D01*
X-2864Y25729D01*
X-2910D01*
X-2960Y25733D01*
X-3022Y25742D01*
X-3085Y25750D01*
X-3226Y25771D01*
X-3376Y25804D01*
X-3522Y25850D01*
X-3593Y25875D01*
X-3659Y25908D01*
X-3663Y25912D01*
X-3676Y25916D01*
X-3692Y25929D01*
X-3713Y25941D01*
X-3742Y25962D01*
X-3776Y25987D01*
X-3809Y26012D01*
X-3846Y26045D01*
X-3929Y26120D01*
X-4008Y26212D01*
X-4083Y26320D01*
X-4117Y26382D01*
X-4146Y26445D01*
Y26449D01*
X-4150Y26461D01*
X-4158Y26482D01*
X-4166Y26511D01*
X-4179Y26544D01*
X-4191Y26590D01*
X-4204Y26640D01*
X-4216Y26698D01*
X-4233Y26765D01*
X-4246Y26836D01*
X-4258Y26915D01*
X-4266Y27002D01*
X-4279Y27094D01*
X-4283Y27193D01*
X-4291Y27297D01*
Y27410D01*
Y29627D01*
X-3784D01*
Y27410D01*
Y27406D01*
Y27389D01*
Y27364D01*
Y27327D01*
X-3780Y27285D01*
Y27239D01*
X-3776Y27185D01*
X-3771Y27131D01*
X-3763Y27010D01*
X-3746Y26890D01*
X-3721Y26773D01*
X-3709Y26719D01*
X-3692Y26673D01*
Y26669D01*
X-3688Y26665D01*
X-3684Y26653D01*
X-3676Y26636D01*
X-3651Y26590D01*
X-3617Y26540D01*
X-3576Y26478D01*
X-3522Y26420D01*
X-3455Y26362D01*
X-3376Y26307D01*
X-3372D01*
X-3364Y26303D01*
X-3351Y26295D01*
X-3334Y26287D01*
X-3314Y26278D01*
X-3285Y26270D01*
X-3255Y26258D01*
X-3222Y26245D01*
X-3139Y26224D01*
X-3043Y26203D01*
X-2935Y26187D01*
X-2819Y26183D01*
X-2765D01*
X-2727Y26187D01*
X-2681Y26191D01*
X-2627Y26195D01*
X-2569Y26203D01*
X-2507Y26216D01*
X-2378Y26245D01*
X-2311Y26266D01*
X-2245Y26291D01*
X-2182Y26320D01*
X-2124Y26353D01*
X-2070Y26391D01*
X-2020Y26436D01*
X-2016Y26441D01*
X-2008Y26449D01*
X-1999Y26465D01*
X-1983Y26486D01*
X-1966Y26515D01*
X-1945Y26553D01*
X-1920Y26599D01*
X-1899Y26653D01*
X-1878Y26715D01*
X-1854Y26786D01*
X-1833Y26865D01*
X-1816Y26952D01*
X-1799Y27052D01*
X-1787Y27160D01*
X-1783Y27281D01*
X-1779Y27410D01*
Y29627D01*
X-1271D01*
Y27410D01*
D02*
G37*
G36*
X780Y26940D02*
X-672D01*
Y27414D01*
X780D01*
Y26940D01*
D02*
G37*
G36*
X2452Y29635D02*
X2481Y29631D01*
X2560Y29623D01*
X2648Y29606D01*
X2747Y29581D01*
X2847Y29548D01*
X2947Y29502D01*
X2951D01*
X2960Y29498D01*
X2972Y29490D01*
X2993Y29477D01*
X3039Y29448D01*
X3097Y29407D01*
X3163Y29353D01*
X3230Y29290D01*
X3297Y29219D01*
X3355Y29136D01*
Y29132D01*
X3359Y29128D01*
X3367Y29111D01*
X3376Y29095D01*
X3388Y29074D01*
X3401Y29049D01*
X3426Y28986D01*
X3450Y28912D01*
X3475Y28828D01*
X3492Y28737D01*
X3496Y28641D01*
Y28637D01*
Y28629D01*
Y28616D01*
Y28600D01*
X3488Y28550D01*
X3480Y28491D01*
X3463Y28421D01*
X3438Y28346D01*
X3405Y28267D01*
X3359Y28188D01*
Y28184D01*
X3355Y28179D01*
X3334Y28154D01*
X3305Y28117D01*
X3259Y28071D01*
X3205Y28017D01*
X3134Y27963D01*
X3055Y27913D01*
X2964Y27863D01*
X2968D01*
X2980Y27859D01*
X2997Y27855D01*
X3022Y27847D01*
X3047Y27838D01*
X3080Y27826D01*
X3159Y27793D01*
X3242Y27747D01*
X3330Y27693D01*
X3417Y27622D01*
X3492Y27535D01*
X3496Y27530D01*
X3500Y27522D01*
X3509Y27510D01*
X3521Y27489D01*
X3538Y27468D01*
X3554Y27439D01*
X3571Y27406D01*
X3588Y27364D01*
X3604Y27322D01*
X3621Y27277D01*
X3654Y27173D01*
X3675Y27052D01*
X3683Y26985D01*
Y26919D01*
Y26915D01*
Y26898D01*
X3679Y26869D01*
Y26836D01*
X3671Y26790D01*
X3663Y26740D01*
X3654Y26686D01*
X3638Y26624D01*
X3617Y26557D01*
X3592Y26490D01*
X3563Y26420D01*
X3525Y26349D01*
X3484Y26274D01*
X3434Y26203D01*
X3380Y26133D01*
X3313Y26066D01*
X3309Y26062D01*
X3297Y26050D01*
X3276Y26033D01*
X3247Y26012D01*
X3213Y25987D01*
X3167Y25958D01*
X3118Y25925D01*
X3059Y25896D01*
X2997Y25862D01*
X2926Y25829D01*
X2851Y25800D01*
X2768Y25775D01*
X2681Y25754D01*
X2589Y25738D01*
X2494Y25725D01*
X2390Y25721D01*
X2369D01*
X2340Y25725D01*
X2306D01*
X2261Y25729D01*
X2211Y25738D01*
X2157Y25746D01*
X2094Y25758D01*
X2028Y25775D01*
X1961Y25796D01*
X1890Y25817D01*
X1820Y25846D01*
X1749Y25883D01*
X1682Y25921D01*
X1612Y25966D01*
X1549Y26020D01*
X1545Y26024D01*
X1537Y26033D01*
X1520Y26050D01*
X1495Y26074D01*
X1470Y26104D01*
X1441Y26141D01*
X1412Y26183D01*
X1379Y26232D01*
X1345Y26282D01*
X1312Y26345D01*
X1279Y26407D01*
X1250Y26478D01*
X1225Y26553D01*
X1200Y26632D01*
X1183Y26715D01*
X1171Y26802D01*
X1641Y26865D01*
Y26861D01*
X1645Y26848D01*
X1649Y26827D01*
X1657Y26798D01*
X1666Y26765D01*
X1674Y26728D01*
X1703Y26640D01*
X1741Y26544D01*
X1786Y26449D01*
X1845Y26362D01*
X1878Y26324D01*
X1911Y26287D01*
X1915D01*
X1919Y26278D01*
X1932Y26270D01*
X1945Y26258D01*
X1986Y26232D01*
X2044Y26199D01*
X2115Y26166D01*
X2194Y26141D01*
X2290Y26120D01*
X2390Y26112D01*
X2423D01*
X2448Y26116D01*
X2473Y26120D01*
X2510Y26124D01*
X2585Y26141D01*
X2677Y26166D01*
X2772Y26208D01*
X2818Y26237D01*
X2864Y26266D01*
X2910Y26299D01*
X2955Y26341D01*
X2960Y26345D01*
X2964Y26353D01*
X2976Y26366D01*
X2993Y26382D01*
X3009Y26403D01*
X3026Y26432D01*
X3047Y26461D01*
X3072Y26499D01*
X3114Y26582D01*
X3147Y26678D01*
X3176Y26790D01*
X3180Y26848D01*
X3184Y26911D01*
Y26915D01*
Y26923D01*
Y26944D01*
X3180Y26965D01*
X3176Y26994D01*
X3172Y27023D01*
X3159Y27098D01*
X3130Y27185D01*
X3093Y27272D01*
X3068Y27318D01*
X3039Y27360D01*
X3005Y27402D01*
X2968Y27443D01*
X2964Y27447D01*
X2960Y27451D01*
X2947Y27464D01*
X2930Y27476D01*
X2910Y27493D01*
X2885Y27510D01*
X2822Y27551D01*
X2743Y27589D01*
X2652Y27622D01*
X2548Y27647D01*
X2489Y27651D01*
X2431Y27655D01*
X2406D01*
X2377Y27651D01*
X2340D01*
X2290Y27643D01*
X2236Y27634D01*
X2169Y27622D01*
X2098Y27605D01*
X2148Y28017D01*
X2157D01*
X2177Y28013D01*
X2202Y28009D01*
X2256D01*
X2277Y28013D01*
X2306D01*
X2335Y28017D01*
X2406Y28030D01*
X2489Y28046D01*
X2581Y28075D01*
X2677Y28113D01*
X2768Y28167D01*
X2772D01*
X2781Y28175D01*
X2789Y28184D01*
X2806Y28196D01*
X2847Y28234D01*
X2893Y28288D01*
X2935Y28354D01*
X2976Y28437D01*
X2993Y28483D01*
X3001Y28537D01*
X3009Y28591D01*
X3014Y28650D01*
Y28654D01*
Y28662D01*
Y28674D01*
X3009Y28695D01*
X3005Y28741D01*
X2993Y28803D01*
X2972Y28870D01*
X2939Y28941D01*
X2893Y29016D01*
X2868Y29049D01*
X2835Y29082D01*
X2826Y29090D01*
X2802Y29107D01*
X2764Y29136D01*
X2714Y29169D01*
X2648Y29199D01*
X2568Y29228D01*
X2481Y29244D01*
X2381Y29253D01*
X2356D01*
X2335Y29248D01*
X2311D01*
X2286Y29244D01*
X2219Y29232D01*
X2148Y29211D01*
X2069Y29178D01*
X1994Y29136D01*
X1919Y29078D01*
X1911Y29070D01*
X1890Y29045D01*
X1857Y29007D01*
X1824Y28949D01*
X1782Y28878D01*
X1745Y28787D01*
X1712Y28683D01*
X1687Y28562D01*
X1216Y28645D01*
Y28650D01*
X1221Y28666D01*
X1225Y28691D01*
X1233Y28724D01*
X1246Y28762D01*
X1258Y28808D01*
X1275Y28857D01*
X1296Y28912D01*
X1350Y29032D01*
X1379Y29090D01*
X1416Y29153D01*
X1458Y29211D01*
X1504Y29269D01*
X1553Y29328D01*
X1608Y29377D01*
X1612Y29382D01*
X1620Y29390D01*
X1641Y29402D01*
X1662Y29419D01*
X1695Y29440D01*
X1728Y29461D01*
X1770Y29486D01*
X1820Y29511D01*
X1870Y29531D01*
X1928Y29556D01*
X1990Y29577D01*
X2057Y29598D01*
X2132Y29615D01*
X2207Y29627D01*
X2286Y29635D01*
X2369Y29640D01*
X2423D01*
X2452Y29635D01*
D02*
G37*
G36*
X5926Y25787D02*
X5456D01*
Y28787D01*
X5447Y28778D01*
X5426Y28758D01*
X5389Y28729D01*
X5335Y28687D01*
X5272Y28637D01*
X5193Y28583D01*
X5106Y28525D01*
X5006Y28462D01*
X5002D01*
X4994Y28454D01*
X4981Y28446D01*
X4961Y28437D01*
X4936Y28421D01*
X4906Y28408D01*
X4840Y28371D01*
X4765Y28333D01*
X4682Y28292D01*
X4594Y28254D01*
X4511Y28221D01*
Y28674D01*
X4515Y28679D01*
X4528Y28683D01*
X4549Y28695D01*
X4578Y28708D01*
X4611Y28724D01*
X4653Y28749D01*
X4698Y28774D01*
X4744Y28799D01*
X4852Y28866D01*
X4969Y28945D01*
X5090Y29028D01*
X5202Y29124D01*
X5206Y29128D01*
X5214Y29136D01*
X5231Y29149D01*
X5252Y29169D01*
X5272Y29194D01*
X5302Y29219D01*
X5364Y29290D01*
X5435Y29365D01*
X5505Y29452D01*
X5568Y29544D01*
X5622Y29640D01*
X5926D01*
Y25787D01*
D02*
G37*
G36*
X-8535Y29174D02*
X-10615D01*
Y27984D01*
X-8813D01*
Y27530D01*
X-10615D01*
Y25787D01*
X-11122D01*
Y29627D01*
X-8535D01*
Y29174D01*
D02*
G37*
G36*
X-5086D02*
X-7357D01*
Y28001D01*
X-5232D01*
Y27547D01*
X-7357D01*
Y26241D01*
X-4998D01*
Y25787D01*
X-7865D01*
Y29627D01*
X-5086D01*
Y29174D01*
D02*
G37*
%LPC*%
G36*
X-4228Y23124D02*
X-4261D01*
X-4286Y23120D01*
X-4315Y23115D01*
X-4353Y23111D01*
X-4432Y23090D01*
X-4527Y23057D01*
X-4573Y23036D01*
X-4623Y23011D01*
X-4673Y22982D01*
X-4723Y22945D01*
X-4769Y22903D01*
X-4814Y22858D01*
X-4819Y22853D01*
X-4823Y22845D01*
X-4835Y22828D01*
X-4852Y22807D01*
X-4868Y22778D01*
X-4889Y22745D01*
X-4910Y22704D01*
X-4931Y22658D01*
X-4952Y22604D01*
X-4972Y22545D01*
X-4993Y22479D01*
X-5010Y22408D01*
X-5027Y22329D01*
X-5039Y22246D01*
X-5043Y22154D01*
X-5047Y22059D01*
Y22055D01*
Y22034D01*
Y22009D01*
X-5043Y21971D01*
X-5039Y21926D01*
X-5035Y21876D01*
X-5027Y21817D01*
X-5018Y21759D01*
X-4989Y21626D01*
X-4948Y21493D01*
X-4923Y21431D01*
X-4889Y21368D01*
X-4856Y21310D01*
X-4814Y21256D01*
X-4810Y21252D01*
X-4802Y21243D01*
X-4789Y21231D01*
X-4773Y21214D01*
X-4748Y21193D01*
X-4723Y21173D01*
X-4690Y21148D01*
X-4652Y21127D01*
X-4569Y21077D01*
X-4469Y21035D01*
X-4415Y21019D01*
X-4353Y21006D01*
X-4294Y20998D01*
X-4228Y20994D01*
X-4195D01*
X-4170Y20998D01*
X-4140Y21002D01*
X-4103Y21006D01*
X-4024Y21027D01*
X-3932Y21060D01*
X-3883Y21081D01*
X-3833Y21106D01*
X-3787Y21135D01*
X-3737Y21173D01*
X-3691Y21214D01*
X-3646Y21260D01*
X-3641Y21264D01*
X-3637Y21272D01*
X-3625Y21289D01*
X-3608Y21310D01*
X-3591Y21339D01*
X-3571Y21372D01*
X-3550Y21414D01*
X-3525Y21464D01*
X-3504Y21514D01*
X-3483Y21576D01*
X-3462Y21643D01*
X-3446Y21718D01*
X-3429Y21797D01*
X-3417Y21884D01*
X-3413Y21975D01*
X-3408Y22075D01*
Y22080D01*
Y22096D01*
Y22125D01*
X-3413Y22159D01*
X-3417Y22204D01*
X-3421Y22254D01*
X-3429Y22308D01*
X-3438Y22367D01*
X-3467Y22491D01*
X-3483Y22558D01*
X-3508Y22625D01*
X-3537Y22687D01*
X-3566Y22749D01*
X-3604Y22803D01*
X-3646Y22858D01*
X-3650Y22862D01*
X-3658Y22870D01*
X-3670Y22882D01*
X-3687Y22899D01*
X-3712Y22920D01*
X-3737Y22941D01*
X-3770Y22966D01*
X-3804Y22991D01*
X-3891Y23041D01*
X-3991Y23082D01*
X-4045Y23099D01*
X-4103Y23111D01*
X-4166Y23120D01*
X-4228Y23124D01*
D02*
G37*
G36*
X1983Y24110D02*
Y24105D01*
X1979Y24093D01*
X1975Y24072D01*
X1970Y24047D01*
X1962Y24010D01*
X1954Y23972D01*
X1941Y23927D01*
X1929Y23877D01*
X1916Y23823D01*
X1900Y23764D01*
X1862Y23640D01*
X1821Y23506D01*
X1775Y23369D01*
X1351Y22242D01*
X2661D01*
X2258Y23307D01*
Y23311D01*
X2249Y23327D01*
X2241Y23352D01*
X2228Y23390D01*
X2212Y23427D01*
X2195Y23477D01*
X2174Y23531D01*
X2153Y23590D01*
X2112Y23719D01*
X2066Y23852D01*
X2020Y23985D01*
X1983Y24110D01*
D02*
G37*
G36*
X-1328Y23124D02*
X-1357D01*
X-1383Y23120D01*
X-1407Y23115D01*
X-1441Y23111D01*
X-1511Y23090D01*
X-1595Y23061D01*
X-1640Y23041D01*
X-1686Y23016D01*
X-1728Y22986D01*
X-1774Y22949D01*
X-1815Y22911D01*
X-1857Y22866D01*
X-1861Y22862D01*
X-1865Y22853D01*
X-1877Y22837D01*
X-1890Y22816D01*
X-1907Y22791D01*
X-1923Y22753D01*
X-1940Y22716D01*
X-1961Y22666D01*
X-1981Y22616D01*
X-1998Y22554D01*
X-2015Y22487D01*
X-2031Y22416D01*
X-2044Y22333D01*
X-2056Y22250D01*
X-2060Y22154D01*
X-2065Y22055D01*
Y22050D01*
Y22030D01*
Y22005D01*
X-2060Y21967D01*
X-2056Y21921D01*
X-2052Y21871D01*
X-2044Y21817D01*
X-2036Y21755D01*
X-2011Y21626D01*
X-1969Y21493D01*
X-1944Y21431D01*
X-1915Y21368D01*
X-1877Y21310D01*
X-1840Y21256D01*
X-1836Y21252D01*
X-1832Y21243D01*
X-1815Y21231D01*
X-1798Y21214D01*
X-1778Y21193D01*
X-1753Y21173D01*
X-1690Y21127D01*
X-1611Y21077D01*
X-1520Y21035D01*
X-1470Y21019D01*
X-1420Y21006D01*
X-1366Y20998D01*
X-1308Y20994D01*
X-1278D01*
X-1254Y20998D01*
X-1228Y21002D01*
X-1195Y21006D01*
X-1125Y21027D01*
X-1041Y21056D01*
X-996Y21077D01*
X-954Y21098D01*
X-908Y21127D01*
X-862Y21160D01*
X-821Y21198D01*
X-779Y21243D01*
X-775Y21248D01*
X-771Y21256D01*
X-758Y21268D01*
X-746Y21293D01*
X-729Y21318D01*
X-709Y21351D01*
X-688Y21389D01*
X-667Y21435D01*
X-650Y21485D01*
X-630Y21543D01*
X-609Y21610D01*
X-592Y21676D01*
X-580Y21751D01*
X-567Y21834D01*
X-563Y21921D01*
X-559Y22017D01*
Y22026D01*
Y22042D01*
Y22071D01*
X-563Y22109D01*
X-567Y22159D01*
X-571Y22213D01*
X-575Y22271D01*
X-588Y22337D01*
X-613Y22471D01*
X-654Y22612D01*
X-679Y22679D01*
X-709Y22741D01*
X-742Y22799D01*
X-783Y22853D01*
X-788Y22858D01*
X-792Y22866D01*
X-804Y22878D01*
X-821Y22895D01*
X-846Y22916D01*
X-871Y22941D01*
X-933Y22991D01*
X-1012Y23036D01*
X-1108Y23082D01*
X-1158Y23099D01*
X-1212Y23111D01*
X-1270Y23120D01*
X-1328Y23124D01*
D02*
G37*
%LPD*%
D16*
X5902Y37902D02*
G03*
X5902Y37902I-6000J0D01*
G01*
D17*
X5709Y1870D02*
Y5020D01*
X11614Y1870D02*
Y5020D01*
X-3002Y1870D02*
Y5020D01*
X2904Y1870D02*
Y5020D01*
X-11713Y1870D02*
Y5020D01*
X-5807Y1870D02*
Y5020D01*
X-20423Y1870D02*
Y5020D01*
X-14518Y1870D02*
Y5020D01*
X-29134Y1870D02*
Y5020D01*
X-23228Y1870D02*
Y5020D01*
X9902Y13209D02*
X29902D01*
Y23209D01*
X9902D02*
X29902D01*
X9902Y13209D02*
Y23209D01*
X-23622Y-16142D02*
Y-12992D01*
X-17717Y-16142D02*
Y-12992D01*
X-13878Y-16142D02*
Y-12992D01*
X-7972Y-16142D02*
Y-12992D01*
X-4134Y-16142D02*
Y-12992D01*
X1772Y-16142D02*
Y-12992D01*
X5610Y-16142D02*
Y-12992D01*
X11516Y-16142D02*
Y-12992D01*
X14665Y1772D02*
Y4921D01*
X20571Y1772D02*
Y4921D01*
D18*
X7245Y16605D02*
X6753Y17097D01*
X5769D01*
X5277Y16605D01*
Y14638D01*
X5769Y14146D01*
X6753D01*
X7245Y14638D01*
X8229Y14146D02*
X9213D01*
X8721D01*
Y17097D01*
X8229Y16605D01*
X-1468Y16571D02*
X-1960Y17063D01*
X-2944D01*
X-3436Y16571D01*
Y14603D01*
X-2944Y14111D01*
X-1960D01*
X-1468Y14603D01*
X1484Y14111D02*
X-484D01*
X1484Y16079D01*
Y16571D01*
X992Y17063D01*
X8D01*
X-484Y16571D01*
X-10153Y16531D02*
X-10645Y17023D01*
X-11629D01*
X-12121Y16531D01*
Y14563D01*
X-11629Y14071D01*
X-10645D01*
X-10153Y14563D01*
X-9169Y16531D02*
X-8677Y17023D01*
X-7694D01*
X-7202Y16531D01*
Y16039D01*
X-7694Y15547D01*
X-8185D01*
X-7694D01*
X-7202Y15055D01*
Y14563D01*
X-7694Y14071D01*
X-8677D01*
X-9169Y14563D01*
X-18858Y16584D02*
X-19350Y17076D01*
X-20334D01*
X-20826Y16584D01*
Y14616D01*
X-20334Y14124D01*
X-19350D01*
X-18858Y14616D01*
X-16399Y14124D02*
Y17076D01*
X-17875Y15600D01*
X-15907D01*
X-27528Y16524D02*
X-28020Y17016D01*
X-29004D01*
X-29496Y16524D01*
Y14556D01*
X-29004Y14064D01*
X-28020D01*
X-27528Y14556D01*
X-24576Y17016D02*
X-26544D01*
Y15540D01*
X-25560Y16032D01*
X-25068D01*
X-24576Y15540D01*
Y14556D01*
X-25068Y14064D01*
X-26052D01*
X-26544Y14556D01*
X8562Y-24312D02*
X8070Y-23820D01*
X7086D01*
X6594Y-24312D01*
Y-26280D01*
X7086Y-26772D01*
X8070D01*
X8562Y-26280D01*
X11514Y-23820D02*
X10530Y-24312D01*
X9546Y-25296D01*
Y-26280D01*
X10038Y-26772D01*
X11022D01*
X11514Y-26280D01*
Y-25788D01*
X11022Y-25296D01*
X9546D01*
X-1477Y-24410D02*
X-1969Y-23918D01*
X-2953D01*
X-3445Y-24410D01*
Y-26378D01*
X-2953Y-26870D01*
X-1969D01*
X-1477Y-26378D01*
X-493Y-23918D02*
X1475D01*
Y-24410D01*
X-493Y-26378D01*
Y-26870D01*
X-11123Y-24509D02*
X-11615Y-24017D01*
X-12599D01*
X-13091Y-24509D01*
Y-26476D01*
X-12599Y-26969D01*
X-11615D01*
X-11123Y-26476D01*
X-10139Y-24509D02*
X-9647Y-24017D01*
X-8663D01*
X-8171Y-24509D01*
Y-25001D01*
X-8663Y-25493D01*
X-8171Y-25985D01*
Y-26476D01*
X-8663Y-26969D01*
X-9647D01*
X-10139Y-26476D01*
Y-25985D01*
X-9647Y-25493D01*
X-10139Y-25001D01*
Y-24509D01*
X-9647Y-25493D02*
X-8663D01*
X-21162Y-24115D02*
X-21654Y-23623D01*
X-22638D01*
X-23130Y-24115D01*
Y-26083D01*
X-22638Y-26575D01*
X-21654D01*
X-21162Y-26083D01*
X-20178D02*
X-19686Y-26575D01*
X-18702D01*
X-18210Y-26083D01*
Y-24115D01*
X-18702Y-23623D01*
X-19686D01*
X-20178Y-24115D01*
Y-24607D01*
X-19686Y-25099D01*
X-18210D01*
X25590Y4822D02*
X25098Y5314D01*
X24114D01*
X23622Y4822D01*
Y2854D01*
X24114Y2362D01*
X25098D01*
X25590Y2854D01*
X26574Y2362D02*
X27558D01*
X27066D01*
Y5314D01*
X26574Y4822D01*
X31002Y5314D02*
X30018Y4822D01*
X29034Y3838D01*
Y2854D01*
X29526Y2362D01*
X30510D01*
X31002Y2854D01*
Y3346D01*
X30510Y3838D01*
X29034D01*
M02*
