%FSLAX25Y25*%
%MOIN*%
G70*
G01*
G75*
G04 Layer_Color=16711935*
%ADD10R,0.02362X0.01969*%
%ADD11R,0.04331X0.01575*%
%ADD12R,0.01969X0.02362*%
%ADD13R,0.02953X0.07087*%
%ADD14R,0.03543X0.03543*%
%ADD15R,0.05118X0.02362*%
%ADD16R,0.07480X0.10236*%
%ADD17R,0.03150X0.03543*%
%ADD18R,0.03543X0.03150*%
%ADD19R,0.05118X0.02756*%
%ADD20R,0.12992X0.05512*%
%ADD21R,0.19685X0.04724*%
%ADD22R,0.05315X0.04724*%
%ADD23O,0.03543X0.00787*%
%ADD24O,0.00787X0.03543*%
%ADD25R,0.08071X0.08071*%
%ADD26R,0.02756X0.03543*%
%ADD27R,0.02362X0.04528*%
%ADD28R,0.06693X0.04331*%
%ADD29R,0.00984X0.04331*%
%ADD30R,0.03150X0.06693*%
%ADD31R,0.04724X0.02362*%
%ADD32R,0.02559X0.04331*%
%ADD33R,0.22441X0.22441*%
%ADD34O,0.03543X0.00984*%
%ADD35O,0.00984X0.03543*%
%ADD36R,0.04331X0.06693*%
%ADD37R,0.03543X0.02756*%
%ADD38R,0.03937X0.14961*%
%ADD39R,0.05433X0.01772*%
%ADD40R,0.08268X0.05807*%
%ADD41R,0.07874X0.05807*%
%ADD42R,0.07480X0.04626*%
%ADD43R,0.07480X0.09350*%
%ADD44C,0.01575*%
%ADD45C,0.00984*%
%ADD46C,0.01181*%
%ADD47C,0.01969*%
%ADD48R,0.07480X0.06890*%
%ADD49R,0.13780X0.06496*%
%ADD50C,0.06000*%
G04:AMPARAMS|DCode=51|XSize=59.06mil|YSize=59.06mil|CornerRadius=0mil|HoleSize=0mil|Usage=FLASHONLY|Rotation=90.000|XOffset=0mil|YOffset=0mil|HoleType=Round|Shape=Octagon|*
%AMOCTAGOND51*
4,1,8,0.01476,0.02953,-0.01476,0.02953,-0.02953,0.01476,-0.02953,-0.01476,-0.01476,-0.02953,0.01476,-0.02953,0.02953,-0.01476,0.02953,0.01476,0.01476,0.02953,0.0*
%
%ADD51OCTAGOND51*%

%ADD52C,0.04724*%
%ADD53R,0.09055X0.07087*%
%ADD54C,0.05118*%
%ADD55R,0.15748X0.07874*%
%ADD56C,0.02756*%
%ADD57C,0.03937*%
%ADD58C,0.01969*%
%ADD59R,0.06890X0.05906*%
%ADD60R,0.03937X0.05906*%
%ADD61C,0.01000*%
%ADD62C,0.00787*%
%ADD63C,0.00606*%
%ADD64C,0.00394*%
%ADD65C,0.00591*%
%ADD66R,0.03150X0.02756*%
%ADD67R,0.02756X0.03150*%
%ADD68R,0.03740X0.07874*%
%ADD69R,0.04331X0.04331*%
%ADD70R,0.05906X0.03150*%
%ADD71R,0.08268X0.11024*%
%ADD72R,0.03937X0.04331*%
%ADD73R,0.04331X0.03937*%
%ADD74R,0.05906X0.03543*%
%ADD75R,0.13780X0.06299*%
%ADD76R,0.20472X0.05512*%
%ADD77R,0.06102X0.05512*%
%ADD78O,0.04331X0.01575*%
%ADD79O,0.01575X0.04331*%
%ADD80R,0.08858X0.08858*%
%ADD81R,0.03543X0.04331*%
%ADD82R,0.03150X0.05315*%
%ADD83R,0.07480X0.05118*%
%ADD84R,0.01772X0.05118*%
%ADD85R,0.03937X0.07480*%
%ADD86R,0.05512X0.03150*%
%ADD87R,0.03347X0.05118*%
%ADD88R,0.23228X0.23228*%
%ADD89O,0.04331X0.01772*%
%ADD90O,0.01772X0.04331*%
%ADD91R,0.05118X0.07480*%
%ADD92R,0.04331X0.03543*%
%ADD93R,0.04724X0.15748*%
%ADD94R,0.06221X0.02559*%
%ADD95R,0.09055X0.06594*%
%ADD96R,0.08661X0.06594*%
%ADD97R,0.08268X0.05413*%
%ADD98R,0.08268X0.10138*%
%ADD99C,0.06787*%
G04:AMPARAMS|DCode=100|XSize=66.93mil|YSize=66.93mil|CornerRadius=0mil|HoleSize=0mil|Usage=FLASHONLY|Rotation=90.000|XOffset=0mil|YOffset=0mil|HoleType=Round|Shape=Octagon|*
%AMOCTAGOND100*
4,1,8,0.01673,0.03347,-0.01673,0.03347,-0.03347,0.01673,-0.03347,-0.01673,-0.01673,-0.03347,0.01673,-0.03347,0.03347,-0.01673,0.03347,0.01673,0.01673,0.03347,0.0*
%
%ADD100OCTAGOND100*%

%ADD101C,0.05512*%
%ADD102R,0.09843X0.07874*%
%ADD103C,0.05906*%
%ADD104R,0.16535X0.08661*%
%ADD105R,0.07677X0.06693*%
%ADD106R,0.04724X0.06693*%
D44*
X144783Y-63583D02*
Y-60039D01*
X148091Y-63583D02*
Y-60039D01*
X151398Y-63583D02*
Y-60039D01*
X154705Y-63583D02*
Y-60039D01*
X158012Y-63583D02*
Y-60039D01*
X161319Y-63583D02*
Y-60039D01*
X139272Y-65945D02*
X142815D01*
X139272Y-69252D02*
X142815D01*
X139272Y-72559D02*
X142815D01*
X139272Y-75866D02*
X142815D01*
X139272Y-79173D02*
X142815D01*
X139272Y-82480D02*
X142815D01*
X163287Y-65945D02*
X166831D01*
X163287Y-69252D02*
X166831D01*
X163287Y-72559D02*
X166831D01*
X163287Y-75866D02*
X166831D01*
X163287Y-79173D02*
X166831D01*
X163287Y-82480D02*
X166831D01*
X144783Y-88386D02*
Y-84842D01*
X148091Y-88386D02*
Y-84842D01*
X151398Y-88386D02*
Y-84842D01*
X154705Y-88386D02*
Y-84842D01*
X158012Y-88386D02*
Y-84842D01*
X161319Y-88386D02*
Y-84842D01*
D45*
X144783Y-66339D02*
X149508D01*
Y-72244D02*
Y-66339D01*
X144783Y-72244D02*
X149508D01*
X144783D02*
Y-66339D01*
Y-68701D02*
X146358D01*
Y-66339D01*
X153051Y-68701D02*
Y-66339D01*
X151476Y-68701D02*
X153051D01*
X151476Y-72244D02*
Y-66339D01*
Y-72244D02*
X156201D01*
Y-66339D01*
X151476D02*
X156201D01*
X146358Y-76575D02*
Y-74213D01*
X144783Y-76575D02*
X146358D01*
X144783Y-80118D02*
Y-74213D01*
Y-80118D02*
X149508D01*
Y-74213D01*
X144783D02*
X149508D01*
X153051Y-76575D02*
Y-74213D01*
X151476Y-76575D02*
X153051D01*
X151476Y-80118D02*
Y-74213D01*
Y-80118D02*
X156201D01*
Y-74213D01*
X151476D02*
X156201D01*
X143209Y-63976D02*
X162894D01*
Y-84449D02*
Y-63976D01*
X143209Y-84449D02*
X162894D01*
X143209D02*
Y-63976D01*
D46*
X164469Y-62795D02*
X166043Y-60433D01*
X164469Y-62795D02*
X165650Y-59252D01*
X167224Y-60433D01*
X164469Y-62795D02*
X167224Y-60433D01*
X162500Y-57284D02*
X164075Y-54921D01*
X162500Y-57284D02*
X163681Y-53740D01*
X165256Y-54921D01*
X162500Y-57284D02*
X165256Y-54921D01*
D61*
X170372Y-56096D02*
G03*
X165650Y-61221I2627J-7159D01*
G01*
X170372Y-56096D02*
G03*
X175528Y-49793I-3841J8402D01*
G01*
X168403Y-50584D02*
G03*
X163681Y-55709I2627J-7159D01*
G01*
X168403Y-50584D02*
G03*
X173559Y-44281I-3841J8402D01*
G01*
D66*
X17441Y-55709D02*
D03*
X21732D02*
D03*
D67*
X78642Y-34468D02*
D03*
Y-38760D02*
D03*
D73*
X27854Y-63976D02*
D03*
Y-58465D02*
D03*
D92*
X58071Y-51476D02*
D03*
Y-45571D02*
D03*
D99*
X172835Y-86122D02*
D03*
X163287Y-4921D02*
D03*
D100*
X21654Y-62795D02*
D03*
X13878Y-62697D02*
D03*
D101*
X116142Y-42421D02*
D03*
Y-47835D02*
D03*
D102*
X5709Y-62303D02*
D03*
D103*
X71949Y-36417D02*
D03*
D104*
X96260Y-79921D02*
D03*
D105*
X19783Y-42520D02*
D03*
X5020D02*
D03*
D106*
X47589Y-6496D02*
D03*
Y-30118D02*
D03*
X33022D02*
D03*
Y-6496D02*
D03*
X73425D02*
D03*
Y-30118D02*
D03*
X58858D02*
D03*
Y-6496D02*
D03*
X21752D02*
D03*
Y-30118D02*
D03*
X7185D02*
D03*
Y-6496D02*
D03*
M02*
