%FSLAX25Y25*%
%MOIN*%
G70*
G01*
G75*
G04 Layer_Color=8388736*
%ADD10R,0.02362X0.01969*%
%ADD11R,0.04331X0.01575*%
%ADD12R,0.01969X0.02362*%
%ADD13R,0.02953X0.07087*%
%ADD14R,0.03543X0.03543*%
%ADD15R,0.05118X0.02362*%
%ADD16R,0.07480X0.10236*%
%ADD17R,0.03150X0.03543*%
%ADD18R,0.03543X0.03150*%
%ADD19R,0.05118X0.02756*%
%ADD20R,0.12992X0.05512*%
%ADD21R,0.19685X0.04724*%
%ADD22R,0.05315X0.04724*%
%ADD23O,0.03543X0.00787*%
%ADD24O,0.00787X0.03543*%
%ADD25R,0.08071X0.08071*%
%ADD26R,0.02756X0.03543*%
%ADD27R,0.02362X0.04528*%
%ADD28R,0.06693X0.04331*%
%ADD29R,0.00984X0.04331*%
%ADD30R,0.03150X0.06693*%
%ADD31R,0.04724X0.02362*%
%ADD32R,0.02559X0.04331*%
%ADD33R,0.22441X0.22441*%
%ADD34O,0.03543X0.00984*%
%ADD35O,0.00984X0.03543*%
%ADD36R,0.04331X0.06693*%
%ADD37R,0.03543X0.02756*%
%ADD38R,0.03937X0.14961*%
%ADD39R,0.05433X0.01772*%
%ADD40R,0.08268X0.05807*%
%ADD41R,0.07874X0.05807*%
%ADD42R,0.07480X0.04626*%
%ADD43R,0.07480X0.09350*%
%ADD44C,0.01575*%
%ADD45C,0.00984*%
%ADD46C,0.01181*%
%ADD47C,0.01969*%
%ADD48R,0.07480X0.06890*%
%ADD49R,0.13780X0.06496*%
%ADD50C,0.06000*%
G04:AMPARAMS|DCode=51|XSize=59.06mil|YSize=59.06mil|CornerRadius=0mil|HoleSize=0mil|Usage=FLASHONLY|Rotation=90.000|XOffset=0mil|YOffset=0mil|HoleType=Round|Shape=Octagon|*
%AMOCTAGOND51*
4,1,8,0.01476,0.02953,-0.01476,0.02953,-0.02953,0.01476,-0.02953,-0.01476,-0.01476,-0.02953,0.01476,-0.02953,0.02953,-0.01476,0.02953,0.01476,0.01476,0.02953,0.0*
%
%ADD51OCTAGOND51*%

%ADD52C,0.04724*%
%ADD53R,0.09055X0.07087*%
%ADD54C,0.05118*%
%ADD55R,0.15748X0.07874*%
%ADD56C,0.02756*%
%ADD57C,0.03937*%
%ADD58C,0.01969*%
%ADD59R,0.06890X0.05906*%
%ADD60R,0.03937X0.05906*%
%ADD61C,0.01000*%
%ADD62C,0.00787*%
%ADD63C,0.00606*%
%ADD64C,0.00394*%
%ADD65C,0.00591*%
%ADD66R,0.03150X0.02756*%
%ADD67R,0.02756X0.03150*%
%ADD68R,0.03740X0.07874*%
%ADD69R,0.04331X0.04331*%
%ADD70R,0.05906X0.03150*%
%ADD71R,0.08268X0.11024*%
%ADD72R,0.03937X0.04331*%
%ADD73R,0.04331X0.03937*%
%ADD74R,0.05906X0.03543*%
%ADD75R,0.13780X0.06299*%
%ADD76R,0.20472X0.05512*%
%ADD77R,0.06102X0.05512*%
%ADD78O,0.04331X0.01575*%
%ADD79O,0.01575X0.04331*%
%ADD80R,0.08858X0.08858*%
%ADD81R,0.03543X0.04331*%
%ADD82R,0.03150X0.05315*%
%ADD83R,0.07480X0.05118*%
%ADD84R,0.01772X0.05118*%
%ADD85R,0.03937X0.07480*%
%ADD86R,0.05512X0.03150*%
%ADD87R,0.03347X0.05118*%
%ADD88R,0.23228X0.23228*%
%ADD89O,0.04331X0.01772*%
%ADD90O,0.01772X0.04331*%
%ADD91R,0.05118X0.07480*%
%ADD92R,0.04331X0.03543*%
%ADD93R,0.04724X0.15748*%
%ADD94R,0.06221X0.02559*%
%ADD95R,0.09055X0.06594*%
%ADD96R,0.08661X0.06594*%
%ADD97R,0.08268X0.05413*%
%ADD98R,0.08268X0.10138*%
%ADD99C,0.06787*%
G04:AMPARAMS|DCode=100|XSize=66.93mil|YSize=66.93mil|CornerRadius=0mil|HoleSize=0mil|Usage=FLASHONLY|Rotation=90.000|XOffset=0mil|YOffset=0mil|HoleType=Round|Shape=Octagon|*
%AMOCTAGOND100*
4,1,8,0.01673,0.03347,-0.01673,0.03347,-0.03347,0.01673,-0.03347,-0.01673,-0.01673,-0.03347,0.01673,-0.03347,0.03347,-0.01673,0.03347,0.01673,0.01673,0.03347,0.0*
%
%ADD100OCTAGOND100*%

%ADD101C,0.05512*%
%ADD102R,0.09843X0.07874*%
%ADD103C,0.05906*%
%ADD104R,0.16535X0.08661*%
D15*
X71752Y-63386D02*
D03*
Y-59449D02*
D03*
X65847Y-61417D02*
D03*
D66*
X116909Y-2559D02*
D03*
X112618D02*
D03*
X91319Y-13681D02*
D03*
X87028D02*
D03*
X154744Y-25689D02*
D03*
X159035D02*
D03*
X27579Y-22835D02*
D03*
X31870D02*
D03*
X67736Y-16043D02*
D03*
X72027D02*
D03*
X138760Y-2264D02*
D03*
X134468D02*
D03*
X108248Y-48819D02*
D03*
X103957D02*
D03*
X104941Y-10039D02*
D03*
X109232D02*
D03*
X97461Y-10039D02*
D03*
X101752D02*
D03*
D67*
X77165Y-42106D02*
D03*
Y-37815D02*
D03*
X157579Y-7658D02*
D03*
Y-3366D02*
D03*
X85236Y-4646D02*
D03*
Y-8937D02*
D03*
X112697Y-22716D02*
D03*
Y-18425D02*
D03*
X59252Y-35433D02*
D03*
X57284Y-30315D02*
D03*
X61221D02*
D03*
X157283Y-41831D02*
D03*
X155315Y-36713D02*
D03*
X159252D02*
D03*
D68*
X108051Y-4528D02*
D03*
X92146D02*
D03*
D69*
X124311Y-62500D02*
D03*
X114862D02*
D03*
D70*
X4134Y-47441D02*
D03*
Y-54921D02*
D03*
X12402Y-51181D02*
D03*
D71*
X60433Y-7776D02*
D03*
X77165D02*
D03*
D72*
X85335Y-52067D02*
D03*
X90847D02*
D03*
X74902Y-31496D02*
D03*
X69390D02*
D03*
X145571Y-41929D02*
D03*
X151083D02*
D03*
X77067Y-49213D02*
D03*
X71555D02*
D03*
X119587Y-18406D02*
D03*
X125098D02*
D03*
X76968Y-54232D02*
D03*
X71457D02*
D03*
X5315Y-41929D02*
D03*
X10827D02*
D03*
D73*
X164370Y-33071D02*
D03*
Y-38583D02*
D03*
X151969Y-8465D02*
D03*
Y-2953D02*
D03*
X137106Y-37500D02*
D03*
Y-43012D02*
D03*
X130020Y-37500D02*
D03*
Y-43012D02*
D03*
X23622Y-17126D02*
D03*
Y-11614D02*
D03*
X28839D02*
D03*
Y-17126D02*
D03*
X84842Y-64272D02*
D03*
Y-58760D02*
D03*
X77461Y-58661D02*
D03*
Y-64173D02*
D03*
D74*
X162500Y-13484D02*
D03*
Y-20965D02*
D03*
X153051D02*
D03*
Y-17224D02*
D03*
Y-13484D02*
D03*
D75*
X119488Y-86713D02*
D03*
Y-71752D02*
D03*
D76*
X152362Y-86811D02*
D03*
Y-47835D02*
D03*
D77*
X173228Y-79331D02*
D03*
Y-71457D02*
D03*
Y-63583D02*
D03*
Y-55709D02*
D03*
X130709D02*
D03*
Y-63583D02*
D03*
Y-71457D02*
D03*
Y-79331D02*
D03*
D78*
X36713Y-49409D02*
D03*
Y-55315D02*
D03*
X50886D02*
D03*
Y-49409D02*
D03*
D79*
X39862Y-59449D02*
D03*
X41831D02*
D03*
X43799D02*
D03*
X45768D02*
D03*
X47736D02*
D03*
Y-45276D02*
D03*
X45768D02*
D03*
X43799D02*
D03*
X41831D02*
D03*
X39862D02*
D03*
D80*
X43799Y-52362D02*
D03*
D81*
X19783Y-37500D02*
D03*
X13878D02*
D03*
D82*
X117520Y-13386D02*
D03*
X125000D02*
D03*
X121260Y-4528D02*
D03*
D83*
X91437Y-72638D02*
D03*
Y-62008D02*
D03*
X29823Y-55709D02*
D03*
Y-45079D02*
D03*
X20571Y-55709D02*
D03*
Y-45079D02*
D03*
X172146Y-45374D02*
D03*
Y-34744D02*
D03*
D84*
X142913Y-28642D02*
D03*
X140945D02*
D03*
X138976D02*
D03*
X137008D02*
D03*
X135039D02*
D03*
Y-6594D02*
D03*
X137008D02*
D03*
X138976D02*
D03*
X140945D02*
D03*
X142913D02*
D03*
D85*
X109744Y-69488D02*
D03*
X97539D02*
D03*
D86*
X43307Y-4134D02*
D03*
Y-7874D02*
D03*
Y-11614D02*
D03*
X34252D02*
D03*
Y-7874D02*
D03*
Y-4134D02*
D03*
D87*
X24311Y-38189D02*
D03*
X28051D02*
D03*
X31791D02*
D03*
Y-28740D02*
D03*
X24311D02*
D03*
D88*
X94587Y-31398D02*
D03*
D89*
X108563Y-20571D02*
D03*
Y-22539D02*
D03*
Y-24508D02*
D03*
Y-26476D02*
D03*
Y-28445D02*
D03*
Y-30413D02*
D03*
Y-32382D02*
D03*
Y-34350D02*
D03*
Y-36319D02*
D03*
Y-38287D02*
D03*
Y-40256D02*
D03*
Y-42224D02*
D03*
X80610D02*
D03*
Y-40256D02*
D03*
Y-38287D02*
D03*
Y-36319D02*
D03*
Y-34350D02*
D03*
Y-32382D02*
D03*
Y-30413D02*
D03*
Y-28445D02*
D03*
Y-26476D02*
D03*
Y-24508D02*
D03*
Y-22539D02*
D03*
Y-20571D02*
D03*
D90*
X105413Y-45374D02*
D03*
X103445D02*
D03*
X101476D02*
D03*
X99508D02*
D03*
X97539D02*
D03*
X95571D02*
D03*
X93602D02*
D03*
X91634D02*
D03*
X89665D02*
D03*
X87697D02*
D03*
X85728D02*
D03*
X83760D02*
D03*
Y-17421D02*
D03*
X85728D02*
D03*
X87697D02*
D03*
X89665D02*
D03*
X91634D02*
D03*
X93602D02*
D03*
X95571D02*
D03*
X97539D02*
D03*
X99508D02*
D03*
X101476D02*
D03*
X103445D02*
D03*
X105413D02*
D03*
D91*
X48327Y-18209D02*
D03*
X37697D02*
D03*
D92*
X60925Y-55315D02*
D03*
Y-49409D02*
D03*
X61024Y-38780D02*
D03*
Y-44685D02*
D03*
X55807Y-49409D02*
D03*
Y-55315D02*
D03*
X55905Y-44685D02*
D03*
Y-38780D02*
D03*
D93*
X48130Y-31201D02*
D03*
X37106D02*
D03*
D94*
X15748Y-19193D02*
D03*
Y-16634D02*
D03*
Y-21752D02*
D03*
Y-24311D02*
D03*
Y-14075D02*
D03*
D95*
X14370Y-29035D02*
D03*
D96*
X14567Y-9350D02*
D03*
D97*
X5315Y-22539D02*
D03*
Y-15846D02*
D03*
D98*
Y-7579D02*
D03*
Y-30807D02*
D03*
D99*
X172835Y-86122D02*
D03*
X163287Y-4921D02*
D03*
D100*
X21654Y-62795D02*
D03*
X13878Y-62697D02*
D03*
D101*
X116142Y-42421D02*
D03*
Y-47835D02*
D03*
D102*
X5709Y-62303D02*
D03*
D103*
X71949Y-36417D02*
D03*
D104*
X96260Y-79921D02*
D03*
M02*
