M48
;Layer_Color=9474304
;FILE_FORMAT=2:5
INCH,LZ
;TYPE=PLATED
T1F00S00C0.01181
T2F00S00C0.01575
T3F00S00C0.03000
T4F00S00C0.03150
%
T01
X0173917Y-0030118
X0168209Y-0039862
X0157677Y-0031398
X0151378Y-003376
X0145768Y-0033661
X0145669Y-0027559
X0151279Y-0027461
X0139829Y-0032776
X0130118Y-0029429
X0113386Y-0027854
X0103248Y-0027067
X0098917
X0094587
X0090256
X0085925
Y-0031398
Y-0035728
Y-0040059
X0090256
Y-0035728
Y-0031398
X0094587
Y-0035728
Y-0040059
X0098917
Y-0035728
Y-0031398
X0103248
Y-0035728
Y-0040059
X0109252Y-0045177
X0121063Y-0046063
X0123228Y-0049803
X0141732Y-0054331
X0161713Y-0053937
X0165059Y-0069488
Y-0078839
Y-0087598
X0136319
X0098974Y-0052911
X009656Y-0050593
X0082336Y-0048684
X007737Y-0045382
X0074019Y-0043703
X0065256Y-0045571
X0064961Y-0053445
X0067917Y-0051577
X0067815Y-0038583
X0052264Y-0035138
X0049893Y-0041831
X0042224Y-0041043
X0041339Y-0038583
X0043898Y-0039272
X0042323Y-0032382
X0042421Y-0028937
X0054232Y-0027264
X0054137Y-0051873
X0050888Y-0057877
X005748Y-005876
X0045965Y-0054528
Y-0050197
X0041634
Y-0054528
X0030512Y-0050098
X0024705Y-0050197
X0020079
X0024312Y-0058172
X0025492Y-0042815
X0033565Y-0040848
X0033366Y-0045866
X0029037Y-0033073
X0014665Y-0030315
X000935Y-0036909
X0005118Y-0037598
X0009154Y-0047443
X0015256Y-0047736
X0004429Y-0050886
X0005315Y-0022539
Y-0015748
X0014567Y-000935
X0015157Y-0002953
X0026083Y-0002657
X0038976Y-0007874
X0038978Y-0012205
X0042618Y-0016043
X004252Y-0019783
X0034843Y-0017815
X0049806Y-0012796
X0051968Y-0009252
X0052067Y-0002559
X0054331Y-001624
X0057874Y-0023228
X0061125Y-0024903
X0073425Y-0020177
X0085925Y-0022736
X0090256
X0094587
X0098917
X0103248
X0099606Y-0007185
X0112598Y-0011417
X0117323Y-0007677
X013248Y-0013681
X0131004Y-0017717
X0138091Y-001752
X0142913Y-0013189
X0146752Y-0008268
X014498Y-0020866
X0157579Y-0015551
X0125098Y-0024213
X006939Y-000374
T02
X0172047Y-0041043
X0108667Y-0017225
X0078543Y-0017421
T03
X0172835Y-0086122
X0163287Y-0004921
T04
X0021654Y-0062795
X0071949Y-0036417
X0116142Y-0042421
Y-0047835
X009626Y-0079921
X0013878Y-0062697
X0005709Y-0062303
M30
