%FSLAX25Y25*%
%MOIN*%
G70*
G01*
G75*
G04 Layer_Color=65535*
%ADD10R,0.02362X0.01969*%
%ADD11R,0.04331X0.01575*%
%ADD12R,0.01969X0.02362*%
%ADD13R,0.02953X0.07087*%
%ADD14R,0.03543X0.03543*%
%ADD15R,0.05118X0.02362*%
%ADD16R,0.07480X0.10236*%
%ADD17R,0.03150X0.03543*%
%ADD18R,0.03543X0.03150*%
%ADD19R,0.05118X0.02756*%
%ADD20R,0.12992X0.05512*%
%ADD21R,0.19685X0.04724*%
%ADD22R,0.05315X0.04724*%
%ADD23O,0.03543X0.00787*%
%ADD24O,0.00787X0.03543*%
%ADD25R,0.08071X0.08071*%
%ADD26R,0.02756X0.03543*%
%ADD27R,0.02362X0.04528*%
%ADD28R,0.06693X0.04331*%
%ADD29R,0.00984X0.04331*%
%ADD30R,0.03150X0.06693*%
%ADD31R,0.04724X0.02362*%
%ADD32R,0.02559X0.04331*%
%ADD33R,0.22441X0.22441*%
%ADD34O,0.03543X0.00984*%
%ADD35O,0.00984X0.03543*%
%ADD36R,0.04331X0.06693*%
%ADD37R,0.03543X0.02756*%
%ADD38R,0.03937X0.14961*%
%ADD39R,0.05433X0.01772*%
%ADD40R,0.08268X0.05807*%
%ADD41R,0.07874X0.05807*%
%ADD42R,0.07480X0.04626*%
%ADD43R,0.07480X0.09350*%
%ADD44C,0.01575*%
%ADD45C,0.00984*%
%ADD46C,0.01181*%
%ADD47C,0.01969*%
%ADD48R,0.07480X0.06890*%
%ADD49R,0.13780X0.06496*%
%ADD50C,0.06000*%
G04:AMPARAMS|DCode=51|XSize=59.06mil|YSize=59.06mil|CornerRadius=0mil|HoleSize=0mil|Usage=FLASHONLY|Rotation=90.000|XOffset=0mil|YOffset=0mil|HoleType=Round|Shape=Octagon|*
%AMOCTAGOND51*
4,1,8,0.01476,0.02953,-0.01476,0.02953,-0.02953,0.01476,-0.02953,-0.01476,-0.01476,-0.02953,0.01476,-0.02953,0.02953,-0.01476,0.02953,0.01476,0.01476,0.02953,0.0*
%
%ADD51OCTAGOND51*%

%ADD52C,0.04724*%
%ADD53R,0.09055X0.07087*%
%ADD54C,0.05118*%
%ADD55R,0.15748X0.07874*%
%ADD56C,0.02756*%
%ADD57C,0.03937*%
%ADD58C,0.01969*%
%ADD59R,0.06890X0.05906*%
%ADD60R,0.03937X0.05906*%
%ADD61C,0.01000*%
%ADD62C,0.00787*%
%ADD63C,0.00606*%
%ADD64C,0.00394*%
%ADD65C,0.00591*%
D45*
X72244Y-66339D02*
G03*
X72244Y-66339I-492J0D01*
G01*
X4626Y-44094D02*
G03*
X4626Y-44094I-492J0D01*
G01*
X153543Y-9941D02*
G03*
X153543Y-9941I-492J0D01*
G01*
X34055Y-59842D02*
G03*
X34055Y-59842I-492J0D01*
G01*
X114665Y-13386D02*
G03*
X114665Y-13386I-492J0D01*
G01*
X34744Y-787D02*
G03*
X34744Y-787I-492J0D01*
G01*
X21358Y-38189D02*
G03*
X21358Y-38189I-492J0D01*
G01*
X109055Y-14272D02*
G03*
X109055Y-14272I-492J0D01*
G01*
X80709Y-1870D02*
Y-886D01*
X57087Y-2067D02*
Y-886D01*
X80709D01*
Y-14665D02*
Y-13681D01*
X56890Y-14469D02*
Y-13681D01*
Y-14469D02*
X57087Y-14665D01*
X80709D01*
D61*
X159252Y-67520D02*
G03*
X159252Y-67520I-6890J0D01*
G01*
X141339Y-23130D02*
X146850D01*
X145669Y-24311D02*
X146850Y-23130D01*
X145669Y-24311D02*
Y-21555D01*
X147244Y-23130D01*
X144882D02*
X147244D01*
X96949Y-2265D02*
X99573D01*
Y-2921D01*
X96949Y-5545D01*
Y-6201D01*
X99573D01*
X103508D02*
X100885D01*
X103508Y-3577D01*
Y-2921D01*
X102852Y-2265D01*
X101541D01*
X100885Y-2921D01*
D62*
X67027Y-64961D02*
X68209D01*
X67027D02*
Y-63779D01*
Y-57874D02*
X68209D01*
X67027Y-59055D02*
Y-57874D01*
X8268Y-45276D02*
X11024D01*
Y-48425D02*
Y-45276D01*
X8268Y-57087D02*
X11024D01*
Y-53937D01*
X158366Y-23327D02*
Y-11122D01*
X157185Y-23327D02*
Y-11122D01*
Y-23327D02*
X158366D01*
X157185Y-11122D02*
X158366D01*
X113386Y-82382D02*
Y-76083D01*
X125591Y-82382D02*
Y-76083D01*
X167323Y-83661D02*
Y-50984D01*
X137402D02*
X167323D01*
X142520Y-86417D02*
Y-48622D01*
Y-86417D02*
X162205D01*
Y-48622D01*
X142520D02*
X162205D01*
X137402Y-83661D02*
Y-50984D01*
Y-83661D02*
X167323D01*
X134646Y-55709D02*
Y-54921D01*
Y-55709D02*
X135433D01*
Y-54921D01*
X134646D02*
X135433D01*
X168504Y-62795D02*
X169291D01*
Y-63583D02*
Y-62795D01*
X168504Y-63583D02*
X169291D01*
X168504D02*
Y-62795D01*
X36024Y-47441D02*
Y-44587D01*
X37894D01*
X49705D02*
X51575D01*
Y-47441D02*
Y-44587D01*
Y-60138D02*
Y-57284D01*
X49705Y-60138D02*
X51575D01*
X36024D02*
Y-57284D01*
Y-60138D02*
X37894D01*
X16043Y-38878D02*
X17618D01*
X16043Y-36122D02*
X17618D01*
X115354Y-9744D02*
Y-6201D01*
X118504D01*
X127165Y-9744D02*
Y-6201D01*
X124016D02*
X127165D01*
X88484Y-68898D02*
Y-65748D01*
X94390Y-68898D02*
Y-65748D01*
X21949Y-34449D02*
Y-32480D01*
X34154Y-34449D02*
Y-32480D01*
X21949Y-34449D02*
X34154D01*
X21949Y-32480D02*
X34154D01*
X107480Y-16831D02*
X109153D01*
Y-18504D02*
Y-16831D01*
X80020D02*
X81693D01*
X80020Y-18504D02*
Y-16831D01*
Y-45965D02*
X81693D01*
X80020D02*
Y-44291D01*
X107480Y-45965D02*
X109153D01*
Y-44291D01*
X26870Y-51968D02*
Y-48819D01*
X32776Y-51968D02*
Y-48819D01*
X17618Y-51968D02*
Y-48819D01*
X23524Y-51968D02*
Y-48819D01*
X41437Y-21161D02*
X44587D01*
X41437Y-15256D02*
X44587D01*
X169193Y-41634D02*
Y-38484D01*
X175098Y-41634D02*
Y-38484D01*
X59547Y-53150D02*
Y-51575D01*
X62303Y-53150D02*
Y-51575D01*
X62402Y-42520D02*
Y-40945D01*
X59646Y-42520D02*
Y-40945D01*
X57185Y-53150D02*
Y-51575D01*
X54429Y-53150D02*
Y-51575D01*
X54527Y-42520D02*
Y-40945D01*
X57284Y-42520D02*
Y-40945D01*
D63*
X148819Y-27461D02*
Y-7776D01*
X129134Y-27461D02*
Y-7776D01*
D64*
X129528Y-19587D02*
X148819D01*
X129528Y-16043D02*
X148819D01*
D65*
X1673Y-49410D02*
Y-52165D01*
X3051D01*
X3510Y-51706D01*
Y-49869D01*
X3051Y-49410D01*
X1673D01*
X4428Y-52165D02*
X5347D01*
X4887D01*
Y-49410D01*
X4428Y-49869D01*
X56102Y-35335D02*
X53347D01*
Y-33957D01*
X53807Y-33498D01*
X54725D01*
X55184Y-33957D01*
Y-35335D01*
Y-34416D02*
X56102Y-33498D01*
Y-30743D02*
Y-32580D01*
X54266Y-30743D01*
X53807D01*
X53347Y-31202D01*
Y-32120D01*
X53807Y-32580D01*
Y-29825D02*
X53347Y-29365D01*
Y-28447D01*
X53807Y-27988D01*
X55643D01*
X56102Y-28447D01*
Y-29365D01*
X55643Y-29825D01*
X53807D01*
X58628Y-27887D02*
Y-26051D01*
X58169Y-25591D01*
X57250D01*
X56791Y-26051D01*
Y-27887D01*
X57250Y-28346D01*
X58169D01*
X57710Y-27428D02*
X58628Y-28346D01*
X58169D02*
X58628Y-27887D01*
X60924Y-28346D02*
Y-25591D01*
X59546Y-26969D01*
X61383D01*
X117421Y-55513D02*
Y-58268D01*
X118799D01*
X119258Y-57809D01*
Y-55972D01*
X118799Y-55513D01*
X117421D01*
X122013Y-58268D02*
X120176D01*
X122013Y-56431D01*
Y-55972D01*
X121554Y-55513D01*
X120635D01*
X120176Y-55972D01*
X53839Y-60417D02*
Y-57662D01*
X55216D01*
X55675Y-58122D01*
Y-59040D01*
X55216Y-59499D01*
X53839D01*
X54757D02*
X55675Y-60417D01*
X56594D02*
X57512D01*
X57053D01*
Y-57662D01*
X56594Y-58122D01*
X58890D02*
X59349Y-57662D01*
X60267D01*
X60726Y-58122D01*
Y-58581D01*
X60267Y-59040D01*
X60726Y-59499D01*
Y-59958D01*
X60267Y-60417D01*
X59349D01*
X58890Y-59958D01*
Y-59499D01*
X59349Y-59040D01*
X58890Y-58581D01*
Y-58122D01*
X59349Y-59040D02*
X60267D01*
X66338Y-45669D02*
X63977D01*
Y-44489D01*
X64371Y-44095D01*
X65158D01*
X65551Y-44489D01*
Y-45669D01*
Y-44882D02*
X66338Y-44095D01*
Y-43308D02*
Y-42521D01*
Y-42914D01*
X63977D01*
X64371Y-43308D01*
X63977Y-41340D02*
Y-39766D01*
X64371D01*
X65945Y-41340D01*
X66338D01*
X66437Y-55709D02*
X63682D01*
Y-54331D01*
X64141Y-53872D01*
X65060D01*
X65519Y-54331D01*
Y-55709D01*
Y-54790D02*
X66437Y-53872D01*
Y-52954D02*
Y-52035D01*
Y-52495D01*
X63682D01*
X64141Y-52954D01*
X63682Y-48821D02*
X64141Y-49739D01*
X65060Y-50658D01*
X65978D01*
X66437Y-50199D01*
Y-49280D01*
X65978Y-48821D01*
X65519D01*
X65060Y-49280D01*
Y-50658D01*
X170636Y-48984D02*
X170177Y-48524D01*
X169258D01*
X168799Y-48984D01*
Y-50820D01*
X169258Y-51279D01*
X170177D01*
X170636Y-50820D01*
X171554Y-51279D02*
X172473D01*
X172013D01*
Y-48524D01*
X171554Y-48984D01*
X173850D02*
X174309Y-48524D01*
X175228D01*
X175687Y-48984D01*
Y-49443D01*
X175228Y-49902D01*
X174768D01*
X175228D01*
X175687Y-50361D01*
Y-50820D01*
X175228Y-51279D01*
X174309D01*
X173850Y-50820D01*
X89730Y-86090D02*
X89271Y-85631D01*
X88353D01*
X87894Y-86090D01*
Y-86549D01*
X88353Y-87008D01*
X89271D01*
X89730Y-87467D01*
Y-87927D01*
X89271Y-88386D01*
X88353D01*
X87894Y-87927D01*
X92026Y-88386D02*
X91108D01*
X90649Y-87927D01*
Y-87008D01*
X91108Y-86549D01*
X92026D01*
X92485Y-87008D01*
Y-87467D01*
X90649D01*
X93404Y-88386D02*
Y-86549D01*
X94781D01*
X95240Y-87008D01*
Y-88386D01*
X96159D02*
X97536D01*
X97995Y-87927D01*
X97536Y-87467D01*
X96618D01*
X96159Y-87008D01*
X96618Y-86549D01*
X97995D01*
X99373Y-88386D02*
X100291D01*
X100751Y-87927D01*
Y-87008D01*
X100291Y-86549D01*
X99373D01*
X98914Y-87008D01*
Y-87927D01*
X99373Y-88386D01*
X101669Y-86549D02*
Y-88386D01*
Y-87467D01*
X102128Y-87008D01*
X102587Y-86549D01*
X103046D01*
X79823Y-59055D02*
X82578D01*
Y-60433D01*
X82119Y-60892D01*
X81200D01*
X80741Y-60433D01*
Y-59055D01*
Y-59974D02*
X79823Y-60892D01*
Y-63647D02*
Y-61810D01*
X81660Y-63647D01*
X82119D01*
X82578Y-63188D01*
Y-62269D01*
X82119Y-61810D01*
X48293Y-11681D02*
X47834Y-11221D01*
X46916D01*
X46457Y-11681D01*
Y-13517D01*
X46916Y-13976D01*
X47834D01*
X48293Y-13517D01*
X49212Y-13976D02*
X50130D01*
X49671D01*
Y-11221D01*
X49212Y-11681D01*
X53344Y-13976D02*
X51508D01*
X53344Y-12140D01*
Y-11681D01*
X52885Y-11221D01*
X51967D01*
X51508Y-11681D01*
X13352Y-55972D02*
X12893Y-55513D01*
X11975D01*
X11516Y-55972D01*
Y-57809D01*
X11975Y-58268D01*
X12893D01*
X13352Y-57809D01*
X14271D02*
X14730Y-58268D01*
X15648D01*
X16107Y-57809D01*
Y-55972D01*
X15648Y-55513D01*
X14730D01*
X14271Y-55972D01*
Y-56431D01*
X14730Y-56890D01*
X16107D01*
X29986Y-59909D02*
X29527Y-59450D01*
X28609D01*
X28150Y-59909D01*
Y-61746D01*
X28609Y-62205D01*
X29527D01*
X29986Y-61746D01*
X30905Y-62205D02*
X31823D01*
X31364D01*
Y-59450D01*
X30905Y-59909D01*
X33200D02*
X33660Y-59450D01*
X34578D01*
X35037Y-59909D01*
Y-61746D01*
X34578Y-62205D01*
X33660D01*
X33200Y-61746D01*
Y-59909D01*
X61187Y-64502D02*
Y-62665D01*
X60728Y-62206D01*
X59810D01*
X59350Y-62665D01*
Y-64502D01*
X59810Y-64961D01*
X60728D01*
X60269Y-64042D02*
X61187Y-64961D01*
X60728D02*
X61187Y-64502D01*
X62105Y-64961D02*
X63024D01*
X62565D01*
Y-62206D01*
X62105Y-62665D01*
X73819Y-19981D02*
Y-22277D01*
X74278Y-22736D01*
X75196D01*
X75656Y-22277D01*
Y-19981D01*
X76574Y-22736D02*
X77492D01*
X77033D01*
Y-19981D01*
X76574Y-20440D01*
X67815Y-7186D02*
X69652D01*
Y-7645D01*
X67815Y-9482D01*
Y-9941D01*
X69652D01*
X70570D02*
X71488D01*
X71029D01*
Y-7186D01*
X70570Y-7645D01*
X16142Y-32383D02*
Y-34679D01*
X16601Y-35138D01*
X17519D01*
X17978Y-34679D01*
Y-32383D01*
X20274Y-35138D02*
Y-32383D01*
X18897Y-33760D01*
X20733D01*
X37304Y-12303D02*
X39600D01*
X40059Y-11844D01*
Y-10926D01*
X39600Y-10467D01*
X37304D01*
X37763Y-9548D02*
X37304Y-9089D01*
Y-8171D01*
X37763Y-7711D01*
X38222D01*
X38682Y-8171D01*
Y-8630D01*
Y-8171D01*
X39141Y-7711D01*
X39600D01*
X40059Y-8171D01*
Y-9089D01*
X39600Y-9548D01*
X101476Y-63976D02*
Y-61221D01*
X102854D01*
X103313Y-61681D01*
Y-62599D01*
X102854Y-63058D01*
X101476D01*
X102395D02*
X103313Y-63976D01*
X104231D02*
X105150D01*
X104691D01*
Y-61221D01*
X104231Y-61681D01*
X82972Y-56890D02*
Y-54135D01*
X84350D01*
X84809Y-54594D01*
Y-55512D01*
X84350Y-55971D01*
X82972D01*
X83891D02*
X84809Y-56890D01*
X87105D02*
Y-54135D01*
X85728Y-55512D01*
X87564D01*
X119980Y-23819D02*
Y-21064D01*
X121358D01*
X121817Y-21523D01*
Y-22441D01*
X121358Y-22901D01*
X119980D01*
X120899D02*
X121817Y-23819D01*
X122735Y-21523D02*
X123195Y-21064D01*
X124113D01*
X124572Y-21523D01*
Y-21982D01*
X124113Y-22441D01*
X124572Y-22901D01*
Y-23360D01*
X124113Y-23819D01*
X123195D01*
X122735Y-23360D01*
Y-22901D01*
X123195Y-22441D01*
X122735Y-21982D01*
Y-21523D01*
X123195Y-22441D02*
X124113D01*
X30118Y-8858D02*
X27363D01*
Y-7481D01*
X27822Y-7022D01*
X28741D01*
X29200Y-7481D01*
Y-8858D01*
Y-7940D02*
X30118Y-7022D01*
Y-6103D02*
Y-5185D01*
Y-5644D01*
X27363D01*
X27822Y-6103D01*
Y-3807D02*
X27363Y-3348D01*
Y-2430D01*
X27822Y-1971D01*
X29659D01*
X30118Y-2430D01*
Y-3348D01*
X29659Y-3807D01*
X27822D01*
X67815Y-46358D02*
Y-43603D01*
X69192D01*
X69652Y-44062D01*
Y-44981D01*
X69192Y-45440D01*
X67815D01*
X68733D02*
X69652Y-46358D01*
X70570D02*
X71488D01*
X71029D01*
Y-43603D01*
X70570Y-44062D01*
X72866Y-46358D02*
X73784D01*
X73325D01*
Y-43603D01*
X72866Y-44062D01*
X118996Y-51575D02*
X119914D01*
X119455D01*
Y-49738D01*
X118996D01*
X121751Y-51575D02*
X122669D01*
X123129Y-51116D01*
Y-50197D01*
X122669Y-49738D01*
X121751D01*
X121292Y-50197D01*
Y-51116D01*
X121751Y-51575D01*
X113746Y-37238D02*
X112369D01*
X111909Y-37697D01*
Y-38616D01*
X112369Y-39075D01*
X113746D01*
X114664D02*
X115583D01*
X115124D01*
Y-36320D01*
X114664D01*
X116960Y-39075D02*
Y-36320D01*
Y-38157D02*
X118338Y-37238D01*
X116960Y-38157D02*
X118338Y-39075D01*
X116961Y-19061D02*
X117420Y-18602D01*
Y-17684D01*
X116961Y-17224D01*
X115124D01*
X114665Y-17684D01*
Y-18602D01*
X115124Y-19061D01*
X114665Y-19979D02*
Y-20898D01*
Y-20439D01*
X117420D01*
X116961Y-19979D01*
X117420Y-24112D02*
X116961Y-23194D01*
X116043Y-22275D01*
X115124D01*
X114665Y-22735D01*
Y-23653D01*
X115124Y-24112D01*
X115584D01*
X116043Y-23653D01*
Y-22275D01*
X104691Y-51051D02*
X104232Y-50591D01*
X103314D01*
X102854Y-51051D01*
Y-52887D01*
X103314Y-53347D01*
X104232D01*
X104691Y-52887D01*
X105609Y-53347D02*
X106528D01*
X106069D01*
Y-50591D01*
X105609Y-51051D01*
X109742Y-50591D02*
X107905D01*
Y-51969D01*
X108824Y-51510D01*
X109283D01*
X109742Y-51969D01*
Y-52887D01*
X109283Y-53347D01*
X108364D01*
X107905Y-52887D01*
X91601Y-56464D02*
X91141Y-56005D01*
X90223D01*
X89764Y-56464D01*
Y-58301D01*
X90223Y-58760D01*
X91141D01*
X91601Y-58301D01*
X92519Y-58760D02*
X93437D01*
X92978D01*
Y-56005D01*
X92519Y-56464D01*
X69750Y-18866D02*
X69291Y-18406D01*
X68373D01*
X67913Y-18866D01*
Y-20702D01*
X68373Y-21161D01*
X69291D01*
X69750Y-20702D01*
X70668Y-18406D02*
X72505D01*
Y-18866D01*
X70668Y-20702D01*
Y-21161D01*
X89516Y-6982D02*
X89976Y-6523D01*
Y-5605D01*
X89516Y-5146D01*
X87680D01*
X87221Y-5605D01*
Y-6523D01*
X87680Y-6982D01*
X89516Y-7901D02*
X89976Y-8360D01*
Y-9278D01*
X89516Y-9737D01*
X89057D01*
X88598Y-9278D01*
X88139Y-9737D01*
X87680D01*
X87221Y-9278D01*
Y-8360D01*
X87680Y-7901D01*
X88139D01*
X88598Y-8360D01*
X89057Y-7901D01*
X89516D01*
X88598Y-8360D02*
Y-9278D01*
X126246Y-4364D02*
Y-2527D01*
X125787Y-2068D01*
X124869D01*
X124409Y-2527D01*
Y-4364D01*
X124869Y-4823D01*
X125787D01*
X125328Y-3904D02*
X126246Y-4823D01*
X125787D02*
X126246Y-4364D01*
X127164Y-2527D02*
X127624Y-2068D01*
X128542D01*
X129001Y-2527D01*
Y-2986D01*
X128542Y-3445D01*
X128083D01*
X128542D01*
X129001Y-3904D01*
Y-4364D01*
X128542Y-4823D01*
X127624D01*
X127164Y-4364D01*
X35039Y-40454D02*
Y-42750D01*
X35498Y-43209D01*
X36417D01*
X36876Y-42750D01*
Y-40454D01*
X39631D02*
X37794D01*
Y-41831D01*
X38713Y-41372D01*
X39172D01*
X39631Y-41831D01*
Y-42750D01*
X39172Y-43209D01*
X38254D01*
X37794Y-42750D01*
X30152Y-31823D02*
X30611Y-32283D01*
X31529D01*
X31988Y-31823D01*
Y-29987D01*
X31529Y-29528D01*
X30611D01*
X30152Y-29987D01*
X29233Y-29528D02*
X28315D01*
X28774D01*
Y-32283D01*
X29233Y-31823D01*
X26937Y-29528D02*
X26019D01*
X26478D01*
Y-32283D01*
X26937Y-31823D01*
X24541Y-8850D02*
X21786D01*
Y-7473D01*
X22245Y-7014D01*
X23163D01*
X23622Y-7473D01*
Y-8850D01*
Y-7932D02*
X24541Y-7014D01*
X24082Y-6095D02*
X24541Y-5636D01*
Y-4718D01*
X24082Y-4259D01*
X22245D01*
X21786Y-4718D01*
Y-5636D01*
X22245Y-6095D01*
X22704D01*
X23163Y-5636D01*
Y-4259D01*
X146653Y-53249D02*
X149277D01*
X147966D01*
Y-57185D01*
X150589D02*
X151901D01*
X151245D01*
Y-53249D01*
X150589Y-53905D01*
X127461Y-35039D02*
Y-32284D01*
X128838D01*
X129297Y-32743D01*
Y-33662D01*
X128838Y-34121D01*
X127461D01*
X128379D02*
X129297Y-35039D01*
X130216Y-32284D02*
X132052D01*
Y-32743D01*
X130216Y-34580D01*
Y-35039D01*
X134252Y-35138D02*
Y-32383D01*
X135629D01*
X136089Y-32842D01*
Y-33760D01*
X135629Y-34220D01*
X134252D01*
X135170D02*
X136089Y-35138D01*
X138844Y-32383D02*
X137925Y-32842D01*
X137007Y-33760D01*
Y-34679D01*
X137466Y-35138D01*
X138384D01*
X138844Y-34679D01*
Y-34220D01*
X138384Y-33760D01*
X137007D01*
X160990Y-43143D02*
Y-41306D01*
X160531Y-40847D01*
X159613D01*
X159153Y-41306D01*
Y-43143D01*
X159613Y-43602D01*
X160531D01*
X160072Y-42684D02*
X160990Y-43602D01*
X160531D02*
X160990Y-43143D01*
X163745Y-43602D02*
X161909D01*
X163745Y-41766D01*
Y-41306D01*
X163286Y-40847D01*
X162368D01*
X161909Y-41306D01*
X147309Y-36680D02*
X146850Y-36221D01*
X145932D01*
X145472Y-36680D01*
Y-38517D01*
X145932Y-38976D01*
X146850D01*
X147309Y-38517D01*
X148228Y-36680D02*
X148687Y-36221D01*
X149605D01*
X150064Y-36680D01*
Y-37140D01*
X149605Y-37599D01*
X149146D01*
X149605D01*
X150064Y-38058D01*
Y-38517D01*
X149605Y-38976D01*
X148687D01*
X148228Y-38517D01*
X108431Y-78413D02*
X107972Y-77954D01*
X107054D01*
X106595Y-78413D01*
Y-80250D01*
X107054Y-80709D01*
X107972D01*
X108431Y-80250D01*
X111186Y-80709D02*
X109350D01*
X111186Y-78872D01*
Y-78413D01*
X110727Y-77954D01*
X109809D01*
X109350Y-78413D01*
X156659Y-28314D02*
X156200Y-27855D01*
X155282D01*
X154823Y-28314D01*
Y-30151D01*
X155282Y-30610D01*
X156200D01*
X156659Y-30151D01*
X159415Y-27855D02*
X157578D01*
Y-29233D01*
X158496Y-28774D01*
X158955D01*
X159415Y-29233D01*
Y-30151D01*
X158955Y-30610D01*
X158037D01*
X157578Y-30151D01*
X147539Y-9449D02*
X144784D01*
Y-8071D01*
X145244Y-7612D01*
X146162D01*
X146621Y-8071D01*
Y-9449D01*
Y-8530D02*
X147539Y-7612D01*
Y-6694D02*
Y-5776D01*
Y-6235D01*
X144784D01*
X145244Y-6694D01*
X144784Y-2561D02*
Y-4398D01*
X146162D01*
X145703Y-3480D01*
Y-3020D01*
X146162Y-2561D01*
X147080D01*
X147539Y-3020D01*
Y-3939D01*
X147080Y-4398D01*
X161909Y-16241D02*
Y-18537D01*
X162369Y-18996D01*
X163287D01*
X163746Y-18537D01*
Y-16241D01*
X166501Y-18996D02*
X164664D01*
X166501Y-17159D01*
Y-16700D01*
X166042Y-16241D01*
X165124D01*
X164664Y-16700D01*
X45177Y-32678D02*
Y-35433D01*
X47014D01*
X47932D02*
X48851D01*
X48391D01*
Y-32678D01*
X47932Y-33137D01*
X68504Y-27854D02*
Y-25099D01*
X69881D01*
X70341Y-25559D01*
Y-26477D01*
X69881Y-26936D01*
X68504D01*
X69422D02*
X70341Y-27854D01*
X71259D02*
X72177D01*
X71718D01*
Y-25099D01*
X71259Y-25559D01*
X73555Y-27395D02*
X74014Y-27854D01*
X74932D01*
X75392Y-27395D01*
Y-25559D01*
X74932Y-25099D01*
X74014D01*
X73555Y-25559D01*
Y-26018D01*
X74014Y-26477D01*
X75392D01*
X163091Y-31102D02*
Y-28347D01*
X164468D01*
X164927Y-28806D01*
Y-29725D01*
X164468Y-30184D01*
X163091D01*
X164009D02*
X164927Y-31102D01*
X167682D02*
X165846D01*
X167682Y-29266D01*
Y-28806D01*
X167223Y-28347D01*
X166305D01*
X165846Y-28806D01*
X170437Y-31102D02*
X168601D01*
X170437Y-29266D01*
Y-28806D01*
X169978Y-28347D01*
X169060D01*
X168601Y-28806D01*
X93012Y-53445D02*
Y-50690D01*
X94389D01*
X94849Y-51149D01*
Y-52067D01*
X94389Y-52526D01*
X93012D01*
X93930D02*
X94849Y-53445D01*
X95767D02*
X96685D01*
X96226D01*
Y-50690D01*
X95767Y-51149D01*
X99900Y-53445D02*
X98063D01*
X99900Y-51608D01*
Y-51149D01*
X99440Y-50690D01*
X98522D01*
X98063Y-51149D01*
M02*
