G04 Layer_Color=65535*
%FSLAX25Y25*%
%MOIN*%
G70*
G01*
G75*
%ADD13C,0.01000*%
%ADD14C,0.00787*%
G36*
X-7571Y-28839D02*
X-8071D01*
Y-25054D01*
X-7571D01*
Y-28839D01*
D02*
G37*
G36*
X-711D02*
X-1175D01*
Y-25054D01*
X-711D01*
Y-28839D01*
D02*
G37*
G36*
X3491Y-26096D02*
X3963D01*
Y-26456D01*
X3491D01*
Y-28064D01*
Y-28068D01*
Y-28072D01*
Y-28097D01*
Y-28129D01*
X3495Y-28170D01*
Y-28211D01*
X3503Y-28252D01*
X3508Y-28289D01*
X3516Y-28318D01*
Y-28322D01*
X3520Y-28326D01*
X3536Y-28351D01*
X3561Y-28379D01*
X3594Y-28408D01*
X3598D01*
X3606Y-28412D01*
X3618Y-28416D01*
X3635Y-28425D01*
X3659Y-28429D01*
X3684Y-28437D01*
X3717Y-28441D01*
X3786D01*
X3811Y-28437D01*
X3840D01*
X3876Y-28433D01*
X3918Y-28429D01*
X3963Y-28425D01*
X4024Y-28835D01*
X4016D01*
X3991Y-28843D01*
X3954Y-28847D01*
X3905Y-28855D01*
X3852Y-28863D01*
X3794Y-28867D01*
X3672Y-28875D01*
X3630D01*
X3585Y-28871D01*
X3528Y-28867D01*
X3462Y-28855D01*
X3397Y-28843D01*
X3335Y-28822D01*
X3278Y-28798D01*
X3274Y-28793D01*
X3257Y-28781D01*
X3233Y-28765D01*
X3200Y-28740D01*
X3167Y-28712D01*
X3134Y-28675D01*
X3106Y-28634D01*
X3081Y-28589D01*
X3077Y-28580D01*
X3073Y-28560D01*
X3069Y-28543D01*
X3065Y-28523D01*
X3061Y-28498D01*
X3056Y-28470D01*
X3048Y-28437D01*
X3044Y-28396D01*
X3040Y-28351D01*
X3036Y-28302D01*
X3032Y-28244D01*
Y-28183D01*
X3028Y-28113D01*
Y-28039D01*
Y-26456D01*
X2683D01*
Y-26096D01*
X3028D01*
Y-25419D01*
X3491Y-25140D01*
Y-26096D01*
D02*
G37*
G36*
X-2938Y-26038D02*
X-2897D01*
X-2847Y-26046D01*
X-2794Y-26055D01*
X-2733Y-26067D01*
X-2663Y-26079D01*
X-2593Y-26100D01*
X-2515Y-26124D01*
X-2442Y-26157D01*
X-2364Y-26190D01*
X-2286Y-26235D01*
X-2212Y-26284D01*
X-2138Y-26342D01*
X-2069Y-26407D01*
X-2064Y-26411D01*
X-2052Y-26424D01*
X-2036Y-26444D01*
X-2011Y-26477D01*
X-1987Y-26514D01*
X-1954Y-26559D01*
X-1921Y-26612D01*
X-1888Y-26674D01*
X-1855Y-26744D01*
X-1822Y-26821D01*
X-1790Y-26903D01*
X-1765Y-26994D01*
X-1740Y-27092D01*
X-1724Y-27199D01*
X-1712Y-27313D01*
X-1708Y-27432D01*
Y-27436D01*
Y-27457D01*
Y-27481D01*
X-1712Y-27518D01*
Y-27564D01*
X-1716Y-27617D01*
X-1720Y-27674D01*
X-1728Y-27736D01*
X-1745Y-27867D01*
X-1773Y-28006D01*
X-1814Y-28142D01*
X-1839Y-28203D01*
X-1868Y-28265D01*
Y-28269D01*
X-1876Y-28277D01*
X-1884Y-28293D01*
X-1896Y-28314D01*
X-1913Y-28338D01*
X-1933Y-28371D01*
X-1987Y-28437D01*
X-2052Y-28515D01*
X-2130Y-28593D01*
X-2224Y-28666D01*
X-2331Y-28736D01*
X-2335D01*
X-2343Y-28744D01*
X-2360Y-28752D01*
X-2384Y-28761D01*
X-2413Y-28773D01*
X-2446Y-28789D01*
X-2483Y-28802D01*
X-2528Y-28818D01*
X-2573Y-28835D01*
X-2626Y-28847D01*
X-2737Y-28875D01*
X-2860Y-28892D01*
X-2991Y-28900D01*
X-3016D01*
X-3044Y-28896D01*
X-3085D01*
X-3134Y-28888D01*
X-3192Y-28880D01*
X-3253Y-28867D01*
X-3323Y-28855D01*
X-3397Y-28835D01*
X-3471Y-28810D01*
X-3549Y-28781D01*
X-3627Y-28744D01*
X-3704Y-28703D01*
X-3778Y-28654D01*
X-3852Y-28597D01*
X-3922Y-28531D01*
X-3926Y-28527D01*
X-3938Y-28515D01*
X-3954Y-28494D01*
X-3975Y-28461D01*
X-4004Y-28425D01*
X-4032Y-28379D01*
X-4065Y-28322D01*
X-4098Y-28260D01*
X-4131Y-28187D01*
X-4164Y-28109D01*
X-4192Y-28023D01*
X-4221Y-27928D01*
X-4242Y-27826D01*
X-4258Y-27715D01*
X-4270Y-27596D01*
X-4274Y-27469D01*
Y-27465D01*
Y-27461D01*
Y-27436D01*
X-4270Y-27395D01*
X-4266Y-27346D01*
X-4262Y-27281D01*
X-4254Y-27207D01*
X-4237Y-27129D01*
X-4221Y-27043D01*
X-4200Y-26953D01*
X-4172Y-26858D01*
X-4135Y-26764D01*
X-4098Y-26670D01*
X-4049Y-26579D01*
X-3991Y-26493D01*
X-3926Y-26416D01*
X-3852Y-26342D01*
X-3848Y-26338D01*
X-3836Y-26329D01*
X-3815Y-26313D01*
X-3791Y-26292D01*
X-3754Y-26272D01*
X-3713Y-26243D01*
X-3667Y-26215D01*
X-3610Y-26186D01*
X-3553Y-26157D01*
X-3487Y-26133D01*
X-3417Y-26104D01*
X-3339Y-26083D01*
X-3258Y-26063D01*
X-3176Y-26046D01*
X-3085Y-26038D01*
X-2991Y-26034D01*
X-2966D01*
X-2938Y-26038D01*
D02*
G37*
G36*
X5582D02*
X5623D01*
X5672Y-26046D01*
X5726Y-26055D01*
X5787Y-26067D01*
X5857Y-26079D01*
X5926Y-26100D01*
X6004Y-26124D01*
X6078Y-26157D01*
X6156Y-26190D01*
X6234Y-26235D01*
X6308Y-26284D01*
X6382Y-26342D01*
X6451Y-26407D01*
X6455Y-26411D01*
X6468Y-26424D01*
X6484Y-26444D01*
X6509Y-26477D01*
X6533Y-26514D01*
X6566Y-26559D01*
X6599Y-26612D01*
X6632Y-26674D01*
X6664Y-26744D01*
X6697Y-26821D01*
X6730Y-26903D01*
X6755Y-26994D01*
X6779Y-27092D01*
X6796Y-27199D01*
X6808Y-27313D01*
X6812Y-27432D01*
Y-27436D01*
Y-27457D01*
Y-27481D01*
X6808Y-27518D01*
Y-27564D01*
X6804Y-27617D01*
X6800Y-27674D01*
X6792Y-27736D01*
X6775Y-27867D01*
X6746Y-28006D01*
X6706Y-28142D01*
X6681Y-28203D01*
X6652Y-28265D01*
Y-28269D01*
X6644Y-28277D01*
X6636Y-28293D01*
X6623Y-28314D01*
X6607Y-28338D01*
X6587Y-28371D01*
X6533Y-28437D01*
X6468Y-28515D01*
X6390Y-28593D01*
X6295Y-28666D01*
X6189Y-28736D01*
X6185D01*
X6177Y-28744D01*
X6160Y-28752D01*
X6136Y-28761D01*
X6107Y-28773D01*
X6074Y-28789D01*
X6037Y-28802D01*
X5992Y-28818D01*
X5947Y-28835D01*
X5894Y-28847D01*
X5783Y-28875D01*
X5660Y-28892D01*
X5529Y-28900D01*
X5504D01*
X5475Y-28896D01*
X5435D01*
X5385Y-28888D01*
X5328Y-28880D01*
X5266Y-28867D01*
X5197Y-28855D01*
X5123Y-28835D01*
X5049Y-28810D01*
X4971Y-28781D01*
X4893Y-28744D01*
X4815Y-28703D01*
X4742Y-28654D01*
X4668Y-28597D01*
X4598Y-28531D01*
X4594Y-28527D01*
X4582Y-28515D01*
X4565Y-28494D01*
X4545Y-28461D01*
X4516Y-28425D01*
X4487Y-28379D01*
X4455Y-28322D01*
X4422Y-28260D01*
X4389Y-28187D01*
X4356Y-28109D01*
X4327Y-28023D01*
X4299Y-27928D01*
X4278Y-27826D01*
X4262Y-27715D01*
X4250Y-27596D01*
X4245Y-27469D01*
Y-27465D01*
Y-27461D01*
Y-27436D01*
X4250Y-27395D01*
X4254Y-27346D01*
X4258Y-27281D01*
X4266Y-27207D01*
X4282Y-27129D01*
X4299Y-27043D01*
X4319Y-26953D01*
X4348Y-26858D01*
X4385Y-26764D01*
X4422Y-26670D01*
X4471Y-26579D01*
X4528Y-26493D01*
X4594Y-26416D01*
X4668Y-26342D01*
X4672Y-26338D01*
X4684Y-26329D01*
X4705Y-26313D01*
X4729Y-26292D01*
X4766Y-26272D01*
X4807Y-26243D01*
X4852Y-26215D01*
X4910Y-26186D01*
X4967Y-26157D01*
X5033Y-26133D01*
X5102Y-26104D01*
X5180Y-26083D01*
X5262Y-26063D01*
X5344Y-26046D01*
X5435Y-26038D01*
X5529Y-26034D01*
X5553D01*
X5582Y-26038D01*
D02*
G37*
G36*
X1257D02*
X1293D01*
X1371Y-26046D01*
X1462Y-26055D01*
X1556Y-26071D01*
X1650Y-26092D01*
X1736Y-26120D01*
X1740D01*
X1744Y-26124D01*
X1757Y-26129D01*
X1773Y-26137D01*
X1810Y-26153D01*
X1859Y-26178D01*
X1913Y-26206D01*
X1966Y-26243D01*
X2015Y-26284D01*
X2060Y-26329D01*
X2064Y-26333D01*
X2077Y-26350D01*
X2097Y-26379D01*
X2118Y-26416D01*
X2142Y-26461D01*
X2167Y-26514D01*
X2191Y-26575D01*
X2208Y-26645D01*
Y-26649D01*
X2212Y-26670D01*
X2216Y-26698D01*
X2220Y-26744D01*
X2224Y-26801D01*
X2228Y-26875D01*
Y-26920D01*
X2232Y-26965D01*
Y-27014D01*
Y-27071D01*
Y-27691D01*
Y-27699D01*
Y-27719D01*
Y-27752D01*
Y-27793D01*
Y-27846D01*
Y-27904D01*
X2237Y-27969D01*
Y-28035D01*
X2241Y-28174D01*
Y-28244D01*
X2245Y-28310D01*
X2249Y-28371D01*
X2253Y-28425D01*
X2257Y-28474D01*
X2261Y-28511D01*
Y-28519D01*
X2265Y-28539D01*
X2273Y-28572D01*
X2286Y-28617D01*
X2302Y-28666D01*
X2323Y-28720D01*
X2347Y-28781D01*
X2376Y-28839D01*
X1892D01*
X1888Y-28830D01*
X1880Y-28814D01*
X1867Y-28781D01*
X1855Y-28740D01*
X1839Y-28691D01*
X1822Y-28634D01*
X1810Y-28568D01*
X1802Y-28494D01*
X1798Y-28498D01*
X1790Y-28502D01*
X1777Y-28515D01*
X1757Y-28531D01*
X1732Y-28547D01*
X1708Y-28572D01*
X1642Y-28617D01*
X1564Y-28670D01*
X1482Y-28724D01*
X1392Y-28769D01*
X1302Y-28810D01*
X1298D01*
X1289Y-28814D01*
X1277Y-28818D01*
X1261Y-28822D01*
X1240Y-28830D01*
X1211Y-28839D01*
X1150Y-28855D01*
X1072Y-28871D01*
X986Y-28888D01*
X892Y-28896D01*
X789Y-28900D01*
X744D01*
X715Y-28896D01*
X679Y-28892D01*
X633Y-28888D01*
X584Y-28884D01*
X535Y-28871D01*
X420Y-28847D01*
X305Y-28810D01*
X252Y-28785D01*
X195Y-28752D01*
X146Y-28720D01*
X96Y-28683D01*
X92Y-28679D01*
X84Y-28670D01*
X76Y-28658D01*
X59Y-28642D01*
X39Y-28621D01*
X18Y-28593D01*
X-2Y-28564D01*
X-23Y-28527D01*
X-68Y-28449D01*
X-109Y-28351D01*
X-125Y-28297D01*
X-133Y-28240D01*
X-141Y-28179D01*
X-146Y-28117D01*
Y-28113D01*
Y-28109D01*
Y-28084D01*
X-141Y-28043D01*
X-133Y-27994D01*
X-125Y-27937D01*
X-109Y-27875D01*
X-84Y-27814D01*
X-55Y-27748D01*
X-51Y-27740D01*
X-39Y-27719D01*
X-18Y-27691D01*
X10Y-27650D01*
X43Y-27609D01*
X84Y-27564D01*
X129Y-27523D01*
X182Y-27481D01*
X191Y-27477D01*
X211Y-27465D01*
X240Y-27445D01*
X281Y-27424D01*
X330Y-27400D01*
X387Y-27375D01*
X453Y-27350D01*
X519Y-27330D01*
X527D01*
X543Y-27322D01*
X576Y-27318D01*
X621Y-27305D01*
X679Y-27297D01*
X752Y-27285D01*
X834Y-27272D01*
X933Y-27260D01*
X941D01*
X957Y-27256D01*
X986Y-27252D01*
X1023Y-27248D01*
X1072Y-27240D01*
X1125Y-27231D01*
X1183Y-27223D01*
X1248Y-27215D01*
X1384Y-27190D01*
X1519Y-27162D01*
X1585Y-27145D01*
X1650Y-27129D01*
X1708Y-27112D01*
X1761Y-27096D01*
Y-27092D01*
Y-27080D01*
Y-27063D01*
X1765Y-27047D01*
Y-27006D01*
Y-26989D01*
Y-26977D01*
Y-26973D01*
Y-26965D01*
Y-26948D01*
Y-26932D01*
X1757Y-26883D01*
X1749Y-26821D01*
X1732Y-26756D01*
X1708Y-26690D01*
X1675Y-26629D01*
X1630Y-26579D01*
X1622Y-26571D01*
X1613Y-26563D01*
X1597Y-26555D01*
X1576Y-26543D01*
X1556Y-26530D01*
X1498Y-26498D01*
X1425Y-26469D01*
X1335Y-26444D01*
X1228Y-26428D01*
X1105Y-26420D01*
X1052D01*
X1023Y-26424D01*
X994D01*
X920Y-26432D01*
X843Y-26448D01*
X765Y-26469D01*
X687Y-26498D01*
X621Y-26534D01*
X613Y-26539D01*
X597Y-26555D01*
X568Y-26588D01*
X535Y-26629D01*
X498Y-26682D01*
X457Y-26756D01*
X424Y-26838D01*
X408Y-26887D01*
X391Y-26940D01*
X-64Y-26879D01*
Y-26875D01*
X-59Y-26866D01*
X-55Y-26850D01*
X-51Y-26830D01*
X-43Y-26805D01*
X-35Y-26776D01*
X-14Y-26711D01*
X14Y-26637D01*
X47Y-26559D01*
X88Y-26481D01*
X137Y-26411D01*
Y-26407D01*
X146Y-26403D01*
X166Y-26383D01*
X199Y-26350D01*
X244Y-26309D01*
X301Y-26264D01*
X371Y-26219D01*
X453Y-26174D01*
X547Y-26133D01*
X551D01*
X560Y-26129D01*
X576Y-26124D01*
X597Y-26116D01*
X621Y-26108D01*
X650Y-26100D01*
X687Y-26092D01*
X728Y-26083D01*
X769Y-26075D01*
X818Y-26067D01*
X924Y-26051D01*
X1043Y-26038D01*
X1170Y-26034D01*
X1228D01*
X1257Y-26038D01*
D02*
G37*
G36*
X-5763D02*
X-5730D01*
X-5652Y-26046D01*
X-5566Y-26059D01*
X-5467Y-26075D01*
X-5373Y-26096D01*
X-5279Y-26129D01*
X-5275D01*
X-5266Y-26133D01*
X-5254Y-26137D01*
X-5238Y-26145D01*
X-5197Y-26165D01*
X-5139Y-26194D01*
X-5082Y-26231D01*
X-5025Y-26276D01*
X-4967Y-26325D01*
X-4918Y-26383D01*
X-4914Y-26391D01*
X-4897Y-26411D01*
X-4877Y-26448D01*
X-4852Y-26493D01*
X-4824Y-26555D01*
X-4799Y-26629D01*
X-4775Y-26711D01*
X-4754Y-26805D01*
X-5209Y-26866D01*
Y-26862D01*
Y-26858D01*
X-5217Y-26834D01*
X-5226Y-26793D01*
X-5242Y-26748D01*
X-5266Y-26694D01*
X-5299Y-26641D01*
X-5340Y-26588D01*
X-5390Y-26539D01*
X-5398Y-26534D01*
X-5418Y-26518D01*
X-5451Y-26498D01*
X-5496Y-26477D01*
X-5558Y-26452D01*
X-5631Y-26436D01*
X-5713Y-26420D01*
X-5812Y-26416D01*
X-5865D01*
X-5890Y-26420D01*
X-5918D01*
X-5988Y-26428D01*
X-6062Y-26440D01*
X-6140Y-26461D01*
X-6210Y-26485D01*
X-6238Y-26502D01*
X-6267Y-26522D01*
X-6271Y-26526D01*
X-6287Y-26543D01*
X-6308Y-26563D01*
X-6333Y-26592D01*
X-6361Y-26629D01*
X-6382Y-26674D01*
X-6398Y-26719D01*
X-6402Y-26772D01*
Y-26776D01*
Y-26789D01*
X-6398Y-26805D01*
X-6394Y-26825D01*
X-6378Y-26879D01*
X-6365Y-26908D01*
X-6349Y-26936D01*
X-6345Y-26940D01*
X-6337Y-26948D01*
X-6324Y-26961D01*
X-6304Y-26977D01*
X-6279Y-26998D01*
X-6246Y-27018D01*
X-6210Y-27039D01*
X-6168Y-27059D01*
X-6164D01*
X-6152Y-27063D01*
X-6128Y-27071D01*
X-6091Y-27084D01*
X-6066Y-27092D01*
X-6037Y-27100D01*
X-6005Y-27108D01*
X-5968Y-27121D01*
X-5923Y-27133D01*
X-5873Y-27145D01*
X-5820Y-27162D01*
X-5759Y-27178D01*
X-5754D01*
X-5738Y-27182D01*
X-5713Y-27190D01*
X-5677Y-27199D01*
X-5640Y-27211D01*
X-5595Y-27223D01*
X-5541Y-27240D01*
X-5488Y-27256D01*
X-5373Y-27289D01*
X-5262Y-27326D01*
X-5209Y-27342D01*
X-5160Y-27363D01*
X-5115Y-27379D01*
X-5074Y-27395D01*
X-5070D01*
X-5066Y-27400D01*
X-5041Y-27412D01*
X-5004Y-27428D01*
X-4963Y-27457D01*
X-4914Y-27490D01*
X-4861Y-27531D01*
X-4811Y-27580D01*
X-4766Y-27637D01*
X-4762Y-27645D01*
X-4750Y-27666D01*
X-4729Y-27699D01*
X-4709Y-27748D01*
X-4688Y-27805D01*
X-4668Y-27871D01*
X-4656Y-27949D01*
X-4651Y-28035D01*
Y-28039D01*
Y-28047D01*
Y-28060D01*
Y-28076D01*
X-4660Y-28121D01*
X-4668Y-28179D01*
X-4684Y-28244D01*
X-4709Y-28318D01*
X-4746Y-28396D01*
X-4791Y-28474D01*
Y-28478D01*
X-4799Y-28482D01*
X-4815Y-28506D01*
X-4848Y-28543D01*
X-4889Y-28589D01*
X-4947Y-28642D01*
X-5012Y-28695D01*
X-5090Y-28744D01*
X-5180Y-28789D01*
X-5184D01*
X-5193Y-28793D01*
X-5205Y-28798D01*
X-5226Y-28806D01*
X-5250Y-28814D01*
X-5279Y-28826D01*
X-5312Y-28835D01*
X-5348Y-28843D01*
X-5435Y-28863D01*
X-5533Y-28884D01*
X-5640Y-28896D01*
X-5759Y-28900D01*
X-5812D01*
X-5849Y-28896D01*
X-5890Y-28892D01*
X-5943Y-28888D01*
X-6000Y-28884D01*
X-6062Y-28871D01*
X-6193Y-28847D01*
X-6333Y-28810D01*
X-6398Y-28785D01*
X-6464Y-28752D01*
X-6521Y-28720D01*
X-6578Y-28683D01*
X-6583Y-28679D01*
X-6591Y-28670D01*
X-6603Y-28658D01*
X-6624Y-28642D01*
X-6644Y-28617D01*
X-6669Y-28589D01*
X-6697Y-28556D01*
X-6726Y-28519D01*
X-6759Y-28474D01*
X-6788Y-28425D01*
X-6816Y-28371D01*
X-6845Y-28310D01*
X-6870Y-28248D01*
X-6894Y-28179D01*
X-6915Y-28101D01*
X-6931Y-28023D01*
X-6472Y-27949D01*
Y-27953D01*
X-6468Y-27961D01*
Y-27973D01*
X-6464Y-27994D01*
X-6460Y-28019D01*
X-6451Y-28043D01*
X-6431Y-28105D01*
X-6402Y-28174D01*
X-6365Y-28248D01*
X-6320Y-28314D01*
X-6259Y-28375D01*
X-6255D01*
X-6250Y-28379D01*
X-6226Y-28396D01*
X-6185Y-28420D01*
X-6128Y-28445D01*
X-6058Y-28474D01*
X-5972Y-28494D01*
X-5873Y-28511D01*
X-5763Y-28519D01*
X-5730D01*
X-5709Y-28515D01*
X-5681D01*
X-5652Y-28511D01*
X-5582Y-28502D01*
X-5504Y-28486D01*
X-5422Y-28466D01*
X-5348Y-28433D01*
X-5283Y-28392D01*
X-5275Y-28388D01*
X-5258Y-28367D01*
X-5234Y-28343D01*
X-5205Y-28306D01*
X-5176Y-28260D01*
X-5152Y-28207D01*
X-5135Y-28150D01*
X-5127Y-28084D01*
Y-28076D01*
Y-28060D01*
X-5135Y-28027D01*
X-5144Y-27994D01*
X-5160Y-27953D01*
X-5184Y-27912D01*
X-5221Y-27871D01*
X-5266Y-27834D01*
X-5271Y-27830D01*
X-5287Y-27822D01*
X-5316Y-27810D01*
X-5336Y-27801D01*
X-5361Y-27793D01*
X-5394Y-27781D01*
X-5426Y-27768D01*
X-5463Y-27756D01*
X-5508Y-27744D01*
X-5558Y-27727D01*
X-5615Y-27711D01*
X-5677Y-27695D01*
X-5742Y-27678D01*
X-5746D01*
X-5763Y-27674D01*
X-5791Y-27666D01*
X-5824Y-27658D01*
X-5865Y-27645D01*
X-5914Y-27633D01*
X-5968Y-27617D01*
X-6025Y-27600D01*
X-6140Y-27564D01*
X-6259Y-27527D01*
X-6316Y-27510D01*
X-6365Y-27490D01*
X-6414Y-27469D01*
X-6455Y-27453D01*
X-6460D01*
X-6464Y-27449D01*
X-6488Y-27436D01*
X-6521Y-27416D01*
X-6566Y-27383D01*
X-6615Y-27346D01*
X-6665Y-27305D01*
X-6714Y-27252D01*
X-6755Y-27194D01*
X-6759Y-27186D01*
X-6771Y-27166D01*
X-6788Y-27129D01*
X-6804Y-27084D01*
X-6820Y-27031D01*
X-6837Y-26969D01*
X-6849Y-26899D01*
X-6853Y-26825D01*
Y-26821D01*
Y-26817D01*
Y-26793D01*
X-6849Y-26760D01*
X-6841Y-26715D01*
X-6833Y-26662D01*
X-6820Y-26604D01*
X-6800Y-26543D01*
X-6771Y-26485D01*
X-6767Y-26477D01*
X-6755Y-26461D01*
X-6738Y-26432D01*
X-6710Y-26395D01*
X-6681Y-26354D01*
X-6640Y-26309D01*
X-6595Y-26268D01*
X-6542Y-26227D01*
X-6538Y-26223D01*
X-6521Y-26215D01*
X-6497Y-26198D01*
X-6464Y-26182D01*
X-6423Y-26161D01*
X-6374Y-26137D01*
X-6312Y-26112D01*
X-6246Y-26092D01*
X-6242D01*
X-6238Y-26087D01*
X-6214Y-26083D01*
X-6177Y-26075D01*
X-6123Y-26063D01*
X-6066Y-26051D01*
X-5996Y-26042D01*
X-5923Y-26038D01*
X-5845Y-26034D01*
X-5791D01*
X-5763Y-26038D01*
D02*
G37*
G36*
X8403D02*
X8423D01*
X8448Y-26042D01*
X8510Y-26055D01*
X8583Y-26071D01*
X8661Y-26100D01*
X8751Y-26137D01*
X8842Y-26186D01*
X8678Y-26616D01*
X8669Y-26612D01*
X8649Y-26600D01*
X8616Y-26584D01*
X8571Y-26563D01*
X8522Y-26547D01*
X8464Y-26530D01*
X8403Y-26518D01*
X8337Y-26514D01*
X8313D01*
X8284Y-26518D01*
X8247Y-26526D01*
X8202Y-26539D01*
X8157Y-26555D01*
X8112Y-26575D01*
X8063Y-26608D01*
X8059Y-26612D01*
X8042Y-26625D01*
X8022Y-26645D01*
X7997Y-26674D01*
X7968Y-26711D01*
X7940Y-26752D01*
X7915Y-26805D01*
X7890Y-26862D01*
Y-26866D01*
X7886Y-26875D01*
X7882Y-26887D01*
X7878Y-26903D01*
X7874Y-26928D01*
X7866Y-26957D01*
X7853Y-27022D01*
X7841Y-27104D01*
X7829Y-27194D01*
X7821Y-27297D01*
X7817Y-27404D01*
Y-28839D01*
X7353D01*
Y-26096D01*
X7772D01*
Y-26510D01*
X7780Y-26502D01*
X7788Y-26485D01*
X7800Y-26469D01*
X7829Y-26416D01*
X7870Y-26358D01*
X7915Y-26292D01*
X7964Y-26227D01*
X8013Y-26174D01*
X8042Y-26149D01*
X8067Y-26129D01*
X8075Y-26124D01*
X8091Y-26112D01*
X8120Y-26100D01*
X8153Y-26079D01*
X8198Y-26063D01*
X8247Y-26051D01*
X8304Y-26038D01*
X8362Y-26034D01*
X8387D01*
X8403Y-26038D01*
D02*
G37*
%LPC*%
G36*
X-2991Y-26420D02*
X-3024D01*
X-3048Y-26424D01*
X-3077Y-26428D01*
X-3114Y-26432D01*
X-3192Y-26452D01*
X-3286Y-26485D01*
X-3331Y-26506D01*
X-3381Y-26530D01*
X-3430Y-26559D01*
X-3479Y-26596D01*
X-3524Y-26637D01*
X-3569Y-26682D01*
X-3573Y-26686D01*
X-3577Y-26694D01*
X-3590Y-26711D01*
X-3606Y-26731D01*
X-3622Y-26760D01*
X-3643Y-26793D01*
X-3663Y-26834D01*
X-3684Y-26879D01*
X-3704Y-26932D01*
X-3725Y-26989D01*
X-3745Y-27055D01*
X-3762Y-27125D01*
X-3778Y-27203D01*
X-3791Y-27285D01*
X-3795Y-27375D01*
X-3799Y-27469D01*
Y-27473D01*
Y-27494D01*
Y-27518D01*
X-3795Y-27555D01*
X-3791Y-27600D01*
X-3786Y-27650D01*
X-3778Y-27707D01*
X-3770Y-27764D01*
X-3741Y-27896D01*
X-3700Y-28027D01*
X-3676Y-28088D01*
X-3643Y-28150D01*
X-3610Y-28207D01*
X-3569Y-28260D01*
X-3565Y-28265D01*
X-3557Y-28273D01*
X-3545Y-28285D01*
X-3528Y-28302D01*
X-3503Y-28322D01*
X-3479Y-28343D01*
X-3446Y-28367D01*
X-3409Y-28388D01*
X-3327Y-28437D01*
X-3229Y-28478D01*
X-3176Y-28494D01*
X-3114Y-28506D01*
X-3057Y-28515D01*
X-2991Y-28519D01*
X-2958D01*
X-2934Y-28515D01*
X-2905Y-28511D01*
X-2868Y-28506D01*
X-2790Y-28486D01*
X-2700Y-28453D01*
X-2651Y-28433D01*
X-2602Y-28408D01*
X-2556Y-28379D01*
X-2507Y-28343D01*
X-2462Y-28302D01*
X-2417Y-28256D01*
X-2413Y-28252D01*
X-2409Y-28244D01*
X-2396Y-28228D01*
X-2380Y-28207D01*
X-2364Y-28179D01*
X-2343Y-28146D01*
X-2323Y-28105D01*
X-2298Y-28056D01*
X-2278Y-28006D01*
X-2257Y-27945D01*
X-2237Y-27879D01*
X-2220Y-27805D01*
X-2204Y-27727D01*
X-2191Y-27641D01*
X-2187Y-27551D01*
X-2183Y-27453D01*
Y-27449D01*
Y-27432D01*
Y-27404D01*
X-2187Y-27371D01*
X-2191Y-27326D01*
X-2196Y-27277D01*
X-2204Y-27223D01*
X-2212Y-27166D01*
X-2241Y-27043D01*
X-2257Y-26977D01*
X-2282Y-26912D01*
X-2310Y-26850D01*
X-2339Y-26789D01*
X-2376Y-26735D01*
X-2417Y-26682D01*
X-2421Y-26678D01*
X-2429Y-26670D01*
X-2442Y-26657D01*
X-2458Y-26641D01*
X-2483Y-26621D01*
X-2507Y-26600D01*
X-2540Y-26575D01*
X-2573Y-26551D01*
X-2659Y-26502D01*
X-2757Y-26461D01*
X-2811Y-26444D01*
X-2868Y-26432D01*
X-2929Y-26424D01*
X-2991Y-26420D01*
D02*
G37*
G36*
X5529D02*
X5496D01*
X5471Y-26424D01*
X5443Y-26428D01*
X5406Y-26432D01*
X5328Y-26452D01*
X5234Y-26485D01*
X5189Y-26506D01*
X5139Y-26530D01*
X5090Y-26559D01*
X5041Y-26596D01*
X4996Y-26637D01*
X4951Y-26682D01*
X4947Y-26686D01*
X4942Y-26694D01*
X4930Y-26711D01*
X4914Y-26731D01*
X4897Y-26760D01*
X4877Y-26793D01*
X4856Y-26834D01*
X4836Y-26879D01*
X4815Y-26932D01*
X4795Y-26989D01*
X4774Y-27055D01*
X4758Y-27125D01*
X4742Y-27203D01*
X4729Y-27285D01*
X4725Y-27375D01*
X4721Y-27469D01*
Y-27473D01*
Y-27494D01*
Y-27518D01*
X4725Y-27555D01*
X4729Y-27600D01*
X4733Y-27650D01*
X4742Y-27707D01*
X4750Y-27764D01*
X4778Y-27896D01*
X4820Y-28027D01*
X4844Y-28088D01*
X4877Y-28150D01*
X4910Y-28207D01*
X4951Y-28260D01*
X4955Y-28265D01*
X4963Y-28273D01*
X4975Y-28285D01*
X4992Y-28302D01*
X5016Y-28322D01*
X5041Y-28343D01*
X5074Y-28367D01*
X5111Y-28388D01*
X5193Y-28437D01*
X5291Y-28478D01*
X5344Y-28494D01*
X5406Y-28506D01*
X5463Y-28515D01*
X5529Y-28519D01*
X5562D01*
X5586Y-28515D01*
X5615Y-28511D01*
X5652Y-28506D01*
X5730Y-28486D01*
X5820Y-28453D01*
X5869Y-28433D01*
X5918Y-28408D01*
X5963Y-28379D01*
X6013Y-28343D01*
X6058Y-28302D01*
X6103Y-28256D01*
X6107Y-28252D01*
X6111Y-28244D01*
X6123Y-28228D01*
X6140Y-28207D01*
X6156Y-28179D01*
X6177Y-28146D01*
X6197Y-28105D01*
X6222Y-28056D01*
X6242Y-28006D01*
X6263Y-27945D01*
X6283Y-27879D01*
X6300Y-27805D01*
X6316Y-27727D01*
X6328Y-27641D01*
X6332Y-27551D01*
X6336Y-27453D01*
Y-27449D01*
Y-27432D01*
Y-27404D01*
X6332Y-27371D01*
X6328Y-27326D01*
X6324Y-27277D01*
X6316Y-27223D01*
X6308Y-27166D01*
X6279Y-27043D01*
X6263Y-26977D01*
X6238Y-26912D01*
X6209Y-26850D01*
X6181Y-26789D01*
X6144Y-26735D01*
X6103Y-26682D01*
X6099Y-26678D01*
X6090Y-26670D01*
X6078Y-26657D01*
X6062Y-26641D01*
X6037Y-26621D01*
X6013Y-26600D01*
X5980Y-26575D01*
X5947Y-26551D01*
X5861Y-26502D01*
X5762Y-26461D01*
X5709Y-26444D01*
X5652Y-26432D01*
X5590Y-26424D01*
X5529Y-26420D01*
D02*
G37*
G36*
X1765Y-27461D02*
X1761D01*
X1753Y-27465D01*
X1736Y-27469D01*
X1716Y-27477D01*
X1691Y-27490D01*
X1658Y-27498D01*
X1617Y-27510D01*
X1576Y-27523D01*
X1523Y-27535D01*
X1466Y-27551D01*
X1404Y-27564D01*
X1335Y-27580D01*
X1261Y-27596D01*
X1183Y-27609D01*
X1097Y-27625D01*
X1002Y-27637D01*
X990D01*
X974Y-27641D01*
X957Y-27645D01*
X904Y-27654D01*
X843Y-27666D01*
X777Y-27678D01*
X711Y-27695D01*
X650Y-27711D01*
X597Y-27732D01*
X592Y-27736D01*
X576Y-27740D01*
X556Y-27752D01*
X531Y-27768D01*
X498Y-27793D01*
X469Y-27818D01*
X441Y-27846D01*
X412Y-27883D01*
X408Y-27887D01*
X404Y-27900D01*
X391Y-27920D01*
X383Y-27949D01*
X371Y-27982D01*
X359Y-28019D01*
X355Y-28060D01*
X350Y-28105D01*
Y-28113D01*
X355Y-28133D01*
X359Y-28170D01*
X367Y-28211D01*
X383Y-28260D01*
X408Y-28314D01*
X445Y-28363D01*
X490Y-28412D01*
X498Y-28416D01*
X514Y-28433D01*
X547Y-28449D01*
X592Y-28474D01*
X650Y-28494D01*
X724Y-28515D01*
X806Y-28531D01*
X900Y-28535D01*
X945D01*
X970Y-28531D01*
X998Y-28527D01*
X1060Y-28519D01*
X1138Y-28506D01*
X1216Y-28486D01*
X1298Y-28457D01*
X1380Y-28420D01*
X1384D01*
X1388Y-28416D01*
X1412Y-28400D01*
X1449Y-28371D01*
X1498Y-28334D01*
X1548Y-28289D01*
X1597Y-28232D01*
X1646Y-28170D01*
X1687Y-28097D01*
X1691Y-28088D01*
X1699Y-28068D01*
X1712Y-28031D01*
X1724Y-27982D01*
X1736Y-27916D01*
X1749Y-27834D01*
X1757Y-27740D01*
X1761Y-27633D01*
X1765Y-27461D01*
D02*
G37*
%LPD*%
D13*
X5902Y37902D02*
G03*
X5902Y37902I-6000J0D01*
G01*
D14*
X9902Y13209D02*
Y23209D01*
X29902D01*
Y13209D02*
Y23209D01*
X9902Y13209D02*
X29902D01*
M02*
